  0
SECTION
  2
HEADER
  9
$ACADVER
  1
AC1009
  9
$EXTMIN
 10
0.0
 20
0.0
 30
0.0
  9
$EXTMAX
 10
1000.0
 20
1000.0
 30
0.0
  9
$FILLMODE
 70
 0
  9
$SPLFRAME
 70
 1
  0
ENDSEC
  0
SECTION
  2
TABLES
  0
TABLE
  2
LAYER
 70
1
  0
LAYER
  2
0
 70
     0
 62
     7
  6
CONTINUOUS
  0
ENDTAB
  0
ENDSEC
  0
SECTION
  2
ENTITIES
  0
LINE
  8
0
 62
     0
 10
298.845
 20
95.3424
 30
0.0
 11
299.238
 21
95.3273
 31
0.0
  0
LINE
  8
0
 62
     0
 10
299.238
 20
95.3273
 30
0.0
 11
299.628
 21
95.2817
 31
0.0
  0
LINE
  8
0
 62
     0
 10
299.628
 20
95.2817
 30
0.0
 11
300.013
 21
95.2045
 31
0.0
  0
LINE
  8
0
 62
     0
 10
300.013
 20
95.2045
 30
0.0
 11
300.39
 21
95.0983
 31
0.0
  0
LINE
  8
0
 62
     0
 10
300.39
 20
95.0983
 30
0.0
 11
300.758
 21
94.9621
 31
0.0
  0
LINE
  8
0
 62
     0
 10
300.758
 20
94.9621
 30
0.0
 11
301.115
 21
94.7981
 31
0.0
  0
LINE
  8
0
 62
     0
 10
301.115
 20
94.7981
 30
0.0
 11
301.458
 21
94.6065
 31
0.0
  0
LINE
  8
0
 62
     0
 10
301.458
 20
94.6065
 30
0.0
 11
301.783
 21
94.3889
 31
0.0
  0
LINE
  8
0
 62
     0
 10
301.783
 20
94.3889
 30
0.0
 11
302.092
 21
94.1462
 31
0.0
  0
LINE
  8
0
 62
     0
 10
302.092
 20
94.1462
 30
0.0
 11
302.38
 21
93.8788
 31
0.0
  0
LINE
  8
0
 62
     0
 10
302.38
 20
93.8788
 30
0.0
 11
302.647
 21
93.5909
 31
0.0
  0
LINE
  8
0
 62
     0
 10
302.647
 20
93.5909
 30
0.0
 11
302.891
 21
93.2822
 31
0.0
  0
LINE
  8
0
 62
     0
 10
302.891
 20
93.2822
 30
0.0
 11
303.109
 21
92.9555
 31
0.0
  0
LINE
  8
0
 62
     0
 10
303.109
 20
92.9555
 30
0.0
 11
303.301
 21
92.6123
 31
0.0
  0
LINE
  8
0
 62
     0
 10
303.301
 20
92.6123
 30
0.0
 11
303.465
 21
92.257
 31
0.0
  0
LINE
  8
0
 62
     0
 10
303.465
 20
92.257
 30
0.0
 11
303.601
 21
91.8891
 31
0.0
  0
LINE
  8
0
 62
     0
 10
303.601
 20
91.8891
 30
0.0
 11
303.707
 21
91.5099
 31
0.0
  0
LINE
  8
0
 62
     0
 10
303.707
 20
91.5099
 30
0.0
 11
303.784
 21
91.1257
 31
0.0
  0
LINE
  8
0
 62
     0
 10
303.784
 20
91.1257
 30
0.0
 11
303.83
 21
90.7355
 31
0.0
  0
LINE
  8
0
 62
     0
 10
303.83
 20
90.7355
 30
0.0
 11
303.845
 21
90.3429
 31
0.0
  0
LINE
  8
0
 62
     0
 10
303.845
 20
90.3429
 30
0.0
 11
303.846
 21
5.09323
 31
0.0
  0
LINE
  8
0
 62
     0
 10
303.846
 20
5.09323
 30
0.0
 11
303.83
 21
4.69911
 31
0.0
  0
LINE
  8
0
 62
     0
 10
303.83
 20
4.69911
 30
0.0
 11
303.784
 21
4.30911
 31
0.0
  0
LINE
  8
0
 62
     0
 10
303.784
 20
4.30911
 30
0.0
 11
303.707
 21
3.92465
 31
0.0
  0
LINE
  8
0
 62
     0
 10
303.707
 20
3.92465
 30
0.0
 11
303.601
 21
3.54707
 31
0.0
  0
LINE
  8
0
 62
     0
 10
303.601
 20
3.54707
 30
0.0
 11
303.465
 21
3.17913
 31
0.0
  0
LINE
  8
0
 62
     0
 10
303.465
 20
3.17913
 30
0.0
 11
303.301
 21
2.82222
 31
0.0
  0
LINE
  8
0
 62
     0
 10
303.301
 20
2.82222
 30
0.0
 11
303.109
 21
2.47909
 31
0.0
  0
LINE
  8
0
 62
     0
 10
303.109
 20
2.47909
 30
0.0
 11
302.891
 21
2.15387
 31
0.0
  0
LINE
  8
0
 62
     0
 10
302.891
 20
2.15387
 30
0.0
 11
302.647
 21
1.84519
 31
0.0
  0
LINE
  8
0
 62
     0
 10
302.647
 20
1.84519
 30
0.0
 11
302.38
 21
1.55718
 31
0.0
  0
LINE
  8
0
 62
     0
 10
302.38
 20
1.55718
 30
0.0
 11
302.092
 21
1.28984
 31
0.0
  0
LINE
  8
0
 62
     0
 10
302.092
 20
1.28984
 30
0.0
 11
301.783
 21
1.04731
 31
0.0
  0
LINE
  8
0
 62
     0
 10
301.783
 20
1.04731
 30
0.0
 11
301.458
 21
0.828202
 31
0.0
  0
LINE
  8
0
 62
     0
 10
301.458
 20
0.828202
 30
0.0
 11
301.115
 21
0.636655
 31
0.0
  0
LINE
  8
0
 62
     0
 10
301.115
 20
0.636655
 30
0.0
 11
300.758
 21
0.472666
 31
0.0
  0
LINE
  8
0
 62
     0
 10
300.758
 20
0.472666
 30
0.0
 11
300.39
 21
0.336241
 31
0.0
  0
LINE
  8
0
 62
     0
 10
300.39
 20
0.336241
 30
0.0
 11
300.013
 21
0.230132
 31
0.0
  0
LINE
  8
0
 62
     0
 10
300.013
 20
0.230132
 30
0.0
 11
299.628
 21
0.15434
 31
0.0
  0
LINE
  8
0
 62
     0
 10
299.628
 20
0.15434
 30
0.0
 11
299.238
 21
0.107487
 31
0.0
  0
LINE
  8
0
 62
     0
 10
299.238
 20
0.107487
 30
0.0
 11
298.845
 21
0.0923286
 31
0.0
  0
LINE
  8
0
 62
     0
 10
298.845
 20
0.0923286
 30
0.0
 11
5.0946
 21
0.0923286
 31
0.0
  0
LINE
  8
0
 62
     0
 10
5.0946
 20
0.0923286
 30
0.0
 11
4.70186
 21
0.107487
 31
0.0
  0
LINE
  8
0
 62
     0
 10
4.70186
 20
0.107487
 30
0.0
 11
4.3119
 21
0.15434
 31
0.0
  0
LINE
  8
0
 62
     0
 10
4.3119
 20
0.15434
 30
0.0
 11
3.9274
 21
0.230132
 31
0.0
  0
LINE
  8
0
 62
     0
 10
3.9274
 20
0.230132
 30
0.0
 11
3.54845
 21
0.336241
 31
0.0
  0
LINE
  8
0
 62
     0
 10
3.54845
 20
0.336241
 30
0.0
 11
3.18051
 21
0.472666
 31
0.0
  0
LINE
  8
0
 62
     0
 10
3.18051
 20
0.472666
 30
0.0
 11
2.82498
 21
0.636655
 31
0.0
  0
LINE
  8
0
 62
     0
 10
2.82498
 20
0.636655
 30
0.0
 11
2.48185
 21
0.828202
 31
0.0
  0
LINE
  8
0
 62
     0
 10
2.48185
 20
0.828202
 30
0.0
 11
2.15525
 21
1.04731
 31
0.0
  0
LINE
  8
0
 62
     0
 10
2.15525
 20
1.04731
 30
0.0
 11
1.84657
 21
1.28984
 31
0.0
  0
LINE
  8
0
 62
     0
 10
1.84657
 20
1.28984
 30
0.0
 11
1.55856
 21
1.55718
 31
0.0
  0
LINE
  8
0
 62
     0
 10
1.55856
 20
1.55718
 30
0.0
 11
1.29122
 21
1.84519
 31
0.0
  0
LINE
  8
0
 62
     0
 10
1.29122
 20
1.84519
 30
0.0
 11
1.04869
 21
2.15387
 31
0.0
  0
LINE
  8
0
 62
     0
 10
1.04869
 20
2.15387
 30
0.0
 11
0.830957
 21
2.47909
 31
0.0
  0
LINE
  8
0
 62
     0
 10
0.830957
 20
2.47909
 30
0.0
 11
0.63941
 21
2.82222
 31
0.0
  0
LINE
  8
0
 62
     0
 10
0.63941
 20
2.82222
 30
0.0
 11
0.475424
 21
3.17913
 31
0.0
  0
LINE
  8
0
 62
     0
 10
0.475424
 20
3.17913
 30
0.0
 11
0.338998
 21
3.54707
 31
0.0
  0
LINE
  8
0
 62
     0
 10
0.338998
 20
3.54707
 30
0.0
 11
0.232888
 21
3.92465
 31
0.0
  0
LINE
  8
0
 62
     0
 10
0.232888
 20
3.92465
 30
0.0
 11
0.155718
 21
4.30911
 31
0.0
  0
LINE
  8
0
 62
     0
 10
0.155718
 20
4.30911
 30
0.0
 11
0.110243
 21
4.69911
 31
0.0
  0
LINE
  8
0
 62
     0
 10
0.110243
 20
4.69911
 30
0.0
 11
0.0937066
 21
5.09323
 31
0.0
  0
LINE
  8
0
 62
     0
 10
0.0937066
 20
5.09323
 30
0.0
 11
0.0950846
 21
90.3429
 31
0.0
  0
LINE
  8
0
 62
     0
 10
0.0950846
 20
90.3429
 30
0.0
 11
0.110243
 21
90.7355
 31
0.0
  0
LINE
  8
0
 62
     0
 10
0.110243
 20
90.7355
 30
0.0
 11
0.155718
 21
91.1257
 31
0.0
  0
LINE
  8
0
 62
     0
 10
0.155718
 20
91.1257
 30
0.0
 11
0.232888
 21
91.5099
 31
0.0
  0
LINE
  8
0
 62
     0
 10
0.232888
 20
91.5099
 30
0.0
 11
0.338998
 21
91.8891
 31
0.0
  0
LINE
  8
0
 62
     0
 10
0.338998
 20
91.8891
 30
0.0
 11
0.475424
 21
92.257
 31
0.0
  0
LINE
  8
0
 62
     0
 10
0.475424
 20
92.257
 30
0.0
 11
0.63941
 21
92.6123
 31
0.0
  0
LINE
  8
0
 62
     0
 10
0.63941
 20
92.6123
 30
0.0
 11
0.830957
 21
92.9555
 31
0.0
  0
LINE
  8
0
 62
     0
 10
0.830957
 20
92.9555
 30
0.0
 11
1.04869
 21
93.2822
 31
0.0
  0
LINE
  8
0
 62
     0
 10
1.04869
 20
93.2822
 30
0.0
 11
1.29122
 21
93.5909
 31
0.0
  0
LINE
  8
0
 62
     0
 10
1.29122
 20
93.5909
 30
0.0
 11
1.55856
 21
93.8788
 31
0.0
  0
LINE
  8
0
 62
     0
 10
1.55856
 20
93.8788
 30
0.0
 11
1.84657
 21
94.1462
 31
0.0
  0
LINE
  8
0
 62
     0
 10
1.84657
 20
94.1462
 30
0.0
 11
2.15525
 21
94.3889
 31
0.0
  0
LINE
  8
0
 62
     0
 10
2.15525
 20
94.3889
 30
0.0
 11
2.48185
 21
94.6065
 31
0.0
  0
LINE
  8
0
 62
     0
 10
2.48185
 20
94.6065
 30
0.0
 11
2.82498
 21
94.7981
 31
0.0
  0
LINE
  8
0
 62
     0
 10
2.82498
 20
94.7981
 30
0.0
 11
3.18051
 21
94.9621
 31
0.0
  0
LINE
  8
0
 62
     0
 10
3.18051
 20
94.9621
 30
0.0
 11
3.54845
 21
95.0983
 31
0.0
  0
LINE
  8
0
 62
     0
 10
3.54845
 20
95.0983
 30
0.0
 11
3.9274
 21
95.2045
 31
0.0
  0
LINE
  8
0
 62
     0
 10
3.9274
 20
95.2045
 30
0.0
 11
4.3119
 21
95.2817
 31
0.0
  0
LINE
  8
0
 62
     0
 10
4.3119
 20
95.2817
 30
0.0
 11
4.70186
 21
95.3273
 31
0.0
  0
LINE
  8
0
 62
     0
 10
4.70186
 20
95.3273
 30
0.0
 11
5.0946
 21
95.3438
 31
0.0
  0
LINE
  8
0
 62
     0
 10
5.0946
 20
95.3438
 30
0.0
 11
298.845
 21
95.3424
 31
0.0
  0
ENDSEC
  0
EOF
