<?xml version="1.0"?>
<!-- Generated by SVGo -->
<svg width="313.752mm" height="105.252mm"
     viewBox="0.000 0.000 313.752 105.252"
     xmlns="http://www.w3.org/2000/svg" 
     xmlns:xlink="http://www.w3.org/1999/xlink">
<polygon points="303.752,5.001 304.144,5.016 304.534,5.062 304.919,5.139 305.297,5.245 305.665,5.381 306.021,5.545 306.364,5.737 306.690,5.955 306.999,6.198 307.287,6.465 307.554,6.753 307.797,7.062 308.015,7.388 308.207,7.731 308.371,8.087 308.507,8.455 308.613,8.833 308.690,9.218 308.736,9.608 308.751,10.001 308.752,95.251 308.736,95.644 308.690,96.034 308.613,96.419 308.507,96.797 308.371,97.165 308.207,97.521 308.015,97.864 307.797,98.190 307.554,98.499 307.287,98.787 306.999,99.054 306.690,99.297 306.364,99.515 306.021,99.707 305.665,99.871 305.297,100.007 304.919,100.113 304.534,100.190 304.144,100.236 303.752,100.252 10.001,100.251 9.608,100.236 9.218,100.190 8.833,100.113 8.455,100.007 8.087,99.871 7.731,99.707 7.388,99.515 7.062,99.297 6.753,99.054 6.465,98.787 6.198,98.499 5.955,98.190 5.737,97.864 5.545,97.521 5.381,97.165 5.245,96.797 5.139,96.419 5.062,96.034 5.016,95.644 5.000,95.251 5.001,10.001 5.016,9.608 5.062,9.218 5.139,8.833 5.245,8.455 5.381,8.087 5.545,7.731 5.737,7.388 5.955,7.062 6.198,6.753 6.465,6.465 6.753,6.198 7.062,5.955 7.388,5.737 7.731,5.545 8.087,5.381 8.455,5.245 8.833,5.139 9.218,5.062 9.608,5.016 10.001,5.000" style="fill:none;stroke-width:0.050000mm;stroke:black"/>
</svg>
