  0
SECTION
  2
HEADER
  9
$ACADVER
  1
AC1009
  9
$EXTMIN
 10
0.0
 20
0.0
 30
0.0
  9
$EXTMAX
 10
1000.0
 20
1000.0
 30
0.0
  9
$FILLMODE
 70
 0
  9
$SPLFRAME
 70
 1
  0
ENDSEC
  0
SECTION
  2
TABLES
  0
TABLE
  2
LAYER
 70
1
  0
LAYER
  2
0
 70
     0
 62
     7
  6
CONTINUOUS
  0
ENDTAB
  0
ENDSEC
  0
SECTION
  2
ENTITIES
  0
LINE
  8
0
 62
     0
 10
298.845
 20
95.3424
 30
0.0
 11
299.238
 21
95.3273
 31
0.0
  0
LINE
  8
0
 62
     0
 10
299.238
 20
95.3273
 30
0.0
 11
299.628
 21
95.2817
 31
0.0
  0
LINE
  8
0
 62
     0
 10
299.628
 20
95.2817
 30
0.0
 11
300.013
 21
95.2045
 31
0.0
  0
LINE
  8
0
 62
     0
 10
300.013
 20
95.2045
 30
0.0
 11
300.39
 21
95.0983
 31
0.0
  0
LINE
  8
0
 62
     0
 10
300.39
 20
95.0983
 30
0.0
 11
300.758
 21
94.9621
 31
0.0
  0
LINE
  8
0
 62
     0
 10
300.758
 20
94.9621
 30
0.0
 11
301.115
 21
94.7981
 31
0.0
  0
LINE
  8
0
 62
     0
 10
301.115
 20
94.7981
 30
0.0
 11
301.458
 21
94.6065
 31
0.0
  0
LINE
  8
0
 62
     0
 10
301.458
 20
94.6065
 30
0.0
 11
301.783
 21
94.3889
 31
0.0
  0
LINE
  8
0
 62
     0
 10
301.783
 20
94.3889
 30
0.0
 11
302.092
 21
94.1462
 31
0.0
  0
LINE
  8
0
 62
     0
 10
302.092
 20
94.1462
 30
0.0
 11
302.38
 21
93.8788
 31
0.0
  0
LINE
  8
0
 62
     0
 10
302.38
 20
93.8788
 30
0.0
 11
302.647
 21
93.5909
 31
0.0
  0
LINE
  8
0
 62
     0
 10
302.647
 20
93.5909
 30
0.0
 11
302.891
 21
93.2822
 31
0.0
  0
LINE
  8
0
 62
     0
 10
302.891
 20
93.2822
 30
0.0
 11
303.109
 21
92.9555
 31
0.0
  0
LINE
  8
0
 62
     0
 10
303.109
 20
92.9555
 30
0.0
 11
303.301
 21
92.6123
 31
0.0
  0
LINE
  8
0
 62
     0
 10
303.301
 20
92.6123
 30
0.0
 11
303.465
 21
92.257
 31
0.0
  0
LINE
  8
0
 62
     0
 10
303.465
 20
92.257
 30
0.0
 11
303.601
 21
91.8891
 31
0.0
  0
LINE
  8
0
 62
     0
 10
303.601
 20
91.8891
 30
0.0
 11
303.707
 21
91.5099
 31
0.0
  0
LINE
  8
0
 62
     0
 10
303.707
 20
91.5099
 30
0.0
 11
303.784
 21
91.1257
 31
0.0
  0
LINE
  8
0
 62
     0
 10
303.784
 20
91.1257
 30
0.0
 11
303.83
 21
90.7355
 31
0.0
  0
LINE
  8
0
 62
     0
 10
303.83
 20
90.7355
 30
0.0
 11
303.845
 21
90.3429
 31
0.0
  0
LINE
  8
0
 62
     0
 10
303.845
 20
90.3429
 30
0.0
 11
303.846
 21
5.09323
 31
0.0
  0
LINE
  8
0
 62
     0
 10
303.846
 20
5.09323
 30
0.0
 11
303.83
 21
4.69911
 31
0.0
  0
LINE
  8
0
 62
     0
 10
303.83
 20
4.69911
 30
0.0
 11
303.784
 21
4.30911
 31
0.0
  0
LINE
  8
0
 62
     0
 10
303.784
 20
4.30911
 30
0.0
 11
303.707
 21
3.92465
 31
0.0
  0
LINE
  8
0
 62
     0
 10
303.707
 20
3.92465
 30
0.0
 11
303.601
 21
3.54707
 31
0.0
  0
LINE
  8
0
 62
     0
 10
303.601
 20
3.54707
 30
0.0
 11
303.465
 21
3.17913
 31
0.0
  0
LINE
  8
0
 62
     0
 10
303.465
 20
3.17913
 30
0.0
 11
303.301
 21
2.82222
 31
0.0
  0
LINE
  8
0
 62
     0
 10
303.301
 20
2.82222
 30
0.0
 11
303.109
 21
2.47909
 31
0.0
  0
LINE
  8
0
 62
     0
 10
303.109
 20
2.47909
 30
0.0
 11
302.891
 21
2.15387
 31
0.0
  0
LINE
  8
0
 62
     0
 10
302.891
 20
2.15387
 30
0.0
 11
302.647
 21
1.84519
 31
0.0
  0
LINE
  8
0
 62
     0
 10
302.647
 20
1.84519
 30
0.0
 11
302.38
 21
1.55718
 31
0.0
  0
LINE
  8
0
 62
     0
 10
302.38
 20
1.55718
 30
0.0
 11
302.092
 21
1.28984
 31
0.0
  0
LINE
  8
0
 62
     0
 10
302.092
 20
1.28984
 30
0.0
 11
301.783
 21
1.04731
 31
0.0
  0
LINE
  8
0
 62
     0
 10
301.783
 20
1.04731
 30
0.0
 11
301.458
 21
0.828202
 31
0.0
  0
LINE
  8
0
 62
     0
 10
301.458
 20
0.828202
 30
0.0
 11
301.115
 21
0.636655
 31
0.0
  0
LINE
  8
0
 62
     0
 10
301.115
 20
0.636655
 30
0.0
 11
300.758
 21
0.472666
 31
0.0
  0
LINE
  8
0
 62
     0
 10
300.758
 20
0.472666
 30
0.0
 11
300.39
 21
0.336241
 31
0.0
  0
LINE
  8
0
 62
     0
 10
300.39
 20
0.336241
 30
0.0
 11
300.013
 21
0.230132
 31
0.0
  0
LINE
  8
0
 62
     0
 10
300.013
 20
0.230132
 30
0.0
 11
299.628
 21
0.15434
 31
0.0
  0
LINE
  8
0
 62
     0
 10
299.628
 20
0.15434
 30
0.0
 11
299.238
 21
0.107487
 31
0.0
  0
LINE
  8
0
 62
     0
 10
299.238
 20
0.107487
 30
0.0
 11
298.845
 21
0.0923286
 31
0.0
  0
LINE
  8
0
 62
     0
 10
298.845
 20
0.0923286
 30
0.0
 11
5.0946
 21
0.0923286
 31
0.0
  0
LINE
  8
0
 62
     0
 10
5.0946
 20
0.0923286
 30
0.0
 11
4.70186
 21
0.107487
 31
0.0
  0
LINE
  8
0
 62
     0
 10
4.70186
 20
0.107487
 30
0.0
 11
4.3119
 21
0.15434
 31
0.0
  0
LINE
  8
0
 62
     0
 10
4.3119
 20
0.15434
 30
0.0
 11
3.9274
 21
0.230132
 31
0.0
  0
LINE
  8
0
 62
     0
 10
3.9274
 20
0.230132
 30
0.0
 11
3.54845
 21
0.336241
 31
0.0
  0
LINE
  8
0
 62
     0
 10
3.54845
 20
0.336241
 30
0.0
 11
3.18051
 21
0.472666
 31
0.0
  0
LINE
  8
0
 62
     0
 10
3.18051
 20
0.472666
 30
0.0
 11
2.82498
 21
0.636655
 31
0.0
  0
LINE
  8
0
 62
     0
 10
2.82498
 20
0.636655
 30
0.0
 11
2.48185
 21
0.828202
 31
0.0
  0
LINE
  8
0
 62
     0
 10
2.48185
 20
0.828202
 30
0.0
 11
2.15525
 21
1.04731
 31
0.0
  0
LINE
  8
0
 62
     0
 10
2.15525
 20
1.04731
 30
0.0
 11
1.84657
 21
1.28984
 31
0.0
  0
LINE
  8
0
 62
     0
 10
1.84657
 20
1.28984
 30
0.0
 11
1.55856
 21
1.55718
 31
0.0
  0
LINE
  8
0
 62
     0
 10
1.55856
 20
1.55718
 30
0.0
 11
1.29122
 21
1.84519
 31
0.0
  0
LINE
  8
0
 62
     0
 10
1.29122
 20
1.84519
 30
0.0
 11
1.04869
 21
2.15387
 31
0.0
  0
LINE
  8
0
 62
     0
 10
1.04869
 20
2.15387
 30
0.0
 11
0.830957
 21
2.47909
 31
0.0
  0
LINE
  8
0
 62
     0
 10
0.830957
 20
2.47909
 30
0.0
 11
0.63941
 21
2.82222
 31
0.0
  0
LINE
  8
0
 62
     0
 10
0.63941
 20
2.82222
 30
0.0
 11
0.475424
 21
3.17913
 31
0.0
  0
LINE
  8
0
 62
     0
 10
0.475424
 20
3.17913
 30
0.0
 11
0.338998
 21
3.54707
 31
0.0
  0
LINE
  8
0
 62
     0
 10
0.338998
 20
3.54707
 30
0.0
 11
0.232888
 21
3.92465
 31
0.0
  0
LINE
  8
0
 62
     0
 10
0.232888
 20
3.92465
 30
0.0
 11
0.155718
 21
4.30911
 31
0.0
  0
LINE
  8
0
 62
     0
 10
0.155718
 20
4.30911
 30
0.0
 11
0.110243
 21
4.69911
 31
0.0
  0
LINE
  8
0
 62
     0
 10
0.110243
 20
4.69911
 30
0.0
 11
0.0937066
 21
5.09323
 31
0.0
  0
LINE
  8
0
 62
     0
 10
0.0937066
 20
5.09323
 30
0.0
 11
0.0950846
 21
90.3429
 31
0.0
  0
LINE
  8
0
 62
     0
 10
0.0950846
 20
90.3429
 30
0.0
 11
0.110243
 21
90.7355
 31
0.0
  0
LINE
  8
0
 62
     0
 10
0.110243
 20
90.7355
 30
0.0
 11
0.155718
 21
91.1257
 31
0.0
  0
LINE
  8
0
 62
     0
 10
0.155718
 20
91.1257
 30
0.0
 11
0.232888
 21
91.5099
 31
0.0
  0
LINE
  8
0
 62
     0
 10
0.232888
 20
91.5099
 30
0.0
 11
0.338998
 21
91.8891
 31
0.0
  0
LINE
  8
0
 62
     0
 10
0.338998
 20
91.8891
 30
0.0
 11
0.475424
 21
92.257
 31
0.0
  0
LINE
  8
0
 62
     0
 10
0.475424
 20
92.257
 30
0.0
 11
0.63941
 21
92.6123
 31
0.0
  0
LINE
  8
0
 62
     0
 10
0.63941
 20
92.6123
 30
0.0
 11
0.830957
 21
92.9555
 31
0.0
  0
LINE
  8
0
 62
     0
 10
0.830957
 20
92.9555
 30
0.0
 11
1.04869
 21
93.2822
 31
0.0
  0
LINE
  8
0
 62
     0
 10
1.04869
 20
93.2822
 30
0.0
 11
1.29122
 21
93.5909
 31
0.0
  0
LINE
  8
0
 62
     0
 10
1.29122
 20
93.5909
 30
0.0
 11
1.55856
 21
93.8788
 31
0.0
  0
LINE
  8
0
 62
     0
 10
1.55856
 20
93.8788
 30
0.0
 11
1.84657
 21
94.1462
 31
0.0
  0
LINE
  8
0
 62
     0
 10
1.84657
 20
94.1462
 30
0.0
 11
2.15525
 21
94.3889
 31
0.0
  0
LINE
  8
0
 62
     0
 10
2.15525
 20
94.3889
 30
0.0
 11
2.48185
 21
94.6065
 31
0.0
  0
LINE
  8
0
 62
     0
 10
2.48185
 20
94.6065
 30
0.0
 11
2.82498
 21
94.7981
 31
0.0
  0
LINE
  8
0
 62
     0
 10
2.82498
 20
94.7981
 30
0.0
 11
3.18051
 21
94.9621
 31
0.0
  0
LINE
  8
0
 62
     0
 10
3.18051
 20
94.9621
 30
0.0
 11
3.54845
 21
95.0983
 31
0.0
  0
LINE
  8
0
 62
     0
 10
3.54845
 20
95.0983
 30
0.0
 11
3.9274
 21
95.2045
 31
0.0
  0
LINE
  8
0
 62
     0
 10
3.9274
 20
95.2045
 30
0.0
 11
4.3119
 21
95.2817
 31
0.0
  0
LINE
  8
0
 62
     0
 10
4.3119
 20
95.2817
 30
0.0
 11
4.70186
 21
95.3273
 31
0.0
  0
LINE
  8
0
 62
     0
 10
4.70186
 20
95.3273
 30
0.0
 11
5.0946
 21
95.3438
 31
0.0
  0
LINE
  8
0
 62
     0
 10
5.0946
 20
95.3438
 30
0.0
 11
298.845
 21
95.3424
 31
0.0
  0
LINE
  8
0
 62
     0
 10
111.632
 20
16.6178
 30
0.0
 11
111.632
 21
15.6173
 31
0.0
  0
LINE
  8
0
 62
     0
 10
111.632
 20
15.6173
 30
0.0
 11
110.831
 21
15.6173
 31
0.0
  0
LINE
  8
0
 62
     0
 10
110.831
 20
15.6173
 30
0.0
 11
110.831
 21
12.5181
 31
0.0
  0
LINE
  8
0
 62
     0
 10
110.831
 20
12.5181
 30
0.0
 11
111.632
 21
12.5181
 31
0.0
  0
LINE
  8
0
 62
     0
 10
111.632
 20
12.5181
 30
0.0
 11
111.632
 21
11.9173
 31
0.0
  0
LINE
  8
0
 62
     0
 10
111.632
 20
11.9173
 30
0.0
 11
102.957
 21
11.9173
 31
0.0
  0
LINE
  8
0
 62
     0
 10
102.957
 20
11.9173
 30
0.0
 11
102.957
 21
15.1474
 31
0.0
  0
LINE
  8
0
 62
     0
 10
102.957
 20
15.1474
 30
0.0
 11
101.232
 21
15.1474
 31
0.0
  0
LINE
  8
0
 62
     0
 10
101.232
 20
15.1474
 30
0.0
 11
101.232
 21
16.0693
 31
0.0
  0
LINE
  8
0
 62
     0
 10
101.232
 20
16.0693
 30
0.0
 11
97.9318
 21
16.0693
 31
0.0
  0
LINE
  8
0
 62
     0
 10
97.9318
 20
16.0693
 30
0.0
 11
97.9318
 21
15.1474
 31
0.0
  0
LINE
  8
0
 62
     0
 10
97.9318
 20
15.1474
 30
0.0
 11
96.2064
 21
15.1474
 31
0.0
  0
LINE
  8
0
 62
     0
 10
96.2064
 20
15.1474
 30
0.0
 11
96.2064
 21
11.9173
 31
0.0
  0
LINE
  8
0
 62
     0
 10
96.2064
 20
11.9173
 30
0.0
 11
95.3823
 21
11.9173
 31
0.0
  0
LINE
  8
0
 62
     0
 10
95.3823
 20
11.9173
 30
0.0
 11
95.3823
 21
9.11712
 31
0.0
  0
LINE
  8
0
 62
     0
 10
95.3823
 20
9.11712
 30
0.0
 11
96.2064
 21
9.11712
 31
0.0
  0
LINE
  8
0
 62
     0
 10
96.2064
 20
9.11712
 30
0.0
 11
96.2064
 21
2.84841
 31
0.0
  0
LINE
  8
0
 62
     0
 10
96.2064
 20
2.84841
 30
0.0
 11
97.9318
 21
2.84841
 31
0.0
  0
LINE
  8
0
 62
     0
 10
97.9318
 20
2.84841
 30
0.0
 11
97.9318
 21
1.86724
 31
0.0
  0
LINE
  8
0
 62
     0
 10
97.9318
 20
1.86724
 30
0.0
 11
101.232
 21
1.86724
 31
0.0
  0
LINE
  8
0
 62
     0
 10
101.232
 20
1.86724
 30
0.0
 11
101.232
 21
2.84841
 31
0.0
  0
LINE
  8
0
 62
     0
 10
101.232
 20
2.84841
 30
0.0
 11
102.957
 21
2.84841
 31
0.0
  0
LINE
  8
0
 62
     0
 10
102.957
 20
2.84841
 30
0.0
 11
102.957
 21
7.31876
 31
0.0
  0
LINE
  8
0
 62
     0
 10
102.957
 20
7.31876
 30
0.0
 11
111.632
 21
7.31876
 31
0.0
  0
LINE
  8
0
 62
     0
 10
111.632
 20
7.31876
 30
0.0
 11
111.632
 21
6.71795
 31
0.0
  0
LINE
  8
0
 62
     0
 10
111.632
 20
6.71795
 30
0.0
 11
110.831
 21
6.71795
 31
0.0
  0
LINE
  8
0
 62
     0
 10
110.831
 20
6.71795
 30
0.0
 11
110.831
 21
3.61735
 31
0.0
  0
LINE
  8
0
 62
     0
 10
110.831
 20
3.61735
 30
0.0
 11
111.632
 21
3.61735
 31
0.0
  0
LINE
  8
0
 62
     0
 10
111.632
 20
3.61735
 30
0.0
 11
111.632
 21
2.61827
 31
0.0
  0
LINE
  8
0
 62
     0
 10
111.632
 20
2.61827
 30
0.0
 11
125.632
 21
2.61827
 31
0.0
  0
LINE
  8
0
 62
     0
 10
125.632
 20
2.61827
 30
0.0
 11
125.632
 21
3.61735
 31
0.0
  0
LINE
  8
0
 62
     0
 10
125.632
 20
3.61735
 30
0.0
 11
126.432
 21
3.61735
 31
0.0
  0
LINE
  8
0
 62
     0
 10
126.432
 20
3.61735
 30
0.0
 11
126.432
 21
6.71795
 31
0.0
  0
LINE
  8
0
 62
     0
 10
126.432
 20
6.71795
 30
0.0
 11
125.632
 21
6.71795
 31
0.0
  0
LINE
  8
0
 62
     0
 10
125.632
 20
6.71795
 30
0.0
 11
125.632
 21
7.31876
 31
0.0
  0
LINE
  8
0
 62
     0
 10
125.632
 20
7.31876
 30
0.0
 11
134.306
 21
7.31876
 31
0.0
  0
LINE
  8
0
 62
     0
 10
134.306
 20
7.31876
 30
0.0
 11
134.306
 21
2.84841
 31
0.0
  0
LINE
  8
0
 62
     0
 10
134.306
 20
2.84841
 30
0.0
 11
136.032
 21
2.84841
 31
0.0
  0
LINE
  8
0
 62
     0
 10
136.032
 20
2.84841
 30
0.0
 11
136.032
 21
1.86724
 31
0.0
  0
LINE
  8
0
 62
     0
 10
136.032
 20
1.86724
 30
0.0
 11
139.332
 21
1.86724
 31
0.0
  0
LINE
  8
0
 62
     0
 10
139.332
 20
1.86724
 30
0.0
 11
139.332
 21
2.84841
 31
0.0
  0
LINE
  8
0
 62
     0
 10
139.332
 20
2.84841
 30
0.0
 11
141.057
 21
2.84841
 31
0.0
  0
LINE
  8
0
 62
     0
 10
141.057
 20
2.84841
 30
0.0
 11
141.057
 21
9.11712
 31
0.0
  0
LINE
  8
0
 62
     0
 10
141.057
 20
9.11712
 30
0.0
 11
141.882
 21
9.11712
 31
0.0
  0
LINE
  8
0
 62
     0
 10
141.882
 20
9.11712
 30
0.0
 11
141.882
 21
11.9173
 31
0.0
  0
LINE
  8
0
 62
     0
 10
141.882
 20
11.9173
 30
0.0
 11
141.057
 21
11.9173
 31
0.0
  0
LINE
  8
0
 62
     0
 10
141.057
 20
11.9173
 30
0.0
 11
141.057
 21
15.1474
 31
0.0
  0
LINE
  8
0
 62
     0
 10
141.057
 20
15.1474
 30
0.0
 11
139.332
 21
15.1474
 31
0.0
  0
LINE
  8
0
 62
     0
 10
139.332
 20
15.1474
 30
0.0
 11
139.332
 21
16.0693
 31
0.0
  0
LINE
  8
0
 62
     0
 10
139.332
 20
16.0693
 30
0.0
 11
136.032
 21
16.0693
 31
0.0
  0
LINE
  8
0
 62
     0
 10
136.032
 20
16.0693
 30
0.0
 11
136.032
 21
15.1474
 31
0.0
  0
LINE
  8
0
 62
     0
 10
136.032
 20
15.1474
 30
0.0
 11
134.306
 21
15.1474
 31
0.0
  0
LINE
  8
0
 62
     0
 10
134.306
 20
15.1474
 30
0.0
 11
134.306
 21
11.9173
 31
0.0
  0
LINE
  8
0
 62
     0
 10
134.306
 20
11.9173
 30
0.0
 11
125.632
 21
11.9173
 31
0.0
  0
LINE
  8
0
 62
     0
 10
125.632
 20
11.9173
 30
0.0
 11
125.632
 21
12.5181
 31
0.0
  0
LINE
  8
0
 62
     0
 10
125.632
 20
12.5181
 30
0.0
 11
126.432
 21
12.5181
 31
0.0
  0
LINE
  8
0
 62
     0
 10
126.432
 20
12.5181
 30
0.0
 11
126.432
 21
15.6173
 31
0.0
  0
LINE
  8
0
 62
     0
 10
126.432
 20
15.6173
 30
0.0
 11
125.632
 21
15.6173
 31
0.0
  0
LINE
  8
0
 62
     0
 10
125.632
 20
15.6173
 30
0.0
 11
125.632
 21
16.6178
 31
0.0
  0
LINE
  8
0
 62
     0
 10
125.632
 20
16.6178
 30
0.0
 11
111.632
 21
16.6178
 31
0.0
  0
LINE
  8
0
 62
     0
 10
159.257
 20
16.6178
 30
0.0
 11
159.257
 21
15.6173
 31
0.0
  0
LINE
  8
0
 62
     0
 10
159.257
 20
15.6173
 30
0.0
 11
158.456
 21
15.6173
 31
0.0
  0
LINE
  8
0
 62
     0
 10
158.456
 20
15.6173
 30
0.0
 11
158.456
 21
12.5181
 31
0.0
  0
LINE
  8
0
 62
     0
 10
158.456
 20
12.5181
 30
0.0
 11
159.257
 21
12.5181
 31
0.0
  0
LINE
  8
0
 62
     0
 10
159.257
 20
12.5181
 30
0.0
 11
159.257
 21
11.9173
 31
0.0
  0
LINE
  8
0
 62
     0
 10
159.257
 20
11.9173
 30
0.0
 11
157.732
 21
11.9173
 31
0.0
  0
LINE
  8
0
 62
     0
 10
157.732
 20
11.9173
 30
0.0
 11
157.732
 21
15.1474
 31
0.0
  0
LINE
  8
0
 62
     0
 10
157.732
 20
15.1474
 30
0.0
 11
156.006
 21
15.1474
 31
0.0
  0
LINE
  8
0
 62
     0
 10
156.006
 20
15.1474
 30
0.0
 11
156.006
 21
16.0693
 31
0.0
  0
LINE
  8
0
 62
     0
 10
156.006
 20
16.0693
 30
0.0
 11
152.707
 21
16.0693
 31
0.0
  0
LINE
  8
0
 62
     0
 10
152.707
 20
16.0693
 30
0.0
 11
152.707
 21
15.1474
 31
0.0
  0
LINE
  8
0
 62
     0
 10
152.707
 20
15.1474
 30
0.0
 11
150.982
 21
15.1474
 31
0.0
  0
LINE
  8
0
 62
     0
 10
150.982
 20
15.1474
 30
0.0
 11
150.982
 21
11.9173
 31
0.0
  0
LINE
  8
0
 62
     0
 10
150.982
 20
11.9173
 30
0.0
 11
150.157
 21
11.9173
 31
0.0
  0
LINE
  8
0
 62
     0
 10
150.157
 20
11.9173
 30
0.0
 11
150.157
 21
9.11712
 31
0.0
  0
LINE
  8
0
 62
     0
 10
150.157
 20
9.11712
 30
0.0
 11
150.982
 21
9.11712
 31
0.0
  0
LINE
  8
0
 62
     0
 10
150.982
 20
9.11712
 30
0.0
 11
150.982
 21
2.84841
 31
0.0
  0
LINE
  8
0
 62
     0
 10
150.982
 20
2.84841
 30
0.0
 11
152.707
 21
2.84841
 31
0.0
  0
LINE
  8
0
 62
     0
 10
152.707
 20
2.84841
 30
0.0
 11
152.707
 21
1.86724
 31
0.0
  0
LINE
  8
0
 62
     0
 10
152.707
 20
1.86724
 30
0.0
 11
156.006
 21
1.86724
 31
0.0
  0
LINE
  8
0
 62
     0
 10
156.006
 20
1.86724
 30
0.0
 11
156.006
 21
2.84841
 31
0.0
  0
LINE
  8
0
 62
     0
 10
156.006
 20
2.84841
 30
0.0
 11
157.732
 21
2.84841
 31
0.0
  0
LINE
  8
0
 62
     0
 10
157.732
 20
2.84841
 30
0.0
 11
157.732
 21
7.31876
 31
0.0
  0
LINE
  8
0
 62
     0
 10
157.732
 20
7.31876
 30
0.0
 11
159.257
 21
7.31876
 31
0.0
  0
LINE
  8
0
 62
     0
 10
159.257
 20
7.31876
 30
0.0
 11
159.257
 21
6.71795
 31
0.0
  0
LINE
  8
0
 62
     0
 10
159.257
 20
6.71795
 30
0.0
 11
158.456
 21
6.71795
 31
0.0
  0
LINE
  8
0
 62
     0
 10
158.456
 20
6.71795
 30
0.0
 11
158.456
 21
3.61735
 31
0.0
  0
LINE
  8
0
 62
     0
 10
158.456
 20
3.61735
 30
0.0
 11
159.257
 21
3.61735
 31
0.0
  0
LINE
  8
0
 62
     0
 10
159.257
 20
3.61735
 30
0.0
 11
159.257
 21
2.61827
 31
0.0
  0
LINE
  8
0
 62
     0
 10
159.257
 20
2.61827
 30
0.0
 11
173.257
 21
2.61827
 31
0.0
  0
LINE
  8
0
 62
     0
 10
173.257
 20
2.61827
 30
0.0
 11
173.257
 21
3.61735
 31
0.0
  0
LINE
  8
0
 62
     0
 10
173.257
 20
3.61735
 30
0.0
 11
174.057
 21
3.61735
 31
0.0
  0
LINE
  8
0
 62
     0
 10
174.057
 20
3.61735
 30
0.0
 11
174.057
 21
6.71795
 31
0.0
  0
LINE
  8
0
 62
     0
 10
174.057
 20
6.71795
 30
0.0
 11
173.257
 21
6.71795
 31
0.0
  0
LINE
  8
0
 62
     0
 10
173.257
 20
6.71795
 30
0.0
 11
173.257
 21
7.31876
 31
0.0
  0
LINE
  8
0
 62
     0
 10
173.257
 20
7.31876
 30
0.0
 11
174.782
 21
7.31876
 31
0.0
  0
LINE
  8
0
 62
     0
 10
174.782
 20
7.31876
 30
0.0
 11
174.782
 21
2.84841
 31
0.0
  0
LINE
  8
0
 62
     0
 10
174.782
 20
2.84841
 30
0.0
 11
176.507
 21
2.84841
 31
0.0
  0
LINE
  8
0
 62
     0
 10
176.507
 20
2.84841
 30
0.0
 11
176.507
 21
1.86724
 31
0.0
  0
LINE
  8
0
 62
     0
 10
176.507
 20
1.86724
 30
0.0
 11
179.807
 21
1.86724
 31
0.0
  0
LINE
  8
0
 62
     0
 10
179.807
 20
1.86724
 30
0.0
 11
179.807
 21
2.84841
 31
0.0
  0
LINE
  8
0
 62
     0
 10
179.807
 20
2.84841
 30
0.0
 11
181.532
 21
2.84841
 31
0.0
  0
LINE
  8
0
 62
     0
 10
181.532
 20
2.84841
 30
0.0
 11
181.532
 21
9.11712
 31
0.0
  0
LINE
  8
0
 62
     0
 10
181.532
 20
9.11712
 30
0.0
 11
182.357
 21
9.11712
 31
0.0
  0
LINE
  8
0
 62
     0
 10
182.357
 20
9.11712
 30
0.0
 11
182.357
 21
11.9173
 31
0.0
  0
LINE
  8
0
 62
     0
 10
182.357
 20
11.9173
 30
0.0
 11
181.532
 21
11.9173
 31
0.0
  0
LINE
  8
0
 62
     0
 10
181.532
 20
11.9173
 30
0.0
 11
181.532
 21
15.1474
 31
0.0
  0
LINE
  8
0
 62
     0
 10
181.532
 20
15.1474
 30
0.0
 11
179.807
 21
15.1474
 31
0.0
  0
LINE
  8
0
 62
     0
 10
179.807
 20
15.1474
 30
0.0
 11
179.807
 21
16.0693
 31
0.0
  0
LINE
  8
0
 62
     0
 10
179.807
 20
16.0693
 30
0.0
 11
176.507
 21
16.0693
 31
0.0
  0
LINE
  8
0
 62
     0
 10
176.507
 20
16.0693
 30
0.0
 11
176.507
 21
15.1474
 31
0.0
  0
LINE
  8
0
 62
     0
 10
176.507
 20
15.1474
 30
0.0
 11
174.782
 21
15.1474
 31
0.0
  0
LINE
  8
0
 62
     0
 10
174.782
 20
15.1474
 30
0.0
 11
174.782
 21
11.9173
 31
0.0
  0
LINE
  8
0
 62
     0
 10
174.782
 20
11.9173
 30
0.0
 11
173.257
 21
11.9173
 31
0.0
  0
LINE
  8
0
 62
     0
 10
173.257
 20
11.9173
 30
0.0
 11
173.257
 21
12.5181
 31
0.0
  0
LINE
  8
0
 62
     0
 10
173.257
 20
12.5181
 30
0.0
 11
174.057
 21
12.5181
 31
0.0
  0
LINE
  8
0
 62
     0
 10
174.057
 20
12.5181
 30
0.0
 11
174.057
 21
15.6173
 31
0.0
  0
LINE
  8
0
 62
     0
 10
174.057
 20
15.6173
 30
0.0
 11
173.257
 21
15.6173
 31
0.0
  0
LINE
  8
0
 62
     0
 10
173.257
 20
15.6173
 30
0.0
 11
173.257
 21
16.6178
 31
0.0
  0
LINE
  8
0
 62
     0
 10
173.257
 20
16.6178
 30
0.0
 11
159.257
 21
16.6178
 31
0.0
  0
LINE
  8
0
 62
     0
 10
14.0009
 20
16.6178
 30
0.0
 11
14.0009
 21
15.6173
 31
0.0
  0
LINE
  8
0
 62
     0
 10
14.0009
 20
15.6173
 30
0.0
 11
13.2002
 21
15.6173
 31
0.0
  0
LINE
  8
0
 62
     0
 10
13.2002
 20
15.6173
 30
0.0
 11
13.2002
 21
12.5181
 31
0.0
  0
LINE
  8
0
 62
     0
 10
13.2002
 20
12.5181
 30
0.0
 11
14.0009
 21
12.5181
 31
0.0
  0
LINE
  8
0
 62
     0
 10
14.0009
 20
12.5181
 30
0.0
 11
14.0009
 21
6.71795
 31
0.0
  0
LINE
  8
0
 62
     0
 10
14.0009
 20
6.71795
 30
0.0
 11
13.2002
 21
6.71795
 31
0.0
  0
LINE
  8
0
 62
     0
 10
13.2002
 20
6.71795
 30
0.0
 11
13.2002
 21
3.61735
 31
0.0
  0
LINE
  8
0
 62
     0
 10
13.2002
 20
3.61735
 30
0.0
 11
14.0009
 21
3.61735
 31
0.0
  0
LINE
  8
0
 62
     0
 10
14.0009
 20
3.61735
 30
0.0
 11
14.0009
 21
2.61827
 31
0.0
  0
LINE
  8
0
 62
     0
 10
14.0009
 20
2.61827
 30
0.0
 11
28.0004
 21
2.61827
 31
0.0
  0
LINE
  8
0
 62
     0
 10
28.0004
 20
2.61827
 30
0.0
 11
28.0004
 21
3.61735
 31
0.0
  0
LINE
  8
0
 62
     0
 10
28.0004
 20
3.61735
 30
0.0
 11
28.801
 21
3.61735
 31
0.0
  0
LINE
  8
0
 62
     0
 10
28.801
 20
3.61735
 30
0.0
 11
28.801
 21
6.71795
 31
0.0
  0
LINE
  8
0
 62
     0
 10
28.801
 20
6.71795
 30
0.0
 11
28.0004
 21
6.71795
 31
0.0
  0
LINE
  8
0
 62
     0
 10
28.0004
 20
6.71795
 30
0.0
 11
28.0004
 21
12.5181
 31
0.0
  0
LINE
  8
0
 62
     0
 10
28.0004
 20
12.5181
 30
0.0
 11
28.801
 21
12.5181
 31
0.0
  0
LINE
  8
0
 62
     0
 10
28.801
 20
12.5181
 30
0.0
 11
28.801
 21
15.6173
 31
0.0
  0
LINE
  8
0
 62
     0
 10
28.801
 20
15.6173
 30
0.0
 11
28.0004
 21
15.6173
 31
0.0
  0
LINE
  8
0
 62
     0
 10
28.0004
 20
15.6173
 30
0.0
 11
28.0004
 21
16.6178
 31
0.0
  0
LINE
  8
0
 62
     0
 10
28.0004
 20
16.6178
 30
0.0
 11
14.0009
 21
16.6178
 31
0.0
  0
LINE
  8
0
 62
     0
 10
35.4323
 20
16.6178
 30
0.0
 11
35.4323
 21
15.6173
 31
0.0
  0
LINE
  8
0
 62
     0
 10
35.4323
 20
15.6173
 30
0.0
 11
34.6315
 21
15.6173
 31
0.0
  0
LINE
  8
0
 62
     0
 10
34.6315
 20
15.6173
 30
0.0
 11
34.6315
 21
12.5181
 31
0.0
  0
LINE
  8
0
 62
     0
 10
34.6315
 20
12.5181
 30
0.0
 11
35.4323
 21
12.5181
 31
0.0
  0
LINE
  8
0
 62
     0
 10
35.4323
 20
12.5181
 30
0.0
 11
35.4323
 21
6.71795
 31
0.0
  0
LINE
  8
0
 62
     0
 10
35.4323
 20
6.71795
 30
0.0
 11
34.6315
 21
6.71795
 31
0.0
  0
LINE
  8
0
 62
     0
 10
34.6315
 20
6.71795
 30
0.0
 11
34.6315
 21
3.61735
 31
0.0
  0
LINE
  8
0
 62
     0
 10
34.6315
 20
3.61735
 30
0.0
 11
35.4323
 21
3.61735
 31
0.0
  0
LINE
  8
0
 62
     0
 10
35.4323
 20
3.61735
 30
0.0
 11
35.4323
 21
2.61827
 31
0.0
  0
LINE
  8
0
 62
     0
 10
35.4323
 20
2.61827
 30
0.0
 11
49.4316
 21
2.61827
 31
0.0
  0
LINE
  8
0
 62
     0
 10
49.4316
 20
2.61827
 30
0.0
 11
49.4316
 21
3.61735
 31
0.0
  0
LINE
  8
0
 62
     0
 10
49.4316
 20
3.61735
 30
0.0
 11
50.2324
 21
3.61735
 31
0.0
  0
LINE
  8
0
 62
     0
 10
50.2324
 20
3.61735
 30
0.0
 11
50.2324
 21
6.71795
 31
0.0
  0
LINE
  8
0
 62
     0
 10
50.2324
 20
6.71795
 30
0.0
 11
49.4316
 21
6.71795
 31
0.0
  0
LINE
  8
0
 62
     0
 10
49.4316
 20
6.71795
 30
0.0
 11
49.4316
 21
12.5181
 31
0.0
  0
LINE
  8
0
 62
     0
 10
49.4316
 20
12.5181
 30
0.0
 11
50.2324
 21
12.5181
 31
0.0
  0
LINE
  8
0
 62
     0
 10
50.2324
 20
12.5181
 30
0.0
 11
50.2324
 21
15.6173
 31
0.0
  0
LINE
  8
0
 62
     0
 10
50.2324
 20
15.6173
 30
0.0
 11
49.4316
 21
15.6173
 31
0.0
  0
LINE
  8
0
 62
     0
 10
49.4316
 20
15.6173
 30
0.0
 11
49.4316
 21
16.6178
 31
0.0
  0
LINE
  8
0
 62
     0
 10
49.4316
 20
16.6178
 30
0.0
 11
35.4323
 21
16.6178
 31
0.0
  0
LINE
  8
0
 62
     0
 10
54.4823
 20
16.6178
 30
0.0
 11
54.4823
 21
15.6173
 31
0.0
  0
LINE
  8
0
 62
     0
 10
54.4823
 20
15.6173
 30
0.0
 11
53.6815
 21
15.6173
 31
0.0
  0
LINE
  8
0
 62
     0
 10
53.6815
 20
15.6173
 30
0.0
 11
53.6815
 21
12.5181
 31
0.0
  0
LINE
  8
0
 62
     0
 10
53.6815
 20
12.5181
 30
0.0
 11
54.4823
 21
12.5181
 31
0.0
  0
LINE
  8
0
 62
     0
 10
54.4823
 20
12.5181
 30
0.0
 11
54.4823
 21
6.71795
 31
0.0
  0
LINE
  8
0
 62
     0
 10
54.4823
 20
6.71795
 30
0.0
 11
53.6815
 21
6.71795
 31
0.0
  0
LINE
  8
0
 62
     0
 10
53.6815
 20
6.71795
 30
0.0
 11
53.6815
 21
3.61735
 31
0.0
  0
LINE
  8
0
 62
     0
 10
53.6815
 20
3.61735
 30
0.0
 11
54.4823
 21
3.61735
 31
0.0
  0
LINE
  8
0
 62
     0
 10
54.4823
 20
3.61735
 30
0.0
 11
54.4823
 21
2.61827
 31
0.0
  0
LINE
  8
0
 62
     0
 10
54.4823
 20
2.61827
 30
0.0
 11
68.4816
 21
2.61827
 31
0.0
  0
LINE
  8
0
 62
     0
 10
68.4816
 20
2.61827
 30
0.0
 11
68.4816
 21
3.61735
 31
0.0
  0
LINE
  8
0
 62
     0
 10
68.4816
 20
3.61735
 30
0.0
 11
69.2824
 21
3.61735
 31
0.0
  0
LINE
  8
0
 62
     0
 10
69.2824
 20
3.61735
 30
0.0
 11
69.2824
 21
6.71795
 31
0.0
  0
LINE
  8
0
 62
     0
 10
69.2824
 20
6.71795
 30
0.0
 11
68.4816
 21
6.71795
 31
0.0
  0
LINE
  8
0
 62
     0
 10
68.4816
 20
6.71795
 30
0.0
 11
68.4816
 21
12.5181
 31
0.0
  0
LINE
  8
0
 62
     0
 10
68.4816
 20
12.5181
 30
0.0
 11
69.2824
 21
12.5181
 31
0.0
  0
LINE
  8
0
 62
     0
 10
69.2824
 20
12.5181
 30
0.0
 11
69.2824
 21
15.6173
 31
0.0
  0
LINE
  8
0
 62
     0
 10
69.2824
 20
15.6173
 30
0.0
 11
68.4816
 21
15.6173
 31
0.0
  0
LINE
  8
0
 62
     0
 10
68.4816
 20
15.6173
 30
0.0
 11
68.4816
 21
16.6178
 31
0.0
  0
LINE
  8
0
 62
     0
 10
68.4816
 20
16.6178
 30
0.0
 11
54.4823
 21
16.6178
 31
0.0
  0
LINE
  8
0
 62
     0
 10
73.5323
 20
16.6178
 30
0.0
 11
73.5323
 21
15.6173
 31
0.0
  0
LINE
  8
0
 62
     0
 10
73.5323
 20
15.6173
 30
0.0
 11
72.7315
 21
15.6173
 31
0.0
  0
LINE
  8
0
 62
     0
 10
72.7315
 20
15.6173
 30
0.0
 11
72.7315
 21
12.5181
 31
0.0
  0
LINE
  8
0
 62
     0
 10
72.7315
 20
12.5181
 30
0.0
 11
73.5323
 21
12.5181
 31
0.0
  0
LINE
  8
0
 62
     0
 10
73.5323
 20
12.5181
 30
0.0
 11
73.5323
 21
6.71795
 31
0.0
  0
LINE
  8
0
 62
     0
 10
73.5323
 20
6.71795
 30
0.0
 11
72.7315
 21
6.71795
 31
0.0
  0
LINE
  8
0
 62
     0
 10
72.7315
 20
6.71795
 30
0.0
 11
72.7315
 21
3.61735
 31
0.0
  0
LINE
  8
0
 62
     0
 10
72.7315
 20
3.61735
 30
0.0
 11
73.5323
 21
3.61735
 31
0.0
  0
LINE
  8
0
 62
     0
 10
73.5323
 20
3.61735
 30
0.0
 11
73.5323
 21
2.61827
 31
0.0
  0
LINE
  8
0
 62
     0
 10
73.5323
 20
2.61827
 30
0.0
 11
87.5316
 21
2.61827
 31
0.0
  0
LINE
  8
0
 62
     0
 10
87.5316
 20
2.61827
 30
0.0
 11
87.5316
 21
3.61735
 31
0.0
  0
LINE
  8
0
 62
     0
 10
87.5316
 20
3.61735
 30
0.0
 11
88.3324
 21
3.61735
 31
0.0
  0
LINE
  8
0
 62
     0
 10
88.3324
 20
3.61735
 30
0.0
 11
88.3324
 21
6.71795
 31
0.0
  0
LINE
  8
0
 62
     0
 10
88.3324
 20
6.71795
 30
0.0
 11
87.5316
 21
6.71795
 31
0.0
  0
LINE
  8
0
 62
     0
 10
87.5316
 20
6.71795
 30
0.0
 11
87.5316
 21
12.5181
 31
0.0
  0
LINE
  8
0
 62
     0
 10
87.5316
 20
12.5181
 30
0.0
 11
88.3324
 21
12.5181
 31
0.0
  0
LINE
  8
0
 62
     0
 10
88.3324
 20
12.5181
 30
0.0
 11
88.3324
 21
15.6173
 31
0.0
  0
LINE
  8
0
 62
     0
 10
88.3324
 20
15.6173
 30
0.0
 11
87.5316
 21
15.6173
 31
0.0
  0
LINE
  8
0
 62
     0
 10
87.5316
 20
15.6173
 30
0.0
 11
87.5316
 21
16.6178
 31
0.0
  0
LINE
  8
0
 62
     0
 10
87.5316
 20
16.6178
 30
0.0
 11
73.5323
 21
16.6178
 31
0.0
  0
LINE
  8
0
 62
     0
 10
187.832
 20
16.6178
 30
0.0
 11
187.832
 21
15.6173
 31
0.0
  0
LINE
  8
0
 62
     0
 10
187.832
 20
15.6173
 30
0.0
 11
187.032
 21
15.6173
 31
0.0
  0
LINE
  8
0
 62
     0
 10
187.032
 20
15.6173
 30
0.0
 11
187.032
 21
12.5181
 31
0.0
  0
LINE
  8
0
 62
     0
 10
187.032
 20
12.5181
 30
0.0
 11
187.832
 21
12.5181
 31
0.0
  0
LINE
  8
0
 62
     0
 10
187.832
 20
12.5181
 30
0.0
 11
187.832
 21
6.71795
 31
0.0
  0
LINE
  8
0
 62
     0
 10
187.832
 20
6.71795
 30
0.0
 11
187.032
 21
6.71795
 31
0.0
  0
LINE
  8
0
 62
     0
 10
187.032
 20
6.71795
 30
0.0
 11
187.032
 21
3.61735
 31
0.0
  0
LINE
  8
0
 62
     0
 10
187.032
 20
3.61735
 30
0.0
 11
187.832
 21
3.61735
 31
0.0
  0
LINE
  8
0
 62
     0
 10
187.832
 20
3.61735
 30
0.0
 11
187.832
 21
2.61827
 31
0.0
  0
LINE
  8
0
 62
     0
 10
187.832
 20
2.61827
 30
0.0
 11
201.832
 21
2.61827
 31
0.0
  0
LINE
  8
0
 62
     0
 10
201.832
 20
2.61827
 30
0.0
 11
201.832
 21
3.61735
 31
0.0
  0
LINE
  8
0
 62
     0
 10
201.832
 20
3.61735
 30
0.0
 11
202.632
 21
3.61735
 31
0.0
  0
LINE
  8
0
 62
     0
 10
202.632
 20
3.61735
 30
0.0
 11
202.632
 21
6.71795
 31
0.0
  0
LINE
  8
0
 62
     0
 10
202.632
 20
6.71795
 30
0.0
 11
201.832
 21
6.71795
 31
0.0
  0
LINE
  8
0
 62
     0
 10
201.832
 20
6.71795
 30
0.0
 11
201.832
 21
12.5181
 31
0.0
  0
LINE
  8
0
 62
     0
 10
201.832
 20
12.5181
 30
0.0
 11
202.632
 21
12.5181
 31
0.0
  0
LINE
  8
0
 62
     0
 10
202.632
 20
12.5181
 30
0.0
 11
202.632
 21
15.6173
 31
0.0
  0
LINE
  8
0
 62
     0
 10
202.632
 20
15.6173
 30
0.0
 11
201.832
 21
15.6173
 31
0.0
  0
LINE
  8
0
 62
     0
 10
201.832
 20
15.6173
 30
0.0
 11
201.832
 21
16.6178
 31
0.0
  0
LINE
  8
0
 62
     0
 10
201.832
 20
16.6178
 30
0.0
 11
187.832
 21
16.6178
 31
0.0
  0
LINE
  8
0
 62
     0
 10
206.882
 20
16.6178
 30
0.0
 11
206.882
 21
15.6173
 31
0.0
  0
LINE
  8
0
 62
     0
 10
206.882
 20
15.6173
 30
0.0
 11
206.082
 21
15.6173
 31
0.0
  0
LINE
  8
0
 62
     0
 10
206.082
 20
15.6173
 30
0.0
 11
206.082
 21
12.5181
 31
0.0
  0
LINE
  8
0
 62
     0
 10
206.082
 20
12.5181
 30
0.0
 11
206.882
 21
12.5181
 31
0.0
  0
LINE
  8
0
 62
     0
 10
206.882
 20
12.5181
 30
0.0
 11
206.882
 21
6.71795
 31
0.0
  0
LINE
  8
0
 62
     0
 10
206.882
 20
6.71795
 30
0.0
 11
206.082
 21
6.71795
 31
0.0
  0
LINE
  8
0
 62
     0
 10
206.082
 20
6.71795
 30
0.0
 11
206.082
 21
3.61735
 31
0.0
  0
LINE
  8
0
 62
     0
 10
206.082
 20
3.61735
 30
0.0
 11
206.882
 21
3.61735
 31
0.0
  0
LINE
  8
0
 62
     0
 10
206.882
 20
3.61735
 30
0.0
 11
206.882
 21
2.61827
 31
0.0
  0
LINE
  8
0
 62
     0
 10
206.882
 20
2.61827
 30
0.0
 11
220.882
 21
2.61827
 31
0.0
  0
LINE
  8
0
 62
     0
 10
220.882
 20
2.61827
 30
0.0
 11
220.882
 21
3.61735
 31
0.0
  0
LINE
  8
0
 62
     0
 10
220.882
 20
3.61735
 30
0.0
 11
221.682
 21
3.61735
 31
0.0
  0
LINE
  8
0
 62
     0
 10
221.682
 20
3.61735
 30
0.0
 11
221.682
 21
6.71795
 31
0.0
  0
LINE
  8
0
 62
     0
 10
221.682
 20
6.71795
 30
0.0
 11
220.882
 21
6.71795
 31
0.0
  0
LINE
  8
0
 62
     0
 10
220.882
 20
6.71795
 30
0.0
 11
220.882
 21
12.5181
 31
0.0
  0
LINE
  8
0
 62
     0
 10
220.882
 20
12.5181
 30
0.0
 11
221.682
 21
12.5181
 31
0.0
  0
LINE
  8
0
 62
     0
 10
221.682
 20
12.5181
 30
0.0
 11
221.682
 21
15.6173
 31
0.0
  0
LINE
  8
0
 62
     0
 10
221.682
 20
15.6173
 30
0.0
 11
220.882
 21
15.6173
 31
0.0
  0
LINE
  8
0
 62
     0
 10
220.882
 20
15.6173
 30
0.0
 11
220.882
 21
16.6178
 31
0.0
  0
LINE
  8
0
 62
     0
 10
220.882
 20
16.6178
 30
0.0
 11
206.882
 21
16.6178
 31
0.0
  0
LINE
  8
0
 62
     0
 10
225.932
 20
16.6178
 30
0.0
 11
225.932
 21
15.6173
 31
0.0
  0
LINE
  8
0
 62
     0
 10
225.932
 20
15.6173
 30
0.0
 11
225.132
 21
15.6173
 31
0.0
  0
LINE
  8
0
 62
     0
 10
225.132
 20
15.6173
 30
0.0
 11
225.132
 21
12.5181
 31
0.0
  0
LINE
  8
0
 62
     0
 10
225.132
 20
12.5181
 30
0.0
 11
225.932
 21
12.5181
 31
0.0
  0
LINE
  8
0
 62
     0
 10
225.932
 20
12.5181
 30
0.0
 11
225.932
 21
6.71795
 31
0.0
  0
LINE
  8
0
 62
     0
 10
225.932
 20
6.71795
 30
0.0
 11
225.132
 21
6.71795
 31
0.0
  0
LINE
  8
0
 62
     0
 10
225.132
 20
6.71795
 30
0.0
 11
225.132
 21
3.61735
 31
0.0
  0
LINE
  8
0
 62
     0
 10
225.132
 20
3.61735
 30
0.0
 11
225.932
 21
3.61735
 31
0.0
  0
LINE
  8
0
 62
     0
 10
225.932
 20
3.61735
 30
0.0
 11
225.932
 21
2.61827
 31
0.0
  0
LINE
  8
0
 62
     0
 10
225.932
 20
2.61827
 30
0.0
 11
239.932
 21
2.61827
 31
0.0
  0
LINE
  8
0
 62
     0
 10
239.932
 20
2.61827
 30
0.0
 11
239.932
 21
3.61735
 31
0.0
  0
LINE
  8
0
 62
     0
 10
239.932
 20
3.61735
 30
0.0
 11
240.732
 21
3.61735
 31
0.0
  0
LINE
  8
0
 62
     0
 10
240.732
 20
3.61735
 30
0.0
 11
240.732
 21
6.71795
 31
0.0
  0
LINE
  8
0
 62
     0
 10
240.732
 20
6.71795
 30
0.0
 11
239.932
 21
6.71795
 31
0.0
  0
LINE
  8
0
 62
     0
 10
239.932
 20
6.71795
 30
0.0
 11
239.932
 21
12.5181
 31
0.0
  0
LINE
  8
0
 62
     0
 10
239.932
 20
12.5181
 30
0.0
 11
240.732
 21
12.5181
 31
0.0
  0
LINE
  8
0
 62
     0
 10
240.732
 20
12.5181
 30
0.0
 11
240.732
 21
15.6173
 31
0.0
  0
LINE
  8
0
 62
     0
 10
240.732
 20
15.6173
 30
0.0
 11
239.932
 21
15.6173
 31
0.0
  0
LINE
  8
0
 62
     0
 10
239.932
 20
15.6173
 30
0.0
 11
239.932
 21
16.6178
 31
0.0
  0
LINE
  8
0
 62
     0
 10
239.932
 20
16.6178
 30
0.0
 11
225.932
 21
16.6178
 31
0.0
  0
LINE
  8
0
 62
     0
 10
244.982
 20
16.6178
 30
0.0
 11
244.982
 21
15.6173
 31
0.0
  0
LINE
  8
0
 62
     0
 10
244.982
 20
15.6173
 30
0.0
 11
244.182
 21
15.6173
 31
0.0
  0
LINE
  8
0
 62
     0
 10
244.182
 20
15.6173
 30
0.0
 11
244.182
 21
12.5181
 31
0.0
  0
LINE
  8
0
 62
     0
 10
244.182
 20
12.5181
 30
0.0
 11
244.982
 21
12.5181
 31
0.0
  0
LINE
  8
0
 62
     0
 10
244.982
 20
12.5181
 30
0.0
 11
244.982
 21
6.71795
 31
0.0
  0
LINE
  8
0
 62
     0
 10
244.982
 20
6.71795
 30
0.0
 11
244.182
 21
6.71795
 31
0.0
  0
LINE
  8
0
 62
     0
 10
244.182
 20
6.71795
 30
0.0
 11
244.182
 21
3.61735
 31
0.0
  0
LINE
  8
0
 62
     0
 10
244.182
 20
3.61735
 30
0.0
 11
244.982
 21
3.61735
 31
0.0
  0
LINE
  8
0
 62
     0
 10
244.982
 20
3.61735
 30
0.0
 11
244.982
 21
2.61827
 31
0.0
  0
LINE
  8
0
 62
     0
 10
244.982
 20
2.61827
 30
0.0
 11
258.982
 21
2.61827
 31
0.0
  0
LINE
  8
0
 62
     0
 10
258.982
 20
2.61827
 30
0.0
 11
258.982
 21
3.61735
 31
0.0
  0
LINE
  8
0
 62
     0
 10
258.982
 20
3.61735
 30
0.0
 11
259.782
 21
3.61735
 31
0.0
  0
LINE
  8
0
 62
     0
 10
259.782
 20
3.61735
 30
0.0
 11
259.782
 21
6.71795
 31
0.0
  0
LINE
  8
0
 62
     0
 10
259.782
 20
6.71795
 30
0.0
 11
258.982
 21
6.71795
 31
0.0
  0
LINE
  8
0
 62
     0
 10
258.982
 20
6.71795
 30
0.0
 11
258.982
 21
12.5181
 31
0.0
  0
LINE
  8
0
 62
     0
 10
258.982
 20
12.5181
 30
0.0
 11
259.782
 21
12.5181
 31
0.0
  0
LINE
  8
0
 62
     0
 10
259.782
 20
12.5181
 30
0.0
 11
259.782
 21
15.6173
 31
0.0
  0
LINE
  8
0
 62
     0
 10
259.782
 20
15.6173
 30
0.0
 11
258.982
 21
15.6173
 31
0.0
  0
LINE
  8
0
 62
     0
 10
258.982
 20
15.6173
 30
0.0
 11
258.982
 21
16.6178
 31
0.0
  0
LINE
  8
0
 62
     0
 10
258.982
 20
16.6178
 30
0.0
 11
244.982
 21
16.6178
 31
0.0
  0
LINE
  8
0
 62
     0
 10
271.176
 20
16.6178
 30
0.0
 11
271.176
 21
15.6173
 31
0.0
  0
LINE
  8
0
 62
     0
 10
271.176
 20
15.6173
 30
0.0
 11
270.375
 21
15.6173
 31
0.0
  0
LINE
  8
0
 62
     0
 10
270.375
 20
15.6173
 30
0.0
 11
270.375
 21
12.5181
 31
0.0
  0
LINE
  8
0
 62
     0
 10
270.375
 20
12.5181
 30
0.0
 11
271.176
 21
12.5181
 31
0.0
  0
LINE
  8
0
 62
     0
 10
271.176
 20
12.5181
 30
0.0
 11
271.176
 21
6.71795
 31
0.0
  0
LINE
  8
0
 62
     0
 10
271.176
 20
6.71795
 30
0.0
 11
270.375
 21
6.71795
 31
0.0
  0
LINE
  8
0
 62
     0
 10
270.375
 20
6.71795
 30
0.0
 11
270.375
 21
3.61735
 31
0.0
  0
LINE
  8
0
 62
     0
 10
270.375
 20
3.61735
 30
0.0
 11
271.176
 21
3.61735
 31
0.0
  0
LINE
  8
0
 62
     0
 10
271.176
 20
3.61735
 30
0.0
 11
271.176
 21
2.61827
 31
0.0
  0
LINE
  8
0
 62
     0
 10
271.176
 20
2.61827
 30
0.0
 11
285.175
 21
2.61827
 31
0.0
  0
LINE
  8
0
 62
     0
 10
285.175
 20
2.61827
 30
0.0
 11
285.175
 21
3.61735
 31
0.0
  0
LINE
  8
0
 62
     0
 10
285.175
 20
3.61735
 30
0.0
 11
285.976
 21
3.61735
 31
0.0
  0
LINE
  8
0
 62
     0
 10
285.976
 20
3.61735
 30
0.0
 11
285.976
 21
6.71795
 31
0.0
  0
LINE
  8
0
 62
     0
 10
285.976
 20
6.71795
 30
0.0
 11
285.175
 21
6.71795
 31
0.0
  0
LINE
  8
0
 62
     0
 10
285.175
 20
6.71795
 30
0.0
 11
285.175
 21
12.5181
 31
0.0
  0
LINE
  8
0
 62
     0
 10
285.175
 20
12.5181
 30
0.0
 11
285.976
 21
12.5181
 31
0.0
  0
LINE
  8
0
 62
     0
 10
285.976
 20
12.5181
 30
0.0
 11
285.976
 21
15.6173
 31
0.0
  0
LINE
  8
0
 62
     0
 10
285.976
 20
15.6173
 30
0.0
 11
285.175
 21
15.6173
 31
0.0
  0
LINE
  8
0
 62
     0
 10
285.175
 20
15.6173
 30
0.0
 11
285.175
 21
16.6178
 31
0.0
  0
LINE
  8
0
 62
     0
 10
285.175
 20
16.6178
 30
0.0
 11
271.176
 21
16.6178
 31
0.0
  0
LINE
  8
0
 62
     0
 10
14.0009
 20
35.6676
 30
0.0
 11
14.0009
 21
34.6673
 31
0.0
  0
LINE
  8
0
 62
     0
 10
14.0009
 20
34.6673
 30
0.0
 11
13.2002
 21
34.6673
 31
0.0
  0
LINE
  8
0
 62
     0
 10
13.2002
 20
34.6673
 30
0.0
 11
13.2002
 21
31.5681
 31
0.0
  0
LINE
  8
0
 62
     0
 10
13.2002
 20
31.5681
 30
0.0
 11
14.0009
 21
31.5681
 31
0.0
  0
LINE
  8
0
 62
     0
 10
14.0009
 20
31.5681
 30
0.0
 11
14.0009
 21
25.7679
 31
0.0
  0
LINE
  8
0
 62
     0
 10
14.0009
 20
25.7679
 30
0.0
 11
13.2002
 21
25.7679
 31
0.0
  0
LINE
  8
0
 62
     0
 10
13.2002
 20
25.7679
 30
0.0
 11
13.2002
 21
22.6673
 31
0.0
  0
LINE
  8
0
 62
     0
 10
13.2002
 20
22.6673
 30
0.0
 11
14.0009
 21
22.6673
 31
0.0
  0
LINE
  8
0
 62
     0
 10
14.0009
 20
22.6673
 30
0.0
 11
14.0009
 21
21.6683
 31
0.0
  0
LINE
  8
0
 62
     0
 10
14.0009
 20
21.6683
 30
0.0
 11
28.0004
 21
21.6683
 31
0.0
  0
LINE
  8
0
 62
     0
 10
28.0004
 20
21.6683
 30
0.0
 11
28.0004
 21
22.6673
 31
0.0
  0
LINE
  8
0
 62
     0
 10
28.0004
 20
22.6673
 30
0.0
 11
28.801
 21
22.6673
 31
0.0
  0
LINE
  8
0
 62
     0
 10
28.801
 20
22.6673
 30
0.0
 11
28.801
 21
25.7679
 31
0.0
  0
LINE
  8
0
 62
     0
 10
28.801
 20
25.7679
 30
0.0
 11
28.0004
 21
25.7679
 31
0.0
  0
LINE
  8
0
 62
     0
 10
28.0004
 20
25.7679
 30
0.0
 11
28.0004
 21
31.5681
 31
0.0
  0
LINE
  8
0
 62
     0
 10
28.0004
 20
31.5681
 30
0.0
 11
28.801
 21
31.5681
 31
0.0
  0
LINE
  8
0
 62
     0
 10
28.801
 20
31.5681
 30
0.0
 11
28.801
 21
34.6673
 31
0.0
  0
LINE
  8
0
 62
     0
 10
28.801
 20
34.6673
 30
0.0
 11
28.0004
 21
34.6673
 31
0.0
  0
LINE
  8
0
 62
     0
 10
28.0004
 20
34.6673
 30
0.0
 11
28.0004
 21
35.6676
 31
0.0
  0
LINE
  8
0
 62
     0
 10
28.0004
 20
35.6676
 30
0.0
 11
14.0009
 21
35.6676
 31
0.0
  0
LINE
  8
0
 62
     0
 10
35.4323
 20
35.6676
 30
0.0
 11
35.4323
 21
34.6673
 31
0.0
  0
LINE
  8
0
 62
     0
 10
35.4323
 20
34.6673
 30
0.0
 11
34.6315
 21
34.6673
 31
0.0
  0
LINE
  8
0
 62
     0
 10
34.6315
 20
34.6673
 30
0.0
 11
34.6315
 21
31.5681
 31
0.0
  0
LINE
  8
0
 62
     0
 10
34.6315
 20
31.5681
 30
0.0
 11
35.4323
 21
31.5681
 31
0.0
  0
LINE
  8
0
 62
     0
 10
35.4323
 20
31.5681
 30
0.0
 11
35.4323
 21
25.7679
 31
0.0
  0
LINE
  8
0
 62
     0
 10
35.4323
 20
25.7679
 30
0.0
 11
34.6315
 21
25.7679
 31
0.0
  0
LINE
  8
0
 62
     0
 10
34.6315
 20
25.7679
 30
0.0
 11
34.6315
 21
22.6673
 31
0.0
  0
LINE
  8
0
 62
     0
 10
34.6315
 20
22.6673
 30
0.0
 11
35.4323
 21
22.6673
 31
0.0
  0
LINE
  8
0
 62
     0
 10
35.4323
 20
22.6673
 30
0.0
 11
35.4323
 21
21.6683
 31
0.0
  0
LINE
  8
0
 62
     0
 10
35.4323
 20
21.6683
 30
0.0
 11
49.4316
 21
21.6683
 31
0.0
  0
LINE
  8
0
 62
     0
 10
49.4316
 20
21.6683
 30
0.0
 11
49.4316
 21
22.6673
 31
0.0
  0
LINE
  8
0
 62
     0
 10
49.4316
 20
22.6673
 30
0.0
 11
50.2324
 21
22.6673
 31
0.0
  0
LINE
  8
0
 62
     0
 10
50.2324
 20
22.6673
 30
0.0
 11
50.2324
 21
25.7679
 31
0.0
  0
LINE
  8
0
 62
     0
 10
50.2324
 20
25.7679
 30
0.0
 11
49.4316
 21
25.7679
 31
0.0
  0
LINE
  8
0
 62
     0
 10
49.4316
 20
25.7679
 30
0.0
 11
49.4316
 21
31.5681
 31
0.0
  0
LINE
  8
0
 62
     0
 10
49.4316
 20
31.5681
 30
0.0
 11
50.2324
 21
31.5681
 31
0.0
  0
LINE
  8
0
 62
     0
 10
50.2324
 20
31.5681
 30
0.0
 11
50.2324
 21
34.6673
 31
0.0
  0
LINE
  8
0
 62
     0
 10
50.2324
 20
34.6673
 30
0.0
 11
49.4316
 21
34.6673
 31
0.0
  0
LINE
  8
0
 62
     0
 10
49.4316
 20
34.6673
 30
0.0
 11
49.4316
 21
35.6676
 31
0.0
  0
LINE
  8
0
 62
     0
 10
49.4316
 20
35.6676
 30
0.0
 11
35.4323
 21
35.6676
 31
0.0
  0
LINE
  8
0
 62
     0
 10
54.4823
 20
35.6676
 30
0.0
 11
54.4823
 21
34.6673
 31
0.0
  0
LINE
  8
0
 62
     0
 10
54.4823
 20
34.6673
 30
0.0
 11
53.6815
 21
34.6673
 31
0.0
  0
LINE
  8
0
 62
     0
 10
53.6815
 20
34.6673
 30
0.0
 11
53.6815
 21
31.5681
 31
0.0
  0
LINE
  8
0
 62
     0
 10
53.6815
 20
31.5681
 30
0.0
 11
54.4823
 21
31.5681
 31
0.0
  0
LINE
  8
0
 62
     0
 10
54.4823
 20
31.5681
 30
0.0
 11
54.4823
 21
25.7679
 31
0.0
  0
LINE
  8
0
 62
     0
 10
54.4823
 20
25.7679
 30
0.0
 11
53.6815
 21
25.7679
 31
0.0
  0
LINE
  8
0
 62
     0
 10
53.6815
 20
25.7679
 30
0.0
 11
53.6815
 21
22.6673
 31
0.0
  0
LINE
  8
0
 62
     0
 10
53.6815
 20
22.6673
 30
0.0
 11
54.4823
 21
22.6673
 31
0.0
  0
LINE
  8
0
 62
     0
 10
54.4823
 20
22.6673
 30
0.0
 11
54.4823
 21
21.6683
 31
0.0
  0
LINE
  8
0
 62
     0
 10
54.4823
 20
21.6683
 30
0.0
 11
68.4816
 21
21.6683
 31
0.0
  0
LINE
  8
0
 62
     0
 10
68.4816
 20
21.6683
 30
0.0
 11
68.4816
 21
22.6673
 31
0.0
  0
LINE
  8
0
 62
     0
 10
68.4816
 20
22.6673
 30
0.0
 11
69.2824
 21
22.6673
 31
0.0
  0
LINE
  8
0
 62
     0
 10
69.2824
 20
22.6673
 30
0.0
 11
69.2824
 21
25.7679
 31
0.0
  0
LINE
  8
0
 62
     0
 10
69.2824
 20
25.7679
 30
0.0
 11
68.4816
 21
25.7679
 31
0.0
  0
LINE
  8
0
 62
     0
 10
68.4816
 20
25.7679
 30
0.0
 11
68.4816
 21
31.5681
 31
0.0
  0
LINE
  8
0
 62
     0
 10
68.4816
 20
31.5681
 30
0.0
 11
69.2824
 21
31.5681
 31
0.0
  0
LINE
  8
0
 62
     0
 10
69.2824
 20
31.5681
 30
0.0
 11
69.2824
 21
34.6673
 31
0.0
  0
LINE
  8
0
 62
     0
 10
69.2824
 20
34.6673
 30
0.0
 11
68.4816
 21
34.6673
 31
0.0
  0
LINE
  8
0
 62
     0
 10
68.4816
 20
34.6673
 30
0.0
 11
68.4816
 21
35.6676
 31
0.0
  0
LINE
  8
0
 62
     0
 10
68.4816
 20
35.6676
 30
0.0
 11
54.4823
 21
35.6676
 31
0.0
  0
LINE
  8
0
 62
     0
 10
73.5323
 20
35.6676
 30
0.0
 11
73.5323
 21
34.6673
 31
0.0
  0
LINE
  8
0
 62
     0
 10
73.5323
 20
34.6673
 30
0.0
 11
72.7315
 21
34.6673
 31
0.0
  0
LINE
  8
0
 62
     0
 10
72.7315
 20
34.6673
 30
0.0
 11
72.7315
 21
31.5681
 31
0.0
  0
LINE
  8
0
 62
     0
 10
72.7315
 20
31.5681
 30
0.0
 11
73.5323
 21
31.5681
 31
0.0
  0
LINE
  8
0
 62
     0
 10
73.5323
 20
31.5681
 30
0.0
 11
73.5323
 21
25.7679
 31
0.0
  0
LINE
  8
0
 62
     0
 10
73.5323
 20
25.7679
 30
0.0
 11
72.7315
 21
25.7679
 31
0.0
  0
LINE
  8
0
 62
     0
 10
72.7315
 20
25.7679
 30
0.0
 11
72.7315
 21
22.6673
 31
0.0
  0
LINE
  8
0
 62
     0
 10
72.7315
 20
22.6673
 30
0.0
 11
73.5323
 21
22.6673
 31
0.0
  0
LINE
  8
0
 62
     0
 10
73.5323
 20
22.6673
 30
0.0
 11
73.5323
 21
21.6683
 31
0.0
  0
LINE
  8
0
 62
     0
 10
73.5323
 20
21.6683
 30
0.0
 11
87.5316
 21
21.6683
 31
0.0
  0
LINE
  8
0
 62
     0
 10
87.5316
 20
21.6683
 30
0.0
 11
87.5316
 21
22.6673
 31
0.0
  0
LINE
  8
0
 62
     0
 10
87.5316
 20
22.6673
 30
0.0
 11
88.3324
 21
22.6673
 31
0.0
  0
LINE
  8
0
 62
     0
 10
88.3324
 20
22.6673
 30
0.0
 11
88.3324
 21
25.7679
 31
0.0
  0
LINE
  8
0
 62
     0
 10
88.3324
 20
25.7679
 30
0.0
 11
87.5316
 21
25.7679
 31
0.0
  0
LINE
  8
0
 62
     0
 10
87.5316
 20
25.7679
 30
0.0
 11
87.5316
 21
31.5681
 31
0.0
  0
LINE
  8
0
 62
     0
 10
87.5316
 20
31.5681
 30
0.0
 11
88.3324
 21
31.5681
 31
0.0
  0
LINE
  8
0
 62
     0
 10
88.3324
 20
31.5681
 30
0.0
 11
88.3324
 21
34.6673
 31
0.0
  0
LINE
  8
0
 62
     0
 10
88.3324
 20
34.6673
 30
0.0
 11
87.5316
 21
34.6673
 31
0.0
  0
LINE
  8
0
 62
     0
 10
87.5316
 20
34.6673
 30
0.0
 11
87.5316
 21
35.6676
 31
0.0
  0
LINE
  8
0
 62
     0
 10
87.5316
 20
35.6676
 30
0.0
 11
73.5323
 21
35.6676
 31
0.0
  0
LINE
  8
0
 62
     0
 10
92.5823
 20
35.6676
 30
0.0
 11
92.5823
 21
34.6673
 31
0.0
  0
LINE
  8
0
 62
     0
 10
92.5823
 20
34.6673
 30
0.0
 11
91.7815
 21
34.6673
 31
0.0
  0
LINE
  8
0
 62
     0
 10
91.7815
 20
34.6673
 30
0.0
 11
91.7815
 21
31.5681
 31
0.0
  0
LINE
  8
0
 62
     0
 10
91.7815
 20
31.5681
 30
0.0
 11
92.5823
 21
31.5681
 31
0.0
  0
LINE
  8
0
 62
     0
 10
92.5823
 20
31.5681
 30
0.0
 11
92.5823
 21
25.7679
 31
0.0
  0
LINE
  8
0
 62
     0
 10
92.5823
 20
25.7679
 30
0.0
 11
91.7815
 21
25.7679
 31
0.0
  0
LINE
  8
0
 62
     0
 10
91.7815
 20
25.7679
 30
0.0
 11
91.7815
 21
22.6673
 31
0.0
  0
LINE
  8
0
 62
     0
 10
91.7815
 20
22.6673
 30
0.0
 11
92.5823
 21
22.6673
 31
0.0
  0
LINE
  8
0
 62
     0
 10
92.5823
 20
22.6673
 30
0.0
 11
92.5823
 21
21.6683
 31
0.0
  0
LINE
  8
0
 62
     0
 10
92.5823
 20
21.6683
 30
0.0
 11
106.582
 21
21.6683
 31
0.0
  0
LINE
  8
0
 62
     0
 10
106.582
 20
21.6683
 30
0.0
 11
106.582
 21
22.6673
 31
0.0
  0
LINE
  8
0
 62
     0
 10
106.582
 20
22.6673
 30
0.0
 11
107.382
 21
22.6673
 31
0.0
  0
LINE
  8
0
 62
     0
 10
107.382
 20
22.6673
 30
0.0
 11
107.382
 21
25.7679
 31
0.0
  0
LINE
  8
0
 62
     0
 10
107.382
 20
25.7679
 30
0.0
 11
106.582
 21
25.7679
 31
0.0
  0
LINE
  8
0
 62
     0
 10
106.582
 20
25.7679
 30
0.0
 11
106.582
 21
31.5681
 31
0.0
  0
LINE
  8
0
 62
     0
 10
106.582
 20
31.5681
 30
0.0
 11
107.382
 21
31.5681
 31
0.0
  0
LINE
  8
0
 62
     0
 10
107.382
 20
31.5681
 30
0.0
 11
107.382
 21
34.6673
 31
0.0
  0
LINE
  8
0
 62
     0
 10
107.382
 20
34.6673
 30
0.0
 11
106.582
 21
34.6673
 31
0.0
  0
LINE
  8
0
 62
     0
 10
106.582
 20
34.6673
 30
0.0
 11
106.582
 21
35.6676
 31
0.0
  0
LINE
  8
0
 62
     0
 10
106.582
 20
35.6676
 30
0.0
 11
92.5823
 21
35.6676
 31
0.0
  0
LINE
  8
0
 62
     0
 10
111.632
 20
35.6676
 30
0.0
 11
111.632
 21
34.6673
 31
0.0
  0
LINE
  8
0
 62
     0
 10
111.632
 20
34.6673
 30
0.0
 11
110.831
 21
34.6673
 31
0.0
  0
LINE
  8
0
 62
     0
 10
110.831
 20
34.6673
 30
0.0
 11
110.831
 21
31.5681
 31
0.0
  0
LINE
  8
0
 62
     0
 10
110.831
 20
31.5681
 30
0.0
 11
111.632
 21
31.5681
 31
0.0
  0
LINE
  8
0
 62
     0
 10
111.632
 20
31.5681
 30
0.0
 11
111.632
 21
25.7679
 31
0.0
  0
LINE
  8
0
 62
     0
 10
111.632
 20
25.7679
 30
0.0
 11
110.831
 21
25.7679
 31
0.0
  0
LINE
  8
0
 62
     0
 10
110.831
 20
25.7679
 30
0.0
 11
110.831
 21
22.6673
 31
0.0
  0
LINE
  8
0
 62
     0
 10
110.831
 20
22.6673
 30
0.0
 11
111.632
 21
22.6673
 31
0.0
  0
LINE
  8
0
 62
     0
 10
111.632
 20
22.6673
 30
0.0
 11
111.632
 21
21.6683
 31
0.0
  0
LINE
  8
0
 62
     0
 10
111.632
 20
21.6683
 30
0.0
 11
125.632
 21
21.6683
 31
0.0
  0
LINE
  8
0
 62
     0
 10
125.632
 20
21.6683
 30
0.0
 11
125.632
 21
22.6673
 31
0.0
  0
LINE
  8
0
 62
     0
 10
125.632
 20
22.6673
 30
0.0
 11
126.432
 21
22.6673
 31
0.0
  0
LINE
  8
0
 62
     0
 10
126.432
 20
22.6673
 30
0.0
 11
126.432
 21
25.7679
 31
0.0
  0
LINE
  8
0
 62
     0
 10
126.432
 20
25.7679
 30
0.0
 11
125.632
 21
25.7679
 31
0.0
  0
LINE
  8
0
 62
     0
 10
125.632
 20
25.7679
 30
0.0
 11
125.632
 21
31.5681
 31
0.0
  0
LINE
  8
0
 62
     0
 10
125.632
 20
31.5681
 30
0.0
 11
126.432
 21
31.5681
 31
0.0
  0
LINE
  8
0
 62
     0
 10
126.432
 20
31.5681
 30
0.0
 11
126.432
 21
34.6673
 31
0.0
  0
LINE
  8
0
 62
     0
 10
126.432
 20
34.6673
 30
0.0
 11
125.632
 21
34.6673
 31
0.0
  0
LINE
  8
0
 62
     0
 10
125.632
 20
34.6673
 30
0.0
 11
125.632
 21
35.6676
 31
0.0
  0
LINE
  8
0
 62
     0
 10
125.632
 20
35.6676
 30
0.0
 11
111.632
 21
35.6676
 31
0.0
  0
LINE
  8
0
 62
     0
 10
130.682
 20
35.6676
 30
0.0
 11
130.682
 21
34.6673
 31
0.0
  0
LINE
  8
0
 62
     0
 10
130.682
 20
34.6673
 30
0.0
 11
129.881
 21
34.6673
 31
0.0
  0
LINE
  8
0
 62
     0
 10
129.881
 20
34.6673
 30
0.0
 11
129.881
 21
31.5681
 31
0.0
  0
LINE
  8
0
 62
     0
 10
129.881
 20
31.5681
 30
0.0
 11
130.682
 21
31.5681
 31
0.0
  0
LINE
  8
0
 62
     0
 10
130.682
 20
31.5681
 30
0.0
 11
130.682
 21
25.7679
 31
0.0
  0
LINE
  8
0
 62
     0
 10
130.682
 20
25.7679
 30
0.0
 11
129.881
 21
25.7679
 31
0.0
  0
LINE
  8
0
 62
     0
 10
129.881
 20
25.7679
 30
0.0
 11
129.881
 21
22.6673
 31
0.0
  0
LINE
  8
0
 62
     0
 10
129.881
 20
22.6673
 30
0.0
 11
130.682
 21
22.6673
 31
0.0
  0
LINE
  8
0
 62
     0
 10
130.682
 20
22.6673
 30
0.0
 11
130.682
 21
21.6683
 31
0.0
  0
LINE
  8
0
 62
     0
 10
130.682
 20
21.6683
 30
0.0
 11
144.682
 21
21.6683
 31
0.0
  0
LINE
  8
0
 62
     0
 10
144.682
 20
21.6683
 30
0.0
 11
144.682
 21
22.6673
 31
0.0
  0
LINE
  8
0
 62
     0
 10
144.682
 20
22.6673
 30
0.0
 11
145.482
 21
22.6673
 31
0.0
  0
LINE
  8
0
 62
     0
 10
145.482
 20
22.6673
 30
0.0
 11
145.482
 21
25.7679
 31
0.0
  0
LINE
  8
0
 62
     0
 10
145.482
 20
25.7679
 30
0.0
 11
144.682
 21
25.7679
 31
0.0
  0
LINE
  8
0
 62
     0
 10
144.682
 20
25.7679
 30
0.0
 11
144.682
 21
31.5681
 31
0.0
  0
LINE
  8
0
 62
     0
 10
144.682
 20
31.5681
 30
0.0
 11
145.482
 21
31.5681
 31
0.0
  0
LINE
  8
0
 62
     0
 10
145.482
 20
31.5681
 30
0.0
 11
145.482
 21
34.6673
 31
0.0
  0
LINE
  8
0
 62
     0
 10
145.482
 20
34.6673
 30
0.0
 11
144.682
 21
34.6673
 31
0.0
  0
LINE
  8
0
 62
     0
 10
144.682
 20
34.6673
 30
0.0
 11
144.682
 21
35.6676
 31
0.0
  0
LINE
  8
0
 62
     0
 10
144.682
 20
35.6676
 30
0.0
 11
130.682
 21
35.6676
 31
0.0
  0
LINE
  8
0
 62
     0
 10
149.732
 20
35.6676
 30
0.0
 11
149.732
 21
34.6673
 31
0.0
  0
LINE
  8
0
 62
     0
 10
149.732
 20
34.6673
 30
0.0
 11
148.931
 21
34.6673
 31
0.0
  0
LINE
  8
0
 62
     0
 10
148.931
 20
34.6673
 30
0.0
 11
148.931
 21
31.5681
 31
0.0
  0
LINE
  8
0
 62
     0
 10
148.931
 20
31.5681
 30
0.0
 11
149.732
 21
31.5681
 31
0.0
  0
LINE
  8
0
 62
     0
 10
149.732
 20
31.5681
 30
0.0
 11
149.732
 21
25.7679
 31
0.0
  0
LINE
  8
0
 62
     0
 10
149.732
 20
25.7679
 30
0.0
 11
148.931
 21
25.7679
 31
0.0
  0
LINE
  8
0
 62
     0
 10
148.931
 20
25.7679
 30
0.0
 11
148.931
 21
22.6673
 31
0.0
  0
LINE
  8
0
 62
     0
 10
148.931
 20
22.6673
 30
0.0
 11
149.732
 21
22.6673
 31
0.0
  0
LINE
  8
0
 62
     0
 10
149.732
 20
22.6673
 30
0.0
 11
149.732
 21
21.6683
 31
0.0
  0
LINE
  8
0
 62
     0
 10
149.732
 20
21.6683
 30
0.0
 11
163.732
 21
21.6683
 31
0.0
  0
LINE
  8
0
 62
     0
 10
163.732
 20
21.6683
 30
0.0
 11
163.732
 21
22.6673
 31
0.0
  0
LINE
  8
0
 62
     0
 10
163.732
 20
22.6673
 30
0.0
 11
164.532
 21
22.6673
 31
0.0
  0
LINE
  8
0
 62
     0
 10
164.532
 20
22.6673
 30
0.0
 11
164.532
 21
25.7679
 31
0.0
  0
LINE
  8
0
 62
     0
 10
164.532
 20
25.7679
 30
0.0
 11
163.732
 21
25.7679
 31
0.0
  0
LINE
  8
0
 62
     0
 10
163.732
 20
25.7679
 30
0.0
 11
163.732
 21
31.5681
 31
0.0
  0
LINE
  8
0
 62
     0
 10
163.732
 20
31.5681
 30
0.0
 11
164.532
 21
31.5681
 31
0.0
  0
LINE
  8
0
 62
     0
 10
164.532
 20
31.5681
 30
0.0
 11
164.532
 21
34.6673
 31
0.0
  0
LINE
  8
0
 62
     0
 10
164.532
 20
34.6673
 30
0.0
 11
163.732
 21
34.6673
 31
0.0
  0
LINE
  8
0
 62
     0
 10
163.732
 20
34.6673
 30
0.0
 11
163.732
 21
35.6676
 31
0.0
  0
LINE
  8
0
 62
     0
 10
163.732
 20
35.6676
 30
0.0
 11
149.732
 21
35.6676
 31
0.0
  0
LINE
  8
0
 62
     0
 10
168.782
 20
35.6676
 30
0.0
 11
168.782
 21
34.6673
 31
0.0
  0
LINE
  8
0
 62
     0
 10
168.782
 20
34.6673
 30
0.0
 11
167.981
 21
34.6673
 31
0.0
  0
LINE
  8
0
 62
     0
 10
167.981
 20
34.6673
 30
0.0
 11
167.981
 21
31.5681
 31
0.0
  0
LINE
  8
0
 62
     0
 10
167.981
 20
31.5681
 30
0.0
 11
168.782
 21
31.5681
 31
0.0
  0
LINE
  8
0
 62
     0
 10
168.782
 20
31.5681
 30
0.0
 11
168.782
 21
25.7679
 31
0.0
  0
LINE
  8
0
 62
     0
 10
168.782
 20
25.7679
 30
0.0
 11
167.981
 21
25.7679
 31
0.0
  0
LINE
  8
0
 62
     0
 10
167.981
 20
25.7679
 30
0.0
 11
167.981
 21
22.6673
 31
0.0
  0
LINE
  8
0
 62
     0
 10
167.981
 20
22.6673
 30
0.0
 11
168.782
 21
22.6673
 31
0.0
  0
LINE
  8
0
 62
     0
 10
168.782
 20
22.6673
 30
0.0
 11
168.782
 21
21.6683
 31
0.0
  0
LINE
  8
0
 62
     0
 10
168.782
 20
21.6683
 30
0.0
 11
182.782
 21
21.6683
 31
0.0
  0
LINE
  8
0
 62
     0
 10
182.782
 20
21.6683
 30
0.0
 11
182.782
 21
22.6673
 31
0.0
  0
LINE
  8
0
 62
     0
 10
182.782
 20
22.6673
 30
0.0
 11
183.582
 21
22.6673
 31
0.0
  0
LINE
  8
0
 62
     0
 10
183.582
 20
22.6673
 30
0.0
 11
183.582
 21
25.7679
 31
0.0
  0
LINE
  8
0
 62
     0
 10
183.582
 20
25.7679
 30
0.0
 11
182.782
 21
25.7679
 31
0.0
  0
LINE
  8
0
 62
     0
 10
182.782
 20
25.7679
 30
0.0
 11
182.782
 21
31.5681
 31
0.0
  0
LINE
  8
0
 62
     0
 10
182.782
 20
31.5681
 30
0.0
 11
183.582
 21
31.5681
 31
0.0
  0
LINE
  8
0
 62
     0
 10
183.582
 20
31.5681
 30
0.0
 11
183.582
 21
34.6673
 31
0.0
  0
LINE
  8
0
 62
     0
 10
183.582
 20
34.6673
 30
0.0
 11
182.782
 21
34.6673
 31
0.0
  0
LINE
  8
0
 62
     0
 10
182.782
 20
34.6673
 30
0.0
 11
182.782
 21
35.6676
 31
0.0
  0
LINE
  8
0
 62
     0
 10
182.782
 20
35.6676
 30
0.0
 11
168.782
 21
35.6676
 31
0.0
  0
LINE
  8
0
 62
     0
 10
187.832
 20
35.6676
 30
0.0
 11
187.832
 21
34.6673
 31
0.0
  0
LINE
  8
0
 62
     0
 10
187.832
 20
34.6673
 30
0.0
 11
187.032
 21
34.6673
 31
0.0
  0
LINE
  8
0
 62
     0
 10
187.032
 20
34.6673
 30
0.0
 11
187.032
 21
31.5681
 31
0.0
  0
LINE
  8
0
 62
     0
 10
187.032
 20
31.5681
 30
0.0
 11
187.832
 21
31.5681
 31
0.0
  0
LINE
  8
0
 62
     0
 10
187.832
 20
31.5681
 30
0.0
 11
187.832
 21
25.7679
 31
0.0
  0
LINE
  8
0
 62
     0
 10
187.832
 20
25.7679
 30
0.0
 11
187.032
 21
25.7679
 31
0.0
  0
LINE
  8
0
 62
     0
 10
187.032
 20
25.7679
 30
0.0
 11
187.032
 21
22.6673
 31
0.0
  0
LINE
  8
0
 62
     0
 10
187.032
 20
22.6673
 30
0.0
 11
187.832
 21
22.6673
 31
0.0
  0
LINE
  8
0
 62
     0
 10
187.832
 20
22.6673
 30
0.0
 11
187.832
 21
21.6683
 31
0.0
  0
LINE
  8
0
 62
     0
 10
187.832
 20
21.6683
 30
0.0
 11
201.832
 21
21.6683
 31
0.0
  0
LINE
  8
0
 62
     0
 10
201.832
 20
21.6683
 30
0.0
 11
201.832
 21
22.6673
 31
0.0
  0
LINE
  8
0
 62
     0
 10
201.832
 20
22.6673
 30
0.0
 11
202.632
 21
22.6673
 31
0.0
  0
LINE
  8
0
 62
     0
 10
202.632
 20
22.6673
 30
0.0
 11
202.632
 21
25.7679
 31
0.0
  0
LINE
  8
0
 62
     0
 10
202.632
 20
25.7679
 30
0.0
 11
201.832
 21
25.7679
 31
0.0
  0
LINE
  8
0
 62
     0
 10
201.832
 20
25.7679
 30
0.0
 11
201.832
 21
31.5681
 31
0.0
  0
LINE
  8
0
 62
     0
 10
201.832
 20
31.5681
 30
0.0
 11
202.632
 21
31.5681
 31
0.0
  0
LINE
  8
0
 62
     0
 10
202.632
 20
31.5681
 30
0.0
 11
202.632
 21
34.6673
 31
0.0
  0
LINE
  8
0
 62
     0
 10
202.632
 20
34.6673
 30
0.0
 11
201.832
 21
34.6673
 31
0.0
  0
LINE
  8
0
 62
     0
 10
201.832
 20
34.6673
 30
0.0
 11
201.832
 21
35.6676
 31
0.0
  0
LINE
  8
0
 62
     0
 10
201.832
 20
35.6676
 30
0.0
 11
187.832
 21
35.6676
 31
0.0
  0
LINE
  8
0
 62
     0
 10
206.882
 20
35.6676
 30
0.0
 11
206.882
 21
34.6673
 31
0.0
  0
LINE
  8
0
 62
     0
 10
206.882
 20
34.6673
 30
0.0
 11
206.082
 21
34.6673
 31
0.0
  0
LINE
  8
0
 62
     0
 10
206.082
 20
34.6673
 30
0.0
 11
206.082
 21
31.5681
 31
0.0
  0
LINE
  8
0
 62
     0
 10
206.082
 20
31.5681
 30
0.0
 11
206.882
 21
31.5681
 31
0.0
  0
LINE
  8
0
 62
     0
 10
206.882
 20
31.5681
 30
0.0
 11
206.882
 21
25.7679
 31
0.0
  0
LINE
  8
0
 62
     0
 10
206.882
 20
25.7679
 30
0.0
 11
206.082
 21
25.7679
 31
0.0
  0
LINE
  8
0
 62
     0
 10
206.082
 20
25.7679
 30
0.0
 11
206.082
 21
22.6673
 31
0.0
  0
LINE
  8
0
 62
     0
 10
206.082
 20
22.6673
 30
0.0
 11
206.882
 21
22.6673
 31
0.0
  0
LINE
  8
0
 62
     0
 10
206.882
 20
22.6673
 30
0.0
 11
206.882
 21
21.6683
 31
0.0
  0
LINE
  8
0
 62
     0
 10
206.882
 20
21.6683
 30
0.0
 11
220.882
 21
21.6683
 31
0.0
  0
LINE
  8
0
 62
     0
 10
220.882
 20
21.6683
 30
0.0
 11
220.882
 21
22.6673
 31
0.0
  0
LINE
  8
0
 62
     0
 10
220.882
 20
22.6673
 30
0.0
 11
221.682
 21
22.6673
 31
0.0
  0
LINE
  8
0
 62
     0
 10
221.682
 20
22.6673
 30
0.0
 11
221.682
 21
25.7679
 31
0.0
  0
LINE
  8
0
 62
     0
 10
221.682
 20
25.7679
 30
0.0
 11
220.882
 21
25.7679
 31
0.0
  0
LINE
  8
0
 62
     0
 10
220.882
 20
25.7679
 30
0.0
 11
220.882
 21
31.5681
 31
0.0
  0
LINE
  8
0
 62
     0
 10
220.882
 20
31.5681
 30
0.0
 11
221.682
 21
31.5681
 31
0.0
  0
LINE
  8
0
 62
     0
 10
221.682
 20
31.5681
 30
0.0
 11
221.682
 21
34.6673
 31
0.0
  0
LINE
  8
0
 62
     0
 10
221.682
 20
34.6673
 30
0.0
 11
220.882
 21
34.6673
 31
0.0
  0
LINE
  8
0
 62
     0
 10
220.882
 20
34.6673
 30
0.0
 11
220.882
 21
35.6676
 31
0.0
  0
LINE
  8
0
 62
     0
 10
220.882
 20
35.6676
 30
0.0
 11
206.882
 21
35.6676
 31
0.0
  0
LINE
  8
0
 62
     0
 10
225.932
 20
35.6676
 30
0.0
 11
225.932
 21
34.6673
 31
0.0
  0
LINE
  8
0
 62
     0
 10
225.932
 20
34.6673
 30
0.0
 11
225.132
 21
34.6673
 31
0.0
  0
LINE
  8
0
 62
     0
 10
225.132
 20
34.6673
 30
0.0
 11
225.132
 21
31.5681
 31
0.0
  0
LINE
  8
0
 62
     0
 10
225.132
 20
31.5681
 30
0.0
 11
225.932
 21
31.5681
 31
0.0
  0
LINE
  8
0
 62
     0
 10
225.932
 20
31.5681
 30
0.0
 11
225.932
 21
25.7679
 31
0.0
  0
LINE
  8
0
 62
     0
 10
225.932
 20
25.7679
 30
0.0
 11
225.132
 21
25.7679
 31
0.0
  0
LINE
  8
0
 62
     0
 10
225.132
 20
25.7679
 30
0.0
 11
225.132
 21
22.6673
 31
0.0
  0
LINE
  8
0
 62
     0
 10
225.132
 20
22.6673
 30
0.0
 11
225.932
 21
22.6673
 31
0.0
  0
LINE
  8
0
 62
     0
 10
225.932
 20
22.6673
 30
0.0
 11
225.932
 21
21.6683
 31
0.0
  0
LINE
  8
0
 62
     0
 10
225.932
 20
21.6683
 30
0.0
 11
239.932
 21
21.6683
 31
0.0
  0
LINE
  8
0
 62
     0
 10
239.932
 20
21.6683
 30
0.0
 11
239.932
 21
22.6673
 31
0.0
  0
LINE
  8
0
 62
     0
 10
239.932
 20
22.6673
 30
0.0
 11
240.732
 21
22.6673
 31
0.0
  0
LINE
  8
0
 62
     0
 10
240.732
 20
22.6673
 30
0.0
 11
240.732
 21
25.7679
 31
0.0
  0
LINE
  8
0
 62
     0
 10
240.732
 20
25.7679
 30
0.0
 11
239.932
 21
25.7679
 31
0.0
  0
LINE
  8
0
 62
     0
 10
239.932
 20
25.7679
 30
0.0
 11
239.932
 21
31.5681
 31
0.0
  0
LINE
  8
0
 62
     0
 10
239.932
 20
31.5681
 30
0.0
 11
240.732
 21
31.5681
 31
0.0
  0
LINE
  8
0
 62
     0
 10
240.732
 20
31.5681
 30
0.0
 11
240.732
 21
34.6673
 31
0.0
  0
LINE
  8
0
 62
     0
 10
240.732
 20
34.6673
 30
0.0
 11
239.932
 21
34.6673
 31
0.0
  0
LINE
  8
0
 62
     0
 10
239.932
 20
34.6673
 30
0.0
 11
239.932
 21
35.6676
 31
0.0
  0
LINE
  8
0
 62
     0
 10
239.932
 20
35.6676
 30
0.0
 11
225.932
 21
35.6676
 31
0.0
  0
LINE
  8
0
 62
     0
 10
244.982
 20
35.6676
 30
0.0
 11
244.982
 21
34.6673
 31
0.0
  0
LINE
  8
0
 62
     0
 10
244.982
 20
34.6673
 30
0.0
 11
244.182
 21
34.6673
 31
0.0
  0
LINE
  8
0
 62
     0
 10
244.182
 20
34.6673
 30
0.0
 11
244.182
 21
31.5681
 31
0.0
  0
LINE
  8
0
 62
     0
 10
244.182
 20
31.5681
 30
0.0
 11
244.982
 21
31.5681
 31
0.0
  0
LINE
  8
0
 62
     0
 10
244.982
 20
31.5681
 30
0.0
 11
244.982
 21
25.7679
 31
0.0
  0
LINE
  8
0
 62
     0
 10
244.982
 20
25.7679
 30
0.0
 11
244.182
 21
25.7679
 31
0.0
  0
LINE
  8
0
 62
     0
 10
244.182
 20
25.7679
 30
0.0
 11
244.182
 21
22.6673
 31
0.0
  0
LINE
  8
0
 62
     0
 10
244.182
 20
22.6673
 30
0.0
 11
244.982
 21
22.6673
 31
0.0
  0
LINE
  8
0
 62
     0
 10
244.982
 20
22.6673
 30
0.0
 11
244.982
 21
21.6683
 31
0.0
  0
LINE
  8
0
 62
     0
 10
244.982
 20
21.6683
 30
0.0
 11
258.982
 21
21.6683
 31
0.0
  0
LINE
  8
0
 62
     0
 10
258.982
 20
21.6683
 30
0.0
 11
258.982
 21
22.6673
 31
0.0
  0
LINE
  8
0
 62
     0
 10
258.982
 20
22.6673
 30
0.0
 11
259.782
 21
22.6673
 31
0.0
  0
LINE
  8
0
 62
     0
 10
259.782
 20
22.6673
 30
0.0
 11
259.782
 21
25.7679
 31
0.0
  0
LINE
  8
0
 62
     0
 10
259.782
 20
25.7679
 30
0.0
 11
258.982
 21
25.7679
 31
0.0
  0
LINE
  8
0
 62
     0
 10
258.982
 20
25.7679
 30
0.0
 11
258.982
 21
31.5681
 31
0.0
  0
LINE
  8
0
 62
     0
 10
258.982
 20
31.5681
 30
0.0
 11
259.782
 21
31.5681
 31
0.0
  0
LINE
  8
0
 62
     0
 10
259.782
 20
31.5681
 30
0.0
 11
259.782
 21
34.6673
 31
0.0
  0
LINE
  8
0
 62
     0
 10
259.782
 20
34.6673
 30
0.0
 11
258.982
 21
34.6673
 31
0.0
  0
LINE
  8
0
 62
     0
 10
258.982
 20
34.6673
 30
0.0
 11
258.982
 21
35.6676
 31
0.0
  0
LINE
  8
0
 62
     0
 10
258.982
 20
35.6676
 30
0.0
 11
244.982
 21
35.6676
 31
0.0
  0
LINE
  8
0
 62
     0
 10
271.176
 20
35.6676
 30
0.0
 11
271.176
 21
34.6673
 31
0.0
  0
LINE
  8
0
 62
     0
 10
271.176
 20
34.6673
 30
0.0
 11
270.375
 21
34.6673
 31
0.0
  0
LINE
  8
0
 62
     0
 10
270.375
 20
34.6673
 30
0.0
 11
270.375
 21
31.5681
 31
0.0
  0
LINE
  8
0
 62
     0
 10
270.375
 20
31.5681
 30
0.0
 11
271.176
 21
31.5681
 31
0.0
  0
LINE
  8
0
 62
     0
 10
271.176
 20
31.5681
 30
0.0
 11
271.176
 21
25.7679
 31
0.0
  0
LINE
  8
0
 62
     0
 10
271.176
 20
25.7679
 30
0.0
 11
270.375
 21
25.7679
 31
0.0
  0
LINE
  8
0
 62
     0
 10
270.375
 20
25.7679
 30
0.0
 11
270.375
 21
22.6673
 31
0.0
  0
LINE
  8
0
 62
     0
 10
270.375
 20
22.6673
 30
0.0
 11
271.176
 21
22.6673
 31
0.0
  0
LINE
  8
0
 62
     0
 10
271.176
 20
22.6673
 30
0.0
 11
271.176
 21
21.6683
 31
0.0
  0
LINE
  8
0
 62
     0
 10
271.176
 20
21.6683
 30
0.0
 11
285.175
 21
21.6683
 31
0.0
  0
LINE
  8
0
 62
     0
 10
285.175
 20
21.6683
 30
0.0
 11
285.175
 21
22.6673
 31
0.0
  0
LINE
  8
0
 62
     0
 10
285.175
 20
22.6673
 30
0.0
 11
285.976
 21
22.6673
 31
0.0
  0
LINE
  8
0
 62
     0
 10
285.976
 20
22.6673
 30
0.0
 11
285.976
 21
25.7679
 31
0.0
  0
LINE
  8
0
 62
     0
 10
285.976
 20
25.7679
 30
0.0
 11
285.175
 21
25.7679
 31
0.0
  0
LINE
  8
0
 62
     0
 10
285.175
 20
25.7679
 30
0.0
 11
285.175
 21
31.5681
 31
0.0
  0
LINE
  8
0
 62
     0
 10
285.175
 20
31.5681
 30
0.0
 11
285.976
 21
31.5681
 31
0.0
  0
LINE
  8
0
 62
     0
 10
285.976
 20
31.5681
 30
0.0
 11
285.976
 21
34.6673
 31
0.0
  0
LINE
  8
0
 62
     0
 10
285.976
 20
34.6673
 30
0.0
 11
285.175
 21
34.6673
 31
0.0
  0
LINE
  8
0
 62
     0
 10
285.175
 20
34.6673
 30
0.0
 11
285.175
 21
35.6676
 31
0.0
  0
LINE
  8
0
 62
     0
 10
285.175
 20
35.6676
 30
0.0
 11
271.176
 21
35.6676
 31
0.0
  0
LINE
  8
0
 62
     0
 10
18.7634
 20
54.7176
 30
0.0
 11
18.7634
 21
53.7175
 31
0.0
  0
LINE
  8
0
 62
     0
 10
18.7634
 20
53.7175
 30
0.0
 11
17.9627
 21
53.7175
 31
0.0
  0
LINE
  8
0
 62
     0
 10
17.9627
 20
53.7175
 30
0.0
 11
17.9627
 21
50.618
 31
0.0
  0
LINE
  8
0
 62
     0
 10
17.9627
 20
50.618
 30
0.0
 11
18.7634
 21
50.618
 31
0.0
  0
LINE
  8
0
 62
     0
 10
18.7634
 20
50.618
 30
0.0
 11
18.7634
 21
44.8179
 31
0.0
  0
LINE
  8
0
 62
     0
 10
18.7634
 20
44.8179
 30
0.0
 11
17.9627
 21
44.8179
 31
0.0
  0
LINE
  8
0
 62
     0
 10
17.9627
 20
44.8179
 30
0.0
 11
17.9627
 21
41.7174
 31
0.0
  0
LINE
  8
0
 62
     0
 10
17.9627
 20
41.7174
 30
0.0
 11
18.7634
 21
41.7174
 31
0.0
  0
LINE
  8
0
 62
     0
 10
18.7634
 20
41.7174
 30
0.0
 11
18.7634
 21
40.7183
 31
0.0
  0
LINE
  8
0
 62
     0
 10
18.7634
 20
40.7183
 30
0.0
 11
32.7629
 21
40.7183
 31
0.0
  0
LINE
  8
0
 62
     0
 10
32.7629
 20
40.7183
 30
0.0
 11
32.7629
 21
41.7174
 31
0.0
  0
LINE
  8
0
 62
     0
 10
32.7629
 20
41.7174
 30
0.0
 11
33.5621
 21
41.7174
 31
0.0
  0
LINE
  8
0
 62
     0
 10
33.5621
 20
41.7174
 30
0.0
 11
33.5621
 21
44.8179
 31
0.0
  0
LINE
  8
0
 62
     0
 10
33.5621
 20
44.8179
 30
0.0
 11
32.7629
 21
44.8179
 31
0.0
  0
LINE
  8
0
 62
     0
 10
32.7629
 20
44.8179
 30
0.0
 11
32.7629
 21
50.618
 31
0.0
  0
LINE
  8
0
 62
     0
 10
32.7629
 20
50.618
 30
0.0
 11
33.5621
 21
50.618
 31
0.0
  0
LINE
  8
0
 62
     0
 10
33.5621
 20
50.618
 30
0.0
 11
33.5621
 21
53.7175
 31
0.0
  0
LINE
  8
0
 62
     0
 10
33.5621
 20
53.7175
 30
0.0
 11
32.7629
 21
53.7175
 31
0.0
  0
LINE
  8
0
 62
     0
 10
32.7629
 20
53.7175
 30
0.0
 11
32.7629
 21
54.7176
 31
0.0
  0
LINE
  8
0
 62
     0
 10
32.7629
 20
54.7176
 30
0.0
 11
18.7634
 21
54.7176
 31
0.0
  0
LINE
  8
0
 62
     0
 10
44.9573
 20
54.7176
 30
0.0
 11
44.9573
 21
53.7175
 31
0.0
  0
LINE
  8
0
 62
     0
 10
44.9573
 20
53.7175
 30
0.0
 11
44.1565
 21
53.7175
 31
0.0
  0
LINE
  8
0
 62
     0
 10
44.1565
 20
53.7175
 30
0.0
 11
44.1565
 21
50.618
 31
0.0
  0
LINE
  8
0
 62
     0
 10
44.1565
 20
50.618
 30
0.0
 11
44.9573
 21
50.618
 31
0.0
  0
LINE
  8
0
 62
     0
 10
44.9573
 20
50.618
 30
0.0
 11
44.9573
 21
44.8179
 31
0.0
  0
LINE
  8
0
 62
     0
 10
44.9573
 20
44.8179
 30
0.0
 11
44.1565
 21
44.8179
 31
0.0
  0
LINE
  8
0
 62
     0
 10
44.1565
 20
44.8179
 30
0.0
 11
44.1565
 21
41.7174
 31
0.0
  0
LINE
  8
0
 62
     0
 10
44.1565
 20
41.7174
 30
0.0
 11
44.9573
 21
41.7174
 31
0.0
  0
LINE
  8
0
 62
     0
 10
44.9573
 20
41.7174
 30
0.0
 11
44.9573
 21
40.7183
 31
0.0
  0
LINE
  8
0
 62
     0
 10
44.9573
 20
40.7183
 30
0.0
 11
58.9566
 21
40.7183
 31
0.0
  0
LINE
  8
0
 62
     0
 10
58.9566
 20
40.7183
 30
0.0
 11
58.9566
 21
41.7174
 31
0.0
  0
LINE
  8
0
 62
     0
 10
58.9566
 20
41.7174
 30
0.0
 11
59.7574
 21
41.7174
 31
0.0
  0
LINE
  8
0
 62
     0
 10
59.7574
 20
41.7174
 30
0.0
 11
59.7574
 21
44.8179
 31
0.0
  0
LINE
  8
0
 62
     0
 10
59.7574
 20
44.8179
 30
0.0
 11
58.9566
 21
44.8179
 31
0.0
  0
LINE
  8
0
 62
     0
 10
58.9566
 20
44.8179
 30
0.0
 11
58.9566
 21
50.618
 31
0.0
  0
LINE
  8
0
 62
     0
 10
58.9566
 20
50.618
 30
0.0
 11
59.7574
 21
50.618
 31
0.0
  0
LINE
  8
0
 62
     0
 10
59.7574
 20
50.618
 30
0.0
 11
59.7574
 21
53.7175
 31
0.0
  0
LINE
  8
0
 62
     0
 10
59.7574
 20
53.7175
 30
0.0
 11
58.9566
 21
53.7175
 31
0.0
  0
LINE
  8
0
 62
     0
 10
58.9566
 20
53.7175
 30
0.0
 11
58.9566
 21
54.7176
 31
0.0
  0
LINE
  8
0
 62
     0
 10
58.9566
 20
54.7176
 30
0.0
 11
44.9573
 21
54.7176
 31
0.0
  0
LINE
  8
0
 62
     0
 10
64.0073
 20
54.7176
 30
0.0
 11
64.0073
 21
53.7175
 31
0.0
  0
LINE
  8
0
 62
     0
 10
64.0073
 20
53.7175
 30
0.0
 11
63.2065
 21
53.7175
 31
0.0
  0
LINE
  8
0
 62
     0
 10
63.2065
 20
53.7175
 30
0.0
 11
63.2065
 21
50.618
 31
0.0
  0
LINE
  8
0
 62
     0
 10
63.2065
 20
50.618
 30
0.0
 11
64.0073
 21
50.618
 31
0.0
  0
LINE
  8
0
 62
     0
 10
64.0073
 20
50.618
 30
0.0
 11
64.0073
 21
44.8179
 31
0.0
  0
LINE
  8
0
 62
     0
 10
64.0073
 20
44.8179
 30
0.0
 11
63.2065
 21
44.8179
 31
0.0
  0
LINE
  8
0
 62
     0
 10
63.2065
 20
44.8179
 30
0.0
 11
63.2065
 21
41.7174
 31
0.0
  0
LINE
  8
0
 62
     0
 10
63.2065
 20
41.7174
 30
0.0
 11
64.0073
 21
41.7174
 31
0.0
  0
LINE
  8
0
 62
     0
 10
64.0073
 20
41.7174
 30
0.0
 11
64.0073
 21
40.7183
 31
0.0
  0
LINE
  8
0
 62
     0
 10
64.0073
 20
40.7183
 30
0.0
 11
78.0066
 21
40.7183
 31
0.0
  0
LINE
  8
0
 62
     0
 10
78.0066
 20
40.7183
 30
0.0
 11
78.0066
 21
41.7174
 31
0.0
  0
LINE
  8
0
 62
     0
 10
78.0066
 20
41.7174
 30
0.0
 11
78.8074
 21
41.7174
 31
0.0
  0
LINE
  8
0
 62
     0
 10
78.8074
 20
41.7174
 30
0.0
 11
78.8074
 21
44.8179
 31
0.0
  0
LINE
  8
0
 62
     0
 10
78.8074
 20
44.8179
 30
0.0
 11
78.0066
 21
44.8179
 31
0.0
  0
LINE
  8
0
 62
     0
 10
78.0066
 20
44.8179
 30
0.0
 11
78.0066
 21
50.618
 31
0.0
  0
LINE
  8
0
 62
     0
 10
78.0066
 20
50.618
 30
0.0
 11
78.8074
 21
50.618
 31
0.0
  0
LINE
  8
0
 62
     0
 10
78.8074
 20
50.618
 30
0.0
 11
78.8074
 21
53.7175
 31
0.0
  0
LINE
  8
0
 62
     0
 10
78.8074
 20
53.7175
 30
0.0
 11
78.0066
 21
53.7175
 31
0.0
  0
LINE
  8
0
 62
     0
 10
78.0066
 20
53.7175
 30
0.0
 11
78.0066
 21
54.7176
 31
0.0
  0
LINE
  8
0
 62
     0
 10
78.0066
 20
54.7176
 30
0.0
 11
64.0073
 21
54.7176
 31
0.0
  0
LINE
  8
0
 62
     0
 10
83.0573
 20
54.7176
 30
0.0
 11
83.0573
 21
53.7175
 31
0.0
  0
LINE
  8
0
 62
     0
 10
83.0573
 20
53.7175
 30
0.0
 11
82.2565
 21
53.7175
 31
0.0
  0
LINE
  8
0
 62
     0
 10
82.2565
 20
53.7175
 30
0.0
 11
82.2565
 21
50.618
 31
0.0
  0
LINE
  8
0
 62
     0
 10
82.2565
 20
50.618
 30
0.0
 11
83.0573
 21
50.618
 31
0.0
  0
LINE
  8
0
 62
     0
 10
83.0573
 20
50.618
 30
0.0
 11
83.0573
 21
44.8179
 31
0.0
  0
LINE
  8
0
 62
     0
 10
83.0573
 20
44.8179
 30
0.0
 11
82.2565
 21
44.8179
 31
0.0
  0
LINE
  8
0
 62
     0
 10
82.2565
 20
44.8179
 30
0.0
 11
82.2565
 21
41.7174
 31
0.0
  0
LINE
  8
0
 62
     0
 10
82.2565
 20
41.7174
 30
0.0
 11
83.0573
 21
41.7174
 31
0.0
  0
LINE
  8
0
 62
     0
 10
83.0573
 20
41.7174
 30
0.0
 11
83.0573
 21
40.7183
 31
0.0
  0
LINE
  8
0
 62
     0
 10
83.0573
 20
40.7183
 30
0.0
 11
97.0566
 21
40.7183
 31
0.0
  0
LINE
  8
0
 62
     0
 10
97.0566
 20
40.7183
 30
0.0
 11
97.0566
 21
41.7174
 31
0.0
  0
LINE
  8
0
 62
     0
 10
97.0566
 20
41.7174
 30
0.0
 11
97.8574
 21
41.7174
 31
0.0
  0
LINE
  8
0
 62
     0
 10
97.8574
 20
41.7174
 30
0.0
 11
97.8574
 21
44.8179
 31
0.0
  0
LINE
  8
0
 62
     0
 10
97.8574
 20
44.8179
 30
0.0
 11
97.0566
 21
44.8179
 31
0.0
  0
LINE
  8
0
 62
     0
 10
97.0566
 20
44.8179
 30
0.0
 11
97.0566
 21
50.618
 31
0.0
  0
LINE
  8
0
 62
     0
 10
97.0566
 20
50.618
 30
0.0
 11
97.8574
 21
50.618
 31
0.0
  0
LINE
  8
0
 62
     0
 10
97.8574
 20
50.618
 30
0.0
 11
97.8574
 21
53.7175
 31
0.0
  0
LINE
  8
0
 62
     0
 10
97.8574
 20
53.7175
 30
0.0
 11
97.0566
 21
53.7175
 31
0.0
  0
LINE
  8
0
 62
     0
 10
97.0566
 20
53.7175
 30
0.0
 11
97.0566
 21
54.7176
 31
0.0
  0
LINE
  8
0
 62
     0
 10
97.0566
 20
54.7176
 30
0.0
 11
83.0573
 21
54.7176
 31
0.0
  0
LINE
  8
0
 62
     0
 10
102.107
 20
54.7176
 30
0.0
 11
102.107
 21
53.7175
 31
0.0
  0
LINE
  8
0
 62
     0
 10
102.107
 20
53.7175
 30
0.0
 11
101.306
 21
53.7175
 31
0.0
  0
LINE
  8
0
 62
     0
 10
101.306
 20
53.7175
 30
0.0
 11
101.306
 21
50.618
 31
0.0
  0
LINE
  8
0
 62
     0
 10
101.306
 20
50.618
 30
0.0
 11
102.107
 21
50.618
 31
0.0
  0
LINE
  8
0
 62
     0
 10
102.107
 20
50.618
 30
0.0
 11
102.107
 21
44.8179
 31
0.0
  0
LINE
  8
0
 62
     0
 10
102.107
 20
44.8179
 30
0.0
 11
101.306
 21
44.8179
 31
0.0
  0
LINE
  8
0
 62
     0
 10
101.306
 20
44.8179
 30
0.0
 11
101.306
 21
41.7174
 31
0.0
  0
LINE
  8
0
 62
     0
 10
101.306
 20
41.7174
 30
0.0
 11
102.107
 21
41.7174
 31
0.0
  0
LINE
  8
0
 62
     0
 10
102.107
 20
41.7174
 30
0.0
 11
102.107
 21
40.7183
 31
0.0
  0
LINE
  8
0
 62
     0
 10
102.107
 20
40.7183
 30
0.0
 11
116.107
 21
40.7183
 31
0.0
  0
LINE
  8
0
 62
     0
 10
116.107
 20
40.7183
 30
0.0
 11
116.107
 21
41.7174
 31
0.0
  0
LINE
  8
0
 62
     0
 10
116.107
 20
41.7174
 30
0.0
 11
116.907
 21
41.7174
 31
0.0
  0
LINE
  8
0
 62
     0
 10
116.907
 20
41.7174
 30
0.0
 11
116.907
 21
44.8179
 31
0.0
  0
LINE
  8
0
 62
     0
 10
116.907
 20
44.8179
 30
0.0
 11
116.107
 21
44.8179
 31
0.0
  0
LINE
  8
0
 62
     0
 10
116.107
 20
44.8179
 30
0.0
 11
116.107
 21
50.618
 31
0.0
  0
LINE
  8
0
 62
     0
 10
116.107
 20
50.618
 30
0.0
 11
116.907
 21
50.618
 31
0.0
  0
LINE
  8
0
 62
     0
 10
116.907
 20
50.618
 30
0.0
 11
116.907
 21
53.7175
 31
0.0
  0
LINE
  8
0
 62
     0
 10
116.907
 20
53.7175
 30
0.0
 11
116.107
 21
53.7175
 31
0.0
  0
LINE
  8
0
 62
     0
 10
116.107
 20
53.7175
 30
0.0
 11
116.107
 21
54.7176
 31
0.0
  0
LINE
  8
0
 62
     0
 10
116.107
 20
54.7176
 30
0.0
 11
102.107
 21
54.7176
 31
0.0
  0
LINE
  8
0
 62
     0
 10
121.157
 20
54.7176
 30
0.0
 11
121.157
 21
53.7175
 31
0.0
  0
LINE
  8
0
 62
     0
 10
121.157
 20
53.7175
 30
0.0
 11
120.356
 21
53.7175
 31
0.0
  0
LINE
  8
0
 62
     0
 10
120.356
 20
53.7175
 30
0.0
 11
120.356
 21
50.618
 31
0.0
  0
LINE
  8
0
 62
     0
 10
120.356
 20
50.618
 30
0.0
 11
121.157
 21
50.618
 31
0.0
  0
LINE
  8
0
 62
     0
 10
121.157
 20
50.618
 30
0.0
 11
121.157
 21
44.8179
 31
0.0
  0
LINE
  8
0
 62
     0
 10
121.157
 20
44.8179
 30
0.0
 11
120.356
 21
44.8179
 31
0.0
  0
LINE
  8
0
 62
     0
 10
120.356
 20
44.8179
 30
0.0
 11
120.356
 21
41.7174
 31
0.0
  0
LINE
  8
0
 62
     0
 10
120.356
 20
41.7174
 30
0.0
 11
121.157
 21
41.7174
 31
0.0
  0
LINE
  8
0
 62
     0
 10
121.157
 20
41.7174
 30
0.0
 11
121.157
 21
40.7183
 31
0.0
  0
LINE
  8
0
 62
     0
 10
121.157
 20
40.7183
 30
0.0
 11
135.157
 21
40.7183
 31
0.0
  0
LINE
  8
0
 62
     0
 10
135.157
 20
40.7183
 30
0.0
 11
135.157
 21
41.7174
 31
0.0
  0
LINE
  8
0
 62
     0
 10
135.157
 20
41.7174
 30
0.0
 11
135.957
 21
41.7174
 31
0.0
  0
LINE
  8
0
 62
     0
 10
135.957
 20
41.7174
 30
0.0
 11
135.957
 21
44.8179
 31
0.0
  0
LINE
  8
0
 62
     0
 10
135.957
 20
44.8179
 30
0.0
 11
135.157
 21
44.8179
 31
0.0
  0
LINE
  8
0
 62
     0
 10
135.157
 20
44.8179
 30
0.0
 11
135.157
 21
50.618
 31
0.0
  0
LINE
  8
0
 62
     0
 10
135.157
 20
50.618
 30
0.0
 11
135.957
 21
50.618
 31
0.0
  0
LINE
  8
0
 62
     0
 10
135.957
 20
50.618
 30
0.0
 11
135.957
 21
53.7175
 31
0.0
  0
LINE
  8
0
 62
     0
 10
135.957
 20
53.7175
 30
0.0
 11
135.157
 21
53.7175
 31
0.0
  0
LINE
  8
0
 62
     0
 10
135.157
 20
53.7175
 30
0.0
 11
135.157
 21
54.7176
 31
0.0
  0
LINE
  8
0
 62
     0
 10
135.157
 20
54.7176
 30
0.0
 11
121.157
 21
54.7176
 31
0.0
  0
LINE
  8
0
 62
     0
 10
140.207
 20
54.7176
 30
0.0
 11
140.207
 21
53.7175
 31
0.0
  0
LINE
  8
0
 62
     0
 10
140.207
 20
53.7175
 30
0.0
 11
139.406
 21
53.7175
 31
0.0
  0
LINE
  8
0
 62
     0
 10
139.406
 20
53.7175
 30
0.0
 11
139.406
 21
50.618
 31
0.0
  0
LINE
  8
0
 62
     0
 10
139.406
 20
50.618
 30
0.0
 11
140.207
 21
50.618
 31
0.0
  0
LINE
  8
0
 62
     0
 10
140.207
 20
50.618
 30
0.0
 11
140.207
 21
44.8179
 31
0.0
  0
LINE
  8
0
 62
     0
 10
140.207
 20
44.8179
 30
0.0
 11
139.406
 21
44.8179
 31
0.0
  0
LINE
  8
0
 62
     0
 10
139.406
 20
44.8179
 30
0.0
 11
139.406
 21
41.7174
 31
0.0
  0
LINE
  8
0
 62
     0
 10
139.406
 20
41.7174
 30
0.0
 11
140.207
 21
41.7174
 31
0.0
  0
LINE
  8
0
 62
     0
 10
140.207
 20
41.7174
 30
0.0
 11
140.207
 21
40.7183
 31
0.0
  0
LINE
  8
0
 62
     0
 10
140.207
 20
40.7183
 30
0.0
 11
154.207
 21
40.7183
 31
0.0
  0
LINE
  8
0
 62
     0
 10
154.207
 20
40.7183
 30
0.0
 11
154.207
 21
41.7174
 31
0.0
  0
LINE
  8
0
 62
     0
 10
154.207
 20
41.7174
 30
0.0
 11
155.007
 21
41.7174
 31
0.0
  0
LINE
  8
0
 62
     0
 10
155.007
 20
41.7174
 30
0.0
 11
155.007
 21
44.8179
 31
0.0
  0
LINE
  8
0
 62
     0
 10
155.007
 20
44.8179
 30
0.0
 11
154.207
 21
44.8179
 31
0.0
  0
LINE
  8
0
 62
     0
 10
154.207
 20
44.8179
 30
0.0
 11
154.207
 21
50.618
 31
0.0
  0
LINE
  8
0
 62
     0
 10
154.207
 20
50.618
 30
0.0
 11
155.007
 21
50.618
 31
0.0
  0
LINE
  8
0
 62
     0
 10
155.007
 20
50.618
 30
0.0
 11
155.007
 21
53.7175
 31
0.0
  0
LINE
  8
0
 62
     0
 10
155.007
 20
53.7175
 30
0.0
 11
154.207
 21
53.7175
 31
0.0
  0
LINE
  8
0
 62
     0
 10
154.207
 20
53.7175
 30
0.0
 11
154.207
 21
54.7176
 31
0.0
  0
LINE
  8
0
 62
     0
 10
154.207
 20
54.7176
 30
0.0
 11
140.207
 21
54.7176
 31
0.0
  0
LINE
  8
0
 62
     0
 10
159.257
 20
54.7176
 30
0.0
 11
159.257
 21
53.7175
 31
0.0
  0
LINE
  8
0
 62
     0
 10
159.257
 20
53.7175
 30
0.0
 11
158.456
 21
53.7175
 31
0.0
  0
LINE
  8
0
 62
     0
 10
158.456
 20
53.7175
 30
0.0
 11
158.456
 21
50.618
 31
0.0
  0
LINE
  8
0
 62
     0
 10
158.456
 20
50.618
 30
0.0
 11
159.257
 21
50.618
 31
0.0
  0
LINE
  8
0
 62
     0
 10
159.257
 20
50.618
 30
0.0
 11
159.257
 21
44.8179
 31
0.0
  0
LINE
  8
0
 62
     0
 10
159.257
 20
44.8179
 30
0.0
 11
158.456
 21
44.8179
 31
0.0
  0
LINE
  8
0
 62
     0
 10
158.456
 20
44.8179
 30
0.0
 11
158.456
 21
41.7174
 31
0.0
  0
LINE
  8
0
 62
     0
 10
158.456
 20
41.7174
 30
0.0
 11
159.257
 21
41.7174
 31
0.0
  0
LINE
  8
0
 62
     0
 10
159.257
 20
41.7174
 30
0.0
 11
159.257
 21
40.7183
 31
0.0
  0
LINE
  8
0
 62
     0
 10
159.257
 20
40.7183
 30
0.0
 11
173.257
 21
40.7183
 31
0.0
  0
LINE
  8
0
 62
     0
 10
173.257
 20
40.7183
 30
0.0
 11
173.257
 21
41.7174
 31
0.0
  0
LINE
  8
0
 62
     0
 10
173.257
 20
41.7174
 30
0.0
 11
174.057
 21
41.7174
 31
0.0
  0
LINE
  8
0
 62
     0
 10
174.057
 20
41.7174
 30
0.0
 11
174.057
 21
44.8179
 31
0.0
  0
LINE
  8
0
 62
     0
 10
174.057
 20
44.8179
 30
0.0
 11
173.257
 21
44.8179
 31
0.0
  0
LINE
  8
0
 62
     0
 10
173.257
 20
44.8179
 30
0.0
 11
173.257
 21
50.618
 31
0.0
  0
LINE
  8
0
 62
     0
 10
173.257
 20
50.618
 30
0.0
 11
174.057
 21
50.618
 31
0.0
  0
LINE
  8
0
 62
     0
 10
174.057
 20
50.618
 30
0.0
 11
174.057
 21
53.7175
 31
0.0
  0
LINE
  8
0
 62
     0
 10
174.057
 20
53.7175
 30
0.0
 11
173.257
 21
53.7175
 31
0.0
  0
LINE
  8
0
 62
     0
 10
173.257
 20
53.7175
 30
0.0
 11
173.257
 21
54.7176
 31
0.0
  0
LINE
  8
0
 62
     0
 10
173.257
 20
54.7176
 30
0.0
 11
159.257
 21
54.7176
 31
0.0
  0
LINE
  8
0
 62
     0
 10
178.307
 20
54.7176
 30
0.0
 11
178.307
 21
53.7175
 31
0.0
  0
LINE
  8
0
 62
     0
 10
178.307
 20
53.7175
 30
0.0
 11
177.506
 21
53.7175
 31
0.0
  0
LINE
  8
0
 62
     0
 10
177.506
 20
53.7175
 30
0.0
 11
177.506
 21
50.618
 31
0.0
  0
LINE
  8
0
 62
     0
 10
177.506
 20
50.618
 30
0.0
 11
178.307
 21
50.618
 31
0.0
  0
LINE
  8
0
 62
     0
 10
178.307
 20
50.618
 30
0.0
 11
178.307
 21
44.8179
 31
0.0
  0
LINE
  8
0
 62
     0
 10
178.307
 20
44.8179
 30
0.0
 11
177.506
 21
44.8179
 31
0.0
  0
LINE
  8
0
 62
     0
 10
177.506
 20
44.8179
 30
0.0
 11
177.506
 21
41.7174
 31
0.0
  0
LINE
  8
0
 62
     0
 10
177.506
 20
41.7174
 30
0.0
 11
178.307
 21
41.7174
 31
0.0
  0
LINE
  8
0
 62
     0
 10
178.307
 20
41.7174
 30
0.0
 11
178.307
 21
40.7183
 31
0.0
  0
LINE
  8
0
 62
     0
 10
178.307
 20
40.7183
 30
0.0
 11
192.307
 21
40.7183
 31
0.0
  0
LINE
  8
0
 62
     0
 10
192.307
 20
40.7183
 30
0.0
 11
192.307
 21
41.7174
 31
0.0
  0
LINE
  8
0
 62
     0
 10
192.307
 20
41.7174
 30
0.0
 11
193.107
 21
41.7174
 31
0.0
  0
LINE
  8
0
 62
     0
 10
193.107
 20
41.7174
 30
0.0
 11
193.107
 21
44.8179
 31
0.0
  0
LINE
  8
0
 62
     0
 10
193.107
 20
44.8179
 30
0.0
 11
192.307
 21
44.8179
 31
0.0
  0
LINE
  8
0
 62
     0
 10
192.307
 20
44.8179
 30
0.0
 11
192.307
 21
50.618
 31
0.0
  0
LINE
  8
0
 62
     0
 10
192.307
 20
50.618
 30
0.0
 11
193.107
 21
50.618
 31
0.0
  0
LINE
  8
0
 62
     0
 10
193.107
 20
50.618
 30
0.0
 11
193.107
 21
53.7175
 31
0.0
  0
LINE
  8
0
 62
     0
 10
193.107
 20
53.7175
 30
0.0
 11
192.307
 21
53.7175
 31
0.0
  0
LINE
  8
0
 62
     0
 10
192.307
 20
53.7175
 30
0.0
 11
192.307
 21
54.7176
 31
0.0
  0
LINE
  8
0
 62
     0
 10
192.307
 20
54.7176
 30
0.0
 11
178.307
 21
54.7176
 31
0.0
  0
LINE
  8
0
 62
     0
 10
197.357
 20
54.7176
 30
0.0
 11
197.357
 21
53.7175
 31
0.0
  0
LINE
  8
0
 62
     0
 10
197.357
 20
53.7175
 30
0.0
 11
196.557
 21
53.7175
 31
0.0
  0
LINE
  8
0
 62
     0
 10
196.557
 20
53.7175
 30
0.0
 11
196.557
 21
50.618
 31
0.0
  0
LINE
  8
0
 62
     0
 10
196.557
 20
50.618
 30
0.0
 11
197.357
 21
50.618
 31
0.0
  0
LINE
  8
0
 62
     0
 10
197.357
 20
50.618
 30
0.0
 11
197.357
 21
44.8179
 31
0.0
  0
LINE
  8
0
 62
     0
 10
197.357
 20
44.8179
 30
0.0
 11
196.557
 21
44.8179
 31
0.0
  0
LINE
  8
0
 62
     0
 10
196.557
 20
44.8179
 30
0.0
 11
196.557
 21
41.7174
 31
0.0
  0
LINE
  8
0
 62
     0
 10
196.557
 20
41.7174
 30
0.0
 11
197.357
 21
41.7174
 31
0.0
  0
LINE
  8
0
 62
     0
 10
197.357
 20
41.7174
 30
0.0
 11
197.357
 21
40.7183
 31
0.0
  0
LINE
  8
0
 62
     0
 10
197.357
 20
40.7183
 30
0.0
 11
211.357
 21
40.7183
 31
0.0
  0
LINE
  8
0
 62
     0
 10
211.357
 20
40.7183
 30
0.0
 11
211.357
 21
41.7174
 31
0.0
  0
LINE
  8
0
 62
     0
 10
211.357
 20
41.7174
 30
0.0
 11
212.157
 21
41.7174
 31
0.0
  0
LINE
  8
0
 62
     0
 10
212.157
 20
41.7174
 30
0.0
 11
212.157
 21
44.8179
 31
0.0
  0
LINE
  8
0
 62
     0
 10
212.157
 20
44.8179
 30
0.0
 11
211.357
 21
44.8179
 31
0.0
  0
LINE
  8
0
 62
     0
 10
211.357
 20
44.8179
 30
0.0
 11
211.357
 21
50.618
 31
0.0
  0
LINE
  8
0
 62
     0
 10
211.357
 20
50.618
 30
0.0
 11
212.157
 21
50.618
 31
0.0
  0
LINE
  8
0
 62
     0
 10
212.157
 20
50.618
 30
0.0
 11
212.157
 21
53.7175
 31
0.0
  0
LINE
  8
0
 62
     0
 10
212.157
 20
53.7175
 30
0.0
 11
211.357
 21
53.7175
 31
0.0
  0
LINE
  8
0
 62
     0
 10
211.357
 20
53.7175
 30
0.0
 11
211.357
 21
54.7176
 31
0.0
  0
LINE
  8
0
 62
     0
 10
211.357
 20
54.7176
 30
0.0
 11
197.357
 21
54.7176
 31
0.0
  0
LINE
  8
0
 62
     0
 10
216.407
 20
54.7176
 30
0.0
 11
216.407
 21
53.7175
 31
0.0
  0
LINE
  8
0
 62
     0
 10
216.407
 20
53.7175
 30
0.0
 11
215.607
 21
53.7175
 31
0.0
  0
LINE
  8
0
 62
     0
 10
215.607
 20
53.7175
 30
0.0
 11
215.607
 21
50.618
 31
0.0
  0
LINE
  8
0
 62
     0
 10
215.607
 20
50.618
 30
0.0
 11
216.407
 21
50.618
 31
0.0
  0
LINE
  8
0
 62
     0
 10
216.407
 20
50.618
 30
0.0
 11
216.407
 21
44.8179
 31
0.0
  0
LINE
  8
0
 62
     0
 10
216.407
 20
44.8179
 30
0.0
 11
215.607
 21
44.8179
 31
0.0
  0
LINE
  8
0
 62
     0
 10
215.607
 20
44.8179
 30
0.0
 11
215.607
 21
41.7174
 31
0.0
  0
LINE
  8
0
 62
     0
 10
215.607
 20
41.7174
 30
0.0
 11
216.407
 21
41.7174
 31
0.0
  0
LINE
  8
0
 62
     0
 10
216.407
 20
41.7174
 30
0.0
 11
216.407
 21
40.7183
 31
0.0
  0
LINE
  8
0
 62
     0
 10
216.407
 20
40.7183
 30
0.0
 11
230.407
 21
40.7183
 31
0.0
  0
LINE
  8
0
 62
     0
 10
230.407
 20
40.7183
 30
0.0
 11
230.407
 21
41.7174
 31
0.0
  0
LINE
  8
0
 62
     0
 10
230.407
 20
41.7174
 30
0.0
 11
231.207
 21
41.7174
 31
0.0
  0
LINE
  8
0
 62
     0
 10
231.207
 20
41.7174
 30
0.0
 11
231.207
 21
44.8179
 31
0.0
  0
LINE
  8
0
 62
     0
 10
231.207
 20
44.8179
 30
0.0
 11
230.407
 21
44.8179
 31
0.0
  0
LINE
  8
0
 62
     0
 10
230.407
 20
44.8179
 30
0.0
 11
230.407
 21
50.618
 31
0.0
  0
LINE
  8
0
 62
     0
 10
230.407
 20
50.618
 30
0.0
 11
231.207
 21
50.618
 31
0.0
  0
LINE
  8
0
 62
     0
 10
231.207
 20
50.618
 30
0.0
 11
231.207
 21
53.7175
 31
0.0
  0
LINE
  8
0
 62
     0
 10
231.207
 20
53.7175
 30
0.0
 11
230.407
 21
53.7175
 31
0.0
  0
LINE
  8
0
 62
     0
 10
230.407
 20
53.7175
 30
0.0
 11
230.407
 21
54.7176
 31
0.0
  0
LINE
  8
0
 62
     0
 10
230.407
 20
54.7176
 30
0.0
 11
216.407
 21
54.7176
 31
0.0
  0
LINE
  8
0
 62
     0
 10
235.457
 20
54.7176
 30
0.0
 11
235.457
 21
53.7175
 31
0.0
  0
LINE
  8
0
 62
     0
 10
235.457
 20
53.7175
 30
0.0
 11
234.657
 21
53.7175
 31
0.0
  0
LINE
  8
0
 62
     0
 10
234.657
 20
53.7175
 30
0.0
 11
234.657
 21
50.618
 31
0.0
  0
LINE
  8
0
 62
     0
 10
234.657
 20
50.618
 30
0.0
 11
235.457
 21
50.618
 31
0.0
  0
LINE
  8
0
 62
     0
 10
235.457
 20
50.618
 30
0.0
 11
235.457
 21
44.8179
 31
0.0
  0
LINE
  8
0
 62
     0
 10
235.457
 20
44.8179
 30
0.0
 11
234.657
 21
44.8179
 31
0.0
  0
LINE
  8
0
 62
     0
 10
234.657
 20
44.8179
 30
0.0
 11
234.657
 21
41.7174
 31
0.0
  0
LINE
  8
0
 62
     0
 10
234.657
 20
41.7174
 30
0.0
 11
235.457
 21
41.7174
 31
0.0
  0
LINE
  8
0
 62
     0
 10
235.457
 20
41.7174
 30
0.0
 11
235.457
 21
40.7183
 31
0.0
  0
LINE
  8
0
 62
     0
 10
235.457
 20
40.7183
 30
0.0
 11
249.457
 21
40.7183
 31
0.0
  0
LINE
  8
0
 62
     0
 10
249.457
 20
40.7183
 30
0.0
 11
249.457
 21
41.7174
 31
0.0
  0
LINE
  8
0
 62
     0
 10
249.457
 20
41.7174
 30
0.0
 11
250.257
 21
41.7174
 31
0.0
  0
LINE
  8
0
 62
     0
 10
250.257
 20
41.7174
 30
0.0
 11
250.257
 21
44.8179
 31
0.0
  0
LINE
  8
0
 62
     0
 10
250.257
 20
44.8179
 30
0.0
 11
249.457
 21
44.8179
 31
0.0
  0
LINE
  8
0
 62
     0
 10
249.457
 20
44.8179
 30
0.0
 11
249.457
 21
50.618
 31
0.0
  0
LINE
  8
0
 62
     0
 10
249.457
 20
50.618
 30
0.0
 11
250.257
 21
50.618
 31
0.0
  0
LINE
  8
0
 62
     0
 10
250.257
 20
50.618
 30
0.0
 11
250.257
 21
53.7175
 31
0.0
  0
LINE
  8
0
 62
     0
 10
250.257
 20
53.7175
 30
0.0
 11
249.457
 21
53.7175
 31
0.0
  0
LINE
  8
0
 62
     0
 10
249.457
 20
53.7175
 30
0.0
 11
249.457
 21
54.7176
 31
0.0
  0
LINE
  8
0
 62
     0
 10
249.457
 20
54.7176
 30
0.0
 11
235.457
 21
54.7176
 31
0.0
  0
LINE
  8
0
 62
     0
 10
256.889
 20
54.7176
 30
0.0
 11
256.889
 21
53.7175
 31
0.0
  0
LINE
  8
0
 62
     0
 10
256.889
 20
53.7175
 30
0.0
 11
256.088
 21
53.7175
 31
0.0
  0
LINE
  8
0
 62
     0
 10
256.088
 20
53.7175
 30
0.0
 11
256.088
 21
50.618
 31
0.0
  0
LINE
  8
0
 62
     0
 10
256.088
 20
50.618
 30
0.0
 11
256.889
 21
50.618
 31
0.0
  0
LINE
  8
0
 62
     0
 10
256.889
 20
50.618
 30
0.0
 11
256.889
 21
44.8179
 31
0.0
  0
LINE
  8
0
 62
     0
 10
256.889
 20
44.8179
 30
0.0
 11
256.088
 21
44.8179
 31
0.0
  0
LINE
  8
0
 62
     0
 10
256.088
 20
44.8179
 30
0.0
 11
256.088
 21
41.7174
 31
0.0
  0
LINE
  8
0
 62
     0
 10
256.088
 20
41.7174
 30
0.0
 11
256.889
 21
41.7174
 31
0.0
  0
LINE
  8
0
 62
     0
 10
256.889
 20
41.7174
 30
0.0
 11
256.889
 21
40.7183
 31
0.0
  0
LINE
  8
0
 62
     0
 10
256.889
 20
40.7183
 30
0.0
 11
270.888
 21
40.7183
 31
0.0
  0
LINE
  8
0
 62
     0
 10
270.888
 20
40.7183
 30
0.0
 11
270.888
 21
41.7174
 31
0.0
  0
LINE
  8
0
 62
     0
 10
270.888
 20
41.7174
 30
0.0
 11
271.687
 21
41.7174
 31
0.0
  0
LINE
  8
0
 62
     0
 10
271.687
 20
41.7174
 30
0.0
 11
271.687
 21
44.8179
 31
0.0
  0
LINE
  8
0
 62
     0
 10
271.687
 20
44.8179
 30
0.0
 11
270.888
 21
44.8179
 31
0.0
  0
LINE
  8
0
 62
     0
 10
270.888
 20
44.8179
 30
0.0
 11
270.888
 21
50.618
 31
0.0
  0
LINE
  8
0
 62
     0
 10
270.888
 20
50.618
 30
0.0
 11
271.687
 21
50.618
 31
0.0
  0
LINE
  8
0
 62
     0
 10
271.687
 20
50.618
 30
0.0
 11
271.687
 21
53.7175
 31
0.0
  0
LINE
  8
0
 62
     0
 10
271.687
 20
53.7175
 30
0.0
 11
270.888
 21
53.7175
 31
0.0
  0
LINE
  8
0
 62
     0
 10
270.888
 20
53.7175
 30
0.0
 11
270.888
 21
54.7176
 31
0.0
  0
LINE
  8
0
 62
     0
 10
270.888
 20
54.7176
 30
0.0
 11
256.889
 21
54.7176
 31
0.0
  0
LINE
  8
0
 62
     0
 10
278.32
 20
54.7176
 30
0.0
 11
278.32
 21
53.7175
 31
0.0
  0
LINE
  8
0
 62
     0
 10
278.32
 20
53.7175
 30
0.0
 11
277.52
 21
53.7175
 31
0.0
  0
LINE
  8
0
 62
     0
 10
277.52
 20
53.7175
 30
0.0
 11
277.52
 21
50.618
 31
0.0
  0
LINE
  8
0
 62
     0
 10
277.52
 20
50.618
 30
0.0
 11
278.32
 21
50.618
 31
0.0
  0
LINE
  8
0
 62
     0
 10
278.32
 20
50.618
 30
0.0
 11
278.32
 21
44.8179
 31
0.0
  0
LINE
  8
0
 62
     0
 10
278.32
 20
44.8179
 30
0.0
 11
277.52
 21
44.8179
 31
0.0
  0
LINE
  8
0
 62
     0
 10
277.52
 20
44.8179
 30
0.0
 11
277.52
 21
41.7174
 31
0.0
  0
LINE
  8
0
 62
     0
 10
277.52
 20
41.7174
 30
0.0
 11
278.32
 21
41.7174
 31
0.0
  0
LINE
  8
0
 62
     0
 10
278.32
 20
41.7174
 30
0.0
 11
278.32
 21
40.7183
 31
0.0
  0
LINE
  8
0
 62
     0
 10
278.32
 20
40.7183
 30
0.0
 11
292.319
 21
40.7183
 31
0.0
  0
LINE
  8
0
 62
     0
 10
292.319
 20
40.7183
 30
0.0
 11
292.319
 21
41.7174
 31
0.0
  0
LINE
  8
0
 62
     0
 10
292.319
 20
41.7174
 30
0.0
 11
293.12
 21
41.7174
 31
0.0
  0
LINE
  8
0
 62
     0
 10
293.12
 20
41.7174
 30
0.0
 11
293.12
 21
44.8179
 31
0.0
  0
LINE
  8
0
 62
     0
 10
293.12
 20
44.8179
 30
0.0
 11
292.319
 21
44.8179
 31
0.0
  0
LINE
  8
0
 62
     0
 10
292.319
 20
44.8179
 30
0.0
 11
292.319
 21
50.618
 31
0.0
  0
LINE
  8
0
 62
     0
 10
292.319
 20
50.618
 30
0.0
 11
293.12
 21
50.618
 31
0.0
  0
LINE
  8
0
 62
     0
 10
293.12
 20
50.618
 30
0.0
 11
293.12
 21
53.7175
 31
0.0
  0
LINE
  8
0
 62
     0
 10
293.12
 20
53.7175
 30
0.0
 11
292.319
 21
53.7175
 31
0.0
  0
LINE
  8
0
 62
     0
 10
292.319
 20
53.7175
 30
0.0
 11
292.319
 21
54.7176
 31
0.0
  0
LINE
  8
0
 62
     0
 10
292.319
 20
54.7176
 30
0.0
 11
278.32
 21
54.7176
 31
0.0
  0
LINE
  8
0
 62
     0
 10
16.3821
 20
73.7676
 30
0.0
 11
16.3821
 21
72.7675
 31
0.0
  0
LINE
  8
0
 62
     0
 10
16.3821
 20
72.7675
 30
0.0
 11
15.5815
 21
72.7675
 31
0.0
  0
LINE
  8
0
 62
     0
 10
15.5815
 20
72.7675
 30
0.0
 11
15.5815
 21
69.668
 31
0.0
  0
LINE
  8
0
 62
     0
 10
15.5815
 20
69.668
 30
0.0
 11
16.3821
 21
69.668
 31
0.0
  0
LINE
  8
0
 62
     0
 10
16.3821
 20
69.668
 30
0.0
 11
16.3821
 21
63.8679
 31
0.0
  0
LINE
  8
0
 62
     0
 10
16.3821
 20
63.8679
 30
0.0
 11
15.5815
 21
63.8679
 31
0.0
  0
LINE
  8
0
 62
     0
 10
15.5815
 20
63.8679
 30
0.0
 11
15.5815
 21
60.7674
 31
0.0
  0
LINE
  8
0
 62
     0
 10
15.5815
 20
60.7674
 30
0.0
 11
16.3821
 21
60.7674
 31
0.0
  0
LINE
  8
0
 62
     0
 10
16.3821
 20
60.7674
 30
0.0
 11
16.3821
 21
59.7683
 31
0.0
  0
LINE
  8
0
 62
     0
 10
16.3821
 20
59.7683
 30
0.0
 11
30.3816
 21
59.7683
 31
0.0
  0
LINE
  8
0
 62
     0
 10
30.3816
 20
59.7683
 30
0.0
 11
30.3816
 21
60.7674
 31
0.0
  0
LINE
  8
0
 62
     0
 10
30.3816
 20
60.7674
 30
0.0
 11
31.1822
 21
60.7674
 31
0.0
  0
LINE
  8
0
 62
     0
 10
31.1822
 20
60.7674
 30
0.0
 11
31.1822
 21
63.8679
 31
0.0
  0
LINE
  8
0
 62
     0
 10
31.1822
 20
63.8679
 30
0.0
 11
30.3816
 21
63.8679
 31
0.0
  0
LINE
  8
0
 62
     0
 10
30.3816
 20
63.8679
 30
0.0
 11
30.3816
 21
69.668
 31
0.0
  0
LINE
  8
0
 62
     0
 10
30.3816
 20
69.668
 30
0.0
 11
31.1822
 21
69.668
 31
0.0
  0
LINE
  8
0
 62
     0
 10
31.1822
 20
69.668
 30
0.0
 11
31.1822
 21
72.7675
 31
0.0
  0
LINE
  8
0
 62
     0
 10
31.1822
 20
72.7675
 30
0.0
 11
30.3816
 21
72.7675
 31
0.0
  0
LINE
  8
0
 62
     0
 10
30.3816
 20
72.7675
 30
0.0
 11
30.3816
 21
73.7676
 31
0.0
  0
LINE
  8
0
 62
     0
 10
30.3816
 20
73.7676
 30
0.0
 11
16.3821
 21
73.7676
 31
0.0
  0
LINE
  8
0
 62
     0
 10
40.1948
 20
73.7676
 30
0.0
 11
40.1948
 21
72.7675
 31
0.0
  0
LINE
  8
0
 62
     0
 10
40.1948
 20
72.7675
 30
0.0
 11
39.3954
 21
72.7675
 31
0.0
  0
LINE
  8
0
 62
     0
 10
39.3954
 20
72.7675
 30
0.0
 11
39.3954
 21
69.668
 31
0.0
  0
LINE
  8
0
 62
     0
 10
39.3954
 20
69.668
 30
0.0
 11
40.1948
 21
69.668
 31
0.0
  0
LINE
  8
0
 62
     0
 10
40.1948
 20
69.668
 30
0.0
 11
40.1948
 21
63.8679
 31
0.0
  0
LINE
  8
0
 62
     0
 10
40.1948
 20
63.8679
 30
0.0
 11
39.3954
 21
63.8679
 31
0.0
  0
LINE
  8
0
 62
     0
 10
39.3954
 20
63.8679
 30
0.0
 11
39.3954
 21
60.7674
 31
0.0
  0
LINE
  8
0
 62
     0
 10
39.3954
 20
60.7674
 30
0.0
 11
40.1948
 21
60.7674
 31
0.0
  0
LINE
  8
0
 62
     0
 10
40.1948
 20
60.7674
 30
0.0
 11
40.1948
 21
59.7683
 31
0.0
  0
LINE
  8
0
 62
     0
 10
40.1948
 20
59.7683
 30
0.0
 11
54.1941
 21
59.7683
 31
0.0
  0
LINE
  8
0
 62
     0
 10
54.1941
 20
59.7683
 30
0.0
 11
54.1941
 21
60.7674
 31
0.0
  0
LINE
  8
0
 62
     0
 10
54.1941
 20
60.7674
 30
0.0
 11
54.9949
 21
60.7674
 31
0.0
  0
LINE
  8
0
 62
     0
 10
54.9949
 20
60.7674
 30
0.0
 11
54.9949
 21
63.8679
 31
0.0
  0
LINE
  8
0
 62
     0
 10
54.9949
 20
63.8679
 30
0.0
 11
54.1941
 21
63.8679
 31
0.0
  0
LINE
  8
0
 62
     0
 10
54.1941
 20
63.8679
 30
0.0
 11
54.1941
 21
69.668
 31
0.0
  0
LINE
  8
0
 62
     0
 10
54.1941
 20
69.668
 30
0.0
 11
54.9949
 21
69.668
 31
0.0
  0
LINE
  8
0
 62
     0
 10
54.9949
 20
69.668
 30
0.0
 11
54.9949
 21
72.7675
 31
0.0
  0
LINE
  8
0
 62
     0
 10
54.9949
 20
72.7675
 30
0.0
 11
54.1941
 21
72.7675
 31
0.0
  0
LINE
  8
0
 62
     0
 10
54.1941
 20
72.7675
 30
0.0
 11
54.1941
 21
73.7676
 31
0.0
  0
LINE
  8
0
 62
     0
 10
54.1941
 20
73.7676
 30
0.0
 11
40.1948
 21
73.7676
 31
0.0
  0
LINE
  8
0
 62
     0
 10
59.2448
 20
73.7676
 30
0.0
 11
59.2448
 21
72.7675
 31
0.0
  0
LINE
  8
0
 62
     0
 10
59.2448
 20
72.7675
 30
0.0
 11
58.4454
 21
72.7675
 31
0.0
  0
LINE
  8
0
 62
     0
 10
58.4454
 20
72.7675
 30
0.0
 11
58.4454
 21
69.668
 31
0.0
  0
LINE
  8
0
 62
     0
 10
58.4454
 20
69.668
 30
0.0
 11
59.2448
 21
69.668
 31
0.0
  0
LINE
  8
0
 62
     0
 10
59.2448
 20
69.668
 30
0.0
 11
59.2448
 21
63.8679
 31
0.0
  0
LINE
  8
0
 62
     0
 10
59.2448
 20
63.8679
 30
0.0
 11
58.4454
 21
63.8679
 31
0.0
  0
LINE
  8
0
 62
     0
 10
58.4454
 20
63.8679
 30
0.0
 11
58.4454
 21
60.7674
 31
0.0
  0
LINE
  8
0
 62
     0
 10
58.4454
 20
60.7674
 30
0.0
 11
59.2448
 21
60.7674
 31
0.0
  0
LINE
  8
0
 62
     0
 10
59.2448
 20
60.7674
 30
0.0
 11
59.2448
 21
59.7683
 31
0.0
  0
LINE
  8
0
 62
     0
 10
59.2448
 20
59.7683
 30
0.0
 11
73.2441
 21
59.7683
 31
0.0
  0
LINE
  8
0
 62
     0
 10
73.2441
 20
59.7683
 30
0.0
 11
73.2441
 21
60.7674
 31
0.0
  0
LINE
  8
0
 62
     0
 10
73.2441
 20
60.7674
 30
0.0
 11
74.0449
 21
60.7674
 31
0.0
  0
LINE
  8
0
 62
     0
 10
74.0449
 20
60.7674
 30
0.0
 11
74.0449
 21
63.8679
 31
0.0
  0
LINE
  8
0
 62
     0
 10
74.0449
 20
63.8679
 30
0.0
 11
73.2441
 21
63.8679
 31
0.0
  0
LINE
  8
0
 62
     0
 10
73.2441
 20
63.8679
 30
0.0
 11
73.2441
 21
69.668
 31
0.0
  0
LINE
  8
0
 62
     0
 10
73.2441
 20
69.668
 30
0.0
 11
74.0449
 21
69.668
 31
0.0
  0
LINE
  8
0
 62
     0
 10
74.0449
 20
69.668
 30
0.0
 11
74.0449
 21
72.7675
 31
0.0
  0
LINE
  8
0
 62
     0
 10
74.0449
 20
72.7675
 30
0.0
 11
73.2441
 21
72.7675
 31
0.0
  0
LINE
  8
0
 62
     0
 10
73.2441
 20
72.7675
 30
0.0
 11
73.2441
 21
73.7676
 31
0.0
  0
LINE
  8
0
 62
     0
 10
73.2441
 20
73.7676
 30
0.0
 11
59.2448
 21
73.7676
 31
0.0
  0
LINE
  8
0
 62
     0
 10
78.2948
 20
73.7676
 30
0.0
 11
78.2948
 21
72.7675
 31
0.0
  0
LINE
  8
0
 62
     0
 10
78.2948
 20
72.7675
 30
0.0
 11
77.4954
 21
72.7675
 31
0.0
  0
LINE
  8
0
 62
     0
 10
77.4954
 20
72.7675
 30
0.0
 11
77.4954
 21
69.668
 31
0.0
  0
LINE
  8
0
 62
     0
 10
77.4954
 20
69.668
 30
0.0
 11
78.2948
 21
69.668
 31
0.0
  0
LINE
  8
0
 62
     0
 10
78.2948
 20
69.668
 30
0.0
 11
78.2948
 21
63.8679
 31
0.0
  0
LINE
  8
0
 62
     0
 10
78.2948
 20
63.8679
 30
0.0
 11
77.4954
 21
63.8679
 31
0.0
  0
LINE
  8
0
 62
     0
 10
77.4954
 20
63.8679
 30
0.0
 11
77.4954
 21
60.7674
 31
0.0
  0
LINE
  8
0
 62
     0
 10
77.4954
 20
60.7674
 30
0.0
 11
78.2948
 21
60.7674
 31
0.0
  0
LINE
  8
0
 62
     0
 10
78.2948
 20
60.7674
 30
0.0
 11
78.2948
 21
59.7683
 31
0.0
  0
LINE
  8
0
 62
     0
 10
78.2948
 20
59.7683
 30
0.0
 11
92.2941
 21
59.7683
 31
0.0
  0
LINE
  8
0
 62
     0
 10
92.2941
 20
59.7683
 30
0.0
 11
92.2941
 21
60.7674
 31
0.0
  0
LINE
  8
0
 62
     0
 10
92.2941
 20
60.7674
 30
0.0
 11
93.0949
 21
60.7674
 31
0.0
  0
LINE
  8
0
 62
     0
 10
93.0949
 20
60.7674
 30
0.0
 11
93.0949
 21
63.8679
 31
0.0
  0
LINE
  8
0
 62
     0
 10
93.0949
 20
63.8679
 30
0.0
 11
92.2941
 21
63.8679
 31
0.0
  0
LINE
  8
0
 62
     0
 10
92.2941
 20
63.8679
 30
0.0
 11
92.2941
 21
69.668
 31
0.0
  0
LINE
  8
0
 62
     0
 10
92.2941
 20
69.668
 30
0.0
 11
93.0949
 21
69.668
 31
0.0
  0
LINE
  8
0
 62
     0
 10
93.0949
 20
69.668
 30
0.0
 11
93.0949
 21
72.7675
 31
0.0
  0
LINE
  8
0
 62
     0
 10
93.0949
 20
72.7675
 30
0.0
 11
92.2941
 21
72.7675
 31
0.0
  0
LINE
  8
0
 62
     0
 10
92.2941
 20
72.7675
 30
0.0
 11
92.2941
 21
73.7676
 31
0.0
  0
LINE
  8
0
 62
     0
 10
92.2941
 20
73.7676
 30
0.0
 11
78.2948
 21
73.7676
 31
0.0
  0
LINE
  8
0
 62
     0
 10
97.3448
 20
73.7676
 30
0.0
 11
97.3448
 21
72.7675
 31
0.0
  0
LINE
  8
0
 62
     0
 10
97.3448
 20
72.7675
 30
0.0
 11
96.5454
 21
72.7675
 31
0.0
  0
LINE
  8
0
 62
     0
 10
96.5454
 20
72.7675
 30
0.0
 11
96.5454
 21
69.668
 31
0.0
  0
LINE
  8
0
 62
     0
 10
96.5454
 20
69.668
 30
0.0
 11
97.3448
 21
69.668
 31
0.0
  0
LINE
  8
0
 62
     0
 10
97.3448
 20
69.668
 30
0.0
 11
97.3448
 21
63.8679
 31
0.0
  0
LINE
  8
0
 62
     0
 10
97.3448
 20
63.8679
 30
0.0
 11
96.5454
 21
63.8679
 31
0.0
  0
LINE
  8
0
 62
     0
 10
96.5454
 20
63.8679
 30
0.0
 11
96.5454
 21
60.7674
 31
0.0
  0
LINE
  8
0
 62
     0
 10
96.5454
 20
60.7674
 30
0.0
 11
97.3448
 21
60.7674
 31
0.0
  0
LINE
  8
0
 62
     0
 10
97.3448
 20
60.7674
 30
0.0
 11
97.3448
 21
59.7683
 31
0.0
  0
LINE
  8
0
 62
     0
 10
97.3448
 20
59.7683
 30
0.0
 11
111.344
 21
59.7683
 31
0.0
  0
LINE
  8
0
 62
     0
 10
111.344
 20
59.7683
 30
0.0
 11
111.344
 21
60.7674
 31
0.0
  0
LINE
  8
0
 62
     0
 10
111.344
 20
60.7674
 30
0.0
 11
112.145
 21
60.7674
 31
0.0
  0
LINE
  8
0
 62
     0
 10
112.145
 20
60.7674
 30
0.0
 11
112.145
 21
63.8679
 31
0.0
  0
LINE
  8
0
 62
     0
 10
112.145
 20
63.8679
 30
0.0
 11
111.344
 21
63.8679
 31
0.0
  0
LINE
  8
0
 62
     0
 10
111.344
 20
63.8679
 30
0.0
 11
111.344
 21
69.668
 31
0.0
  0
LINE
  8
0
 62
     0
 10
111.344
 20
69.668
 30
0.0
 11
112.145
 21
69.668
 31
0.0
  0
LINE
  8
0
 62
     0
 10
112.145
 20
69.668
 30
0.0
 11
112.145
 21
72.7675
 31
0.0
  0
LINE
  8
0
 62
     0
 10
112.145
 20
72.7675
 30
0.0
 11
111.344
 21
72.7675
 31
0.0
  0
LINE
  8
0
 62
     0
 10
111.344
 20
72.7675
 30
0.0
 11
111.344
 21
73.7676
 31
0.0
  0
LINE
  8
0
 62
     0
 10
111.344
 20
73.7676
 30
0.0
 11
97.3448
 21
73.7676
 31
0.0
  0
LINE
  8
0
 62
     0
 10
116.395
 20
73.7676
 30
0.0
 11
116.395
 21
72.7675
 31
0.0
  0
LINE
  8
0
 62
     0
 10
116.395
 20
72.7675
 30
0.0
 11
115.595
 21
72.7675
 31
0.0
  0
LINE
  8
0
 62
     0
 10
115.595
 20
72.7675
 30
0.0
 11
115.595
 21
69.668
 31
0.0
  0
LINE
  8
0
 62
     0
 10
115.595
 20
69.668
 30
0.0
 11
116.395
 21
69.668
 31
0.0
  0
LINE
  8
0
 62
     0
 10
116.395
 20
69.668
 30
0.0
 11
116.395
 21
63.8679
 31
0.0
  0
LINE
  8
0
 62
     0
 10
116.395
 20
63.8679
 30
0.0
 11
115.595
 21
63.8679
 31
0.0
  0
LINE
  8
0
 62
     0
 10
115.595
 20
63.8679
 30
0.0
 11
115.595
 21
60.7674
 31
0.0
  0
LINE
  8
0
 62
     0
 10
115.595
 20
60.7674
 30
0.0
 11
116.395
 21
60.7674
 31
0.0
  0
LINE
  8
0
 62
     0
 10
116.395
 20
60.7674
 30
0.0
 11
116.395
 21
59.7683
 31
0.0
  0
LINE
  8
0
 62
     0
 10
116.395
 20
59.7683
 30
0.0
 11
130.394
 21
59.7683
 31
0.0
  0
LINE
  8
0
 62
     0
 10
130.394
 20
59.7683
 30
0.0
 11
130.394
 21
60.7674
 31
0.0
  0
LINE
  8
0
 62
     0
 10
130.394
 20
60.7674
 30
0.0
 11
131.195
 21
60.7674
 31
0.0
  0
LINE
  8
0
 62
     0
 10
131.195
 20
60.7674
 30
0.0
 11
131.195
 21
63.8679
 31
0.0
  0
LINE
  8
0
 62
     0
 10
131.195
 20
63.8679
 30
0.0
 11
130.394
 21
63.8679
 31
0.0
  0
LINE
  8
0
 62
     0
 10
130.394
 20
63.8679
 30
0.0
 11
130.394
 21
69.668
 31
0.0
  0
LINE
  8
0
 62
     0
 10
130.394
 20
69.668
 30
0.0
 11
131.195
 21
69.668
 31
0.0
  0
LINE
  8
0
 62
     0
 10
131.195
 20
69.668
 30
0.0
 11
131.195
 21
72.7675
 31
0.0
  0
LINE
  8
0
 62
     0
 10
131.195
 20
72.7675
 30
0.0
 11
130.394
 21
72.7675
 31
0.0
  0
LINE
  8
0
 62
     0
 10
130.394
 20
72.7675
 30
0.0
 11
130.394
 21
73.7676
 31
0.0
  0
LINE
  8
0
 62
     0
 10
130.394
 20
73.7676
 30
0.0
 11
116.395
 21
73.7676
 31
0.0
  0
LINE
  8
0
 62
     0
 10
135.445
 20
73.7676
 30
0.0
 11
135.445
 21
72.7675
 31
0.0
  0
LINE
  8
0
 62
     0
 10
135.445
 20
72.7675
 30
0.0
 11
134.645
 21
72.7675
 31
0.0
  0
LINE
  8
0
 62
     0
 10
134.645
 20
72.7675
 30
0.0
 11
134.645
 21
69.668
 31
0.0
  0
LINE
  8
0
 62
     0
 10
134.645
 20
69.668
 30
0.0
 11
135.445
 21
69.668
 31
0.0
  0
LINE
  8
0
 62
     0
 10
135.445
 20
69.668
 30
0.0
 11
135.445
 21
63.8679
 31
0.0
  0
LINE
  8
0
 62
     0
 10
135.445
 20
63.8679
 30
0.0
 11
134.645
 21
63.8679
 31
0.0
  0
LINE
  8
0
 62
     0
 10
134.645
 20
63.8679
 30
0.0
 11
134.645
 21
60.7674
 31
0.0
  0
LINE
  8
0
 62
     0
 10
134.645
 20
60.7674
 30
0.0
 11
135.445
 21
60.7674
 31
0.0
  0
LINE
  8
0
 62
     0
 10
135.445
 20
60.7674
 30
0.0
 11
135.445
 21
59.7683
 31
0.0
  0
LINE
  8
0
 62
     0
 10
135.445
 20
59.7683
 30
0.0
 11
149.444
 21
59.7683
 31
0.0
  0
LINE
  8
0
 62
     0
 10
149.444
 20
59.7683
 30
0.0
 11
149.444
 21
60.7674
 31
0.0
  0
LINE
  8
0
 62
     0
 10
149.444
 20
60.7674
 30
0.0
 11
150.245
 21
60.7674
 31
0.0
  0
LINE
  8
0
 62
     0
 10
150.245
 20
60.7674
 30
0.0
 11
150.245
 21
63.8679
 31
0.0
  0
LINE
  8
0
 62
     0
 10
150.245
 20
63.8679
 30
0.0
 11
149.444
 21
63.8679
 31
0.0
  0
LINE
  8
0
 62
     0
 10
149.444
 20
63.8679
 30
0.0
 11
149.444
 21
69.668
 31
0.0
  0
LINE
  8
0
 62
     0
 10
149.444
 20
69.668
 30
0.0
 11
150.245
 21
69.668
 31
0.0
  0
LINE
  8
0
 62
     0
 10
150.245
 20
69.668
 30
0.0
 11
150.245
 21
72.7675
 31
0.0
  0
LINE
  8
0
 62
     0
 10
150.245
 20
72.7675
 30
0.0
 11
149.444
 21
72.7675
 31
0.0
  0
LINE
  8
0
 62
     0
 10
149.444
 20
72.7675
 30
0.0
 11
149.444
 21
73.7676
 31
0.0
  0
LINE
  8
0
 62
     0
 10
149.444
 20
73.7676
 30
0.0
 11
135.445
 21
73.7676
 31
0.0
  0
LINE
  8
0
 62
     0
 10
154.495
 20
73.7676
 30
0.0
 11
154.495
 21
72.7675
 31
0.0
  0
LINE
  8
0
 62
     0
 10
154.495
 20
72.7675
 30
0.0
 11
153.695
 21
72.7675
 31
0.0
  0
LINE
  8
0
 62
     0
 10
153.695
 20
72.7675
 30
0.0
 11
153.695
 21
69.668
 31
0.0
  0
LINE
  8
0
 62
     0
 10
153.695
 20
69.668
 30
0.0
 11
154.495
 21
69.668
 31
0.0
  0
LINE
  8
0
 62
     0
 10
154.495
 20
69.668
 30
0.0
 11
154.495
 21
63.8679
 31
0.0
  0
LINE
  8
0
 62
     0
 10
154.495
 20
63.8679
 30
0.0
 11
153.695
 21
63.8679
 31
0.0
  0
LINE
  8
0
 62
     0
 10
153.695
 20
63.8679
 30
0.0
 11
153.695
 21
60.7674
 31
0.0
  0
LINE
  8
0
 62
     0
 10
153.695
 20
60.7674
 30
0.0
 11
154.495
 21
60.7674
 31
0.0
  0
LINE
  8
0
 62
     0
 10
154.495
 20
60.7674
 30
0.0
 11
154.495
 21
59.7683
 31
0.0
  0
LINE
  8
0
 62
     0
 10
154.495
 20
59.7683
 30
0.0
 11
168.494
 21
59.7683
 31
0.0
  0
LINE
  8
0
 62
     0
 10
168.494
 20
59.7683
 30
0.0
 11
168.494
 21
60.7674
 31
0.0
  0
LINE
  8
0
 62
     0
 10
168.494
 20
60.7674
 30
0.0
 11
169.295
 21
60.7674
 31
0.0
  0
LINE
  8
0
 62
     0
 10
169.295
 20
60.7674
 30
0.0
 11
169.295
 21
63.8679
 31
0.0
  0
LINE
  8
0
 62
     0
 10
169.295
 20
63.8679
 30
0.0
 11
168.494
 21
63.8679
 31
0.0
  0
LINE
  8
0
 62
     0
 10
168.494
 20
63.8679
 30
0.0
 11
168.494
 21
69.668
 31
0.0
  0
LINE
  8
0
 62
     0
 10
168.494
 20
69.668
 30
0.0
 11
169.295
 21
69.668
 31
0.0
  0
LINE
  8
0
 62
     0
 10
169.295
 20
69.668
 30
0.0
 11
169.295
 21
72.7675
 31
0.0
  0
LINE
  8
0
 62
     0
 10
169.295
 20
72.7675
 30
0.0
 11
168.494
 21
72.7675
 31
0.0
  0
LINE
  8
0
 62
     0
 10
168.494
 20
72.7675
 30
0.0
 11
168.494
 21
73.7676
 31
0.0
  0
LINE
  8
0
 62
     0
 10
168.494
 20
73.7676
 30
0.0
 11
154.495
 21
73.7676
 31
0.0
  0
LINE
  8
0
 62
     0
 10
173.545
 20
73.7676
 30
0.0
 11
173.545
 21
72.7675
 31
0.0
  0
LINE
  8
0
 62
     0
 10
173.545
 20
72.7675
 30
0.0
 11
172.745
 21
72.7675
 31
0.0
  0
LINE
  8
0
 62
     0
 10
172.745
 20
72.7675
 30
0.0
 11
172.745
 21
69.668
 31
0.0
  0
LINE
  8
0
 62
     0
 10
172.745
 20
69.668
 30
0.0
 11
173.545
 21
69.668
 31
0.0
  0
LINE
  8
0
 62
     0
 10
173.545
 20
69.668
 30
0.0
 11
173.545
 21
63.8679
 31
0.0
  0
LINE
  8
0
 62
     0
 10
173.545
 20
63.8679
 30
0.0
 11
172.745
 21
63.8679
 31
0.0
  0
LINE
  8
0
 62
     0
 10
172.745
 20
63.8679
 30
0.0
 11
172.745
 21
60.7674
 31
0.0
  0
LINE
  8
0
 62
     0
 10
172.745
 20
60.7674
 30
0.0
 11
173.545
 21
60.7674
 31
0.0
  0
LINE
  8
0
 62
     0
 10
173.545
 20
60.7674
 30
0.0
 11
173.545
 21
59.7683
 31
0.0
  0
LINE
  8
0
 62
     0
 10
173.545
 20
59.7683
 30
0.0
 11
187.544
 21
59.7683
 31
0.0
  0
LINE
  8
0
 62
     0
 10
187.544
 20
59.7683
 30
0.0
 11
187.544
 21
60.7674
 31
0.0
  0
LINE
  8
0
 62
     0
 10
187.544
 20
60.7674
 30
0.0
 11
188.345
 21
60.7674
 31
0.0
  0
LINE
  8
0
 62
     0
 10
188.345
 20
60.7674
 30
0.0
 11
188.345
 21
63.8679
 31
0.0
  0
LINE
  8
0
 62
     0
 10
188.345
 20
63.8679
 30
0.0
 11
187.544
 21
63.8679
 31
0.0
  0
LINE
  8
0
 62
     0
 10
187.544
 20
63.8679
 30
0.0
 11
187.544
 21
69.668
 31
0.0
  0
LINE
  8
0
 62
     0
 10
187.544
 20
69.668
 30
0.0
 11
188.345
 21
69.668
 31
0.0
  0
LINE
  8
0
 62
     0
 10
188.345
 20
69.668
 30
0.0
 11
188.345
 21
72.7675
 31
0.0
  0
LINE
  8
0
 62
     0
 10
188.345
 20
72.7675
 30
0.0
 11
187.544
 21
72.7675
 31
0.0
  0
LINE
  8
0
 62
     0
 10
187.544
 20
72.7675
 30
0.0
 11
187.544
 21
73.7676
 31
0.0
  0
LINE
  8
0
 62
     0
 10
187.544
 20
73.7676
 30
0.0
 11
173.545
 21
73.7676
 31
0.0
  0
LINE
  8
0
 62
     0
 10
192.595
 20
73.7676
 30
0.0
 11
192.595
 21
72.7675
 31
0.0
  0
LINE
  8
0
 62
     0
 10
192.595
 20
72.7675
 30
0.0
 11
191.795
 21
72.7675
 31
0.0
  0
LINE
  8
0
 62
     0
 10
191.795
 20
72.7675
 30
0.0
 11
191.795
 21
69.668
 31
0.0
  0
LINE
  8
0
 62
     0
 10
191.795
 20
69.668
 30
0.0
 11
192.595
 21
69.668
 31
0.0
  0
LINE
  8
0
 62
     0
 10
192.595
 20
69.668
 30
0.0
 11
192.595
 21
63.8679
 31
0.0
  0
LINE
  8
0
 62
     0
 10
192.595
 20
63.8679
 30
0.0
 11
191.795
 21
63.8679
 31
0.0
  0
LINE
  8
0
 62
     0
 10
191.795
 20
63.8679
 30
0.0
 11
191.795
 21
60.7674
 31
0.0
  0
LINE
  8
0
 62
     0
 10
191.795
 20
60.7674
 30
0.0
 11
192.595
 21
60.7674
 31
0.0
  0
LINE
  8
0
 62
     0
 10
192.595
 20
60.7674
 30
0.0
 11
192.595
 21
59.7683
 31
0.0
  0
LINE
  8
0
 62
     0
 10
192.595
 20
59.7683
 30
0.0
 11
206.594
 21
59.7683
 31
0.0
  0
LINE
  8
0
 62
     0
 10
206.594
 20
59.7683
 30
0.0
 11
206.594
 21
60.7674
 31
0.0
  0
LINE
  8
0
 62
     0
 10
206.594
 20
60.7674
 30
0.0
 11
207.395
 21
60.7674
 31
0.0
  0
LINE
  8
0
 62
     0
 10
207.395
 20
60.7674
 30
0.0
 11
207.395
 21
63.8679
 31
0.0
  0
LINE
  8
0
 62
     0
 10
207.395
 20
63.8679
 30
0.0
 11
206.594
 21
63.8679
 31
0.0
  0
LINE
  8
0
 62
     0
 10
206.594
 20
63.8679
 30
0.0
 11
206.594
 21
69.668
 31
0.0
  0
LINE
  8
0
 62
     0
 10
206.594
 20
69.668
 30
0.0
 11
207.395
 21
69.668
 31
0.0
  0
LINE
  8
0
 62
     0
 10
207.395
 20
69.668
 30
0.0
 11
207.395
 21
72.7675
 31
0.0
  0
LINE
  8
0
 62
     0
 10
207.395
 20
72.7675
 30
0.0
 11
206.594
 21
72.7675
 31
0.0
  0
LINE
  8
0
 62
     0
 10
206.594
 20
72.7675
 30
0.0
 11
206.594
 21
73.7676
 31
0.0
  0
LINE
  8
0
 62
     0
 10
206.594
 20
73.7676
 30
0.0
 11
192.595
 21
73.7676
 31
0.0
  0
LINE
  8
0
 62
     0
 10
211.645
 20
73.7676
 30
0.0
 11
211.645
 21
72.7675
 31
0.0
  0
LINE
  8
0
 62
     0
 10
211.645
 20
72.7675
 30
0.0
 11
210.845
 21
72.7675
 31
0.0
  0
LINE
  8
0
 62
     0
 10
210.845
 20
72.7675
 30
0.0
 11
210.845
 21
69.668
 31
0.0
  0
LINE
  8
0
 62
     0
 10
210.845
 20
69.668
 30
0.0
 11
211.645
 21
69.668
 31
0.0
  0
LINE
  8
0
 62
     0
 10
211.645
 20
69.668
 30
0.0
 11
211.645
 21
63.8679
 31
0.0
  0
LINE
  8
0
 62
     0
 10
211.645
 20
63.8679
 30
0.0
 11
210.845
 21
63.8679
 31
0.0
  0
LINE
  8
0
 62
     0
 10
210.845
 20
63.8679
 30
0.0
 11
210.845
 21
60.7674
 31
0.0
  0
LINE
  8
0
 62
     0
 10
210.845
 20
60.7674
 30
0.0
 11
211.645
 21
60.7674
 31
0.0
  0
LINE
  8
0
 62
     0
 10
211.645
 20
60.7674
 30
0.0
 11
211.645
 21
59.7683
 31
0.0
  0
LINE
  8
0
 62
     0
 10
211.645
 20
59.7683
 30
0.0
 11
225.644
 21
59.7683
 31
0.0
  0
LINE
  8
0
 62
     0
 10
225.644
 20
59.7683
 30
0.0
 11
225.644
 21
60.7674
 31
0.0
  0
LINE
  8
0
 62
     0
 10
225.644
 20
60.7674
 30
0.0
 11
226.445
 21
60.7674
 31
0.0
  0
LINE
  8
0
 62
     0
 10
226.445
 20
60.7674
 30
0.0
 11
226.445
 21
63.8679
 31
0.0
  0
LINE
  8
0
 62
     0
 10
226.445
 20
63.8679
 30
0.0
 11
225.644
 21
63.8679
 31
0.0
  0
LINE
  8
0
 62
     0
 10
225.644
 20
63.8679
 30
0.0
 11
225.644
 21
69.668
 31
0.0
  0
LINE
  8
0
 62
     0
 10
225.644
 20
69.668
 30
0.0
 11
226.445
 21
69.668
 31
0.0
  0
LINE
  8
0
 62
     0
 10
226.445
 20
69.668
 30
0.0
 11
226.445
 21
72.7675
 31
0.0
  0
LINE
  8
0
 62
     0
 10
226.445
 20
72.7675
 30
0.0
 11
225.644
 21
72.7675
 31
0.0
  0
LINE
  8
0
 62
     0
 10
225.644
 20
72.7675
 30
0.0
 11
225.644
 21
73.7676
 31
0.0
  0
LINE
  8
0
 62
     0
 10
225.644
 20
73.7676
 30
0.0
 11
211.645
 21
73.7676
 31
0.0
  0
LINE
  8
0
 62
     0
 10
230.695
 20
73.7676
 30
0.0
 11
230.695
 21
72.7675
 31
0.0
  0
LINE
  8
0
 62
     0
 10
230.695
 20
72.7675
 30
0.0
 11
229.895
 21
72.7675
 31
0.0
  0
LINE
  8
0
 62
     0
 10
229.895
 20
72.7675
 30
0.0
 11
229.895
 21
69.668
 31
0.0
  0
LINE
  8
0
 62
     0
 10
229.895
 20
69.668
 30
0.0
 11
230.695
 21
69.668
 31
0.0
  0
LINE
  8
0
 62
     0
 10
230.695
 20
69.668
 30
0.0
 11
230.695
 21
63.8679
 31
0.0
  0
LINE
  8
0
 62
     0
 10
230.695
 20
63.8679
 30
0.0
 11
229.895
 21
63.8679
 31
0.0
  0
LINE
  8
0
 62
     0
 10
229.895
 20
63.8679
 30
0.0
 11
229.895
 21
60.7674
 31
0.0
  0
LINE
  8
0
 62
     0
 10
229.895
 20
60.7674
 30
0.0
 11
230.695
 21
60.7674
 31
0.0
  0
LINE
  8
0
 62
     0
 10
230.695
 20
60.7674
 30
0.0
 11
230.695
 21
59.7683
 31
0.0
  0
LINE
  8
0
 62
     0
 10
230.695
 20
59.7683
 30
0.0
 11
244.694
 21
59.7683
 31
0.0
  0
LINE
  8
0
 62
     0
 10
244.694
 20
59.7683
 30
0.0
 11
244.694
 21
60.7674
 31
0.0
  0
LINE
  8
0
 62
     0
 10
244.694
 20
60.7674
 30
0.0
 11
245.495
 21
60.7674
 31
0.0
  0
LINE
  8
0
 62
     0
 10
245.495
 20
60.7674
 30
0.0
 11
245.495
 21
63.8679
 31
0.0
  0
LINE
  8
0
 62
     0
 10
245.495
 20
63.8679
 30
0.0
 11
244.694
 21
63.8679
 31
0.0
  0
LINE
  8
0
 62
     0
 10
244.694
 20
63.8679
 30
0.0
 11
244.694
 21
69.668
 31
0.0
  0
LINE
  8
0
 62
     0
 10
244.694
 20
69.668
 30
0.0
 11
245.495
 21
69.668
 31
0.0
  0
LINE
  8
0
 62
     0
 10
245.495
 20
69.668
 30
0.0
 11
245.495
 21
72.7675
 31
0.0
  0
LINE
  8
0
 62
     0
 10
245.495
 20
72.7675
 30
0.0
 11
244.694
 21
72.7675
 31
0.0
  0
LINE
  8
0
 62
     0
 10
244.694
 20
72.7675
 30
0.0
 11
244.694
 21
73.7676
 31
0.0
  0
LINE
  8
0
 62
     0
 10
244.694
 20
73.7676
 30
0.0
 11
230.695
 21
73.7676
 31
0.0
  0
LINE
  8
0
 62
     0
 10
249.745
 20
73.7676
 30
0.0
 11
249.745
 21
72.7675
 31
0.0
  0
LINE
  8
0
 62
     0
 10
249.745
 20
72.7675
 30
0.0
 11
248.945
 21
72.7675
 31
0.0
  0
LINE
  8
0
 62
     0
 10
248.945
 20
72.7675
 30
0.0
 11
248.945
 21
69.668
 31
0.0
  0
LINE
  8
0
 62
     0
 10
248.945
 20
69.668
 30
0.0
 11
249.745
 21
69.668
 31
0.0
  0
LINE
  8
0
 62
     0
 10
249.745
 20
69.668
 30
0.0
 11
249.745
 21
63.8679
 31
0.0
  0
LINE
  8
0
 62
     0
 10
249.745
 20
63.8679
 30
0.0
 11
248.945
 21
63.8679
 31
0.0
  0
LINE
  8
0
 62
     0
 10
248.945
 20
63.8679
 30
0.0
 11
248.945
 21
60.7674
 31
0.0
  0
LINE
  8
0
 62
     0
 10
248.945
 20
60.7674
 30
0.0
 11
249.745
 21
60.7674
 31
0.0
  0
LINE
  8
0
 62
     0
 10
249.745
 20
60.7674
 30
0.0
 11
249.745
 21
59.7683
 31
0.0
  0
LINE
  8
0
 62
     0
 10
249.745
 20
59.7683
 30
0.0
 11
263.744
 21
59.7683
 31
0.0
  0
LINE
  8
0
 62
     0
 10
263.744
 20
59.7683
 30
0.0
 11
263.744
 21
60.7674
 31
0.0
  0
LINE
  8
0
 62
     0
 10
263.744
 20
60.7674
 30
0.0
 11
264.545
 21
60.7674
 31
0.0
  0
LINE
  8
0
 62
     0
 10
264.545
 20
60.7674
 30
0.0
 11
264.545
 21
63.8679
 31
0.0
  0
LINE
  8
0
 62
     0
 10
264.545
 20
63.8679
 30
0.0
 11
263.744
 21
63.8679
 31
0.0
  0
LINE
  8
0
 62
     0
 10
263.744
 20
63.8679
 30
0.0
 11
263.744
 21
69.668
 31
0.0
  0
LINE
  8
0
 62
     0
 10
263.744
 20
69.668
 30
0.0
 11
264.545
 21
69.668
 31
0.0
  0
LINE
  8
0
 62
     0
 10
264.545
 20
69.668
 30
0.0
 11
264.545
 21
72.7675
 31
0.0
  0
LINE
  8
0
 62
     0
 10
264.545
 20
72.7675
 30
0.0
 11
263.744
 21
72.7675
 31
0.0
  0
LINE
  8
0
 62
     0
 10
263.744
 20
72.7675
 30
0.0
 11
263.744
 21
73.7676
 31
0.0
  0
LINE
  8
0
 62
     0
 10
263.744
 20
73.7676
 30
0.0
 11
249.745
 21
73.7676
 31
0.0
  0
LINE
  8
0
 62
     0
 10
273.557
 20
73.7676
 30
0.0
 11
273.557
 21
72.7675
 31
0.0
  0
LINE
  8
0
 62
     0
 10
273.557
 20
72.7675
 30
0.0
 11
272.757
 21
72.7675
 31
0.0
  0
LINE
  8
0
 62
     0
 10
272.757
 20
72.7675
 30
0.0
 11
272.757
 21
69.668
 31
0.0
  0
LINE
  8
0
 62
     0
 10
272.757
 20
69.668
 30
0.0
 11
273.557
 21
69.668
 31
0.0
  0
LINE
  8
0
 62
     0
 10
273.557
 20
69.668
 30
0.0
 11
273.557
 21
63.8679
 31
0.0
  0
LINE
  8
0
 62
     0
 10
273.557
 20
63.8679
 30
0.0
 11
272.757
 21
63.8679
 31
0.0
  0
LINE
  8
0
 62
     0
 10
272.757
 20
63.8679
 30
0.0
 11
272.757
 21
60.7674
 31
0.0
  0
LINE
  8
0
 62
     0
 10
272.757
 20
60.7674
 30
0.0
 11
273.557
 21
60.7674
 31
0.0
  0
LINE
  8
0
 62
     0
 10
273.557
 20
60.7674
 30
0.0
 11
273.557
 21
59.7683
 31
0.0
  0
LINE
  8
0
 62
     0
 10
273.557
 20
59.7683
 30
0.0
 11
287.557
 21
59.7683
 31
0.0
  0
LINE
  8
0
 62
     0
 10
287.557
 20
59.7683
 30
0.0
 11
287.557
 21
60.7674
 31
0.0
  0
LINE
  8
0
 62
     0
 10
287.557
 20
60.7674
 30
0.0
 11
288.357
 21
60.7674
 31
0.0
  0
LINE
  8
0
 62
     0
 10
288.357
 20
60.7674
 30
0.0
 11
288.357
 21
63.8679
 31
0.0
  0
LINE
  8
0
 62
     0
 10
288.357
 20
63.8679
 30
0.0
 11
287.557
 21
63.8679
 31
0.0
  0
LINE
  8
0
 62
     0
 10
287.557
 20
63.8679
 30
0.0
 11
287.557
 21
69.668
 31
0.0
  0
LINE
  8
0
 62
     0
 10
287.557
 20
69.668
 30
0.0
 11
288.357
 21
69.668
 31
0.0
  0
LINE
  8
0
 62
     0
 10
288.357
 20
69.668
 30
0.0
 11
288.357
 21
72.7675
 31
0.0
  0
LINE
  8
0
 62
     0
 10
288.357
 20
72.7675
 30
0.0
 11
287.557
 21
72.7675
 31
0.0
  0
LINE
  8
0
 62
     0
 10
287.557
 20
72.7675
 30
0.0
 11
287.557
 21
73.7676
 31
0.0
  0
LINE
  8
0
 62
     0
 10
287.557
 20
73.7676
 30
0.0
 11
273.557
 21
73.7676
 31
0.0
  0
LINE
  8
0
 62
     0
 10
268.795
 20
92.8176
 30
0.0
 11
268.795
 21
91.8175
 31
0.0
  0
LINE
  8
0
 62
     0
 10
268.795
 20
91.8175
 30
0.0
 11
267.995
 21
91.8175
 31
0.0
  0
LINE
  8
0
 62
     0
 10
267.995
 20
91.8175
 30
0.0
 11
267.995
 21
88.718
 31
0.0
  0
LINE
  8
0
 62
     0
 10
267.995
 20
88.718
 30
0.0
 11
268.795
 21
88.718
 31
0.0
  0
LINE
  8
0
 62
     0
 10
268.795
 20
88.718
 30
0.0
 11
268.795
 21
88.1172
 31
0.0
  0
LINE
  8
0
 62
     0
 10
268.795
 20
88.1172
 30
0.0
 11
267.269
 21
88.1172
 31
0.0
  0
LINE
  8
0
 62
     0
 10
267.269
 20
88.1172
 30
0.0
 11
267.269
 21
91.3476
 31
0.0
  0
LINE
  8
0
 62
     0
 10
267.269
 20
91.3476
 30
0.0
 11
265.545
 21
91.3476
 31
0.0
  0
LINE
  8
0
 62
     0
 10
265.545
 20
91.3476
 30
0.0
 11
265.545
 21
92.2694
 31
0.0
  0
LINE
  8
0
 62
     0
 10
265.545
 20
92.2694
 30
0.0
 11
262.245
 21
92.2694
 31
0.0
  0
LINE
  8
0
 62
     0
 10
262.245
 20
92.2694
 30
0.0
 11
262.245
 21
91.3476
 31
0.0
  0
LINE
  8
0
 62
     0
 10
262.245
 20
91.3476
 30
0.0
 11
260.519
 21
91.3476
 31
0.0
  0
LINE
  8
0
 62
     0
 10
260.519
 20
91.3476
 30
0.0
 11
260.519
 21
88.1172
 31
0.0
  0
LINE
  8
0
 62
     0
 10
260.519
 20
88.1172
 30
0.0
 11
259.696
 21
88.1172
 31
0.0
  0
LINE
  8
0
 62
     0
 10
259.696
 20
88.1172
 30
0.0
 11
259.696
 21
85.3172
 31
0.0
  0
LINE
  8
0
 62
     0
 10
259.696
 20
85.3172
 30
0.0
 11
260.519
 21
85.3172
 31
0.0
  0
LINE
  8
0
 62
     0
 10
260.519
 20
85.3172
 30
0.0
 11
260.519
 21
79.0469
 31
0.0
  0
LINE
  8
0
 62
     0
 10
260.519
 20
79.0469
 30
0.0
 11
262.245
 21
79.0469
 31
0.0
  0
LINE
  8
0
 62
     0
 10
262.245
 20
79.0469
 30
0.0
 11
262.245
 21
78.0673
 31
0.0
  0
LINE
  8
0
 62
     0
 10
262.245
 20
78.0673
 30
0.0
 11
265.545
 21
78.0673
 31
0.0
  0
LINE
  8
0
 62
     0
 10
265.545
 20
78.0673
 30
0.0
 11
265.545
 21
79.0469
 31
0.0
  0
LINE
  8
0
 62
     0
 10
265.545
 20
79.0469
 30
0.0
 11
267.269
 21
79.0469
 31
0.0
  0
LINE
  8
0
 62
     0
 10
267.269
 20
79.0469
 30
0.0
 11
267.269
 21
83.5173
 31
0.0
  0
LINE
  8
0
 62
     0
 10
267.269
 20
83.5173
 30
0.0
 11
268.795
 21
83.5173
 31
0.0
  0
LINE
  8
0
 62
     0
 10
268.795
 20
83.5173
 30
0.0
 11
268.795
 21
82.9179
 31
0.0
  0
LINE
  8
0
 62
     0
 10
268.795
 20
82.9179
 30
0.0
 11
267.995
 21
82.9179
 31
0.0
  0
LINE
  8
0
 62
     0
 10
267.995
 20
82.9179
 30
0.0
 11
267.995
 21
79.8174
 31
0.0
  0
LINE
  8
0
 62
     0
 10
267.995
 20
79.8174
 30
0.0
 11
268.795
 21
79.8174
 31
0.0
  0
LINE
  8
0
 62
     0
 10
268.795
 20
79.8174
 30
0.0
 11
268.795
 21
78.8183
 31
0.0
  0
LINE
  8
0
 62
     0
 10
268.795
 20
78.8183
 30
0.0
 11
282.794
 21
78.8183
 31
0.0
  0
LINE
  8
0
 62
     0
 10
282.794
 20
78.8183
 30
0.0
 11
282.794
 21
79.8174
 31
0.0
  0
LINE
  8
0
 62
     0
 10
282.794
 20
79.8174
 30
0.0
 11
283.595
 21
79.8174
 31
0.0
  0
LINE
  8
0
 62
     0
 10
283.595
 20
79.8174
 30
0.0
 11
283.595
 21
82.9179
 31
0.0
  0
LINE
  8
0
 62
     0
 10
283.595
 20
82.9179
 30
0.0
 11
282.794
 21
82.9179
 31
0.0
  0
LINE
  8
0
 62
     0
 10
282.794
 20
82.9179
 30
0.0
 11
282.794
 21
83.5173
 31
0.0
  0
LINE
  8
0
 62
     0
 10
282.794
 20
83.5173
 30
0.0
 11
284.319
 21
83.5173
 31
0.0
  0
LINE
  8
0
 62
     0
 10
284.319
 20
83.5173
 30
0.0
 11
284.319
 21
79.0469
 31
0.0
  0
LINE
  8
0
 62
     0
 10
284.319
 20
79.0469
 30
0.0
 11
286.045
 21
79.0469
 31
0.0
  0
LINE
  8
0
 62
     0
 10
286.045
 20
79.0469
 30
0.0
 11
286.045
 21
78.0673
 31
0.0
  0
LINE
  8
0
 62
     0
 10
286.045
 20
78.0673
 30
0.0
 11
289.345
 21
78.0673
 31
0.0
  0
LINE
  8
0
 62
     0
 10
289.345
 20
78.0673
 30
0.0
 11
289.345
 21
79.0469
 31
0.0
  0
LINE
  8
0
 62
     0
 10
289.345
 20
79.0469
 30
0.0
 11
291.069
 21
79.0469
 31
0.0
  0
LINE
  8
0
 62
     0
 10
291.069
 20
79.0469
 30
0.0
 11
291.069
 21
85.3172
 31
0.0
  0
LINE
  8
0
 62
     0
 10
291.069
 20
85.3172
 30
0.0
 11
291.895
 21
85.3172
 31
0.0
  0
LINE
  8
0
 62
     0
 10
291.895
 20
85.3172
 30
0.0
 11
291.895
 21
88.1172
 31
0.0
  0
LINE
  8
0
 62
     0
 10
291.895
 20
88.1172
 30
0.0
 11
291.069
 21
88.1172
 31
0.0
  0
LINE
  8
0
 62
     0
 10
291.069
 20
88.1172
 30
0.0
 11
291.069
 21
91.3476
 31
0.0
  0
LINE
  8
0
 62
     0
 10
291.069
 20
91.3476
 30
0.0
 11
289.345
 21
91.3476
 31
0.0
  0
LINE
  8
0
 62
     0
 10
289.345
 20
91.3476
 30
0.0
 11
289.345
 21
92.2694
 31
0.0
  0
LINE
  8
0
 62
     0
 10
289.345
 20
92.2694
 30
0.0
 11
286.045
 21
92.2694
 31
0.0
  0
LINE
  8
0
 62
     0
 10
286.045
 20
92.2694
 30
0.0
 11
286.045
 21
91.3476
 31
0.0
  0
LINE
  8
0
 62
     0
 10
286.045
 20
91.3476
 30
0.0
 11
284.319
 21
91.3476
 31
0.0
  0
LINE
  8
0
 62
     0
 10
284.319
 20
91.3476
 30
0.0
 11
284.319
 21
88.1172
 31
0.0
  0
LINE
  8
0
 62
     0
 10
284.319
 20
88.1172
 30
0.0
 11
282.794
 21
88.1172
 31
0.0
  0
LINE
  8
0
 62
     0
 10
282.794
 20
88.1172
 30
0.0
 11
282.794
 21
88.718
 31
0.0
  0
LINE
  8
0
 62
     0
 10
282.794
 20
88.718
 30
0.0
 11
283.595
 21
88.718
 31
0.0
  0
LINE
  8
0
 62
     0
 10
283.595
 20
88.718
 30
0.0
 11
283.595
 21
91.8175
 31
0.0
  0
LINE
  8
0
 62
     0
 10
283.595
 20
91.8175
 30
0.0
 11
282.794
 21
91.8175
 31
0.0
  0
LINE
  8
0
 62
     0
 10
282.794
 20
91.8175
 30
0.0
 11
282.794
 21
92.8176
 31
0.0
  0
LINE
  8
0
 62
     0
 10
282.794
 20
92.8176
 30
0.0
 11
268.795
 21
92.8176
 31
0.0
  0
LINE
  8
0
 62
     0
 10
11.6196
 20
92.8176
 30
0.0
 11
11.6196
 21
91.8175
 31
0.0
  0
LINE
  8
0
 62
     0
 10
11.6196
 20
91.8175
 30
0.0
 11
10.819
 21
91.8175
 31
0.0
  0
LINE
  8
0
 62
     0
 10
10.819
 20
91.8175
 30
0.0
 11
10.819
 21
88.718
 31
0.0
  0
LINE
  8
0
 62
     0
 10
10.819
 20
88.718
 30
0.0
 11
11.6196
 21
88.718
 31
0.0
  0
LINE
  8
0
 62
     0
 10
11.6196
 20
88.718
 30
0.0
 11
11.6196
 21
82.9179
 31
0.0
  0
LINE
  8
0
 62
     0
 10
11.6196
 20
82.9179
 30
0.0
 11
10.819
 21
82.9179
 31
0.0
  0
LINE
  8
0
 62
     0
 10
10.819
 20
82.9179
 30
0.0
 11
10.819
 21
79.8174
 31
0.0
  0
LINE
  8
0
 62
     0
 10
10.819
 20
79.8174
 30
0.0
 11
11.6196
 21
79.8174
 31
0.0
  0
LINE
  8
0
 62
     0
 10
11.6196
 20
79.8174
 30
0.0
 11
11.6196
 21
78.8183
 31
0.0
  0
LINE
  8
0
 62
     0
 10
11.6196
 20
78.8183
 30
0.0
 11
25.6191
 21
78.8183
 31
0.0
  0
LINE
  8
0
 62
     0
 10
25.6191
 20
78.8183
 30
0.0
 11
25.6191
 21
79.8174
 31
0.0
  0
LINE
  8
0
 62
     0
 10
25.6191
 20
79.8174
 30
0.0
 11
26.4197
 21
79.8174
 31
0.0
  0
LINE
  8
0
 62
     0
 10
26.4197
 20
79.8174
 30
0.0
 11
26.4197
 21
82.9179
 31
0.0
  0
LINE
  8
0
 62
     0
 10
26.4197
 20
82.9179
 30
0.0
 11
25.6191
 21
82.9179
 31
0.0
  0
LINE
  8
0
 62
     0
 10
25.6191
 20
82.9179
 30
0.0
 11
25.6191
 21
88.718
 31
0.0
  0
LINE
  8
0
 62
     0
 10
25.6191
 20
88.718
 30
0.0
 11
26.4197
 21
88.718
 31
0.0
  0
LINE
  8
0
 62
     0
 10
26.4197
 20
88.718
 30
0.0
 11
26.4197
 21
91.8175
 31
0.0
  0
LINE
  8
0
 62
     0
 10
26.4197
 20
91.8175
 30
0.0
 11
25.6191
 21
91.8175
 31
0.0
  0
LINE
  8
0
 62
     0
 10
25.6191
 20
91.8175
 30
0.0
 11
25.6191
 21
92.8176
 31
0.0
  0
LINE
  8
0
 62
     0
 10
25.6191
 20
92.8176
 30
0.0
 11
11.6196
 21
92.8176
 31
0.0
  0
LINE
  8
0
 62
     0
 10
30.6696
 20
92.8176
 30
0.0
 11
30.6696
 21
91.8175
 31
0.0
  0
LINE
  8
0
 62
     0
 10
30.6696
 20
91.8175
 30
0.0
 11
29.8704
 21
91.8175
 31
0.0
  0
LINE
  8
0
 62
     0
 10
29.8704
 20
91.8175
 30
0.0
 11
29.8704
 21
88.718
 31
0.0
  0
LINE
  8
0
 62
     0
 10
29.8704
 20
88.718
 30
0.0
 11
30.6696
 21
88.718
 31
0.0
  0
LINE
  8
0
 62
     0
 10
30.6696
 20
88.718
 30
0.0
 11
30.6696
 21
82.9179
 31
0.0
  0
LINE
  8
0
 62
     0
 10
30.6696
 20
82.9179
 30
0.0
 11
29.8704
 21
82.9179
 31
0.0
  0
LINE
  8
0
 62
     0
 10
29.8704
 20
82.9179
 30
0.0
 11
29.8704
 21
79.8174
 31
0.0
  0
LINE
  8
0
 62
     0
 10
29.8704
 20
79.8174
 30
0.0
 11
30.6696
 21
79.8174
 31
0.0
  0
LINE
  8
0
 62
     0
 10
30.6696
 20
79.8174
 30
0.0
 11
30.6696
 21
78.8183
 31
0.0
  0
LINE
  8
0
 62
     0
 10
30.6696
 20
78.8183
 30
0.0
 11
44.6691
 21
78.8183
 31
0.0
  0
LINE
  8
0
 62
     0
 10
44.6691
 20
78.8183
 30
0.0
 11
44.6691
 21
79.8174
 31
0.0
  0
LINE
  8
0
 62
     0
 10
44.6691
 20
79.8174
 30
0.0
 11
45.4699
 21
79.8174
 31
0.0
  0
LINE
  8
0
 62
     0
 10
45.4699
 20
79.8174
 30
0.0
 11
45.4699
 21
82.9179
 31
0.0
  0
LINE
  8
0
 62
     0
 10
45.4699
 20
82.9179
 30
0.0
 11
44.6691
 21
82.9179
 31
0.0
  0
LINE
  8
0
 62
     0
 10
44.6691
 20
82.9179
 30
0.0
 11
44.6691
 21
88.718
 31
0.0
  0
LINE
  8
0
 62
     0
 10
44.6691
 20
88.718
 30
0.0
 11
45.4699
 21
88.718
 31
0.0
  0
LINE
  8
0
 62
     0
 10
45.4699
 20
88.718
 30
0.0
 11
45.4699
 21
91.8175
 31
0.0
  0
LINE
  8
0
 62
     0
 10
45.4699
 20
91.8175
 30
0.0
 11
44.6691
 21
91.8175
 31
0.0
  0
LINE
  8
0
 62
     0
 10
44.6691
 20
91.8175
 30
0.0
 11
44.6691
 21
92.8176
 31
0.0
  0
LINE
  8
0
 62
     0
 10
44.6691
 20
92.8176
 30
0.0
 11
30.6696
 21
92.8176
 31
0.0
  0
LINE
  8
0
 62
     0
 10
49.7198
 20
92.8176
 30
0.0
 11
49.7198
 21
91.8175
 31
0.0
  0
LINE
  8
0
 62
     0
 10
49.7198
 20
91.8175
 30
0.0
 11
48.9204
 21
91.8175
 31
0.0
  0
LINE
  8
0
 62
     0
 10
48.9204
 20
91.8175
 30
0.0
 11
48.9204
 21
88.718
 31
0.0
  0
LINE
  8
0
 62
     0
 10
48.9204
 20
88.718
 30
0.0
 11
49.7198
 21
88.718
 31
0.0
  0
LINE
  8
0
 62
     0
 10
49.7198
 20
88.718
 30
0.0
 11
49.7198
 21
82.9179
 31
0.0
  0
LINE
  8
0
 62
     0
 10
49.7198
 20
82.9179
 30
0.0
 11
48.9204
 21
82.9179
 31
0.0
  0
LINE
  8
0
 62
     0
 10
48.9204
 20
82.9179
 30
0.0
 11
48.9204
 21
79.8174
 31
0.0
  0
LINE
  8
0
 62
     0
 10
48.9204
 20
79.8174
 30
0.0
 11
49.7198
 21
79.8174
 31
0.0
  0
LINE
  8
0
 62
     0
 10
49.7198
 20
79.8174
 30
0.0
 11
49.7198
 21
78.8183
 31
0.0
  0
LINE
  8
0
 62
     0
 10
49.7198
 20
78.8183
 30
0.0
 11
63.7191
 21
78.8183
 31
0.0
  0
LINE
  8
0
 62
     0
 10
63.7191
 20
78.8183
 30
0.0
 11
63.7191
 21
79.8174
 31
0.0
  0
LINE
  8
0
 62
     0
 10
63.7191
 20
79.8174
 30
0.0
 11
64.5199
 21
79.8174
 31
0.0
  0
LINE
  8
0
 62
     0
 10
64.5199
 20
79.8174
 30
0.0
 11
64.5199
 21
82.9179
 31
0.0
  0
LINE
  8
0
 62
     0
 10
64.5199
 20
82.9179
 30
0.0
 11
63.7191
 21
82.9179
 31
0.0
  0
LINE
  8
0
 62
     0
 10
63.7191
 20
82.9179
 30
0.0
 11
63.7191
 21
88.718
 31
0.0
  0
LINE
  8
0
 62
     0
 10
63.7191
 20
88.718
 30
0.0
 11
64.5199
 21
88.718
 31
0.0
  0
LINE
  8
0
 62
     0
 10
64.5199
 20
88.718
 30
0.0
 11
64.5199
 21
91.8175
 31
0.0
  0
LINE
  8
0
 62
     0
 10
64.5199
 20
91.8175
 30
0.0
 11
63.7191
 21
91.8175
 31
0.0
  0
LINE
  8
0
 62
     0
 10
63.7191
 20
91.8175
 30
0.0
 11
63.7191
 21
92.8176
 31
0.0
  0
LINE
  8
0
 62
     0
 10
63.7191
 20
92.8176
 30
0.0
 11
49.7198
 21
92.8176
 31
0.0
  0
LINE
  8
0
 62
     0
 10
68.7698
 20
92.8176
 30
0.0
 11
68.7698
 21
91.8175
 31
0.0
  0
LINE
  8
0
 62
     0
 10
68.7698
 20
91.8175
 30
0.0
 11
67.9704
 21
91.8175
 31
0.0
  0
LINE
  8
0
 62
     0
 10
67.9704
 20
91.8175
 30
0.0
 11
67.9704
 21
88.718
 31
0.0
  0
LINE
  8
0
 62
     0
 10
67.9704
 20
88.718
 30
0.0
 11
68.7698
 21
88.718
 31
0.0
  0
LINE
  8
0
 62
     0
 10
68.7698
 20
88.718
 30
0.0
 11
68.7698
 21
82.9179
 31
0.0
  0
LINE
  8
0
 62
     0
 10
68.7698
 20
82.9179
 30
0.0
 11
67.9704
 21
82.9179
 31
0.0
  0
LINE
  8
0
 62
     0
 10
67.9704
 20
82.9179
 30
0.0
 11
67.9704
 21
79.8174
 31
0.0
  0
LINE
  8
0
 62
     0
 10
67.9704
 20
79.8174
 30
0.0
 11
68.7698
 21
79.8174
 31
0.0
  0
LINE
  8
0
 62
     0
 10
68.7698
 20
79.8174
 30
0.0
 11
68.7698
 21
78.8183
 31
0.0
  0
LINE
  8
0
 62
     0
 10
68.7698
 20
78.8183
 30
0.0
 11
82.7691
 21
78.8183
 31
0.0
  0
LINE
  8
0
 62
     0
 10
82.7691
 20
78.8183
 30
0.0
 11
82.7691
 21
79.8174
 31
0.0
  0
LINE
  8
0
 62
     0
 10
82.7691
 20
79.8174
 30
0.0
 11
83.5699
 21
79.8174
 31
0.0
  0
LINE
  8
0
 62
     0
 10
83.5699
 20
79.8174
 30
0.0
 11
83.5699
 21
82.9179
 31
0.0
  0
LINE
  8
0
 62
     0
 10
83.5699
 20
82.9179
 30
0.0
 11
82.7691
 21
82.9179
 31
0.0
  0
LINE
  8
0
 62
     0
 10
82.7691
 20
82.9179
 30
0.0
 11
82.7691
 21
88.718
 31
0.0
  0
LINE
  8
0
 62
     0
 10
82.7691
 20
88.718
 30
0.0
 11
83.5699
 21
88.718
 31
0.0
  0
LINE
  8
0
 62
     0
 10
83.5699
 20
88.718
 30
0.0
 11
83.5699
 21
91.8175
 31
0.0
  0
LINE
  8
0
 62
     0
 10
83.5699
 20
91.8175
 30
0.0
 11
82.7691
 21
91.8175
 31
0.0
  0
LINE
  8
0
 62
     0
 10
82.7691
 20
91.8175
 30
0.0
 11
82.7691
 21
92.8176
 31
0.0
  0
LINE
  8
0
 62
     0
 10
82.7691
 20
92.8176
 30
0.0
 11
68.7698
 21
92.8176
 31
0.0
  0
LINE
  8
0
 62
     0
 10
87.8198
 20
92.8176
 30
0.0
 11
87.8198
 21
91.8175
 31
0.0
  0
LINE
  8
0
 62
     0
 10
87.8198
 20
91.8175
 30
0.0
 11
87.0204
 21
91.8175
 31
0.0
  0
LINE
  8
0
 62
     0
 10
87.0204
 20
91.8175
 30
0.0
 11
87.0204
 21
88.718
 31
0.0
  0
LINE
  8
0
 62
     0
 10
87.0204
 20
88.718
 30
0.0
 11
87.8198
 21
88.718
 31
0.0
  0
LINE
  8
0
 62
     0
 10
87.8198
 20
88.718
 30
0.0
 11
87.8198
 21
82.9179
 31
0.0
  0
LINE
  8
0
 62
     0
 10
87.8198
 20
82.9179
 30
0.0
 11
87.0204
 21
82.9179
 31
0.0
  0
LINE
  8
0
 62
     0
 10
87.0204
 20
82.9179
 30
0.0
 11
87.0204
 21
79.8174
 31
0.0
  0
LINE
  8
0
 62
     0
 10
87.0204
 20
79.8174
 30
0.0
 11
87.8198
 21
79.8174
 31
0.0
  0
LINE
  8
0
 62
     0
 10
87.8198
 20
79.8174
 30
0.0
 11
87.8198
 21
78.8183
 31
0.0
  0
LINE
  8
0
 62
     0
 10
87.8198
 20
78.8183
 30
0.0
 11
101.819
 21
78.8183
 31
0.0
  0
LINE
  8
0
 62
     0
 10
101.819
 20
78.8183
 30
0.0
 11
101.819
 21
79.8174
 31
0.0
  0
LINE
  8
0
 62
     0
 10
101.819
 20
79.8174
 30
0.0
 11
102.618
 21
79.8174
 31
0.0
  0
LINE
  8
0
 62
     0
 10
102.618
 20
79.8174
 30
0.0
 11
102.618
 21
82.9179
 31
0.0
  0
LINE
  8
0
 62
     0
 10
102.618
 20
82.9179
 30
0.0
 11
101.819
 21
82.9179
 31
0.0
  0
LINE
  8
0
 62
     0
 10
101.819
 20
82.9179
 30
0.0
 11
101.819
 21
88.718
 31
0.0
  0
LINE
  8
0
 62
     0
 10
101.819
 20
88.718
 30
0.0
 11
102.618
 21
88.718
 31
0.0
  0
LINE
  8
0
 62
     0
 10
102.618
 20
88.718
 30
0.0
 11
102.618
 21
91.8175
 31
0.0
  0
LINE
  8
0
 62
     0
 10
102.618
 20
91.8175
 30
0.0
 11
101.819
 21
91.8175
 31
0.0
  0
LINE
  8
0
 62
     0
 10
101.819
 20
91.8175
 30
0.0
 11
101.819
 21
92.8176
 31
0.0
  0
LINE
  8
0
 62
     0
 10
101.819
 20
92.8176
 30
0.0
 11
87.8198
 21
92.8176
 31
0.0
  0
LINE
  8
0
 62
     0
 10
106.868
 20
92.8176
 30
0.0
 11
106.868
 21
91.8175
 31
0.0
  0
LINE
  8
0
 62
     0
 10
106.868
 20
91.8175
 30
0.0
 11
106.07
 21
91.8175
 31
0.0
  0
LINE
  8
0
 62
     0
 10
106.07
 20
91.8175
 30
0.0
 11
106.07
 21
88.718
 31
0.0
  0
LINE
  8
0
 62
     0
 10
106.07
 20
88.718
 30
0.0
 11
106.868
 21
88.718
 31
0.0
  0
LINE
  8
0
 62
     0
 10
106.868
 20
88.718
 30
0.0
 11
106.868
 21
82.9179
 31
0.0
  0
LINE
  8
0
 62
     0
 10
106.868
 20
82.9179
 30
0.0
 11
106.07
 21
82.9179
 31
0.0
  0
LINE
  8
0
 62
     0
 10
106.07
 20
82.9179
 30
0.0
 11
106.07
 21
79.8174
 31
0.0
  0
LINE
  8
0
 62
     0
 10
106.07
 20
79.8174
 30
0.0
 11
106.868
 21
79.8174
 31
0.0
  0
LINE
  8
0
 62
     0
 10
106.868
 20
79.8174
 30
0.0
 11
106.868
 21
78.8183
 31
0.0
  0
LINE
  8
0
 62
     0
 10
106.868
 20
78.8183
 30
0.0
 11
120.869
 21
78.8183
 31
0.0
  0
LINE
  8
0
 62
     0
 10
120.869
 20
78.8183
 30
0.0
 11
120.869
 21
79.8174
 31
0.0
  0
LINE
  8
0
 62
     0
 10
120.869
 20
79.8174
 30
0.0
 11
121.668
 21
79.8174
 31
0.0
  0
LINE
  8
0
 62
     0
 10
121.668
 20
79.8174
 30
0.0
 11
121.668
 21
82.9179
 31
0.0
  0
LINE
  8
0
 62
     0
 10
121.668
 20
82.9179
 30
0.0
 11
120.869
 21
82.9179
 31
0.0
  0
LINE
  8
0
 62
     0
 10
120.869
 20
82.9179
 30
0.0
 11
120.869
 21
88.718
 31
0.0
  0
LINE
  8
0
 62
     0
 10
120.869
 20
88.718
 30
0.0
 11
121.668
 21
88.718
 31
0.0
  0
LINE
  8
0
 62
     0
 10
121.668
 20
88.718
 30
0.0
 11
121.668
 21
91.8175
 31
0.0
  0
LINE
  8
0
 62
     0
 10
121.668
 20
91.8175
 30
0.0
 11
120.869
 21
91.8175
 31
0.0
  0
LINE
  8
0
 62
     0
 10
120.869
 20
91.8175
 30
0.0
 11
120.869
 21
92.8176
 31
0.0
  0
LINE
  8
0
 62
     0
 10
120.869
 20
92.8176
 30
0.0
 11
106.868
 21
92.8176
 31
0.0
  0
LINE
  8
0
 62
     0
 10
125.918
 20
92.8176
 30
0.0
 11
125.918
 21
91.8175
 31
0.0
  0
LINE
  8
0
 62
     0
 10
125.918
 20
91.8175
 30
0.0
 11
125.119
 21
91.8175
 31
0.0
  0
LINE
  8
0
 62
     0
 10
125.119
 20
91.8175
 30
0.0
 11
125.119
 21
88.718
 31
0.0
  0
LINE
  8
0
 62
     0
 10
125.119
 20
88.718
 30
0.0
 11
125.918
 21
88.718
 31
0.0
  0
LINE
  8
0
 62
     0
 10
125.918
 20
88.718
 30
0.0
 11
125.918
 21
82.9179
 31
0.0
  0
LINE
  8
0
 62
     0
 10
125.918
 20
82.9179
 30
0.0
 11
125.119
 21
82.9179
 31
0.0
  0
LINE
  8
0
 62
     0
 10
125.119
 20
82.9179
 30
0.0
 11
125.119
 21
79.8174
 31
0.0
  0
LINE
  8
0
 62
     0
 10
125.119
 20
79.8174
 30
0.0
 11
125.918
 21
79.8174
 31
0.0
  0
LINE
  8
0
 62
     0
 10
125.918
 20
79.8174
 30
0.0
 11
125.918
 21
78.8183
 31
0.0
  0
LINE
  8
0
 62
     0
 10
125.918
 20
78.8183
 30
0.0
 11
139.919
 21
78.8183
 31
0.0
  0
LINE
  8
0
 62
     0
 10
139.919
 20
78.8183
 30
0.0
 11
139.919
 21
79.8174
 31
0.0
  0
LINE
  8
0
 62
     0
 10
139.919
 20
79.8174
 30
0.0
 11
140.72
 21
79.8174
 31
0.0
  0
LINE
  8
0
 62
     0
 10
140.72
 20
79.8174
 30
0.0
 11
140.72
 21
82.9179
 31
0.0
  0
LINE
  8
0
 62
     0
 10
140.72
 20
82.9179
 30
0.0
 11
139.919
 21
82.9179
 31
0.0
  0
LINE
  8
0
 62
     0
 10
139.919
 20
82.9179
 30
0.0
 11
139.919
 21
88.718
 31
0.0
  0
LINE
  8
0
 62
     0
 10
139.919
 20
88.718
 30
0.0
 11
140.72
 21
88.718
 31
0.0
  0
LINE
  8
0
 62
     0
 10
140.72
 20
88.718
 30
0.0
 11
140.72
 21
91.8175
 31
0.0
  0
LINE
  8
0
 62
     0
 10
140.72
 20
91.8175
 30
0.0
 11
139.919
 21
91.8175
 31
0.0
  0
LINE
  8
0
 62
     0
 10
139.919
 20
91.8175
 30
0.0
 11
139.919
 21
92.8176
 31
0.0
  0
LINE
  8
0
 62
     0
 10
139.919
 20
92.8176
 30
0.0
 11
125.918
 21
92.8176
 31
0.0
  0
LINE
  8
0
 62
     0
 10
144.97
 20
92.8176
 30
0.0
 11
144.97
 21
91.8175
 31
0.0
  0
LINE
  8
0
 62
     0
 10
144.97
 20
91.8175
 30
0.0
 11
144.17
 21
91.8175
 31
0.0
  0
LINE
  8
0
 62
     0
 10
144.17
 20
91.8175
 30
0.0
 11
144.17
 21
88.718
 31
0.0
  0
LINE
  8
0
 62
     0
 10
144.17
 20
88.718
 30
0.0
 11
144.97
 21
88.718
 31
0.0
  0
LINE
  8
0
 62
     0
 10
144.97
 20
88.718
 30
0.0
 11
144.97
 21
82.9179
 31
0.0
  0
LINE
  8
0
 62
     0
 10
144.97
 20
82.9179
 30
0.0
 11
144.17
 21
82.9179
 31
0.0
  0
LINE
  8
0
 62
     0
 10
144.17
 20
82.9179
 30
0.0
 11
144.17
 21
79.8174
 31
0.0
  0
LINE
  8
0
 62
     0
 10
144.17
 20
79.8174
 30
0.0
 11
144.97
 21
79.8174
 31
0.0
  0
LINE
  8
0
 62
     0
 10
144.97
 20
79.8174
 30
0.0
 11
144.97
 21
78.8183
 31
0.0
  0
LINE
  8
0
 62
     0
 10
144.97
 20
78.8183
 30
0.0
 11
158.969
 21
78.8183
 31
0.0
  0
LINE
  8
0
 62
     0
 10
158.969
 20
78.8183
 30
0.0
 11
158.969
 21
79.8174
 31
0.0
  0
LINE
  8
0
 62
     0
 10
158.969
 20
79.8174
 30
0.0
 11
159.77
 21
79.8174
 31
0.0
  0
LINE
  8
0
 62
     0
 10
159.77
 20
79.8174
 30
0.0
 11
159.77
 21
82.9179
 31
0.0
  0
LINE
  8
0
 62
     0
 10
159.77
 20
82.9179
 30
0.0
 11
158.969
 21
82.9179
 31
0.0
  0
LINE
  8
0
 62
     0
 10
158.969
 20
82.9179
 30
0.0
 11
158.969
 21
88.718
 31
0.0
  0
LINE
  8
0
 62
     0
 10
158.969
 20
88.718
 30
0.0
 11
159.77
 21
88.718
 31
0.0
  0
LINE
  8
0
 62
     0
 10
159.77
 20
88.718
 30
0.0
 11
159.77
 21
91.8175
 31
0.0
  0
LINE
  8
0
 62
     0
 10
159.77
 20
91.8175
 30
0.0
 11
158.969
 21
91.8175
 31
0.0
  0
LINE
  8
0
 62
     0
 10
158.969
 20
91.8175
 30
0.0
 11
158.969
 21
92.8176
 31
0.0
  0
LINE
  8
0
 62
     0
 10
158.969
 20
92.8176
 30
0.0
 11
144.97
 21
92.8176
 31
0.0
  0
LINE
  8
0
 62
     0
 10
164.02
 20
92.8176
 30
0.0
 11
164.02
 21
91.8175
 31
0.0
  0
LINE
  8
0
 62
     0
 10
164.02
 20
91.8175
 30
0.0
 11
163.22
 21
91.8175
 31
0.0
  0
LINE
  8
0
 62
     0
 10
163.22
 20
91.8175
 30
0.0
 11
163.22
 21
88.718
 31
0.0
  0
LINE
  8
0
 62
     0
 10
163.22
 20
88.718
 30
0.0
 11
164.02
 21
88.718
 31
0.0
  0
LINE
  8
0
 62
     0
 10
164.02
 20
88.718
 30
0.0
 11
164.02
 21
82.9179
 31
0.0
  0
LINE
  8
0
 62
     0
 10
164.02
 20
82.9179
 30
0.0
 11
163.22
 21
82.9179
 31
0.0
  0
LINE
  8
0
 62
     0
 10
163.22
 20
82.9179
 30
0.0
 11
163.22
 21
79.8174
 31
0.0
  0
LINE
  8
0
 62
     0
 10
163.22
 20
79.8174
 30
0.0
 11
164.02
 21
79.8174
 31
0.0
  0
LINE
  8
0
 62
     0
 10
164.02
 20
79.8174
 30
0.0
 11
164.02
 21
78.8183
 31
0.0
  0
LINE
  8
0
 62
     0
 10
164.02
 20
78.8183
 30
0.0
 11
178.019
 21
78.8183
 31
0.0
  0
LINE
  8
0
 62
     0
 10
178.019
 20
78.8183
 30
0.0
 11
178.019
 21
79.8174
 31
0.0
  0
LINE
  8
0
 62
     0
 10
178.019
 20
79.8174
 30
0.0
 11
178.82
 21
79.8174
 31
0.0
  0
LINE
  8
0
 62
     0
 10
178.82
 20
79.8174
 30
0.0
 11
178.82
 21
82.9179
 31
0.0
  0
LINE
  8
0
 62
     0
 10
178.82
 20
82.9179
 30
0.0
 11
178.019
 21
82.9179
 31
0.0
  0
LINE
  8
0
 62
     0
 10
178.019
 20
82.9179
 30
0.0
 11
178.019
 21
88.718
 31
0.0
  0
LINE
  8
0
 62
     0
 10
178.019
 20
88.718
 30
0.0
 11
178.82
 21
88.718
 31
0.0
  0
LINE
  8
0
 62
     0
 10
178.82
 20
88.718
 30
0.0
 11
178.82
 21
91.8175
 31
0.0
  0
LINE
  8
0
 62
     0
 10
178.82
 20
91.8175
 30
0.0
 11
178.019
 21
91.8175
 31
0.0
  0
LINE
  8
0
 62
     0
 10
178.019
 20
91.8175
 30
0.0
 11
178.019
 21
92.8176
 31
0.0
  0
LINE
  8
0
 62
     0
 10
178.019
 20
92.8176
 30
0.0
 11
164.02
 21
92.8176
 31
0.0
  0
LINE
  8
0
 62
     0
 10
183.07
 20
92.8176
 30
0.0
 11
183.07
 21
91.8175
 31
0.0
  0
LINE
  8
0
 62
     0
 10
183.07
 20
91.8175
 30
0.0
 11
182.27
 21
91.8175
 31
0.0
  0
LINE
  8
0
 62
     0
 10
182.27
 20
91.8175
 30
0.0
 11
182.27
 21
88.718
 31
0.0
  0
LINE
  8
0
 62
     0
 10
182.27
 20
88.718
 30
0.0
 11
183.07
 21
88.718
 31
0.0
  0
LINE
  8
0
 62
     0
 10
183.07
 20
88.718
 30
0.0
 11
183.07
 21
82.9179
 31
0.0
  0
LINE
  8
0
 62
     0
 10
183.07
 20
82.9179
 30
0.0
 11
182.27
 21
82.9179
 31
0.0
  0
LINE
  8
0
 62
     0
 10
182.27
 20
82.9179
 30
0.0
 11
182.27
 21
79.8174
 31
0.0
  0
LINE
  8
0
 62
     0
 10
182.27
 20
79.8174
 30
0.0
 11
183.07
 21
79.8174
 31
0.0
  0
LINE
  8
0
 62
     0
 10
183.07
 20
79.8174
 30
0.0
 11
183.07
 21
78.8183
 31
0.0
  0
LINE
  8
0
 62
     0
 10
183.07
 20
78.8183
 30
0.0
 11
197.069
 21
78.8183
 31
0.0
  0
LINE
  8
0
 62
     0
 10
197.069
 20
78.8183
 30
0.0
 11
197.069
 21
79.8174
 31
0.0
  0
LINE
  8
0
 62
     0
 10
197.069
 20
79.8174
 30
0.0
 11
197.87
 21
79.8174
 31
0.0
  0
LINE
  8
0
 62
     0
 10
197.87
 20
79.8174
 30
0.0
 11
197.87
 21
82.9179
 31
0.0
  0
LINE
  8
0
 62
     0
 10
197.87
 20
82.9179
 30
0.0
 11
197.069
 21
82.9179
 31
0.0
  0
LINE
  8
0
 62
     0
 10
197.069
 20
82.9179
 30
0.0
 11
197.069
 21
88.718
 31
0.0
  0
LINE
  8
0
 62
     0
 10
197.069
 20
88.718
 30
0.0
 11
197.87
 21
88.718
 31
0.0
  0
LINE
  8
0
 62
     0
 10
197.87
 20
88.718
 30
0.0
 11
197.87
 21
91.8175
 31
0.0
  0
LINE
  8
0
 62
     0
 10
197.87
 20
91.8175
 30
0.0
 11
197.069
 21
91.8175
 31
0.0
  0
LINE
  8
0
 62
     0
 10
197.069
 20
91.8175
 30
0.0
 11
197.069
 21
92.8176
 31
0.0
  0
LINE
  8
0
 62
     0
 10
197.069
 20
92.8176
 30
0.0
 11
183.07
 21
92.8176
 31
0.0
  0
LINE
  8
0
 62
     0
 10
202.12
 20
92.8176
 30
0.0
 11
202.12
 21
91.8175
 31
0.0
  0
LINE
  8
0
 62
     0
 10
202.12
 20
91.8175
 30
0.0
 11
201.32
 21
91.8175
 31
0.0
  0
LINE
  8
0
 62
     0
 10
201.32
 20
91.8175
 30
0.0
 11
201.32
 21
88.718
 31
0.0
  0
LINE
  8
0
 62
     0
 10
201.32
 20
88.718
 30
0.0
 11
202.12
 21
88.718
 31
0.0
  0
LINE
  8
0
 62
     0
 10
202.12
 20
88.718
 30
0.0
 11
202.12
 21
82.9179
 31
0.0
  0
LINE
  8
0
 62
     0
 10
202.12
 20
82.9179
 30
0.0
 11
201.32
 21
82.9179
 31
0.0
  0
LINE
  8
0
 62
     0
 10
201.32
 20
82.9179
 30
0.0
 11
201.32
 21
79.8174
 31
0.0
  0
LINE
  8
0
 62
     0
 10
201.32
 20
79.8174
 30
0.0
 11
202.12
 21
79.8174
 31
0.0
  0
LINE
  8
0
 62
     0
 10
202.12
 20
79.8174
 30
0.0
 11
202.12
 21
78.8183
 31
0.0
  0
LINE
  8
0
 62
     0
 10
202.12
 20
78.8183
 30
0.0
 11
216.119
 21
78.8183
 31
0.0
  0
LINE
  8
0
 62
     0
 10
216.119
 20
78.8183
 30
0.0
 11
216.119
 21
79.8174
 31
0.0
  0
LINE
  8
0
 62
     0
 10
216.119
 20
79.8174
 30
0.0
 11
216.92
 21
79.8174
 31
0.0
  0
LINE
  8
0
 62
     0
 10
216.92
 20
79.8174
 30
0.0
 11
216.92
 21
82.9179
 31
0.0
  0
LINE
  8
0
 62
     0
 10
216.92
 20
82.9179
 30
0.0
 11
216.119
 21
82.9179
 31
0.0
  0
LINE
  8
0
 62
     0
 10
216.119
 20
82.9179
 30
0.0
 11
216.119
 21
88.718
 31
0.0
  0
LINE
  8
0
 62
     0
 10
216.119
 20
88.718
 30
0.0
 11
216.92
 21
88.718
 31
0.0
  0
LINE
  8
0
 62
     0
 10
216.92
 20
88.718
 30
0.0
 11
216.92
 21
91.8175
 31
0.0
  0
LINE
  8
0
 62
     0
 10
216.92
 20
91.8175
 30
0.0
 11
216.119
 21
91.8175
 31
0.0
  0
LINE
  8
0
 62
     0
 10
216.119
 20
91.8175
 30
0.0
 11
216.119
 21
92.8176
 31
0.0
  0
LINE
  8
0
 62
     0
 10
216.119
 20
92.8176
 30
0.0
 11
202.12
 21
92.8176
 31
0.0
  0
LINE
  8
0
 62
     0
 10
221.17
 20
92.8176
 30
0.0
 11
221.17
 21
91.8175
 31
0.0
  0
LINE
  8
0
 62
     0
 10
221.17
 20
91.8175
 30
0.0
 11
220.37
 21
91.8175
 31
0.0
  0
LINE
  8
0
 62
     0
 10
220.37
 20
91.8175
 30
0.0
 11
220.37
 21
88.718
 31
0.0
  0
LINE
  8
0
 62
     0
 10
220.37
 20
88.718
 30
0.0
 11
221.17
 21
88.718
 31
0.0
  0
LINE
  8
0
 62
     0
 10
221.17
 20
88.718
 30
0.0
 11
221.17
 21
82.9179
 31
0.0
  0
LINE
  8
0
 62
     0
 10
221.17
 20
82.9179
 30
0.0
 11
220.37
 21
82.9179
 31
0.0
  0
LINE
  8
0
 62
     0
 10
220.37
 20
82.9179
 30
0.0
 11
220.37
 21
79.8174
 31
0.0
  0
LINE
  8
0
 62
     0
 10
220.37
 20
79.8174
 30
0.0
 11
221.17
 21
79.8174
 31
0.0
  0
LINE
  8
0
 62
     0
 10
221.17
 20
79.8174
 30
0.0
 11
221.17
 21
78.8183
 31
0.0
  0
LINE
  8
0
 62
     0
 10
221.17
 20
78.8183
 30
0.0
 11
235.169
 21
78.8183
 31
0.0
  0
LINE
  8
0
 62
     0
 10
235.169
 20
78.8183
 30
0.0
 11
235.169
 21
79.8174
 31
0.0
  0
LINE
  8
0
 62
     0
 10
235.169
 20
79.8174
 30
0.0
 11
235.97
 21
79.8174
 31
0.0
  0
LINE
  8
0
 62
     0
 10
235.97
 20
79.8174
 30
0.0
 11
235.97
 21
82.9179
 31
0.0
  0
LINE
  8
0
 62
     0
 10
235.97
 20
82.9179
 30
0.0
 11
235.169
 21
82.9179
 31
0.0
  0
LINE
  8
0
 62
     0
 10
235.169
 20
82.9179
 30
0.0
 11
235.169
 21
88.718
 31
0.0
  0
LINE
  8
0
 62
     0
 10
235.169
 20
88.718
 30
0.0
 11
235.97
 21
88.718
 31
0.0
  0
LINE
  8
0
 62
     0
 10
235.97
 20
88.718
 30
0.0
 11
235.97
 21
91.8175
 31
0.0
  0
LINE
  8
0
 62
     0
 10
235.97
 20
91.8175
 30
0.0
 11
235.169
 21
91.8175
 31
0.0
  0
LINE
  8
0
 62
     0
 10
235.169
 20
91.8175
 30
0.0
 11
235.169
 21
92.8176
 31
0.0
  0
LINE
  8
0
 62
     0
 10
235.169
 20
92.8176
 30
0.0
 11
221.17
 21
92.8176
 31
0.0
  0
LINE
  8
0
 62
     0
 10
240.22
 20
92.8176
 30
0.0
 11
240.22
 21
91.8175
 31
0.0
  0
LINE
  8
0
 62
     0
 10
240.22
 20
91.8175
 30
0.0
 11
239.42
 21
91.8175
 31
0.0
  0
LINE
  8
0
 62
     0
 10
239.42
 20
91.8175
 30
0.0
 11
239.42
 21
88.718
 31
0.0
  0
LINE
  8
0
 62
     0
 10
239.42
 20
88.718
 30
0.0
 11
240.22
 21
88.718
 31
0.0
  0
LINE
  8
0
 62
     0
 10
240.22
 20
88.718
 30
0.0
 11
240.22
 21
82.9179
 31
0.0
  0
LINE
  8
0
 62
     0
 10
240.22
 20
82.9179
 30
0.0
 11
239.42
 21
82.9179
 31
0.0
  0
LINE
  8
0
 62
     0
 10
239.42
 20
82.9179
 30
0.0
 11
239.42
 21
79.8174
 31
0.0
  0
LINE
  8
0
 62
     0
 10
239.42
 20
79.8174
 30
0.0
 11
240.22
 21
79.8174
 31
0.0
  0
LINE
  8
0
 62
     0
 10
240.22
 20
79.8174
 30
0.0
 11
240.22
 21
78.8183
 31
0.0
  0
LINE
  8
0
 62
     0
 10
240.22
 20
78.8183
 30
0.0
 11
254.219
 21
78.8183
 31
0.0
  0
LINE
  8
0
 62
     0
 10
254.219
 20
78.8183
 30
0.0
 11
254.219
 21
79.8174
 31
0.0
  0
LINE
  8
0
 62
     0
 10
254.219
 20
79.8174
 30
0.0
 11
255.02
 21
79.8174
 31
0.0
  0
LINE
  8
0
 62
     0
 10
255.02
 20
79.8174
 30
0.0
 11
255.02
 21
82.9179
 31
0.0
  0
LINE
  8
0
 62
     0
 10
255.02
 20
82.9179
 30
0.0
 11
254.219
 21
82.9179
 31
0.0
  0
LINE
  8
0
 62
     0
 10
254.219
 20
82.9179
 30
0.0
 11
254.219
 21
88.718
 31
0.0
  0
LINE
  8
0
 62
     0
 10
254.219
 20
88.718
 30
0.0
 11
255.02
 21
88.718
 31
0.0
  0
LINE
  8
0
 62
     0
 10
255.02
 20
88.718
 30
0.0
 11
255.02
 21
91.8175
 31
0.0
  0
LINE
  8
0
 62
     0
 10
255.02
 20
91.8175
 30
0.0
 11
254.219
 21
91.8175
 31
0.0
  0
LINE
  8
0
 62
     0
 10
254.219
 20
91.8175
 30
0.0
 11
254.219
 21
92.8176
 31
0.0
  0
LINE
  8
0
 62
     0
 10
254.219
 20
92.8176
 30
0.0
 11
240.22
 21
92.8176
 31
0.0
  0
ENDSEC
  0
EOF
