  0
SECTION
  2
HEADER
  9
$ACADVER
  1
AC1009
  9
$EXTMIN
 10
0.0
 20
0.0
 30
0.0
  9
$EXTMAX
 10
1000.0
 20
1000.0
 30
0.0
  9
$FILLMODE
 70
 0
  9
$SPLFRAME
 70
 1
  0
ENDSEC
  0
SECTION
  2
TABLES
  0
TABLE
  2
LAYER
 70
1
  0
LAYER
  2
0
 70
     0
 62
     7
  6
CONTINUOUS
  0
ENDTAB
  0
ENDSEC
  0
SECTION
  2
ENTITIES
  0
LINE
  8
0
 62
     0
 10
0.0937066
 20
105.344
 30
0.0
 11
305.845
 21
105.344
 31
0.0
  0
LINE
  8
0
 62
     0
 10
305.845
 20
105.344
 30
0.0
 11
305.845
 21
0.0937066
 31
0.0
  0
LINE
  8
0
 62
     0
 10
305.845
 20
0.0937066
 30
0.0
 11
0.0937066
 21
0.0937066
 31
0.0
  0
LINE
  8
0
 62
     0
 10
0.0937066
 20
0.0937066
 30
0.0
 11
0.0937066
 21
105.344
 31
0.0
  0
LINE
  8
0
 62
     0
 10
112.631
 20
21.6187
 30
0.0
 11
112.631
 21
20.6196
 31
0.0
  0
LINE
  8
0
 62
     0
 10
112.631
 20
20.6196
 30
0.0
 11
111.831
 21
20.6196
 31
0.0
  0
LINE
  8
0
 62
     0
 10
111.831
 20
20.6196
 30
0.0
 11
111.831
 21
17.5204
 31
0.0
  0
LINE
  8
0
 62
     0
 10
111.831
 20
17.5204
 30
0.0
 11
112.631
 21
17.5204
 31
0.0
  0
LINE
  8
0
 62
     0
 10
112.631
 20
17.5204
 30
0.0
 11
112.631
 21
16.9195
 31
0.0
  0
LINE
  8
0
 62
     0
 10
112.631
 20
16.9195
 30
0.0
 11
103.955
 21
16.9195
 31
0.0
  0
LINE
  8
0
 62
     0
 10
103.955
 20
16.9195
 30
0.0
 11
103.955
 21
20.1497
 31
0.0
  0
LINE
  8
0
 62
     0
 10
103.955
 20
20.1497
 30
0.0
 11
102.231
 21
20.1497
 31
0.0
  0
LINE
  8
0
 62
     0
 10
102.231
 20
20.1497
 30
0.0
 11
102.231
 21
21.0702
 31
0.0
  0
LINE
  8
0
 62
     0
 10
102.231
 20
21.0702
 30
0.0
 11
98.9309
 21
21.0702
 31
0.0
  0
LINE
  8
0
 62
     0
 10
98.9309
 20
21.0702
 30
0.0
 11
98.9309
 21
20.1497
 31
0.0
  0
LINE
  8
0
 62
     0
 10
98.9309
 20
20.1497
 30
0.0
 11
97.2054
 21
20.1497
 31
0.0
  0
LINE
  8
0
 62
     0
 10
97.2054
 20
20.1497
 30
0.0
 11
97.2054
 21
16.9195
 31
0.0
  0
LINE
  8
0
 62
     0
 10
97.2054
 20
16.9195
 30
0.0
 11
96.3814
 21
16.9195
 31
0.0
  0
LINE
  8
0
 62
     0
 10
96.3814
 20
16.9195
 30
0.0
 11
96.3814
 21
14.1194
 31
0.0
  0
LINE
  8
0
 62
     0
 10
96.3814
 20
14.1194
 30
0.0
 11
97.2054
 21
14.1194
 31
0.0
  0
LINE
  8
0
 62
     0
 10
97.2054
 20
14.1194
 30
0.0
 11
97.2054
 21
7.85068
 31
0.0
  0
LINE
  8
0
 62
     0
 10
97.2054
 20
7.85068
 30
0.0
 11
98.9309
 21
7.85068
 31
0.0
  0
LINE
  8
0
 62
     0
 10
98.9309
 20
7.85068
 30
0.0
 11
98.9309
 21
6.86954
 31
0.0
  0
LINE
  8
0
 62
     0
 10
98.9309
 20
6.86954
 30
0.0
 11
102.231
 21
6.86954
 31
0.0
  0
LINE
  8
0
 62
     0
 10
102.231
 20
6.86954
 30
0.0
 11
102.231
 21
7.85068
 31
0.0
  0
LINE
  8
0
 62
     0
 10
102.231
 20
7.85068
 30
0.0
 11
103.955
 21
7.85068
 31
0.0
  0
LINE
  8
0
 62
     0
 10
103.955
 20
7.85068
 30
0.0
 11
103.955
 21
12.3197
 31
0.0
  0
LINE
  8
0
 62
     0
 10
103.955
 20
12.3197
 30
0.0
 11
112.631
 21
12.3197
 31
0.0
  0
LINE
  8
0
 62
     0
 10
112.631
 20
12.3197
 30
0.0
 11
112.631
 21
11.7189
 31
0.0
  0
LINE
  8
0
 62
     0
 10
112.631
 20
11.7189
 30
0.0
 11
111.831
 21
11.7189
 31
0.0
  0
LINE
  8
0
 62
     0
 10
111.831
 20
11.7189
 30
0.0
 11
111.831
 21
8.61963
 31
0.0
  0
LINE
  8
0
 62
     0
 10
111.831
 20
8.61963
 30
0.0
 11
112.631
 21
8.61963
 31
0.0
  0
LINE
  8
0
 62
     0
 10
112.631
 20
8.61963
 30
0.0
 11
112.631
 21
7.61919
 31
0.0
  0
LINE
  8
0
 62
     0
 10
112.631
 20
7.61919
 30
0.0
 11
126.631
 21
7.61919
 31
0.0
  0
LINE
  8
0
 62
     0
 10
126.631
 20
7.61919
 30
0.0
 11
126.631
 21
8.61963
 31
0.0
  0
LINE
  8
0
 62
     0
 10
126.631
 20
8.61963
 30
0.0
 11
127.431
 21
8.61963
 31
0.0
  0
LINE
  8
0
 62
     0
 10
127.431
 20
8.61963
 30
0.0
 11
127.431
 21
11.7189
 31
0.0
  0
LINE
  8
0
 62
     0
 10
127.431
 20
11.7189
 30
0.0
 11
126.631
 21
11.7189
 31
0.0
  0
LINE
  8
0
 62
     0
 10
126.631
 20
11.7189
 30
0.0
 11
126.631
 21
12.3197
 31
0.0
  0
LINE
  8
0
 62
     0
 10
126.631
 20
12.3197
 30
0.0
 11
135.305
 21
12.3197
 31
0.0
  0
LINE
  8
0
 62
     0
 10
135.305
 20
12.3197
 30
0.0
 11
135.305
 21
7.85068
 31
0.0
  0
LINE
  8
0
 62
     0
 10
135.305
 20
7.85068
 30
0.0
 11
137.031
 21
7.85068
 31
0.0
  0
LINE
  8
0
 62
     0
 10
137.031
 20
7.85068
 30
0.0
 11
137.031
 21
6.86954
 31
0.0
  0
LINE
  8
0
 62
     0
 10
137.031
 20
6.86954
 30
0.0
 11
140.331
 21
6.86954
 31
0.0
  0
LINE
  8
0
 62
     0
 10
140.331
 20
6.86954
 30
0.0
 11
140.331
 21
7.85068
 31
0.0
  0
LINE
  8
0
 62
     0
 10
140.331
 20
7.85068
 30
0.0
 11
142.055
 21
7.85068
 31
0.0
  0
LINE
  8
0
 62
     0
 10
142.055
 20
7.85068
 30
0.0
 11
142.055
 21
14.1194
 31
0.0
  0
LINE
  8
0
 62
     0
 10
142.055
 20
14.1194
 30
0.0
 11
142.881
 21
14.1194
 31
0.0
  0
LINE
  8
0
 62
     0
 10
142.881
 20
14.1194
 30
0.0
 11
142.881
 21
16.9195
 31
0.0
  0
LINE
  8
0
 62
     0
 10
142.881
 20
16.9195
 30
0.0
 11
142.055
 21
16.9195
 31
0.0
  0
LINE
  8
0
 62
     0
 10
142.055
 20
16.9195
 30
0.0
 11
142.055
 21
20.1497
 31
0.0
  0
LINE
  8
0
 62
     0
 10
142.055
 20
20.1497
 30
0.0
 11
140.331
 21
20.1497
 31
0.0
  0
LINE
  8
0
 62
     0
 10
140.331
 20
20.1497
 30
0.0
 11
140.331
 21
21.0702
 31
0.0
  0
LINE
  8
0
 62
     0
 10
140.331
 20
21.0702
 30
0.0
 11
137.031
 21
21.0702
 31
0.0
  0
LINE
  8
0
 62
     0
 10
137.031
 20
21.0702
 30
0.0
 11
137.031
 21
20.1497
 31
0.0
  0
LINE
  8
0
 62
     0
 10
137.031
 20
20.1497
 30
0.0
 11
135.305
 21
20.1497
 31
0.0
  0
LINE
  8
0
 62
     0
 10
135.305
 20
20.1497
 30
0.0
 11
135.305
 21
16.9195
 31
0.0
  0
LINE
  8
0
 62
     0
 10
135.305
 20
16.9195
 30
0.0
 11
126.631
 21
16.9195
 31
0.0
  0
LINE
  8
0
 62
     0
 10
126.631
 20
16.9195
 30
0.0
 11
126.631
 21
17.5204
 31
0.0
  0
LINE
  8
0
 62
     0
 10
126.631
 20
17.5204
 30
0.0
 11
127.431
 21
17.5204
 31
0.0
  0
LINE
  8
0
 62
     0
 10
127.431
 20
17.5204
 30
0.0
 11
127.431
 21
20.6196
 31
0.0
  0
LINE
  8
0
 62
     0
 10
127.431
 20
20.6196
 30
0.0
 11
126.631
 21
20.6196
 31
0.0
  0
LINE
  8
0
 62
     0
 10
126.631
 20
20.6196
 30
0.0
 11
126.631
 21
21.6187
 31
0.0
  0
LINE
  8
0
 62
     0
 10
126.631
 20
21.6187
 30
0.0
 11
112.631
 21
21.6187
 31
0.0
  0
LINE
  8
0
 62
     0
 10
160.256
 20
21.6187
 30
0.0
 11
160.256
 21
20.6196
 31
0.0
  0
LINE
  8
0
 62
     0
 10
160.256
 20
20.6196
 30
0.0
 11
159.456
 21
20.6196
 31
0.0
  0
LINE
  8
0
 62
     0
 10
159.456
 20
20.6196
 30
0.0
 11
159.456
 21
17.5204
 31
0.0
  0
LINE
  8
0
 62
     0
 10
159.456
 20
17.5204
 30
0.0
 11
160.256
 21
17.5204
 31
0.0
  0
LINE
  8
0
 62
     0
 10
160.256
 20
17.5204
 30
0.0
 11
160.256
 21
16.9195
 31
0.0
  0
LINE
  8
0
 62
     0
 10
160.256
 20
16.9195
 30
0.0
 11
158.731
 21
16.9195
 31
0.0
  0
LINE
  8
0
 62
     0
 10
158.731
 20
16.9195
 30
0.0
 11
158.731
 21
20.1497
 31
0.0
  0
LINE
  8
0
 62
     0
 10
158.731
 20
20.1497
 30
0.0
 11
157.006
 21
20.1497
 31
0.0
  0
LINE
  8
0
 62
     0
 10
157.006
 20
20.1497
 30
0.0
 11
157.006
 21
21.0702
 31
0.0
  0
LINE
  8
0
 62
     0
 10
157.006
 20
21.0702
 30
0.0
 11
153.706
 21
21.0702
 31
0.0
  0
LINE
  8
0
 62
     0
 10
153.706
 20
21.0702
 30
0.0
 11
153.706
 21
20.1497
 31
0.0
  0
LINE
  8
0
 62
     0
 10
153.706
 20
20.1497
 30
0.0
 11
151.981
 21
20.1497
 31
0.0
  0
LINE
  8
0
 62
     0
 10
151.981
 20
20.1497
 30
0.0
 11
151.981
 21
16.9195
 31
0.0
  0
LINE
  8
0
 62
     0
 10
151.981
 20
16.9195
 30
0.0
 11
151.156
 21
16.9195
 31
0.0
  0
LINE
  8
0
 62
     0
 10
151.156
 20
16.9195
 30
0.0
 11
151.156
 21
14.1194
 31
0.0
  0
LINE
  8
0
 62
     0
 10
151.156
 20
14.1194
 30
0.0
 11
151.981
 21
14.1194
 31
0.0
  0
LINE
  8
0
 62
     0
 10
151.981
 20
14.1194
 30
0.0
 11
151.981
 21
7.85068
 31
0.0
  0
LINE
  8
0
 62
     0
 10
151.981
 20
7.85068
 30
0.0
 11
153.706
 21
7.85068
 31
0.0
  0
LINE
  8
0
 62
     0
 10
153.706
 20
7.85068
 30
0.0
 11
153.706
 21
6.86954
 31
0.0
  0
LINE
  8
0
 62
     0
 10
153.706
 20
6.86954
 30
0.0
 11
157.006
 21
6.86954
 31
0.0
  0
LINE
  8
0
 62
     0
 10
157.006
 20
6.86954
 30
0.0
 11
157.006
 21
7.85068
 31
0.0
  0
LINE
  8
0
 62
     0
 10
157.006
 20
7.85068
 30
0.0
 11
158.731
 21
7.85068
 31
0.0
  0
LINE
  8
0
 62
     0
 10
158.731
 20
7.85068
 30
0.0
 11
158.731
 21
12.3197
 31
0.0
  0
LINE
  8
0
 62
     0
 10
158.731
 20
12.3197
 30
0.0
 11
160.256
 21
12.3197
 31
0.0
  0
LINE
  8
0
 62
     0
 10
160.256
 20
12.3197
 30
0.0
 11
160.256
 21
11.7189
 31
0.0
  0
LINE
  8
0
 62
     0
 10
160.256
 20
11.7189
 30
0.0
 11
159.456
 21
11.7189
 31
0.0
  0
LINE
  8
0
 62
     0
 10
159.456
 20
11.7189
 30
0.0
 11
159.456
 21
8.61963
 31
0.0
  0
LINE
  8
0
 62
     0
 10
159.456
 20
8.61963
 30
0.0
 11
160.256
 21
8.61963
 31
0.0
  0
LINE
  8
0
 62
     0
 10
160.256
 20
8.61963
 30
0.0
 11
160.256
 21
7.61919
 31
0.0
  0
LINE
  8
0
 62
     0
 10
160.256
 20
7.61919
 30
0.0
 11
174.256
 21
7.61919
 31
0.0
  0
LINE
  8
0
 62
     0
 10
174.256
 20
7.61919
 30
0.0
 11
174.256
 21
8.61963
 31
0.0
  0
LINE
  8
0
 62
     0
 10
174.256
 20
8.61963
 30
0.0
 11
175.056
 21
8.61963
 31
0.0
  0
LINE
  8
0
 62
     0
 10
175.056
 20
8.61963
 30
0.0
 11
175.056
 21
11.7189
 31
0.0
  0
LINE
  8
0
 62
     0
 10
175.056
 20
11.7189
 30
0.0
 11
174.256
 21
11.7189
 31
0.0
  0
LINE
  8
0
 62
     0
 10
174.256
 20
11.7189
 30
0.0
 11
174.256
 21
12.3197
 31
0.0
  0
LINE
  8
0
 62
     0
 10
174.256
 20
12.3197
 30
0.0
 11
175.781
 21
12.3197
 31
0.0
  0
LINE
  8
0
 62
     0
 10
175.781
 20
12.3197
 30
0.0
 11
175.781
 21
7.85068
 31
0.0
  0
LINE
  8
0
 62
     0
 10
175.781
 20
7.85068
 30
0.0
 11
177.505
 21
7.85068
 31
0.0
  0
LINE
  8
0
 62
     0
 10
177.505
 20
7.85068
 30
0.0
 11
177.505
 21
6.86954
 31
0.0
  0
LINE
  8
0
 62
     0
 10
177.505
 20
6.86954
 30
0.0
 11
180.806
 21
6.86954
 31
0.0
  0
LINE
  8
0
 62
     0
 10
180.806
 20
6.86954
 30
0.0
 11
180.806
 21
7.85068
 31
0.0
  0
LINE
  8
0
 62
     0
 10
180.806
 20
7.85068
 30
0.0
 11
182.531
 21
7.85068
 31
0.0
  0
LINE
  8
0
 62
     0
 10
182.531
 20
7.85068
 30
0.0
 11
182.531
 21
14.1194
 31
0.0
  0
LINE
  8
0
 62
     0
 10
182.531
 20
14.1194
 30
0.0
 11
183.356
 21
14.1194
 31
0.0
  0
LINE
  8
0
 62
     0
 10
183.356
 20
14.1194
 30
0.0
 11
183.356
 21
16.9195
 31
0.0
  0
LINE
  8
0
 62
     0
 10
183.356
 20
16.9195
 30
0.0
 11
182.531
 21
16.9195
 31
0.0
  0
LINE
  8
0
 62
     0
 10
182.531
 20
16.9195
 30
0.0
 11
182.531
 21
20.1497
 31
0.0
  0
LINE
  8
0
 62
     0
 10
182.531
 20
20.1497
 30
0.0
 11
180.806
 21
20.1497
 31
0.0
  0
LINE
  8
0
 62
     0
 10
180.806
 20
20.1497
 30
0.0
 11
180.806
 21
21.0702
 31
0.0
  0
LINE
  8
0
 62
     0
 10
180.806
 20
21.0702
 30
0.0
 11
177.505
 21
21.0702
 31
0.0
  0
LINE
  8
0
 62
     0
 10
177.505
 20
21.0702
 30
0.0
 11
177.505
 21
20.1497
 31
0.0
  0
LINE
  8
0
 62
     0
 10
177.505
 20
20.1497
 30
0.0
 11
175.781
 21
20.1497
 31
0.0
  0
LINE
  8
0
 62
     0
 10
175.781
 20
20.1497
 30
0.0
 11
175.781
 21
16.9195
 31
0.0
  0
LINE
  8
0
 62
     0
 10
175.781
 20
16.9195
 30
0.0
 11
174.256
 21
16.9195
 31
0.0
  0
LINE
  8
0
 62
     0
 10
174.256
 20
16.9195
 30
0.0
 11
174.256
 21
17.5204
 31
0.0
  0
LINE
  8
0
 62
     0
 10
174.256
 20
17.5204
 30
0.0
 11
175.056
 21
17.5204
 31
0.0
  0
LINE
  8
0
 62
     0
 10
175.056
 20
17.5204
 30
0.0
 11
175.056
 21
20.6196
 31
0.0
  0
LINE
  8
0
 62
     0
 10
175.056
 20
20.6196
 30
0.0
 11
174.256
 21
20.6196
 31
0.0
  0
LINE
  8
0
 62
     0
 10
174.256
 20
20.6196
 30
0.0
 11
174.256
 21
21.6187
 31
0.0
  0
LINE
  8
0
 62
     0
 10
174.256
 20
21.6187
 30
0.0
 11
160.256
 21
21.6187
 31
0.0
  0
LINE
  8
0
 62
     0
 10
14.9999
 20
21.6187
 30
0.0
 11
14.9999
 21
20.6196
 31
0.0
  0
LINE
  8
0
 62
     0
 10
14.9999
 20
20.6196
 30
0.0
 11
14.1993
 21
20.6196
 31
0.0
  0
LINE
  8
0
 62
     0
 10
14.1993
 20
20.6196
 30
0.0
 11
14.1993
 21
17.5204
 31
0.0
  0
LINE
  8
0
 62
     0
 10
14.1993
 20
17.5204
 30
0.0
 11
14.9999
 21
17.5204
 31
0.0
  0
LINE
  8
0
 62
     0
 10
14.9999
 20
17.5204
 30
0.0
 11
14.9999
 21
11.7189
 31
0.0
  0
LINE
  8
0
 62
     0
 10
14.9999
 20
11.7189
 30
0.0
 11
14.1993
 21
11.7189
 31
0.0
  0
LINE
  8
0
 62
     0
 10
14.1993
 20
11.7189
 30
0.0
 11
14.1993
 21
8.61963
 31
0.0
  0
LINE
  8
0
 62
     0
 10
14.1993
 20
8.61963
 30
0.0
 11
14.9999
 21
8.61963
 31
0.0
  0
LINE
  8
0
 62
     0
 10
14.9999
 20
8.61963
 30
0.0
 11
14.9999
 21
7.61919
 31
0.0
  0
LINE
  8
0
 62
     0
 10
14.9999
 20
7.61919
 30
0.0
 11
28.9994
 21
7.61919
 31
0.0
  0
LINE
  8
0
 62
     0
 10
28.9994
 20
7.61919
 30
0.0
 11
28.9994
 21
8.61963
 31
0.0
  0
LINE
  8
0
 62
     0
 10
28.9994
 20
8.61963
 30
0.0
 11
29.8001
 21
8.61963
 31
0.0
  0
LINE
  8
0
 62
     0
 10
29.8001
 20
8.61963
 30
0.0
 11
29.8001
 21
11.7189
 31
0.0
  0
LINE
  8
0
 62
     0
 10
29.8001
 20
11.7189
 30
0.0
 11
28.9994
 21
11.7189
 31
0.0
  0
LINE
  8
0
 62
     0
 10
28.9994
 20
11.7189
 30
0.0
 11
28.9994
 21
17.5204
 31
0.0
  0
LINE
  8
0
 62
     0
 10
28.9994
 20
17.5204
 30
0.0
 11
29.8001
 21
17.5204
 31
0.0
  0
LINE
  8
0
 62
     0
 10
29.8001
 20
17.5204
 30
0.0
 11
29.8001
 21
20.6196
 31
0.0
  0
LINE
  8
0
 62
     0
 10
29.8001
 20
20.6196
 30
0.0
 11
28.9994
 21
20.6196
 31
0.0
  0
LINE
  8
0
 62
     0
 10
28.9994
 20
20.6196
 30
0.0
 11
28.9994
 21
21.6187
 31
0.0
  0
LINE
  8
0
 62
     0
 10
28.9994
 20
21.6187
 30
0.0
 11
14.9999
 21
21.6187
 31
0.0
  0
LINE
  8
0
 62
     0
 10
36.4314
 20
21.6187
 30
0.0
 11
36.4314
 21
20.6196
 31
0.0
  0
LINE
  8
0
 62
     0
 10
36.4314
 20
20.6196
 30
0.0
 11
35.6306
 21
20.6196
 31
0.0
  0
LINE
  8
0
 62
     0
 10
35.6306
 20
20.6196
 30
0.0
 11
35.6306
 21
17.5204
 31
0.0
  0
LINE
  8
0
 62
     0
 10
35.6306
 20
17.5204
 30
0.0
 11
36.4314
 21
17.5204
 31
0.0
  0
LINE
  8
0
 62
     0
 10
36.4314
 20
17.5204
 30
0.0
 11
36.4314
 21
11.7189
 31
0.0
  0
LINE
  8
0
 62
     0
 10
36.4314
 20
11.7189
 30
0.0
 11
35.6306
 21
11.7189
 31
0.0
  0
LINE
  8
0
 62
     0
 10
35.6306
 20
11.7189
 30
0.0
 11
35.6306
 21
8.61963
 31
0.0
  0
LINE
  8
0
 62
     0
 10
35.6306
 20
8.61963
 30
0.0
 11
36.4314
 21
8.61963
 31
0.0
  0
LINE
  8
0
 62
     0
 10
36.4314
 20
8.61963
 30
0.0
 11
36.4314
 21
7.61919
 31
0.0
  0
LINE
  8
0
 62
     0
 10
36.4314
 20
7.61919
 30
0.0
 11
50.4306
 21
7.61919
 31
0.0
  0
LINE
  8
0
 62
     0
 10
50.4306
 20
7.61919
 30
0.0
 11
50.4306
 21
8.61963
 31
0.0
  0
LINE
  8
0
 62
     0
 10
50.4306
 20
8.61963
 30
0.0
 11
51.2314
 21
8.61963
 31
0.0
  0
LINE
  8
0
 62
     0
 10
51.2314
 20
8.61963
 30
0.0
 11
51.2314
 21
11.7189
 31
0.0
  0
LINE
  8
0
 62
     0
 10
51.2314
 20
11.7189
 30
0.0
 11
50.4306
 21
11.7189
 31
0.0
  0
LINE
  8
0
 62
     0
 10
50.4306
 20
11.7189
 30
0.0
 11
50.4306
 21
17.5204
 31
0.0
  0
LINE
  8
0
 62
     0
 10
50.4306
 20
17.5204
 30
0.0
 11
51.2314
 21
17.5204
 31
0.0
  0
LINE
  8
0
 62
     0
 10
51.2314
 20
17.5204
 30
0.0
 11
51.2314
 21
20.6196
 31
0.0
  0
LINE
  8
0
 62
     0
 10
51.2314
 20
20.6196
 30
0.0
 11
50.4306
 21
20.6196
 31
0.0
  0
LINE
  8
0
 62
     0
 10
50.4306
 20
20.6196
 30
0.0
 11
50.4306
 21
21.6187
 31
0.0
  0
LINE
  8
0
 62
     0
 10
50.4306
 20
21.6187
 30
0.0
 11
36.4314
 21
21.6187
 31
0.0
  0
LINE
  8
0
 62
     0
 10
55.4814
 20
21.6187
 30
0.0
 11
55.4814
 21
20.6196
 31
0.0
  0
LINE
  8
0
 62
     0
 10
55.4814
 20
20.6196
 30
0.0
 11
54.6806
 21
20.6196
 31
0.0
  0
LINE
  8
0
 62
     0
 10
54.6806
 20
20.6196
 30
0.0
 11
54.6806
 21
17.5204
 31
0.0
  0
LINE
  8
0
 62
     0
 10
54.6806
 20
17.5204
 30
0.0
 11
55.4814
 21
17.5204
 31
0.0
  0
LINE
  8
0
 62
     0
 10
55.4814
 20
17.5204
 30
0.0
 11
55.4814
 21
11.7189
 31
0.0
  0
LINE
  8
0
 62
     0
 10
55.4814
 20
11.7189
 30
0.0
 11
54.6806
 21
11.7189
 31
0.0
  0
LINE
  8
0
 62
     0
 10
54.6806
 20
11.7189
 30
0.0
 11
54.6806
 21
8.61963
 31
0.0
  0
LINE
  8
0
 62
     0
 10
54.6806
 20
8.61963
 30
0.0
 11
55.4814
 21
8.61963
 31
0.0
  0
LINE
  8
0
 62
     0
 10
55.4814
 20
8.61963
 30
0.0
 11
55.4814
 21
7.61919
 31
0.0
  0
LINE
  8
0
 62
     0
 10
55.4814
 20
7.61919
 30
0.0
 11
69.4806
 21
7.61919
 31
0.0
  0
LINE
  8
0
 62
     0
 10
69.4806
 20
7.61919
 30
0.0
 11
69.4806
 21
8.61963
 31
0.0
  0
LINE
  8
0
 62
     0
 10
69.4806
 20
8.61963
 30
0.0
 11
70.2815
 21
8.61963
 31
0.0
  0
LINE
  8
0
 62
     0
 10
70.2815
 20
8.61963
 30
0.0
 11
70.2815
 21
11.7189
 31
0.0
  0
LINE
  8
0
 62
     0
 10
70.2815
 20
11.7189
 30
0.0
 11
69.4806
 21
11.7189
 31
0.0
  0
LINE
  8
0
 62
     0
 10
69.4806
 20
11.7189
 30
0.0
 11
69.4806
 21
17.5204
 31
0.0
  0
LINE
  8
0
 62
     0
 10
69.4806
 20
17.5204
 30
0.0
 11
70.2815
 21
17.5204
 31
0.0
  0
LINE
  8
0
 62
     0
 10
70.2815
 20
17.5204
 30
0.0
 11
70.2815
 21
20.6196
 31
0.0
  0
LINE
  8
0
 62
     0
 10
70.2815
 20
20.6196
 30
0.0
 11
69.4806
 21
20.6196
 31
0.0
  0
LINE
  8
0
 62
     0
 10
69.4806
 20
20.6196
 30
0.0
 11
69.4806
 21
21.6187
 31
0.0
  0
LINE
  8
0
 62
     0
 10
69.4806
 20
21.6187
 30
0.0
 11
55.4814
 21
21.6187
 31
0.0
  0
LINE
  8
0
 62
     0
 10
74.5314
 20
21.6187
 30
0.0
 11
74.5314
 21
20.6196
 31
0.0
  0
LINE
  8
0
 62
     0
 10
74.5314
 20
20.6196
 30
0.0
 11
73.7306
 21
20.6196
 31
0.0
  0
LINE
  8
0
 62
     0
 10
73.7306
 20
20.6196
 30
0.0
 11
73.7306
 21
17.5204
 31
0.0
  0
LINE
  8
0
 62
     0
 10
73.7306
 20
17.5204
 30
0.0
 11
74.5314
 21
17.5204
 31
0.0
  0
LINE
  8
0
 62
     0
 10
74.5314
 20
17.5204
 30
0.0
 11
74.5314
 21
11.7189
 31
0.0
  0
LINE
  8
0
 62
     0
 10
74.5314
 20
11.7189
 30
0.0
 11
73.7306
 21
11.7189
 31
0.0
  0
LINE
  8
0
 62
     0
 10
73.7306
 20
11.7189
 30
0.0
 11
73.7306
 21
8.61963
 31
0.0
  0
LINE
  8
0
 62
     0
 10
73.7306
 20
8.61963
 30
0.0
 11
74.5314
 21
8.61963
 31
0.0
  0
LINE
  8
0
 62
     0
 10
74.5314
 20
8.61963
 30
0.0
 11
74.5314
 21
7.61919
 31
0.0
  0
LINE
  8
0
 62
     0
 10
74.5314
 20
7.61919
 30
0.0
 11
88.5306
 21
7.61919
 31
0.0
  0
LINE
  8
0
 62
     0
 10
88.5306
 20
7.61919
 30
0.0
 11
88.5306
 21
8.61963
 31
0.0
  0
LINE
  8
0
 62
     0
 10
88.5306
 20
8.61963
 30
0.0
 11
89.3315
 21
8.61963
 31
0.0
  0
LINE
  8
0
 62
     0
 10
89.3315
 20
8.61963
 30
0.0
 11
89.3315
 21
11.7189
 31
0.0
  0
LINE
  8
0
 62
     0
 10
89.3315
 20
11.7189
 30
0.0
 11
88.5306
 21
11.7189
 31
0.0
  0
LINE
  8
0
 62
     0
 10
88.5306
 20
11.7189
 30
0.0
 11
88.5306
 21
17.5204
 31
0.0
  0
LINE
  8
0
 62
     0
 10
88.5306
 20
17.5204
 30
0.0
 11
89.3315
 21
17.5204
 31
0.0
  0
LINE
  8
0
 62
     0
 10
89.3315
 20
17.5204
 30
0.0
 11
89.3315
 21
20.6196
 31
0.0
  0
LINE
  8
0
 62
     0
 10
89.3315
 20
20.6196
 30
0.0
 11
88.5306
 21
20.6196
 31
0.0
  0
LINE
  8
0
 62
     0
 10
88.5306
 20
20.6196
 30
0.0
 11
88.5306
 21
21.6187
 31
0.0
  0
LINE
  8
0
 62
     0
 10
88.5306
 20
21.6187
 30
0.0
 11
74.5314
 21
21.6187
 31
0.0
  0
LINE
  8
0
 62
     0
 10
188.831
 20
21.6187
 30
0.0
 11
188.831
 21
20.6196
 31
0.0
  0
LINE
  8
0
 62
     0
 10
188.831
 20
20.6196
 30
0.0
 11
188.031
 21
20.6196
 31
0.0
  0
LINE
  8
0
 62
     0
 10
188.031
 20
20.6196
 30
0.0
 11
188.031
 21
17.5204
 31
0.0
  0
LINE
  8
0
 62
     0
 10
188.031
 20
17.5204
 30
0.0
 11
188.831
 21
17.5204
 31
0.0
  0
LINE
  8
0
 62
     0
 10
188.831
 20
17.5204
 30
0.0
 11
188.831
 21
11.7189
 31
0.0
  0
LINE
  8
0
 62
     0
 10
188.831
 20
11.7189
 30
0.0
 11
188.031
 21
11.7189
 31
0.0
  0
LINE
  8
0
 62
     0
 10
188.031
 20
11.7189
 30
0.0
 11
188.031
 21
8.61963
 31
0.0
  0
LINE
  8
0
 62
     0
 10
188.031
 20
8.61963
 30
0.0
 11
188.831
 21
8.61963
 31
0.0
  0
LINE
  8
0
 62
     0
 10
188.831
 20
8.61963
 30
0.0
 11
188.831
 21
7.61919
 31
0.0
  0
LINE
  8
0
 62
     0
 10
188.831
 20
7.61919
 30
0.0
 11
202.831
 21
7.61919
 31
0.0
  0
LINE
  8
0
 62
     0
 10
202.831
 20
7.61919
 30
0.0
 11
202.831
 21
8.61963
 31
0.0
  0
LINE
  8
0
 62
     0
 10
202.831
 20
8.61963
 30
0.0
 11
203.631
 21
8.61963
 31
0.0
  0
LINE
  8
0
 62
     0
 10
203.631
 20
8.61963
 30
0.0
 11
203.631
 21
11.7189
 31
0.0
  0
LINE
  8
0
 62
     0
 10
203.631
 20
11.7189
 30
0.0
 11
202.831
 21
11.7189
 31
0.0
  0
LINE
  8
0
 62
     0
 10
202.831
 20
11.7189
 30
0.0
 11
202.831
 21
17.5204
 31
0.0
  0
LINE
  8
0
 62
     0
 10
202.831
 20
17.5204
 30
0.0
 11
203.631
 21
17.5204
 31
0.0
  0
LINE
  8
0
 62
     0
 10
203.631
 20
17.5204
 30
0.0
 11
203.631
 21
20.6196
 31
0.0
  0
LINE
  8
0
 62
     0
 10
203.631
 20
20.6196
 30
0.0
 11
202.831
 21
20.6196
 31
0.0
  0
LINE
  8
0
 62
     0
 10
202.831
 20
20.6196
 30
0.0
 11
202.831
 21
21.6187
 31
0.0
  0
LINE
  8
0
 62
     0
 10
202.831
 20
21.6187
 30
0.0
 11
188.831
 21
21.6187
 31
0.0
  0
LINE
  8
0
 62
     0
 10
207.881
 20
21.6187
 30
0.0
 11
207.881
 21
20.6196
 31
0.0
  0
LINE
  8
0
 62
     0
 10
207.881
 20
20.6196
 30
0.0
 11
207.081
 21
20.6196
 31
0.0
  0
LINE
  8
0
 62
     0
 10
207.081
 20
20.6196
 30
0.0
 11
207.081
 21
17.5204
 31
0.0
  0
LINE
  8
0
 62
     0
 10
207.081
 20
17.5204
 30
0.0
 11
207.881
 21
17.5204
 31
0.0
  0
LINE
  8
0
 62
     0
 10
207.881
 20
17.5204
 30
0.0
 11
207.881
 21
11.7189
 31
0.0
  0
LINE
  8
0
 62
     0
 10
207.881
 20
11.7189
 30
0.0
 11
207.081
 21
11.7189
 31
0.0
  0
LINE
  8
0
 62
     0
 10
207.081
 20
11.7189
 30
0.0
 11
207.081
 21
8.61963
 31
0.0
  0
LINE
  8
0
 62
     0
 10
207.081
 20
8.61963
 30
0.0
 11
207.881
 21
8.61963
 31
0.0
  0
LINE
  8
0
 62
     0
 10
207.881
 20
8.61963
 30
0.0
 11
207.881
 21
7.61919
 31
0.0
  0
LINE
  8
0
 62
     0
 10
207.881
 20
7.61919
 30
0.0
 11
221.881
 21
7.61919
 31
0.0
  0
LINE
  8
0
 62
     0
 10
221.881
 20
7.61919
 30
0.0
 11
221.881
 21
8.61963
 31
0.0
  0
LINE
  8
0
 62
     0
 10
221.881
 20
8.61963
 30
0.0
 11
222.681
 21
8.61963
 31
0.0
  0
LINE
  8
0
 62
     0
 10
222.681
 20
8.61963
 30
0.0
 11
222.681
 21
11.7189
 31
0.0
  0
LINE
  8
0
 62
     0
 10
222.681
 20
11.7189
 30
0.0
 11
221.881
 21
11.7189
 31
0.0
  0
LINE
  8
0
 62
     0
 10
221.881
 20
11.7189
 30
0.0
 11
221.881
 21
17.5204
 31
0.0
  0
LINE
  8
0
 62
     0
 10
221.881
 20
17.5204
 30
0.0
 11
222.681
 21
17.5204
 31
0.0
  0
LINE
  8
0
 62
     0
 10
222.681
 20
17.5204
 30
0.0
 11
222.681
 21
20.6196
 31
0.0
  0
LINE
  8
0
 62
     0
 10
222.681
 20
20.6196
 30
0.0
 11
221.881
 21
20.6196
 31
0.0
  0
LINE
  8
0
 62
     0
 10
221.881
 20
20.6196
 30
0.0
 11
221.881
 21
21.6187
 31
0.0
  0
LINE
  8
0
 62
     0
 10
221.881
 20
21.6187
 30
0.0
 11
207.881
 21
21.6187
 31
0.0
  0
LINE
  8
0
 62
     0
 10
226.931
 20
21.6187
 30
0.0
 11
226.931
 21
20.6196
 31
0.0
  0
LINE
  8
0
 62
     0
 10
226.931
 20
20.6196
 30
0.0
 11
226.131
 21
20.6196
 31
0.0
  0
LINE
  8
0
 62
     0
 10
226.131
 20
20.6196
 30
0.0
 11
226.131
 21
17.5204
 31
0.0
  0
LINE
  8
0
 62
     0
 10
226.131
 20
17.5204
 30
0.0
 11
226.931
 21
17.5204
 31
0.0
  0
LINE
  8
0
 62
     0
 10
226.931
 20
17.5204
 30
0.0
 11
226.931
 21
11.7189
 31
0.0
  0
LINE
  8
0
 62
     0
 10
226.931
 20
11.7189
 30
0.0
 11
226.131
 21
11.7189
 31
0.0
  0
LINE
  8
0
 62
     0
 10
226.131
 20
11.7189
 30
0.0
 11
226.131
 21
8.61963
 31
0.0
  0
LINE
  8
0
 62
     0
 10
226.131
 20
8.61963
 30
0.0
 11
226.931
 21
8.61963
 31
0.0
  0
LINE
  8
0
 62
     0
 10
226.931
 20
8.61963
 30
0.0
 11
226.931
 21
7.61919
 31
0.0
  0
LINE
  8
0
 62
     0
 10
226.931
 20
7.61919
 30
0.0
 11
240.931
 21
7.61919
 31
0.0
  0
LINE
  8
0
 62
     0
 10
240.931
 20
7.61919
 30
0.0
 11
240.931
 21
8.61963
 31
0.0
  0
LINE
  8
0
 62
     0
 10
240.931
 20
8.61963
 30
0.0
 11
241.731
 21
8.61963
 31
0.0
  0
LINE
  8
0
 62
     0
 10
241.731
 20
8.61963
 30
0.0
 11
241.731
 21
11.7189
 31
0.0
  0
LINE
  8
0
 62
     0
 10
241.731
 20
11.7189
 30
0.0
 11
240.931
 21
11.7189
 31
0.0
  0
LINE
  8
0
 62
     0
 10
240.931
 20
11.7189
 30
0.0
 11
240.931
 21
17.5204
 31
0.0
  0
LINE
  8
0
 62
     0
 10
240.931
 20
17.5204
 30
0.0
 11
241.731
 21
17.5204
 31
0.0
  0
LINE
  8
0
 62
     0
 10
241.731
 20
17.5204
 30
0.0
 11
241.731
 21
20.6196
 31
0.0
  0
LINE
  8
0
 62
     0
 10
241.731
 20
20.6196
 30
0.0
 11
240.931
 21
20.6196
 31
0.0
  0
LINE
  8
0
 62
     0
 10
240.931
 20
20.6196
 30
0.0
 11
240.931
 21
21.6187
 31
0.0
  0
LINE
  8
0
 62
     0
 10
240.931
 20
21.6187
 30
0.0
 11
226.931
 21
21.6187
 31
0.0
  0
LINE
  8
0
 62
     0
 10
245.981
 20
21.6187
 30
0.0
 11
245.981
 21
20.6196
 31
0.0
  0
LINE
  8
0
 62
     0
 10
245.981
 20
20.6196
 30
0.0
 11
245.181
 21
20.6196
 31
0.0
  0
LINE
  8
0
 62
     0
 10
245.181
 20
20.6196
 30
0.0
 11
245.181
 21
17.5204
 31
0.0
  0
LINE
  8
0
 62
     0
 10
245.181
 20
17.5204
 30
0.0
 11
245.981
 21
17.5204
 31
0.0
  0
LINE
  8
0
 62
     0
 10
245.981
 20
17.5204
 30
0.0
 11
245.981
 21
11.7189
 31
0.0
  0
LINE
  8
0
 62
     0
 10
245.981
 20
11.7189
 30
0.0
 11
245.181
 21
11.7189
 31
0.0
  0
LINE
  8
0
 62
     0
 10
245.181
 20
11.7189
 30
0.0
 11
245.181
 21
8.61963
 31
0.0
  0
LINE
  8
0
 62
     0
 10
245.181
 20
8.61963
 30
0.0
 11
245.981
 21
8.61963
 31
0.0
  0
LINE
  8
0
 62
     0
 10
245.981
 20
8.61963
 30
0.0
 11
245.981
 21
7.61919
 31
0.0
  0
LINE
  8
0
 62
     0
 10
245.981
 20
7.61919
 30
0.0
 11
259.981
 21
7.61919
 31
0.0
  0
LINE
  8
0
 62
     0
 10
259.981
 20
7.61919
 30
0.0
 11
259.981
 21
8.61963
 31
0.0
  0
LINE
  8
0
 62
     0
 10
259.981
 20
8.61963
 30
0.0
 11
260.781
 21
8.61963
 31
0.0
  0
LINE
  8
0
 62
     0
 10
260.781
 20
8.61963
 30
0.0
 11
260.781
 21
11.7189
 31
0.0
  0
LINE
  8
0
 62
     0
 10
260.781
 20
11.7189
 30
0.0
 11
259.981
 21
11.7189
 31
0.0
  0
LINE
  8
0
 62
     0
 10
259.981
 20
11.7189
 30
0.0
 11
259.981
 21
17.5204
 31
0.0
  0
LINE
  8
0
 62
     0
 10
259.981
 20
17.5204
 30
0.0
 11
260.781
 21
17.5204
 31
0.0
  0
LINE
  8
0
 62
     0
 10
260.781
 20
17.5204
 30
0.0
 11
260.781
 21
20.6196
 31
0.0
  0
LINE
  8
0
 62
     0
 10
260.781
 20
20.6196
 30
0.0
 11
259.981
 21
20.6196
 31
0.0
  0
LINE
  8
0
 62
     0
 10
259.981
 20
20.6196
 30
0.0
 11
259.981
 21
21.6187
 31
0.0
  0
LINE
  8
0
 62
     0
 10
259.981
 20
21.6187
 30
0.0
 11
245.981
 21
21.6187
 31
0.0
  0
LINE
  8
0
 62
     0
 10
272.175
 20
21.6187
 30
0.0
 11
272.175
 21
20.6196
 31
0.0
  0
LINE
  8
0
 62
     0
 10
272.175
 20
20.6196
 30
0.0
 11
271.374
 21
20.6196
 31
0.0
  0
LINE
  8
0
 62
     0
 10
271.374
 20
20.6196
 30
0.0
 11
271.374
 21
17.5204
 31
0.0
  0
LINE
  8
0
 62
     0
 10
271.374
 20
17.5204
 30
0.0
 11
272.175
 21
17.5204
 31
0.0
  0
LINE
  8
0
 62
     0
 10
272.175
 20
17.5204
 30
0.0
 11
272.175
 21
11.7189
 31
0.0
  0
LINE
  8
0
 62
     0
 10
272.175
 20
11.7189
 30
0.0
 11
271.374
 21
11.7189
 31
0.0
  0
LINE
  8
0
 62
     0
 10
271.374
 20
11.7189
 30
0.0
 11
271.374
 21
8.61963
 31
0.0
  0
LINE
  8
0
 62
     0
 10
271.374
 20
8.61963
 30
0.0
 11
272.175
 21
8.61963
 31
0.0
  0
LINE
  8
0
 62
     0
 10
272.175
 20
8.61963
 30
0.0
 11
272.175
 21
7.61919
 31
0.0
  0
LINE
  8
0
 62
     0
 10
272.175
 20
7.61919
 30
0.0
 11
286.174
 21
7.61919
 31
0.0
  0
LINE
  8
0
 62
     0
 10
286.174
 20
7.61919
 30
0.0
 11
286.174
 21
8.61963
 31
0.0
  0
LINE
  8
0
 62
     0
 10
286.174
 20
8.61963
 30
0.0
 11
286.975
 21
8.61963
 31
0.0
  0
LINE
  8
0
 62
     0
 10
286.975
 20
8.61963
 30
0.0
 11
286.975
 21
11.7189
 31
0.0
  0
LINE
  8
0
 62
     0
 10
286.975
 20
11.7189
 30
0.0
 11
286.174
 21
11.7189
 31
0.0
  0
LINE
  8
0
 62
     0
 10
286.174
 20
11.7189
 30
0.0
 11
286.174
 21
17.5204
 31
0.0
  0
LINE
  8
0
 62
     0
 10
286.174
 20
17.5204
 30
0.0
 11
286.975
 21
17.5204
 31
0.0
  0
LINE
  8
0
 62
     0
 10
286.975
 20
17.5204
 30
0.0
 11
286.975
 21
20.6196
 31
0.0
  0
LINE
  8
0
 62
     0
 10
286.975
 20
20.6196
 30
0.0
 11
286.174
 21
20.6196
 31
0.0
  0
LINE
  8
0
 62
     0
 10
286.174
 20
20.6196
 30
0.0
 11
286.174
 21
21.6187
 31
0.0
  0
LINE
  8
0
 62
     0
 10
286.174
 20
21.6187
 30
0.0
 11
272.175
 21
21.6187
 31
0.0
  0
LINE
  8
0
 62
     0
 10
14.9999
 20
40.6686
 30
0.0
 11
14.9999
 21
39.6695
 31
0.0
  0
LINE
  8
0
 62
     0
 10
14.9999
 20
39.6695
 30
0.0
 11
14.1993
 21
39.6695
 31
0.0
  0
LINE
  8
0
 62
     0
 10
14.1993
 20
39.6695
 30
0.0
 11
14.1993
 21
36.5704
 31
0.0
  0
LINE
  8
0
 62
     0
 10
14.1993
 20
36.5704
 30
0.0
 11
14.9999
 21
36.5704
 31
0.0
  0
LINE
  8
0
 62
     0
 10
14.9999
 20
36.5704
 30
0.0
 11
14.9999
 21
30.7689
 31
0.0
  0
LINE
  8
0
 62
     0
 10
14.9999
 20
30.7689
 30
0.0
 11
14.1993
 21
30.7689
 31
0.0
  0
LINE
  8
0
 62
     0
 10
14.1993
 20
30.7689
 30
0.0
 11
14.1993
 21
27.6696
 31
0.0
  0
LINE
  8
0
 62
     0
 10
14.1993
 20
27.6696
 30
0.0
 11
14.9999
 21
27.6696
 31
0.0
  0
LINE
  8
0
 62
     0
 10
14.9999
 20
27.6696
 30
0.0
 11
14.9999
 21
26.6692
 31
0.0
  0
LINE
  8
0
 62
     0
 10
14.9999
 20
26.6692
 30
0.0
 11
28.9994
 21
26.6692
 31
0.0
  0
LINE
  8
0
 62
     0
 10
28.9994
 20
26.6692
 30
0.0
 11
28.9994
 21
27.6696
 31
0.0
  0
LINE
  8
0
 62
     0
 10
28.9994
 20
27.6696
 30
0.0
 11
29.8001
 21
27.6696
 31
0.0
  0
LINE
  8
0
 62
     0
 10
29.8001
 20
27.6696
 30
0.0
 11
29.8001
 21
30.7689
 31
0.0
  0
LINE
  8
0
 62
     0
 10
29.8001
 20
30.7689
 30
0.0
 11
28.9994
 21
30.7689
 31
0.0
  0
LINE
  8
0
 62
     0
 10
28.9994
 20
30.7689
 30
0.0
 11
28.9994
 21
36.5704
 31
0.0
  0
LINE
  8
0
 62
     0
 10
28.9994
 20
36.5704
 30
0.0
 11
29.8001
 21
36.5704
 31
0.0
  0
LINE
  8
0
 62
     0
 10
29.8001
 20
36.5704
 30
0.0
 11
29.8001
 21
39.6695
 31
0.0
  0
LINE
  8
0
 62
     0
 10
29.8001
 20
39.6695
 30
0.0
 11
28.9994
 21
39.6695
 31
0.0
  0
LINE
  8
0
 62
     0
 10
28.9994
 20
39.6695
 30
0.0
 11
28.9994
 21
40.6686
 31
0.0
  0
LINE
  8
0
 62
     0
 10
28.9994
 20
40.6686
 30
0.0
 11
14.9999
 21
40.6686
 31
0.0
  0
LINE
  8
0
 62
     0
 10
36.4314
 20
40.6686
 30
0.0
 11
36.4314
 21
39.6695
 31
0.0
  0
LINE
  8
0
 62
     0
 10
36.4314
 20
39.6695
 30
0.0
 11
35.6306
 21
39.6695
 31
0.0
  0
LINE
  8
0
 62
     0
 10
35.6306
 20
39.6695
 30
0.0
 11
35.6306
 21
36.5704
 31
0.0
  0
LINE
  8
0
 62
     0
 10
35.6306
 20
36.5704
 30
0.0
 11
36.4314
 21
36.5704
 31
0.0
  0
LINE
  8
0
 62
     0
 10
36.4314
 20
36.5704
 30
0.0
 11
36.4314
 21
30.7689
 31
0.0
  0
LINE
  8
0
 62
     0
 10
36.4314
 20
30.7689
 30
0.0
 11
35.6306
 21
30.7689
 31
0.0
  0
LINE
  8
0
 62
     0
 10
35.6306
 20
30.7689
 30
0.0
 11
35.6306
 21
27.6696
 31
0.0
  0
LINE
  8
0
 62
     0
 10
35.6306
 20
27.6696
 30
0.0
 11
36.4314
 21
27.6696
 31
0.0
  0
LINE
  8
0
 62
     0
 10
36.4314
 20
27.6696
 30
0.0
 11
36.4314
 21
26.6692
 31
0.0
  0
LINE
  8
0
 62
     0
 10
36.4314
 20
26.6692
 30
0.0
 11
50.4306
 21
26.6692
 31
0.0
  0
LINE
  8
0
 62
     0
 10
50.4306
 20
26.6692
 30
0.0
 11
50.4306
 21
27.6696
 31
0.0
  0
LINE
  8
0
 62
     0
 10
50.4306
 20
27.6696
 30
0.0
 11
51.2314
 21
27.6696
 31
0.0
  0
LINE
  8
0
 62
     0
 10
51.2314
 20
27.6696
 30
0.0
 11
51.2314
 21
30.7689
 31
0.0
  0
LINE
  8
0
 62
     0
 10
51.2314
 20
30.7689
 30
0.0
 11
50.4306
 21
30.7689
 31
0.0
  0
LINE
  8
0
 62
     0
 10
50.4306
 20
30.7689
 30
0.0
 11
50.4306
 21
36.5704
 31
0.0
  0
LINE
  8
0
 62
     0
 10
50.4306
 20
36.5704
 30
0.0
 11
51.2314
 21
36.5704
 31
0.0
  0
LINE
  8
0
 62
     0
 10
51.2314
 20
36.5704
 30
0.0
 11
51.2314
 21
39.6695
 31
0.0
  0
LINE
  8
0
 62
     0
 10
51.2314
 20
39.6695
 30
0.0
 11
50.4306
 21
39.6695
 31
0.0
  0
LINE
  8
0
 62
     0
 10
50.4306
 20
39.6695
 30
0.0
 11
50.4306
 21
40.6686
 31
0.0
  0
LINE
  8
0
 62
     0
 10
50.4306
 20
40.6686
 30
0.0
 11
36.4314
 21
40.6686
 31
0.0
  0
LINE
  8
0
 62
     0
 10
55.4814
 20
40.6686
 30
0.0
 11
55.4814
 21
39.6695
 31
0.0
  0
LINE
  8
0
 62
     0
 10
55.4814
 20
39.6695
 30
0.0
 11
54.6806
 21
39.6695
 31
0.0
  0
LINE
  8
0
 62
     0
 10
54.6806
 20
39.6695
 30
0.0
 11
54.6806
 21
36.5704
 31
0.0
  0
LINE
  8
0
 62
     0
 10
54.6806
 20
36.5704
 30
0.0
 11
55.4814
 21
36.5704
 31
0.0
  0
LINE
  8
0
 62
     0
 10
55.4814
 20
36.5704
 30
0.0
 11
55.4814
 21
30.7689
 31
0.0
  0
LINE
  8
0
 62
     0
 10
55.4814
 20
30.7689
 30
0.0
 11
54.6806
 21
30.7689
 31
0.0
  0
LINE
  8
0
 62
     0
 10
54.6806
 20
30.7689
 30
0.0
 11
54.6806
 21
27.6696
 31
0.0
  0
LINE
  8
0
 62
     0
 10
54.6806
 20
27.6696
 30
0.0
 11
55.4814
 21
27.6696
 31
0.0
  0
LINE
  8
0
 62
     0
 10
55.4814
 20
27.6696
 30
0.0
 11
55.4814
 21
26.6692
 31
0.0
  0
LINE
  8
0
 62
     0
 10
55.4814
 20
26.6692
 30
0.0
 11
69.4806
 21
26.6692
 31
0.0
  0
LINE
  8
0
 62
     0
 10
69.4806
 20
26.6692
 30
0.0
 11
69.4806
 21
27.6696
 31
0.0
  0
LINE
  8
0
 62
     0
 10
69.4806
 20
27.6696
 30
0.0
 11
70.2815
 21
27.6696
 31
0.0
  0
LINE
  8
0
 62
     0
 10
70.2815
 20
27.6696
 30
0.0
 11
70.2815
 21
30.7689
 31
0.0
  0
LINE
  8
0
 62
     0
 10
70.2815
 20
30.7689
 30
0.0
 11
69.4806
 21
30.7689
 31
0.0
  0
LINE
  8
0
 62
     0
 10
69.4806
 20
30.7689
 30
0.0
 11
69.4806
 21
36.5704
 31
0.0
  0
LINE
  8
0
 62
     0
 10
69.4806
 20
36.5704
 30
0.0
 11
70.2815
 21
36.5704
 31
0.0
  0
LINE
  8
0
 62
     0
 10
70.2815
 20
36.5704
 30
0.0
 11
70.2815
 21
39.6695
 31
0.0
  0
LINE
  8
0
 62
     0
 10
70.2815
 20
39.6695
 30
0.0
 11
69.4806
 21
39.6695
 31
0.0
  0
LINE
  8
0
 62
     0
 10
69.4806
 20
39.6695
 30
0.0
 11
69.4806
 21
40.6686
 31
0.0
  0
LINE
  8
0
 62
     0
 10
69.4806
 20
40.6686
 30
0.0
 11
55.4814
 21
40.6686
 31
0.0
  0
LINE
  8
0
 62
     0
 10
74.5314
 20
40.6686
 30
0.0
 11
74.5314
 21
39.6695
 31
0.0
  0
LINE
  8
0
 62
     0
 10
74.5314
 20
39.6695
 30
0.0
 11
73.7306
 21
39.6695
 31
0.0
  0
LINE
  8
0
 62
     0
 10
73.7306
 20
39.6695
 30
0.0
 11
73.7306
 21
36.5704
 31
0.0
  0
LINE
  8
0
 62
     0
 10
73.7306
 20
36.5704
 30
0.0
 11
74.5314
 21
36.5704
 31
0.0
  0
LINE
  8
0
 62
     0
 10
74.5314
 20
36.5704
 30
0.0
 11
74.5314
 21
30.7689
 31
0.0
  0
LINE
  8
0
 62
     0
 10
74.5314
 20
30.7689
 30
0.0
 11
73.7306
 21
30.7689
 31
0.0
  0
LINE
  8
0
 62
     0
 10
73.7306
 20
30.7689
 30
0.0
 11
73.7306
 21
27.6696
 31
0.0
  0
LINE
  8
0
 62
     0
 10
73.7306
 20
27.6696
 30
0.0
 11
74.5314
 21
27.6696
 31
0.0
  0
LINE
  8
0
 62
     0
 10
74.5314
 20
27.6696
 30
0.0
 11
74.5314
 21
26.6692
 31
0.0
  0
LINE
  8
0
 62
     0
 10
74.5314
 20
26.6692
 30
0.0
 11
88.5306
 21
26.6692
 31
0.0
  0
LINE
  8
0
 62
     0
 10
88.5306
 20
26.6692
 30
0.0
 11
88.5306
 21
27.6696
 31
0.0
  0
LINE
  8
0
 62
     0
 10
88.5306
 20
27.6696
 30
0.0
 11
89.3315
 21
27.6696
 31
0.0
  0
LINE
  8
0
 62
     0
 10
89.3315
 20
27.6696
 30
0.0
 11
89.3315
 21
30.7689
 31
0.0
  0
LINE
  8
0
 62
     0
 10
89.3315
 20
30.7689
 30
0.0
 11
88.5306
 21
30.7689
 31
0.0
  0
LINE
  8
0
 62
     0
 10
88.5306
 20
30.7689
 30
0.0
 11
88.5306
 21
36.5704
 31
0.0
  0
LINE
  8
0
 62
     0
 10
88.5306
 20
36.5704
 30
0.0
 11
89.3315
 21
36.5704
 31
0.0
  0
LINE
  8
0
 62
     0
 10
89.3315
 20
36.5704
 30
0.0
 11
89.3315
 21
39.6695
 31
0.0
  0
LINE
  8
0
 62
     0
 10
89.3315
 20
39.6695
 30
0.0
 11
88.5306
 21
39.6695
 31
0.0
  0
LINE
  8
0
 62
     0
 10
88.5306
 20
39.6695
 30
0.0
 11
88.5306
 21
40.6686
 31
0.0
  0
LINE
  8
0
 62
     0
 10
88.5306
 20
40.6686
 30
0.0
 11
74.5314
 21
40.6686
 31
0.0
  0
LINE
  8
0
 62
     0
 10
93.5814
 20
40.6686
 30
0.0
 11
93.5814
 21
39.6695
 31
0.0
  0
LINE
  8
0
 62
     0
 10
93.5814
 20
39.6695
 30
0.0
 11
92.7806
 21
39.6695
 31
0.0
  0
LINE
  8
0
 62
     0
 10
92.7806
 20
39.6695
 30
0.0
 11
92.7806
 21
36.5704
 31
0.0
  0
LINE
  8
0
 62
     0
 10
92.7806
 20
36.5704
 30
0.0
 11
93.5814
 21
36.5704
 31
0.0
  0
LINE
  8
0
 62
     0
 10
93.5814
 20
36.5704
 30
0.0
 11
93.5814
 21
30.7689
 31
0.0
  0
LINE
  8
0
 62
     0
 10
93.5814
 20
30.7689
 30
0.0
 11
92.7806
 21
30.7689
 31
0.0
  0
LINE
  8
0
 62
     0
 10
92.7806
 20
30.7689
 30
0.0
 11
92.7806
 21
27.6696
 31
0.0
  0
LINE
  8
0
 62
     0
 10
92.7806
 20
27.6696
 30
0.0
 11
93.5814
 21
27.6696
 31
0.0
  0
LINE
  8
0
 62
     0
 10
93.5814
 20
27.6696
 30
0.0
 11
93.5814
 21
26.6692
 31
0.0
  0
LINE
  8
0
 62
     0
 10
93.5814
 20
26.6692
 30
0.0
 11
107.581
 21
26.6692
 31
0.0
  0
LINE
  8
0
 62
     0
 10
107.581
 20
26.6692
 30
0.0
 11
107.581
 21
27.6696
 31
0.0
  0
LINE
  8
0
 62
     0
 10
107.581
 20
27.6696
 30
0.0
 11
108.381
 21
27.6696
 31
0.0
  0
LINE
  8
0
 62
     0
 10
108.381
 20
27.6696
 30
0.0
 11
108.381
 21
30.7689
 31
0.0
  0
LINE
  8
0
 62
     0
 10
108.381
 20
30.7689
 30
0.0
 11
107.581
 21
30.7689
 31
0.0
  0
LINE
  8
0
 62
     0
 10
107.581
 20
30.7689
 30
0.0
 11
107.581
 21
36.5704
 31
0.0
  0
LINE
  8
0
 62
     0
 10
107.581
 20
36.5704
 30
0.0
 11
108.381
 21
36.5704
 31
0.0
  0
LINE
  8
0
 62
     0
 10
108.381
 20
36.5704
 30
0.0
 11
108.381
 21
39.6695
 31
0.0
  0
LINE
  8
0
 62
     0
 10
108.381
 20
39.6695
 30
0.0
 11
107.581
 21
39.6695
 31
0.0
  0
LINE
  8
0
 62
     0
 10
107.581
 20
39.6695
 30
0.0
 11
107.581
 21
40.6686
 31
0.0
  0
LINE
  8
0
 62
     0
 10
107.581
 20
40.6686
 30
0.0
 11
93.5814
 21
40.6686
 31
0.0
  0
LINE
  8
0
 62
     0
 10
112.631
 20
40.6686
 30
0.0
 11
112.631
 21
39.6695
 31
0.0
  0
LINE
  8
0
 62
     0
 10
112.631
 20
39.6695
 30
0.0
 11
111.831
 21
39.6695
 31
0.0
  0
LINE
  8
0
 62
     0
 10
111.831
 20
39.6695
 30
0.0
 11
111.831
 21
36.5704
 31
0.0
  0
LINE
  8
0
 62
     0
 10
111.831
 20
36.5704
 30
0.0
 11
112.631
 21
36.5704
 31
0.0
  0
LINE
  8
0
 62
     0
 10
112.631
 20
36.5704
 30
0.0
 11
112.631
 21
30.7689
 31
0.0
  0
LINE
  8
0
 62
     0
 10
112.631
 20
30.7689
 30
0.0
 11
111.831
 21
30.7689
 31
0.0
  0
LINE
  8
0
 62
     0
 10
111.831
 20
30.7689
 30
0.0
 11
111.831
 21
27.6696
 31
0.0
  0
LINE
  8
0
 62
     0
 10
111.831
 20
27.6696
 30
0.0
 11
112.631
 21
27.6696
 31
0.0
  0
LINE
  8
0
 62
     0
 10
112.631
 20
27.6696
 30
0.0
 11
112.631
 21
26.6692
 31
0.0
  0
LINE
  8
0
 62
     0
 10
112.631
 20
26.6692
 30
0.0
 11
126.631
 21
26.6692
 31
0.0
  0
LINE
  8
0
 62
     0
 10
126.631
 20
26.6692
 30
0.0
 11
126.631
 21
27.6696
 31
0.0
  0
LINE
  8
0
 62
     0
 10
126.631
 20
27.6696
 30
0.0
 11
127.431
 21
27.6696
 31
0.0
  0
LINE
  8
0
 62
     0
 10
127.431
 20
27.6696
 30
0.0
 11
127.431
 21
30.7689
 31
0.0
  0
LINE
  8
0
 62
     0
 10
127.431
 20
30.7689
 30
0.0
 11
126.631
 21
30.7689
 31
0.0
  0
LINE
  8
0
 62
     0
 10
126.631
 20
30.7689
 30
0.0
 11
126.631
 21
36.5704
 31
0.0
  0
LINE
  8
0
 62
     0
 10
126.631
 20
36.5704
 30
0.0
 11
127.431
 21
36.5704
 31
0.0
  0
LINE
  8
0
 62
     0
 10
127.431
 20
36.5704
 30
0.0
 11
127.431
 21
39.6695
 31
0.0
  0
LINE
  8
0
 62
     0
 10
127.431
 20
39.6695
 30
0.0
 11
126.631
 21
39.6695
 31
0.0
  0
LINE
  8
0
 62
     0
 10
126.631
 20
39.6695
 30
0.0
 11
126.631
 21
40.6686
 31
0.0
  0
LINE
  8
0
 62
     0
 10
126.631
 20
40.6686
 30
0.0
 11
112.631
 21
40.6686
 31
0.0
  0
LINE
  8
0
 62
     0
 10
131.681
 20
40.6686
 30
0.0
 11
131.681
 21
39.6695
 31
0.0
  0
LINE
  8
0
 62
     0
 10
131.681
 20
39.6695
 30
0.0
 11
130.881
 21
39.6695
 31
0.0
  0
LINE
  8
0
 62
     0
 10
130.881
 20
39.6695
 30
0.0
 11
130.881
 21
36.5704
 31
0.0
  0
LINE
  8
0
 62
     0
 10
130.881
 20
36.5704
 30
0.0
 11
131.681
 21
36.5704
 31
0.0
  0
LINE
  8
0
 62
     0
 10
131.681
 20
36.5704
 30
0.0
 11
131.681
 21
30.7689
 31
0.0
  0
LINE
  8
0
 62
     0
 10
131.681
 20
30.7689
 30
0.0
 11
130.881
 21
30.7689
 31
0.0
  0
LINE
  8
0
 62
     0
 10
130.881
 20
30.7689
 30
0.0
 11
130.881
 21
27.6696
 31
0.0
  0
LINE
  8
0
 62
     0
 10
130.881
 20
27.6696
 30
0.0
 11
131.681
 21
27.6696
 31
0.0
  0
LINE
  8
0
 62
     0
 10
131.681
 20
27.6696
 30
0.0
 11
131.681
 21
26.6692
 31
0.0
  0
LINE
  8
0
 62
     0
 10
131.681
 20
26.6692
 30
0.0
 11
145.681
 21
26.6692
 31
0.0
  0
LINE
  8
0
 62
     0
 10
145.681
 20
26.6692
 30
0.0
 11
145.681
 21
27.6696
 31
0.0
  0
LINE
  8
0
 62
     0
 10
145.681
 20
27.6696
 30
0.0
 11
146.481
 21
27.6696
 31
0.0
  0
LINE
  8
0
 62
     0
 10
146.481
 20
27.6696
 30
0.0
 11
146.481
 21
30.7689
 31
0.0
  0
LINE
  8
0
 62
     0
 10
146.481
 20
30.7689
 30
0.0
 11
145.681
 21
30.7689
 31
0.0
  0
LINE
  8
0
 62
     0
 10
145.681
 20
30.7689
 30
0.0
 11
145.681
 21
36.5704
 31
0.0
  0
LINE
  8
0
 62
     0
 10
145.681
 20
36.5704
 30
0.0
 11
146.481
 21
36.5704
 31
0.0
  0
LINE
  8
0
 62
     0
 10
146.481
 20
36.5704
 30
0.0
 11
146.481
 21
39.6695
 31
0.0
  0
LINE
  8
0
 62
     0
 10
146.481
 20
39.6695
 30
0.0
 11
145.681
 21
39.6695
 31
0.0
  0
LINE
  8
0
 62
     0
 10
145.681
 20
39.6695
 30
0.0
 11
145.681
 21
40.6686
 31
0.0
  0
LINE
  8
0
 62
     0
 10
145.681
 20
40.6686
 30
0.0
 11
131.681
 21
40.6686
 31
0.0
  0
LINE
  8
0
 62
     0
 10
150.731
 20
40.6686
 30
0.0
 11
150.731
 21
39.6695
 31
0.0
  0
LINE
  8
0
 62
     0
 10
150.731
 20
39.6695
 30
0.0
 11
149.931
 21
39.6695
 31
0.0
  0
LINE
  8
0
 62
     0
 10
149.931
 20
39.6695
 30
0.0
 11
149.931
 21
36.5704
 31
0.0
  0
LINE
  8
0
 62
     0
 10
149.931
 20
36.5704
 30
0.0
 11
150.731
 21
36.5704
 31
0.0
  0
LINE
  8
0
 62
     0
 10
150.731
 20
36.5704
 30
0.0
 11
150.731
 21
30.7689
 31
0.0
  0
LINE
  8
0
 62
     0
 10
150.731
 20
30.7689
 30
0.0
 11
149.931
 21
30.7689
 31
0.0
  0
LINE
  8
0
 62
     0
 10
149.931
 20
30.7689
 30
0.0
 11
149.931
 21
27.6696
 31
0.0
  0
LINE
  8
0
 62
     0
 10
149.931
 20
27.6696
 30
0.0
 11
150.731
 21
27.6696
 31
0.0
  0
LINE
  8
0
 62
     0
 10
150.731
 20
27.6696
 30
0.0
 11
150.731
 21
26.6692
 31
0.0
  0
LINE
  8
0
 62
     0
 10
150.731
 20
26.6692
 30
0.0
 11
164.731
 21
26.6692
 31
0.0
  0
LINE
  8
0
 62
     0
 10
164.731
 20
26.6692
 30
0.0
 11
164.731
 21
27.6696
 31
0.0
  0
LINE
  8
0
 62
     0
 10
164.731
 20
27.6696
 30
0.0
 11
165.531
 21
27.6696
 31
0.0
  0
LINE
  8
0
 62
     0
 10
165.531
 20
27.6696
 30
0.0
 11
165.531
 21
30.7689
 31
0.0
  0
LINE
  8
0
 62
     0
 10
165.531
 20
30.7689
 30
0.0
 11
164.731
 21
30.7689
 31
0.0
  0
LINE
  8
0
 62
     0
 10
164.731
 20
30.7689
 30
0.0
 11
164.731
 21
36.5704
 31
0.0
  0
LINE
  8
0
 62
     0
 10
164.731
 20
36.5704
 30
0.0
 11
165.531
 21
36.5704
 31
0.0
  0
LINE
  8
0
 62
     0
 10
165.531
 20
36.5704
 30
0.0
 11
165.531
 21
39.6695
 31
0.0
  0
LINE
  8
0
 62
     0
 10
165.531
 20
39.6695
 30
0.0
 11
164.731
 21
39.6695
 31
0.0
  0
LINE
  8
0
 62
     0
 10
164.731
 20
39.6695
 30
0.0
 11
164.731
 21
40.6686
 31
0.0
  0
LINE
  8
0
 62
     0
 10
164.731
 20
40.6686
 30
0.0
 11
150.731
 21
40.6686
 31
0.0
  0
LINE
  8
0
 62
     0
 10
169.781
 20
40.6686
 30
0.0
 11
169.781
 21
39.6695
 31
0.0
  0
LINE
  8
0
 62
     0
 10
169.781
 20
39.6695
 30
0.0
 11
168.981
 21
39.6695
 31
0.0
  0
LINE
  8
0
 62
     0
 10
168.981
 20
39.6695
 30
0.0
 11
168.981
 21
36.5704
 31
0.0
  0
LINE
  8
0
 62
     0
 10
168.981
 20
36.5704
 30
0.0
 11
169.781
 21
36.5704
 31
0.0
  0
LINE
  8
0
 62
     0
 10
169.781
 20
36.5704
 30
0.0
 11
169.781
 21
30.7689
 31
0.0
  0
LINE
  8
0
 62
     0
 10
169.781
 20
30.7689
 30
0.0
 11
168.981
 21
30.7689
 31
0.0
  0
LINE
  8
0
 62
     0
 10
168.981
 20
30.7689
 30
0.0
 11
168.981
 21
27.6696
 31
0.0
  0
LINE
  8
0
 62
     0
 10
168.981
 20
27.6696
 30
0.0
 11
169.781
 21
27.6696
 31
0.0
  0
LINE
  8
0
 62
     0
 10
169.781
 20
27.6696
 30
0.0
 11
169.781
 21
26.6692
 31
0.0
  0
LINE
  8
0
 62
     0
 10
169.781
 20
26.6692
 30
0.0
 11
183.781
 21
26.6692
 31
0.0
  0
LINE
  8
0
 62
     0
 10
183.781
 20
26.6692
 30
0.0
 11
183.781
 21
27.6696
 31
0.0
  0
LINE
  8
0
 62
     0
 10
183.781
 20
27.6696
 30
0.0
 11
184.581
 21
27.6696
 31
0.0
  0
LINE
  8
0
 62
     0
 10
184.581
 20
27.6696
 30
0.0
 11
184.581
 21
30.7689
 31
0.0
  0
LINE
  8
0
 62
     0
 10
184.581
 20
30.7689
 30
0.0
 11
183.781
 21
30.7689
 31
0.0
  0
LINE
  8
0
 62
     0
 10
183.781
 20
30.7689
 30
0.0
 11
183.781
 21
36.5704
 31
0.0
  0
LINE
  8
0
 62
     0
 10
183.781
 20
36.5704
 30
0.0
 11
184.581
 21
36.5704
 31
0.0
  0
LINE
  8
0
 62
     0
 10
184.581
 20
36.5704
 30
0.0
 11
184.581
 21
39.6695
 31
0.0
  0
LINE
  8
0
 62
     0
 10
184.581
 20
39.6695
 30
0.0
 11
183.781
 21
39.6695
 31
0.0
  0
LINE
  8
0
 62
     0
 10
183.781
 20
39.6695
 30
0.0
 11
183.781
 21
40.6686
 31
0.0
  0
LINE
  8
0
 62
     0
 10
183.781
 20
40.6686
 30
0.0
 11
169.781
 21
40.6686
 31
0.0
  0
LINE
  8
0
 62
     0
 10
188.831
 20
40.6686
 30
0.0
 11
188.831
 21
39.6695
 31
0.0
  0
LINE
  8
0
 62
     0
 10
188.831
 20
39.6695
 30
0.0
 11
188.031
 21
39.6695
 31
0.0
  0
LINE
  8
0
 62
     0
 10
188.031
 20
39.6695
 30
0.0
 11
188.031
 21
36.5704
 31
0.0
  0
LINE
  8
0
 62
     0
 10
188.031
 20
36.5704
 30
0.0
 11
188.831
 21
36.5704
 31
0.0
  0
LINE
  8
0
 62
     0
 10
188.831
 20
36.5704
 30
0.0
 11
188.831
 21
30.7689
 31
0.0
  0
LINE
  8
0
 62
     0
 10
188.831
 20
30.7689
 30
0.0
 11
188.031
 21
30.7689
 31
0.0
  0
LINE
  8
0
 62
     0
 10
188.031
 20
30.7689
 30
0.0
 11
188.031
 21
27.6696
 31
0.0
  0
LINE
  8
0
 62
     0
 10
188.031
 20
27.6696
 30
0.0
 11
188.831
 21
27.6696
 31
0.0
  0
LINE
  8
0
 62
     0
 10
188.831
 20
27.6696
 30
0.0
 11
188.831
 21
26.6692
 31
0.0
  0
LINE
  8
0
 62
     0
 10
188.831
 20
26.6692
 30
0.0
 11
202.831
 21
26.6692
 31
0.0
  0
LINE
  8
0
 62
     0
 10
202.831
 20
26.6692
 30
0.0
 11
202.831
 21
27.6696
 31
0.0
  0
LINE
  8
0
 62
     0
 10
202.831
 20
27.6696
 30
0.0
 11
203.631
 21
27.6696
 31
0.0
  0
LINE
  8
0
 62
     0
 10
203.631
 20
27.6696
 30
0.0
 11
203.631
 21
30.7689
 31
0.0
  0
LINE
  8
0
 62
     0
 10
203.631
 20
30.7689
 30
0.0
 11
202.831
 21
30.7689
 31
0.0
  0
LINE
  8
0
 62
     0
 10
202.831
 20
30.7689
 30
0.0
 11
202.831
 21
36.5704
 31
0.0
  0
LINE
  8
0
 62
     0
 10
202.831
 20
36.5704
 30
0.0
 11
203.631
 21
36.5704
 31
0.0
  0
LINE
  8
0
 62
     0
 10
203.631
 20
36.5704
 30
0.0
 11
203.631
 21
39.6695
 31
0.0
  0
LINE
  8
0
 62
     0
 10
203.631
 20
39.6695
 30
0.0
 11
202.831
 21
39.6695
 31
0.0
  0
LINE
  8
0
 62
     0
 10
202.831
 20
39.6695
 30
0.0
 11
202.831
 21
40.6686
 31
0.0
  0
LINE
  8
0
 62
     0
 10
202.831
 20
40.6686
 30
0.0
 11
188.831
 21
40.6686
 31
0.0
  0
LINE
  8
0
 62
     0
 10
207.881
 20
40.6686
 30
0.0
 11
207.881
 21
39.6695
 31
0.0
  0
LINE
  8
0
 62
     0
 10
207.881
 20
39.6695
 30
0.0
 11
207.081
 21
39.6695
 31
0.0
  0
LINE
  8
0
 62
     0
 10
207.081
 20
39.6695
 30
0.0
 11
207.081
 21
36.5704
 31
0.0
  0
LINE
  8
0
 62
     0
 10
207.081
 20
36.5704
 30
0.0
 11
207.881
 21
36.5704
 31
0.0
  0
LINE
  8
0
 62
     0
 10
207.881
 20
36.5704
 30
0.0
 11
207.881
 21
30.7689
 31
0.0
  0
LINE
  8
0
 62
     0
 10
207.881
 20
30.7689
 30
0.0
 11
207.081
 21
30.7689
 31
0.0
  0
LINE
  8
0
 62
     0
 10
207.081
 20
30.7689
 30
0.0
 11
207.081
 21
27.6696
 31
0.0
  0
LINE
  8
0
 62
     0
 10
207.081
 20
27.6696
 30
0.0
 11
207.881
 21
27.6696
 31
0.0
  0
LINE
  8
0
 62
     0
 10
207.881
 20
27.6696
 30
0.0
 11
207.881
 21
26.6692
 31
0.0
  0
LINE
  8
0
 62
     0
 10
207.881
 20
26.6692
 30
0.0
 11
221.881
 21
26.6692
 31
0.0
  0
LINE
  8
0
 62
     0
 10
221.881
 20
26.6692
 30
0.0
 11
221.881
 21
27.6696
 31
0.0
  0
LINE
  8
0
 62
     0
 10
221.881
 20
27.6696
 30
0.0
 11
222.681
 21
27.6696
 31
0.0
  0
LINE
  8
0
 62
     0
 10
222.681
 20
27.6696
 30
0.0
 11
222.681
 21
30.7689
 31
0.0
  0
LINE
  8
0
 62
     0
 10
222.681
 20
30.7689
 30
0.0
 11
221.881
 21
30.7689
 31
0.0
  0
LINE
  8
0
 62
     0
 10
221.881
 20
30.7689
 30
0.0
 11
221.881
 21
36.5704
 31
0.0
  0
LINE
  8
0
 62
     0
 10
221.881
 20
36.5704
 30
0.0
 11
222.681
 21
36.5704
 31
0.0
  0
LINE
  8
0
 62
     0
 10
222.681
 20
36.5704
 30
0.0
 11
222.681
 21
39.6695
 31
0.0
  0
LINE
  8
0
 62
     0
 10
222.681
 20
39.6695
 30
0.0
 11
221.881
 21
39.6695
 31
0.0
  0
LINE
  8
0
 62
     0
 10
221.881
 20
39.6695
 30
0.0
 11
221.881
 21
40.6686
 31
0.0
  0
LINE
  8
0
 62
     0
 10
221.881
 20
40.6686
 30
0.0
 11
207.881
 21
40.6686
 31
0.0
  0
LINE
  8
0
 62
     0
 10
226.931
 20
40.6686
 30
0.0
 11
226.931
 21
39.6695
 31
0.0
  0
LINE
  8
0
 62
     0
 10
226.931
 20
39.6695
 30
0.0
 11
226.131
 21
39.6695
 31
0.0
  0
LINE
  8
0
 62
     0
 10
226.131
 20
39.6695
 30
0.0
 11
226.131
 21
36.5704
 31
0.0
  0
LINE
  8
0
 62
     0
 10
226.131
 20
36.5704
 30
0.0
 11
226.931
 21
36.5704
 31
0.0
  0
LINE
  8
0
 62
     0
 10
226.931
 20
36.5704
 30
0.0
 11
226.931
 21
30.7689
 31
0.0
  0
LINE
  8
0
 62
     0
 10
226.931
 20
30.7689
 30
0.0
 11
226.131
 21
30.7689
 31
0.0
  0
LINE
  8
0
 62
     0
 10
226.131
 20
30.7689
 30
0.0
 11
226.131
 21
27.6696
 31
0.0
  0
LINE
  8
0
 62
     0
 10
226.131
 20
27.6696
 30
0.0
 11
226.931
 21
27.6696
 31
0.0
  0
LINE
  8
0
 62
     0
 10
226.931
 20
27.6696
 30
0.0
 11
226.931
 21
26.6692
 31
0.0
  0
LINE
  8
0
 62
     0
 10
226.931
 20
26.6692
 30
0.0
 11
240.931
 21
26.6692
 31
0.0
  0
LINE
  8
0
 62
     0
 10
240.931
 20
26.6692
 30
0.0
 11
240.931
 21
27.6696
 31
0.0
  0
LINE
  8
0
 62
     0
 10
240.931
 20
27.6696
 30
0.0
 11
241.731
 21
27.6696
 31
0.0
  0
LINE
  8
0
 62
     0
 10
241.731
 20
27.6696
 30
0.0
 11
241.731
 21
30.7689
 31
0.0
  0
LINE
  8
0
 62
     0
 10
241.731
 20
30.7689
 30
0.0
 11
240.931
 21
30.7689
 31
0.0
  0
LINE
  8
0
 62
     0
 10
240.931
 20
30.7689
 30
0.0
 11
240.931
 21
36.5704
 31
0.0
  0
LINE
  8
0
 62
     0
 10
240.931
 20
36.5704
 30
0.0
 11
241.731
 21
36.5704
 31
0.0
  0
LINE
  8
0
 62
     0
 10
241.731
 20
36.5704
 30
0.0
 11
241.731
 21
39.6695
 31
0.0
  0
LINE
  8
0
 62
     0
 10
241.731
 20
39.6695
 30
0.0
 11
240.931
 21
39.6695
 31
0.0
  0
LINE
  8
0
 62
     0
 10
240.931
 20
39.6695
 30
0.0
 11
240.931
 21
40.6686
 31
0.0
  0
LINE
  8
0
 62
     0
 10
240.931
 20
40.6686
 30
0.0
 11
226.931
 21
40.6686
 31
0.0
  0
LINE
  8
0
 62
     0
 10
245.981
 20
40.6686
 30
0.0
 11
245.981
 21
39.6695
 31
0.0
  0
LINE
  8
0
 62
     0
 10
245.981
 20
39.6695
 30
0.0
 11
245.181
 21
39.6695
 31
0.0
  0
LINE
  8
0
 62
     0
 10
245.181
 20
39.6695
 30
0.0
 11
245.181
 21
36.5704
 31
0.0
  0
LINE
  8
0
 62
     0
 10
245.181
 20
36.5704
 30
0.0
 11
245.981
 21
36.5704
 31
0.0
  0
LINE
  8
0
 62
     0
 10
245.981
 20
36.5704
 30
0.0
 11
245.981
 21
30.7689
 31
0.0
  0
LINE
  8
0
 62
     0
 10
245.981
 20
30.7689
 30
0.0
 11
245.181
 21
30.7689
 31
0.0
  0
LINE
  8
0
 62
     0
 10
245.181
 20
30.7689
 30
0.0
 11
245.181
 21
27.6696
 31
0.0
  0
LINE
  8
0
 62
     0
 10
245.181
 20
27.6696
 30
0.0
 11
245.981
 21
27.6696
 31
0.0
  0
LINE
  8
0
 62
     0
 10
245.981
 20
27.6696
 30
0.0
 11
245.981
 21
26.6692
 31
0.0
  0
LINE
  8
0
 62
     0
 10
245.981
 20
26.6692
 30
0.0
 11
259.981
 21
26.6692
 31
0.0
  0
LINE
  8
0
 62
     0
 10
259.981
 20
26.6692
 30
0.0
 11
259.981
 21
27.6696
 31
0.0
  0
LINE
  8
0
 62
     0
 10
259.981
 20
27.6696
 30
0.0
 11
260.781
 21
27.6696
 31
0.0
  0
LINE
  8
0
 62
     0
 10
260.781
 20
27.6696
 30
0.0
 11
260.781
 21
30.7689
 31
0.0
  0
LINE
  8
0
 62
     0
 10
260.781
 20
30.7689
 30
0.0
 11
259.981
 21
30.7689
 31
0.0
  0
LINE
  8
0
 62
     0
 10
259.981
 20
30.7689
 30
0.0
 11
259.981
 21
36.5704
 31
0.0
  0
LINE
  8
0
 62
     0
 10
259.981
 20
36.5704
 30
0.0
 11
260.781
 21
36.5704
 31
0.0
  0
LINE
  8
0
 62
     0
 10
260.781
 20
36.5704
 30
0.0
 11
260.781
 21
39.6695
 31
0.0
  0
LINE
  8
0
 62
     0
 10
260.781
 20
39.6695
 30
0.0
 11
259.981
 21
39.6695
 31
0.0
  0
LINE
  8
0
 62
     0
 10
259.981
 20
39.6695
 30
0.0
 11
259.981
 21
40.6686
 31
0.0
  0
LINE
  8
0
 62
     0
 10
259.981
 20
40.6686
 30
0.0
 11
245.981
 21
40.6686
 31
0.0
  0
LINE
  8
0
 62
     0
 10
272.175
 20
40.6686
 30
0.0
 11
272.175
 21
39.6695
 31
0.0
  0
LINE
  8
0
 62
     0
 10
272.175
 20
39.6695
 30
0.0
 11
271.374
 21
39.6695
 31
0.0
  0
LINE
  8
0
 62
     0
 10
271.374
 20
39.6695
 30
0.0
 11
271.374
 21
36.5704
 31
0.0
  0
LINE
  8
0
 62
     0
 10
271.374
 20
36.5704
 30
0.0
 11
272.175
 21
36.5704
 31
0.0
  0
LINE
  8
0
 62
     0
 10
272.175
 20
36.5704
 30
0.0
 11
272.175
 21
30.7689
 31
0.0
  0
LINE
  8
0
 62
     0
 10
272.175
 20
30.7689
 30
0.0
 11
271.374
 21
30.7689
 31
0.0
  0
LINE
  8
0
 62
     0
 10
271.374
 20
30.7689
 30
0.0
 11
271.374
 21
27.6696
 31
0.0
  0
LINE
  8
0
 62
     0
 10
271.374
 20
27.6696
 30
0.0
 11
272.175
 21
27.6696
 31
0.0
  0
LINE
  8
0
 62
     0
 10
272.175
 20
27.6696
 30
0.0
 11
272.175
 21
26.6692
 31
0.0
  0
LINE
  8
0
 62
     0
 10
272.175
 20
26.6692
 30
0.0
 11
286.174
 21
26.6692
 31
0.0
  0
LINE
  8
0
 62
     0
 10
286.174
 20
26.6692
 30
0.0
 11
286.174
 21
27.6696
 31
0.0
  0
LINE
  8
0
 62
     0
 10
286.174
 20
27.6696
 30
0.0
 11
286.975
 21
27.6696
 31
0.0
  0
LINE
  8
0
 62
     0
 10
286.975
 20
27.6696
 30
0.0
 11
286.975
 21
30.7689
 31
0.0
  0
LINE
  8
0
 62
     0
 10
286.975
 20
30.7689
 30
0.0
 11
286.174
 21
30.7689
 31
0.0
  0
LINE
  8
0
 62
     0
 10
286.174
 20
30.7689
 30
0.0
 11
286.174
 21
36.5704
 31
0.0
  0
LINE
  8
0
 62
     0
 10
286.174
 20
36.5704
 30
0.0
 11
286.975
 21
36.5704
 31
0.0
  0
LINE
  8
0
 62
     0
 10
286.975
 20
36.5704
 30
0.0
 11
286.975
 21
39.6695
 31
0.0
  0
LINE
  8
0
 62
     0
 10
286.975
 20
39.6695
 30
0.0
 11
286.174
 21
39.6695
 31
0.0
  0
LINE
  8
0
 62
     0
 10
286.174
 20
39.6695
 30
0.0
 11
286.174
 21
40.6686
 31
0.0
  0
LINE
  8
0
 62
     0
 10
286.174
 20
40.6686
 30
0.0
 11
272.175
 21
40.6686
 31
0.0
  0
LINE
  8
0
 62
     0
 10
19.7611
 20
59.7186
 30
0.0
 11
19.7611
 21
58.7195
 31
0.0
  0
LINE
  8
0
 62
     0
 10
19.7611
 20
58.7195
 30
0.0
 11
18.9618
 21
58.7195
 31
0.0
  0
LINE
  8
0
 62
     0
 10
18.9618
 20
58.7195
 30
0.0
 11
18.9618
 21
55.6189
 31
0.0
  0
LINE
  8
0
 62
     0
 10
18.9618
 20
55.6189
 30
0.0
 11
19.7611
 21
55.6189
 31
0.0
  0
LINE
  8
0
 62
     0
 10
19.7611
 20
55.6189
 30
0.0
 11
19.7611
 21
49.8189
 31
0.0
  0
LINE
  8
0
 62
     0
 10
19.7611
 20
49.8189
 30
0.0
 11
18.9618
 21
49.8189
 31
0.0
  0
LINE
  8
0
 62
     0
 10
18.9618
 20
49.8189
 30
0.0
 11
18.9618
 21
46.7198
 31
0.0
  0
LINE
  8
0
 62
     0
 10
18.9618
 20
46.7198
 30
0.0
 11
19.7611
 21
46.7198
 31
0.0
  0
LINE
  8
0
 62
     0
 10
19.7611
 20
46.7198
 30
0.0
 11
19.7611
 21
45.7193
 31
0.0
  0
LINE
  8
0
 62
     0
 10
19.7611
 20
45.7193
 30
0.0
 11
33.7619
 21
45.7193
 31
0.0
  0
LINE
  8
0
 62
     0
 10
33.7619
 20
45.7193
 30
0.0
 11
33.7619
 21
46.7198
 31
0.0
  0
LINE
  8
0
 62
     0
 10
33.7619
 20
46.7198
 30
0.0
 11
34.5612
 21
46.7198
 31
0.0
  0
LINE
  8
0
 62
     0
 10
34.5612
 20
46.7198
 30
0.0
 11
34.5612
 21
49.8189
 31
0.0
  0
LINE
  8
0
 62
     0
 10
34.5612
 20
49.8189
 30
0.0
 11
33.7619
 21
49.8189
 31
0.0
  0
LINE
  8
0
 62
     0
 10
33.7619
 20
49.8189
 30
0.0
 11
33.7619
 21
55.6189
 31
0.0
  0
LINE
  8
0
 62
     0
 10
33.7619
 20
55.6189
 30
0.0
 11
34.5612
 21
55.6189
 31
0.0
  0
LINE
  8
0
 62
     0
 10
34.5612
 20
55.6189
 30
0.0
 11
34.5612
 21
58.7195
 31
0.0
  0
LINE
  8
0
 62
     0
 10
34.5612
 20
58.7195
 30
0.0
 11
33.7619
 21
58.7195
 31
0.0
  0
LINE
  8
0
 62
     0
 10
33.7619
 20
58.7195
 30
0.0
 11
33.7619
 21
59.7186
 31
0.0
  0
LINE
  8
0
 62
     0
 10
33.7619
 20
59.7186
 30
0.0
 11
19.7611
 21
59.7186
 31
0.0
  0
LINE
  8
0
 62
     0
 10
45.9564
 20
59.7186
 30
0.0
 11
45.9564
 21
58.7195
 31
0.0
  0
LINE
  8
0
 62
     0
 10
45.9564
 20
58.7195
 30
0.0
 11
45.1556
 21
58.7195
 31
0.0
  0
LINE
  8
0
 62
     0
 10
45.1556
 20
58.7195
 30
0.0
 11
45.1556
 21
55.6189
 31
0.0
  0
LINE
  8
0
 62
     0
 10
45.1556
 20
55.6189
 30
0.0
 11
45.9564
 21
55.6189
 31
0.0
  0
LINE
  8
0
 62
     0
 10
45.9564
 20
55.6189
 30
0.0
 11
45.9564
 21
49.8189
 31
0.0
  0
LINE
  8
0
 62
     0
 10
45.9564
 20
49.8189
 30
0.0
 11
45.1556
 21
49.8189
 31
0.0
  0
LINE
  8
0
 62
     0
 10
45.1556
 20
49.8189
 30
0.0
 11
45.1556
 21
46.7198
 31
0.0
  0
LINE
  8
0
 62
     0
 10
45.1556
 20
46.7198
 30
0.0
 11
45.9564
 21
46.7198
 31
0.0
  0
LINE
  8
0
 62
     0
 10
45.9564
 20
46.7198
 30
0.0
 11
45.9564
 21
45.7193
 31
0.0
  0
LINE
  8
0
 62
     0
 10
45.9564
 20
45.7193
 30
0.0
 11
59.9542
 21
45.7193
 31
0.0
  0
LINE
  8
0
 62
     0
 10
59.9542
 20
45.7193
 30
0.0
 11
59.9542
 21
46.7198
 31
0.0
  0
LINE
  8
0
 62
     0
 10
59.9542
 20
46.7198
 30
0.0
 11
60.7564
 21
46.7198
 31
0.0
  0
LINE
  8
0
 62
     0
 10
60.7564
 20
46.7198
 30
0.0
 11
60.7564
 21
49.8189
 31
0.0
  0
LINE
  8
0
 62
     0
 10
60.7564
 20
49.8189
 30
0.0
 11
59.9542
 21
49.8189
 31
0.0
  0
LINE
  8
0
 62
     0
 10
59.9542
 20
49.8189
 30
0.0
 11
59.9542
 21
55.6189
 31
0.0
  0
LINE
  8
0
 62
     0
 10
59.9542
 20
55.6189
 30
0.0
 11
60.7564
 21
55.6189
 31
0.0
  0
LINE
  8
0
 62
     0
 10
60.7564
 20
55.6189
 30
0.0
 11
60.7564
 21
58.7195
 31
0.0
  0
LINE
  8
0
 62
     0
 10
60.7564
 20
58.7195
 30
0.0
 11
59.9542
 21
58.7195
 31
0.0
  0
LINE
  8
0
 62
     0
 10
59.9542
 20
58.7195
 30
0.0
 11
59.9542
 21
59.7186
 31
0.0
  0
LINE
  8
0
 62
     0
 10
59.9542
 20
59.7186
 30
0.0
 11
45.9564
 21
59.7186
 31
0.0
  0
LINE
  8
0
 62
     0
 10
65.0064
 20
59.7186
 30
0.0
 11
65.0064
 21
58.7195
 31
0.0
  0
LINE
  8
0
 62
     0
 10
65.0064
 20
58.7195
 30
0.0
 11
64.2056
 21
58.7195
 31
0.0
  0
LINE
  8
0
 62
     0
 10
64.2056
 20
58.7195
 30
0.0
 11
64.2056
 21
55.6189
 31
0.0
  0
LINE
  8
0
 62
     0
 10
64.2056
 20
55.6189
 30
0.0
 11
65.0064
 21
55.6189
 31
0.0
  0
LINE
  8
0
 62
     0
 10
65.0064
 20
55.6189
 30
0.0
 11
65.0064
 21
49.8189
 31
0.0
  0
LINE
  8
0
 62
     0
 10
65.0064
 20
49.8189
 30
0.0
 11
64.2056
 21
49.8189
 31
0.0
  0
LINE
  8
0
 62
     0
 10
64.2056
 20
49.8189
 30
0.0
 11
64.2056
 21
46.7198
 31
0.0
  0
LINE
  8
0
 62
     0
 10
64.2056
 20
46.7198
 30
0.0
 11
65.0064
 21
46.7198
 31
0.0
  0
LINE
  8
0
 62
     0
 10
65.0064
 20
46.7198
 30
0.0
 11
65.0064
 21
45.7193
 31
0.0
  0
LINE
  8
0
 62
     0
 10
65.0064
 20
45.7193
 30
0.0
 11
79.0056
 21
45.7193
 31
0.0
  0
LINE
  8
0
 62
     0
 10
79.0056
 20
45.7193
 30
0.0
 11
79.0056
 21
46.7198
 31
0.0
  0
LINE
  8
0
 62
     0
 10
79.0056
 20
46.7198
 30
0.0
 11
79.8065
 21
46.7198
 31
0.0
  0
LINE
  8
0
 62
     0
 10
79.8065
 20
46.7198
 30
0.0
 11
79.8065
 21
49.8189
 31
0.0
  0
LINE
  8
0
 62
     0
 10
79.8065
 20
49.8189
 30
0.0
 11
79.0056
 21
49.8189
 31
0.0
  0
LINE
  8
0
 62
     0
 10
79.0056
 20
49.8189
 30
0.0
 11
79.0056
 21
55.6189
 31
0.0
  0
LINE
  8
0
 62
     0
 10
79.0056
 20
55.6189
 30
0.0
 11
79.8065
 21
55.6189
 31
0.0
  0
LINE
  8
0
 62
     0
 10
79.8065
 20
55.6189
 30
0.0
 11
79.8065
 21
58.7195
 31
0.0
  0
LINE
  8
0
 62
     0
 10
79.8065
 20
58.7195
 30
0.0
 11
79.0056
 21
58.7195
 31
0.0
  0
LINE
  8
0
 62
     0
 10
79.0056
 20
58.7195
 30
0.0
 11
79.0056
 21
59.7186
 31
0.0
  0
LINE
  8
0
 62
     0
 10
79.0056
 20
59.7186
 30
0.0
 11
65.0064
 21
59.7186
 31
0.0
  0
LINE
  8
0
 62
     0
 10
84.0564
 20
59.7186
 30
0.0
 11
84.0564
 21
58.7195
 31
0.0
  0
LINE
  8
0
 62
     0
 10
84.0564
 20
58.7195
 30
0.0
 11
83.2556
 21
58.7195
 31
0.0
  0
LINE
  8
0
 62
     0
 10
83.2556
 20
58.7195
 30
0.0
 11
83.2556
 21
55.6189
 31
0.0
  0
LINE
  8
0
 62
     0
 10
83.2556
 20
55.6189
 30
0.0
 11
84.0564
 21
55.6189
 31
0.0
  0
LINE
  8
0
 62
     0
 10
84.0564
 20
55.6189
 30
0.0
 11
84.0564
 21
49.8189
 31
0.0
  0
LINE
  8
0
 62
     0
 10
84.0564
 20
49.8189
 30
0.0
 11
83.2556
 21
49.8189
 31
0.0
  0
LINE
  8
0
 62
     0
 10
83.2556
 20
49.8189
 30
0.0
 11
83.2556
 21
46.7198
 31
0.0
  0
LINE
  8
0
 62
     0
 10
83.2556
 20
46.7198
 30
0.0
 11
84.0564
 21
46.7198
 31
0.0
  0
LINE
  8
0
 62
     0
 10
84.0564
 20
46.7198
 30
0.0
 11
84.0564
 21
45.7193
 31
0.0
  0
LINE
  8
0
 62
     0
 10
84.0564
 20
45.7193
 30
0.0
 11
98.0556
 21
45.7193
 31
0.0
  0
LINE
  8
0
 62
     0
 10
98.0556
 20
45.7193
 30
0.0
 11
98.0556
 21
46.7198
 31
0.0
  0
LINE
  8
0
 62
     0
 10
98.0556
 20
46.7198
 30
0.0
 11
98.8564
 21
46.7198
 31
0.0
  0
LINE
  8
0
 62
     0
 10
98.8564
 20
46.7198
 30
0.0
 11
98.8564
 21
49.8189
 31
0.0
  0
LINE
  8
0
 62
     0
 10
98.8564
 20
49.8189
 30
0.0
 11
98.0556
 21
49.8189
 31
0.0
  0
LINE
  8
0
 62
     0
 10
98.0556
 20
49.8189
 30
0.0
 11
98.0556
 21
55.6189
 31
0.0
  0
LINE
  8
0
 62
     0
 10
98.0556
 20
55.6189
 30
0.0
 11
98.8564
 21
55.6189
 31
0.0
  0
LINE
  8
0
 62
     0
 10
98.8564
 20
55.6189
 30
0.0
 11
98.8564
 21
58.7195
 31
0.0
  0
LINE
  8
0
 62
     0
 10
98.8564
 20
58.7195
 30
0.0
 11
98.0556
 21
58.7195
 31
0.0
  0
LINE
  8
0
 62
     0
 10
98.0556
 20
58.7195
 30
0.0
 11
98.0556
 21
59.7186
 31
0.0
  0
LINE
  8
0
 62
     0
 10
98.0556
 20
59.7186
 30
0.0
 11
84.0564
 21
59.7186
 31
0.0
  0
LINE
  8
0
 62
     0
 10
103.106
 20
59.7186
 30
0.0
 11
103.106
 21
58.7195
 31
0.0
  0
LINE
  8
0
 62
     0
 10
103.106
 20
58.7195
 30
0.0
 11
102.306
 21
58.7195
 31
0.0
  0
LINE
  8
0
 62
     0
 10
102.306
 20
58.7195
 30
0.0
 11
102.306
 21
55.6189
 31
0.0
  0
LINE
  8
0
 62
     0
 10
102.306
 20
55.6189
 30
0.0
 11
103.106
 21
55.6189
 31
0.0
  0
LINE
  8
0
 62
     0
 10
103.106
 20
55.6189
 30
0.0
 11
103.106
 21
49.8189
 31
0.0
  0
LINE
  8
0
 62
     0
 10
103.106
 20
49.8189
 30
0.0
 11
102.306
 21
49.8189
 31
0.0
  0
LINE
  8
0
 62
     0
 10
102.306
 20
49.8189
 30
0.0
 11
102.306
 21
46.7198
 31
0.0
  0
LINE
  8
0
 62
     0
 10
102.306
 20
46.7198
 30
0.0
 11
103.106
 21
46.7198
 31
0.0
  0
LINE
  8
0
 62
     0
 10
103.106
 20
46.7198
 30
0.0
 11
103.106
 21
45.7193
 31
0.0
  0
LINE
  8
0
 62
     0
 10
103.106
 20
45.7193
 30
0.0
 11
117.106
 21
45.7193
 31
0.0
  0
LINE
  8
0
 62
     0
 10
117.106
 20
45.7193
 30
0.0
 11
117.106
 21
46.7198
 31
0.0
  0
LINE
  8
0
 62
     0
 10
117.106
 20
46.7198
 30
0.0
 11
117.906
 21
46.7198
 31
0.0
  0
LINE
  8
0
 62
     0
 10
117.906
 20
46.7198
 30
0.0
 11
117.906
 21
49.8189
 31
0.0
  0
LINE
  8
0
 62
     0
 10
117.906
 20
49.8189
 30
0.0
 11
117.106
 21
49.8189
 31
0.0
  0
LINE
  8
0
 62
     0
 10
117.106
 20
49.8189
 30
0.0
 11
117.106
 21
55.6189
 31
0.0
  0
LINE
  8
0
 62
     0
 10
117.106
 20
55.6189
 30
0.0
 11
117.906
 21
55.6189
 31
0.0
  0
LINE
  8
0
 62
     0
 10
117.906
 20
55.6189
 30
0.0
 11
117.906
 21
58.7195
 31
0.0
  0
LINE
  8
0
 62
     0
 10
117.906
 20
58.7195
 30
0.0
 11
117.106
 21
58.7195
 31
0.0
  0
LINE
  8
0
 62
     0
 10
117.106
 20
58.7195
 30
0.0
 11
117.106
 21
59.7186
 31
0.0
  0
LINE
  8
0
 62
     0
 10
117.106
 20
59.7186
 30
0.0
 11
103.106
 21
59.7186
 31
0.0
  0
LINE
  8
0
 62
     0
 10
122.156
 20
59.7186
 30
0.0
 11
122.156
 21
58.7195
 31
0.0
  0
LINE
  8
0
 62
     0
 10
122.156
 20
58.7195
 30
0.0
 11
121.356
 21
58.7195
 31
0.0
  0
LINE
  8
0
 62
     0
 10
121.356
 20
58.7195
 30
0.0
 11
121.356
 21
55.6189
 31
0.0
  0
LINE
  8
0
 62
     0
 10
121.356
 20
55.6189
 30
0.0
 11
122.156
 21
55.6189
 31
0.0
  0
LINE
  8
0
 62
     0
 10
122.156
 20
55.6189
 30
0.0
 11
122.156
 21
49.8189
 31
0.0
  0
LINE
  8
0
 62
     0
 10
122.156
 20
49.8189
 30
0.0
 11
121.356
 21
49.8189
 31
0.0
  0
LINE
  8
0
 62
     0
 10
121.356
 20
49.8189
 30
0.0
 11
121.356
 21
46.7198
 31
0.0
  0
LINE
  8
0
 62
     0
 10
121.356
 20
46.7198
 30
0.0
 11
122.156
 21
46.7198
 31
0.0
  0
LINE
  8
0
 62
     0
 10
122.156
 20
46.7198
 30
0.0
 11
122.156
 21
45.7193
 31
0.0
  0
LINE
  8
0
 62
     0
 10
122.156
 20
45.7193
 30
0.0
 11
136.156
 21
45.7193
 31
0.0
  0
LINE
  8
0
 62
     0
 10
136.156
 20
45.7193
 30
0.0
 11
136.156
 21
46.7198
 31
0.0
  0
LINE
  8
0
 62
     0
 10
136.156
 20
46.7198
 30
0.0
 11
136.956
 21
46.7198
 31
0.0
  0
LINE
  8
0
 62
     0
 10
136.956
 20
46.7198
 30
0.0
 11
136.956
 21
49.8189
 31
0.0
  0
LINE
  8
0
 62
     0
 10
136.956
 20
49.8189
 30
0.0
 11
136.156
 21
49.8189
 31
0.0
  0
LINE
  8
0
 62
     0
 10
136.156
 20
49.8189
 30
0.0
 11
136.156
 21
55.6189
 31
0.0
  0
LINE
  8
0
 62
     0
 10
136.156
 20
55.6189
 30
0.0
 11
136.956
 21
55.6189
 31
0.0
  0
LINE
  8
0
 62
     0
 10
136.956
 20
55.6189
 30
0.0
 11
136.956
 21
58.7195
 31
0.0
  0
LINE
  8
0
 62
     0
 10
136.956
 20
58.7195
 30
0.0
 11
136.156
 21
58.7195
 31
0.0
  0
LINE
  8
0
 62
     0
 10
136.156
 20
58.7195
 30
0.0
 11
136.156
 21
59.7186
 31
0.0
  0
LINE
  8
0
 62
     0
 10
136.156
 20
59.7186
 30
0.0
 11
122.156
 21
59.7186
 31
0.0
  0
LINE
  8
0
 62
     0
 10
141.206
 20
59.7186
 30
0.0
 11
141.206
 21
58.7195
 31
0.0
  0
LINE
  8
0
 62
     0
 10
141.206
 20
58.7195
 30
0.0
 11
140.406
 21
58.7195
 31
0.0
  0
LINE
  8
0
 62
     0
 10
140.406
 20
58.7195
 30
0.0
 11
140.406
 21
55.6189
 31
0.0
  0
LINE
  8
0
 62
     0
 10
140.406
 20
55.6189
 30
0.0
 11
141.206
 21
55.6189
 31
0.0
  0
LINE
  8
0
 62
     0
 10
141.206
 20
55.6189
 30
0.0
 11
141.206
 21
49.8189
 31
0.0
  0
LINE
  8
0
 62
     0
 10
141.206
 20
49.8189
 30
0.0
 11
140.406
 21
49.8189
 31
0.0
  0
LINE
  8
0
 62
     0
 10
140.406
 20
49.8189
 30
0.0
 11
140.406
 21
46.7198
 31
0.0
  0
LINE
  8
0
 62
     0
 10
140.406
 20
46.7198
 30
0.0
 11
141.206
 21
46.7198
 31
0.0
  0
LINE
  8
0
 62
     0
 10
141.206
 20
46.7198
 30
0.0
 11
141.206
 21
45.7193
 31
0.0
  0
LINE
  8
0
 62
     0
 10
141.206
 20
45.7193
 30
0.0
 11
155.206
 21
45.7193
 31
0.0
  0
LINE
  8
0
 62
     0
 10
155.206
 20
45.7193
 30
0.0
 11
155.206
 21
46.7198
 31
0.0
  0
LINE
  8
0
 62
     0
 10
155.206
 20
46.7198
 30
0.0
 11
156.006
 21
46.7198
 31
0.0
  0
LINE
  8
0
 62
     0
 10
156.006
 20
46.7198
 30
0.0
 11
156.006
 21
49.8189
 31
0.0
  0
LINE
  8
0
 62
     0
 10
156.006
 20
49.8189
 30
0.0
 11
155.206
 21
49.8189
 31
0.0
  0
LINE
  8
0
 62
     0
 10
155.206
 20
49.8189
 30
0.0
 11
155.206
 21
55.6189
 31
0.0
  0
LINE
  8
0
 62
     0
 10
155.206
 20
55.6189
 30
0.0
 11
156.006
 21
55.6189
 31
0.0
  0
LINE
  8
0
 62
     0
 10
156.006
 20
55.6189
 30
0.0
 11
156.006
 21
58.7195
 31
0.0
  0
LINE
  8
0
 62
     0
 10
156.006
 20
58.7195
 30
0.0
 11
155.206
 21
58.7195
 31
0.0
  0
LINE
  8
0
 62
     0
 10
155.206
 20
58.7195
 30
0.0
 11
155.206
 21
59.7186
 31
0.0
  0
LINE
  8
0
 62
     0
 10
155.206
 20
59.7186
 30
0.0
 11
141.206
 21
59.7186
 31
0.0
  0
LINE
  8
0
 62
     0
 10
160.256
 20
59.7186
 30
0.0
 11
160.256
 21
58.7195
 31
0.0
  0
LINE
  8
0
 62
     0
 10
160.256
 20
58.7195
 30
0.0
 11
159.456
 21
58.7195
 31
0.0
  0
LINE
  8
0
 62
     0
 10
159.456
 20
58.7195
 30
0.0
 11
159.456
 21
55.6189
 31
0.0
  0
LINE
  8
0
 62
     0
 10
159.456
 20
55.6189
 30
0.0
 11
160.256
 21
55.6189
 31
0.0
  0
LINE
  8
0
 62
     0
 10
160.256
 20
55.6189
 30
0.0
 11
160.256
 21
49.8189
 31
0.0
  0
LINE
  8
0
 62
     0
 10
160.256
 20
49.8189
 30
0.0
 11
159.456
 21
49.8189
 31
0.0
  0
LINE
  8
0
 62
     0
 10
159.456
 20
49.8189
 30
0.0
 11
159.456
 21
46.7198
 31
0.0
  0
LINE
  8
0
 62
     0
 10
159.456
 20
46.7198
 30
0.0
 11
160.256
 21
46.7198
 31
0.0
  0
LINE
  8
0
 62
     0
 10
160.256
 20
46.7198
 30
0.0
 11
160.256
 21
45.7193
 31
0.0
  0
LINE
  8
0
 62
     0
 10
160.256
 20
45.7193
 30
0.0
 11
174.256
 21
45.7193
 31
0.0
  0
LINE
  8
0
 62
     0
 10
174.256
 20
45.7193
 30
0.0
 11
174.256
 21
46.7198
 31
0.0
  0
LINE
  8
0
 62
     0
 10
174.256
 20
46.7198
 30
0.0
 11
175.056
 21
46.7198
 31
0.0
  0
LINE
  8
0
 62
     0
 10
175.056
 20
46.7198
 30
0.0
 11
175.056
 21
49.8189
 31
0.0
  0
LINE
  8
0
 62
     0
 10
175.056
 20
49.8189
 30
0.0
 11
174.256
 21
49.8189
 31
0.0
  0
LINE
  8
0
 62
     0
 10
174.256
 20
49.8189
 30
0.0
 11
174.256
 21
55.6189
 31
0.0
  0
LINE
  8
0
 62
     0
 10
174.256
 20
55.6189
 30
0.0
 11
175.056
 21
55.6189
 31
0.0
  0
LINE
  8
0
 62
     0
 10
175.056
 20
55.6189
 30
0.0
 11
175.056
 21
58.7195
 31
0.0
  0
LINE
  8
0
 62
     0
 10
175.056
 20
58.7195
 30
0.0
 11
174.256
 21
58.7195
 31
0.0
  0
LINE
  8
0
 62
     0
 10
174.256
 20
58.7195
 30
0.0
 11
174.256
 21
59.7186
 31
0.0
  0
LINE
  8
0
 62
     0
 10
174.256
 20
59.7186
 30
0.0
 11
160.256
 21
59.7186
 31
0.0
  0
LINE
  8
0
 62
     0
 10
179.306
 20
59.7186
 30
0.0
 11
179.306
 21
58.7195
 31
0.0
  0
LINE
  8
0
 62
     0
 10
179.306
 20
58.7195
 30
0.0
 11
178.506
 21
58.7195
 31
0.0
  0
LINE
  8
0
 62
     0
 10
178.506
 20
58.7195
 30
0.0
 11
178.506
 21
55.6189
 31
0.0
  0
LINE
  8
0
 62
     0
 10
178.506
 20
55.6189
 30
0.0
 11
179.306
 21
55.6189
 31
0.0
  0
LINE
  8
0
 62
     0
 10
179.306
 20
55.6189
 30
0.0
 11
179.306
 21
49.8189
 31
0.0
  0
LINE
  8
0
 62
     0
 10
179.306
 20
49.8189
 30
0.0
 11
178.506
 21
49.8189
 31
0.0
  0
LINE
  8
0
 62
     0
 10
178.506
 20
49.8189
 30
0.0
 11
178.506
 21
46.7198
 31
0.0
  0
LINE
  8
0
 62
     0
 10
178.506
 20
46.7198
 30
0.0
 11
179.306
 21
46.7198
 31
0.0
  0
LINE
  8
0
 62
     0
 10
179.306
 20
46.7198
 30
0.0
 11
179.306
 21
45.7193
 31
0.0
  0
LINE
  8
0
 62
     0
 10
179.306
 20
45.7193
 30
0.0
 11
193.306
 21
45.7193
 31
0.0
  0
LINE
  8
0
 62
     0
 10
193.306
 20
45.7193
 30
0.0
 11
193.306
 21
46.7198
 31
0.0
  0
LINE
  8
0
 62
     0
 10
193.306
 20
46.7198
 30
0.0
 11
194.106
 21
46.7198
 31
0.0
  0
LINE
  8
0
 62
     0
 10
194.106
 20
46.7198
 30
0.0
 11
194.106
 21
49.8189
 31
0.0
  0
LINE
  8
0
 62
     0
 10
194.106
 20
49.8189
 30
0.0
 11
193.306
 21
49.8189
 31
0.0
  0
LINE
  8
0
 62
     0
 10
193.306
 20
49.8189
 30
0.0
 11
193.306
 21
55.6189
 31
0.0
  0
LINE
  8
0
 62
     0
 10
193.306
 20
55.6189
 30
0.0
 11
194.106
 21
55.6189
 31
0.0
  0
LINE
  8
0
 62
     0
 10
194.106
 20
55.6189
 30
0.0
 11
194.106
 21
58.7195
 31
0.0
  0
LINE
  8
0
 62
     0
 10
194.106
 20
58.7195
 30
0.0
 11
193.306
 21
58.7195
 31
0.0
  0
LINE
  8
0
 62
     0
 10
193.306
 20
58.7195
 30
0.0
 11
193.306
 21
59.7186
 31
0.0
  0
LINE
  8
0
 62
     0
 10
193.306
 20
59.7186
 30
0.0
 11
179.306
 21
59.7186
 31
0.0
  0
LINE
  8
0
 62
     0
 10
198.356
 20
59.7186
 30
0.0
 11
198.356
 21
58.7195
 31
0.0
  0
LINE
  8
0
 62
     0
 10
198.356
 20
58.7195
 30
0.0
 11
197.556
 21
58.7195
 31
0.0
  0
LINE
  8
0
 62
     0
 10
197.556
 20
58.7195
 30
0.0
 11
197.556
 21
55.6189
 31
0.0
  0
LINE
  8
0
 62
     0
 10
197.556
 20
55.6189
 30
0.0
 11
198.356
 21
55.6189
 31
0.0
  0
LINE
  8
0
 62
     0
 10
198.356
 20
55.6189
 30
0.0
 11
198.356
 21
49.8189
 31
0.0
  0
LINE
  8
0
 62
     0
 10
198.356
 20
49.8189
 30
0.0
 11
197.556
 21
49.8189
 31
0.0
  0
LINE
  8
0
 62
     0
 10
197.556
 20
49.8189
 30
0.0
 11
197.556
 21
46.7198
 31
0.0
  0
LINE
  8
0
 62
     0
 10
197.556
 20
46.7198
 30
0.0
 11
198.356
 21
46.7198
 31
0.0
  0
LINE
  8
0
 62
     0
 10
198.356
 20
46.7198
 30
0.0
 11
198.356
 21
45.7193
 31
0.0
  0
LINE
  8
0
 62
     0
 10
198.356
 20
45.7193
 30
0.0
 11
212.356
 21
45.7193
 31
0.0
  0
LINE
  8
0
 62
     0
 10
212.356
 20
45.7193
 30
0.0
 11
212.356
 21
46.7198
 31
0.0
  0
LINE
  8
0
 62
     0
 10
212.356
 20
46.7198
 30
0.0
 11
213.156
 21
46.7198
 31
0.0
  0
LINE
  8
0
 62
     0
 10
213.156
 20
46.7198
 30
0.0
 11
213.156
 21
49.8189
 31
0.0
  0
LINE
  8
0
 62
     0
 10
213.156
 20
49.8189
 30
0.0
 11
212.356
 21
49.8189
 31
0.0
  0
LINE
  8
0
 62
     0
 10
212.356
 20
49.8189
 30
0.0
 11
212.356
 21
55.6189
 31
0.0
  0
LINE
  8
0
 62
     0
 10
212.356
 20
55.6189
 30
0.0
 11
213.156
 21
55.6189
 31
0.0
  0
LINE
  8
0
 62
     0
 10
213.156
 20
55.6189
 30
0.0
 11
213.156
 21
58.7195
 31
0.0
  0
LINE
  8
0
 62
     0
 10
213.156
 20
58.7195
 30
0.0
 11
212.356
 21
58.7195
 31
0.0
  0
LINE
  8
0
 62
     0
 10
212.356
 20
58.7195
 30
0.0
 11
212.356
 21
59.7186
 31
0.0
  0
LINE
  8
0
 62
     0
 10
212.356
 20
59.7186
 30
0.0
 11
198.356
 21
59.7186
 31
0.0
  0
LINE
  8
0
 62
     0
 10
217.406
 20
59.7186
 30
0.0
 11
217.406
 21
58.7195
 31
0.0
  0
LINE
  8
0
 62
     0
 10
217.406
 20
58.7195
 30
0.0
 11
216.606
 21
58.7195
 31
0.0
  0
LINE
  8
0
 62
     0
 10
216.606
 20
58.7195
 30
0.0
 11
216.606
 21
55.6189
 31
0.0
  0
LINE
  8
0
 62
     0
 10
216.606
 20
55.6189
 30
0.0
 11
217.406
 21
55.6189
 31
0.0
  0
LINE
  8
0
 62
     0
 10
217.406
 20
55.6189
 30
0.0
 11
217.406
 21
49.8189
 31
0.0
  0
LINE
  8
0
 62
     0
 10
217.406
 20
49.8189
 30
0.0
 11
216.606
 21
49.8189
 31
0.0
  0
LINE
  8
0
 62
     0
 10
216.606
 20
49.8189
 30
0.0
 11
216.606
 21
46.7198
 31
0.0
  0
LINE
  8
0
 62
     0
 10
216.606
 20
46.7198
 30
0.0
 11
217.406
 21
46.7198
 31
0.0
  0
LINE
  8
0
 62
     0
 10
217.406
 20
46.7198
 30
0.0
 11
217.406
 21
45.7193
 31
0.0
  0
LINE
  8
0
 62
     0
 10
217.406
 20
45.7193
 30
0.0
 11
231.406
 21
45.7193
 31
0.0
  0
LINE
  8
0
 62
     0
 10
231.406
 20
45.7193
 30
0.0
 11
231.406
 21
46.7198
 31
0.0
  0
LINE
  8
0
 62
     0
 10
231.406
 20
46.7198
 30
0.0
 11
232.206
 21
46.7198
 31
0.0
  0
LINE
  8
0
 62
     0
 10
232.206
 20
46.7198
 30
0.0
 11
232.206
 21
49.8189
 31
0.0
  0
LINE
  8
0
 62
     0
 10
232.206
 20
49.8189
 30
0.0
 11
231.406
 21
49.8189
 31
0.0
  0
LINE
  8
0
 62
     0
 10
231.406
 20
49.8189
 30
0.0
 11
231.406
 21
55.6189
 31
0.0
  0
LINE
  8
0
 62
     0
 10
231.406
 20
55.6189
 30
0.0
 11
232.206
 21
55.6189
 31
0.0
  0
LINE
  8
0
 62
     0
 10
232.206
 20
55.6189
 30
0.0
 11
232.206
 21
58.7195
 31
0.0
  0
LINE
  8
0
 62
     0
 10
232.206
 20
58.7195
 30
0.0
 11
231.406
 21
58.7195
 31
0.0
  0
LINE
  8
0
 62
     0
 10
231.406
 20
58.7195
 30
0.0
 11
231.406
 21
59.7186
 31
0.0
  0
LINE
  8
0
 62
     0
 10
231.406
 20
59.7186
 30
0.0
 11
217.406
 21
59.7186
 31
0.0
  0
LINE
  8
0
 62
     0
 10
236.456
 20
59.7186
 30
0.0
 11
236.456
 21
58.7195
 31
0.0
  0
LINE
  8
0
 62
     0
 10
236.456
 20
58.7195
 30
0.0
 11
235.656
 21
58.7195
 31
0.0
  0
LINE
  8
0
 62
     0
 10
235.656
 20
58.7195
 30
0.0
 11
235.656
 21
55.6189
 31
0.0
  0
LINE
  8
0
 62
     0
 10
235.656
 20
55.6189
 30
0.0
 11
236.456
 21
55.6189
 31
0.0
  0
LINE
  8
0
 62
     0
 10
236.456
 20
55.6189
 30
0.0
 11
236.456
 21
49.8189
 31
0.0
  0
LINE
  8
0
 62
     0
 10
236.456
 20
49.8189
 30
0.0
 11
235.656
 21
49.8189
 31
0.0
  0
LINE
  8
0
 62
     0
 10
235.656
 20
49.8189
 30
0.0
 11
235.656
 21
46.7198
 31
0.0
  0
LINE
  8
0
 62
     0
 10
235.656
 20
46.7198
 30
0.0
 11
236.456
 21
46.7198
 31
0.0
  0
LINE
  8
0
 62
     0
 10
236.456
 20
46.7198
 30
0.0
 11
236.456
 21
45.7193
 31
0.0
  0
LINE
  8
0
 62
     0
 10
236.456
 20
45.7193
 30
0.0
 11
250.456
 21
45.7193
 31
0.0
  0
LINE
  8
0
 62
     0
 10
250.456
 20
45.7193
 30
0.0
 11
250.456
 21
46.7198
 31
0.0
  0
LINE
  8
0
 62
     0
 10
250.456
 20
46.7198
 30
0.0
 11
251.255
 21
46.7198
 31
0.0
  0
LINE
  8
0
 62
     0
 10
251.255
 20
46.7198
 30
0.0
 11
251.255
 21
49.8189
 31
0.0
  0
LINE
  8
0
 62
     0
 10
251.255
 20
49.8189
 30
0.0
 11
250.456
 21
49.8189
 31
0.0
  0
LINE
  8
0
 62
     0
 10
250.456
 20
49.8189
 30
0.0
 11
250.456
 21
55.6189
 31
0.0
  0
LINE
  8
0
 62
     0
 10
250.456
 20
55.6189
 30
0.0
 11
251.255
 21
55.6189
 31
0.0
  0
LINE
  8
0
 62
     0
 10
251.255
 20
55.6189
 30
0.0
 11
251.255
 21
58.7195
 31
0.0
  0
LINE
  8
0
 62
     0
 10
251.255
 20
58.7195
 30
0.0
 11
250.456
 21
58.7195
 31
0.0
  0
LINE
  8
0
 62
     0
 10
250.456
 20
58.7195
 30
0.0
 11
250.456
 21
59.7186
 31
0.0
  0
LINE
  8
0
 62
     0
 10
250.456
 20
59.7186
 30
0.0
 11
236.456
 21
59.7186
 31
0.0
  0
LINE
  8
0
 62
     0
 10
257.886
 20
59.7186
 30
0.0
 11
257.886
 21
58.7195
 31
0.0
  0
LINE
  8
0
 62
     0
 10
257.886
 20
58.7195
 30
0.0
 11
257.087
 21
58.7195
 31
0.0
  0
LINE
  8
0
 62
     0
 10
257.087
 20
58.7195
 30
0.0
 11
257.087
 21
55.6189
 31
0.0
  0
LINE
  8
0
 62
     0
 10
257.087
 20
55.6189
 30
0.0
 11
257.886
 21
55.6189
 31
0.0
  0
LINE
  8
0
 62
     0
 10
257.886
 20
55.6189
 30
0.0
 11
257.886
 21
49.8189
 31
0.0
  0
LINE
  8
0
 62
     0
 10
257.886
 20
49.8189
 30
0.0
 11
257.087
 21
49.8189
 31
0.0
  0
LINE
  8
0
 62
     0
 10
257.087
 20
49.8189
 30
0.0
 11
257.087
 21
46.7198
 31
0.0
  0
LINE
  8
0
 62
     0
 10
257.087
 20
46.7198
 30
0.0
 11
257.886
 21
46.7198
 31
0.0
  0
LINE
  8
0
 62
     0
 10
257.886
 20
46.7198
 30
0.0
 11
257.886
 21
45.7193
 31
0.0
  0
LINE
  8
0
 62
     0
 10
257.886
 20
45.7193
 30
0.0
 11
271.887
 21
45.7193
 31
0.0
  0
LINE
  8
0
 62
     0
 10
271.887
 20
45.7193
 30
0.0
 11
271.887
 21
46.7198
 31
0.0
  0
LINE
  8
0
 62
     0
 10
271.887
 20
46.7198
 30
0.0
 11
272.686
 21
46.7198
 31
0.0
  0
LINE
  8
0
 62
     0
 10
272.686
 20
46.7198
 30
0.0
 11
272.686
 21
49.8189
 31
0.0
  0
LINE
  8
0
 62
     0
 10
272.686
 20
49.8189
 30
0.0
 11
271.887
 21
49.8189
 31
0.0
  0
LINE
  8
0
 62
     0
 10
271.887
 20
49.8189
 30
0.0
 11
271.887
 21
55.6189
 31
0.0
  0
LINE
  8
0
 62
     0
 10
271.887
 20
55.6189
 30
0.0
 11
272.686
 21
55.6189
 31
0.0
  0
LINE
  8
0
 62
     0
 10
272.686
 20
55.6189
 30
0.0
 11
272.686
 21
58.7195
 31
0.0
  0
LINE
  8
0
 62
     0
 10
272.686
 20
58.7195
 30
0.0
 11
271.887
 21
58.7195
 31
0.0
  0
LINE
  8
0
 62
     0
 10
271.887
 20
58.7195
 30
0.0
 11
271.887
 21
59.7186
 31
0.0
  0
LINE
  8
0
 62
     0
 10
271.887
 20
59.7186
 30
0.0
 11
257.886
 21
59.7186
 31
0.0
  0
LINE
  8
0
 62
     0
 10
279.319
 20
59.7186
 30
0.0
 11
279.319
 21
58.7195
 31
0.0
  0
LINE
  8
0
 62
     0
 10
279.319
 20
58.7195
 30
0.0
 11
278.519
 21
58.7195
 31
0.0
  0
LINE
  8
0
 62
     0
 10
278.519
 20
58.7195
 30
0.0
 11
278.519
 21
55.6189
 31
0.0
  0
LINE
  8
0
 62
     0
 10
278.519
 20
55.6189
 30
0.0
 11
279.319
 21
55.6189
 31
0.0
  0
LINE
  8
0
 62
     0
 10
279.319
 20
55.6189
 30
0.0
 11
279.319
 21
49.8189
 31
0.0
  0
LINE
  8
0
 62
     0
 10
279.319
 20
49.8189
 30
0.0
 11
278.519
 21
49.8189
 31
0.0
  0
LINE
  8
0
 62
     0
 10
278.519
 20
49.8189
 30
0.0
 11
278.519
 21
46.7198
 31
0.0
  0
LINE
  8
0
 62
     0
 10
278.519
 20
46.7198
 30
0.0
 11
279.319
 21
46.7198
 31
0.0
  0
LINE
  8
0
 62
     0
 10
279.319
 20
46.7198
 30
0.0
 11
279.319
 21
45.7193
 31
0.0
  0
LINE
  8
0
 62
     0
 10
279.319
 20
45.7193
 30
0.0
 11
293.318
 21
45.7193
 31
0.0
  0
LINE
  8
0
 62
     0
 10
293.318
 20
45.7193
 30
0.0
 11
293.318
 21
46.7198
 31
0.0
  0
LINE
  8
0
 62
     0
 10
293.318
 20
46.7198
 30
0.0
 11
294.119
 21
46.7198
 31
0.0
  0
LINE
  8
0
 62
     0
 10
294.119
 20
46.7198
 30
0.0
 11
294.119
 21
49.8189
 31
0.0
  0
LINE
  8
0
 62
     0
 10
294.119
 20
49.8189
 30
0.0
 11
293.318
 21
49.8189
 31
0.0
  0
LINE
  8
0
 62
     0
 10
293.318
 20
49.8189
 30
0.0
 11
293.318
 21
55.6189
 31
0.0
  0
LINE
  8
0
 62
     0
 10
293.318
 20
55.6189
 30
0.0
 11
294.119
 21
55.6189
 31
0.0
  0
LINE
  8
0
 62
     0
 10
294.119
 20
55.6189
 30
0.0
 11
294.119
 21
58.7195
 31
0.0
  0
LINE
  8
0
 62
     0
 10
294.119
 20
58.7195
 30
0.0
 11
293.318
 21
58.7195
 31
0.0
  0
LINE
  8
0
 62
     0
 10
293.318
 20
58.7195
 30
0.0
 11
293.318
 21
59.7186
 31
0.0
  0
LINE
  8
0
 62
     0
 10
293.318
 20
59.7186
 30
0.0
 11
279.319
 21
59.7186
 31
0.0
  0
LINE
  8
0
 62
     0
 10
17.3812
 20
78.7686
 30
0.0
 11
17.3812
 21
77.7695
 31
0.0
  0
LINE
  8
0
 62
     0
 10
17.3812
 20
77.7695
 30
0.0
 11
16.5806
 21
77.7695
 31
0.0
  0
LINE
  8
0
 62
     0
 10
16.5806
 20
77.7695
 30
0.0
 11
16.5806
 21
74.6689
 31
0.0
  0
LINE
  8
0
 62
     0
 10
16.5806
 20
74.6689
 30
0.0
 11
17.3812
 21
74.6689
 31
0.0
  0
LINE
  8
0
 62
     0
 10
17.3812
 20
74.6689
 30
0.0
 11
17.3812
 21
68.8689
 31
0.0
  0
LINE
  8
0
 62
     0
 10
17.3812
 20
68.8689
 30
0.0
 11
16.5806
 21
68.8689
 31
0.0
  0
LINE
  8
0
 62
     0
 10
16.5806
 20
68.8689
 30
0.0
 11
16.5806
 21
65.7698
 31
0.0
  0
LINE
  8
0
 62
     0
 10
16.5806
 20
65.7698
 30
0.0
 11
17.3812
 21
65.7698
 31
0.0
  0
LINE
  8
0
 62
     0
 10
17.3812
 20
65.7698
 30
0.0
 11
17.3812
 21
64.7693
 31
0.0
  0
LINE
  8
0
 62
     0
 10
17.3812
 20
64.7693
 30
0.0
 11
31.3807
 21
64.7693
 31
0.0
  0
LINE
  8
0
 62
     0
 10
31.3807
 20
64.7693
 30
0.0
 11
31.3807
 21
65.7698
 31
0.0
  0
LINE
  8
0
 62
     0
 10
31.3807
 20
65.7698
 30
0.0
 11
32.1813
 21
65.7698
 31
0.0
  0
LINE
  8
0
 62
     0
 10
32.1813
 20
65.7698
 30
0.0
 11
32.1813
 21
68.8689
 31
0.0
  0
LINE
  8
0
 62
     0
 10
32.1813
 20
68.8689
 30
0.0
 11
31.3807
 21
68.8689
 31
0.0
  0
LINE
  8
0
 62
     0
 10
31.3807
 20
68.8689
 30
0.0
 11
31.3807
 21
74.6689
 31
0.0
  0
LINE
  8
0
 62
     0
 10
31.3807
 20
74.6689
 30
0.0
 11
32.1813
 21
74.6689
 31
0.0
  0
LINE
  8
0
 62
     0
 10
32.1813
 20
74.6689
 30
0.0
 11
32.1813
 21
77.7695
 31
0.0
  0
LINE
  8
0
 62
     0
 10
32.1813
 20
77.7695
 30
0.0
 11
31.3807
 21
77.7695
 31
0.0
  0
LINE
  8
0
 62
     0
 10
31.3807
 20
77.7695
 30
0.0
 11
31.3807
 21
78.7686
 31
0.0
  0
LINE
  8
0
 62
     0
 10
31.3807
 20
78.7686
 30
0.0
 11
17.3812
 21
78.7686
 31
0.0
  0
LINE
  8
0
 62
     0
 10
41.1939
 20
78.7686
 30
0.0
 11
41.1939
 21
77.7695
 31
0.0
  0
LINE
  8
0
 62
     0
 10
41.1939
 20
77.7695
 30
0.0
 11
40.3945
 21
77.7695
 31
0.0
  0
LINE
  8
0
 62
     0
 10
40.3945
 20
77.7695
 30
0.0
 11
40.3945
 21
74.6689
 31
0.0
  0
LINE
  8
0
 62
     0
 10
40.3945
 20
74.6689
 30
0.0
 11
41.1939
 21
74.6689
 31
0.0
  0
LINE
  8
0
 62
     0
 10
41.1939
 20
74.6689
 30
0.0
 11
41.1939
 21
68.8689
 31
0.0
  0
LINE
  8
0
 62
     0
 10
41.1939
 20
68.8689
 30
0.0
 11
40.3945
 21
68.8689
 31
0.0
  0
LINE
  8
0
 62
     0
 10
40.3945
 20
68.8689
 30
0.0
 11
40.3945
 21
65.7698
 31
0.0
  0
LINE
  8
0
 62
     0
 10
40.3945
 20
65.7698
 30
0.0
 11
41.1939
 21
65.7698
 31
0.0
  0
LINE
  8
0
 62
     0
 10
41.1939
 20
65.7698
 30
0.0
 11
41.1939
 21
64.7693
 31
0.0
  0
LINE
  8
0
 62
     0
 10
41.1939
 20
64.7693
 30
0.0
 11
55.1931
 21
64.7693
 31
0.0
  0
LINE
  8
0
 62
     0
 10
55.1931
 20
64.7693
 30
0.0
 11
55.1931
 21
65.7698
 31
0.0
  0
LINE
  8
0
 62
     0
 10
55.1931
 20
65.7698
 30
0.0
 11
55.9939
 21
65.7698
 31
0.0
  0
LINE
  8
0
 62
     0
 10
55.9939
 20
65.7698
 30
0.0
 11
55.9939
 21
68.8689
 31
0.0
  0
LINE
  8
0
 62
     0
 10
55.9939
 20
68.8689
 30
0.0
 11
55.1931
 21
68.8689
 31
0.0
  0
LINE
  8
0
 62
     0
 10
55.1931
 20
68.8689
 30
0.0
 11
55.1931
 21
74.6689
 31
0.0
  0
LINE
  8
0
 62
     0
 10
55.1931
 20
74.6689
 30
0.0
 11
55.9939
 21
74.6689
 31
0.0
  0
LINE
  8
0
 62
     0
 10
55.9939
 20
74.6689
 30
0.0
 11
55.9939
 21
77.7695
 31
0.0
  0
LINE
  8
0
 62
     0
 10
55.9939
 20
77.7695
 30
0.0
 11
55.1931
 21
77.7695
 31
0.0
  0
LINE
  8
0
 62
     0
 10
55.1931
 20
77.7695
 30
0.0
 11
55.1931
 21
78.7686
 31
0.0
  0
LINE
  8
0
 62
     0
 10
55.1931
 20
78.7686
 30
0.0
 11
41.1939
 21
78.7686
 31
0.0
  0
LINE
  8
0
 62
     0
 10
60.2439
 20
78.7686
 30
0.0
 11
60.2439
 21
77.7695
 31
0.0
  0
LINE
  8
0
 62
     0
 10
60.2439
 20
77.7695
 30
0.0
 11
59.4431
 21
77.7695
 31
0.0
  0
LINE
  8
0
 62
     0
 10
59.4431
 20
77.7695
 30
0.0
 11
59.4431
 21
74.6689
 31
0.0
  0
LINE
  8
0
 62
     0
 10
59.4431
 20
74.6689
 30
0.0
 11
60.2439
 21
74.6689
 31
0.0
  0
LINE
  8
0
 62
     0
 10
60.2439
 20
74.6689
 30
0.0
 11
60.2439
 21
68.8689
 31
0.0
  0
LINE
  8
0
 62
     0
 10
60.2439
 20
68.8689
 30
0.0
 11
59.4431
 21
68.8689
 31
0.0
  0
LINE
  8
0
 62
     0
 10
59.4431
 20
68.8689
 30
0.0
 11
59.4431
 21
65.7698
 31
0.0
  0
LINE
  8
0
 62
     0
 10
59.4431
 20
65.7698
 30
0.0
 11
60.2439
 21
65.7698
 31
0.0
  0
LINE
  8
0
 62
     0
 10
60.2439
 20
65.7698
 30
0.0
 11
60.2439
 21
64.7693
 31
0.0
  0
LINE
  8
0
 62
     0
 10
60.2439
 20
64.7693
 30
0.0
 11
74.2431
 21
64.7693
 31
0.0
  0
LINE
  8
0
 62
     0
 10
74.2431
 20
64.7693
 30
0.0
 11
74.2431
 21
65.7698
 31
0.0
  0
LINE
  8
0
 62
     0
 10
74.2431
 20
65.7698
 30
0.0
 11
75.044
 21
65.7698
 31
0.0
  0
LINE
  8
0
 62
     0
 10
75.044
 20
65.7698
 30
0.0
 11
75.044
 21
68.8689
 31
0.0
  0
LINE
  8
0
 62
     0
 10
75.044
 20
68.8689
 30
0.0
 11
74.2431
 21
68.8689
 31
0.0
  0
LINE
  8
0
 62
     0
 10
74.2431
 20
68.8689
 30
0.0
 11
74.2431
 21
74.6689
 31
0.0
  0
LINE
  8
0
 62
     0
 10
74.2431
 20
74.6689
 30
0.0
 11
75.044
 21
74.6689
 31
0.0
  0
LINE
  8
0
 62
     0
 10
75.044
 20
74.6689
 30
0.0
 11
75.044
 21
77.7695
 31
0.0
  0
LINE
  8
0
 62
     0
 10
75.044
 20
77.7695
 30
0.0
 11
74.2431
 21
77.7695
 31
0.0
  0
LINE
  8
0
 62
     0
 10
74.2431
 20
77.7695
 30
0.0
 11
74.2431
 21
78.7686
 31
0.0
  0
LINE
  8
0
 62
     0
 10
74.2431
 20
78.7686
 30
0.0
 11
60.2439
 21
78.7686
 31
0.0
  0
LINE
  8
0
 62
     0
 10
79.2939
 20
78.7686
 30
0.0
 11
79.2939
 21
77.7695
 31
0.0
  0
LINE
  8
0
 62
     0
 10
79.2939
 20
77.7695
 30
0.0
 11
78.4945
 21
77.7695
 31
0.0
  0
LINE
  8
0
 62
     0
 10
78.4945
 20
77.7695
 30
0.0
 11
78.4945
 21
74.6689
 31
0.0
  0
LINE
  8
0
 62
     0
 10
78.4945
 20
74.6689
 30
0.0
 11
79.2939
 21
74.6689
 31
0.0
  0
LINE
  8
0
 62
     0
 10
79.2939
 20
74.6689
 30
0.0
 11
79.2939
 21
68.8689
 31
0.0
  0
LINE
  8
0
 62
     0
 10
79.2939
 20
68.8689
 30
0.0
 11
78.4945
 21
68.8689
 31
0.0
  0
LINE
  8
0
 62
     0
 10
78.4945
 20
68.8689
 30
0.0
 11
78.4945
 21
65.7698
 31
0.0
  0
LINE
  8
0
 62
     0
 10
78.4945
 20
65.7698
 30
0.0
 11
79.2939
 21
65.7698
 31
0.0
  0
LINE
  8
0
 62
     0
 10
79.2939
 20
65.7698
 30
0.0
 11
79.2939
 21
64.7693
 31
0.0
  0
LINE
  8
0
 62
     0
 10
79.2939
 20
64.7693
 30
0.0
 11
93.2931
 21
64.7693
 31
0.0
  0
LINE
  8
0
 62
     0
 10
93.2931
 20
64.7693
 30
0.0
 11
93.2931
 21
65.7698
 31
0.0
  0
LINE
  8
0
 62
     0
 10
93.2931
 20
65.7698
 30
0.0
 11
94.0939
 21
65.7698
 31
0.0
  0
LINE
  8
0
 62
     0
 10
94.0939
 20
65.7698
 30
0.0
 11
94.0939
 21
68.8689
 31
0.0
  0
LINE
  8
0
 62
     0
 10
94.0939
 20
68.8689
 30
0.0
 11
93.2931
 21
68.8689
 31
0.0
  0
LINE
  8
0
 62
     0
 10
93.2931
 20
68.8689
 30
0.0
 11
93.2931
 21
74.6689
 31
0.0
  0
LINE
  8
0
 62
     0
 10
93.2931
 20
74.6689
 30
0.0
 11
94.0939
 21
74.6689
 31
0.0
  0
LINE
  8
0
 62
     0
 10
94.0939
 20
74.6689
 30
0.0
 11
94.0939
 21
77.7695
 31
0.0
  0
LINE
  8
0
 62
     0
 10
94.0939
 20
77.7695
 30
0.0
 11
93.2931
 21
77.7695
 31
0.0
  0
LINE
  8
0
 62
     0
 10
93.2931
 20
77.7695
 30
0.0
 11
93.2931
 21
78.7686
 31
0.0
  0
LINE
  8
0
 62
     0
 10
93.2931
 20
78.7686
 30
0.0
 11
79.2939
 21
78.7686
 31
0.0
  0
LINE
  8
0
 62
     0
 10
98.3439
 20
78.7686
 30
0.0
 11
98.3439
 21
77.7695
 31
0.0
  0
LINE
  8
0
 62
     0
 10
98.3439
 20
77.7695
 30
0.0
 11
97.5445
 21
77.7695
 31
0.0
  0
LINE
  8
0
 62
     0
 10
97.5445
 20
77.7695
 30
0.0
 11
97.5445
 21
74.6689
 31
0.0
  0
LINE
  8
0
 62
     0
 10
97.5445
 20
74.6689
 30
0.0
 11
98.3439
 21
74.6689
 31
0.0
  0
LINE
  8
0
 62
     0
 10
98.3439
 20
74.6689
 30
0.0
 11
98.3439
 21
68.8689
 31
0.0
  0
LINE
  8
0
 62
     0
 10
98.3439
 20
68.8689
 30
0.0
 11
97.5445
 21
68.8689
 31
0.0
  0
LINE
  8
0
 62
     0
 10
97.5445
 20
68.8689
 30
0.0
 11
97.5445
 21
65.7698
 31
0.0
  0
LINE
  8
0
 62
     0
 10
97.5445
 20
65.7698
 30
0.0
 11
98.3439
 21
65.7698
 31
0.0
  0
LINE
  8
0
 62
     0
 10
98.3439
 20
65.7698
 30
0.0
 11
98.3439
 21
64.7693
 31
0.0
  0
LINE
  8
0
 62
     0
 10
98.3439
 20
64.7693
 30
0.0
 11
112.343
 21
64.7693
 31
0.0
  0
LINE
  8
0
 62
     0
 10
112.343
 20
64.7693
 30
0.0
 11
112.343
 21
65.7698
 31
0.0
  0
LINE
  8
0
 62
     0
 10
112.343
 20
65.7698
 30
0.0
 11
113.144
 21
65.7698
 31
0.0
  0
LINE
  8
0
 62
     0
 10
113.144
 20
65.7698
 30
0.0
 11
113.144
 21
68.8689
 31
0.0
  0
LINE
  8
0
 62
     0
 10
113.144
 20
68.8689
 30
0.0
 11
112.343
 21
68.8689
 31
0.0
  0
LINE
  8
0
 62
     0
 10
112.343
 20
68.8689
 30
0.0
 11
112.343
 21
74.6689
 31
0.0
  0
LINE
  8
0
 62
     0
 10
112.343
 20
74.6689
 30
0.0
 11
113.144
 21
74.6689
 31
0.0
  0
LINE
  8
0
 62
     0
 10
113.144
 20
74.6689
 30
0.0
 11
113.144
 21
77.7695
 31
0.0
  0
LINE
  8
0
 62
     0
 10
113.144
 20
77.7695
 30
0.0
 11
112.343
 21
77.7695
 31
0.0
  0
LINE
  8
0
 62
     0
 10
112.343
 20
77.7695
 30
0.0
 11
112.343
 21
78.7686
 31
0.0
  0
LINE
  8
0
 62
     0
 10
112.343
 20
78.7686
 30
0.0
 11
98.3439
 21
78.7686
 31
0.0
  0
LINE
  8
0
 62
     0
 10
117.394
 20
78.7686
 30
0.0
 11
117.394
 21
77.7695
 31
0.0
  0
LINE
  8
0
 62
     0
 10
117.394
 20
77.7695
 30
0.0
 11
116.594
 21
77.7695
 31
0.0
  0
LINE
  8
0
 62
     0
 10
116.594
 20
77.7695
 30
0.0
 11
116.594
 21
74.6689
 31
0.0
  0
LINE
  8
0
 62
     0
 10
116.594
 20
74.6689
 30
0.0
 11
117.394
 21
74.6689
 31
0.0
  0
LINE
  8
0
 62
     0
 10
117.394
 20
74.6689
 30
0.0
 11
117.394
 21
68.8689
 31
0.0
  0
LINE
  8
0
 62
     0
 10
117.394
 20
68.8689
 30
0.0
 11
116.594
 21
68.8689
 31
0.0
  0
LINE
  8
0
 62
     0
 10
116.594
 20
68.8689
 30
0.0
 11
116.594
 21
65.7698
 31
0.0
  0
LINE
  8
0
 62
     0
 10
116.594
 20
65.7698
 30
0.0
 11
117.394
 21
65.7698
 31
0.0
  0
LINE
  8
0
 62
     0
 10
117.394
 20
65.7698
 30
0.0
 11
117.394
 21
64.7693
 31
0.0
  0
LINE
  8
0
 62
     0
 10
117.394
 20
64.7693
 30
0.0
 11
131.393
 21
64.7693
 31
0.0
  0
LINE
  8
0
 62
     0
 10
131.393
 20
64.7693
 30
0.0
 11
131.393
 21
65.7698
 31
0.0
  0
LINE
  8
0
 62
     0
 10
131.393
 20
65.7698
 30
0.0
 11
132.194
 21
65.7698
 31
0.0
  0
LINE
  8
0
 62
     0
 10
132.194
 20
65.7698
 30
0.0
 11
132.194
 21
68.8689
 31
0.0
  0
LINE
  8
0
 62
     0
 10
132.194
 20
68.8689
 30
0.0
 11
131.393
 21
68.8689
 31
0.0
  0
LINE
  8
0
 62
     0
 10
131.393
 20
68.8689
 30
0.0
 11
131.393
 21
74.6689
 31
0.0
  0
LINE
  8
0
 62
     0
 10
131.393
 20
74.6689
 30
0.0
 11
132.194
 21
74.6689
 31
0.0
  0
LINE
  8
0
 62
     0
 10
132.194
 20
74.6689
 30
0.0
 11
132.194
 21
77.7695
 31
0.0
  0
LINE
  8
0
 62
     0
 10
132.194
 20
77.7695
 30
0.0
 11
131.393
 21
77.7695
 31
0.0
  0
LINE
  8
0
 62
     0
 10
131.393
 20
77.7695
 30
0.0
 11
131.393
 21
78.7686
 31
0.0
  0
LINE
  8
0
 62
     0
 10
131.393
 20
78.7686
 30
0.0
 11
117.394
 21
78.7686
 31
0.0
  0
LINE
  8
0
 62
     0
 10
136.444
 20
78.7686
 30
0.0
 11
136.444
 21
77.7695
 31
0.0
  0
LINE
  8
0
 62
     0
 10
136.444
 20
77.7695
 30
0.0
 11
135.644
 21
77.7695
 31
0.0
  0
LINE
  8
0
 62
     0
 10
135.644
 20
77.7695
 30
0.0
 11
135.644
 21
74.6689
 31
0.0
  0
LINE
  8
0
 62
     0
 10
135.644
 20
74.6689
 30
0.0
 11
136.444
 21
74.6689
 31
0.0
  0
LINE
  8
0
 62
     0
 10
136.444
 20
74.6689
 30
0.0
 11
136.444
 21
68.8689
 31
0.0
  0
LINE
  8
0
 62
     0
 10
136.444
 20
68.8689
 30
0.0
 11
135.644
 21
68.8689
 31
0.0
  0
LINE
  8
0
 62
     0
 10
135.644
 20
68.8689
 30
0.0
 11
135.644
 21
65.7698
 31
0.0
  0
LINE
  8
0
 62
     0
 10
135.644
 20
65.7698
 30
0.0
 11
136.444
 21
65.7698
 31
0.0
  0
LINE
  8
0
 62
     0
 10
136.444
 20
65.7698
 30
0.0
 11
136.444
 21
64.7693
 31
0.0
  0
LINE
  8
0
 62
     0
 10
136.444
 20
64.7693
 30
0.0
 11
150.443
 21
64.7693
 31
0.0
  0
LINE
  8
0
 62
     0
 10
150.443
 20
64.7693
 30
0.0
 11
150.443
 21
65.7698
 31
0.0
  0
LINE
  8
0
 62
     0
 10
150.443
 20
65.7698
 30
0.0
 11
151.244
 21
65.7698
 31
0.0
  0
LINE
  8
0
 62
     0
 10
151.244
 20
65.7698
 30
0.0
 11
151.244
 21
68.8689
 31
0.0
  0
LINE
  8
0
 62
     0
 10
151.244
 20
68.8689
 30
0.0
 11
150.443
 21
68.8689
 31
0.0
  0
LINE
  8
0
 62
     0
 10
150.443
 20
68.8689
 30
0.0
 11
150.443
 21
74.6689
 31
0.0
  0
LINE
  8
0
 62
     0
 10
150.443
 20
74.6689
 30
0.0
 11
151.244
 21
74.6689
 31
0.0
  0
LINE
  8
0
 62
     0
 10
151.244
 20
74.6689
 30
0.0
 11
151.244
 21
77.7695
 31
0.0
  0
LINE
  8
0
 62
     0
 10
151.244
 20
77.7695
 30
0.0
 11
150.443
 21
77.7695
 31
0.0
  0
LINE
  8
0
 62
     0
 10
150.443
 20
77.7695
 30
0.0
 11
150.443
 21
78.7686
 31
0.0
  0
LINE
  8
0
 62
     0
 10
150.443
 20
78.7686
 30
0.0
 11
136.444
 21
78.7686
 31
0.0
  0
LINE
  8
0
 62
     0
 10
155.494
 20
78.7686
 30
0.0
 11
155.494
 21
77.7695
 31
0.0
  0
LINE
  8
0
 62
     0
 10
155.494
 20
77.7695
 30
0.0
 11
154.694
 21
77.7695
 31
0.0
  0
LINE
  8
0
 62
     0
 10
154.694
 20
77.7695
 30
0.0
 11
154.694
 21
74.6689
 31
0.0
  0
LINE
  8
0
 62
     0
 10
154.694
 20
74.6689
 30
0.0
 11
155.494
 21
74.6689
 31
0.0
  0
LINE
  8
0
 62
     0
 10
155.494
 20
74.6689
 30
0.0
 11
155.494
 21
68.8689
 31
0.0
  0
LINE
  8
0
 62
     0
 10
155.494
 20
68.8689
 30
0.0
 11
154.694
 21
68.8689
 31
0.0
  0
LINE
  8
0
 62
     0
 10
154.694
 20
68.8689
 30
0.0
 11
154.694
 21
65.7698
 31
0.0
  0
LINE
  8
0
 62
     0
 10
154.694
 20
65.7698
 30
0.0
 11
155.494
 21
65.7698
 31
0.0
  0
LINE
  8
0
 62
     0
 10
155.494
 20
65.7698
 30
0.0
 11
155.494
 21
64.7693
 31
0.0
  0
LINE
  8
0
 62
     0
 10
155.494
 20
64.7693
 30
0.0
 11
169.493
 21
64.7693
 31
0.0
  0
LINE
  8
0
 62
     0
 10
169.493
 20
64.7693
 30
0.0
 11
169.493
 21
65.7698
 31
0.0
  0
LINE
  8
0
 62
     0
 10
169.493
 20
65.7698
 30
0.0
 11
170.294
 21
65.7698
 31
0.0
  0
LINE
  8
0
 62
     0
 10
170.294
 20
65.7698
 30
0.0
 11
170.294
 21
68.8689
 31
0.0
  0
LINE
  8
0
 62
     0
 10
170.294
 20
68.8689
 30
0.0
 11
169.493
 21
68.8689
 31
0.0
  0
LINE
  8
0
 62
     0
 10
169.493
 20
68.8689
 30
0.0
 11
169.493
 21
74.6689
 31
0.0
  0
LINE
  8
0
 62
     0
 10
169.493
 20
74.6689
 30
0.0
 11
170.294
 21
74.6689
 31
0.0
  0
LINE
  8
0
 62
     0
 10
170.294
 20
74.6689
 30
0.0
 11
170.294
 21
77.7695
 31
0.0
  0
LINE
  8
0
 62
     0
 10
170.294
 20
77.7695
 30
0.0
 11
169.493
 21
77.7695
 31
0.0
  0
LINE
  8
0
 62
     0
 10
169.493
 20
77.7695
 30
0.0
 11
169.493
 21
78.7686
 31
0.0
  0
LINE
  8
0
 62
     0
 10
169.493
 20
78.7686
 30
0.0
 11
155.494
 21
78.7686
 31
0.0
  0
LINE
  8
0
 62
     0
 10
174.544
 20
78.7686
 30
0.0
 11
174.544
 21
77.7695
 31
0.0
  0
LINE
  8
0
 62
     0
 10
174.544
 20
77.7695
 30
0.0
 11
173.744
 21
77.7695
 31
0.0
  0
LINE
  8
0
 62
     0
 10
173.744
 20
77.7695
 30
0.0
 11
173.744
 21
74.6689
 31
0.0
  0
LINE
  8
0
 62
     0
 10
173.744
 20
74.6689
 30
0.0
 11
174.544
 21
74.6689
 31
0.0
  0
LINE
  8
0
 62
     0
 10
174.544
 20
74.6689
 30
0.0
 11
174.544
 21
68.8689
 31
0.0
  0
LINE
  8
0
 62
     0
 10
174.544
 20
68.8689
 30
0.0
 11
173.744
 21
68.8689
 31
0.0
  0
LINE
  8
0
 62
     0
 10
173.744
 20
68.8689
 30
0.0
 11
173.744
 21
65.7698
 31
0.0
  0
LINE
  8
0
 62
     0
 10
173.744
 20
65.7698
 30
0.0
 11
174.544
 21
65.7698
 31
0.0
  0
LINE
  8
0
 62
     0
 10
174.544
 20
65.7698
 30
0.0
 11
174.544
 21
64.7693
 31
0.0
  0
LINE
  8
0
 62
     0
 10
174.544
 20
64.7693
 30
0.0
 11
188.543
 21
64.7693
 31
0.0
  0
LINE
  8
0
 62
     0
 10
188.543
 20
64.7693
 30
0.0
 11
188.543
 21
65.7698
 31
0.0
  0
LINE
  8
0
 62
     0
 10
188.543
 20
65.7698
 30
0.0
 11
189.344
 21
65.7698
 31
0.0
  0
LINE
  8
0
 62
     0
 10
189.344
 20
65.7698
 30
0.0
 11
189.344
 21
68.8689
 31
0.0
  0
LINE
  8
0
 62
     0
 10
189.344
 20
68.8689
 30
0.0
 11
188.543
 21
68.8689
 31
0.0
  0
LINE
  8
0
 62
     0
 10
188.543
 20
68.8689
 30
0.0
 11
188.543
 21
74.6689
 31
0.0
  0
LINE
  8
0
 62
     0
 10
188.543
 20
74.6689
 30
0.0
 11
189.344
 21
74.6689
 31
0.0
  0
LINE
  8
0
 62
     0
 10
189.344
 20
74.6689
 30
0.0
 11
189.344
 21
77.7695
 31
0.0
  0
LINE
  8
0
 62
     0
 10
189.344
 20
77.7695
 30
0.0
 11
188.543
 21
77.7695
 31
0.0
  0
LINE
  8
0
 62
     0
 10
188.543
 20
77.7695
 30
0.0
 11
188.543
 21
78.7686
 31
0.0
  0
LINE
  8
0
 62
     0
 10
188.543
 20
78.7686
 30
0.0
 11
174.544
 21
78.7686
 31
0.0
  0
LINE
  8
0
 62
     0
 10
193.594
 20
78.7686
 30
0.0
 11
193.594
 21
77.7695
 31
0.0
  0
LINE
  8
0
 62
     0
 10
193.594
 20
77.7695
 30
0.0
 11
192.794
 21
77.7695
 31
0.0
  0
LINE
  8
0
 62
     0
 10
192.794
 20
77.7695
 30
0.0
 11
192.794
 21
74.6689
 31
0.0
  0
LINE
  8
0
 62
     0
 10
192.794
 20
74.6689
 30
0.0
 11
193.594
 21
74.6689
 31
0.0
  0
LINE
  8
0
 62
     0
 10
193.594
 20
74.6689
 30
0.0
 11
193.594
 21
68.8689
 31
0.0
  0
LINE
  8
0
 62
     0
 10
193.594
 20
68.8689
 30
0.0
 11
192.794
 21
68.8689
 31
0.0
  0
LINE
  8
0
 62
     0
 10
192.794
 20
68.8689
 30
0.0
 11
192.794
 21
65.7698
 31
0.0
  0
LINE
  8
0
 62
     0
 10
192.794
 20
65.7698
 30
0.0
 11
193.594
 21
65.7698
 31
0.0
  0
LINE
  8
0
 62
     0
 10
193.594
 20
65.7698
 30
0.0
 11
193.594
 21
64.7693
 31
0.0
  0
LINE
  8
0
 62
     0
 10
193.594
 20
64.7693
 30
0.0
 11
207.593
 21
64.7693
 31
0.0
  0
LINE
  8
0
 62
     0
 10
207.593
 20
64.7693
 30
0.0
 11
207.593
 21
65.7698
 31
0.0
  0
LINE
  8
0
 62
     0
 10
207.593
 20
65.7698
 30
0.0
 11
208.394
 21
65.7698
 31
0.0
  0
LINE
  8
0
 62
     0
 10
208.394
 20
65.7698
 30
0.0
 11
208.394
 21
68.8689
 31
0.0
  0
LINE
  8
0
 62
     0
 10
208.394
 20
68.8689
 30
0.0
 11
207.593
 21
68.8689
 31
0.0
  0
LINE
  8
0
 62
     0
 10
207.593
 20
68.8689
 30
0.0
 11
207.593
 21
74.6689
 31
0.0
  0
LINE
  8
0
 62
     0
 10
207.593
 20
74.6689
 30
0.0
 11
208.394
 21
74.6689
 31
0.0
  0
LINE
  8
0
 62
     0
 10
208.394
 20
74.6689
 30
0.0
 11
208.394
 21
77.7695
 31
0.0
  0
LINE
  8
0
 62
     0
 10
208.394
 20
77.7695
 30
0.0
 11
207.593
 21
77.7695
 31
0.0
  0
LINE
  8
0
 62
     0
 10
207.593
 20
77.7695
 30
0.0
 11
207.593
 21
78.7686
 31
0.0
  0
LINE
  8
0
 62
     0
 10
207.593
 20
78.7686
 30
0.0
 11
193.594
 21
78.7686
 31
0.0
  0
LINE
  8
0
 62
     0
 10
212.644
 20
78.7686
 30
0.0
 11
212.644
 21
77.7695
 31
0.0
  0
LINE
  8
0
 62
     0
 10
212.644
 20
77.7695
 30
0.0
 11
211.844
 21
77.7695
 31
0.0
  0
LINE
  8
0
 62
     0
 10
211.844
 20
77.7695
 30
0.0
 11
211.844
 21
74.6689
 31
0.0
  0
LINE
  8
0
 62
     0
 10
211.844
 20
74.6689
 30
0.0
 11
212.644
 21
74.6689
 31
0.0
  0
LINE
  8
0
 62
     0
 10
212.644
 20
74.6689
 30
0.0
 11
212.644
 21
68.8689
 31
0.0
  0
LINE
  8
0
 62
     0
 10
212.644
 20
68.8689
 30
0.0
 11
211.844
 21
68.8689
 31
0.0
  0
LINE
  8
0
 62
     0
 10
211.844
 20
68.8689
 30
0.0
 11
211.844
 21
65.7698
 31
0.0
  0
LINE
  8
0
 62
     0
 10
211.844
 20
65.7698
 30
0.0
 11
212.644
 21
65.7698
 31
0.0
  0
LINE
  8
0
 62
     0
 10
212.644
 20
65.7698
 30
0.0
 11
212.644
 21
64.7693
 31
0.0
  0
LINE
  8
0
 62
     0
 10
212.644
 20
64.7693
 30
0.0
 11
226.643
 21
64.7693
 31
0.0
  0
LINE
  8
0
 62
     0
 10
226.643
 20
64.7693
 30
0.0
 11
226.643
 21
65.7698
 31
0.0
  0
LINE
  8
0
 62
     0
 10
226.643
 20
65.7698
 30
0.0
 11
227.444
 21
65.7698
 31
0.0
  0
LINE
  8
0
 62
     0
 10
227.444
 20
65.7698
 30
0.0
 11
227.444
 21
68.8689
 31
0.0
  0
LINE
  8
0
 62
     0
 10
227.444
 20
68.8689
 30
0.0
 11
226.643
 21
68.8689
 31
0.0
  0
LINE
  8
0
 62
     0
 10
226.643
 20
68.8689
 30
0.0
 11
226.643
 21
74.6689
 31
0.0
  0
LINE
  8
0
 62
     0
 10
226.643
 20
74.6689
 30
0.0
 11
227.444
 21
74.6689
 31
0.0
  0
LINE
  8
0
 62
     0
 10
227.444
 20
74.6689
 30
0.0
 11
227.444
 21
77.7695
 31
0.0
  0
LINE
  8
0
 62
     0
 10
227.444
 20
77.7695
 30
0.0
 11
226.643
 21
77.7695
 31
0.0
  0
LINE
  8
0
 62
     0
 10
226.643
 20
77.7695
 30
0.0
 11
226.643
 21
78.7686
 31
0.0
  0
LINE
  8
0
 62
     0
 10
226.643
 20
78.7686
 30
0.0
 11
212.644
 21
78.7686
 31
0.0
  0
LINE
  8
0
 62
     0
 10
231.694
 20
78.7686
 30
0.0
 11
231.694
 21
77.7695
 31
0.0
  0
LINE
  8
0
 62
     0
 10
231.694
 20
77.7695
 30
0.0
 11
230.894
 21
77.7695
 31
0.0
  0
LINE
  8
0
 62
     0
 10
230.894
 20
77.7695
 30
0.0
 11
230.894
 21
74.6689
 31
0.0
  0
LINE
  8
0
 62
     0
 10
230.894
 20
74.6689
 30
0.0
 11
231.694
 21
74.6689
 31
0.0
  0
LINE
  8
0
 62
     0
 10
231.694
 20
74.6689
 30
0.0
 11
231.694
 21
68.8689
 31
0.0
  0
LINE
  8
0
 62
     0
 10
231.694
 20
68.8689
 30
0.0
 11
230.894
 21
68.8689
 31
0.0
  0
LINE
  8
0
 62
     0
 10
230.894
 20
68.8689
 30
0.0
 11
230.894
 21
65.7698
 31
0.0
  0
LINE
  8
0
 62
     0
 10
230.894
 20
65.7698
 30
0.0
 11
231.694
 21
65.7698
 31
0.0
  0
LINE
  8
0
 62
     0
 10
231.694
 20
65.7698
 30
0.0
 11
231.694
 21
64.7693
 31
0.0
  0
LINE
  8
0
 62
     0
 10
231.694
 20
64.7693
 30
0.0
 11
245.693
 21
64.7693
 31
0.0
  0
LINE
  8
0
 62
     0
 10
245.693
 20
64.7693
 30
0.0
 11
245.693
 21
65.7698
 31
0.0
  0
LINE
  8
0
 62
     0
 10
245.693
 20
65.7698
 30
0.0
 11
246.494
 21
65.7698
 31
0.0
  0
LINE
  8
0
 62
     0
 10
246.494
 20
65.7698
 30
0.0
 11
246.494
 21
68.8689
 31
0.0
  0
LINE
  8
0
 62
     0
 10
246.494
 20
68.8689
 30
0.0
 11
245.693
 21
68.8689
 31
0.0
  0
LINE
  8
0
 62
     0
 10
245.693
 20
68.8689
 30
0.0
 11
245.693
 21
74.6689
 31
0.0
  0
LINE
  8
0
 62
     0
 10
245.693
 20
74.6689
 30
0.0
 11
246.494
 21
74.6689
 31
0.0
  0
LINE
  8
0
 62
     0
 10
246.494
 20
74.6689
 30
0.0
 11
246.494
 21
77.7695
 31
0.0
  0
LINE
  8
0
 62
     0
 10
246.494
 20
77.7695
 30
0.0
 11
245.693
 21
77.7695
 31
0.0
  0
LINE
  8
0
 62
     0
 10
245.693
 20
77.7695
 30
0.0
 11
245.693
 21
78.7686
 31
0.0
  0
LINE
  8
0
 62
     0
 10
245.693
 20
78.7686
 30
0.0
 11
231.694
 21
78.7686
 31
0.0
  0
LINE
  8
0
 62
     0
 10
250.744
 20
78.7686
 30
0.0
 11
250.744
 21
77.7695
 31
0.0
  0
LINE
  8
0
 62
     0
 10
250.744
 20
77.7695
 30
0.0
 11
249.944
 21
77.7695
 31
0.0
  0
LINE
  8
0
 62
     0
 10
249.944
 20
77.7695
 30
0.0
 11
249.944
 21
74.6689
 31
0.0
  0
LINE
  8
0
 62
     0
 10
249.944
 20
74.6689
 30
0.0
 11
250.744
 21
74.6689
 31
0.0
  0
LINE
  8
0
 62
     0
 10
250.744
 20
74.6689
 30
0.0
 11
250.744
 21
68.8689
 31
0.0
  0
LINE
  8
0
 62
     0
 10
250.744
 20
68.8689
 30
0.0
 11
249.944
 21
68.8689
 31
0.0
  0
LINE
  8
0
 62
     0
 10
249.944
 20
68.8689
 30
0.0
 11
249.944
 21
65.7698
 31
0.0
  0
LINE
  8
0
 62
     0
 10
249.944
 20
65.7698
 30
0.0
 11
250.744
 21
65.7698
 31
0.0
  0
LINE
  8
0
 62
     0
 10
250.744
 20
65.7698
 30
0.0
 11
250.744
 21
64.7693
 31
0.0
  0
LINE
  8
0
 62
     0
 10
250.744
 20
64.7693
 30
0.0
 11
264.743
 21
64.7693
 31
0.0
  0
LINE
  8
0
 62
     0
 10
264.743
 20
64.7693
 30
0.0
 11
264.743
 21
65.7698
 31
0.0
  0
LINE
  8
0
 62
     0
 10
264.743
 20
65.7698
 30
0.0
 11
265.544
 21
65.7698
 31
0.0
  0
LINE
  8
0
 62
     0
 10
265.544
 20
65.7698
 30
0.0
 11
265.544
 21
68.8689
 31
0.0
  0
LINE
  8
0
 62
     0
 10
265.544
 20
68.8689
 30
0.0
 11
264.743
 21
68.8689
 31
0.0
  0
LINE
  8
0
 62
     0
 10
264.743
 20
68.8689
 30
0.0
 11
264.743
 21
74.6689
 31
0.0
  0
LINE
  8
0
 62
     0
 10
264.743
 20
74.6689
 30
0.0
 11
265.544
 21
74.6689
 31
0.0
  0
LINE
  8
0
 62
     0
 10
265.544
 20
74.6689
 30
0.0
 11
265.544
 21
77.7695
 31
0.0
  0
LINE
  8
0
 62
     0
 10
265.544
 20
77.7695
 30
0.0
 11
264.743
 21
77.7695
 31
0.0
  0
LINE
  8
0
 62
     0
 10
264.743
 20
77.7695
 30
0.0
 11
264.743
 21
78.7686
 31
0.0
  0
LINE
  8
0
 62
     0
 10
264.743
 20
78.7686
 30
0.0
 11
250.744
 21
78.7686
 31
0.0
  0
LINE
  8
0
 62
     0
 10
274.556
 20
78.7686
 30
0.0
 11
274.556
 21
77.7695
 31
0.0
  0
LINE
  8
0
 62
     0
 10
274.556
 20
77.7695
 30
0.0
 11
273.756
 21
77.7695
 31
0.0
  0
LINE
  8
0
 62
     0
 10
273.756
 20
77.7695
 30
0.0
 11
273.756
 21
74.6689
 31
0.0
  0
LINE
  8
0
 62
     0
 10
273.756
 20
74.6689
 30
0.0
 11
274.556
 21
74.6689
 31
0.0
  0
LINE
  8
0
 62
     0
 10
274.556
 20
74.6689
 30
0.0
 11
274.556
 21
68.8689
 31
0.0
  0
LINE
  8
0
 62
     0
 10
274.556
 20
68.8689
 30
0.0
 11
273.756
 21
68.8689
 31
0.0
  0
LINE
  8
0
 62
     0
 10
273.756
 20
68.8689
 30
0.0
 11
273.756
 21
65.7698
 31
0.0
  0
LINE
  8
0
 62
     0
 10
273.756
 20
65.7698
 30
0.0
 11
274.556
 21
65.7698
 31
0.0
  0
LINE
  8
0
 62
     0
 10
274.556
 20
65.7698
 30
0.0
 11
274.556
 21
64.7693
 31
0.0
  0
LINE
  8
0
 62
     0
 10
274.556
 20
64.7693
 30
0.0
 11
288.556
 21
64.7693
 31
0.0
  0
LINE
  8
0
 62
     0
 10
288.556
 20
64.7693
 30
0.0
 11
288.556
 21
65.7698
 31
0.0
  0
LINE
  8
0
 62
     0
 10
288.556
 20
65.7698
 30
0.0
 11
289.356
 21
65.7698
 31
0.0
  0
LINE
  8
0
 62
     0
 10
289.356
 20
65.7698
 30
0.0
 11
289.356
 21
68.8689
 31
0.0
  0
LINE
  8
0
 62
     0
 10
289.356
 20
68.8689
 30
0.0
 11
288.556
 21
68.8689
 31
0.0
  0
LINE
  8
0
 62
     0
 10
288.556
 20
68.8689
 30
0.0
 11
288.556
 21
74.6689
 31
0.0
  0
LINE
  8
0
 62
     0
 10
288.556
 20
74.6689
 30
0.0
 11
289.356
 21
74.6689
 31
0.0
  0
LINE
  8
0
 62
     0
 10
289.356
 20
74.6689
 30
0.0
 11
289.356
 21
77.7695
 31
0.0
  0
LINE
  8
0
 62
     0
 10
289.356
 20
77.7695
 30
0.0
 11
288.556
 21
77.7695
 31
0.0
  0
LINE
  8
0
 62
     0
 10
288.556
 20
77.7695
 30
0.0
 11
288.556
 21
78.7686
 31
0.0
  0
LINE
  8
0
 62
     0
 10
288.556
 20
78.7686
 30
0.0
 11
274.556
 21
78.7686
 31
0.0
  0
LINE
  8
0
 62
     0
 10
269.794
 20
97.82
 30
0.0
 11
269.794
 21
96.8195
 31
0.0
  0
LINE
  8
0
 62
     0
 10
269.794
 20
96.8195
 30
0.0
 11
268.994
 21
96.8195
 31
0.0
  0
LINE
  8
0
 62
     0
 10
268.994
 20
96.8195
 30
0.0
 11
268.994
 21
93.7189
 31
0.0
  0
LINE
  8
0
 62
     0
 10
268.994
 20
93.7189
 30
0.0
 11
269.794
 21
93.7189
 31
0.0
  0
LINE
  8
0
 62
     0
 10
269.794
 20
93.7189
 30
0.0
 11
269.794
 21
93.1196
 31
0.0
  0
LINE
  8
0
 62
     0
 10
269.794
 20
93.1196
 30
0.0
 11
268.268
 21
93.1196
 31
0.0
  0
LINE
  8
0
 62
     0
 10
268.268
 20
93.1196
 30
0.0
 11
268.268
 21
96.3496
 31
0.0
  0
LINE
  8
0
 62
     0
 10
268.268
 20
96.3496
 30
0.0
 11
266.544
 21
96.3496
 31
0.0
  0
LINE
  8
0
 62
     0
 10
266.544
 20
96.3496
 30
0.0
 11
266.544
 21
97.2689
 31
0.0
  0
LINE
  8
0
 62
     0
 10
266.544
 20
97.2689
 30
0.0
 11
263.244
 21
97.2689
 31
0.0
  0
LINE
  8
0
 62
     0
 10
263.244
 20
97.2689
 30
0.0
 11
263.244
 21
96.3496
 31
0.0
  0
LINE
  8
0
 62
     0
 10
263.244
 20
96.3496
 30
0.0
 11
261.519
 21
96.3496
 31
0.0
  0
LINE
  8
0
 62
     0
 10
261.519
 20
96.3496
 30
0.0
 11
261.519
 21
93.1196
 31
0.0
  0
LINE
  8
0
 62
     0
 10
261.519
 20
93.1196
 30
0.0
 11
260.693
 21
93.1196
 31
0.0
  0
LINE
  8
0
 62
     0
 10
260.693
 20
93.1196
 30
0.0
 11
260.693
 21
90.3192
 31
0.0
  0
LINE
  8
0
 62
     0
 10
260.693
 20
90.3192
 30
0.0
 11
261.519
 21
90.3192
 31
0.0
  0
LINE
  8
0
 62
     0
 10
261.519
 20
90.3192
 30
0.0
 11
261.519
 21
84.0507
 31
0.0
  0
LINE
  8
0
 62
     0
 10
261.519
 20
84.0507
 30
0.0
 11
263.244
 21
84.0507
 31
0.0
  0
LINE
  8
0
 62
     0
 10
263.244
 20
84.0507
 30
0.0
 11
263.244
 21
83.0696
 31
0.0
  0
LINE
  8
0
 62
     0
 10
263.244
 20
83.0696
 30
0.0
 11
266.544
 21
83.0696
 31
0.0
  0
LINE
  8
0
 62
     0
 10
266.544
 20
83.0696
 30
0.0
 11
266.544
 21
84.0507
 31
0.0
  0
LINE
  8
0
 62
     0
 10
266.544
 20
84.0507
 30
0.0
 11
268.268
 21
84.0507
 31
0.0
  0
LINE
  8
0
 62
     0
 10
268.268
 20
84.0507
 30
0.0
 11
268.268
 21
88.5197
 31
0.0
  0
LINE
  8
0
 62
     0
 10
268.268
 20
88.5197
 30
0.0
 11
269.794
 21
88.5197
 31
0.0
  0
LINE
  8
0
 62
     0
 10
269.794
 20
88.5197
 30
0.0
 11
269.794
 21
87.9203
 31
0.0
  0
LINE
  8
0
 62
     0
 10
269.794
 20
87.9203
 30
0.0
 11
268.994
 21
87.9203
 31
0.0
  0
LINE
  8
0
 62
     0
 10
268.994
 20
87.9203
 30
0.0
 11
268.994
 21
84.8198
 31
0.0
  0
LINE
  8
0
 62
     0
 10
268.994
 20
84.8198
 30
0.0
 11
269.794
 21
84.8198
 31
0.0
  0
LINE
  8
0
 62
     0
 10
269.794
 20
84.8198
 30
0.0
 11
269.794
 21
83.8193
 31
0.0
  0
LINE
  8
0
 62
     0
 10
269.794
 20
83.8193
 30
0.0
 11
283.793
 21
83.8193
 31
0.0
  0
LINE
  8
0
 62
     0
 10
283.793
 20
83.8193
 30
0.0
 11
283.793
 21
84.8198
 31
0.0
  0
LINE
  8
0
 62
     0
 10
283.793
 20
84.8198
 30
0.0
 11
284.594
 21
84.8198
 31
0.0
  0
LINE
  8
0
 62
     0
 10
284.594
 20
84.8198
 30
0.0
 11
284.594
 21
87.9203
 31
0.0
  0
LINE
  8
0
 62
     0
 10
284.594
 20
87.9203
 30
0.0
 11
283.793
 21
87.9203
 31
0.0
  0
LINE
  8
0
 62
     0
 10
283.793
 20
87.9203
 30
0.0
 11
283.793
 21
88.5197
 31
0.0
  0
LINE
  8
0
 62
     0
 10
283.793
 20
88.5197
 30
0.0
 11
285.319
 21
88.5197
 31
0.0
  0
LINE
  8
0
 62
     0
 10
285.319
 20
88.5197
 30
0.0
 11
285.319
 21
84.0507
 31
0.0
  0
LINE
  8
0
 62
     0
 10
285.319
 20
84.0507
 30
0.0
 11
287.044
 21
84.0507
 31
0.0
  0
LINE
  8
0
 62
     0
 10
287.044
 20
84.0507
 30
0.0
 11
287.044
 21
83.0696
 31
0.0
  0
LINE
  8
0
 62
     0
 10
287.044
 20
83.0696
 30
0.0
 11
290.344
 21
83.0696
 31
0.0
  0
LINE
  8
0
 62
     0
 10
290.344
 20
83.0696
 30
0.0
 11
290.344
 21
84.0507
 31
0.0
  0
LINE
  8
0
 62
     0
 10
290.344
 20
84.0507
 30
0.0
 11
292.068
 21
84.0507
 31
0.0
  0
LINE
  8
0
 62
     0
 10
292.068
 20
84.0507
 30
0.0
 11
292.068
 21
90.3192
 31
0.0
  0
LINE
  8
0
 62
     0
 10
292.068
 20
90.3192
 30
0.0
 11
292.894
 21
90.3192
 31
0.0
  0
LINE
  8
0
 62
     0
 10
292.894
 20
90.3192
 30
0.0
 11
292.894
 21
93.1196
 31
0.0
  0
LINE
  8
0
 62
     0
 10
292.894
 20
93.1196
 30
0.0
 11
292.068
 21
93.1196
 31
0.0
  0
LINE
  8
0
 62
     0
 10
292.068
 20
93.1196
 30
0.0
 11
292.068
 21
96.3496
 31
0.0
  0
LINE
  8
0
 62
     0
 10
292.068
 20
96.3496
 30
0.0
 11
290.344
 21
96.3496
 31
0.0
  0
LINE
  8
0
 62
     0
 10
290.344
 20
96.3496
 30
0.0
 11
290.344
 21
97.2689
 31
0.0
  0
LINE
  8
0
 62
     0
 10
290.344
 20
97.2689
 30
0.0
 11
287.044
 21
97.2689
 31
0.0
  0
LINE
  8
0
 62
     0
 10
287.044
 20
97.2689
 30
0.0
 11
287.044
 21
96.3496
 31
0.0
  0
LINE
  8
0
 62
     0
 10
287.044
 20
96.3496
 30
0.0
 11
285.319
 21
96.3496
 31
0.0
  0
LINE
  8
0
 62
     0
 10
285.319
 20
96.3496
 30
0.0
 11
285.319
 21
93.1196
 31
0.0
  0
LINE
  8
0
 62
     0
 10
285.319
 20
93.1196
 30
0.0
 11
283.793
 21
93.1196
 31
0.0
  0
LINE
  8
0
 62
     0
 10
283.793
 20
93.1196
 30
0.0
 11
283.793
 21
93.7189
 31
0.0
  0
LINE
  8
0
 62
     0
 10
283.793
 20
93.7189
 30
0.0
 11
284.594
 21
93.7189
 31
0.0
  0
LINE
  8
0
 62
     0
 10
284.594
 20
93.7189
 30
0.0
 11
284.594
 21
96.8195
 31
0.0
  0
LINE
  8
0
 62
     0
 10
284.594
 20
96.8195
 30
0.0
 11
283.793
 21
96.8195
 31
0.0
  0
LINE
  8
0
 62
     0
 10
283.793
 20
96.8195
 30
0.0
 11
283.793
 21
97.82
 31
0.0
  0
LINE
  8
0
 62
     0
 10
283.793
 20
97.82
 30
0.0
 11
269.794
 21
97.82
 31
0.0
  0
LINE
  8
0
 62
     0
 10
12.6187
 20
97.82
 30
0.0
 11
12.6187
 21
96.8195
 31
0.0
  0
LINE
  8
0
 62
     0
 10
12.6187
 20
96.8195
 30
0.0
 11
11.8181
 21
96.8195
 31
0.0
  0
LINE
  8
0
 62
     0
 10
11.8181
 20
96.8195
 30
0.0
 11
11.8181
 21
93.7189
 31
0.0
  0
LINE
  8
0
 62
     0
 10
11.8181
 20
93.7189
 30
0.0
 11
12.6187
 21
93.7189
 31
0.0
  0
LINE
  8
0
 62
     0
 10
12.6187
 20
93.7189
 30
0.0
 11
12.6187
 21
87.9203
 31
0.0
  0
LINE
  8
0
 62
     0
 10
12.6187
 20
87.9203
 30
0.0
 11
11.8181
 21
87.9203
 31
0.0
  0
LINE
  8
0
 62
     0
 10
11.8181
 20
87.9203
 30
0.0
 11
11.8181
 21
84.8198
 31
0.0
  0
LINE
  8
0
 62
     0
 10
11.8181
 20
84.8198
 30
0.0
 11
12.6187
 21
84.8198
 31
0.0
  0
LINE
  8
0
 62
     0
 10
12.6187
 20
84.8198
 30
0.0
 11
12.6187
 21
83.8193
 31
0.0
  0
LINE
  8
0
 62
     0
 10
12.6187
 20
83.8193
 30
0.0
 11
26.6182
 21
83.8193
 31
0.0
  0
LINE
  8
0
 62
     0
 10
26.6182
 20
83.8193
 30
0.0
 11
26.6182
 21
84.8198
 31
0.0
  0
LINE
  8
0
 62
     0
 10
26.6182
 20
84.8198
 30
0.0
 11
27.4161
 21
84.8198
 31
0.0
  0
LINE
  8
0
 62
     0
 10
27.4161
 20
84.8198
 30
0.0
 11
27.4161
 21
87.9203
 31
0.0
  0
LINE
  8
0
 62
     0
 10
27.4161
 20
87.9203
 30
0.0
 11
26.6182
 21
87.9203
 31
0.0
  0
LINE
  8
0
 62
     0
 10
26.6182
 20
87.9203
 30
0.0
 11
26.6182
 21
93.7189
 31
0.0
  0
LINE
  8
0
 62
     0
 10
26.6182
 20
93.7189
 30
0.0
 11
27.4161
 21
93.7189
 31
0.0
  0
LINE
  8
0
 62
     0
 10
27.4161
 20
93.7189
 30
0.0
 11
27.4161
 21
96.8195
 31
0.0
  0
LINE
  8
0
 62
     0
 10
27.4161
 20
96.8195
 30
0.0
 11
26.6182
 21
96.8195
 31
0.0
  0
LINE
  8
0
 62
     0
 10
26.6182
 20
96.8195
 30
0.0
 11
26.6182
 21
97.82
 31
0.0
  0
LINE
  8
0
 62
     0
 10
26.6182
 20
97.82
 30
0.0
 11
12.6187
 21
97.82
 31
0.0
  0
LINE
  8
0
 62
     0
 10
31.6687
 20
97.82
 30
0.0
 11
31.6687
 21
96.8195
 31
0.0
  0
LINE
  8
0
 62
     0
 10
31.6687
 20
96.8195
 30
0.0
 11
30.8694
 21
96.8195
 31
0.0
  0
LINE
  8
0
 62
     0
 10
30.8694
 20
96.8195
 30
0.0
 11
30.8694
 21
93.7189
 31
0.0
  0
LINE
  8
0
 62
     0
 10
30.8694
 20
93.7189
 30
0.0
 11
31.6687
 21
93.7189
 31
0.0
  0
LINE
  8
0
 62
     0
 10
31.6687
 20
93.7189
 30
0.0
 11
31.6687
 21
87.9203
 31
0.0
  0
LINE
  8
0
 62
     0
 10
31.6687
 20
87.9203
 30
0.0
 11
30.8694
 21
87.9203
 31
0.0
  0
LINE
  8
0
 62
     0
 10
30.8694
 20
87.9203
 30
0.0
 11
30.8694
 21
84.8198
 31
0.0
  0
LINE
  8
0
 62
     0
 10
30.8694
 20
84.8198
 30
0.0
 11
31.6687
 21
84.8198
 31
0.0
  0
LINE
  8
0
 62
     0
 10
31.6687
 20
84.8198
 30
0.0
 11
31.6687
 21
83.8193
 31
0.0
  0
LINE
  8
0
 62
     0
 10
31.6687
 20
83.8193
 30
0.0
 11
45.6681
 21
83.8193
 31
0.0
  0
LINE
  8
0
 62
     0
 10
45.6681
 20
83.8193
 30
0.0
 11
45.6681
 21
84.8198
 31
0.0
  0
LINE
  8
0
 62
     0
 10
45.6681
 20
84.8198
 30
0.0
 11
46.4689
 21
84.8198
 31
0.0
  0
LINE
  8
0
 62
     0
 10
46.4689
 20
84.8198
 30
0.0
 11
46.4689
 21
87.9203
 31
0.0
  0
LINE
  8
0
 62
     0
 10
46.4689
 20
87.9203
 30
0.0
 11
45.6681
 21
87.9203
 31
0.0
  0
LINE
  8
0
 62
     0
 10
45.6681
 20
87.9203
 30
0.0
 11
45.6681
 21
93.7189
 31
0.0
  0
LINE
  8
0
 62
     0
 10
45.6681
 20
93.7189
 30
0.0
 11
46.4689
 21
93.7189
 31
0.0
  0
LINE
  8
0
 62
     0
 10
46.4689
 20
93.7189
 30
0.0
 11
46.4689
 21
96.8195
 31
0.0
  0
LINE
  8
0
 62
     0
 10
46.4689
 20
96.8195
 30
0.0
 11
45.6681
 21
96.8195
 31
0.0
  0
LINE
  8
0
 62
     0
 10
45.6681
 20
96.8195
 30
0.0
 11
45.6681
 21
97.82
 31
0.0
  0
LINE
  8
0
 62
     0
 10
45.6681
 20
97.82
 30
0.0
 11
31.6687
 21
97.82
 31
0.0
  0
LINE
  8
0
 62
     0
 10
50.7189
 20
97.82
 30
0.0
 11
50.7189
 21
96.8195
 31
0.0
  0
LINE
  8
0
 62
     0
 10
50.7189
 20
96.8195
 30
0.0
 11
49.9195
 21
96.8195
 31
0.0
  0
LINE
  8
0
 62
     0
 10
49.9195
 20
96.8195
 30
0.0
 11
49.9195
 21
93.7189
 31
0.0
  0
LINE
  8
0
 62
     0
 10
49.9195
 20
93.7189
 30
0.0
 11
50.7189
 21
93.7189
 31
0.0
  0
LINE
  8
0
 62
     0
 10
50.7189
 20
93.7189
 30
0.0
 11
50.7189
 21
87.9203
 31
0.0
  0
LINE
  8
0
 62
     0
 10
50.7189
 20
87.9203
 30
0.0
 11
49.9195
 21
87.9203
 31
0.0
  0
LINE
  8
0
 62
     0
 10
49.9195
 20
87.9203
 30
0.0
 11
49.9195
 21
84.8198
 31
0.0
  0
LINE
  8
0
 62
     0
 10
49.9195
 20
84.8198
 30
0.0
 11
50.7189
 21
84.8198
 31
0.0
  0
LINE
  8
0
 62
     0
 10
50.7189
 20
84.8198
 30
0.0
 11
50.7189
 21
83.8193
 31
0.0
  0
LINE
  8
0
 62
     0
 10
50.7189
 20
83.8193
 30
0.0
 11
64.7181
 21
83.8193
 31
0.0
  0
LINE
  8
0
 62
     0
 10
64.7181
 20
83.8193
 30
0.0
 11
64.7181
 21
84.8198
 31
0.0
  0
LINE
  8
0
 62
     0
 10
64.7181
 20
84.8198
 30
0.0
 11
65.519
 21
84.8198
 31
0.0
  0
LINE
  8
0
 62
     0
 10
65.519
 20
84.8198
 30
0.0
 11
65.519
 21
87.9203
 31
0.0
  0
LINE
  8
0
 62
     0
 10
65.519
 20
87.9203
 30
0.0
 11
64.7181
 21
87.9203
 31
0.0
  0
LINE
  8
0
 62
     0
 10
64.7181
 20
87.9203
 30
0.0
 11
64.7181
 21
93.7189
 31
0.0
  0
LINE
  8
0
 62
     0
 10
64.7181
 20
93.7189
 30
0.0
 11
65.519
 21
93.7189
 31
0.0
  0
LINE
  8
0
 62
     0
 10
65.519
 20
93.7189
 30
0.0
 11
65.519
 21
96.8195
 31
0.0
  0
LINE
  8
0
 62
     0
 10
65.519
 20
96.8195
 30
0.0
 11
64.7181
 21
96.8195
 31
0.0
  0
LINE
  8
0
 62
     0
 10
64.7181
 20
96.8195
 30
0.0
 11
64.7181
 21
97.82
 31
0.0
  0
LINE
  8
0
 62
     0
 10
64.7181
 20
97.82
 30
0.0
 11
50.7189
 21
97.82
 31
0.0
  0
LINE
  8
0
 62
     0
 10
69.7689
 20
97.82
 30
0.0
 11
69.7689
 21
96.8195
 31
0.0
  0
LINE
  8
0
 62
     0
 10
69.7689
 20
96.8195
 30
0.0
 11
68.9695
 21
96.8195
 31
0.0
  0
LINE
  8
0
 62
     0
 10
68.9695
 20
96.8195
 30
0.0
 11
68.9695
 21
93.7189
 31
0.0
  0
LINE
  8
0
 62
     0
 10
68.9695
 20
93.7189
 30
0.0
 11
69.7689
 21
93.7189
 31
0.0
  0
LINE
  8
0
 62
     0
 10
69.7689
 20
93.7189
 30
0.0
 11
69.7689
 21
87.9203
 31
0.0
  0
LINE
  8
0
 62
     0
 10
69.7689
 20
87.9203
 30
0.0
 11
68.9695
 21
87.9203
 31
0.0
  0
LINE
  8
0
 62
     0
 10
68.9695
 20
87.9203
 30
0.0
 11
68.9695
 21
84.8198
 31
0.0
  0
LINE
  8
0
 62
     0
 10
68.9695
 20
84.8198
 30
0.0
 11
69.7689
 21
84.8198
 31
0.0
  0
LINE
  8
0
 62
     0
 10
69.7689
 20
84.8198
 30
0.0
 11
69.7689
 21
83.8193
 31
0.0
  0
LINE
  8
0
 62
     0
 10
69.7689
 20
83.8193
 30
0.0
 11
83.7681
 21
83.8193
 31
0.0
  0
LINE
  8
0
 62
     0
 10
83.7681
 20
83.8193
 30
0.0
 11
83.7681
 21
84.8198
 31
0.0
  0
LINE
  8
0
 62
     0
 10
83.7681
 20
84.8198
 30
0.0
 11
84.569
 21
84.8198
 31
0.0
  0
LINE
  8
0
 62
     0
 10
84.569
 20
84.8198
 30
0.0
 11
84.569
 21
87.9203
 31
0.0
  0
LINE
  8
0
 62
     0
 10
84.569
 20
87.9203
 30
0.0
 11
83.7681
 21
87.9203
 31
0.0
  0
LINE
  8
0
 62
     0
 10
83.7681
 20
87.9203
 30
0.0
 11
83.7681
 21
93.7189
 31
0.0
  0
LINE
  8
0
 62
     0
 10
83.7681
 20
93.7189
 30
0.0
 11
84.569
 21
93.7189
 31
0.0
  0
LINE
  8
0
 62
     0
 10
84.569
 20
93.7189
 30
0.0
 11
84.569
 21
96.8195
 31
0.0
  0
LINE
  8
0
 62
     0
 10
84.569
 20
96.8195
 30
0.0
 11
83.7681
 21
96.8195
 31
0.0
  0
LINE
  8
0
 62
     0
 10
83.7681
 20
96.8195
 30
0.0
 11
83.7681
 21
97.82
 31
0.0
  0
LINE
  8
0
 62
     0
 10
83.7681
 20
97.82
 30
0.0
 11
69.7689
 21
97.82
 31
0.0
  0
LINE
  8
0
 62
     0
 10
88.8189
 20
97.82
 30
0.0
 11
88.8189
 21
96.8195
 31
0.0
  0
LINE
  8
0
 62
     0
 10
88.8189
 20
96.8195
 30
0.0
 11
88.0195
 21
96.8195
 31
0.0
  0
LINE
  8
0
 62
     0
 10
88.0195
 20
96.8195
 30
0.0
 11
88.0195
 21
93.7189
 31
0.0
  0
LINE
  8
0
 62
     0
 10
88.0195
 20
93.7189
 30
0.0
 11
88.8189
 21
93.7189
 31
0.0
  0
LINE
  8
0
 62
     0
 10
88.8189
 20
93.7189
 30
0.0
 11
88.8189
 21
87.9203
 31
0.0
  0
LINE
  8
0
 62
     0
 10
88.8189
 20
87.9203
 30
0.0
 11
88.0195
 21
87.9203
 31
0.0
  0
LINE
  8
0
 62
     0
 10
88.0195
 20
87.9203
 30
0.0
 11
88.0195
 21
84.8198
 31
0.0
  0
LINE
  8
0
 62
     0
 10
88.0195
 20
84.8198
 30
0.0
 11
88.8189
 21
84.8198
 31
0.0
  0
LINE
  8
0
 62
     0
 10
88.8189
 20
84.8198
 30
0.0
 11
88.8189
 21
83.8193
 31
0.0
  0
LINE
  8
0
 62
     0
 10
88.8189
 20
83.8193
 30
0.0
 11
102.818
 21
83.8193
 31
0.0
  0
LINE
  8
0
 62
     0
 10
102.818
 20
83.8193
 30
0.0
 11
102.818
 21
84.8198
 31
0.0
  0
LINE
  8
0
 62
     0
 10
102.818
 20
84.8198
 30
0.0
 11
103.618
 21
84.8198
 31
0.0
  0
LINE
  8
0
 62
     0
 10
103.618
 20
84.8198
 30
0.0
 11
103.618
 21
87.9203
 31
0.0
  0
LINE
  8
0
 62
     0
 10
103.618
 20
87.9203
 30
0.0
 11
102.818
 21
87.9203
 31
0.0
  0
LINE
  8
0
 62
     0
 10
102.818
 20
87.9203
 30
0.0
 11
102.818
 21
93.7189
 31
0.0
  0
LINE
  8
0
 62
     0
 10
102.818
 20
93.7189
 30
0.0
 11
103.618
 21
93.7189
 31
0.0
  0
LINE
  8
0
 62
     0
 10
103.618
 20
93.7189
 30
0.0
 11
103.618
 21
96.8195
 31
0.0
  0
LINE
  8
0
 62
     0
 10
103.618
 20
96.8195
 30
0.0
 11
102.818
 21
96.8195
 31
0.0
  0
LINE
  8
0
 62
     0
 10
102.818
 20
96.8195
 30
0.0
 11
102.818
 21
97.82
 31
0.0
  0
LINE
  8
0
 62
     0
 10
102.818
 20
97.82
 30
0.0
 11
88.8189
 21
97.82
 31
0.0
  0
LINE
  8
0
 62
     0
 10
107.867
 20
97.82
 30
0.0
 11
107.867
 21
96.8195
 31
0.0
  0
LINE
  8
0
 62
     0
 10
107.867
 20
96.8195
 30
0.0
 11
107.069
 21
96.8195
 31
0.0
  0
LINE
  8
0
 62
     0
 10
107.069
 20
96.8195
 30
0.0
 11
107.069
 21
93.7189
 31
0.0
  0
LINE
  8
0
 62
     0
 10
107.069
 20
93.7189
 30
0.0
 11
107.867
 21
93.7189
 31
0.0
  0
LINE
  8
0
 62
     0
 10
107.867
 20
93.7189
 30
0.0
 11
107.867
 21
87.9203
 31
0.0
  0
LINE
  8
0
 62
     0
 10
107.867
 20
87.9203
 30
0.0
 11
107.069
 21
87.9203
 31
0.0
  0
LINE
  8
0
 62
     0
 10
107.069
 20
87.9203
 30
0.0
 11
107.069
 21
84.8198
 31
0.0
  0
LINE
  8
0
 62
     0
 10
107.069
 20
84.8198
 30
0.0
 11
107.867
 21
84.8198
 31
0.0
  0
LINE
  8
0
 62
     0
 10
107.867
 20
84.8198
 30
0.0
 11
107.867
 21
83.8193
 31
0.0
  0
LINE
  8
0
 62
     0
 10
107.867
 20
83.8193
 30
0.0
 11
121.868
 21
83.8193
 31
0.0
  0
LINE
  8
0
 62
     0
 10
121.868
 20
83.8193
 30
0.0
 11
121.868
 21
84.8198
 31
0.0
  0
LINE
  8
0
 62
     0
 10
121.868
 20
84.8198
 30
0.0
 11
122.668
 21
84.8198
 31
0.0
  0
LINE
  8
0
 62
     0
 10
122.668
 20
84.8198
 30
0.0
 11
122.668
 21
87.9203
 31
0.0
  0
LINE
  8
0
 62
     0
 10
122.668
 20
87.9203
 30
0.0
 11
121.868
 21
87.9203
 31
0.0
  0
LINE
  8
0
 62
     0
 10
121.868
 20
87.9203
 30
0.0
 11
121.868
 21
93.7189
 31
0.0
  0
LINE
  8
0
 62
     0
 10
121.868
 20
93.7189
 30
0.0
 11
122.668
 21
93.7189
 31
0.0
  0
LINE
  8
0
 62
     0
 10
122.668
 20
93.7189
 30
0.0
 11
122.668
 21
96.8195
 31
0.0
  0
LINE
  8
0
 62
     0
 10
122.668
 20
96.8195
 30
0.0
 11
121.868
 21
96.8195
 31
0.0
  0
LINE
  8
0
 62
     0
 10
121.868
 20
96.8195
 30
0.0
 11
121.868
 21
97.82
 31
0.0
  0
LINE
  8
0
 62
     0
 10
121.868
 20
97.82
 30
0.0
 11
107.867
 21
97.82
 31
0.0
  0
LINE
  8
0
 62
     0
 10
126.919
 20
97.82
 30
0.0
 11
126.919
 21
96.8195
 31
0.0
  0
LINE
  8
0
 62
     0
 10
126.919
 20
96.8195
 30
0.0
 11
126.118
 21
96.8195
 31
0.0
  0
LINE
  8
0
 62
     0
 10
126.118
 20
96.8195
 30
0.0
 11
126.118
 21
93.7189
 31
0.0
  0
LINE
  8
0
 62
     0
 10
126.118
 20
93.7189
 30
0.0
 11
126.919
 21
93.7189
 31
0.0
  0
LINE
  8
0
 62
     0
 10
126.919
 20
93.7189
 30
0.0
 11
126.919
 21
87.9203
 31
0.0
  0
LINE
  8
0
 62
     0
 10
126.919
 20
87.9203
 30
0.0
 11
126.118
 21
87.9203
 31
0.0
  0
LINE
  8
0
 62
     0
 10
126.118
 20
87.9203
 30
0.0
 11
126.118
 21
84.8198
 31
0.0
  0
LINE
  8
0
 62
     0
 10
126.118
 20
84.8198
 30
0.0
 11
126.919
 21
84.8198
 31
0.0
  0
LINE
  8
0
 62
     0
 10
126.919
 20
84.8198
 30
0.0
 11
126.919
 21
83.8193
 31
0.0
  0
LINE
  8
0
 62
     0
 10
126.919
 20
83.8193
 30
0.0
 11
140.918
 21
83.8193
 31
0.0
  0
LINE
  8
0
 62
     0
 10
140.918
 20
83.8193
 30
0.0
 11
140.918
 21
84.8198
 31
0.0
  0
LINE
  8
0
 62
     0
 10
140.918
 20
84.8198
 30
0.0
 11
141.719
 21
84.8198
 31
0.0
  0
LINE
  8
0
 62
     0
 10
141.719
 20
84.8198
 30
0.0
 11
141.719
 21
87.9203
 31
0.0
  0
LINE
  8
0
 62
     0
 10
141.719
 20
87.9203
 30
0.0
 11
140.918
 21
87.9203
 31
0.0
  0
LINE
  8
0
 62
     0
 10
140.918
 20
87.9203
 30
0.0
 11
140.918
 21
93.7189
 31
0.0
  0
LINE
  8
0
 62
     0
 10
140.918
 20
93.7189
 30
0.0
 11
141.719
 21
93.7189
 31
0.0
  0
LINE
  8
0
 62
     0
 10
141.719
 20
93.7189
 30
0.0
 11
141.719
 21
96.8195
 31
0.0
  0
LINE
  8
0
 62
     0
 10
141.719
 20
96.8195
 30
0.0
 11
140.918
 21
96.8195
 31
0.0
  0
LINE
  8
0
 62
     0
 10
140.918
 20
96.8195
 30
0.0
 11
140.918
 21
97.82
 31
0.0
  0
LINE
  8
0
 62
     0
 10
140.918
 20
97.82
 30
0.0
 11
126.919
 21
97.82
 31
0.0
  0
LINE
  8
0
 62
     0
 10
145.969
 20
97.82
 30
0.0
 11
145.969
 21
96.8195
 31
0.0
  0
LINE
  8
0
 62
     0
 10
145.969
 20
96.8195
 30
0.0
 11
145.169
 21
96.8195
 31
0.0
  0
LINE
  8
0
 62
     0
 10
145.169
 20
96.8195
 30
0.0
 11
145.169
 21
93.7189
 31
0.0
  0
LINE
  8
0
 62
     0
 10
145.169
 20
93.7189
 30
0.0
 11
145.969
 21
93.7189
 31
0.0
  0
LINE
  8
0
 62
     0
 10
145.969
 20
93.7189
 30
0.0
 11
145.969
 21
87.9203
 31
0.0
  0
LINE
  8
0
 62
     0
 10
145.969
 20
87.9203
 30
0.0
 11
145.169
 21
87.9203
 31
0.0
  0
LINE
  8
0
 62
     0
 10
145.169
 20
87.9203
 30
0.0
 11
145.169
 21
84.8198
 31
0.0
  0
LINE
  8
0
 62
     0
 10
145.169
 20
84.8198
 30
0.0
 11
145.969
 21
84.8198
 31
0.0
  0
LINE
  8
0
 62
     0
 10
145.969
 20
84.8198
 30
0.0
 11
145.969
 21
83.8193
 31
0.0
  0
LINE
  8
0
 62
     0
 10
145.969
 20
83.8193
 30
0.0
 11
159.968
 21
83.8193
 31
0.0
  0
LINE
  8
0
 62
     0
 10
159.968
 20
83.8193
 30
0.0
 11
159.968
 21
84.8198
 31
0.0
  0
LINE
  8
0
 62
     0
 10
159.968
 20
84.8198
 30
0.0
 11
160.769
 21
84.8198
 31
0.0
  0
LINE
  8
0
 62
     0
 10
160.769
 20
84.8198
 30
0.0
 11
160.769
 21
87.9203
 31
0.0
  0
LINE
  8
0
 62
     0
 10
160.769
 20
87.9203
 30
0.0
 11
159.968
 21
87.9203
 31
0.0
  0
LINE
  8
0
 62
     0
 10
159.968
 20
87.9203
 30
0.0
 11
159.968
 21
93.7189
 31
0.0
  0
LINE
  8
0
 62
     0
 10
159.968
 20
93.7189
 30
0.0
 11
160.769
 21
93.7189
 31
0.0
  0
LINE
  8
0
 62
     0
 10
160.769
 20
93.7189
 30
0.0
 11
160.769
 21
96.8195
 31
0.0
  0
LINE
  8
0
 62
     0
 10
160.769
 20
96.8195
 30
0.0
 11
159.968
 21
96.8195
 31
0.0
  0
LINE
  8
0
 62
     0
 10
159.968
 20
96.8195
 30
0.0
 11
159.968
 21
97.82
 31
0.0
  0
LINE
  8
0
 62
     0
 10
159.968
 20
97.82
 30
0.0
 11
145.969
 21
97.82
 31
0.0
  0
LINE
  8
0
 62
     0
 10
165.019
 20
97.82
 30
0.0
 11
165.019
 21
96.8195
 31
0.0
  0
LINE
  8
0
 62
     0
 10
165.019
 20
96.8195
 30
0.0
 11
164.219
 21
96.8195
 31
0.0
  0
LINE
  8
0
 62
     0
 10
164.219
 20
96.8195
 30
0.0
 11
164.219
 21
93.7189
 31
0.0
  0
LINE
  8
0
 62
     0
 10
164.219
 20
93.7189
 30
0.0
 11
165.019
 21
93.7189
 31
0.0
  0
LINE
  8
0
 62
     0
 10
165.019
 20
93.7189
 30
0.0
 11
165.019
 21
87.9203
 31
0.0
  0
LINE
  8
0
 62
     0
 10
165.019
 20
87.9203
 30
0.0
 11
164.219
 21
87.9203
 31
0.0
  0
LINE
  8
0
 62
     0
 10
164.219
 20
87.9203
 30
0.0
 11
164.219
 21
84.8198
 31
0.0
  0
LINE
  8
0
 62
     0
 10
164.219
 20
84.8198
 30
0.0
 11
165.019
 21
84.8198
 31
0.0
  0
LINE
  8
0
 62
     0
 10
165.019
 20
84.8198
 30
0.0
 11
165.019
 21
83.8193
 31
0.0
  0
LINE
  8
0
 62
     0
 10
165.019
 20
83.8193
 30
0.0
 11
179.018
 21
83.8193
 31
0.0
  0
LINE
  8
0
 62
     0
 10
179.018
 20
83.8193
 30
0.0
 11
179.018
 21
84.8198
 31
0.0
  0
LINE
  8
0
 62
     0
 10
179.018
 20
84.8198
 30
0.0
 11
179.819
 21
84.8198
 31
0.0
  0
LINE
  8
0
 62
     0
 10
179.819
 20
84.8198
 30
0.0
 11
179.819
 21
87.9203
 31
0.0
  0
LINE
  8
0
 62
     0
 10
179.819
 20
87.9203
 30
0.0
 11
179.018
 21
87.9203
 31
0.0
  0
LINE
  8
0
 62
     0
 10
179.018
 20
87.9203
 30
0.0
 11
179.018
 21
93.7189
 31
0.0
  0
LINE
  8
0
 62
     0
 10
179.018
 20
93.7189
 30
0.0
 11
179.819
 21
93.7189
 31
0.0
  0
LINE
  8
0
 62
     0
 10
179.819
 20
93.7189
 30
0.0
 11
179.819
 21
96.8195
 31
0.0
  0
LINE
  8
0
 62
     0
 10
179.819
 20
96.8195
 30
0.0
 11
179.018
 21
96.8195
 31
0.0
  0
LINE
  8
0
 62
     0
 10
179.018
 20
96.8195
 30
0.0
 11
179.018
 21
97.82
 31
0.0
  0
LINE
  8
0
 62
     0
 10
179.018
 20
97.82
 30
0.0
 11
165.019
 21
97.82
 31
0.0
  0
LINE
  8
0
 62
     0
 10
184.069
 20
97.82
 30
0.0
 11
184.069
 21
96.8195
 31
0.0
  0
LINE
  8
0
 62
     0
 10
184.069
 20
96.8195
 30
0.0
 11
183.269
 21
96.8195
 31
0.0
  0
LINE
  8
0
 62
     0
 10
183.269
 20
96.8195
 30
0.0
 11
183.269
 21
93.7189
 31
0.0
  0
LINE
  8
0
 62
     0
 10
183.269
 20
93.7189
 30
0.0
 11
184.069
 21
93.7189
 31
0.0
  0
LINE
  8
0
 62
     0
 10
184.069
 20
93.7189
 30
0.0
 11
184.069
 21
87.9203
 31
0.0
  0
LINE
  8
0
 62
     0
 10
184.069
 20
87.9203
 30
0.0
 11
183.269
 21
87.9203
 31
0.0
  0
LINE
  8
0
 62
     0
 10
183.269
 20
87.9203
 30
0.0
 11
183.269
 21
84.8198
 31
0.0
  0
LINE
  8
0
 62
     0
 10
183.269
 20
84.8198
 30
0.0
 11
184.069
 21
84.8198
 31
0.0
  0
LINE
  8
0
 62
     0
 10
184.069
 20
84.8198
 30
0.0
 11
184.069
 21
83.8193
 31
0.0
  0
LINE
  8
0
 62
     0
 10
184.069
 20
83.8193
 30
0.0
 11
198.068
 21
83.8193
 31
0.0
  0
LINE
  8
0
 62
     0
 10
198.068
 20
83.8193
 30
0.0
 11
198.068
 21
84.8198
 31
0.0
  0
LINE
  8
0
 62
     0
 10
198.068
 20
84.8198
 30
0.0
 11
198.869
 21
84.8198
 31
0.0
  0
LINE
  8
0
 62
     0
 10
198.869
 20
84.8198
 30
0.0
 11
198.869
 21
87.9203
 31
0.0
  0
LINE
  8
0
 62
     0
 10
198.869
 20
87.9203
 30
0.0
 11
198.068
 21
87.9203
 31
0.0
  0
LINE
  8
0
 62
     0
 10
198.068
 20
87.9203
 30
0.0
 11
198.068
 21
93.7189
 31
0.0
  0
LINE
  8
0
 62
     0
 10
198.068
 20
93.7189
 30
0.0
 11
198.869
 21
93.7189
 31
0.0
  0
LINE
  8
0
 62
     0
 10
198.869
 20
93.7189
 30
0.0
 11
198.869
 21
96.8195
 31
0.0
  0
LINE
  8
0
 62
     0
 10
198.869
 20
96.8195
 30
0.0
 11
198.068
 21
96.8195
 31
0.0
  0
LINE
  8
0
 62
     0
 10
198.068
 20
96.8195
 30
0.0
 11
198.068
 21
97.82
 31
0.0
  0
LINE
  8
0
 62
     0
 10
198.068
 20
97.82
 30
0.0
 11
184.069
 21
97.82
 31
0.0
  0
LINE
  8
0
 62
     0
 10
203.119
 20
97.82
 30
0.0
 11
203.119
 21
96.8195
 31
0.0
  0
LINE
  8
0
 62
     0
 10
203.119
 20
96.8195
 30
0.0
 11
202.319
 21
96.8195
 31
0.0
  0
LINE
  8
0
 62
     0
 10
202.319
 20
96.8195
 30
0.0
 11
202.319
 21
93.7189
 31
0.0
  0
LINE
  8
0
 62
     0
 10
202.319
 20
93.7189
 30
0.0
 11
203.119
 21
93.7189
 31
0.0
  0
LINE
  8
0
 62
     0
 10
203.119
 20
93.7189
 30
0.0
 11
203.119
 21
87.9203
 31
0.0
  0
LINE
  8
0
 62
     0
 10
203.119
 20
87.9203
 30
0.0
 11
202.319
 21
87.9203
 31
0.0
  0
LINE
  8
0
 62
     0
 10
202.319
 20
87.9203
 30
0.0
 11
202.319
 21
84.8198
 31
0.0
  0
LINE
  8
0
 62
     0
 10
202.319
 20
84.8198
 30
0.0
 11
203.119
 21
84.8198
 31
0.0
  0
LINE
  8
0
 62
     0
 10
203.119
 20
84.8198
 30
0.0
 11
203.119
 21
83.8193
 31
0.0
  0
LINE
  8
0
 62
     0
 10
203.119
 20
83.8193
 30
0.0
 11
217.118
 21
83.8193
 31
0.0
  0
LINE
  8
0
 62
     0
 10
217.118
 20
83.8193
 30
0.0
 11
217.118
 21
84.8198
 31
0.0
  0
LINE
  8
0
 62
     0
 10
217.118
 20
84.8198
 30
0.0
 11
217.919
 21
84.8198
 31
0.0
  0
LINE
  8
0
 62
     0
 10
217.919
 20
84.8198
 30
0.0
 11
217.919
 21
87.9203
 31
0.0
  0
LINE
  8
0
 62
     0
 10
217.919
 20
87.9203
 30
0.0
 11
217.118
 21
87.9203
 31
0.0
  0
LINE
  8
0
 62
     0
 10
217.118
 20
87.9203
 30
0.0
 11
217.118
 21
93.7189
 31
0.0
  0
LINE
  8
0
 62
     0
 10
217.118
 20
93.7189
 30
0.0
 11
217.919
 21
93.7189
 31
0.0
  0
LINE
  8
0
 62
     0
 10
217.919
 20
93.7189
 30
0.0
 11
217.919
 21
96.8195
 31
0.0
  0
LINE
  8
0
 62
     0
 10
217.919
 20
96.8195
 30
0.0
 11
217.118
 21
96.8195
 31
0.0
  0
LINE
  8
0
 62
     0
 10
217.118
 20
96.8195
 30
0.0
 11
217.118
 21
97.82
 31
0.0
  0
LINE
  8
0
 62
     0
 10
217.118
 20
97.82
 30
0.0
 11
203.119
 21
97.82
 31
0.0
  0
LINE
  8
0
 62
     0
 10
222.169
 20
97.82
 30
0.0
 11
222.169
 21
96.8195
 31
0.0
  0
LINE
  8
0
 62
     0
 10
222.169
 20
96.8195
 30
0.0
 11
221.369
 21
96.8195
 31
0.0
  0
LINE
  8
0
 62
     0
 10
221.369
 20
96.8195
 30
0.0
 11
221.369
 21
93.7189
 31
0.0
  0
LINE
  8
0
 62
     0
 10
221.369
 20
93.7189
 30
0.0
 11
222.169
 21
93.7189
 31
0.0
  0
LINE
  8
0
 62
     0
 10
222.169
 20
93.7189
 30
0.0
 11
222.169
 21
87.9203
 31
0.0
  0
LINE
  8
0
 62
     0
 10
222.169
 20
87.9203
 30
0.0
 11
221.369
 21
87.9203
 31
0.0
  0
LINE
  8
0
 62
     0
 10
221.369
 20
87.9203
 30
0.0
 11
221.369
 21
84.8198
 31
0.0
  0
LINE
  8
0
 62
     0
 10
221.369
 20
84.8198
 30
0.0
 11
222.169
 21
84.8198
 31
0.0
  0
LINE
  8
0
 62
     0
 10
222.169
 20
84.8198
 30
0.0
 11
222.169
 21
83.8193
 31
0.0
  0
LINE
  8
0
 62
     0
 10
222.169
 20
83.8193
 30
0.0
 11
236.168
 21
83.8193
 31
0.0
  0
LINE
  8
0
 62
     0
 10
236.168
 20
83.8193
 30
0.0
 11
236.168
 21
84.8198
 31
0.0
  0
LINE
  8
0
 62
     0
 10
236.168
 20
84.8198
 30
0.0
 11
236.969
 21
84.8198
 31
0.0
  0
LINE
  8
0
 62
     0
 10
236.969
 20
84.8198
 30
0.0
 11
236.969
 21
87.9203
 31
0.0
  0
LINE
  8
0
 62
     0
 10
236.969
 20
87.9203
 30
0.0
 11
236.168
 21
87.9203
 31
0.0
  0
LINE
  8
0
 62
     0
 10
236.168
 20
87.9203
 30
0.0
 11
236.168
 21
93.7189
 31
0.0
  0
LINE
  8
0
 62
     0
 10
236.168
 20
93.7189
 30
0.0
 11
236.969
 21
93.7189
 31
0.0
  0
LINE
  8
0
 62
     0
 10
236.969
 20
93.7189
 30
0.0
 11
236.969
 21
96.8195
 31
0.0
  0
LINE
  8
0
 62
     0
 10
236.969
 20
96.8195
 30
0.0
 11
236.168
 21
96.8195
 31
0.0
  0
LINE
  8
0
 62
     0
 10
236.168
 20
96.8195
 30
0.0
 11
236.168
 21
97.82
 31
0.0
  0
LINE
  8
0
 62
     0
 10
236.168
 20
97.82
 30
0.0
 11
222.169
 21
97.82
 31
0.0
  0
LINE
  8
0
 62
     0
 10
241.219
 20
97.82
 30
0.0
 11
241.219
 21
96.8195
 31
0.0
  0
LINE
  8
0
 62
     0
 10
241.219
 20
96.8195
 30
0.0
 11
240.419
 21
96.8195
 31
0.0
  0
LINE
  8
0
 62
     0
 10
240.419
 20
96.8195
 30
0.0
 11
240.419
 21
93.7189
 31
0.0
  0
LINE
  8
0
 62
     0
 10
240.419
 20
93.7189
 30
0.0
 11
241.219
 21
93.7189
 31
0.0
  0
LINE
  8
0
 62
     0
 10
241.219
 20
93.7189
 30
0.0
 11
241.219
 21
87.9203
 31
0.0
  0
LINE
  8
0
 62
     0
 10
241.219
 20
87.9203
 30
0.0
 11
240.419
 21
87.9203
 31
0.0
  0
LINE
  8
0
 62
     0
 10
240.419
 20
87.9203
 30
0.0
 11
240.419
 21
84.8198
 31
0.0
  0
LINE
  8
0
 62
     0
 10
240.419
 20
84.8198
 30
0.0
 11
241.219
 21
84.8198
 31
0.0
  0
LINE
  8
0
 62
     0
 10
241.219
 20
84.8198
 30
0.0
 11
241.219
 21
83.8193
 31
0.0
  0
LINE
  8
0
 62
     0
 10
241.219
 20
83.8193
 30
0.0
 11
255.218
 21
83.8193
 31
0.0
  0
LINE
  8
0
 62
     0
 10
255.218
 20
83.8193
 30
0.0
 11
255.218
 21
84.8198
 31
0.0
  0
LINE
  8
0
 62
     0
 10
255.218
 20
84.8198
 30
0.0
 11
256.019
 21
84.8198
 31
0.0
  0
LINE
  8
0
 62
     0
 10
256.019
 20
84.8198
 30
0.0
 11
256.019
 21
87.9203
 31
0.0
  0
LINE
  8
0
 62
     0
 10
256.019
 20
87.9203
 30
0.0
 11
255.218
 21
87.9203
 31
0.0
  0
LINE
  8
0
 62
     0
 10
255.218
 20
87.9203
 30
0.0
 11
255.218
 21
93.7189
 31
0.0
  0
LINE
  8
0
 62
     0
 10
255.218
 20
93.7189
 30
0.0
 11
256.019
 21
93.7189
 31
0.0
  0
LINE
  8
0
 62
     0
 10
256.019
 20
93.7189
 30
0.0
 11
256.019
 21
96.8195
 31
0.0
  0
LINE
  8
0
 62
     0
 10
256.019
 20
96.8195
 30
0.0
 11
255.218
 21
96.8195
 31
0.0
  0
LINE
  8
0
 62
     0
 10
255.218
 20
96.8195
 30
0.0
 11
255.218
 21
97.82
 31
0.0
  0
LINE
  8
0
 62
     0
 10
255.218
 20
97.82
 30
0.0
 11
241.219
 21
97.82
 31
0.0
  0
ENDSEC
  0
EOF
