  0
SECTION
  2
HEADER
  9
$ACADVER
  1
AC1009
  9
$EXTMIN
 10
0.0
 20
0.0
 30
0.0
  9
$EXTMAX
 10
1000.0
 20
1000.0
 30
0.0
  9
$FILLMODE
 70
 0
  9
$SPLFRAME
 70
 1
  0
ENDSEC
  0
SECTION
  2
TABLES
  0
TABLE
  2
LAYER
 70
1
  0
LAYER
  2
0
 70
     0
 62
     7
  6
CONTINUOUS
  0
ENDTAB
  0
ENDSEC
  0
SECTION
  2
ENTITIES
  0
LINE
  8
0
 62
     0
 10
303.846
 20
115.342
 30
0.0
 11
304.002
 21
115.336
 31
0.0
  0
LINE
  8
0
 62
     0
 10
304.002
 20
115.336
 30
0.0
 11
304.158
 21
115.318
 31
0.0
  0
LINE
  8
0
 62
     0
 10
304.158
 20
115.318
 30
0.0
 11
304.312
 21
115.287
 31
0.0
  0
LINE
  8
0
 62
     0
 10
304.312
 20
115.287
 30
0.0
 11
304.464
 21
115.245
 31
0.0
  0
LINE
  8
0
 62
     0
 10
304.464
 20
115.245
 30
0.0
 11
304.611
 21
115.191
 31
0.0
  0
LINE
  8
0
 62
     0
 10
304.611
 20
115.191
 30
0.0
 11
304.753
 21
115.125
 31
0.0
  0
LINE
  8
0
 62
     0
 10
304.753
 20
115.125
 30
0.0
 11
304.89
 21
115.048
 31
0.0
  0
LINE
  8
0
 62
     0
 10
304.89
 20
115.048
 30
0.0
 11
305.02
 21
114.961
 31
0.0
  0
LINE
  8
0
 62
     0
 10
305.02
 20
114.961
 30
0.0
 11
305.143
 21
114.864
 31
0.0
  0
LINE
  8
0
 62
     0
 10
305.143
 20
114.864
 30
0.0
 11
305.26
 21
114.758
 31
0.0
  0
LINE
  8
0
 62
     0
 10
305.26
 20
114.758
 30
0.0
 11
305.366
 21
114.642
 31
0.0
  0
LINE
  8
0
 62
     0
 10
305.366
 20
114.642
 30
0.0
 11
305.464
 21
114.519
 31
0.0
  0
LINE
  8
0
 62
     0
 10
305.464
 20
114.519
 30
0.0
 11
305.551
 21
114.387
 31
0.0
  0
LINE
  8
0
 62
     0
 10
305.551
 20
114.387
 30
0.0
 11
305.628
 21
114.252
 31
0.0
  0
LINE
  8
0
 62
     0
 10
305.628
 20
114.252
 30
0.0
 11
305.693
 21
114.108
 31
0.0
  0
LINE
  8
0
 62
     0
 10
305.693
 20
114.108
 30
0.0
 11
305.748
 21
113.961
 31
0.0
  0
LINE
  8
0
 62
     0
 10
305.748
 20
113.961
 30
0.0
 11
305.79
 21
113.811
 31
0.0
  0
LINE
  8
0
 62
     0
 10
305.79
 20
113.811
 30
0.0
 11
305.821
 21
113.655
 31
0.0
  0
LINE
  8
0
 62
     0
 10
305.821
 20
113.655
 30
0.0
 11
305.839
 21
113.499
 31
0.0
  0
LINE
  8
0
 62
     0
 10
305.839
 20
113.499
 30
0.0
 11
305.846
 21
113.342
 31
0.0
  0
LINE
  8
0
 62
     0
 10
305.846
 20
113.342
 30
0.0
 11
305.846
 21
2.09186
 31
0.0
  0
LINE
  8
0
 62
     0
 10
305.846
 20
2.09186
 30
0.0
 11
305.839
 21
1.93614
 31
0.0
  0
LINE
  8
0
 62
     0
 10
305.839
 20
1.93614
 30
0.0
 11
305.821
 21
1.77905
 31
0.0
  0
LINE
  8
0
 62
     0
 10
305.821
 20
1.77905
 30
0.0
 11
305.79
 21
1.62471
 31
0.0
  0
LINE
  8
0
 62
     0
 10
305.79
 20
1.62471
 30
0.0
 11
305.748
 21
1.47312
 31
0.0
  0
LINE
  8
0
 62
     0
 10
305.748
 20
1.47312
 30
0.0
 11
305.693
 21
1.32567
 31
0.0
  0
LINE
  8
0
 62
     0
 10
305.693
 20
1.32567
 30
0.0
 11
305.628
 21
1.18374
 31
0.0
  0
LINE
  8
0
 62
     0
 10
305.628
 20
1.18374
 30
0.0
 11
305.551
 21
1.04731
 31
0.0
  0
LINE
  8
0
 62
     0
 10
305.551
 20
1.04731
 30
0.0
 11
305.464
 21
0.916397
 31
0.0
  0
LINE
  8
0
 62
     0
 10
305.464
 20
0.916397
 30
0.0
 11
305.366
 21
0.79375
 31
0.0
  0
LINE
  8
0
 62
     0
 10
305.366
 20
0.79375
 30
0.0
 11
305.26
 21
0.676617
 31
0.0
  0
LINE
  8
0
 62
     0
 10
305.26
 20
0.676617
 30
0.0
 11
305.143
 21
0.571885
 31
0.0
  0
LINE
  8
0
 62
     0
 10
305.143
 20
0.571885
 30
0.0
 11
305.02
 21
0.472666
 31
0.0
  0
LINE
  8
0
 62
     0
 10
305.02
 20
0.472666
 30
0.0
 11
304.89
 21
0.385851
 31
0.0
  0
LINE
  8
0
 62
     0
 10
304.89
 20
0.385851
 30
0.0
 11
304.753
 21
0.308681
 31
0.0
  0
LINE
  8
0
 62
     0
 10
304.753
 20
0.308681
 30
0.0
 11
304.611
 21
0.245291
 31
0.0
  0
LINE
  8
0
 62
     0
 10
304.611
 20
0.245291
 30
0.0
 11
304.464
 21
0.188791
 31
0.0
  0
LINE
  8
0
 62
     0
 10
304.464
 20
0.188791
 30
0.0
 11
304.312
 21
0.14745
 31
0.0
  0
LINE
  8
0
 62
     0
 10
304.312
 20
0.14745
 30
0.0
 11
304.158
 21
0.115755
 31
0.0
  0
LINE
  8
0
 62
     0
 10
304.158
 20
0.115755
 30
0.0
 11
304.002
 21
0.0992188
 31
0.0
  0
LINE
  8
0
 62
     0
 10
304.002
 20
0.0992188
 30
0.0
 11
303.846
 21
0.0923286
 31
0.0
  0
LINE
  8
0
 62
     0
 10
303.846
 20
0.0923286
 30
0.0
 11
2.09462
 21
0.0923286
 31
0.0
  0
LINE
  8
0
 62
     0
 10
2.09462
 20
0.0923286
 30
0.0
 11
1.93752
 21
0.0992188
 31
0.0
  0
LINE
  8
0
 62
     0
 10
1.93752
 20
0.0992188
 30
0.0
 11
1.7818
 21
0.115755
 31
0.0
  0
LINE
  8
0
 62
     0
 10
1.7818
 20
0.115755
 30
0.0
 11
1.62746
 21
0.14745
 31
0.0
  0
LINE
  8
0
 62
     0
 10
1.62746
 20
0.14745
 30
0.0
 11
1.47588
 21
0.188791
 31
0.0
  0
LINE
  8
0
 62
     0
 10
1.47588
 20
0.188791
 30
0.0
 11
1.32843
 21
0.245291
 31
0.0
  0
LINE
  8
0
 62
     0
 10
1.32843
 20
0.245291
 30
0.0
 11
1.18649
 21
0.308681
 31
0.0
  0
LINE
  8
0
 62
     0
 10
1.18649
 20
0.308681
 30
0.0
 11
1.05006
 21
0.385851
 31
0.0
  0
LINE
  8
0
 62
     0
 10
1.05006
 20
0.385851
 30
0.0
 11
0.919152
 21
0.472666
 31
0.0
  0
LINE
  8
0
 62
     0
 10
0.919152
 20
0.472666
 30
0.0
 11
0.795129
 21
0.571885
 31
0.0
  0
LINE
  8
0
 62
     0
 10
0.795129
 20
0.571885
 30
0.0
 11
0.679372
 21
0.676617
 31
0.0
  0
LINE
  8
0
 62
     0
 10
0.679372
 20
0.676617
 30
0.0
 11
0.573264
 21
0.79375
 31
0.0
  0
LINE
  8
0
 62
     0
 10
0.573264
 20
0.79375
 30
0.0
 11
0.475424
 21
0.916397
 31
0.0
  0
LINE
  8
0
 62
     0
 10
0.475424
 20
0.916397
 30
0.0
 11
0.388606
 21
1.04731
 31
0.0
  0
LINE
  8
0
 62
     0
 10
0.388606
 20
1.04731
 30
0.0
 11
0.311437
 21
1.18374
 31
0.0
  0
LINE
  8
0
 62
     0
 10
0.311437
 20
1.18374
 30
0.0
 11
0.246669
 21
1.32567
 31
0.0
  0
LINE
  8
0
 62
     0
 10
0.246669
 20
1.32567
 30
0.0
 11
0.191547
 21
1.47312
 31
0.0
  0
LINE
  8
0
 62
     0
 10
0.191547
 20
1.47312
 30
0.0
 11
0.150206
 21
1.62471
 31
0.0
  0
LINE
  8
0
 62
     0
 10
0.150206
 20
1.62471
 30
0.0
 11
0.118511
 21
1.77905
 31
0.0
  0
LINE
  8
0
 62
     0
 10
0.118511
 20
1.77905
 30
0.0
 11
0.100597
 21
1.93614
 31
0.0
  0
LINE
  8
0
 62
     0
 10
0.100597
 20
1.93614
 30
0.0
 11
0.0937066
 21
2.09048
 31
0.0
  0
LINE
  8
0
 62
     0
 10
0.0937066
 20
2.09048
 30
0.0
 11
0.0950846
 21
113.342
 31
0.0
  0
LINE
  8
0
 62
     0
 10
0.0950846
 20
113.342
 30
0.0
 11
0.100597
 21
113.499
 31
0.0
  0
LINE
  8
0
 62
     0
 10
0.100597
 20
113.499
 30
0.0
 11
0.118511
 21
113.655
 31
0.0
  0
LINE
  8
0
 62
     0
 10
0.118511
 20
113.655
 30
0.0
 11
0.150206
 21
113.811
 31
0.0
  0
LINE
  8
0
 62
     0
 10
0.150206
 20
113.811
 30
0.0
 11
0.191547
 21
113.961
 31
0.0
  0
LINE
  8
0
 62
     0
 10
0.191547
 20
113.961
 30
0.0
 11
0.246669
 21
114.108
 31
0.0
  0
LINE
  8
0
 62
     0
 10
0.246669
 20
114.108
 30
0.0
 11
0.311437
 21
114.252
 31
0.0
  0
LINE
  8
0
 62
     0
 10
0.311437
 20
114.252
 30
0.0
 11
0.388606
 21
114.387
 31
0.0
  0
LINE
  8
0
 62
     0
 10
0.388606
 20
114.387
 30
0.0
 11
0.475424
 21
114.519
 31
0.0
  0
LINE
  8
0
 62
     0
 10
0.475424
 20
114.519
 30
0.0
 11
0.573264
 21
114.642
 31
0.0
  0
LINE
  8
0
 62
     0
 10
0.573264
 20
114.642
 30
0.0
 11
0.679372
 21
114.758
 31
0.0
  0
LINE
  8
0
 62
     0
 10
0.679372
 20
114.758
 30
0.0
 11
0.795129
 21
114.864
 31
0.0
  0
LINE
  8
0
 62
     0
 10
0.795129
 20
114.864
 30
0.0
 11
0.919152
 21
114.961
 31
0.0
  0
LINE
  8
0
 62
     0
 10
0.919152
 20
114.961
 30
0.0
 11
1.05006
 21
115.048
 31
0.0
  0
LINE
  8
0
 62
     0
 10
1.05006
 20
115.048
 30
0.0
 11
1.18649
 21
115.125
 31
0.0
  0
LINE
  8
0
 62
     0
 10
1.18649
 20
115.125
 30
0.0
 11
1.32843
 21
115.191
 31
0.0
  0
LINE
  8
0
 62
     0
 10
1.32843
 20
115.191
 30
0.0
 11
1.47588
 21
115.245
 31
0.0
  0
LINE
  8
0
 62
     0
 10
1.47588
 20
115.245
 30
0.0
 11
1.62746
 21
115.287
 31
0.0
  0
LINE
  8
0
 62
     0
 10
1.62746
 20
115.287
 30
0.0
 11
1.7818
 21
115.318
 31
0.0
  0
LINE
  8
0
 62
     0
 10
1.7818
 20
115.318
 30
0.0
 11
1.93752
 21
115.336
 31
0.0
  0
LINE
  8
0
 62
     0
 10
1.93752
 20
115.336
 30
0.0
 11
2.09462
 21
115.343
 31
0.0
  0
LINE
  8
0
 62
     0
 10
2.09462
 20
115.343
 30
0.0
 11
303.846
 21
115.342
 31
0.0
  0
LINE
  8
0
 62
     0
 10
303.036
 20
3.54295
 30
0.0
 11
302.758
 21
3.401
 31
0.0
  0
LINE
  8
0
 62
     0
 10
302.758
 20
3.401
 30
0.0
 11
302.536
 21
3.17913
 31
0.0
  0
LINE
  8
0
 62
     0
 10
302.536
 20
3.17913
 30
0.0
 11
302.394
 21
2.90077
 31
0.0
  0
LINE
  8
0
 62
     0
 10
302.394
 20
2.90077
 30
0.0
 11
302.346
 21
2.59209
 31
0.0
  0
LINE
  8
0
 62
     0
 10
302.346
 20
2.59209
 30
0.0
 11
302.394
 21
2.28203
 31
0.0
  0
LINE
  8
0
 62
     0
 10
302.394
 20
2.28203
 30
0.0
 11
302.536
 21
2.00367
 31
0.0
  0
LINE
  8
0
 62
     0
 10
302.536
 20
2.00367
 30
0.0
 11
302.758
 21
1.7818
 31
0.0
  0
LINE
  8
0
 62
     0
 10
302.758
 20
1.7818
 30
0.0
 11
303.036
 21
1.63987
 31
0.0
  0
LINE
  8
0
 62
     0
 10
303.036
 20
1.63987
 30
0.0
 11
303.346
 21
1.59163
 31
0.0
  0
LINE
  8
0
 62
     0
 10
303.346
 20
1.59163
 30
0.0
 11
303.655
 21
1.63987
 31
0.0
  0
LINE
  8
0
 62
     0
 10
303.655
 20
1.63987
 30
0.0
 11
303.933
 21
1.7818
 31
0.0
  0
LINE
  8
0
 62
     0
 10
303.933
 20
1.7818
 30
0.0
 11
304.155
 21
2.00367
 31
0.0
  0
LINE
  8
0
 62
     0
 10
304.155
 20
2.00367
 30
0.0
 11
304.297
 21
2.28203
 31
0.0
  0
LINE
  8
0
 62
     0
 10
304.297
 20
2.28203
 30
0.0
 11
304.345
 21
2.59209
 31
0.0
  0
LINE
  8
0
 62
     0
 10
304.345
 20
2.59209
 30
0.0
 11
304.297
 21
2.90077
 31
0.0
  0
LINE
  8
0
 62
     0
 10
304.297
 20
2.90077
 30
0.0
 11
304.155
 21
3.17913
 31
0.0
  0
LINE
  8
0
 62
     0
 10
304.155
 20
3.17913
 30
0.0
 11
303.933
 21
3.401
 31
0.0
  0
LINE
  8
0
 62
     0
 10
303.933
 20
3.401
 30
0.0
 11
303.655
 21
3.54295
 31
0.0
  0
LINE
  8
0
 62
     0
 10
303.655
 20
3.54295
 30
0.0
 11
303.346
 21
3.59255
 31
0.0
  0
LINE
  8
0
 62
     0
 10
303.346
 20
3.59255
 30
0.0
 11
303.036
 21
3.54295
 31
0.0
  0
LINE
  8
0
 62
     0
 10
227.849
 20
3.54295
 30
0.0
 11
227.569
 21
3.401
 31
0.0
  0
LINE
  8
0
 62
     0
 10
227.569
 20
3.401
 30
0.0
 11
227.349
 21
3.17913
 31
0.0
  0
LINE
  8
0
 62
     0
 10
227.349
 20
3.17913
 30
0.0
 11
227.207
 21
2.90077
 31
0.0
  0
LINE
  8
0
 62
     0
 10
227.207
 20
2.90077
 30
0.0
 11
227.157
 21
2.59209
 31
0.0
  0
LINE
  8
0
 62
     0
 10
227.157
 20
2.59209
 30
0.0
 11
227.207
 21
2.28203
 31
0.0
  0
LINE
  8
0
 62
     0
 10
227.207
 20
2.28203
 30
0.0
 11
227.349
 21
2.00367
 31
0.0
  0
LINE
  8
0
 62
     0
 10
227.349
 20
2.00367
 30
0.0
 11
227.569
 21
1.7818
 31
0.0
  0
LINE
  8
0
 62
     0
 10
227.569
 20
1.7818
 30
0.0
 11
227.849
 21
1.63987
 31
0.0
  0
LINE
  8
0
 62
     0
 10
227.849
 20
1.63987
 30
0.0
 11
228.158
 21
1.59163
 31
0.0
  0
LINE
  8
0
 62
     0
 10
228.158
 20
1.59163
 30
0.0
 11
228.466
 21
1.63987
 31
0.0
  0
LINE
  8
0
 62
     0
 10
228.466
 20
1.63987
 30
0.0
 11
228.746
 21
1.7818
 31
0.0
  0
LINE
  8
0
 62
     0
 10
228.746
 20
1.7818
 30
0.0
 11
228.967
 21
2.00367
 31
0.0
  0
LINE
  8
0
 62
     0
 10
228.967
 20
2.00367
 30
0.0
 11
229.108
 21
2.28203
 31
0.0
  0
LINE
  8
0
 62
     0
 10
229.108
 20
2.28203
 30
0.0
 11
229.158
 21
2.59209
 31
0.0
  0
LINE
  8
0
 62
     0
 10
229.158
 20
2.59209
 30
0.0
 11
229.108
 21
2.90077
 31
0.0
  0
LINE
  8
0
 62
     0
 10
229.108
 20
2.90077
 30
0.0
 11
228.967
 21
3.17913
 31
0.0
  0
LINE
  8
0
 62
     0
 10
228.967
 20
3.17913
 30
0.0
 11
228.746
 21
3.401
 31
0.0
  0
LINE
  8
0
 62
     0
 10
228.746
 20
3.401
 30
0.0
 11
228.466
 21
3.54295
 31
0.0
  0
LINE
  8
0
 62
     0
 10
228.466
 20
3.54295
 30
0.0
 11
228.158
 21
3.59255
 31
0.0
  0
LINE
  8
0
 62
     0
 10
228.158
 20
3.59255
 30
0.0
 11
227.849
 21
3.54295
 31
0.0
  0
LINE
  8
0
 62
     0
 10
152.66
 20
3.54295
 30
0.0
 11
152.382
 21
3.401
 31
0.0
  0
LINE
  8
0
 62
     0
 10
152.382
 20
3.401
 30
0.0
 11
152.16
 21
3.17913
 31
0.0
  0
LINE
  8
0
 62
     0
 10
152.16
 20
3.17913
 30
0.0
 11
152.018
 21
2.90077
 31
0.0
  0
LINE
  8
0
 62
     0
 10
152.018
 20
2.90077
 30
0.0
 11
151.97
 21
2.59209
 31
0.0
  0
LINE
  8
0
 62
     0
 10
151.97
 20
2.59209
 30
0.0
 11
152.018
 21
2.28203
 31
0.0
  0
LINE
  8
0
 62
     0
 10
152.018
 20
2.28203
 30
0.0
 11
152.16
 21
2.00367
 31
0.0
  0
LINE
  8
0
 62
     0
 10
152.16
 20
2.00367
 30
0.0
 11
152.382
 21
1.7818
 31
0.0
  0
LINE
  8
0
 62
     0
 10
152.382
 20
1.7818
 30
0.0
 11
152.66
 21
1.63987
 31
0.0
  0
LINE
  8
0
 62
     0
 10
152.66
 20
1.63987
 30
0.0
 11
152.969
 21
1.59163
 31
0.0
  0
LINE
  8
0
 62
     0
 10
152.969
 20
1.59163
 30
0.0
 11
153.279
 21
1.63987
 31
0.0
  0
LINE
  8
0
 62
     0
 10
153.279
 20
1.63987
 30
0.0
 11
153.557
 21
1.7818
 31
0.0
  0
LINE
  8
0
 62
     0
 10
153.557
 20
1.7818
 30
0.0
 11
153.779
 21
2.00367
 31
0.0
  0
LINE
  8
0
 62
     0
 10
153.779
 20
2.00367
 30
0.0
 11
153.922
 21
2.28203
 31
0.0
  0
LINE
  8
0
 62
     0
 10
153.922
 20
2.28203
 30
0.0
 11
153.97
 21
2.59209
 31
0.0
  0
LINE
  8
0
 62
     0
 10
153.97
 20
2.59209
 30
0.0
 11
153.922
 21
2.90077
 31
0.0
  0
LINE
  8
0
 62
     0
 10
153.922
 20
2.90077
 30
0.0
 11
153.779
 21
3.17913
 31
0.0
  0
LINE
  8
0
 62
     0
 10
153.779
 20
3.17913
 30
0.0
 11
153.557
 21
3.401
 31
0.0
  0
LINE
  8
0
 62
     0
 10
153.557
 20
3.401
 30
0.0
 11
153.279
 21
3.54295
 31
0.0
  0
LINE
  8
0
 62
     0
 10
153.279
 20
3.54295
 30
0.0
 11
152.969
 21
3.59255
 31
0.0
  0
LINE
  8
0
 62
     0
 10
152.969
 20
3.59255
 30
0.0
 11
152.66
 21
3.54295
 31
0.0
  0
LINE
  8
0
 62
     0
 10
77.4732
 20
3.54295
 30
0.0
 11
77.1934
 21
3.401
 31
0.0
  0
LINE
  8
0
 62
     0
 10
77.1934
 20
3.401
 30
0.0
 11
76.9729
 21
3.17913
 31
0.0
  0
LINE
  8
0
 62
     0
 10
76.9729
 20
3.17913
 30
0.0
 11
76.8311
 21
2.90077
 31
0.0
  0
LINE
  8
0
 62
     0
 10
76.8311
 20
2.90077
 30
0.0
 11
76.7814
 21
2.59209
 31
0.0
  0
LINE
  8
0
 62
     0
 10
76.7814
 20
2.59209
 30
0.0
 11
76.8311
 21
2.28203
 31
0.0
  0
LINE
  8
0
 62
     0
 10
76.8311
 20
2.28203
 30
0.0
 11
76.9729
 21
2.00367
 31
0.0
  0
LINE
  8
0
 62
     0
 10
76.9729
 20
2.00367
 30
0.0
 11
77.1934
 21
1.7818
 31
0.0
  0
LINE
  8
0
 62
     0
 10
77.1934
 20
1.7818
 30
0.0
 11
77.4732
 21
1.63987
 31
0.0
  0
LINE
  8
0
 62
     0
 10
77.4732
 20
1.63987
 30
0.0
 11
77.7819
 21
1.59163
 31
0.0
  0
LINE
  8
0
 62
     0
 10
77.7819
 20
1.59163
 30
0.0
 11
78.0905
 21
1.63987
 31
0.0
  0
LINE
  8
0
 62
     0
 10
78.0905
 20
1.63987
 30
0.0
 11
78.3703
 21
1.7818
 31
0.0
  0
LINE
  8
0
 62
     0
 10
78.3703
 20
1.7818
 30
0.0
 11
78.5908
 21
2.00367
 31
0.0
  0
LINE
  8
0
 62
     0
 10
78.5908
 20
2.00367
 30
0.0
 11
78.7329
 21
2.28203
 31
0.0
  0
LINE
  8
0
 62
     0
 10
78.7329
 20
2.28203
 30
0.0
 11
78.7809
 21
2.59209
 31
0.0
  0
LINE
  8
0
 62
     0
 10
78.7809
 20
2.59209
 30
0.0
 11
78.7329
 21
2.90077
 31
0.0
  0
LINE
  8
0
 62
     0
 10
78.7329
 20
2.90077
 30
0.0
 11
78.5908
 21
3.17913
 31
0.0
  0
LINE
  8
0
 62
     0
 10
78.5908
 20
3.17913
 30
0.0
 11
78.3703
 21
3.401
 31
0.0
  0
LINE
  8
0
 62
     0
 10
78.3703
 20
3.401
 30
0.0
 11
78.0905
 21
3.54295
 31
0.0
  0
LINE
  8
0
 62
     0
 10
78.0905
 20
3.54295
 30
0.0
 11
77.7819
 21
3.59255
 31
0.0
  0
LINE
  8
0
 62
     0
 10
77.7819
 20
3.59255
 30
0.0
 11
77.4732
 21
3.54295
 31
0.0
  0
LINE
  8
0
 62
     0
 10
2.28479
 20
3.54295
 30
0.0
 11
2.00642
 21
3.401
 31
0.0
  0
LINE
  8
0
 62
     0
 10
2.00642
 20
3.401
 30
0.0
 11
1.78456
 21
3.17913
 31
0.0
  0
LINE
  8
0
 62
     0
 10
1.78456
 20
3.17913
 30
0.0
 11
1.64262
 21
2.90077
 31
0.0
  0
LINE
  8
0
 62
     0
 10
1.64262
 20
2.90077
 30
0.0
 11
1.59439
 21
2.59209
 31
0.0
  0
LINE
  8
0
 62
     0
 10
1.59439
 20
2.59209
 30
0.0
 11
1.64262
 21
2.28203
 31
0.0
  0
LINE
  8
0
 62
     0
 10
1.64262
 20
2.28203
 30
0.0
 11
1.78456
 21
2.00367
 31
0.0
  0
LINE
  8
0
 62
     0
 10
1.78456
 20
2.00367
 30
0.0
 11
2.00642
 21
1.7818
 31
0.0
  0
LINE
  8
0
 62
     0
 10
2.00642
 20
1.7818
 30
0.0
 11
2.28479
 21
1.63987
 31
0.0
  0
LINE
  8
0
 62
     0
 10
2.28479
 20
1.63987
 30
0.0
 11
2.59347
 21
1.59163
 31
0.0
  0
LINE
  8
0
 62
     0
 10
2.59347
 20
1.59163
 30
0.0
 11
2.90353
 21
1.63987
 31
0.0
  0
LINE
  8
0
 62
     0
 10
2.90353
 20
1.63987
 30
0.0
 11
3.18189
 21
1.7818
 31
0.0
  0
LINE
  8
0
 62
     0
 10
3.18189
 20
1.7818
 30
0.0
 11
3.40376
 21
2.00367
 31
0.0
  0
LINE
  8
0
 62
     0
 10
3.40376
 20
2.00367
 30
0.0
 11
3.5457
 21
2.28203
 31
0.0
  0
LINE
  8
0
 62
     0
 10
3.5457
 20
2.28203
 30
0.0
 11
3.5953
 21
2.59209
 31
0.0
  0
LINE
  8
0
 62
     0
 10
3.5953
 20
2.59209
 30
0.0
 11
3.5457
 21
2.90077
 31
0.0
  0
LINE
  8
0
 62
     0
 10
3.5457
 20
2.90077
 30
0.0
 11
3.40376
 21
3.17913
 31
0.0
  0
LINE
  8
0
 62
     0
 10
3.40376
 20
3.17913
 30
0.0
 11
3.18189
 21
3.401
 31
0.0
  0
LINE
  8
0
 62
     0
 10
3.18189
 20
3.401
 30
0.0
 11
2.90353
 21
3.54295
 31
0.0
  0
LINE
  8
0
 62
     0
 10
2.90353
 20
3.54295
 30
0.0
 11
2.59485
 21
3.59255
 31
0.0
  0
LINE
  8
0
 62
     0
 10
2.59485
 20
3.59255
 30
0.0
 11
2.28479
 21
3.54295
 31
0.0
  0
LINE
  8
0
 62
     0
 10
5.0946
 20
110.344
 30
0.0
 11
300.846
 21
110.344
 31
0.0
  0
LINE
  8
0
 62
     0
 10
300.846
 20
110.344
 30
0.0
 11
300.846
 21
5.09185
 31
0.0
  0
LINE
  8
0
 62
     0
 10
300.846
 20
5.09185
 30
0.0
 11
5.0946
 21
5.09185
 31
0.0
  0
LINE
  8
0
 62
     0
 10
5.0946
 20
5.09185
 30
0.0
 11
5.0946
 21
110.344
 31
0.0
  0
LINE
  8
0
 62
     0
 10
303.036
 20
58.6687
 30
0.0
 11
302.758
 21
58.528
 31
0.0
  0
LINE
  8
0
 62
     0
 10
302.758
 20
58.528
 30
0.0
 11
302.536
 21
58.3046
 31
0.0
  0
LINE
  8
0
 62
     0
 10
302.536
 20
58.3046
 30
0.0
 11
302.394
 21
58.0277
 31
0.0
  0
LINE
  8
0
 62
     0
 10
302.394
 20
58.0277
 30
0.0
 11
302.346
 21
57.719
 31
0.0
  0
LINE
  8
0
 62
     0
 10
302.346
 20
57.719
 30
0.0
 11
302.394
 21
57.4075
 31
0.0
  0
LINE
  8
0
 62
     0
 10
302.394
 20
57.4075
 30
0.0
 11
302.536
 21
57.1306
 31
0.0
  0
LINE
  8
0
 62
     0
 10
302.536
 20
57.1306
 30
0.0
 11
302.758
 21
56.9076
 31
0.0
  0
LINE
  8
0
 62
     0
 10
302.758
 20
56.9076
 30
0.0
 11
303.036
 21
56.7655
 31
0.0
  0
LINE
  8
0
 62
     0
 10
303.036
 20
56.7655
 30
0.0
 11
303.346
 21
56.7171
 31
0.0
  0
LINE
  8
0
 62
     0
 10
303.346
 20
56.7171
 30
0.0
 11
303.655
 21
56.7655
 31
0.0
  0
LINE
  8
0
 62
     0
 10
303.655
 20
56.7655
 30
0.0
 11
303.933
 21
56.9076
 31
0.0
  0
LINE
  8
0
 62
     0
 10
303.933
 20
56.9076
 30
0.0
 11
304.155
 21
57.1306
 31
0.0
  0
LINE
  8
0
 62
     0
 10
304.155
 20
57.1306
 30
0.0
 11
304.297
 21
57.4075
 31
0.0
  0
LINE
  8
0
 62
     0
 10
304.297
 20
57.4075
 30
0.0
 11
304.345
 21
57.719
 31
0.0
  0
LINE
  8
0
 62
     0
 10
304.345
 20
57.719
 30
0.0
 11
304.297
 21
58.0277
 31
0.0
  0
LINE
  8
0
 62
     0
 10
304.297
 20
58.0277
 30
0.0
 11
304.155
 21
58.3046
 31
0.0
  0
LINE
  8
0
 62
     0
 10
304.155
 20
58.3046
 30
0.0
 11
303.933
 21
58.528
 31
0.0
  0
LINE
  8
0
 62
     0
 10
303.933
 20
58.528
 30
0.0
 11
303.655
 21
58.6687
 31
0.0
  0
LINE
  8
0
 62
     0
 10
303.655
 20
58.6687
 30
0.0
 11
303.346
 21
58.7181
 31
0.0
  0
LINE
  8
0
 62
     0
 10
303.346
 20
58.7181
 30
0.0
 11
303.036
 21
58.6687
 31
0.0
  0
LINE
  8
0
 62
     0
 10
2.28479
 20
58.6687
 30
0.0
 11
2.00642
 21
58.528
 31
0.0
  0
LINE
  8
0
 62
     0
 10
2.00642
 20
58.528
 30
0.0
 11
1.78456
 21
58.3046
 31
0.0
  0
LINE
  8
0
 62
     0
 10
1.78456
 20
58.3046
 30
0.0
 11
1.64262
 21
58.0277
 31
0.0
  0
LINE
  8
0
 62
     0
 10
1.64262
 20
58.0277
 30
0.0
 11
1.59439
 21
57.719
 31
0.0
  0
LINE
  8
0
 62
     0
 10
1.59439
 20
57.719
 30
0.0
 11
1.64262
 21
57.4075
 31
0.0
  0
LINE
  8
0
 62
     0
 10
1.64262
 20
57.4075
 30
0.0
 11
1.78456
 21
57.1306
 31
0.0
  0
LINE
  8
0
 62
     0
 10
1.78456
 20
57.1306
 30
0.0
 11
2.00642
 21
56.9076
 31
0.0
  0
LINE
  8
0
 62
     0
 10
2.00642
 20
56.9076
 30
0.0
 11
2.28479
 21
56.7655
 31
0.0
  0
LINE
  8
0
 62
     0
 10
2.28479
 20
56.7655
 30
0.0
 11
2.59347
 21
56.7171
 31
0.0
  0
LINE
  8
0
 62
     0
 10
2.59347
 20
56.7171
 30
0.0
 11
2.90353
 21
56.7655
 31
0.0
  0
LINE
  8
0
 62
     0
 10
2.90353
 20
56.7655
 30
0.0
 11
3.18189
 21
56.9076
 31
0.0
  0
LINE
  8
0
 62
     0
 10
3.18189
 20
56.9076
 30
0.0
 11
3.40376
 21
57.1306
 31
0.0
  0
LINE
  8
0
 62
     0
 10
3.40376
 20
57.1306
 30
0.0
 11
3.5457
 21
57.4075
 31
0.0
  0
LINE
  8
0
 62
     0
 10
3.5457
 20
57.4075
 30
0.0
 11
3.5953
 21
57.719
 31
0.0
  0
LINE
  8
0
 62
     0
 10
3.5953
 20
57.719
 30
0.0
 11
3.5457
 21
58.0277
 31
0.0
  0
LINE
  8
0
 62
     0
 10
3.5457
 20
58.0277
 30
0.0
 11
3.40376
 21
58.3046
 31
0.0
  0
LINE
  8
0
 62
     0
 10
3.40376
 20
58.3046
 30
0.0
 11
3.18189
 21
58.528
 31
0.0
  0
LINE
  8
0
 62
     0
 10
3.18189
 20
58.528
 30
0.0
 11
2.90353
 21
58.6687
 31
0.0
  0
LINE
  8
0
 62
     0
 10
2.90353
 20
58.6687
 30
0.0
 11
2.59485
 21
58.7181
 31
0.0
  0
LINE
  8
0
 62
     0
 10
2.59485
 20
58.7181
 30
0.0
 11
2.28479
 21
58.6687
 31
0.0
  0
LINE
  8
0
 62
     0
 10
77.4732
 20
113.796
 30
0.0
 11
77.1934
 21
113.652
 31
0.0
  0
LINE
  8
0
 62
     0
 10
77.1934
 20
113.652
 30
0.0
 11
76.9729
 21
113.43
 31
0.0
  0
LINE
  8
0
 62
     0
 10
76.9729
 20
113.43
 30
0.0
 11
76.8311
 21
113.152
 31
0.0
  0
LINE
  8
0
 62
     0
 10
76.8311
 20
113.152
 30
0.0
 11
76.7814
 21
112.843
 31
0.0
  0
LINE
  8
0
 62
     0
 10
76.7814
 20
112.843
 30
0.0
 11
76.8311
 21
112.535
 31
0.0
  0
LINE
  8
0
 62
     0
 10
76.8311
 20
112.535
 30
0.0
 11
76.9729
 21
112.255
 31
0.0
  0
LINE
  8
0
 62
     0
 10
76.9729
 20
112.255
 30
0.0
 11
77.1934
 21
112.034
 31
0.0
  0
LINE
  8
0
 62
     0
 10
77.1934
 20
112.034
 30
0.0
 11
77.4732
 21
111.891
 31
0.0
  0
LINE
  8
0
 62
     0
 10
77.4732
 20
111.891
 30
0.0
 11
77.7819
 21
111.843
 31
0.0
  0
LINE
  8
0
 62
     0
 10
77.7819
 20
111.843
 30
0.0
 11
78.0905
 21
111.891
 31
0.0
  0
LINE
  8
0
 62
     0
 10
78.0905
 20
111.891
 30
0.0
 11
78.3703
 21
112.034
 31
0.0
  0
LINE
  8
0
 62
     0
 10
78.3703
 20
112.034
 30
0.0
 11
78.5908
 21
112.255
 31
0.0
  0
LINE
  8
0
 62
     0
 10
78.5908
 20
112.255
 30
0.0
 11
78.7329
 21
112.535
 31
0.0
  0
LINE
  8
0
 62
     0
 10
78.7329
 20
112.535
 30
0.0
 11
78.7809
 21
112.843
 31
0.0
  0
LINE
  8
0
 62
     0
 10
78.7809
 20
112.843
 30
0.0
 11
78.7329
 21
113.152
 31
0.0
  0
LINE
  8
0
 62
     0
 10
78.7329
 20
113.152
 30
0.0
 11
78.5908
 21
113.43
 31
0.0
  0
LINE
  8
0
 62
     0
 10
78.5908
 20
113.43
 30
0.0
 11
78.3703
 21
113.652
 31
0.0
  0
LINE
  8
0
 62
     0
 10
78.3703
 20
113.652
 30
0.0
 11
78.0905
 21
113.796
 31
0.0
  0
LINE
  8
0
 62
     0
 10
78.0905
 20
113.796
 30
0.0
 11
77.7819
 21
113.842
 31
0.0
  0
LINE
  8
0
 62
     0
 10
77.7819
 20
113.842
 30
0.0
 11
77.4732
 21
113.796
 31
0.0
  0
LINE
  8
0
 62
     0
 10
152.66
 20
113.796
 30
0.0
 11
152.382
 21
113.652
 31
0.0
  0
LINE
  8
0
 62
     0
 10
152.382
 20
113.652
 30
0.0
 11
152.16
 21
113.43
 31
0.0
  0
LINE
  8
0
 62
     0
 10
152.16
 20
113.43
 30
0.0
 11
152.018
 21
113.152
 31
0.0
  0
LINE
  8
0
 62
     0
 10
152.018
 20
113.152
 30
0.0
 11
151.97
 21
112.843
 31
0.0
  0
LINE
  8
0
 62
     0
 10
151.97
 20
112.843
 30
0.0
 11
152.018
 21
112.535
 31
0.0
  0
LINE
  8
0
 62
     0
 10
152.018
 20
112.535
 30
0.0
 11
152.16
 21
112.255
 31
0.0
  0
LINE
  8
0
 62
     0
 10
152.16
 20
112.255
 30
0.0
 11
152.382
 21
112.034
 31
0.0
  0
LINE
  8
0
 62
     0
 10
152.382
 20
112.034
 30
0.0
 11
152.66
 21
111.891
 31
0.0
  0
LINE
  8
0
 62
     0
 10
152.66
 20
111.891
 30
0.0
 11
152.969
 21
111.843
 31
0.0
  0
LINE
  8
0
 62
     0
 10
152.969
 20
111.843
 30
0.0
 11
153.279
 21
111.891
 31
0.0
  0
LINE
  8
0
 62
     0
 10
153.279
 20
111.891
 30
0.0
 11
153.557
 21
112.034
 31
0.0
  0
LINE
  8
0
 62
     0
 10
153.557
 20
112.034
 30
0.0
 11
153.779
 21
112.255
 31
0.0
  0
LINE
  8
0
 62
     0
 10
153.779
 20
112.255
 30
0.0
 11
153.922
 21
112.535
 31
0.0
  0
LINE
  8
0
 62
     0
 10
153.922
 20
112.535
 30
0.0
 11
153.97
 21
112.843
 31
0.0
  0
LINE
  8
0
 62
     0
 10
153.97
 20
112.843
 30
0.0
 11
153.922
 21
113.152
 31
0.0
  0
LINE
  8
0
 62
     0
 10
153.922
 20
113.152
 30
0.0
 11
153.779
 21
113.43
 31
0.0
  0
LINE
  8
0
 62
     0
 10
153.779
 20
113.43
 30
0.0
 11
153.557
 21
113.652
 31
0.0
  0
LINE
  8
0
 62
     0
 10
153.557
 20
113.652
 30
0.0
 11
153.279
 21
113.796
 31
0.0
  0
LINE
  8
0
 62
     0
 10
153.279
 20
113.796
 30
0.0
 11
152.969
 21
113.842
 31
0.0
  0
LINE
  8
0
 62
     0
 10
152.969
 20
113.842
 30
0.0
 11
152.66
 21
113.796
 31
0.0
  0
LINE
  8
0
 62
     0
 10
227.849
 20
113.796
 30
0.0
 11
227.569
 21
113.652
 31
0.0
  0
LINE
  8
0
 62
     0
 10
227.569
 20
113.652
 30
0.0
 11
227.349
 21
113.43
 31
0.0
  0
LINE
  8
0
 62
     0
 10
227.349
 20
113.43
 30
0.0
 11
227.207
 21
113.152
 31
0.0
  0
LINE
  8
0
 62
     0
 10
227.207
 20
113.152
 30
0.0
 11
227.157
 21
112.843
 31
0.0
  0
LINE
  8
0
 62
     0
 10
227.157
 20
112.843
 30
0.0
 11
227.207
 21
112.535
 31
0.0
  0
LINE
  8
0
 62
     0
 10
227.207
 20
112.535
 30
0.0
 11
227.349
 21
112.255
 31
0.0
  0
LINE
  8
0
 62
     0
 10
227.349
 20
112.255
 30
0.0
 11
227.569
 21
112.034
 31
0.0
  0
LINE
  8
0
 62
     0
 10
227.569
 20
112.034
 30
0.0
 11
227.849
 21
111.891
 31
0.0
  0
LINE
  8
0
 62
     0
 10
227.849
 20
111.891
 30
0.0
 11
228.158
 21
111.843
 31
0.0
  0
LINE
  8
0
 62
     0
 10
228.158
 20
111.843
 30
0.0
 11
228.466
 21
111.891
 31
0.0
  0
LINE
  8
0
 62
     0
 10
228.466
 20
111.891
 30
0.0
 11
228.746
 21
112.034
 31
0.0
  0
LINE
  8
0
 62
     0
 10
228.746
 20
112.034
 30
0.0
 11
228.967
 21
112.255
 31
0.0
  0
LINE
  8
0
 62
     0
 10
228.967
 20
112.255
 30
0.0
 11
229.108
 21
112.535
 31
0.0
  0
LINE
  8
0
 62
     0
 10
229.108
 20
112.535
 30
0.0
 11
229.158
 21
112.843
 31
0.0
  0
LINE
  8
0
 62
     0
 10
229.158
 20
112.843
 30
0.0
 11
229.108
 21
113.152
 31
0.0
  0
LINE
  8
0
 62
     0
 10
229.108
 20
113.152
 30
0.0
 11
228.967
 21
113.43
 31
0.0
  0
LINE
  8
0
 62
     0
 10
228.967
 20
113.43
 30
0.0
 11
228.746
 21
113.652
 31
0.0
  0
LINE
  8
0
 62
     0
 10
228.746
 20
113.652
 30
0.0
 11
228.466
 21
113.796
 31
0.0
  0
LINE
  8
0
 62
     0
 10
228.466
 20
113.796
 30
0.0
 11
228.158
 21
113.842
 31
0.0
  0
LINE
  8
0
 62
     0
 10
228.158
 20
113.842
 30
0.0
 11
227.849
 21
113.796
 31
0.0
  0
LINE
  8
0
 62
     0
 10
303.036
 20
113.796
 30
0.0
 11
302.758
 21
113.652
 31
0.0
  0
LINE
  8
0
 62
     0
 10
302.758
 20
113.652
 30
0.0
 11
302.536
 21
113.43
 31
0.0
  0
LINE
  8
0
 62
     0
 10
302.536
 20
113.43
 30
0.0
 11
302.394
 21
113.152
 31
0.0
  0
LINE
  8
0
 62
     0
 10
302.394
 20
113.152
 30
0.0
 11
302.346
 21
112.843
 31
0.0
  0
LINE
  8
0
 62
     0
 10
302.346
 20
112.843
 30
0.0
 11
302.394
 21
112.535
 31
0.0
  0
LINE
  8
0
 62
     0
 10
302.394
 20
112.535
 30
0.0
 11
302.536
 21
112.255
 31
0.0
  0
LINE
  8
0
 62
     0
 10
302.536
 20
112.255
 30
0.0
 11
302.758
 21
112.034
 31
0.0
  0
LINE
  8
0
 62
     0
 10
302.758
 20
112.034
 30
0.0
 11
303.036
 21
111.891
 31
0.0
  0
LINE
  8
0
 62
     0
 10
303.036
 20
111.891
 30
0.0
 11
303.346
 21
111.843
 31
0.0
  0
LINE
  8
0
 62
     0
 10
303.346
 20
111.843
 30
0.0
 11
303.655
 21
111.891
 31
0.0
  0
LINE
  8
0
 62
     0
 10
303.655
 20
111.891
 30
0.0
 11
303.933
 21
112.034
 31
0.0
  0
LINE
  8
0
 62
     0
 10
303.933
 20
112.034
 30
0.0
 11
304.155
 21
112.255
 31
0.0
  0
LINE
  8
0
 62
     0
 10
304.155
 20
112.255
 30
0.0
 11
304.297
 21
112.535
 31
0.0
  0
LINE
  8
0
 62
     0
 10
304.297
 20
112.535
 30
0.0
 11
304.345
 21
112.843
 31
0.0
  0
LINE
  8
0
 62
     0
 10
304.345
 20
112.843
 30
0.0
 11
304.297
 21
113.152
 31
0.0
  0
LINE
  8
0
 62
     0
 10
304.297
 20
113.152
 30
0.0
 11
304.155
 21
113.43
 31
0.0
  0
LINE
  8
0
 62
     0
 10
304.155
 20
113.43
 30
0.0
 11
303.933
 21
113.652
 31
0.0
  0
LINE
  8
0
 62
     0
 10
303.933
 20
113.652
 30
0.0
 11
303.655
 21
113.796
 31
0.0
  0
LINE
  8
0
 62
     0
 10
303.655
 20
113.796
 30
0.0
 11
303.346
 21
113.842
 31
0.0
  0
LINE
  8
0
 62
     0
 10
303.346
 20
113.842
 30
0.0
 11
303.036
 21
113.796
 31
0.0
  0
LINE
  8
0
 62
     0
 10
2.28479
 20
113.796
 30
0.0
 11
2.00642
 21
113.652
 31
0.0
  0
LINE
  8
0
 62
     0
 10
2.00642
 20
113.652
 30
0.0
 11
1.78456
 21
113.43
 31
0.0
  0
LINE
  8
0
 62
     0
 10
1.78456
 20
113.43
 30
0.0
 11
1.64262
 21
113.152
 31
0.0
  0
LINE
  8
0
 62
     0
 10
1.64262
 20
113.152
 30
0.0
 11
1.59439
 21
112.843
 31
0.0
  0
LINE
  8
0
 62
     0
 10
1.59439
 20
112.843
 30
0.0
 11
1.64262
 21
112.535
 31
0.0
  0
LINE
  8
0
 62
     0
 10
1.64262
 20
112.535
 30
0.0
 11
1.78456
 21
112.255
 31
0.0
  0
LINE
  8
0
 62
     0
 10
1.78456
 20
112.255
 30
0.0
 11
2.00642
 21
112.034
 31
0.0
  0
LINE
  8
0
 62
     0
 10
2.00642
 20
112.034
 30
0.0
 11
2.28479
 21
111.891
 31
0.0
  0
LINE
  8
0
 62
     0
 10
2.28479
 20
111.891
 30
0.0
 11
2.59347
 21
111.843
 31
0.0
  0
LINE
  8
0
 62
     0
 10
2.59347
 20
111.843
 30
0.0
 11
2.90353
 21
111.891
 31
0.0
  0
LINE
  8
0
 62
     0
 10
2.90353
 20
111.891
 30
0.0
 11
3.18189
 21
112.034
 31
0.0
  0
LINE
  8
0
 62
     0
 10
3.18189
 20
112.034
 30
0.0
 11
3.40376
 21
112.255
 31
0.0
  0
LINE
  8
0
 62
     0
 10
3.40376
 20
112.255
 30
0.0
 11
3.5457
 21
112.535
 31
0.0
  0
LINE
  8
0
 62
     0
 10
3.5457
 20
112.535
 30
0.0
 11
3.5953
 21
112.843
 31
0.0
  0
LINE
  8
0
 62
     0
 10
3.5953
 20
112.843
 30
0.0
 11
3.5457
 21
113.152
 31
0.0
  0
LINE
  8
0
 62
     0
 10
3.5457
 20
113.152
 30
0.0
 11
3.40376
 21
113.43
 31
0.0
  0
LINE
  8
0
 62
     0
 10
3.40376
 20
113.43
 30
0.0
 11
3.18189
 21
113.652
 31
0.0
  0
LINE
  8
0
 62
     0
 10
3.18189
 20
113.652
 30
0.0
 11
2.90353
 21
113.796
 31
0.0
  0
LINE
  8
0
 62
     0
 10
2.90353
 20
113.796
 30
0.0
 11
2.59485
 21
113.842
 31
0.0
  0
LINE
  8
0
 62
     0
 10
2.59485
 20
113.842
 30
0.0
 11
2.28479
 21
113.796
 31
0.0
  0
ENDSEC
  0
EOF
