  0
SECTION
  2
HEADER
  9
$ACADVER
  1
AC1009
  9
$EXTMIN
 10
0.0
 20
0.0
 30
0.0
  9
$EXTMAX
 10
1000.0
 20
1000.0
 30
0.0
  9
$FILLMODE
 70
 0
  9
$SPLFRAME
 70
 1
  0
ENDSEC
  0
SECTION
  2
TABLES
  0
TABLE
  2
LAYER
 70
1
  0
LAYER
  2
0
 70
     0
 62
     7
  6
CONTINUOUS
  0
ENDTAB
  0
ENDSEC
  0
SECTION
  2
ENTITIES
  0
LINE
  8
0
 62
     0
 10
303.846
 20
115.342
 30
0.0
 11
304.002
 21
115.336
 31
0.0
  0
LINE
  8
0
 62
     0
 10
304.002
 20
115.336
 30
0.0
 11
304.158
 21
115.318
 31
0.0
  0
LINE
  8
0
 62
     0
 10
304.158
 20
115.318
 30
0.0
 11
304.312
 21
115.287
 31
0.0
  0
LINE
  8
0
 62
     0
 10
304.312
 20
115.287
 30
0.0
 11
304.464
 21
115.245
 31
0.0
  0
LINE
  8
0
 62
     0
 10
304.464
 20
115.245
 30
0.0
 11
304.611
 21
115.191
 31
0.0
  0
LINE
  8
0
 62
     0
 10
304.611
 20
115.191
 30
0.0
 11
304.753
 21
115.125
 31
0.0
  0
LINE
  8
0
 62
     0
 10
304.753
 20
115.125
 30
0.0
 11
304.89
 21
115.048
 31
0.0
  0
LINE
  8
0
 62
     0
 10
304.89
 20
115.048
 30
0.0
 11
305.02
 21
114.961
 31
0.0
  0
LINE
  8
0
 62
     0
 10
305.02
 20
114.961
 30
0.0
 11
305.143
 21
114.864
 31
0.0
  0
LINE
  8
0
 62
     0
 10
305.143
 20
114.864
 30
0.0
 11
305.26
 21
114.758
 31
0.0
  0
LINE
  8
0
 62
     0
 10
305.26
 20
114.758
 30
0.0
 11
305.366
 21
114.642
 31
0.0
  0
LINE
  8
0
 62
     0
 10
305.366
 20
114.642
 30
0.0
 11
305.464
 21
114.519
 31
0.0
  0
LINE
  8
0
 62
     0
 10
305.464
 20
114.519
 30
0.0
 11
305.551
 21
114.387
 31
0.0
  0
LINE
  8
0
 62
     0
 10
305.551
 20
114.387
 30
0.0
 11
305.628
 21
114.252
 31
0.0
  0
LINE
  8
0
 62
     0
 10
305.628
 20
114.252
 30
0.0
 11
305.693
 21
114.108
 31
0.0
  0
LINE
  8
0
 62
     0
 10
305.693
 20
114.108
 30
0.0
 11
305.748
 21
113.961
 31
0.0
  0
LINE
  8
0
 62
     0
 10
305.748
 20
113.961
 30
0.0
 11
305.79
 21
113.811
 31
0.0
  0
LINE
  8
0
 62
     0
 10
305.79
 20
113.811
 30
0.0
 11
305.821
 21
113.655
 31
0.0
  0
LINE
  8
0
 62
     0
 10
305.821
 20
113.655
 30
0.0
 11
305.839
 21
113.499
 31
0.0
  0
LINE
  8
0
 62
     0
 10
305.839
 20
113.499
 30
0.0
 11
305.846
 21
113.342
 31
0.0
  0
LINE
  8
0
 62
     0
 10
305.846
 20
113.342
 30
0.0
 11
305.846
 21
2.09186
 31
0.0
  0
LINE
  8
0
 62
     0
 10
305.846
 20
2.09186
 30
0.0
 11
305.839
 21
1.93614
 31
0.0
  0
LINE
  8
0
 62
     0
 10
305.839
 20
1.93614
 30
0.0
 11
305.821
 21
1.77905
 31
0.0
  0
LINE
  8
0
 62
     0
 10
305.821
 20
1.77905
 30
0.0
 11
305.79
 21
1.62471
 31
0.0
  0
LINE
  8
0
 62
     0
 10
305.79
 20
1.62471
 30
0.0
 11
305.748
 21
1.47312
 31
0.0
  0
LINE
  8
0
 62
     0
 10
305.748
 20
1.47312
 30
0.0
 11
305.693
 21
1.32567
 31
0.0
  0
LINE
  8
0
 62
     0
 10
305.693
 20
1.32567
 30
0.0
 11
305.628
 21
1.18374
 31
0.0
  0
LINE
  8
0
 62
     0
 10
305.628
 20
1.18374
 30
0.0
 11
305.551
 21
1.04731
 31
0.0
  0
LINE
  8
0
 62
     0
 10
305.551
 20
1.04731
 30
0.0
 11
305.464
 21
0.916397
 31
0.0
  0
LINE
  8
0
 62
     0
 10
305.464
 20
0.916397
 30
0.0
 11
305.366
 21
0.79375
 31
0.0
  0
LINE
  8
0
 62
     0
 10
305.366
 20
0.79375
 30
0.0
 11
305.26
 21
0.676617
 31
0.0
  0
LINE
  8
0
 62
     0
 10
305.26
 20
0.676617
 30
0.0
 11
305.143
 21
0.571885
 31
0.0
  0
LINE
  8
0
 62
     0
 10
305.143
 20
0.571885
 30
0.0
 11
305.02
 21
0.472666
 31
0.0
  0
LINE
  8
0
 62
     0
 10
305.02
 20
0.472666
 30
0.0
 11
304.89
 21
0.385851
 31
0.0
  0
LINE
  8
0
 62
     0
 10
304.89
 20
0.385851
 30
0.0
 11
304.753
 21
0.308681
 31
0.0
  0
LINE
  8
0
 62
     0
 10
304.753
 20
0.308681
 30
0.0
 11
304.611
 21
0.245291
 31
0.0
  0
LINE
  8
0
 62
     0
 10
304.611
 20
0.245291
 30
0.0
 11
304.464
 21
0.188791
 31
0.0
  0
LINE
  8
0
 62
     0
 10
304.464
 20
0.188791
 30
0.0
 11
304.312
 21
0.14745
 31
0.0
  0
LINE
  8
0
 62
     0
 10
304.312
 20
0.14745
 30
0.0
 11
304.158
 21
0.115755
 31
0.0
  0
LINE
  8
0
 62
     0
 10
304.158
 20
0.115755
 30
0.0
 11
304.002
 21
0.0992188
 31
0.0
  0
LINE
  8
0
 62
     0
 10
304.002
 20
0.0992188
 30
0.0
 11
303.846
 21
0.0923286
 31
0.0
  0
LINE
  8
0
 62
     0
 10
303.846
 20
0.0923286
 30
0.0
 11
2.09462
 21
0.0923286
 31
0.0
  0
LINE
  8
0
 62
     0
 10
2.09462
 20
0.0923286
 30
0.0
 11
1.93752
 21
0.0992188
 31
0.0
  0
LINE
  8
0
 62
     0
 10
1.93752
 20
0.0992188
 30
0.0
 11
1.7818
 21
0.115755
 31
0.0
  0
LINE
  8
0
 62
     0
 10
1.7818
 20
0.115755
 30
0.0
 11
1.62746
 21
0.14745
 31
0.0
  0
LINE
  8
0
 62
     0
 10
1.62746
 20
0.14745
 30
0.0
 11
1.47588
 21
0.188791
 31
0.0
  0
LINE
  8
0
 62
     0
 10
1.47588
 20
0.188791
 30
0.0
 11
1.32843
 21
0.245291
 31
0.0
  0
LINE
  8
0
 62
     0
 10
1.32843
 20
0.245291
 30
0.0
 11
1.18649
 21
0.308681
 31
0.0
  0
LINE
  8
0
 62
     0
 10
1.18649
 20
0.308681
 30
0.0
 11
1.05006
 21
0.385851
 31
0.0
  0
LINE
  8
0
 62
     0
 10
1.05006
 20
0.385851
 30
0.0
 11
0.919152
 21
0.472666
 31
0.0
  0
LINE
  8
0
 62
     0
 10
0.919152
 20
0.472666
 30
0.0
 11
0.795129
 21
0.571885
 31
0.0
  0
LINE
  8
0
 62
     0
 10
0.795129
 20
0.571885
 30
0.0
 11
0.679372
 21
0.676617
 31
0.0
  0
LINE
  8
0
 62
     0
 10
0.679372
 20
0.676617
 30
0.0
 11
0.573264
 21
0.79375
 31
0.0
  0
LINE
  8
0
 62
     0
 10
0.573264
 20
0.79375
 30
0.0
 11
0.475424
 21
0.916397
 31
0.0
  0
LINE
  8
0
 62
     0
 10
0.475424
 20
0.916397
 30
0.0
 11
0.388606
 21
1.04731
 31
0.0
  0
LINE
  8
0
 62
     0
 10
0.388606
 20
1.04731
 30
0.0
 11
0.311437
 21
1.18374
 31
0.0
  0
LINE
  8
0
 62
     0
 10
0.311437
 20
1.18374
 30
0.0
 11
0.246669
 21
1.32567
 31
0.0
  0
LINE
  8
0
 62
     0
 10
0.246669
 20
1.32567
 30
0.0
 11
0.191547
 21
1.47312
 31
0.0
  0
LINE
  8
0
 62
     0
 10
0.191547
 20
1.47312
 30
0.0
 11
0.150206
 21
1.62471
 31
0.0
  0
LINE
  8
0
 62
     0
 10
0.150206
 20
1.62471
 30
0.0
 11
0.118511
 21
1.77905
 31
0.0
  0
LINE
  8
0
 62
     0
 10
0.118511
 20
1.77905
 30
0.0
 11
0.100597
 21
1.93614
 31
0.0
  0
LINE
  8
0
 62
     0
 10
0.100597
 20
1.93614
 30
0.0
 11
0.0937066
 21
2.09048
 31
0.0
  0
LINE
  8
0
 62
     0
 10
0.0937066
 20
2.09048
 30
0.0
 11
0.0950846
 21
113.342
 31
0.0
  0
LINE
  8
0
 62
     0
 10
0.0950846
 20
113.342
 30
0.0
 11
0.100597
 21
113.499
 31
0.0
  0
LINE
  8
0
 62
     0
 10
0.100597
 20
113.499
 30
0.0
 11
0.118511
 21
113.655
 31
0.0
  0
LINE
  8
0
 62
     0
 10
0.118511
 20
113.655
 30
0.0
 11
0.150206
 21
113.811
 31
0.0
  0
LINE
  8
0
 62
     0
 10
0.150206
 20
113.811
 30
0.0
 11
0.191547
 21
113.961
 31
0.0
  0
LINE
  8
0
 62
     0
 10
0.191547
 20
113.961
 30
0.0
 11
0.246669
 21
114.108
 31
0.0
  0
LINE
  8
0
 62
     0
 10
0.246669
 20
114.108
 30
0.0
 11
0.311437
 21
114.252
 31
0.0
  0
LINE
  8
0
 62
     0
 10
0.311437
 20
114.252
 30
0.0
 11
0.388606
 21
114.387
 31
0.0
  0
LINE
  8
0
 62
     0
 10
0.388606
 20
114.387
 30
0.0
 11
0.475424
 21
114.519
 31
0.0
  0
LINE
  8
0
 62
     0
 10
0.475424
 20
114.519
 30
0.0
 11
0.573264
 21
114.642
 31
0.0
  0
LINE
  8
0
 62
     0
 10
0.573264
 20
114.642
 30
0.0
 11
0.679372
 21
114.758
 31
0.0
  0
LINE
  8
0
 62
     0
 10
0.679372
 20
114.758
 30
0.0
 11
0.795129
 21
114.864
 31
0.0
  0
LINE
  8
0
 62
     0
 10
0.795129
 20
114.864
 30
0.0
 11
0.919152
 21
114.961
 31
0.0
  0
LINE
  8
0
 62
     0
 10
0.919152
 20
114.961
 30
0.0
 11
1.05006
 21
115.048
 31
0.0
  0
LINE
  8
0
 62
     0
 10
1.05006
 20
115.048
 30
0.0
 11
1.18649
 21
115.125
 31
0.0
  0
LINE
  8
0
 62
     0
 10
1.18649
 20
115.125
 30
0.0
 11
1.32843
 21
115.191
 31
0.0
  0
LINE
  8
0
 62
     0
 10
1.32843
 20
115.191
 30
0.0
 11
1.47588
 21
115.245
 31
0.0
  0
LINE
  8
0
 62
     0
 10
1.47588
 20
115.245
 30
0.0
 11
1.62746
 21
115.287
 31
0.0
  0
LINE
  8
0
 62
     0
 10
1.62746
 20
115.287
 30
0.0
 11
1.7818
 21
115.318
 31
0.0
  0
LINE
  8
0
 62
     0
 10
1.7818
 20
115.318
 30
0.0
 11
1.93752
 21
115.336
 31
0.0
  0
LINE
  8
0
 62
     0
 10
1.93752
 20
115.336
 30
0.0
 11
2.09462
 21
115.343
 31
0.0
  0
LINE
  8
0
 62
     0
 10
2.09462
 20
115.343
 30
0.0
 11
303.846
 21
115.342
 31
0.0
  0
LINE
  8
0
 62
     0
 10
303.036
 20
3.54295
 30
0.0
 11
302.758
 21
3.401
 31
0.0
  0
LINE
  8
0
 62
     0
 10
302.758
 20
3.401
 30
0.0
 11
302.536
 21
3.17913
 31
0.0
  0
LINE
  8
0
 62
     0
 10
302.536
 20
3.17913
 30
0.0
 11
302.394
 21
2.90077
 31
0.0
  0
LINE
  8
0
 62
     0
 10
302.394
 20
2.90077
 30
0.0
 11
302.346
 21
2.59209
 31
0.0
  0
LINE
  8
0
 62
     0
 10
302.346
 20
2.59209
 30
0.0
 11
302.394
 21
2.28203
 31
0.0
  0
LINE
  8
0
 62
     0
 10
302.394
 20
2.28203
 30
0.0
 11
302.536
 21
2.00367
 31
0.0
  0
LINE
  8
0
 62
     0
 10
302.536
 20
2.00367
 30
0.0
 11
302.758
 21
1.7818
 31
0.0
  0
LINE
  8
0
 62
     0
 10
302.758
 20
1.7818
 30
0.0
 11
303.036
 21
1.63987
 31
0.0
  0
LINE
  8
0
 62
     0
 10
303.036
 20
1.63987
 30
0.0
 11
303.346
 21
1.59163
 31
0.0
  0
LINE
  8
0
 62
     0
 10
303.346
 20
1.59163
 30
0.0
 11
303.655
 21
1.63987
 31
0.0
  0
LINE
  8
0
 62
     0
 10
303.655
 20
1.63987
 30
0.0
 11
303.933
 21
1.7818
 31
0.0
  0
LINE
  8
0
 62
     0
 10
303.933
 20
1.7818
 30
0.0
 11
304.155
 21
2.00367
 31
0.0
  0
LINE
  8
0
 62
     0
 10
304.155
 20
2.00367
 30
0.0
 11
304.297
 21
2.28203
 31
0.0
  0
LINE
  8
0
 62
     0
 10
304.297
 20
2.28203
 30
0.0
 11
304.345
 21
2.59209
 31
0.0
  0
LINE
  8
0
 62
     0
 10
304.345
 20
2.59209
 30
0.0
 11
304.297
 21
2.90077
 31
0.0
  0
LINE
  8
0
 62
     0
 10
304.297
 20
2.90077
 30
0.0
 11
304.155
 21
3.17913
 31
0.0
  0
LINE
  8
0
 62
     0
 10
304.155
 20
3.17913
 30
0.0
 11
303.933
 21
3.401
 31
0.0
  0
LINE
  8
0
 62
     0
 10
303.933
 20
3.401
 30
0.0
 11
303.655
 21
3.54295
 31
0.0
  0
LINE
  8
0
 62
     0
 10
303.655
 20
3.54295
 30
0.0
 11
303.346
 21
3.59255
 31
0.0
  0
LINE
  8
0
 62
     0
 10
303.346
 20
3.59255
 30
0.0
 11
303.036
 21
3.54295
 31
0.0
  0
LINE
  8
0
 62
     0
 10
227.849
 20
3.54295
 30
0.0
 11
227.569
 21
3.401
 31
0.0
  0
LINE
  8
0
 62
     0
 10
227.569
 20
3.401
 30
0.0
 11
227.349
 21
3.17913
 31
0.0
  0
LINE
  8
0
 62
     0
 10
227.349
 20
3.17913
 30
0.0
 11
227.207
 21
2.90077
 31
0.0
  0
LINE
  8
0
 62
     0
 10
227.207
 20
2.90077
 30
0.0
 11
227.157
 21
2.59209
 31
0.0
  0
LINE
  8
0
 62
     0
 10
227.157
 20
2.59209
 30
0.0
 11
227.207
 21
2.28203
 31
0.0
  0
LINE
  8
0
 62
     0
 10
227.207
 20
2.28203
 30
0.0
 11
227.349
 21
2.00367
 31
0.0
  0
LINE
  8
0
 62
     0
 10
227.349
 20
2.00367
 30
0.0
 11
227.569
 21
1.7818
 31
0.0
  0
LINE
  8
0
 62
     0
 10
227.569
 20
1.7818
 30
0.0
 11
227.849
 21
1.63987
 31
0.0
  0
LINE
  8
0
 62
     0
 10
227.849
 20
1.63987
 30
0.0
 11
228.158
 21
1.59163
 31
0.0
  0
LINE
  8
0
 62
     0
 10
228.158
 20
1.59163
 30
0.0
 11
228.466
 21
1.63987
 31
0.0
  0
LINE
  8
0
 62
     0
 10
228.466
 20
1.63987
 30
0.0
 11
228.746
 21
1.7818
 31
0.0
  0
LINE
  8
0
 62
     0
 10
228.746
 20
1.7818
 30
0.0
 11
228.967
 21
2.00367
 31
0.0
  0
LINE
  8
0
 62
     0
 10
228.967
 20
2.00367
 30
0.0
 11
229.108
 21
2.28203
 31
0.0
  0
LINE
  8
0
 62
     0
 10
229.108
 20
2.28203
 30
0.0
 11
229.158
 21
2.59209
 31
0.0
  0
LINE
  8
0
 62
     0
 10
229.158
 20
2.59209
 30
0.0
 11
229.108
 21
2.90077
 31
0.0
  0
LINE
  8
0
 62
     0
 10
229.108
 20
2.90077
 30
0.0
 11
228.967
 21
3.17913
 31
0.0
  0
LINE
  8
0
 62
     0
 10
228.967
 20
3.17913
 30
0.0
 11
228.746
 21
3.401
 31
0.0
  0
LINE
  8
0
 62
     0
 10
228.746
 20
3.401
 30
0.0
 11
228.466
 21
3.54295
 31
0.0
  0
LINE
  8
0
 62
     0
 10
228.466
 20
3.54295
 30
0.0
 11
228.158
 21
3.59255
 31
0.0
  0
LINE
  8
0
 62
     0
 10
228.158
 20
3.59255
 30
0.0
 11
227.849
 21
3.54295
 31
0.0
  0
LINE
  8
0
 62
     0
 10
152.66
 20
3.54295
 30
0.0
 11
152.382
 21
3.401
 31
0.0
  0
LINE
  8
0
 62
     0
 10
152.382
 20
3.401
 30
0.0
 11
152.16
 21
3.17913
 31
0.0
  0
LINE
  8
0
 62
     0
 10
152.16
 20
3.17913
 30
0.0
 11
152.018
 21
2.90077
 31
0.0
  0
LINE
  8
0
 62
     0
 10
152.018
 20
2.90077
 30
0.0
 11
151.97
 21
2.59209
 31
0.0
  0
LINE
  8
0
 62
     0
 10
151.97
 20
2.59209
 30
0.0
 11
152.018
 21
2.28203
 31
0.0
  0
LINE
  8
0
 62
     0
 10
152.018
 20
2.28203
 30
0.0
 11
152.16
 21
2.00367
 31
0.0
  0
LINE
  8
0
 62
     0
 10
152.16
 20
2.00367
 30
0.0
 11
152.382
 21
1.7818
 31
0.0
  0
LINE
  8
0
 62
     0
 10
152.382
 20
1.7818
 30
0.0
 11
152.66
 21
1.63987
 31
0.0
  0
LINE
  8
0
 62
     0
 10
152.66
 20
1.63987
 30
0.0
 11
152.969
 21
1.59163
 31
0.0
  0
LINE
  8
0
 62
     0
 10
152.969
 20
1.59163
 30
0.0
 11
153.279
 21
1.63987
 31
0.0
  0
LINE
  8
0
 62
     0
 10
153.279
 20
1.63987
 30
0.0
 11
153.557
 21
1.7818
 31
0.0
  0
LINE
  8
0
 62
     0
 10
153.557
 20
1.7818
 30
0.0
 11
153.779
 21
2.00367
 31
0.0
  0
LINE
  8
0
 62
     0
 10
153.779
 20
2.00367
 30
0.0
 11
153.922
 21
2.28203
 31
0.0
  0
LINE
  8
0
 62
     0
 10
153.922
 20
2.28203
 30
0.0
 11
153.97
 21
2.59209
 31
0.0
  0
LINE
  8
0
 62
     0
 10
153.97
 20
2.59209
 30
0.0
 11
153.922
 21
2.90077
 31
0.0
  0
LINE
  8
0
 62
     0
 10
153.922
 20
2.90077
 30
0.0
 11
153.779
 21
3.17913
 31
0.0
  0
LINE
  8
0
 62
     0
 10
153.779
 20
3.17913
 30
0.0
 11
153.557
 21
3.401
 31
0.0
  0
LINE
  8
0
 62
     0
 10
153.557
 20
3.401
 30
0.0
 11
153.279
 21
3.54295
 31
0.0
  0
LINE
  8
0
 62
     0
 10
153.279
 20
3.54295
 30
0.0
 11
152.969
 21
3.59255
 31
0.0
  0
LINE
  8
0
 62
     0
 10
152.969
 20
3.59255
 30
0.0
 11
152.66
 21
3.54295
 31
0.0
  0
LINE
  8
0
 62
     0
 10
77.4732
 20
3.54295
 30
0.0
 11
77.1934
 21
3.401
 31
0.0
  0
LINE
  8
0
 62
     0
 10
77.1934
 20
3.401
 30
0.0
 11
76.9729
 21
3.17913
 31
0.0
  0
LINE
  8
0
 62
     0
 10
76.9729
 20
3.17913
 30
0.0
 11
76.8311
 21
2.90077
 31
0.0
  0
LINE
  8
0
 62
     0
 10
76.8311
 20
2.90077
 30
0.0
 11
76.7814
 21
2.59209
 31
0.0
  0
LINE
  8
0
 62
     0
 10
76.7814
 20
2.59209
 30
0.0
 11
76.8311
 21
2.28203
 31
0.0
  0
LINE
  8
0
 62
     0
 10
76.8311
 20
2.28203
 30
0.0
 11
76.9729
 21
2.00367
 31
0.0
  0
LINE
  8
0
 62
     0
 10
76.9729
 20
2.00367
 30
0.0
 11
77.1934
 21
1.7818
 31
0.0
  0
LINE
  8
0
 62
     0
 10
77.1934
 20
1.7818
 30
0.0
 11
77.4732
 21
1.63987
 31
0.0
  0
LINE
  8
0
 62
     0
 10
77.4732
 20
1.63987
 30
0.0
 11
77.7819
 21
1.59163
 31
0.0
  0
LINE
  8
0
 62
     0
 10
77.7819
 20
1.59163
 30
0.0
 11
78.0905
 21
1.63987
 31
0.0
  0
LINE
  8
0
 62
     0
 10
78.0905
 20
1.63987
 30
0.0
 11
78.3703
 21
1.7818
 31
0.0
  0
LINE
  8
0
 62
     0
 10
78.3703
 20
1.7818
 30
0.0
 11
78.5908
 21
2.00367
 31
0.0
  0
LINE
  8
0
 62
     0
 10
78.5908
 20
2.00367
 30
0.0
 11
78.7329
 21
2.28203
 31
0.0
  0
LINE
  8
0
 62
     0
 10
78.7329
 20
2.28203
 30
0.0
 11
78.7809
 21
2.59209
 31
0.0
  0
LINE
  8
0
 62
     0
 10
78.7809
 20
2.59209
 30
0.0
 11
78.7329
 21
2.90077
 31
0.0
  0
LINE
  8
0
 62
     0
 10
78.7329
 20
2.90077
 30
0.0
 11
78.5908
 21
3.17913
 31
0.0
  0
LINE
  8
0
 62
     0
 10
78.5908
 20
3.17913
 30
0.0
 11
78.3703
 21
3.401
 31
0.0
  0
LINE
  8
0
 62
     0
 10
78.3703
 20
3.401
 30
0.0
 11
78.0905
 21
3.54295
 31
0.0
  0
LINE
  8
0
 62
     0
 10
78.0905
 20
3.54295
 30
0.0
 11
77.7819
 21
3.59255
 31
0.0
  0
LINE
  8
0
 62
     0
 10
77.7819
 20
3.59255
 30
0.0
 11
77.4732
 21
3.54295
 31
0.0
  0
LINE
  8
0
 62
     0
 10
2.28479
 20
3.54295
 30
0.0
 11
2.00642
 21
3.401
 31
0.0
  0
LINE
  8
0
 62
     0
 10
2.00642
 20
3.401
 30
0.0
 11
1.78456
 21
3.17913
 31
0.0
  0
LINE
  8
0
 62
     0
 10
1.78456
 20
3.17913
 30
0.0
 11
1.64262
 21
2.90077
 31
0.0
  0
LINE
  8
0
 62
     0
 10
1.64262
 20
2.90077
 30
0.0
 11
1.59439
 21
2.59209
 31
0.0
  0
LINE
  8
0
 62
     0
 10
1.59439
 20
2.59209
 30
0.0
 11
1.64262
 21
2.28203
 31
0.0
  0
LINE
  8
0
 62
     0
 10
1.64262
 20
2.28203
 30
0.0
 11
1.78456
 21
2.00367
 31
0.0
  0
LINE
  8
0
 62
     0
 10
1.78456
 20
2.00367
 30
0.0
 11
2.00642
 21
1.7818
 31
0.0
  0
LINE
  8
0
 62
     0
 10
2.00642
 20
1.7818
 30
0.0
 11
2.28479
 21
1.63987
 31
0.0
  0
LINE
  8
0
 62
     0
 10
2.28479
 20
1.63987
 30
0.0
 11
2.59347
 21
1.59163
 31
0.0
  0
LINE
  8
0
 62
     0
 10
2.59347
 20
1.59163
 30
0.0
 11
2.90353
 21
1.63987
 31
0.0
  0
LINE
  8
0
 62
     0
 10
2.90353
 20
1.63987
 30
0.0
 11
3.18189
 21
1.7818
 31
0.0
  0
LINE
  8
0
 62
     0
 10
3.18189
 20
1.7818
 30
0.0
 11
3.40376
 21
2.00367
 31
0.0
  0
LINE
  8
0
 62
     0
 10
3.40376
 20
2.00367
 30
0.0
 11
3.5457
 21
2.28203
 31
0.0
  0
LINE
  8
0
 62
     0
 10
3.5457
 20
2.28203
 30
0.0
 11
3.5953
 21
2.59209
 31
0.0
  0
LINE
  8
0
 62
     0
 10
3.5953
 20
2.59209
 30
0.0
 11
3.5457
 21
2.90077
 31
0.0
  0
LINE
  8
0
 62
     0
 10
3.5457
 20
2.90077
 30
0.0
 11
3.40376
 21
3.17913
 31
0.0
  0
LINE
  8
0
 62
     0
 10
3.40376
 20
3.17913
 30
0.0
 11
3.18189
 21
3.401
 31
0.0
  0
LINE
  8
0
 62
     0
 10
3.18189
 20
3.401
 30
0.0
 11
2.90353
 21
3.54295
 31
0.0
  0
LINE
  8
0
 62
     0
 10
2.90353
 20
3.54295
 30
0.0
 11
2.59485
 21
3.59255
 31
0.0
  0
LINE
  8
0
 62
     0
 10
2.59485
 20
3.59255
 30
0.0
 11
2.28479
 21
3.54295
 31
0.0
  0
LINE
  8
0
 62
     0
 10
112.631
 20
26.6182
 30
0.0
 11
112.631
 21
25.6191
 31
0.0
  0
LINE
  8
0
 62
     0
 10
112.631
 20
25.6191
 30
0.0
 11
111.832
 21
25.6191
 31
0.0
  0
LINE
  8
0
 62
     0
 10
111.832
 20
25.6191
 30
0.0
 11
111.832
 21
22.5185
 31
0.0
  0
LINE
  8
0
 62
     0
 10
111.832
 20
22.5185
 30
0.0
 11
112.631
 21
22.5185
 31
0.0
  0
LINE
  8
0
 62
     0
 10
112.631
 20
22.5185
 30
0.0
 11
112.631
 21
21.9177
 31
0.0
  0
LINE
  8
0
 62
     0
 10
112.631
 20
21.9177
 30
0.0
 11
103.957
 21
21.9177
 31
0.0
  0
LINE
  8
0
 62
     0
 10
103.957
 20
21.9177
 30
0.0
 11
103.957
 21
25.1478
 31
0.0
  0
LINE
  8
0
 62
     0
 10
103.957
 20
25.1478
 30
0.0
 11
102.231
 21
25.1478
 31
0.0
  0
LINE
  8
0
 62
     0
 10
102.231
 20
25.1478
 30
0.0
 11
102.231
 21
26.0683
 31
0.0
  0
LINE
  8
0
 62
     0
 10
102.231
 20
26.0683
 30
0.0
 11
98.9323
 21
26.0683
 31
0.0
  0
LINE
  8
0
 62
     0
 10
98.9323
 20
26.0683
 30
0.0
 11
98.9323
 21
25.1478
 31
0.0
  0
LINE
  8
0
 62
     0
 10
98.9323
 20
25.1478
 30
0.0
 11
97.2069
 21
25.1478
 31
0.0
  0
LINE
  8
0
 62
     0
 10
97.2069
 20
25.1478
 30
0.0
 11
97.2069
 21
21.9177
 31
0.0
  0
LINE
  8
0
 62
     0
 10
97.2069
 20
21.9177
 30
0.0
 11
96.3814
 21
21.9177
 31
0.0
  0
LINE
  8
0
 62
     0
 10
96.3814
 20
21.9177
 30
0.0
 11
96.3814
 21
19.1189
 31
0.0
  0
LINE
  8
0
 62
     0
 10
96.3814
 20
19.1189
 30
0.0
 11
97.2069
 21
19.1189
 31
0.0
  0
LINE
  8
0
 62
     0
 10
97.2069
 20
19.1189
 30
0.0
 11
97.2069
 21
12.8475
 31
0.0
  0
LINE
  8
0
 62
     0
 10
97.2069
 20
12.8475
 30
0.0
 11
98.9323
 21
12.8475
 31
0.0
  0
LINE
  8
0
 62
     0
 10
98.9323
 20
12.8475
 30
0.0
 11
98.9323
 21
11.8677
 31
0.0
  0
LINE
  8
0
 62
     0
 10
98.9323
 20
11.8677
 30
0.0
 11
102.231
 21
11.8677
 31
0.0
  0
LINE
  8
0
 62
     0
 10
102.231
 20
11.8677
 30
0.0
 11
102.231
 21
12.8475
 31
0.0
  0
LINE
  8
0
 62
     0
 10
102.231
 20
12.8475
 30
0.0
 11
103.957
 21
12.8475
 31
0.0
  0
LINE
  8
0
 62
     0
 10
103.957
 20
12.8475
 30
0.0
 11
103.957
 21
17.3178
 31
0.0
  0
LINE
  8
0
 62
     0
 10
103.957
 20
17.3178
 30
0.0
 11
112.631
 21
17.3178
 31
0.0
  0
LINE
  8
0
 62
     0
 10
112.631
 20
17.3178
 30
0.0
 11
112.631
 21
16.717
 31
0.0
  0
LINE
  8
0
 62
     0
 10
112.631
 20
16.717
 30
0.0
 11
111.832
 21
16.717
 31
0.0
  0
LINE
  8
0
 62
     0
 10
111.832
 20
16.717
 30
0.0
 11
111.832
 21
13.6178
 31
0.0
  0
LINE
  8
0
 62
     0
 10
111.832
 20
13.6178
 30
0.0
 11
112.631
 21
13.6178
 31
0.0
  0
LINE
  8
0
 62
     0
 10
112.631
 20
13.6178
 30
0.0
 11
112.631
 21
12.6173
 31
0.0
  0
LINE
  8
0
 62
     0
 10
112.631
 20
12.6173
 30
0.0
 11
126.632
 21
12.6173
 31
0.0
  0
LINE
  8
0
 62
     0
 10
126.632
 20
12.6173
 30
0.0
 11
126.632
 21
13.6178
 31
0.0
  0
LINE
  8
0
 62
     0
 10
126.632
 20
13.6178
 30
0.0
 11
127.431
 21
13.6178
 31
0.0
  0
LINE
  8
0
 62
     0
 10
127.431
 20
13.6178
 30
0.0
 11
127.431
 21
16.717
 31
0.0
  0
LINE
  8
0
 62
     0
 10
127.431
 20
16.717
 30
0.0
 11
126.632
 21
16.717
 31
0.0
  0
LINE
  8
0
 62
     0
 10
126.632
 20
16.717
 30
0.0
 11
126.632
 21
17.3178
 31
0.0
  0
LINE
  8
0
 62
     0
 10
126.632
 20
17.3178
 30
0.0
 11
135.307
 21
17.3178
 31
0.0
  0
LINE
  8
0
 62
     0
 10
135.307
 20
17.3178
 30
0.0
 11
135.307
 21
12.8475
 31
0.0
  0
LINE
  8
0
 62
     0
 10
135.307
 20
12.8475
 30
0.0
 11
137.032
 21
12.8475
 31
0.0
  0
LINE
  8
0
 62
     0
 10
137.032
 20
12.8475
 30
0.0
 11
137.032
 21
11.8677
 31
0.0
  0
LINE
  8
0
 62
     0
 10
137.032
 20
11.8677
 30
0.0
 11
140.331
 21
11.8677
 31
0.0
  0
LINE
  8
0
 62
     0
 10
140.331
 20
11.8677
 30
0.0
 11
140.331
 21
12.8475
 31
0.0
  0
LINE
  8
0
 62
     0
 10
140.331
 20
12.8475
 30
0.0
 11
142.057
 21
12.8475
 31
0.0
  0
LINE
  8
0
 62
     0
 10
142.057
 20
12.8475
 30
0.0
 11
142.057
 21
19.1189
 31
0.0
  0
LINE
  8
0
 62
     0
 10
142.057
 20
19.1189
 30
0.0
 11
142.882
 21
19.1189
 31
0.0
  0
LINE
  8
0
 62
     0
 10
142.882
 20
19.1189
 30
0.0
 11
142.882
 21
21.9177
 31
0.0
  0
LINE
  8
0
 62
     0
 10
142.882
 20
21.9177
 30
0.0
 11
142.057
 21
21.9177
 31
0.0
  0
LINE
  8
0
 62
     0
 10
142.057
 20
21.9177
 30
0.0
 11
142.057
 21
25.1478
 31
0.0
  0
LINE
  8
0
 62
     0
 10
142.057
 20
25.1478
 30
0.0
 11
140.331
 21
25.1478
 31
0.0
  0
LINE
  8
0
 62
     0
 10
140.331
 20
25.1478
 30
0.0
 11
140.331
 21
26.0683
 31
0.0
  0
LINE
  8
0
 62
     0
 10
140.331
 20
26.0683
 30
0.0
 11
137.032
 21
26.0683
 31
0.0
  0
LINE
  8
0
 62
     0
 10
137.032
 20
26.0683
 30
0.0
 11
137.032
 21
25.1478
 31
0.0
  0
LINE
  8
0
 62
     0
 10
137.032
 20
25.1478
 30
0.0
 11
135.307
 21
25.1478
 31
0.0
  0
LINE
  8
0
 62
     0
 10
135.307
 20
25.1478
 30
0.0
 11
135.307
 21
21.9177
 31
0.0
  0
LINE
  8
0
 62
     0
 10
135.307
 20
21.9177
 30
0.0
 11
126.632
 21
21.9177
 31
0.0
  0
LINE
  8
0
 62
     0
 10
126.632
 20
21.9177
 30
0.0
 11
126.632
 21
22.5185
 31
0.0
  0
LINE
  8
0
 62
     0
 10
126.632
 20
22.5185
 30
0.0
 11
127.431
 21
22.5185
 31
0.0
  0
LINE
  8
0
 62
     0
 10
127.431
 20
22.5185
 30
0.0
 11
127.431
 21
25.6191
 31
0.0
  0
LINE
  8
0
 62
     0
 10
127.431
 20
25.6191
 30
0.0
 11
126.632
 21
25.6191
 31
0.0
  0
LINE
  8
0
 62
     0
 10
126.632
 20
25.6191
 30
0.0
 11
126.632
 21
26.6182
 31
0.0
  0
LINE
  8
0
 62
     0
 10
126.632
 20
26.6182
 30
0.0
 11
112.631
 21
26.6182
 31
0.0
  0
LINE
  8
0
 62
     0
 10
160.256
 20
26.6182
 30
0.0
 11
160.256
 21
25.6191
 31
0.0
  0
LINE
  8
0
 62
     0
 10
160.256
 20
25.6191
 30
0.0
 11
159.457
 21
25.6191
 31
0.0
  0
LINE
  8
0
 62
     0
 10
159.457
 20
25.6191
 30
0.0
 11
159.457
 21
22.5185
 31
0.0
  0
LINE
  8
0
 62
     0
 10
159.457
 20
22.5185
 30
0.0
 11
160.256
 21
22.5185
 31
0.0
  0
LINE
  8
0
 62
     0
 10
160.256
 20
22.5185
 30
0.0
 11
160.256
 21
21.9177
 31
0.0
  0
LINE
  8
0
 62
     0
 10
160.256
 20
21.9177
 30
0.0
 11
158.732
 21
21.9177
 31
0.0
  0
LINE
  8
0
 62
     0
 10
158.732
 20
21.9177
 30
0.0
 11
158.732
 21
25.1478
 31
0.0
  0
LINE
  8
0
 62
     0
 10
158.732
 20
25.1478
 30
0.0
 11
157.007
 21
25.1478
 31
0.0
  0
LINE
  8
0
 62
     0
 10
157.007
 20
25.1478
 30
0.0
 11
157.007
 21
26.0683
 31
0.0
  0
LINE
  8
0
 62
     0
 10
157.007
 20
26.0683
 30
0.0
 11
153.706
 21
26.0683
 31
0.0
  0
LINE
  8
0
 62
     0
 10
153.706
 20
26.0683
 30
0.0
 11
153.706
 21
25.1478
 31
0.0
  0
LINE
  8
0
 62
     0
 10
153.706
 20
25.1478
 30
0.0
 11
151.981
 21
25.1478
 31
0.0
  0
LINE
  8
0
 62
     0
 10
151.981
 20
25.1478
 30
0.0
 11
151.981
 21
21.9177
 31
0.0
  0
LINE
  8
0
 62
     0
 10
151.981
 20
21.9177
 30
0.0
 11
151.157
 21
21.9177
 31
0.0
  0
LINE
  8
0
 62
     0
 10
151.157
 20
21.9177
 30
0.0
 11
151.157
 21
19.1189
 31
0.0
  0
LINE
  8
0
 62
     0
 10
151.157
 20
19.1189
 30
0.0
 11
151.981
 21
19.1189
 31
0.0
  0
LINE
  8
0
 62
     0
 10
151.981
 20
19.1189
 30
0.0
 11
151.981
 21
12.8475
 31
0.0
  0
LINE
  8
0
 62
     0
 10
151.981
 20
12.8475
 30
0.0
 11
153.706
 21
12.8475
 31
0.0
  0
LINE
  8
0
 62
     0
 10
153.706
 20
12.8475
 30
0.0
 11
153.706
 21
11.8677
 31
0.0
  0
LINE
  8
0
 62
     0
 10
153.706
 20
11.8677
 30
0.0
 11
157.007
 21
11.8677
 31
0.0
  0
LINE
  8
0
 62
     0
 10
157.007
 20
11.8677
 30
0.0
 11
157.007
 21
12.8475
 31
0.0
  0
LINE
  8
0
 62
     0
 10
157.007
 20
12.8475
 30
0.0
 11
158.732
 21
12.8475
 31
0.0
  0
LINE
  8
0
 62
     0
 10
158.732
 20
12.8475
 30
0.0
 11
158.732
 21
17.3178
 31
0.0
  0
LINE
  8
0
 62
     0
 10
158.732
 20
17.3178
 30
0.0
 11
160.256
 21
17.3178
 31
0.0
  0
LINE
  8
0
 62
     0
 10
160.256
 20
17.3178
 30
0.0
 11
160.256
 21
16.717
 31
0.0
  0
LINE
  8
0
 62
     0
 10
160.256
 20
16.717
 30
0.0
 11
159.457
 21
16.717
 31
0.0
  0
LINE
  8
0
 62
     0
 10
159.457
 20
16.717
 30
0.0
 11
159.457
 21
13.6178
 31
0.0
  0
LINE
  8
0
 62
     0
 10
159.457
 20
13.6178
 30
0.0
 11
160.256
 21
13.6178
 31
0.0
  0
LINE
  8
0
 62
     0
 10
160.256
 20
13.6178
 30
0.0
 11
160.256
 21
12.6173
 31
0.0
  0
LINE
  8
0
 62
     0
 10
160.256
 20
12.6173
 30
0.0
 11
174.257
 21
12.6173
 31
0.0
  0
LINE
  8
0
 62
     0
 10
174.257
 20
12.6173
 30
0.0
 11
174.257
 21
13.6178
 31
0.0
  0
LINE
  8
0
 62
     0
 10
174.257
 20
13.6178
 30
0.0
 11
175.056
 21
13.6178
 31
0.0
  0
LINE
  8
0
 62
     0
 10
175.056
 20
13.6178
 30
0.0
 11
175.056
 21
16.717
 31
0.0
  0
LINE
  8
0
 62
     0
 10
175.056
 20
16.717
 30
0.0
 11
174.257
 21
16.717
 31
0.0
  0
LINE
  8
0
 62
     0
 10
174.257
 20
16.717
 30
0.0
 11
174.257
 21
17.3178
 31
0.0
  0
LINE
  8
0
 62
     0
 10
174.257
 20
17.3178
 30
0.0
 11
175.781
 21
17.3178
 31
0.0
  0
LINE
  8
0
 62
     0
 10
175.781
 20
17.3178
 30
0.0
 11
175.781
 21
12.8475
 31
0.0
  0
LINE
  8
0
 62
     0
 10
175.781
 20
12.8475
 30
0.0
 11
177.506
 21
12.8475
 31
0.0
  0
LINE
  8
0
 62
     0
 10
177.506
 20
12.8475
 30
0.0
 11
177.506
 21
11.8677
 31
0.0
  0
LINE
  8
0
 62
     0
 10
177.506
 20
11.8677
 30
0.0
 11
180.807
 21
11.8677
 31
0.0
  0
LINE
  8
0
 62
     0
 10
180.807
 20
11.8677
 30
0.0
 11
180.807
 21
12.8475
 31
0.0
  0
LINE
  8
0
 62
     0
 10
180.807
 20
12.8475
 30
0.0
 11
182.532
 21
12.8475
 31
0.0
  0
LINE
  8
0
 62
     0
 10
182.532
 20
12.8475
 30
0.0
 11
182.532
 21
19.1189
 31
0.0
  0
LINE
  8
0
 62
     0
 10
182.532
 20
19.1189
 30
0.0
 11
183.356
 21
19.1189
 31
0.0
  0
LINE
  8
0
 62
     0
 10
183.356
 20
19.1189
 30
0.0
 11
183.356
 21
21.9177
 31
0.0
  0
LINE
  8
0
 62
     0
 10
183.356
 20
21.9177
 30
0.0
 11
182.532
 21
21.9177
 31
0.0
  0
LINE
  8
0
 62
     0
 10
182.532
 20
21.9177
 30
0.0
 11
182.532
 21
25.1478
 31
0.0
  0
LINE
  8
0
 62
     0
 10
182.532
 20
25.1478
 30
0.0
 11
180.807
 21
25.1478
 31
0.0
  0
LINE
  8
0
 62
     0
 10
180.807
 20
25.1478
 30
0.0
 11
180.807
 21
26.0683
 31
0.0
  0
LINE
  8
0
 62
     0
 10
180.807
 20
26.0683
 30
0.0
 11
177.506
 21
26.0683
 31
0.0
  0
LINE
  8
0
 62
     0
 10
177.506
 20
26.0683
 30
0.0
 11
177.506
 21
25.1478
 31
0.0
  0
LINE
  8
0
 62
     0
 10
177.506
 20
25.1478
 30
0.0
 11
175.781
 21
25.1478
 31
0.0
  0
LINE
  8
0
 62
     0
 10
175.781
 20
25.1478
 30
0.0
 11
175.781
 21
21.9177
 31
0.0
  0
LINE
  8
0
 62
     0
 10
175.781
 20
21.9177
 30
0.0
 11
174.257
 21
21.9177
 31
0.0
  0
LINE
  8
0
 62
     0
 10
174.257
 20
21.9177
 30
0.0
 11
174.257
 21
22.5185
 31
0.0
  0
LINE
  8
0
 62
     0
 10
174.257
 20
22.5185
 30
0.0
 11
175.056
 21
22.5185
 31
0.0
  0
LINE
  8
0
 62
     0
 10
175.056
 20
22.5185
 30
0.0
 11
175.056
 21
25.6191
 31
0.0
  0
LINE
  8
0
 62
     0
 10
175.056
 20
25.6191
 30
0.0
 11
174.257
 21
25.6191
 31
0.0
  0
LINE
  8
0
 62
     0
 10
174.257
 20
25.6191
 30
0.0
 11
174.257
 21
26.6182
 31
0.0
  0
LINE
  8
0
 62
     0
 10
174.257
 20
26.6182
 30
0.0
 11
160.256
 21
26.6182
 31
0.0
  0
LINE
  8
0
 62
     0
 10
15.0013
 20
26.6182
 30
0.0
 11
15.0013
 21
25.6191
 31
0.0
  0
LINE
  8
0
 62
     0
 10
15.0013
 20
25.6191
 30
0.0
 11
14.2007
 21
25.6191
 31
0.0
  0
LINE
  8
0
 62
     0
 10
14.2007
 20
25.6191
 30
0.0
 11
14.2007
 21
22.5185
 31
0.0
  0
LINE
  8
0
 62
     0
 10
14.2007
 20
22.5185
 30
0.0
 11
15.0013
 21
22.5185
 31
0.0
  0
LINE
  8
0
 62
     0
 10
15.0013
 20
22.5185
 30
0.0
 11
15.0013
 21
16.717
 31
0.0
  0
LINE
  8
0
 62
     0
 10
15.0013
 20
16.717
 30
0.0
 11
14.2007
 21
16.717
 31
0.0
  0
LINE
  8
0
 62
     0
 10
14.2007
 20
16.717
 30
0.0
 11
14.2007
 21
13.6178
 31
0.0
  0
LINE
  8
0
 62
     0
 10
14.2007
 20
13.6178
 30
0.0
 11
15.0013
 21
13.6178
 31
0.0
  0
LINE
  8
0
 62
     0
 10
15.0013
 20
13.6178
 30
0.0
 11
15.0013
 21
12.6173
 31
0.0
  0
LINE
  8
0
 62
     0
 10
15.0013
 20
12.6173
 30
0.0
 11
29.0008
 21
12.6173
 31
0.0
  0
LINE
  8
0
 62
     0
 10
29.0008
 20
12.6173
 30
0.0
 11
29.0008
 21
13.6178
 31
0.0
  0
LINE
  8
0
 62
     0
 10
29.0008
 20
13.6178
 30
0.0
 11
29.8001
 21
13.6178
 31
0.0
  0
LINE
  8
0
 62
     0
 10
29.8001
 20
13.6178
 30
0.0
 11
29.8001
 21
16.717
 31
0.0
  0
LINE
  8
0
 62
     0
 10
29.8001
 20
16.717
 30
0.0
 11
29.0008
 21
16.717
 31
0.0
  0
LINE
  8
0
 62
     0
 10
29.0008
 20
16.717
 30
0.0
 11
29.0008
 21
22.5185
 31
0.0
  0
LINE
  8
0
 62
     0
 10
29.0008
 20
22.5185
 30
0.0
 11
29.8001
 21
22.5185
 31
0.0
  0
LINE
  8
0
 62
     0
 10
29.8001
 20
22.5185
 30
0.0
 11
29.8001
 21
25.6191
 31
0.0
  0
LINE
  8
0
 62
     0
 10
29.8001
 20
25.6191
 30
0.0
 11
29.0008
 21
25.6191
 31
0.0
  0
LINE
  8
0
 62
     0
 10
29.0008
 20
25.6191
 30
0.0
 11
29.0008
 21
26.6182
 31
0.0
  0
LINE
  8
0
 62
     0
 10
29.0008
 20
26.6182
 30
0.0
 11
15.0013
 21
26.6182
 31
0.0
  0
LINE
  8
0
 62
     0
 10
36.4314
 20
26.6182
 30
0.0
 11
36.4314
 21
25.6191
 31
0.0
  0
LINE
  8
0
 62
     0
 10
36.4314
 20
25.6191
 30
0.0
 11
35.632
 21
25.6191
 31
0.0
  0
LINE
  8
0
 62
     0
 10
35.632
 20
25.6191
 30
0.0
 11
35.632
 21
22.5185
 31
0.0
  0
LINE
  8
0
 62
     0
 10
35.632
 20
22.5185
 30
0.0
 11
36.4314
 21
22.5185
 31
0.0
  0
LINE
  8
0
 62
     0
 10
36.4314
 20
22.5185
 30
0.0
 11
36.4314
 21
16.717
 31
0.0
  0
LINE
  8
0
 62
     0
 10
36.4314
 20
16.717
 30
0.0
 11
35.632
 21
16.717
 31
0.0
  0
LINE
  8
0
 62
     0
 10
35.632
 20
16.717
 30
0.0
 11
35.632
 21
13.6178
 31
0.0
  0
LINE
  8
0
 62
     0
 10
35.632
 20
13.6178
 30
0.0
 11
36.4314
 21
13.6178
 31
0.0
  0
LINE
  8
0
 62
     0
 10
36.4314
 20
13.6178
 30
0.0
 11
36.4314
 21
12.6173
 31
0.0
  0
LINE
  8
0
 62
     0
 10
36.4314
 20
12.6173
 30
0.0
 11
50.4321
 21
12.6173
 31
0.0
  0
LINE
  8
0
 62
     0
 10
50.4321
 20
12.6173
 30
0.0
 11
50.4321
 21
13.6178
 31
0.0
  0
LINE
  8
0
 62
     0
 10
50.4321
 20
13.6178
 30
0.0
 11
51.2314
 21
13.6178
 31
0.0
  0
LINE
  8
0
 62
     0
 10
51.2314
 20
13.6178
 30
0.0
 11
51.2314
 21
16.717
 31
0.0
  0
LINE
  8
0
 62
     0
 10
51.2314
 20
16.717
 30
0.0
 11
50.4321
 21
16.717
 31
0.0
  0
LINE
  8
0
 62
     0
 10
50.4321
 20
16.717
 30
0.0
 11
50.4321
 21
22.5185
 31
0.0
  0
LINE
  8
0
 62
     0
 10
50.4321
 20
22.5185
 30
0.0
 11
51.2314
 21
22.5185
 31
0.0
  0
LINE
  8
0
 62
     0
 10
51.2314
 20
22.5185
 30
0.0
 11
51.2314
 21
25.6191
 31
0.0
  0
LINE
  8
0
 62
     0
 10
51.2314
 20
25.6191
 30
0.0
 11
50.4321
 21
25.6191
 31
0.0
  0
LINE
  8
0
 62
     0
 10
50.4321
 20
25.6191
 30
0.0
 11
50.4321
 21
26.6182
 31
0.0
  0
LINE
  8
0
 62
     0
 10
50.4321
 20
26.6182
 30
0.0
 11
36.4314
 21
26.6182
 31
0.0
  0
LINE
  8
0
 62
     0
 10
55.4814
 20
26.6182
 30
0.0
 11
55.4814
 21
25.6191
 31
0.0
  0
LINE
  8
0
 62
     0
 10
55.4814
 20
25.6191
 30
0.0
 11
54.682
 21
25.6191
 31
0.0
  0
LINE
  8
0
 62
     0
 10
54.682
 20
25.6191
 30
0.0
 11
54.682
 21
22.5185
 31
0.0
  0
LINE
  8
0
 62
     0
 10
54.682
 20
22.5185
 30
0.0
 11
55.4814
 21
22.5185
 31
0.0
  0
LINE
  8
0
 62
     0
 10
55.4814
 20
22.5185
 30
0.0
 11
55.4814
 21
16.717
 31
0.0
  0
LINE
  8
0
 62
     0
 10
55.4814
 20
16.717
 30
0.0
 11
54.682
 21
16.717
 31
0.0
  0
LINE
  8
0
 62
     0
 10
54.682
 20
16.717
 30
0.0
 11
54.682
 21
13.6178
 31
0.0
  0
LINE
  8
0
 62
     0
 10
54.682
 20
13.6178
 30
0.0
 11
55.4814
 21
13.6178
 31
0.0
  0
LINE
  8
0
 62
     0
 10
55.4814
 20
13.6178
 30
0.0
 11
55.4814
 21
12.6173
 31
0.0
  0
LINE
  8
0
 62
     0
 10
55.4814
 20
12.6173
 30
0.0
 11
69.4821
 21
12.6173
 31
0.0
  0
LINE
  8
0
 62
     0
 10
69.4821
 20
12.6173
 30
0.0
 11
69.4821
 21
13.6178
 31
0.0
  0
LINE
  8
0
 62
     0
 10
69.4821
 20
13.6178
 30
0.0
 11
70.2815
 21
13.6178
 31
0.0
  0
LINE
  8
0
 62
     0
 10
70.2815
 20
13.6178
 30
0.0
 11
70.2815
 21
16.717
 31
0.0
  0
LINE
  8
0
 62
     0
 10
70.2815
 20
16.717
 30
0.0
 11
69.4821
 21
16.717
 31
0.0
  0
LINE
  8
0
 62
     0
 10
69.4821
 20
16.717
 30
0.0
 11
69.4821
 21
22.5185
 31
0.0
  0
LINE
  8
0
 62
     0
 10
69.4821
 20
22.5185
 30
0.0
 11
70.2815
 21
22.5185
 31
0.0
  0
LINE
  8
0
 62
     0
 10
70.2815
 20
22.5185
 30
0.0
 11
70.2815
 21
25.6191
 31
0.0
  0
LINE
  8
0
 62
     0
 10
70.2815
 20
25.6191
 30
0.0
 11
69.4821
 21
25.6191
 31
0.0
  0
LINE
  8
0
 62
     0
 10
69.4821
 20
25.6191
 30
0.0
 11
69.4821
 21
26.6182
 31
0.0
  0
LINE
  8
0
 62
     0
 10
69.4821
 20
26.6182
 30
0.0
 11
55.4814
 21
26.6182
 31
0.0
  0
LINE
  8
0
 62
     0
 10
74.5314
 20
26.6182
 30
0.0
 11
74.5314
 21
25.6191
 31
0.0
  0
LINE
  8
0
 62
     0
 10
74.5314
 20
25.6191
 30
0.0
 11
73.732
 21
25.6191
 31
0.0
  0
LINE
  8
0
 62
     0
 10
73.732
 20
25.6191
 30
0.0
 11
73.732
 21
22.5185
 31
0.0
  0
LINE
  8
0
 62
     0
 10
73.732
 20
22.5185
 30
0.0
 11
74.5314
 21
22.5185
 31
0.0
  0
LINE
  8
0
 62
     0
 10
74.5314
 20
22.5185
 30
0.0
 11
74.5314
 21
16.717
 31
0.0
  0
LINE
  8
0
 62
     0
 10
74.5314
 20
16.717
 30
0.0
 11
73.732
 21
16.717
 31
0.0
  0
LINE
  8
0
 62
     0
 10
73.732
 20
16.717
 30
0.0
 11
73.732
 21
13.6178
 31
0.0
  0
LINE
  8
0
 62
     0
 10
73.732
 20
13.6178
 30
0.0
 11
74.5314
 21
13.6178
 31
0.0
  0
LINE
  8
0
 62
     0
 10
74.5314
 20
13.6178
 30
0.0
 11
74.5314
 21
12.6173
 31
0.0
  0
LINE
  8
0
 62
     0
 10
74.5314
 20
12.6173
 30
0.0
 11
88.5321
 21
12.6173
 31
0.0
  0
LINE
  8
0
 62
     0
 10
88.5321
 20
12.6173
 30
0.0
 11
88.5321
 21
13.6178
 31
0.0
  0
LINE
  8
0
 62
     0
 10
88.5321
 20
13.6178
 30
0.0
 11
89.3315
 21
13.6178
 31
0.0
  0
LINE
  8
0
 62
     0
 10
89.3315
 20
13.6178
 30
0.0
 11
89.3315
 21
16.717
 31
0.0
  0
LINE
  8
0
 62
     0
 10
89.3315
 20
16.717
 30
0.0
 11
88.5321
 21
16.717
 31
0.0
  0
LINE
  8
0
 62
     0
 10
88.5321
 20
16.717
 30
0.0
 11
88.5321
 21
22.5185
 31
0.0
  0
LINE
  8
0
 62
     0
 10
88.5321
 20
22.5185
 30
0.0
 11
89.3315
 21
22.5185
 31
0.0
  0
LINE
  8
0
 62
     0
 10
89.3315
 20
22.5185
 30
0.0
 11
89.3315
 21
25.6191
 31
0.0
  0
LINE
  8
0
 62
     0
 10
89.3315
 20
25.6191
 30
0.0
 11
88.5321
 21
25.6191
 31
0.0
  0
LINE
  8
0
 62
     0
 10
88.5321
 20
25.6191
 30
0.0
 11
88.5321
 21
26.6182
 31
0.0
  0
LINE
  8
0
 62
     0
 10
88.5321
 20
26.6182
 30
0.0
 11
74.5314
 21
26.6182
 31
0.0
  0
LINE
  8
0
 62
     0
 10
188.831
 20
26.6182
 30
0.0
 11
188.831
 21
25.6191
 31
0.0
  0
LINE
  8
0
 62
     0
 10
188.831
 20
25.6191
 30
0.0
 11
188.032
 21
25.6191
 31
0.0
  0
LINE
  8
0
 62
     0
 10
188.032
 20
25.6191
 30
0.0
 11
188.032
 21
22.5185
 31
0.0
  0
LINE
  8
0
 62
     0
 10
188.032
 20
22.5185
 30
0.0
 11
188.831
 21
22.5185
 31
0.0
  0
LINE
  8
0
 62
     0
 10
188.831
 20
22.5185
 30
0.0
 11
188.831
 21
16.717
 31
0.0
  0
LINE
  8
0
 62
     0
 10
188.831
 20
16.717
 30
0.0
 11
188.032
 21
16.717
 31
0.0
  0
LINE
  8
0
 62
     0
 10
188.032
 20
16.717
 30
0.0
 11
188.032
 21
13.6178
 31
0.0
  0
LINE
  8
0
 62
     0
 10
188.032
 20
13.6178
 30
0.0
 11
188.831
 21
13.6178
 31
0.0
  0
LINE
  8
0
 62
     0
 10
188.831
 20
13.6178
 30
0.0
 11
188.831
 21
12.6173
 31
0.0
  0
LINE
  8
0
 62
     0
 10
188.831
 20
12.6173
 30
0.0
 11
202.832
 21
12.6173
 31
0.0
  0
LINE
  8
0
 62
     0
 10
202.832
 20
12.6173
 30
0.0
 11
202.832
 21
13.6178
 31
0.0
  0
LINE
  8
0
 62
     0
 10
202.832
 20
13.6178
 30
0.0
 11
203.631
 21
13.6178
 31
0.0
  0
LINE
  8
0
 62
     0
 10
203.631
 20
13.6178
 30
0.0
 11
203.631
 21
16.717
 31
0.0
  0
LINE
  8
0
 62
     0
 10
203.631
 20
16.717
 30
0.0
 11
202.832
 21
16.717
 31
0.0
  0
LINE
  8
0
 62
     0
 10
202.832
 20
16.717
 30
0.0
 11
202.832
 21
22.5185
 31
0.0
  0
LINE
  8
0
 62
     0
 10
202.832
 20
22.5185
 30
0.0
 11
203.631
 21
22.5185
 31
0.0
  0
LINE
  8
0
 62
     0
 10
203.631
 20
22.5185
 30
0.0
 11
203.631
 21
25.6191
 31
0.0
  0
LINE
  8
0
 62
     0
 10
203.631
 20
25.6191
 30
0.0
 11
202.832
 21
25.6191
 31
0.0
  0
LINE
  8
0
 62
     0
 10
202.832
 20
25.6191
 30
0.0
 11
202.832
 21
26.6182
 31
0.0
  0
LINE
  8
0
 62
     0
 10
202.832
 20
26.6182
 30
0.0
 11
188.831
 21
26.6182
 31
0.0
  0
LINE
  8
0
 62
     0
 10
207.881
 20
26.6182
 30
0.0
 11
207.881
 21
25.6191
 31
0.0
  0
LINE
  8
0
 62
     0
 10
207.881
 20
25.6191
 30
0.0
 11
207.082
 21
25.6191
 31
0.0
  0
LINE
  8
0
 62
     0
 10
207.082
 20
25.6191
 30
0.0
 11
207.082
 21
22.5185
 31
0.0
  0
LINE
  8
0
 62
     0
 10
207.082
 20
22.5185
 30
0.0
 11
207.881
 21
22.5185
 31
0.0
  0
LINE
  8
0
 62
     0
 10
207.881
 20
22.5185
 30
0.0
 11
207.881
 21
16.717
 31
0.0
  0
LINE
  8
0
 62
     0
 10
207.881
 20
16.717
 30
0.0
 11
207.082
 21
16.717
 31
0.0
  0
LINE
  8
0
 62
     0
 10
207.082
 20
16.717
 30
0.0
 11
207.082
 21
13.6178
 31
0.0
  0
LINE
  8
0
 62
     0
 10
207.082
 20
13.6178
 30
0.0
 11
207.881
 21
13.6178
 31
0.0
  0
LINE
  8
0
 62
     0
 10
207.881
 20
13.6178
 30
0.0
 11
207.881
 21
12.6173
 31
0.0
  0
LINE
  8
0
 62
     0
 10
207.881
 20
12.6173
 30
0.0
 11
221.882
 21
12.6173
 31
0.0
  0
LINE
  8
0
 62
     0
 10
221.882
 20
12.6173
 30
0.0
 11
221.882
 21
13.6178
 31
0.0
  0
LINE
  8
0
 62
     0
 10
221.882
 20
13.6178
 30
0.0
 11
222.681
 21
13.6178
 31
0.0
  0
LINE
  8
0
 62
     0
 10
222.681
 20
13.6178
 30
0.0
 11
222.681
 21
16.717
 31
0.0
  0
LINE
  8
0
 62
     0
 10
222.681
 20
16.717
 30
0.0
 11
221.882
 21
16.717
 31
0.0
  0
LINE
  8
0
 62
     0
 10
221.882
 20
16.717
 30
0.0
 11
221.882
 21
22.5185
 31
0.0
  0
LINE
  8
0
 62
     0
 10
221.882
 20
22.5185
 30
0.0
 11
222.681
 21
22.5185
 31
0.0
  0
LINE
  8
0
 62
     0
 10
222.681
 20
22.5185
 30
0.0
 11
222.681
 21
25.6191
 31
0.0
  0
LINE
  8
0
 62
     0
 10
222.681
 20
25.6191
 30
0.0
 11
221.882
 21
25.6191
 31
0.0
  0
LINE
  8
0
 62
     0
 10
221.882
 20
25.6191
 30
0.0
 11
221.882
 21
26.6182
 31
0.0
  0
LINE
  8
0
 62
     0
 10
221.882
 20
26.6182
 30
0.0
 11
207.881
 21
26.6182
 31
0.0
  0
LINE
  8
0
 62
     0
 10
226.931
 20
26.6182
 30
0.0
 11
226.931
 21
25.6191
 31
0.0
  0
LINE
  8
0
 62
     0
 10
226.931
 20
25.6191
 30
0.0
 11
226.132
 21
25.6191
 31
0.0
  0
LINE
  8
0
 62
     0
 10
226.132
 20
25.6191
 30
0.0
 11
226.132
 21
22.5185
 31
0.0
  0
LINE
  8
0
 62
     0
 10
226.132
 20
22.5185
 30
0.0
 11
226.931
 21
22.5185
 31
0.0
  0
LINE
  8
0
 62
     0
 10
226.931
 20
22.5185
 30
0.0
 11
226.931
 21
16.717
 31
0.0
  0
LINE
  8
0
 62
     0
 10
226.931
 20
16.717
 30
0.0
 11
226.132
 21
16.717
 31
0.0
  0
LINE
  8
0
 62
     0
 10
226.132
 20
16.717
 30
0.0
 11
226.132
 21
13.6178
 31
0.0
  0
LINE
  8
0
 62
     0
 10
226.132
 20
13.6178
 30
0.0
 11
226.931
 21
13.6178
 31
0.0
  0
LINE
  8
0
 62
     0
 10
226.931
 20
13.6178
 30
0.0
 11
226.931
 21
12.6173
 31
0.0
  0
LINE
  8
0
 62
     0
 10
226.931
 20
12.6173
 30
0.0
 11
240.932
 21
12.6173
 31
0.0
  0
LINE
  8
0
 62
     0
 10
240.932
 20
12.6173
 30
0.0
 11
240.932
 21
13.6178
 31
0.0
  0
LINE
  8
0
 62
     0
 10
240.932
 20
13.6178
 30
0.0
 11
241.731
 21
13.6178
 31
0.0
  0
LINE
  8
0
 62
     0
 10
241.731
 20
13.6178
 30
0.0
 11
241.731
 21
16.717
 31
0.0
  0
LINE
  8
0
 62
     0
 10
241.731
 20
16.717
 30
0.0
 11
240.932
 21
16.717
 31
0.0
  0
LINE
  8
0
 62
     0
 10
240.932
 20
16.717
 30
0.0
 11
240.932
 21
22.5185
 31
0.0
  0
LINE
  8
0
 62
     0
 10
240.932
 20
22.5185
 30
0.0
 11
241.731
 21
22.5185
 31
0.0
  0
LINE
  8
0
 62
     0
 10
241.731
 20
22.5185
 30
0.0
 11
241.731
 21
25.6191
 31
0.0
  0
LINE
  8
0
 62
     0
 10
241.731
 20
25.6191
 30
0.0
 11
240.932
 21
25.6191
 31
0.0
  0
LINE
  8
0
 62
     0
 10
240.932
 20
25.6191
 30
0.0
 11
240.932
 21
26.6182
 31
0.0
  0
LINE
  8
0
 62
     0
 10
240.932
 20
26.6182
 30
0.0
 11
226.931
 21
26.6182
 31
0.0
  0
LINE
  8
0
 62
     0
 10
245.981
 20
26.6182
 30
0.0
 11
245.981
 21
25.6191
 31
0.0
  0
LINE
  8
0
 62
     0
 10
245.981
 20
25.6191
 30
0.0
 11
245.182
 21
25.6191
 31
0.0
  0
LINE
  8
0
 62
     0
 10
245.182
 20
25.6191
 30
0.0
 11
245.182
 21
22.5185
 31
0.0
  0
LINE
  8
0
 62
     0
 10
245.182
 20
22.5185
 30
0.0
 11
245.981
 21
22.5185
 31
0.0
  0
LINE
  8
0
 62
     0
 10
245.981
 20
22.5185
 30
0.0
 11
245.981
 21
16.717
 31
0.0
  0
LINE
  8
0
 62
     0
 10
245.981
 20
16.717
 30
0.0
 11
245.182
 21
16.717
 31
0.0
  0
LINE
  8
0
 62
     0
 10
245.182
 20
16.717
 30
0.0
 11
245.182
 21
13.6178
 31
0.0
  0
LINE
  8
0
 62
     0
 10
245.182
 20
13.6178
 30
0.0
 11
245.981
 21
13.6178
 31
0.0
  0
LINE
  8
0
 62
     0
 10
245.981
 20
13.6178
 30
0.0
 11
245.981
 21
12.6173
 31
0.0
  0
LINE
  8
0
 62
     0
 10
245.981
 20
12.6173
 30
0.0
 11
259.982
 21
12.6173
 31
0.0
  0
LINE
  8
0
 62
     0
 10
259.982
 20
12.6173
 30
0.0
 11
259.982
 21
13.6178
 31
0.0
  0
LINE
  8
0
 62
     0
 10
259.982
 20
13.6178
 30
0.0
 11
260.781
 21
13.6178
 31
0.0
  0
LINE
  8
0
 62
     0
 10
260.781
 20
13.6178
 30
0.0
 11
260.781
 21
16.717
 31
0.0
  0
LINE
  8
0
 62
     0
 10
260.781
 20
16.717
 30
0.0
 11
259.982
 21
16.717
 31
0.0
  0
LINE
  8
0
 62
     0
 10
259.982
 20
16.717
 30
0.0
 11
259.982
 21
22.5185
 31
0.0
  0
LINE
  8
0
 62
     0
 10
259.982
 20
22.5185
 30
0.0
 11
260.781
 21
22.5185
 31
0.0
  0
LINE
  8
0
 62
     0
 10
260.781
 20
22.5185
 30
0.0
 11
260.781
 21
25.6191
 31
0.0
  0
LINE
  8
0
 62
     0
 10
260.781
 20
25.6191
 30
0.0
 11
259.982
 21
25.6191
 31
0.0
  0
LINE
  8
0
 62
     0
 10
259.982
 20
25.6191
 30
0.0
 11
259.982
 21
26.6182
 31
0.0
  0
LINE
  8
0
 62
     0
 10
259.982
 20
26.6182
 30
0.0
 11
245.981
 21
26.6182
 31
0.0
  0
LINE
  8
0
 62
     0
 10
272.176
 20
26.6182
 30
0.0
 11
272.176
 21
25.6191
 31
0.0
  0
LINE
  8
0
 62
     0
 10
272.176
 20
25.6191
 30
0.0
 11
271.376
 21
25.6191
 31
0.0
  0
LINE
  8
0
 62
     0
 10
271.376
 20
25.6191
 30
0.0
 11
271.376
 21
22.5185
 31
0.0
  0
LINE
  8
0
 62
     0
 10
271.376
 20
22.5185
 30
0.0
 11
272.176
 21
22.5185
 31
0.0
  0
LINE
  8
0
 62
     0
 10
272.176
 20
22.5185
 30
0.0
 11
272.176
 21
16.717
 31
0.0
  0
LINE
  8
0
 62
     0
 10
272.176
 20
16.717
 30
0.0
 11
271.376
 21
16.717
 31
0.0
  0
LINE
  8
0
 62
     0
 10
271.376
 20
16.717
 30
0.0
 11
271.376
 21
13.6178
 31
0.0
  0
LINE
  8
0
 62
     0
 10
271.376
 20
13.6178
 30
0.0
 11
272.176
 21
13.6178
 31
0.0
  0
LINE
  8
0
 62
     0
 10
272.176
 20
13.6178
 30
0.0
 11
272.176
 21
12.6173
 31
0.0
  0
LINE
  8
0
 62
     0
 10
272.176
 20
12.6173
 30
0.0
 11
286.176
 21
12.6173
 31
0.0
  0
LINE
  8
0
 62
     0
 10
286.176
 20
12.6173
 30
0.0
 11
286.176
 21
13.6178
 31
0.0
  0
LINE
  8
0
 62
     0
 10
286.176
 20
13.6178
 30
0.0
 11
286.975
 21
13.6178
 31
0.0
  0
LINE
  8
0
 62
     0
 10
286.975
 20
13.6178
 30
0.0
 11
286.975
 21
16.717
 31
0.0
  0
LINE
  8
0
 62
     0
 10
286.975
 20
16.717
 30
0.0
 11
286.176
 21
16.717
 31
0.0
  0
LINE
  8
0
 62
     0
 10
286.176
 20
16.717
 30
0.0
 11
286.176
 21
22.5185
 31
0.0
  0
LINE
  8
0
 62
     0
 10
286.176
 20
22.5185
 30
0.0
 11
286.975
 21
22.5185
 31
0.0
  0
LINE
  8
0
 62
     0
 10
286.975
 20
22.5185
 30
0.0
 11
286.975
 21
25.6191
 31
0.0
  0
LINE
  8
0
 62
     0
 10
286.975
 20
25.6191
 30
0.0
 11
286.176
 21
25.6191
 31
0.0
  0
LINE
  8
0
 62
     0
 10
286.176
 20
25.6191
 30
0.0
 11
286.176
 21
26.6182
 31
0.0
  0
LINE
  8
0
 62
     0
 10
286.176
 20
26.6182
 30
0.0
 11
272.176
 21
26.6182
 31
0.0
  0
LINE
  8
0
 62
     0
 10
15.0013
 20
45.6681
 30
0.0
 11
15.0013
 21
44.6691
 31
0.0
  0
LINE
  8
0
 62
     0
 10
15.0013
 20
44.6691
 30
0.0
 11
14.2007
 21
44.6691
 31
0.0
  0
LINE
  8
0
 62
     0
 10
14.2007
 20
44.6691
 30
0.0
 11
14.2007
 21
41.5685
 31
0.0
  0
LINE
  8
0
 62
     0
 10
14.2007
 20
41.5685
 30
0.0
 11
15.0013
 21
41.5685
 31
0.0
  0
LINE
  8
0
 62
     0
 10
15.0013
 20
41.5685
 30
0.0
 11
15.0013
 21
35.7671
 31
0.0
  0
LINE
  8
0
 62
     0
 10
15.0013
 20
35.7671
 30
0.0
 11
14.2007
 21
35.7671
 31
0.0
  0
LINE
  8
0
 62
     0
 10
14.2007
 20
35.7671
 30
0.0
 11
14.2007
 21
32.6678
 31
0.0
  0
LINE
  8
0
 62
     0
 10
14.2007
 20
32.6678
 30
0.0
 11
15.0013
 21
32.6678
 31
0.0
  0
LINE
  8
0
 62
     0
 10
15.0013
 20
32.6678
 30
0.0
 11
15.0013
 21
31.6673
 31
0.0
  0
LINE
  8
0
 62
     0
 10
15.0013
 20
31.6673
 30
0.0
 11
29.0008
 21
31.6673
 31
0.0
  0
LINE
  8
0
 62
     0
 10
29.0008
 20
31.6673
 30
0.0
 11
29.0008
 21
32.6678
 31
0.0
  0
LINE
  8
0
 62
     0
 10
29.0008
 20
32.6678
 30
0.0
 11
29.8001
 21
32.6678
 31
0.0
  0
LINE
  8
0
 62
     0
 10
29.8001
 20
32.6678
 30
0.0
 11
29.8001
 21
35.7671
 31
0.0
  0
LINE
  8
0
 62
     0
 10
29.8001
 20
35.7671
 30
0.0
 11
29.0008
 21
35.7671
 31
0.0
  0
LINE
  8
0
 62
     0
 10
29.0008
 20
35.7671
 30
0.0
 11
29.0008
 21
41.5685
 31
0.0
  0
LINE
  8
0
 62
     0
 10
29.0008
 20
41.5685
 30
0.0
 11
29.8001
 21
41.5685
 31
0.0
  0
LINE
  8
0
 62
     0
 10
29.8001
 20
41.5685
 30
0.0
 11
29.8001
 21
44.6691
 31
0.0
  0
LINE
  8
0
 62
     0
 10
29.8001
 20
44.6691
 30
0.0
 11
29.0008
 21
44.6691
 31
0.0
  0
LINE
  8
0
 62
     0
 10
29.0008
 20
44.6691
 30
0.0
 11
29.0008
 21
45.6681
 31
0.0
  0
LINE
  8
0
 62
     0
 10
29.0008
 20
45.6681
 30
0.0
 11
15.0013
 21
45.6681
 31
0.0
  0
LINE
  8
0
 62
     0
 10
36.4314
 20
45.6681
 30
0.0
 11
36.4314
 21
44.6691
 31
0.0
  0
LINE
  8
0
 62
     0
 10
36.4314
 20
44.6691
 30
0.0
 11
35.632
 21
44.6691
 31
0.0
  0
LINE
  8
0
 62
     0
 10
35.632
 20
44.6691
 30
0.0
 11
35.632
 21
41.5685
 31
0.0
  0
LINE
  8
0
 62
     0
 10
35.632
 20
41.5685
 30
0.0
 11
36.4314
 21
41.5685
 31
0.0
  0
LINE
  8
0
 62
     0
 10
36.4314
 20
41.5685
 30
0.0
 11
36.4314
 21
35.7671
 31
0.0
  0
LINE
  8
0
 62
     0
 10
36.4314
 20
35.7671
 30
0.0
 11
35.632
 21
35.7671
 31
0.0
  0
LINE
  8
0
 62
     0
 10
35.632
 20
35.7671
 30
0.0
 11
35.632
 21
32.6678
 31
0.0
  0
LINE
  8
0
 62
     0
 10
35.632
 20
32.6678
 30
0.0
 11
36.4314
 21
32.6678
 31
0.0
  0
LINE
  8
0
 62
     0
 10
36.4314
 20
32.6678
 30
0.0
 11
36.4314
 21
31.6673
 31
0.0
  0
LINE
  8
0
 62
     0
 10
36.4314
 20
31.6673
 30
0.0
 11
50.4321
 21
31.6673
 31
0.0
  0
LINE
  8
0
 62
     0
 10
50.4321
 20
31.6673
 30
0.0
 11
50.4321
 21
32.6678
 31
0.0
  0
LINE
  8
0
 62
     0
 10
50.4321
 20
32.6678
 30
0.0
 11
51.2314
 21
32.6678
 31
0.0
  0
LINE
  8
0
 62
     0
 10
51.2314
 20
32.6678
 30
0.0
 11
51.2314
 21
35.7671
 31
0.0
  0
LINE
  8
0
 62
     0
 10
51.2314
 20
35.7671
 30
0.0
 11
50.4321
 21
35.7671
 31
0.0
  0
LINE
  8
0
 62
     0
 10
50.4321
 20
35.7671
 30
0.0
 11
50.4321
 21
41.5685
 31
0.0
  0
LINE
  8
0
 62
     0
 10
50.4321
 20
41.5685
 30
0.0
 11
51.2314
 21
41.5685
 31
0.0
  0
LINE
  8
0
 62
     0
 10
51.2314
 20
41.5685
 30
0.0
 11
51.2314
 21
44.6691
 31
0.0
  0
LINE
  8
0
 62
     0
 10
51.2314
 20
44.6691
 30
0.0
 11
50.4321
 21
44.6691
 31
0.0
  0
LINE
  8
0
 62
     0
 10
50.4321
 20
44.6691
 30
0.0
 11
50.4321
 21
45.6681
 31
0.0
  0
LINE
  8
0
 62
     0
 10
50.4321
 20
45.6681
 30
0.0
 11
36.4314
 21
45.6681
 31
0.0
  0
LINE
  8
0
 62
     0
 10
55.4814
 20
45.6681
 30
0.0
 11
55.4814
 21
44.6691
 31
0.0
  0
LINE
  8
0
 62
     0
 10
55.4814
 20
44.6691
 30
0.0
 11
54.682
 21
44.6691
 31
0.0
  0
LINE
  8
0
 62
     0
 10
54.682
 20
44.6691
 30
0.0
 11
54.682
 21
41.5685
 31
0.0
  0
LINE
  8
0
 62
     0
 10
54.682
 20
41.5685
 30
0.0
 11
55.4814
 21
41.5685
 31
0.0
  0
LINE
  8
0
 62
     0
 10
55.4814
 20
41.5685
 30
0.0
 11
55.4814
 21
35.7671
 31
0.0
  0
LINE
  8
0
 62
     0
 10
55.4814
 20
35.7671
 30
0.0
 11
54.682
 21
35.7671
 31
0.0
  0
LINE
  8
0
 62
     0
 10
54.682
 20
35.7671
 30
0.0
 11
54.682
 21
32.6678
 31
0.0
  0
LINE
  8
0
 62
     0
 10
54.682
 20
32.6678
 30
0.0
 11
55.4814
 21
32.6678
 31
0.0
  0
LINE
  8
0
 62
     0
 10
55.4814
 20
32.6678
 30
0.0
 11
55.4814
 21
31.6673
 31
0.0
  0
LINE
  8
0
 62
     0
 10
55.4814
 20
31.6673
 30
0.0
 11
69.4821
 21
31.6673
 31
0.0
  0
LINE
  8
0
 62
     0
 10
69.4821
 20
31.6673
 30
0.0
 11
69.4821
 21
32.6678
 31
0.0
  0
LINE
  8
0
 62
     0
 10
69.4821
 20
32.6678
 30
0.0
 11
70.2815
 21
32.6678
 31
0.0
  0
LINE
  8
0
 62
     0
 10
70.2815
 20
32.6678
 30
0.0
 11
70.2815
 21
35.7671
 31
0.0
  0
LINE
  8
0
 62
     0
 10
70.2815
 20
35.7671
 30
0.0
 11
69.4821
 21
35.7671
 31
0.0
  0
LINE
  8
0
 62
     0
 10
69.4821
 20
35.7671
 30
0.0
 11
69.4821
 21
41.5685
 31
0.0
  0
LINE
  8
0
 62
     0
 10
69.4821
 20
41.5685
 30
0.0
 11
70.2815
 21
41.5685
 31
0.0
  0
LINE
  8
0
 62
     0
 10
70.2815
 20
41.5685
 30
0.0
 11
70.2815
 21
44.6691
 31
0.0
  0
LINE
  8
0
 62
     0
 10
70.2815
 20
44.6691
 30
0.0
 11
69.4821
 21
44.6691
 31
0.0
  0
LINE
  8
0
 62
     0
 10
69.4821
 20
44.6691
 30
0.0
 11
69.4821
 21
45.6681
 31
0.0
  0
LINE
  8
0
 62
     0
 10
69.4821
 20
45.6681
 30
0.0
 11
55.4814
 21
45.6681
 31
0.0
  0
LINE
  8
0
 62
     0
 10
74.5314
 20
45.6681
 30
0.0
 11
74.5314
 21
44.6691
 31
0.0
  0
LINE
  8
0
 62
     0
 10
74.5314
 20
44.6691
 30
0.0
 11
73.732
 21
44.6691
 31
0.0
  0
LINE
  8
0
 62
     0
 10
73.732
 20
44.6691
 30
0.0
 11
73.732
 21
41.5685
 31
0.0
  0
LINE
  8
0
 62
     0
 10
73.732
 20
41.5685
 30
0.0
 11
74.5314
 21
41.5685
 31
0.0
  0
LINE
  8
0
 62
     0
 10
74.5314
 20
41.5685
 30
0.0
 11
74.5314
 21
35.7671
 31
0.0
  0
LINE
  8
0
 62
     0
 10
74.5314
 20
35.7671
 30
0.0
 11
73.732
 21
35.7671
 31
0.0
  0
LINE
  8
0
 62
     0
 10
73.732
 20
35.7671
 30
0.0
 11
73.732
 21
32.6678
 31
0.0
  0
LINE
  8
0
 62
     0
 10
73.732
 20
32.6678
 30
0.0
 11
74.5314
 21
32.6678
 31
0.0
  0
LINE
  8
0
 62
     0
 10
74.5314
 20
32.6678
 30
0.0
 11
74.5314
 21
31.6673
 31
0.0
  0
LINE
  8
0
 62
     0
 10
74.5314
 20
31.6673
 30
0.0
 11
88.5321
 21
31.6673
 31
0.0
  0
LINE
  8
0
 62
     0
 10
88.5321
 20
31.6673
 30
0.0
 11
88.5321
 21
32.6678
 31
0.0
  0
LINE
  8
0
 62
     0
 10
88.5321
 20
32.6678
 30
0.0
 11
89.3315
 21
32.6678
 31
0.0
  0
LINE
  8
0
 62
     0
 10
89.3315
 20
32.6678
 30
0.0
 11
89.3315
 21
35.7671
 31
0.0
  0
LINE
  8
0
 62
     0
 10
89.3315
 20
35.7671
 30
0.0
 11
88.5321
 21
35.7671
 31
0.0
  0
LINE
  8
0
 62
     0
 10
88.5321
 20
35.7671
 30
0.0
 11
88.5321
 21
41.5685
 31
0.0
  0
LINE
  8
0
 62
     0
 10
88.5321
 20
41.5685
 30
0.0
 11
89.3315
 21
41.5685
 31
0.0
  0
LINE
  8
0
 62
     0
 10
89.3315
 20
41.5685
 30
0.0
 11
89.3315
 21
44.6691
 31
0.0
  0
LINE
  8
0
 62
     0
 10
89.3315
 20
44.6691
 30
0.0
 11
88.5321
 21
44.6691
 31
0.0
  0
LINE
  8
0
 62
     0
 10
88.5321
 20
44.6691
 30
0.0
 11
88.5321
 21
45.6681
 31
0.0
  0
LINE
  8
0
 62
     0
 10
88.5321
 20
45.6681
 30
0.0
 11
74.5314
 21
45.6681
 31
0.0
  0
LINE
  8
0
 62
     0
 10
93.5814
 20
45.6681
 30
0.0
 11
93.5814
 21
44.6691
 31
0.0
  0
LINE
  8
0
 62
     0
 10
93.5814
 20
44.6691
 30
0.0
 11
92.782
 21
44.6691
 31
0.0
  0
LINE
  8
0
 62
     0
 10
92.782
 20
44.6691
 30
0.0
 11
92.782
 21
41.5685
 31
0.0
  0
LINE
  8
0
 62
     0
 10
92.782
 20
41.5685
 30
0.0
 11
93.5814
 21
41.5685
 31
0.0
  0
LINE
  8
0
 62
     0
 10
93.5814
 20
41.5685
 30
0.0
 11
93.5814
 21
35.7671
 31
0.0
  0
LINE
  8
0
 62
     0
 10
93.5814
 20
35.7671
 30
0.0
 11
92.782
 21
35.7671
 31
0.0
  0
LINE
  8
0
 62
     0
 10
92.782
 20
35.7671
 30
0.0
 11
92.782
 21
32.6678
 31
0.0
  0
LINE
  8
0
 62
     0
 10
92.782
 20
32.6678
 30
0.0
 11
93.5814
 21
32.6678
 31
0.0
  0
LINE
  8
0
 62
     0
 10
93.5814
 20
32.6678
 30
0.0
 11
93.5814
 21
31.6673
 31
0.0
  0
LINE
  8
0
 62
     0
 10
93.5814
 20
31.6673
 30
0.0
 11
107.582
 21
31.6673
 31
0.0
  0
LINE
  8
0
 62
     0
 10
107.582
 20
31.6673
 30
0.0
 11
107.582
 21
32.6678
 31
0.0
  0
LINE
  8
0
 62
     0
 10
107.582
 20
32.6678
 30
0.0
 11
108.381
 21
32.6678
 31
0.0
  0
LINE
  8
0
 62
     0
 10
108.381
 20
32.6678
 30
0.0
 11
108.381
 21
35.7671
 31
0.0
  0
LINE
  8
0
 62
     0
 10
108.381
 20
35.7671
 30
0.0
 11
107.582
 21
35.7671
 31
0.0
  0
LINE
  8
0
 62
     0
 10
107.582
 20
35.7671
 30
0.0
 11
107.582
 21
41.5685
 31
0.0
  0
LINE
  8
0
 62
     0
 10
107.582
 20
41.5685
 30
0.0
 11
108.381
 21
41.5685
 31
0.0
  0
LINE
  8
0
 62
     0
 10
108.381
 20
41.5685
 30
0.0
 11
108.381
 21
44.6691
 31
0.0
  0
LINE
  8
0
 62
     0
 10
108.381
 20
44.6691
 30
0.0
 11
107.582
 21
44.6691
 31
0.0
  0
LINE
  8
0
 62
     0
 10
107.582
 20
44.6691
 30
0.0
 11
107.582
 21
45.6681
 31
0.0
  0
LINE
  8
0
 62
     0
 10
107.582
 20
45.6681
 30
0.0
 11
93.5814
 21
45.6681
 31
0.0
  0
LINE
  8
0
 62
     0
 10
112.631
 20
45.6681
 30
0.0
 11
112.631
 21
44.6691
 31
0.0
  0
LINE
  8
0
 62
     0
 10
112.631
 20
44.6691
 30
0.0
 11
111.832
 21
44.6691
 31
0.0
  0
LINE
  8
0
 62
     0
 10
111.832
 20
44.6691
 30
0.0
 11
111.832
 21
41.5685
 31
0.0
  0
LINE
  8
0
 62
     0
 10
111.832
 20
41.5685
 30
0.0
 11
112.631
 21
41.5685
 31
0.0
  0
LINE
  8
0
 62
     0
 10
112.631
 20
41.5685
 30
0.0
 11
112.631
 21
35.7671
 31
0.0
  0
LINE
  8
0
 62
     0
 10
112.631
 20
35.7671
 30
0.0
 11
111.832
 21
35.7671
 31
0.0
  0
LINE
  8
0
 62
     0
 10
111.832
 20
35.7671
 30
0.0
 11
111.832
 21
32.6678
 31
0.0
  0
LINE
  8
0
 62
     0
 10
111.832
 20
32.6678
 30
0.0
 11
112.631
 21
32.6678
 31
0.0
  0
LINE
  8
0
 62
     0
 10
112.631
 20
32.6678
 30
0.0
 11
112.631
 21
31.6673
 31
0.0
  0
LINE
  8
0
 62
     0
 10
112.631
 20
31.6673
 30
0.0
 11
126.632
 21
31.6673
 31
0.0
  0
LINE
  8
0
 62
     0
 10
126.632
 20
31.6673
 30
0.0
 11
126.632
 21
32.6678
 31
0.0
  0
LINE
  8
0
 62
     0
 10
126.632
 20
32.6678
 30
0.0
 11
127.431
 21
32.6678
 31
0.0
  0
LINE
  8
0
 62
     0
 10
127.431
 20
32.6678
 30
0.0
 11
127.431
 21
35.7671
 31
0.0
  0
LINE
  8
0
 62
     0
 10
127.431
 20
35.7671
 30
0.0
 11
126.632
 21
35.7671
 31
0.0
  0
LINE
  8
0
 62
     0
 10
126.632
 20
35.7671
 30
0.0
 11
126.632
 21
41.5685
 31
0.0
  0
LINE
  8
0
 62
     0
 10
126.632
 20
41.5685
 30
0.0
 11
127.431
 21
41.5685
 31
0.0
  0
LINE
  8
0
 62
     0
 10
127.431
 20
41.5685
 30
0.0
 11
127.431
 21
44.6691
 31
0.0
  0
LINE
  8
0
 62
     0
 10
127.431
 20
44.6691
 30
0.0
 11
126.632
 21
44.6691
 31
0.0
  0
LINE
  8
0
 62
     0
 10
126.632
 20
44.6691
 30
0.0
 11
126.632
 21
45.6681
 31
0.0
  0
LINE
  8
0
 62
     0
 10
126.632
 20
45.6681
 30
0.0
 11
112.631
 21
45.6681
 31
0.0
  0
LINE
  8
0
 62
     0
 10
131.681
 20
45.6681
 30
0.0
 11
131.681
 21
44.6691
 31
0.0
  0
LINE
  8
0
 62
     0
 10
131.681
 20
44.6691
 30
0.0
 11
130.882
 21
44.6691
 31
0.0
  0
LINE
  8
0
 62
     0
 10
130.882
 20
44.6691
 30
0.0
 11
130.882
 21
41.5685
 31
0.0
  0
LINE
  8
0
 62
     0
 10
130.882
 20
41.5685
 30
0.0
 11
131.681
 21
41.5685
 31
0.0
  0
LINE
  8
0
 62
     0
 10
131.681
 20
41.5685
 30
0.0
 11
131.681
 21
35.7671
 31
0.0
  0
LINE
  8
0
 62
     0
 10
131.681
 20
35.7671
 30
0.0
 11
130.882
 21
35.7671
 31
0.0
  0
LINE
  8
0
 62
     0
 10
130.882
 20
35.7671
 30
0.0
 11
130.882
 21
32.6678
 31
0.0
  0
LINE
  8
0
 62
     0
 10
130.882
 20
32.6678
 30
0.0
 11
131.681
 21
32.6678
 31
0.0
  0
LINE
  8
0
 62
     0
 10
131.681
 20
32.6678
 30
0.0
 11
131.681
 21
31.6673
 31
0.0
  0
LINE
  8
0
 62
     0
 10
131.681
 20
31.6673
 30
0.0
 11
145.682
 21
31.6673
 31
0.0
  0
LINE
  8
0
 62
     0
 10
145.682
 20
31.6673
 30
0.0
 11
145.682
 21
32.6678
 31
0.0
  0
LINE
  8
0
 62
     0
 10
145.682
 20
32.6678
 30
0.0
 11
146.481
 21
32.6678
 31
0.0
  0
LINE
  8
0
 62
     0
 10
146.481
 20
32.6678
 30
0.0
 11
146.481
 21
35.7671
 31
0.0
  0
LINE
  8
0
 62
     0
 10
146.481
 20
35.7671
 30
0.0
 11
145.682
 21
35.7671
 31
0.0
  0
LINE
  8
0
 62
     0
 10
145.682
 20
35.7671
 30
0.0
 11
145.682
 21
41.5685
 31
0.0
  0
LINE
  8
0
 62
     0
 10
145.682
 20
41.5685
 30
0.0
 11
146.481
 21
41.5685
 31
0.0
  0
LINE
  8
0
 62
     0
 10
146.481
 20
41.5685
 30
0.0
 11
146.481
 21
44.6691
 31
0.0
  0
LINE
  8
0
 62
     0
 10
146.481
 20
44.6691
 30
0.0
 11
145.682
 21
44.6691
 31
0.0
  0
LINE
  8
0
 62
     0
 10
145.682
 20
44.6691
 30
0.0
 11
145.682
 21
45.6681
 31
0.0
  0
LINE
  8
0
 62
     0
 10
145.682
 20
45.6681
 30
0.0
 11
131.681
 21
45.6681
 31
0.0
  0
LINE
  8
0
 62
     0
 10
150.731
 20
45.6681
 30
0.0
 11
150.731
 21
44.6691
 31
0.0
  0
LINE
  8
0
 62
     0
 10
150.731
 20
44.6691
 30
0.0
 11
149.932
 21
44.6691
 31
0.0
  0
LINE
  8
0
 62
     0
 10
149.932
 20
44.6691
 30
0.0
 11
149.932
 21
41.5685
 31
0.0
  0
LINE
  8
0
 62
     0
 10
149.932
 20
41.5685
 30
0.0
 11
150.731
 21
41.5685
 31
0.0
  0
LINE
  8
0
 62
     0
 10
150.731
 20
41.5685
 30
0.0
 11
150.731
 21
35.7671
 31
0.0
  0
LINE
  8
0
 62
     0
 10
150.731
 20
35.7671
 30
0.0
 11
149.932
 21
35.7671
 31
0.0
  0
LINE
  8
0
 62
     0
 10
149.932
 20
35.7671
 30
0.0
 11
149.932
 21
32.6678
 31
0.0
  0
LINE
  8
0
 62
     0
 10
149.932
 20
32.6678
 30
0.0
 11
150.731
 21
32.6678
 31
0.0
  0
LINE
  8
0
 62
     0
 10
150.731
 20
32.6678
 30
0.0
 11
150.731
 21
31.6673
 31
0.0
  0
LINE
  8
0
 62
     0
 10
150.731
 20
31.6673
 30
0.0
 11
164.732
 21
31.6673
 31
0.0
  0
LINE
  8
0
 62
     0
 10
164.732
 20
31.6673
 30
0.0
 11
164.732
 21
32.6678
 31
0.0
  0
LINE
  8
0
 62
     0
 10
164.732
 20
32.6678
 30
0.0
 11
165.531
 21
32.6678
 31
0.0
  0
LINE
  8
0
 62
     0
 10
165.531
 20
32.6678
 30
0.0
 11
165.531
 21
35.7671
 31
0.0
  0
LINE
  8
0
 62
     0
 10
165.531
 20
35.7671
 30
0.0
 11
164.732
 21
35.7671
 31
0.0
  0
LINE
  8
0
 62
     0
 10
164.732
 20
35.7671
 30
0.0
 11
164.732
 21
41.5685
 31
0.0
  0
LINE
  8
0
 62
     0
 10
164.732
 20
41.5685
 30
0.0
 11
165.531
 21
41.5685
 31
0.0
  0
LINE
  8
0
 62
     0
 10
165.531
 20
41.5685
 30
0.0
 11
165.531
 21
44.6691
 31
0.0
  0
LINE
  8
0
 62
     0
 10
165.531
 20
44.6691
 30
0.0
 11
164.732
 21
44.6691
 31
0.0
  0
LINE
  8
0
 62
     0
 10
164.732
 20
44.6691
 30
0.0
 11
164.732
 21
45.6681
 31
0.0
  0
LINE
  8
0
 62
     0
 10
164.732
 20
45.6681
 30
0.0
 11
150.731
 21
45.6681
 31
0.0
  0
LINE
  8
0
 62
     0
 10
169.781
 20
45.6681
 30
0.0
 11
169.781
 21
44.6691
 31
0.0
  0
LINE
  8
0
 62
     0
 10
169.781
 20
44.6691
 30
0.0
 11
168.982
 21
44.6691
 31
0.0
  0
LINE
  8
0
 62
     0
 10
168.982
 20
44.6691
 30
0.0
 11
168.982
 21
41.5685
 31
0.0
  0
LINE
  8
0
 62
     0
 10
168.982
 20
41.5685
 30
0.0
 11
169.781
 21
41.5685
 31
0.0
  0
LINE
  8
0
 62
     0
 10
169.781
 20
41.5685
 30
0.0
 11
169.781
 21
35.7671
 31
0.0
  0
LINE
  8
0
 62
     0
 10
169.781
 20
35.7671
 30
0.0
 11
168.982
 21
35.7671
 31
0.0
  0
LINE
  8
0
 62
     0
 10
168.982
 20
35.7671
 30
0.0
 11
168.982
 21
32.6678
 31
0.0
  0
LINE
  8
0
 62
     0
 10
168.982
 20
32.6678
 30
0.0
 11
169.781
 21
32.6678
 31
0.0
  0
LINE
  8
0
 62
     0
 10
169.781
 20
32.6678
 30
0.0
 11
169.781
 21
31.6673
 31
0.0
  0
LINE
  8
0
 62
     0
 10
169.781
 20
31.6673
 30
0.0
 11
183.782
 21
31.6673
 31
0.0
  0
LINE
  8
0
 62
     0
 10
183.782
 20
31.6673
 30
0.0
 11
183.782
 21
32.6678
 31
0.0
  0
LINE
  8
0
 62
     0
 10
183.782
 20
32.6678
 30
0.0
 11
184.581
 21
32.6678
 31
0.0
  0
LINE
  8
0
 62
     0
 10
184.581
 20
32.6678
 30
0.0
 11
184.581
 21
35.7671
 31
0.0
  0
LINE
  8
0
 62
     0
 10
184.581
 20
35.7671
 30
0.0
 11
183.782
 21
35.7671
 31
0.0
  0
LINE
  8
0
 62
     0
 10
183.782
 20
35.7671
 30
0.0
 11
183.782
 21
41.5685
 31
0.0
  0
LINE
  8
0
 62
     0
 10
183.782
 20
41.5685
 30
0.0
 11
184.581
 21
41.5685
 31
0.0
  0
LINE
  8
0
 62
     0
 10
184.581
 20
41.5685
 30
0.0
 11
184.581
 21
44.6691
 31
0.0
  0
LINE
  8
0
 62
     0
 10
184.581
 20
44.6691
 30
0.0
 11
183.782
 21
44.6691
 31
0.0
  0
LINE
  8
0
 62
     0
 10
183.782
 20
44.6691
 30
0.0
 11
183.782
 21
45.6681
 31
0.0
  0
LINE
  8
0
 62
     0
 10
183.782
 20
45.6681
 30
0.0
 11
169.781
 21
45.6681
 31
0.0
  0
LINE
  8
0
 62
     0
 10
188.831
 20
45.6681
 30
0.0
 11
188.831
 21
44.6691
 31
0.0
  0
LINE
  8
0
 62
     0
 10
188.831
 20
44.6691
 30
0.0
 11
188.032
 21
44.6691
 31
0.0
  0
LINE
  8
0
 62
     0
 10
188.032
 20
44.6691
 30
0.0
 11
188.032
 21
41.5685
 31
0.0
  0
LINE
  8
0
 62
     0
 10
188.032
 20
41.5685
 30
0.0
 11
188.831
 21
41.5685
 31
0.0
  0
LINE
  8
0
 62
     0
 10
188.831
 20
41.5685
 30
0.0
 11
188.831
 21
35.7671
 31
0.0
  0
LINE
  8
0
 62
     0
 10
188.831
 20
35.7671
 30
0.0
 11
188.032
 21
35.7671
 31
0.0
  0
LINE
  8
0
 62
     0
 10
188.032
 20
35.7671
 30
0.0
 11
188.032
 21
32.6678
 31
0.0
  0
LINE
  8
0
 62
     0
 10
188.032
 20
32.6678
 30
0.0
 11
188.831
 21
32.6678
 31
0.0
  0
LINE
  8
0
 62
     0
 10
188.831
 20
32.6678
 30
0.0
 11
188.831
 21
31.6673
 31
0.0
  0
LINE
  8
0
 62
     0
 10
188.831
 20
31.6673
 30
0.0
 11
202.832
 21
31.6673
 31
0.0
  0
LINE
  8
0
 62
     0
 10
202.832
 20
31.6673
 30
0.0
 11
202.832
 21
32.6678
 31
0.0
  0
LINE
  8
0
 62
     0
 10
202.832
 20
32.6678
 30
0.0
 11
203.631
 21
32.6678
 31
0.0
  0
LINE
  8
0
 62
     0
 10
203.631
 20
32.6678
 30
0.0
 11
203.631
 21
35.7671
 31
0.0
  0
LINE
  8
0
 62
     0
 10
203.631
 20
35.7671
 30
0.0
 11
202.832
 21
35.7671
 31
0.0
  0
LINE
  8
0
 62
     0
 10
202.832
 20
35.7671
 30
0.0
 11
202.832
 21
41.5685
 31
0.0
  0
LINE
  8
0
 62
     0
 10
202.832
 20
41.5685
 30
0.0
 11
203.631
 21
41.5685
 31
0.0
  0
LINE
  8
0
 62
     0
 10
203.631
 20
41.5685
 30
0.0
 11
203.631
 21
44.6691
 31
0.0
  0
LINE
  8
0
 62
     0
 10
203.631
 20
44.6691
 30
0.0
 11
202.832
 21
44.6691
 31
0.0
  0
LINE
  8
0
 62
     0
 10
202.832
 20
44.6691
 30
0.0
 11
202.832
 21
45.6681
 31
0.0
  0
LINE
  8
0
 62
     0
 10
202.832
 20
45.6681
 30
0.0
 11
188.831
 21
45.6681
 31
0.0
  0
LINE
  8
0
 62
     0
 10
207.881
 20
45.6681
 30
0.0
 11
207.881
 21
44.6691
 31
0.0
  0
LINE
  8
0
 62
     0
 10
207.881
 20
44.6691
 30
0.0
 11
207.082
 21
44.6691
 31
0.0
  0
LINE
  8
0
 62
     0
 10
207.082
 20
44.6691
 30
0.0
 11
207.082
 21
41.5685
 31
0.0
  0
LINE
  8
0
 62
     0
 10
207.082
 20
41.5685
 30
0.0
 11
207.881
 21
41.5685
 31
0.0
  0
LINE
  8
0
 62
     0
 10
207.881
 20
41.5685
 30
0.0
 11
207.881
 21
35.7671
 31
0.0
  0
LINE
  8
0
 62
     0
 10
207.881
 20
35.7671
 30
0.0
 11
207.082
 21
35.7671
 31
0.0
  0
LINE
  8
0
 62
     0
 10
207.082
 20
35.7671
 30
0.0
 11
207.082
 21
32.6678
 31
0.0
  0
LINE
  8
0
 62
     0
 10
207.082
 20
32.6678
 30
0.0
 11
207.881
 21
32.6678
 31
0.0
  0
LINE
  8
0
 62
     0
 10
207.881
 20
32.6678
 30
0.0
 11
207.881
 21
31.6673
 31
0.0
  0
LINE
  8
0
 62
     0
 10
207.881
 20
31.6673
 30
0.0
 11
221.882
 21
31.6673
 31
0.0
  0
LINE
  8
0
 62
     0
 10
221.882
 20
31.6673
 30
0.0
 11
221.882
 21
32.6678
 31
0.0
  0
LINE
  8
0
 62
     0
 10
221.882
 20
32.6678
 30
0.0
 11
222.681
 21
32.6678
 31
0.0
  0
LINE
  8
0
 62
     0
 10
222.681
 20
32.6678
 30
0.0
 11
222.681
 21
35.7671
 31
0.0
  0
LINE
  8
0
 62
     0
 10
222.681
 20
35.7671
 30
0.0
 11
221.882
 21
35.7671
 31
0.0
  0
LINE
  8
0
 62
     0
 10
221.882
 20
35.7671
 30
0.0
 11
221.882
 21
41.5685
 31
0.0
  0
LINE
  8
0
 62
     0
 10
221.882
 20
41.5685
 30
0.0
 11
222.681
 21
41.5685
 31
0.0
  0
LINE
  8
0
 62
     0
 10
222.681
 20
41.5685
 30
0.0
 11
222.681
 21
44.6691
 31
0.0
  0
LINE
  8
0
 62
     0
 10
222.681
 20
44.6691
 30
0.0
 11
221.882
 21
44.6691
 31
0.0
  0
LINE
  8
0
 62
     0
 10
221.882
 20
44.6691
 30
0.0
 11
221.882
 21
45.6681
 31
0.0
  0
LINE
  8
0
 62
     0
 10
221.882
 20
45.6681
 30
0.0
 11
207.881
 21
45.6681
 31
0.0
  0
LINE
  8
0
 62
     0
 10
226.931
 20
45.6681
 30
0.0
 11
226.931
 21
44.6691
 31
0.0
  0
LINE
  8
0
 62
     0
 10
226.931
 20
44.6691
 30
0.0
 11
226.132
 21
44.6691
 31
0.0
  0
LINE
  8
0
 62
     0
 10
226.132
 20
44.6691
 30
0.0
 11
226.132
 21
41.5685
 31
0.0
  0
LINE
  8
0
 62
     0
 10
226.132
 20
41.5685
 30
0.0
 11
226.931
 21
41.5685
 31
0.0
  0
LINE
  8
0
 62
     0
 10
226.931
 20
41.5685
 30
0.0
 11
226.931
 21
35.7671
 31
0.0
  0
LINE
  8
0
 62
     0
 10
226.931
 20
35.7671
 30
0.0
 11
226.132
 21
35.7671
 31
0.0
  0
LINE
  8
0
 62
     0
 10
226.132
 20
35.7671
 30
0.0
 11
226.132
 21
32.6678
 31
0.0
  0
LINE
  8
0
 62
     0
 10
226.132
 20
32.6678
 30
0.0
 11
226.931
 21
32.6678
 31
0.0
  0
LINE
  8
0
 62
     0
 10
226.931
 20
32.6678
 30
0.0
 11
226.931
 21
31.6673
 31
0.0
  0
LINE
  8
0
 62
     0
 10
226.931
 20
31.6673
 30
0.0
 11
240.932
 21
31.6673
 31
0.0
  0
LINE
  8
0
 62
     0
 10
240.932
 20
31.6673
 30
0.0
 11
240.932
 21
32.6678
 31
0.0
  0
LINE
  8
0
 62
     0
 10
240.932
 20
32.6678
 30
0.0
 11
241.731
 21
32.6678
 31
0.0
  0
LINE
  8
0
 62
     0
 10
241.731
 20
32.6678
 30
0.0
 11
241.731
 21
35.7671
 31
0.0
  0
LINE
  8
0
 62
     0
 10
241.731
 20
35.7671
 30
0.0
 11
240.932
 21
35.7671
 31
0.0
  0
LINE
  8
0
 62
     0
 10
240.932
 20
35.7671
 30
0.0
 11
240.932
 21
41.5685
 31
0.0
  0
LINE
  8
0
 62
     0
 10
240.932
 20
41.5685
 30
0.0
 11
241.731
 21
41.5685
 31
0.0
  0
LINE
  8
0
 62
     0
 10
241.731
 20
41.5685
 30
0.0
 11
241.731
 21
44.6691
 31
0.0
  0
LINE
  8
0
 62
     0
 10
241.731
 20
44.6691
 30
0.0
 11
240.932
 21
44.6691
 31
0.0
  0
LINE
  8
0
 62
     0
 10
240.932
 20
44.6691
 30
0.0
 11
240.932
 21
45.6681
 31
0.0
  0
LINE
  8
0
 62
     0
 10
240.932
 20
45.6681
 30
0.0
 11
226.931
 21
45.6681
 31
0.0
  0
LINE
  8
0
 62
     0
 10
245.981
 20
45.6681
 30
0.0
 11
245.981
 21
44.6691
 31
0.0
  0
LINE
  8
0
 62
     0
 10
245.981
 20
44.6691
 30
0.0
 11
245.182
 21
44.6691
 31
0.0
  0
LINE
  8
0
 62
     0
 10
245.182
 20
44.6691
 30
0.0
 11
245.182
 21
41.5685
 31
0.0
  0
LINE
  8
0
 62
     0
 10
245.182
 20
41.5685
 30
0.0
 11
245.981
 21
41.5685
 31
0.0
  0
LINE
  8
0
 62
     0
 10
245.981
 20
41.5685
 30
0.0
 11
245.981
 21
35.7671
 31
0.0
  0
LINE
  8
0
 62
     0
 10
245.981
 20
35.7671
 30
0.0
 11
245.182
 21
35.7671
 31
0.0
  0
LINE
  8
0
 62
     0
 10
245.182
 20
35.7671
 30
0.0
 11
245.182
 21
32.6678
 31
0.0
  0
LINE
  8
0
 62
     0
 10
245.182
 20
32.6678
 30
0.0
 11
245.981
 21
32.6678
 31
0.0
  0
LINE
  8
0
 62
     0
 10
245.981
 20
32.6678
 30
0.0
 11
245.981
 21
31.6673
 31
0.0
  0
LINE
  8
0
 62
     0
 10
245.981
 20
31.6673
 30
0.0
 11
259.982
 21
31.6673
 31
0.0
  0
LINE
  8
0
 62
     0
 10
259.982
 20
31.6673
 30
0.0
 11
259.982
 21
32.6678
 31
0.0
  0
LINE
  8
0
 62
     0
 10
259.982
 20
32.6678
 30
0.0
 11
260.781
 21
32.6678
 31
0.0
  0
LINE
  8
0
 62
     0
 10
260.781
 20
32.6678
 30
0.0
 11
260.781
 21
35.7671
 31
0.0
  0
LINE
  8
0
 62
     0
 10
260.781
 20
35.7671
 30
0.0
 11
259.982
 21
35.7671
 31
0.0
  0
LINE
  8
0
 62
     0
 10
259.982
 20
35.7671
 30
0.0
 11
259.982
 21
41.5685
 31
0.0
  0
LINE
  8
0
 62
     0
 10
259.982
 20
41.5685
 30
0.0
 11
260.781
 21
41.5685
 31
0.0
  0
LINE
  8
0
 62
     0
 10
260.781
 20
41.5685
 30
0.0
 11
260.781
 21
44.6691
 31
0.0
  0
LINE
  8
0
 62
     0
 10
260.781
 20
44.6691
 30
0.0
 11
259.982
 21
44.6691
 31
0.0
  0
LINE
  8
0
 62
     0
 10
259.982
 20
44.6691
 30
0.0
 11
259.982
 21
45.6681
 31
0.0
  0
LINE
  8
0
 62
     0
 10
259.982
 20
45.6681
 30
0.0
 11
245.981
 21
45.6681
 31
0.0
  0
LINE
  8
0
 62
     0
 10
272.176
 20
45.6681
 30
0.0
 11
272.176
 21
44.6691
 31
0.0
  0
LINE
  8
0
 62
     0
 10
272.176
 20
44.6691
 30
0.0
 11
271.376
 21
44.6691
 31
0.0
  0
LINE
  8
0
 62
     0
 10
271.376
 20
44.6691
 30
0.0
 11
271.376
 21
41.5685
 31
0.0
  0
LINE
  8
0
 62
     0
 10
271.376
 20
41.5685
 30
0.0
 11
272.176
 21
41.5685
 31
0.0
  0
LINE
  8
0
 62
     0
 10
272.176
 20
41.5685
 30
0.0
 11
272.176
 21
35.7671
 31
0.0
  0
LINE
  8
0
 62
     0
 10
272.176
 20
35.7671
 30
0.0
 11
271.376
 21
35.7671
 31
0.0
  0
LINE
  8
0
 62
     0
 10
271.376
 20
35.7671
 30
0.0
 11
271.376
 21
32.6678
 31
0.0
  0
LINE
  8
0
 62
     0
 10
271.376
 20
32.6678
 30
0.0
 11
272.176
 21
32.6678
 31
0.0
  0
LINE
  8
0
 62
     0
 10
272.176
 20
32.6678
 30
0.0
 11
272.176
 21
31.6673
 31
0.0
  0
LINE
  8
0
 62
     0
 10
272.176
 20
31.6673
 30
0.0
 11
286.176
 21
31.6673
 31
0.0
  0
LINE
  8
0
 62
     0
 10
286.176
 20
31.6673
 30
0.0
 11
286.176
 21
32.6678
 31
0.0
  0
LINE
  8
0
 62
     0
 10
286.176
 20
32.6678
 30
0.0
 11
286.975
 21
32.6678
 31
0.0
  0
LINE
  8
0
 62
     0
 10
286.975
 20
32.6678
 30
0.0
 11
286.975
 21
35.7671
 31
0.0
  0
LINE
  8
0
 62
     0
 10
286.975
 20
35.7671
 30
0.0
 11
286.176
 21
35.7671
 31
0.0
  0
LINE
  8
0
 62
     0
 10
286.176
 20
35.7671
 30
0.0
 11
286.176
 21
41.5685
 31
0.0
  0
LINE
  8
0
 62
     0
 10
286.176
 20
41.5685
 30
0.0
 11
286.975
 21
41.5685
 31
0.0
  0
LINE
  8
0
 62
     0
 10
286.975
 20
41.5685
 30
0.0
 11
286.975
 21
44.6691
 31
0.0
  0
LINE
  8
0
 62
     0
 10
286.975
 20
44.6691
 30
0.0
 11
286.176
 21
44.6691
 31
0.0
  0
LINE
  8
0
 62
     0
 10
286.176
 20
44.6691
 30
0.0
 11
286.176
 21
45.6681
 31
0.0
  0
LINE
  8
0
 62
     0
 10
286.176
 20
45.6681
 30
0.0
 11
272.176
 21
45.6681
 31
0.0
  0
LINE
  8
0
 62
     0
 10
19.7624
 20
64.7181
 30
0.0
 11
19.7624
 21
63.7191
 31
0.0
  0
LINE
  8
0
 62
     0
 10
19.7624
 20
63.7191
 30
0.0
 11
18.9632
 21
63.7191
 31
0.0
  0
LINE
  8
0
 62
     0
 10
18.9632
 20
63.7191
 30
0.0
 11
18.9632
 21
60.6171
 31
0.0
  0
LINE
  8
0
 62
     0
 10
18.9632
 20
60.6171
 30
0.0
 11
19.7624
 21
60.6171
 31
0.0
  0
LINE
  8
0
 62
     0
 10
19.7624
 20
60.6171
 30
0.0
 11
19.7624
 21
54.8171
 31
0.0
  0
LINE
  8
0
 62
     0
 10
19.7624
 20
54.8171
 30
0.0
 11
18.9632
 21
54.8171
 31
0.0
  0
LINE
  8
0
 62
     0
 10
18.9632
 20
54.8171
 30
0.0
 11
18.9632
 21
51.7179
 31
0.0
  0
LINE
  8
0
 62
     0
 10
18.9632
 20
51.7179
 30
0.0
 11
19.7624
 21
51.7179
 31
0.0
  0
LINE
  8
0
 62
     0
 10
19.7624
 20
51.7179
 30
0.0
 11
19.7624
 21
50.7175
 31
0.0
  0
LINE
  8
0
 62
     0
 10
19.7624
 20
50.7175
 30
0.0
 11
33.7633
 21
50.7175
 31
0.0
  0
LINE
  8
0
 62
     0
 10
33.7633
 20
50.7175
 30
0.0
 11
33.7633
 21
51.7179
 31
0.0
  0
LINE
  8
0
 62
     0
 10
33.7633
 20
51.7179
 30
0.0
 11
34.5626
 21
51.7179
 31
0.0
  0
LINE
  8
0
 62
     0
 10
34.5626
 20
51.7179
 30
0.0
 11
34.5626
 21
54.8171
 31
0.0
  0
LINE
  8
0
 62
     0
 10
34.5626
 20
54.8171
 30
0.0
 11
33.7633
 21
54.8171
 31
0.0
  0
LINE
  8
0
 62
     0
 10
33.7633
 20
54.8171
 30
0.0
 11
33.7633
 21
60.6171
 31
0.0
  0
LINE
  8
0
 62
     0
 10
33.7633
 20
60.6171
 30
0.0
 11
34.5626
 21
60.6171
 31
0.0
  0
LINE
  8
0
 62
     0
 10
34.5626
 20
60.6171
 30
0.0
 11
34.5626
 21
63.7191
 31
0.0
  0
LINE
  8
0
 62
     0
 10
34.5626
 20
63.7191
 30
0.0
 11
33.7633
 21
63.7191
 31
0.0
  0
LINE
  8
0
 62
     0
 10
33.7633
 20
63.7191
 30
0.0
 11
33.7633
 21
64.7181
 31
0.0
  0
LINE
  8
0
 62
     0
 10
33.7633
 20
64.7181
 30
0.0
 11
19.7624
 21
64.7181
 31
0.0
  0
LINE
  8
0
 62
     0
 10
45.9564
 20
64.7181
 30
0.0
 11
45.9564
 21
63.7191
 31
0.0
  0
LINE
  8
0
 62
     0
 10
45.9564
 20
63.7191
 30
0.0
 11
45.157
 21
63.7191
 31
0.0
  0
LINE
  8
0
 62
     0
 10
45.157
 20
63.7191
 30
0.0
 11
45.157
 21
60.6171
 31
0.0
  0
LINE
  8
0
 62
     0
 10
45.157
 20
60.6171
 30
0.0
 11
45.9564
 21
60.6171
 31
0.0
  0
LINE
  8
0
 62
     0
 10
45.9564
 20
60.6171
 30
0.0
 11
45.9564
 21
54.8171
 31
0.0
  0
LINE
  8
0
 62
     0
 10
45.9564
 20
54.8171
 30
0.0
 11
45.157
 21
54.8171
 31
0.0
  0
LINE
  8
0
 62
     0
 10
45.157
 20
54.8171
 30
0.0
 11
45.157
 21
51.7179
 31
0.0
  0
LINE
  8
0
 62
     0
 10
45.157
 20
51.7179
 30
0.0
 11
45.9564
 21
51.7179
 31
0.0
  0
LINE
  8
0
 62
     0
 10
45.9564
 20
51.7179
 30
0.0
 11
45.9564
 21
50.7175
 31
0.0
  0
LINE
  8
0
 62
     0
 10
45.9564
 20
50.7175
 30
0.0
 11
59.9556
 21
50.7175
 31
0.0
  0
LINE
  8
0
 62
     0
 10
59.9556
 20
50.7175
 30
0.0
 11
59.9556
 21
51.7179
 31
0.0
  0
LINE
  8
0
 62
     0
 10
59.9556
 20
51.7179
 30
0.0
 11
60.7564
 21
51.7179
 31
0.0
  0
LINE
  8
0
 62
     0
 10
60.7564
 20
51.7179
 30
0.0
 11
60.7564
 21
54.8171
 31
0.0
  0
LINE
  8
0
 62
     0
 10
60.7564
 20
54.8171
 30
0.0
 11
59.9556
 21
54.8171
 31
0.0
  0
LINE
  8
0
 62
     0
 10
59.9556
 20
54.8171
 30
0.0
 11
59.9556
 21
60.6171
 31
0.0
  0
LINE
  8
0
 62
     0
 10
59.9556
 20
60.6171
 30
0.0
 11
60.7564
 21
60.6171
 31
0.0
  0
LINE
  8
0
 62
     0
 10
60.7564
 20
60.6171
 30
0.0
 11
60.7564
 21
63.7191
 31
0.0
  0
LINE
  8
0
 62
     0
 10
60.7564
 20
63.7191
 30
0.0
 11
59.9556
 21
63.7191
 31
0.0
  0
LINE
  8
0
 62
     0
 10
59.9556
 20
63.7191
 30
0.0
 11
59.9556
 21
64.7181
 31
0.0
  0
LINE
  8
0
 62
     0
 10
59.9556
 20
64.7181
 30
0.0
 11
45.9564
 21
64.7181
 31
0.0
  0
LINE
  8
0
 62
     0
 10
65.0064
 20
64.7181
 30
0.0
 11
65.0064
 21
63.7191
 31
0.0
  0
LINE
  8
0
 62
     0
 10
65.0064
 20
63.7191
 30
0.0
 11
64.207
 21
63.7191
 31
0.0
  0
LINE
  8
0
 62
     0
 10
64.207
 20
63.7191
 30
0.0
 11
64.207
 21
60.6171
 31
0.0
  0
LINE
  8
0
 62
     0
 10
64.207
 20
60.6171
 30
0.0
 11
65.0064
 21
60.6171
 31
0.0
  0
LINE
  8
0
 62
     0
 10
65.0064
 20
60.6171
 30
0.0
 11
65.0064
 21
54.8171
 31
0.0
  0
LINE
  8
0
 62
     0
 10
65.0064
 20
54.8171
 30
0.0
 11
64.207
 21
54.8171
 31
0.0
  0
LINE
  8
0
 62
     0
 10
64.207
 20
54.8171
 30
0.0
 11
64.207
 21
51.7179
 31
0.0
  0
LINE
  8
0
 62
     0
 10
64.207
 20
51.7179
 30
0.0
 11
65.0064
 21
51.7179
 31
0.0
  0
LINE
  8
0
 62
     0
 10
65.0064
 20
51.7179
 30
0.0
 11
65.0064
 21
50.7175
 31
0.0
  0
LINE
  8
0
 62
     0
 10
65.0064
 20
50.7175
 30
0.0
 11
79.0071
 21
50.7175
 31
0.0
  0
LINE
  8
0
 62
     0
 10
79.0071
 20
50.7175
 30
0.0
 11
79.0071
 21
51.7179
 31
0.0
  0
LINE
  8
0
 62
     0
 10
79.0071
 20
51.7179
 30
0.0
 11
79.8065
 21
51.7179
 31
0.0
  0
LINE
  8
0
 62
     0
 10
79.8065
 20
51.7179
 30
0.0
 11
79.8065
 21
54.8171
 31
0.0
  0
LINE
  8
0
 62
     0
 10
79.8065
 20
54.8171
 30
0.0
 11
79.0071
 21
54.8171
 31
0.0
  0
LINE
  8
0
 62
     0
 10
79.0071
 20
54.8171
 30
0.0
 11
79.0071
 21
60.6171
 31
0.0
  0
LINE
  8
0
 62
     0
 10
79.0071
 20
60.6171
 30
0.0
 11
79.8065
 21
60.6171
 31
0.0
  0
LINE
  8
0
 62
     0
 10
79.8065
 20
60.6171
 30
0.0
 11
79.8065
 21
63.7191
 31
0.0
  0
LINE
  8
0
 62
     0
 10
79.8065
 20
63.7191
 30
0.0
 11
79.0071
 21
63.7191
 31
0.0
  0
LINE
  8
0
 62
     0
 10
79.0071
 20
63.7191
 30
0.0
 11
79.0071
 21
64.7181
 31
0.0
  0
LINE
  8
0
 62
     0
 10
79.0071
 20
64.7181
 30
0.0
 11
65.0064
 21
64.7181
 31
0.0
  0
LINE
  8
0
 62
     0
 10
84.0564
 20
64.7181
 30
0.0
 11
84.0564
 21
63.7191
 31
0.0
  0
LINE
  8
0
 62
     0
 10
84.0564
 20
63.7191
 30
0.0
 11
83.257
 21
63.7191
 31
0.0
  0
LINE
  8
0
 62
     0
 10
83.257
 20
63.7191
 30
0.0
 11
83.257
 21
60.6171
 31
0.0
  0
LINE
  8
0
 62
     0
 10
83.257
 20
60.6171
 30
0.0
 11
84.0564
 21
60.6171
 31
0.0
  0
LINE
  8
0
 62
     0
 10
84.0564
 20
60.6171
 30
0.0
 11
84.0564
 21
54.8171
 31
0.0
  0
LINE
  8
0
 62
     0
 10
84.0564
 20
54.8171
 30
0.0
 11
83.257
 21
54.8171
 31
0.0
  0
LINE
  8
0
 62
     0
 10
83.257
 20
54.8171
 30
0.0
 11
83.257
 21
51.7179
 31
0.0
  0
LINE
  8
0
 62
     0
 10
83.257
 20
51.7179
 30
0.0
 11
84.0564
 21
51.7179
 31
0.0
  0
LINE
  8
0
 62
     0
 10
84.0564
 20
51.7179
 30
0.0
 11
84.0564
 21
50.7175
 31
0.0
  0
LINE
  8
0
 62
     0
 10
84.0564
 20
50.7175
 30
0.0
 11
98.0571
 21
50.7175
 31
0.0
  0
LINE
  8
0
 62
     0
 10
98.0571
 20
50.7175
 30
0.0
 11
98.0571
 21
51.7179
 31
0.0
  0
LINE
  8
0
 62
     0
 10
98.0571
 20
51.7179
 30
0.0
 11
98.8564
 21
51.7179
 31
0.0
  0
LINE
  8
0
 62
     0
 10
98.8564
 20
51.7179
 30
0.0
 11
98.8564
 21
54.8171
 31
0.0
  0
LINE
  8
0
 62
     0
 10
98.8564
 20
54.8171
 30
0.0
 11
98.0571
 21
54.8171
 31
0.0
  0
LINE
  8
0
 62
     0
 10
98.0571
 20
54.8171
 30
0.0
 11
98.0571
 21
60.6171
 31
0.0
  0
LINE
  8
0
 62
     0
 10
98.0571
 20
60.6171
 30
0.0
 11
98.8564
 21
60.6171
 31
0.0
  0
LINE
  8
0
 62
     0
 10
98.8564
 20
60.6171
 30
0.0
 11
98.8564
 21
63.7191
 31
0.0
  0
LINE
  8
0
 62
     0
 10
98.8564
 20
63.7191
 30
0.0
 11
98.0571
 21
63.7191
 31
0.0
  0
LINE
  8
0
 62
     0
 10
98.0571
 20
63.7191
 30
0.0
 11
98.0571
 21
64.7181
 31
0.0
  0
LINE
  8
0
 62
     0
 10
98.0571
 20
64.7181
 30
0.0
 11
84.0564
 21
64.7181
 31
0.0
  0
LINE
  8
0
 62
     0
 10
103.106
 20
64.7181
 30
0.0
 11
103.106
 21
63.7191
 31
0.0
  0
LINE
  8
0
 62
     0
 10
103.106
 20
63.7191
 30
0.0
 11
102.307
 21
63.7191
 31
0.0
  0
LINE
  8
0
 62
     0
 10
102.307
 20
63.7191
 30
0.0
 11
102.307
 21
60.6171
 31
0.0
  0
LINE
  8
0
 62
     0
 10
102.307
 20
60.6171
 30
0.0
 11
103.106
 21
60.6171
 31
0.0
  0
LINE
  8
0
 62
     0
 10
103.106
 20
60.6171
 30
0.0
 11
103.106
 21
54.8171
 31
0.0
  0
LINE
  8
0
 62
     0
 10
103.106
 20
54.8171
 30
0.0
 11
102.307
 21
54.8171
 31
0.0
  0
LINE
  8
0
 62
     0
 10
102.307
 20
54.8171
 30
0.0
 11
102.307
 21
51.7179
 31
0.0
  0
LINE
  8
0
 62
     0
 10
102.307
 20
51.7179
 30
0.0
 11
103.106
 21
51.7179
 31
0.0
  0
LINE
  8
0
 62
     0
 10
103.106
 20
51.7179
 30
0.0
 11
103.106
 21
50.7175
 31
0.0
  0
LINE
  8
0
 62
     0
 10
103.106
 20
50.7175
 30
0.0
 11
117.107
 21
50.7175
 31
0.0
  0
LINE
  8
0
 62
     0
 10
117.107
 20
50.7175
 30
0.0
 11
117.107
 21
51.7179
 31
0.0
  0
LINE
  8
0
 62
     0
 10
117.107
 20
51.7179
 30
0.0
 11
117.906
 21
51.7179
 31
0.0
  0
LINE
  8
0
 62
     0
 10
117.906
 20
51.7179
 30
0.0
 11
117.906
 21
54.8171
 31
0.0
  0
LINE
  8
0
 62
     0
 10
117.906
 20
54.8171
 30
0.0
 11
117.107
 21
54.8171
 31
0.0
  0
LINE
  8
0
 62
     0
 10
117.107
 20
54.8171
 30
0.0
 11
117.107
 21
60.6171
 31
0.0
  0
LINE
  8
0
 62
     0
 10
117.107
 20
60.6171
 30
0.0
 11
117.906
 21
60.6171
 31
0.0
  0
LINE
  8
0
 62
     0
 10
117.906
 20
60.6171
 30
0.0
 11
117.906
 21
63.7191
 31
0.0
  0
LINE
  8
0
 62
     0
 10
117.906
 20
63.7191
 30
0.0
 11
117.107
 21
63.7191
 31
0.0
  0
LINE
  8
0
 62
     0
 10
117.107
 20
63.7191
 30
0.0
 11
117.107
 21
64.7181
 31
0.0
  0
LINE
  8
0
 62
     0
 10
117.107
 20
64.7181
 30
0.0
 11
103.106
 21
64.7181
 31
0.0
  0
LINE
  8
0
 62
     0
 10
122.156
 20
64.7181
 30
0.0
 11
122.156
 21
63.7191
 31
0.0
  0
LINE
  8
0
 62
     0
 10
122.156
 20
63.7191
 30
0.0
 11
121.357
 21
63.7191
 31
0.0
  0
LINE
  8
0
 62
     0
 10
121.357
 20
63.7191
 30
0.0
 11
121.357
 21
60.6171
 31
0.0
  0
LINE
  8
0
 62
     0
 10
121.357
 20
60.6171
 30
0.0
 11
122.156
 21
60.6171
 31
0.0
  0
LINE
  8
0
 62
     0
 10
122.156
 20
60.6171
 30
0.0
 11
122.156
 21
54.8171
 31
0.0
  0
LINE
  8
0
 62
     0
 10
122.156
 20
54.8171
 30
0.0
 11
121.357
 21
54.8171
 31
0.0
  0
LINE
  8
0
 62
     0
 10
121.357
 20
54.8171
 30
0.0
 11
121.357
 21
51.7179
 31
0.0
  0
LINE
  8
0
 62
     0
 10
121.357
 20
51.7179
 30
0.0
 11
122.156
 21
51.7179
 31
0.0
  0
LINE
  8
0
 62
     0
 10
122.156
 20
51.7179
 30
0.0
 11
122.156
 21
50.7175
 31
0.0
  0
LINE
  8
0
 62
     0
 10
122.156
 20
50.7175
 30
0.0
 11
136.157
 21
50.7175
 31
0.0
  0
LINE
  8
0
 62
     0
 10
136.157
 20
50.7175
 30
0.0
 11
136.157
 21
51.7179
 31
0.0
  0
LINE
  8
0
 62
     0
 10
136.157
 20
51.7179
 30
0.0
 11
136.956
 21
51.7179
 31
0.0
  0
LINE
  8
0
 62
     0
 10
136.956
 20
51.7179
 30
0.0
 11
136.956
 21
54.8171
 31
0.0
  0
LINE
  8
0
 62
     0
 10
136.956
 20
54.8171
 30
0.0
 11
136.157
 21
54.8171
 31
0.0
  0
LINE
  8
0
 62
     0
 10
136.157
 20
54.8171
 30
0.0
 11
136.157
 21
60.6171
 31
0.0
  0
LINE
  8
0
 62
     0
 10
136.157
 20
60.6171
 30
0.0
 11
136.956
 21
60.6171
 31
0.0
  0
LINE
  8
0
 62
     0
 10
136.956
 20
60.6171
 30
0.0
 11
136.956
 21
63.7191
 31
0.0
  0
LINE
  8
0
 62
     0
 10
136.956
 20
63.7191
 30
0.0
 11
136.157
 21
63.7191
 31
0.0
  0
LINE
  8
0
 62
     0
 10
136.157
 20
63.7191
 30
0.0
 11
136.157
 21
64.7181
 31
0.0
  0
LINE
  8
0
 62
     0
 10
136.157
 20
64.7181
 30
0.0
 11
122.156
 21
64.7181
 31
0.0
  0
LINE
  8
0
 62
     0
 10
141.206
 20
64.7181
 30
0.0
 11
141.206
 21
63.7191
 31
0.0
  0
LINE
  8
0
 62
     0
 10
141.206
 20
63.7191
 30
0.0
 11
140.407
 21
63.7191
 31
0.0
  0
LINE
  8
0
 62
     0
 10
140.407
 20
63.7191
 30
0.0
 11
140.407
 21
60.6171
 31
0.0
  0
LINE
  8
0
 62
     0
 10
140.407
 20
60.6171
 30
0.0
 11
141.206
 21
60.6171
 31
0.0
  0
LINE
  8
0
 62
     0
 10
141.206
 20
60.6171
 30
0.0
 11
141.206
 21
54.8171
 31
0.0
  0
LINE
  8
0
 62
     0
 10
141.206
 20
54.8171
 30
0.0
 11
140.407
 21
54.8171
 31
0.0
  0
LINE
  8
0
 62
     0
 10
140.407
 20
54.8171
 30
0.0
 11
140.407
 21
51.7179
 31
0.0
  0
LINE
  8
0
 62
     0
 10
140.407
 20
51.7179
 30
0.0
 11
141.206
 21
51.7179
 31
0.0
  0
LINE
  8
0
 62
     0
 10
141.206
 20
51.7179
 30
0.0
 11
141.206
 21
50.7175
 31
0.0
  0
LINE
  8
0
 62
     0
 10
141.206
 20
50.7175
 30
0.0
 11
155.207
 21
50.7175
 31
0.0
  0
LINE
  8
0
 62
     0
 10
155.207
 20
50.7175
 30
0.0
 11
155.207
 21
51.7179
 31
0.0
  0
LINE
  8
0
 62
     0
 10
155.207
 20
51.7179
 30
0.0
 11
156.006
 21
51.7179
 31
0.0
  0
LINE
  8
0
 62
     0
 10
156.006
 20
51.7179
 30
0.0
 11
156.006
 21
54.8171
 31
0.0
  0
LINE
  8
0
 62
     0
 10
156.006
 20
54.8171
 30
0.0
 11
155.207
 21
54.8171
 31
0.0
  0
LINE
  8
0
 62
     0
 10
155.207
 20
54.8171
 30
0.0
 11
155.207
 21
60.6171
 31
0.0
  0
LINE
  8
0
 62
     0
 10
155.207
 20
60.6171
 30
0.0
 11
156.006
 21
60.6171
 31
0.0
  0
LINE
  8
0
 62
     0
 10
156.006
 20
60.6171
 30
0.0
 11
156.006
 21
63.7191
 31
0.0
  0
LINE
  8
0
 62
     0
 10
156.006
 20
63.7191
 30
0.0
 11
155.207
 21
63.7191
 31
0.0
  0
LINE
  8
0
 62
     0
 10
155.207
 20
63.7191
 30
0.0
 11
155.207
 21
64.7181
 31
0.0
  0
LINE
  8
0
 62
     0
 10
155.207
 20
64.7181
 30
0.0
 11
141.206
 21
64.7181
 31
0.0
  0
LINE
  8
0
 62
     0
 10
160.256
 20
64.7181
 30
0.0
 11
160.256
 21
63.7191
 31
0.0
  0
LINE
  8
0
 62
     0
 10
160.256
 20
63.7191
 30
0.0
 11
159.457
 21
63.7191
 31
0.0
  0
LINE
  8
0
 62
     0
 10
159.457
 20
63.7191
 30
0.0
 11
159.457
 21
60.6171
 31
0.0
  0
LINE
  8
0
 62
     0
 10
159.457
 20
60.6171
 30
0.0
 11
160.256
 21
60.6171
 31
0.0
  0
LINE
  8
0
 62
     0
 10
160.256
 20
60.6171
 30
0.0
 11
160.256
 21
54.8171
 31
0.0
  0
LINE
  8
0
 62
     0
 10
160.256
 20
54.8171
 30
0.0
 11
159.457
 21
54.8171
 31
0.0
  0
LINE
  8
0
 62
     0
 10
159.457
 20
54.8171
 30
0.0
 11
159.457
 21
51.7179
 31
0.0
  0
LINE
  8
0
 62
     0
 10
159.457
 20
51.7179
 30
0.0
 11
160.256
 21
51.7179
 31
0.0
  0
LINE
  8
0
 62
     0
 10
160.256
 20
51.7179
 30
0.0
 11
160.256
 21
50.7175
 31
0.0
  0
LINE
  8
0
 62
     0
 10
160.256
 20
50.7175
 30
0.0
 11
174.257
 21
50.7175
 31
0.0
  0
LINE
  8
0
 62
     0
 10
174.257
 20
50.7175
 30
0.0
 11
174.257
 21
51.7179
 31
0.0
  0
LINE
  8
0
 62
     0
 10
174.257
 20
51.7179
 30
0.0
 11
175.056
 21
51.7179
 31
0.0
  0
LINE
  8
0
 62
     0
 10
175.056
 20
51.7179
 30
0.0
 11
175.056
 21
54.8171
 31
0.0
  0
LINE
  8
0
 62
     0
 10
175.056
 20
54.8171
 30
0.0
 11
174.257
 21
54.8171
 31
0.0
  0
LINE
  8
0
 62
     0
 10
174.257
 20
54.8171
 30
0.0
 11
174.257
 21
60.6171
 31
0.0
  0
LINE
  8
0
 62
     0
 10
174.257
 20
60.6171
 30
0.0
 11
175.056
 21
60.6171
 31
0.0
  0
LINE
  8
0
 62
     0
 10
175.056
 20
60.6171
 30
0.0
 11
175.056
 21
63.7191
 31
0.0
  0
LINE
  8
0
 62
     0
 10
175.056
 20
63.7191
 30
0.0
 11
174.257
 21
63.7191
 31
0.0
  0
LINE
  8
0
 62
     0
 10
174.257
 20
63.7191
 30
0.0
 11
174.257
 21
64.7181
 31
0.0
  0
LINE
  8
0
 62
     0
 10
174.257
 20
64.7181
 30
0.0
 11
160.256
 21
64.7181
 31
0.0
  0
LINE
  8
0
 62
     0
 10
179.306
 20
64.7181
 30
0.0
 11
179.306
 21
63.7191
 31
0.0
  0
LINE
  8
0
 62
     0
 10
179.306
 20
63.7191
 30
0.0
 11
178.507
 21
63.7191
 31
0.0
  0
LINE
  8
0
 62
     0
 10
178.507
 20
63.7191
 30
0.0
 11
178.507
 21
60.6171
 31
0.0
  0
LINE
  8
0
 62
     0
 10
178.507
 20
60.6171
 30
0.0
 11
179.306
 21
60.6171
 31
0.0
  0
LINE
  8
0
 62
     0
 10
179.306
 20
60.6171
 30
0.0
 11
179.306
 21
54.8171
 31
0.0
  0
LINE
  8
0
 62
     0
 10
179.306
 20
54.8171
 30
0.0
 11
178.507
 21
54.8171
 31
0.0
  0
LINE
  8
0
 62
     0
 10
178.507
 20
54.8171
 30
0.0
 11
178.507
 21
51.7179
 31
0.0
  0
LINE
  8
0
 62
     0
 10
178.507
 20
51.7179
 30
0.0
 11
179.306
 21
51.7179
 31
0.0
  0
LINE
  8
0
 62
     0
 10
179.306
 20
51.7179
 30
0.0
 11
179.306
 21
50.7175
 31
0.0
  0
LINE
  8
0
 62
     0
 10
179.306
 20
50.7175
 30
0.0
 11
193.307
 21
50.7175
 31
0.0
  0
LINE
  8
0
 62
     0
 10
193.307
 20
50.7175
 30
0.0
 11
193.307
 21
51.7179
 31
0.0
  0
LINE
  8
0
 62
     0
 10
193.307
 20
51.7179
 30
0.0
 11
194.106
 21
51.7179
 31
0.0
  0
LINE
  8
0
 62
     0
 10
194.106
 20
51.7179
 30
0.0
 11
194.106
 21
54.8171
 31
0.0
  0
LINE
  8
0
 62
     0
 10
194.106
 20
54.8171
 30
0.0
 11
193.307
 21
54.8171
 31
0.0
  0
LINE
  8
0
 62
     0
 10
193.307
 20
54.8171
 30
0.0
 11
193.307
 21
60.6171
 31
0.0
  0
LINE
  8
0
 62
     0
 10
193.307
 20
60.6171
 30
0.0
 11
194.106
 21
60.6171
 31
0.0
  0
LINE
  8
0
 62
     0
 10
194.106
 20
60.6171
 30
0.0
 11
194.106
 21
63.7191
 31
0.0
  0
LINE
  8
0
 62
     0
 10
194.106
 20
63.7191
 30
0.0
 11
193.307
 21
63.7191
 31
0.0
  0
LINE
  8
0
 62
     0
 10
193.307
 20
63.7191
 30
0.0
 11
193.307
 21
64.7181
 31
0.0
  0
LINE
  8
0
 62
     0
 10
193.307
 20
64.7181
 30
0.0
 11
179.306
 21
64.7181
 31
0.0
  0
LINE
  8
0
 62
     0
 10
198.356
 20
64.7181
 30
0.0
 11
198.356
 21
63.7191
 31
0.0
  0
LINE
  8
0
 62
     0
 10
198.356
 20
63.7191
 30
0.0
 11
197.557
 21
63.7191
 31
0.0
  0
LINE
  8
0
 62
     0
 10
197.557
 20
63.7191
 30
0.0
 11
197.557
 21
60.6171
 31
0.0
  0
LINE
  8
0
 62
     0
 10
197.557
 20
60.6171
 30
0.0
 11
198.356
 21
60.6171
 31
0.0
  0
LINE
  8
0
 62
     0
 10
198.356
 20
60.6171
 30
0.0
 11
198.356
 21
54.8171
 31
0.0
  0
LINE
  8
0
 62
     0
 10
198.356
 20
54.8171
 30
0.0
 11
197.557
 21
54.8171
 31
0.0
  0
LINE
  8
0
 62
     0
 10
197.557
 20
54.8171
 30
0.0
 11
197.557
 21
51.7179
 31
0.0
  0
LINE
  8
0
 62
     0
 10
197.557
 20
51.7179
 30
0.0
 11
198.356
 21
51.7179
 31
0.0
  0
LINE
  8
0
 62
     0
 10
198.356
 20
51.7179
 30
0.0
 11
198.356
 21
50.7175
 31
0.0
  0
LINE
  8
0
 62
     0
 10
198.356
 20
50.7175
 30
0.0
 11
212.357
 21
50.7175
 31
0.0
  0
LINE
  8
0
 62
     0
 10
212.357
 20
50.7175
 30
0.0
 11
212.357
 21
51.7179
 31
0.0
  0
LINE
  8
0
 62
     0
 10
212.357
 20
51.7179
 30
0.0
 11
213.156
 21
51.7179
 31
0.0
  0
LINE
  8
0
 62
     0
 10
213.156
 20
51.7179
 30
0.0
 11
213.156
 21
54.8171
 31
0.0
  0
LINE
  8
0
 62
     0
 10
213.156
 20
54.8171
 30
0.0
 11
212.357
 21
54.8171
 31
0.0
  0
LINE
  8
0
 62
     0
 10
212.357
 20
54.8171
 30
0.0
 11
212.357
 21
60.6171
 31
0.0
  0
LINE
  8
0
 62
     0
 10
212.357
 20
60.6171
 30
0.0
 11
213.156
 21
60.6171
 31
0.0
  0
LINE
  8
0
 62
     0
 10
213.156
 20
60.6171
 30
0.0
 11
213.156
 21
63.7191
 31
0.0
  0
LINE
  8
0
 62
     0
 10
213.156
 20
63.7191
 30
0.0
 11
212.357
 21
63.7191
 31
0.0
  0
LINE
  8
0
 62
     0
 10
212.357
 20
63.7191
 30
0.0
 11
212.357
 21
64.7181
 31
0.0
  0
LINE
  8
0
 62
     0
 10
212.357
 20
64.7181
 30
0.0
 11
198.356
 21
64.7181
 31
0.0
  0
LINE
  8
0
 62
     0
 10
217.406
 20
64.7181
 30
0.0
 11
217.406
 21
63.7191
 31
0.0
  0
LINE
  8
0
 62
     0
 10
217.406
 20
63.7191
 30
0.0
 11
216.607
 21
63.7191
 31
0.0
  0
LINE
  8
0
 62
     0
 10
216.607
 20
63.7191
 30
0.0
 11
216.607
 21
60.6171
 31
0.0
  0
LINE
  8
0
 62
     0
 10
216.607
 20
60.6171
 30
0.0
 11
217.406
 21
60.6171
 31
0.0
  0
LINE
  8
0
 62
     0
 10
217.406
 20
60.6171
 30
0.0
 11
217.406
 21
54.8171
 31
0.0
  0
LINE
  8
0
 62
     0
 10
217.406
 20
54.8171
 30
0.0
 11
216.607
 21
54.8171
 31
0.0
  0
LINE
  8
0
 62
     0
 10
216.607
 20
54.8171
 30
0.0
 11
216.607
 21
51.7179
 31
0.0
  0
LINE
  8
0
 62
     0
 10
216.607
 20
51.7179
 30
0.0
 11
217.406
 21
51.7179
 31
0.0
  0
LINE
  8
0
 62
     0
 10
217.406
 20
51.7179
 30
0.0
 11
217.406
 21
50.7175
 31
0.0
  0
LINE
  8
0
 62
     0
 10
217.406
 20
50.7175
 30
0.0
 11
231.407
 21
50.7175
 31
0.0
  0
LINE
  8
0
 62
     0
 10
231.407
 20
50.7175
 30
0.0
 11
231.407
 21
51.7179
 31
0.0
  0
LINE
  8
0
 62
     0
 10
231.407
 20
51.7179
 30
0.0
 11
232.206
 21
51.7179
 31
0.0
  0
LINE
  8
0
 62
     0
 10
232.206
 20
51.7179
 30
0.0
 11
232.206
 21
54.8171
 31
0.0
  0
LINE
  8
0
 62
     0
 10
232.206
 20
54.8171
 30
0.0
 11
231.407
 21
54.8171
 31
0.0
  0
LINE
  8
0
 62
     0
 10
231.407
 20
54.8171
 30
0.0
 11
231.407
 21
60.6171
 31
0.0
  0
LINE
  8
0
 62
     0
 10
231.407
 20
60.6171
 30
0.0
 11
232.206
 21
60.6171
 31
0.0
  0
LINE
  8
0
 62
     0
 10
232.206
 20
60.6171
 30
0.0
 11
232.206
 21
63.7191
 31
0.0
  0
LINE
  8
0
 62
     0
 10
232.206
 20
63.7191
 30
0.0
 11
231.407
 21
63.7191
 31
0.0
  0
LINE
  8
0
 62
     0
 10
231.407
 20
63.7191
 30
0.0
 11
231.407
 21
64.7181
 31
0.0
  0
LINE
  8
0
 62
     0
 10
231.407
 20
64.7181
 30
0.0
 11
217.406
 21
64.7181
 31
0.0
  0
LINE
  8
0
 62
     0
 10
236.456
 20
64.7181
 30
0.0
 11
236.456
 21
63.7191
 31
0.0
  0
LINE
  8
0
 62
     0
 10
236.456
 20
63.7191
 30
0.0
 11
235.657
 21
63.7191
 31
0.0
  0
LINE
  8
0
 62
     0
 10
235.657
 20
63.7191
 30
0.0
 11
235.657
 21
60.6171
 31
0.0
  0
LINE
  8
0
 62
     0
 10
235.657
 20
60.6171
 30
0.0
 11
236.456
 21
60.6171
 31
0.0
  0
LINE
  8
0
 62
     0
 10
236.456
 20
60.6171
 30
0.0
 11
236.456
 21
54.8171
 31
0.0
  0
LINE
  8
0
 62
     0
 10
236.456
 20
54.8171
 30
0.0
 11
235.657
 21
54.8171
 31
0.0
  0
LINE
  8
0
 62
     0
 10
235.657
 20
54.8171
 30
0.0
 11
235.657
 21
51.7179
 31
0.0
  0
LINE
  8
0
 62
     0
 10
235.657
 20
51.7179
 30
0.0
 11
236.456
 21
51.7179
 31
0.0
  0
LINE
  8
0
 62
     0
 10
236.456
 20
51.7179
 30
0.0
 11
236.456
 21
50.7175
 31
0.0
  0
LINE
  8
0
 62
     0
 10
236.456
 20
50.7175
 30
0.0
 11
250.457
 21
50.7175
 31
0.0
  0
LINE
  8
0
 62
     0
 10
250.457
 20
50.7175
 30
0.0
 11
250.457
 21
51.7179
 31
0.0
  0
LINE
  8
0
 62
     0
 10
250.457
 20
51.7179
 30
0.0
 11
251.256
 21
51.7179
 31
0.0
  0
LINE
  8
0
 62
     0
 10
251.256
 20
51.7179
 30
0.0
 11
251.256
 21
54.8171
 31
0.0
  0
LINE
  8
0
 62
     0
 10
251.256
 20
54.8171
 30
0.0
 11
250.457
 21
54.8171
 31
0.0
  0
LINE
  8
0
 62
     0
 10
250.457
 20
54.8171
 30
0.0
 11
250.457
 21
60.6171
 31
0.0
  0
LINE
  8
0
 62
     0
 10
250.457
 20
60.6171
 30
0.0
 11
251.256
 21
60.6171
 31
0.0
  0
LINE
  8
0
 62
     0
 10
251.256
 20
60.6171
 30
0.0
 11
251.256
 21
63.7191
 31
0.0
  0
LINE
  8
0
 62
     0
 10
251.256
 20
63.7191
 30
0.0
 11
250.457
 21
63.7191
 31
0.0
  0
LINE
  8
0
 62
     0
 10
250.457
 20
63.7191
 30
0.0
 11
250.457
 21
64.7181
 31
0.0
  0
LINE
  8
0
 62
     0
 10
250.457
 20
64.7181
 30
0.0
 11
236.456
 21
64.7181
 31
0.0
  0
LINE
  8
0
 62
     0
 10
255.506
 20
64.7181
 30
0.0
 11
255.506
 21
63.7191
 31
0.0
  0
LINE
  8
0
 62
     0
 10
255.506
 20
63.7191
 30
0.0
 11
254.707
 21
63.7191
 31
0.0
  0
LINE
  8
0
 62
     0
 10
254.707
 20
63.7191
 30
0.0
 11
254.707
 21
60.6171
 31
0.0
  0
LINE
  8
0
 62
     0
 10
254.707
 20
60.6171
 30
0.0
 11
255.506
 21
60.6171
 31
0.0
  0
LINE
  8
0
 62
     0
 10
255.506
 20
60.6171
 30
0.0
 11
255.506
 21
54.8171
 31
0.0
  0
LINE
  8
0
 62
     0
 10
255.506
 20
54.8171
 30
0.0
 11
254.707
 21
54.8171
 31
0.0
  0
LINE
  8
0
 62
     0
 10
254.707
 20
54.8171
 30
0.0
 11
254.707
 21
51.7179
 31
0.0
  0
LINE
  8
0
 62
     0
 10
254.707
 20
51.7179
 30
0.0
 11
255.506
 21
51.7179
 31
0.0
  0
LINE
  8
0
 62
     0
 10
255.506
 20
51.7179
 30
0.0
 11
255.506
 21
50.7175
 31
0.0
  0
LINE
  8
0
 62
     0
 10
255.506
 20
50.7175
 30
0.0
 11
269.507
 21
50.7175
 31
0.0
  0
LINE
  8
0
 62
     0
 10
269.507
 20
50.7175
 30
0.0
 11
269.507
 21
51.7179
 31
0.0
  0
LINE
  8
0
 62
     0
 10
269.507
 20
51.7179
 30
0.0
 11
270.306
 21
51.7179
 31
0.0
  0
LINE
  8
0
 62
     0
 10
270.306
 20
51.7179
 30
0.0
 11
270.306
 21
54.8171
 31
0.0
  0
LINE
  8
0
 62
     0
 10
270.306
 20
54.8171
 30
0.0
 11
269.507
 21
54.8171
 31
0.0
  0
LINE
  8
0
 62
     0
 10
269.507
 20
54.8171
 30
0.0
 11
269.507
 21
60.6171
 31
0.0
  0
LINE
  8
0
 62
     0
 10
269.507
 20
60.6171
 30
0.0
 11
270.306
 21
60.6171
 31
0.0
  0
LINE
  8
0
 62
     0
 10
270.306
 20
60.6171
 30
0.0
 11
270.306
 21
63.7191
 31
0.0
  0
LINE
  8
0
 62
     0
 10
270.306
 20
63.7191
 30
0.0
 11
269.507
 21
63.7191
 31
0.0
  0
LINE
  8
0
 62
     0
 10
269.507
 20
63.7191
 30
0.0
 11
269.507
 21
64.7181
 31
0.0
  0
LINE
  8
0
 62
     0
 10
269.507
 20
64.7181
 30
0.0
 11
255.506
 21
64.7181
 31
0.0
  0
LINE
  8
0
 62
     0
 10
276.938
 20
64.7181
 30
0.0
 11
276.938
 21
63.7191
 31
0.0
  0
LINE
  8
0
 62
     0
 10
276.938
 20
63.7191
 30
0.0
 11
276.138
 21
63.7191
 31
0.0
  0
LINE
  8
0
 62
     0
 10
276.138
 20
63.7191
 30
0.0
 11
276.138
 21
60.6171
 31
0.0
  0
LINE
  8
0
 62
     0
 10
276.138
 20
60.6171
 30
0.0
 11
276.938
 21
60.6171
 31
0.0
  0
LINE
  8
0
 62
     0
 10
276.938
 20
60.6171
 30
0.0
 11
276.938
 21
54.8171
 31
0.0
  0
LINE
  8
0
 62
     0
 10
276.938
 20
54.8171
 30
0.0
 11
276.138
 21
54.8171
 31
0.0
  0
LINE
  8
0
 62
     0
 10
276.138
 20
54.8171
 30
0.0
 11
276.138
 21
51.7179
 31
0.0
  0
LINE
  8
0
 62
     0
 10
276.138
 20
51.7179
 30
0.0
 11
276.938
 21
51.7179
 31
0.0
  0
LINE
  8
0
 62
     0
 10
276.938
 20
51.7179
 30
0.0
 11
276.938
 21
50.7175
 31
0.0
  0
LINE
  8
0
 62
     0
 10
276.938
 20
50.7175
 30
0.0
 11
290.938
 21
50.7175
 31
0.0
  0
LINE
  8
0
 62
     0
 10
290.938
 20
50.7175
 30
0.0
 11
290.938
 21
51.7179
 31
0.0
  0
LINE
  8
0
 62
     0
 10
290.938
 20
51.7179
 30
0.0
 11
291.738
 21
51.7179
 31
0.0
  0
LINE
  8
0
 62
     0
 10
291.738
 20
51.7179
 30
0.0
 11
291.738
 21
54.8171
 31
0.0
  0
LINE
  8
0
 62
     0
 10
291.738
 20
54.8171
 30
0.0
 11
290.938
 21
54.8171
 31
0.0
  0
LINE
  8
0
 62
     0
 10
290.938
 20
54.8171
 30
0.0
 11
290.938
 21
60.6171
 31
0.0
  0
LINE
  8
0
 62
     0
 10
290.938
 20
60.6171
 30
0.0
 11
291.738
 21
60.6171
 31
0.0
  0
LINE
  8
0
 62
     0
 10
291.738
 20
60.6171
 30
0.0
 11
291.738
 21
63.7191
 31
0.0
  0
LINE
  8
0
 62
     0
 10
291.738
 20
63.7191
 30
0.0
 11
290.938
 21
63.7191
 31
0.0
  0
LINE
  8
0
 62
     0
 10
290.938
 20
63.7191
 30
0.0
 11
290.938
 21
64.7181
 31
0.0
  0
LINE
  8
0
 62
     0
 10
290.938
 20
64.7181
 30
0.0
 11
276.938
 21
64.7181
 31
0.0
  0
LINE
  8
0
 62
     0
 10
303.036
 20
58.6687
 30
0.0
 11
302.758
 21
58.528
 31
0.0
  0
LINE
  8
0
 62
     0
 10
302.758
 20
58.528
 30
0.0
 11
302.536
 21
58.3046
 31
0.0
  0
LINE
  8
0
 62
     0
 10
302.536
 20
58.3046
 30
0.0
 11
302.394
 21
58.0277
 31
0.0
  0
LINE
  8
0
 62
     0
 10
302.394
 20
58.0277
 30
0.0
 11
302.346
 21
57.719
 31
0.0
  0
LINE
  8
0
 62
     0
 10
302.346
 20
57.719
 30
0.0
 11
302.394
 21
57.4075
 31
0.0
  0
LINE
  8
0
 62
     0
 10
302.394
 20
57.4075
 30
0.0
 11
302.536
 21
57.1306
 31
0.0
  0
LINE
  8
0
 62
     0
 10
302.536
 20
57.1306
 30
0.0
 11
302.758
 21
56.9076
 31
0.0
  0
LINE
  8
0
 62
     0
 10
302.758
 20
56.9076
 30
0.0
 11
303.036
 21
56.7655
 31
0.0
  0
LINE
  8
0
 62
     0
 10
303.036
 20
56.7655
 30
0.0
 11
303.346
 21
56.7171
 31
0.0
  0
LINE
  8
0
 62
     0
 10
303.346
 20
56.7171
 30
0.0
 11
303.655
 21
56.7655
 31
0.0
  0
LINE
  8
0
 62
     0
 10
303.655
 20
56.7655
 30
0.0
 11
303.933
 21
56.9076
 31
0.0
  0
LINE
  8
0
 62
     0
 10
303.933
 20
56.9076
 30
0.0
 11
304.155
 21
57.1306
 31
0.0
  0
LINE
  8
0
 62
     0
 10
304.155
 20
57.1306
 30
0.0
 11
304.297
 21
57.4075
 31
0.0
  0
LINE
  8
0
 62
     0
 10
304.297
 20
57.4075
 30
0.0
 11
304.345
 21
57.719
 31
0.0
  0
LINE
  8
0
 62
     0
 10
304.345
 20
57.719
 30
0.0
 11
304.297
 21
58.0277
 31
0.0
  0
LINE
  8
0
 62
     0
 10
304.297
 20
58.0277
 30
0.0
 11
304.155
 21
58.3046
 31
0.0
  0
LINE
  8
0
 62
     0
 10
304.155
 20
58.3046
 30
0.0
 11
303.933
 21
58.528
 31
0.0
  0
LINE
  8
0
 62
     0
 10
303.933
 20
58.528
 30
0.0
 11
303.655
 21
58.6687
 31
0.0
  0
LINE
  8
0
 62
     0
 10
303.655
 20
58.6687
 30
0.0
 11
303.346
 21
58.7181
 31
0.0
  0
LINE
  8
0
 62
     0
 10
303.346
 20
58.7181
 30
0.0
 11
303.036
 21
58.6687
 31
0.0
  0
LINE
  8
0
 62
     0
 10
2.28479
 20
58.6687
 30
0.0
 11
2.00642
 21
58.528
 31
0.0
  0
LINE
  8
0
 62
     0
 10
2.00642
 20
58.528
 30
0.0
 11
1.78456
 21
58.3046
 31
0.0
  0
LINE
  8
0
 62
     0
 10
1.78456
 20
58.3046
 30
0.0
 11
1.64262
 21
58.0277
 31
0.0
  0
LINE
  8
0
 62
     0
 10
1.64262
 20
58.0277
 30
0.0
 11
1.59439
 21
57.719
 31
0.0
  0
LINE
  8
0
 62
     0
 10
1.59439
 20
57.719
 30
0.0
 11
1.64262
 21
57.4075
 31
0.0
  0
LINE
  8
0
 62
     0
 10
1.64262
 20
57.4075
 30
0.0
 11
1.78456
 21
57.1306
 31
0.0
  0
LINE
  8
0
 62
     0
 10
1.78456
 20
57.1306
 30
0.0
 11
2.00642
 21
56.9076
 31
0.0
  0
LINE
  8
0
 62
     0
 10
2.00642
 20
56.9076
 30
0.0
 11
2.28479
 21
56.7655
 31
0.0
  0
LINE
  8
0
 62
     0
 10
2.28479
 20
56.7655
 30
0.0
 11
2.59347
 21
56.7171
 31
0.0
  0
LINE
  8
0
 62
     0
 10
2.59347
 20
56.7171
 30
0.0
 11
2.90353
 21
56.7655
 31
0.0
  0
LINE
  8
0
 62
     0
 10
2.90353
 20
56.7655
 30
0.0
 11
3.18189
 21
56.9076
 31
0.0
  0
LINE
  8
0
 62
     0
 10
3.18189
 20
56.9076
 30
0.0
 11
3.40376
 21
57.1306
 31
0.0
  0
LINE
  8
0
 62
     0
 10
3.40376
 20
57.1306
 30
0.0
 11
3.5457
 21
57.4075
 31
0.0
  0
LINE
  8
0
 62
     0
 10
3.5457
 20
57.4075
 30
0.0
 11
3.5953
 21
57.719
 31
0.0
  0
LINE
  8
0
 62
     0
 10
3.5953
 20
57.719
 30
0.0
 11
3.5457
 21
58.0277
 31
0.0
  0
LINE
  8
0
 62
     0
 10
3.5457
 20
58.0277
 30
0.0
 11
3.40376
 21
58.3046
 31
0.0
  0
LINE
  8
0
 62
     0
 10
3.40376
 20
58.3046
 30
0.0
 11
3.18189
 21
58.528
 31
0.0
  0
LINE
  8
0
 62
     0
 10
3.18189
 20
58.528
 30
0.0
 11
2.90353
 21
58.6687
 31
0.0
  0
LINE
  8
0
 62
     0
 10
2.90353
 20
58.6687
 30
0.0
 11
2.59485
 21
58.7181
 31
0.0
  0
LINE
  8
0
 62
     0
 10
2.59485
 20
58.7181
 30
0.0
 11
2.28479
 21
58.6687
 31
0.0
  0
LINE
  8
0
 62
     0
 10
17.3812
 20
83.7681
 30
0.0
 11
17.3812
 21
82.7691
 31
0.0
  0
LINE
  8
0
 62
     0
 10
17.3812
 20
82.7691
 30
0.0
 11
16.5819
 21
82.7691
 31
0.0
  0
LINE
  8
0
 62
     0
 10
16.5819
 20
82.7691
 30
0.0
 11
16.5819
 21
79.6671
 31
0.0
  0
LINE
  8
0
 62
     0
 10
16.5819
 20
79.6671
 30
0.0
 11
17.3812
 21
79.6671
 31
0.0
  0
LINE
  8
0
 62
     0
 10
17.3812
 20
79.6671
 30
0.0
 11
17.3812
 21
73.8671
 31
0.0
  0
LINE
  8
0
 62
     0
 10
17.3812
 20
73.8671
 30
0.0
 11
16.5819
 21
73.8671
 31
0.0
  0
LINE
  8
0
 62
     0
 10
16.5819
 20
73.8671
 30
0.0
 11
16.5819
 21
70.7679
 31
0.0
  0
LINE
  8
0
 62
     0
 10
16.5819
 20
70.7679
 30
0.0
 11
17.3812
 21
70.7679
 31
0.0
  0
LINE
  8
0
 62
     0
 10
17.3812
 20
70.7679
 30
0.0
 11
17.3812
 21
69.7675
 31
0.0
  0
LINE
  8
0
 62
     0
 10
17.3812
 20
69.7675
 30
0.0
 11
31.3821
 21
69.7675
 31
0.0
  0
LINE
  8
0
 62
     0
 10
31.3821
 20
69.7675
 30
0.0
 11
31.3821
 21
70.7679
 31
0.0
  0
LINE
  8
0
 62
     0
 10
31.3821
 20
70.7679
 30
0.0
 11
32.1813
 21
70.7679
 31
0.0
  0
LINE
  8
0
 62
     0
 10
32.1813
 20
70.7679
 30
0.0
 11
32.1813
 21
73.8671
 31
0.0
  0
LINE
  8
0
 62
     0
 10
32.1813
 20
73.8671
 30
0.0
 11
31.3821
 21
73.8671
 31
0.0
  0
LINE
  8
0
 62
     0
 10
31.3821
 20
73.8671
 30
0.0
 11
31.3821
 21
79.6671
 31
0.0
  0
LINE
  8
0
 62
     0
 10
31.3821
 20
79.6671
 30
0.0
 11
32.1813
 21
79.6671
 31
0.0
  0
LINE
  8
0
 62
     0
 10
32.1813
 20
79.6671
 30
0.0
 11
32.1813
 21
82.7691
 31
0.0
  0
LINE
  8
0
 62
     0
 10
32.1813
 20
82.7691
 30
0.0
 11
31.3821
 21
82.7691
 31
0.0
  0
LINE
  8
0
 62
     0
 10
31.3821
 20
82.7691
 30
0.0
 11
31.3821
 21
83.7681
 31
0.0
  0
LINE
  8
0
 62
     0
 10
31.3821
 20
83.7681
 30
0.0
 11
17.3812
 21
83.7681
 31
0.0
  0
LINE
  8
0
 62
     0
 10
41.1949
 20
83.7681
 30
0.0
 11
41.1949
 21
82.7691
 31
0.0
  0
LINE
  8
0
 62
     0
 10
41.1949
 20
82.7691
 30
0.0
 11
40.3945
 21
82.7691
 31
0.0
  0
LINE
  8
0
 62
     0
 10
40.3945
 20
82.7691
 30
0.0
 11
40.3945
 21
79.6671
 31
0.0
  0
LINE
  8
0
 62
     0
 10
40.3945
 20
79.6671
 30
0.0
 11
41.1949
 21
79.6671
 31
0.0
  0
LINE
  8
0
 62
     0
 10
41.1949
 20
79.6671
 30
0.0
 11
41.1949
 21
73.8671
 31
0.0
  0
LINE
  8
0
 62
     0
 10
41.1949
 20
73.8671
 30
0.0
 11
40.3945
 21
73.8671
 31
0.0
  0
LINE
  8
0
 62
     0
 10
40.3945
 20
73.8671
 30
0.0
 11
40.3945
 21
70.7679
 31
0.0
  0
LINE
  8
0
 62
     0
 10
40.3945
 20
70.7679
 30
0.0
 11
41.1949
 21
70.7679
 31
0.0
  0
LINE
  8
0
 62
     0
 10
41.1949
 20
70.7679
 30
0.0
 11
41.1949
 21
69.7675
 31
0.0
  0
LINE
  8
0
 62
     0
 10
41.1949
 20
69.7675
 30
0.0
 11
55.1946
 21
69.7675
 31
0.0
  0
LINE
  8
0
 62
     0
 10
55.1946
 20
69.7675
 30
0.0
 11
55.1946
 21
70.7679
 31
0.0
  0
LINE
  8
0
 62
     0
 10
55.1946
 20
70.7679
 30
0.0
 11
55.9954
 21
70.7679
 31
0.0
  0
LINE
  8
0
 62
     0
 10
55.9954
 20
70.7679
 30
0.0
 11
55.9954
 21
73.8671
 31
0.0
  0
LINE
  8
0
 62
     0
 10
55.9954
 20
73.8671
 30
0.0
 11
55.1946
 21
73.8671
 31
0.0
  0
LINE
  8
0
 62
     0
 10
55.1946
 20
73.8671
 30
0.0
 11
55.1946
 21
79.6671
 31
0.0
  0
LINE
  8
0
 62
     0
 10
55.1946
 20
79.6671
 30
0.0
 11
55.9954
 21
79.6671
 31
0.0
  0
LINE
  8
0
 62
     0
 10
55.9954
 20
79.6671
 30
0.0
 11
55.9954
 21
82.7691
 31
0.0
  0
LINE
  8
0
 62
     0
 10
55.9954
 20
82.7691
 30
0.0
 11
55.1946
 21
82.7691
 31
0.0
  0
LINE
  8
0
 62
     0
 10
55.1946
 20
82.7691
 30
0.0
 11
55.1946
 21
83.7681
 31
0.0
  0
LINE
  8
0
 62
     0
 10
55.1946
 20
83.7681
 30
0.0
 11
41.1949
 21
83.7681
 31
0.0
  0
LINE
  8
0
 62
     0
 10
60.2449
 20
83.7681
 30
0.0
 11
60.2449
 21
82.7691
 31
0.0
  0
LINE
  8
0
 62
     0
 10
60.2449
 20
82.7691
 30
0.0
 11
59.4445
 21
82.7691
 31
0.0
  0
LINE
  8
0
 62
     0
 10
59.4445
 20
82.7691
 30
0.0
 11
59.4445
 21
79.6671
 31
0.0
  0
LINE
  8
0
 62
     0
 10
59.4445
 20
79.6671
 30
0.0
 11
60.2449
 21
79.6671
 31
0.0
  0
LINE
  8
0
 62
     0
 10
60.2449
 20
79.6671
 30
0.0
 11
60.2449
 21
73.8671
 31
0.0
  0
LINE
  8
0
 62
     0
 10
60.2449
 20
73.8671
 30
0.0
 11
59.4445
 21
73.8671
 31
0.0
  0
LINE
  8
0
 62
     0
 10
59.4445
 20
73.8671
 30
0.0
 11
59.4445
 21
70.7679
 31
0.0
  0
LINE
  8
0
 62
     0
 10
59.4445
 20
70.7679
 30
0.0
 11
60.2449
 21
70.7679
 31
0.0
  0
LINE
  8
0
 62
     0
 10
60.2449
 20
70.7679
 30
0.0
 11
60.2449
 21
69.7675
 31
0.0
  0
LINE
  8
0
 62
     0
 10
60.2449
 20
69.7675
 30
0.0
 11
74.2446
 21
69.7675
 31
0.0
  0
LINE
  8
0
 62
     0
 10
74.2446
 20
69.7675
 30
0.0
 11
74.2446
 21
70.7679
 31
0.0
  0
LINE
  8
0
 62
     0
 10
74.2446
 20
70.7679
 30
0.0
 11
75.0454
 21
70.7679
 31
0.0
  0
LINE
  8
0
 62
     0
 10
75.0454
 20
70.7679
 30
0.0
 11
75.0454
 21
73.8671
 31
0.0
  0
LINE
  8
0
 62
     0
 10
75.0454
 20
73.8671
 30
0.0
 11
74.2446
 21
73.8671
 31
0.0
  0
LINE
  8
0
 62
     0
 10
74.2446
 20
73.8671
 30
0.0
 11
74.2446
 21
79.6671
 31
0.0
  0
LINE
  8
0
 62
     0
 10
74.2446
 20
79.6671
 30
0.0
 11
75.0454
 21
79.6671
 31
0.0
  0
LINE
  8
0
 62
     0
 10
75.0454
 20
79.6671
 30
0.0
 11
75.0454
 21
82.7691
 31
0.0
  0
LINE
  8
0
 62
     0
 10
75.0454
 20
82.7691
 30
0.0
 11
74.2446
 21
82.7691
 31
0.0
  0
LINE
  8
0
 62
     0
 10
74.2446
 20
82.7691
 30
0.0
 11
74.2446
 21
83.7681
 31
0.0
  0
LINE
  8
0
 62
     0
 10
74.2446
 20
83.7681
 30
0.0
 11
60.2449
 21
83.7681
 31
0.0
  0
LINE
  8
0
 62
     0
 10
79.2949
 20
83.7681
 30
0.0
 11
79.2949
 21
82.7691
 31
0.0
  0
LINE
  8
0
 62
     0
 10
79.2949
 20
82.7691
 30
0.0
 11
78.4945
 21
82.7691
 31
0.0
  0
LINE
  8
0
 62
     0
 10
78.4945
 20
82.7691
 30
0.0
 11
78.4945
 21
79.6671
 31
0.0
  0
LINE
  8
0
 62
     0
 10
78.4945
 20
79.6671
 30
0.0
 11
79.2949
 21
79.6671
 31
0.0
  0
LINE
  8
0
 62
     0
 10
79.2949
 20
79.6671
 30
0.0
 11
79.2949
 21
73.8671
 31
0.0
  0
LINE
  8
0
 62
     0
 10
79.2949
 20
73.8671
 30
0.0
 11
78.4945
 21
73.8671
 31
0.0
  0
LINE
  8
0
 62
     0
 10
78.4945
 20
73.8671
 30
0.0
 11
78.4945
 21
70.7679
 31
0.0
  0
LINE
  8
0
 62
     0
 10
78.4945
 20
70.7679
 30
0.0
 11
79.2949
 21
70.7679
 31
0.0
  0
LINE
  8
0
 62
     0
 10
79.2949
 20
70.7679
 30
0.0
 11
79.2949
 21
69.7675
 31
0.0
  0
LINE
  8
0
 62
     0
 10
79.2949
 20
69.7675
 30
0.0
 11
93.2946
 21
69.7675
 31
0.0
  0
LINE
  8
0
 62
     0
 10
93.2946
 20
69.7675
 30
0.0
 11
93.2946
 21
70.7679
 31
0.0
  0
LINE
  8
0
 62
     0
 10
93.2946
 20
70.7679
 30
0.0
 11
94.0954
 21
70.7679
 31
0.0
  0
LINE
  8
0
 62
     0
 10
94.0954
 20
70.7679
 30
0.0
 11
94.0954
 21
73.8671
 31
0.0
  0
LINE
  8
0
 62
     0
 10
94.0954
 20
73.8671
 30
0.0
 11
93.2946
 21
73.8671
 31
0.0
  0
LINE
  8
0
 62
     0
 10
93.2946
 20
73.8671
 30
0.0
 11
93.2946
 21
79.6671
 31
0.0
  0
LINE
  8
0
 62
     0
 10
93.2946
 20
79.6671
 30
0.0
 11
94.0954
 21
79.6671
 31
0.0
  0
LINE
  8
0
 62
     0
 10
94.0954
 20
79.6671
 30
0.0
 11
94.0954
 21
82.7691
 31
0.0
  0
LINE
  8
0
 62
     0
 10
94.0954
 20
82.7691
 30
0.0
 11
93.2946
 21
82.7691
 31
0.0
  0
LINE
  8
0
 62
     0
 10
93.2946
 20
82.7691
 30
0.0
 11
93.2946
 21
83.7681
 31
0.0
  0
LINE
  8
0
 62
     0
 10
93.2946
 20
83.7681
 30
0.0
 11
79.2949
 21
83.7681
 31
0.0
  0
LINE
  8
0
 62
     0
 10
98.3449
 20
83.7681
 30
0.0
 11
98.3449
 21
82.7691
 31
0.0
  0
LINE
  8
0
 62
     0
 10
98.3449
 20
82.7691
 30
0.0
 11
97.5445
 21
82.7691
 31
0.0
  0
LINE
  8
0
 62
     0
 10
97.5445
 20
82.7691
 30
0.0
 11
97.5445
 21
79.6671
 31
0.0
  0
LINE
  8
0
 62
     0
 10
97.5445
 20
79.6671
 30
0.0
 11
98.3449
 21
79.6671
 31
0.0
  0
LINE
  8
0
 62
     0
 10
98.3449
 20
79.6671
 30
0.0
 11
98.3449
 21
73.8671
 31
0.0
  0
LINE
  8
0
 62
     0
 10
98.3449
 20
73.8671
 30
0.0
 11
97.5445
 21
73.8671
 31
0.0
  0
LINE
  8
0
 62
     0
 10
97.5445
 20
73.8671
 30
0.0
 11
97.5445
 21
70.7679
 31
0.0
  0
LINE
  8
0
 62
     0
 10
97.5445
 20
70.7679
 30
0.0
 11
98.3449
 21
70.7679
 31
0.0
  0
LINE
  8
0
 62
     0
 10
98.3449
 20
70.7679
 30
0.0
 11
98.3449
 21
69.7675
 31
0.0
  0
LINE
  8
0
 62
     0
 10
98.3449
 20
69.7675
 30
0.0
 11
112.345
 21
69.7675
 31
0.0
  0
LINE
  8
0
 62
     0
 10
112.345
 20
69.7675
 30
0.0
 11
112.345
 21
70.7679
 31
0.0
  0
LINE
  8
0
 62
     0
 10
112.345
 20
70.7679
 30
0.0
 11
113.145
 21
70.7679
 31
0.0
  0
LINE
  8
0
 62
     0
 10
113.145
 20
70.7679
 30
0.0
 11
113.145
 21
73.8671
 31
0.0
  0
LINE
  8
0
 62
     0
 10
113.145
 20
73.8671
 30
0.0
 11
112.345
 21
73.8671
 31
0.0
  0
LINE
  8
0
 62
     0
 10
112.345
 20
73.8671
 30
0.0
 11
112.345
 21
79.6671
 31
0.0
  0
LINE
  8
0
 62
     0
 10
112.345
 20
79.6671
 30
0.0
 11
113.145
 21
79.6671
 31
0.0
  0
LINE
  8
0
 62
     0
 10
113.145
 20
79.6671
 30
0.0
 11
113.145
 21
82.7691
 31
0.0
  0
LINE
  8
0
 62
     0
 10
113.145
 20
82.7691
 30
0.0
 11
112.345
 21
82.7691
 31
0.0
  0
LINE
  8
0
 62
     0
 10
112.345
 20
82.7691
 30
0.0
 11
112.345
 21
83.7681
 31
0.0
  0
LINE
  8
0
 62
     0
 10
112.345
 20
83.7681
 30
0.0
 11
98.3449
 21
83.7681
 31
0.0
  0
LINE
  8
0
 62
     0
 10
117.395
 20
83.7681
 30
0.0
 11
117.395
 21
82.7691
 31
0.0
  0
LINE
  8
0
 62
     0
 10
117.395
 20
82.7691
 30
0.0
 11
116.594
 21
82.7691
 31
0.0
  0
LINE
  8
0
 62
     0
 10
116.594
 20
82.7691
 30
0.0
 11
116.594
 21
79.6671
 31
0.0
  0
LINE
  8
0
 62
     0
 10
116.594
 20
79.6671
 30
0.0
 11
117.395
 21
79.6671
 31
0.0
  0
LINE
  8
0
 62
     0
 10
117.395
 20
79.6671
 30
0.0
 11
117.395
 21
73.8671
 31
0.0
  0
LINE
  8
0
 62
     0
 10
117.395
 20
73.8671
 30
0.0
 11
116.594
 21
73.8671
 31
0.0
  0
LINE
  8
0
 62
     0
 10
116.594
 20
73.8671
 30
0.0
 11
116.594
 21
70.7679
 31
0.0
  0
LINE
  8
0
 62
     0
 10
116.594
 20
70.7679
 30
0.0
 11
117.395
 21
70.7679
 31
0.0
  0
LINE
  8
0
 62
     0
 10
117.395
 20
70.7679
 30
0.0
 11
117.395
 21
69.7675
 31
0.0
  0
LINE
  8
0
 62
     0
 10
117.395
 20
69.7675
 30
0.0
 11
131.395
 21
69.7675
 31
0.0
  0
LINE
  8
0
 62
     0
 10
131.395
 20
69.7675
 30
0.0
 11
131.395
 21
70.7679
 31
0.0
  0
LINE
  8
0
 62
     0
 10
131.395
 20
70.7679
 30
0.0
 11
132.195
 21
70.7679
 31
0.0
  0
LINE
  8
0
 62
     0
 10
132.195
 20
70.7679
 30
0.0
 11
132.195
 21
73.8671
 31
0.0
  0
LINE
  8
0
 62
     0
 10
132.195
 20
73.8671
 30
0.0
 11
131.395
 21
73.8671
 31
0.0
  0
LINE
  8
0
 62
     0
 10
131.395
 20
73.8671
 30
0.0
 11
131.395
 21
79.6671
 31
0.0
  0
LINE
  8
0
 62
     0
 10
131.395
 20
79.6671
 30
0.0
 11
132.195
 21
79.6671
 31
0.0
  0
LINE
  8
0
 62
     0
 10
132.195
 20
79.6671
 30
0.0
 11
132.195
 21
82.7691
 31
0.0
  0
LINE
  8
0
 62
     0
 10
132.195
 20
82.7691
 30
0.0
 11
131.395
 21
82.7691
 31
0.0
  0
LINE
  8
0
 62
     0
 10
131.395
 20
82.7691
 30
0.0
 11
131.395
 21
83.7681
 31
0.0
  0
LINE
  8
0
 62
     0
 10
131.395
 20
83.7681
 30
0.0
 11
117.395
 21
83.7681
 31
0.0
  0
LINE
  8
0
 62
     0
 10
136.445
 20
83.7681
 30
0.0
 11
136.445
 21
82.7691
 31
0.0
  0
LINE
  8
0
 62
     0
 10
136.445
 20
82.7691
 30
0.0
 11
135.644
 21
82.7691
 31
0.0
  0
LINE
  8
0
 62
     0
 10
135.644
 20
82.7691
 30
0.0
 11
135.644
 21
79.6671
 31
0.0
  0
LINE
  8
0
 62
     0
 10
135.644
 20
79.6671
 30
0.0
 11
136.445
 21
79.6671
 31
0.0
  0
LINE
  8
0
 62
     0
 10
136.445
 20
79.6671
 30
0.0
 11
136.445
 21
73.8671
 31
0.0
  0
LINE
  8
0
 62
     0
 10
136.445
 20
73.8671
 30
0.0
 11
135.644
 21
73.8671
 31
0.0
  0
LINE
  8
0
 62
     0
 10
135.644
 20
73.8671
 30
0.0
 11
135.644
 21
70.7679
 31
0.0
  0
LINE
  8
0
 62
     0
 10
135.644
 20
70.7679
 30
0.0
 11
136.445
 21
70.7679
 31
0.0
  0
LINE
  8
0
 62
     0
 10
136.445
 20
70.7679
 30
0.0
 11
136.445
 21
69.7675
 31
0.0
  0
LINE
  8
0
 62
     0
 10
136.445
 20
69.7675
 30
0.0
 11
150.445
 21
69.7675
 31
0.0
  0
LINE
  8
0
 62
     0
 10
150.445
 20
69.7675
 30
0.0
 11
150.445
 21
70.7679
 31
0.0
  0
LINE
  8
0
 62
     0
 10
150.445
 20
70.7679
 30
0.0
 11
151.245
 21
70.7679
 31
0.0
  0
LINE
  8
0
 62
     0
 10
151.245
 20
70.7679
 30
0.0
 11
151.245
 21
73.8671
 31
0.0
  0
LINE
  8
0
 62
     0
 10
151.245
 20
73.8671
 30
0.0
 11
150.445
 21
73.8671
 31
0.0
  0
LINE
  8
0
 62
     0
 10
150.445
 20
73.8671
 30
0.0
 11
150.445
 21
79.6671
 31
0.0
  0
LINE
  8
0
 62
     0
 10
150.445
 20
79.6671
 30
0.0
 11
151.245
 21
79.6671
 31
0.0
  0
LINE
  8
0
 62
     0
 10
151.245
 20
79.6671
 30
0.0
 11
151.245
 21
82.7691
 31
0.0
  0
LINE
  8
0
 62
     0
 10
151.245
 20
82.7691
 30
0.0
 11
150.445
 21
82.7691
 31
0.0
  0
LINE
  8
0
 62
     0
 10
150.445
 20
82.7691
 30
0.0
 11
150.445
 21
83.7681
 31
0.0
  0
LINE
  8
0
 62
     0
 10
150.445
 20
83.7681
 30
0.0
 11
136.445
 21
83.7681
 31
0.0
  0
LINE
  8
0
 62
     0
 10
155.495
 20
83.7681
 30
0.0
 11
155.495
 21
82.7691
 31
0.0
  0
LINE
  8
0
 62
     0
 10
155.495
 20
82.7691
 30
0.0
 11
154.694
 21
82.7691
 31
0.0
  0
LINE
  8
0
 62
     0
 10
154.694
 20
82.7691
 30
0.0
 11
154.694
 21
79.6671
 31
0.0
  0
LINE
  8
0
 62
     0
 10
154.694
 20
79.6671
 30
0.0
 11
155.495
 21
79.6671
 31
0.0
  0
LINE
  8
0
 62
     0
 10
155.495
 20
79.6671
 30
0.0
 11
155.495
 21
73.8671
 31
0.0
  0
LINE
  8
0
 62
     0
 10
155.495
 20
73.8671
 30
0.0
 11
154.694
 21
73.8671
 31
0.0
  0
LINE
  8
0
 62
     0
 10
154.694
 20
73.8671
 30
0.0
 11
154.694
 21
70.7679
 31
0.0
  0
LINE
  8
0
 62
     0
 10
154.694
 20
70.7679
 30
0.0
 11
155.495
 21
70.7679
 31
0.0
  0
LINE
  8
0
 62
     0
 10
155.495
 20
70.7679
 30
0.0
 11
155.495
 21
69.7675
 31
0.0
  0
LINE
  8
0
 62
     0
 10
155.495
 20
69.7675
 30
0.0
 11
169.495
 21
69.7675
 31
0.0
  0
LINE
  8
0
 62
     0
 10
169.495
 20
69.7675
 30
0.0
 11
169.495
 21
70.7679
 31
0.0
  0
LINE
  8
0
 62
     0
 10
169.495
 20
70.7679
 30
0.0
 11
170.295
 21
70.7679
 31
0.0
  0
LINE
  8
0
 62
     0
 10
170.295
 20
70.7679
 30
0.0
 11
170.295
 21
73.8671
 31
0.0
  0
LINE
  8
0
 62
     0
 10
170.295
 20
73.8671
 30
0.0
 11
169.495
 21
73.8671
 31
0.0
  0
LINE
  8
0
 62
     0
 10
169.495
 20
73.8671
 30
0.0
 11
169.495
 21
79.6671
 31
0.0
  0
LINE
  8
0
 62
     0
 10
169.495
 20
79.6671
 30
0.0
 11
170.295
 21
79.6671
 31
0.0
  0
LINE
  8
0
 62
     0
 10
170.295
 20
79.6671
 30
0.0
 11
170.295
 21
82.7691
 31
0.0
  0
LINE
  8
0
 62
     0
 10
170.295
 20
82.7691
 30
0.0
 11
169.495
 21
82.7691
 31
0.0
  0
LINE
  8
0
 62
     0
 10
169.495
 20
82.7691
 30
0.0
 11
169.495
 21
83.7681
 31
0.0
  0
LINE
  8
0
 62
     0
 10
169.495
 20
83.7681
 30
0.0
 11
155.495
 21
83.7681
 31
0.0
  0
LINE
  8
0
 62
     0
 10
174.545
 20
83.7681
 30
0.0
 11
174.545
 21
82.7691
 31
0.0
  0
LINE
  8
0
 62
     0
 10
174.545
 20
82.7691
 30
0.0
 11
173.744
 21
82.7691
 31
0.0
  0
LINE
  8
0
 62
     0
 10
173.744
 20
82.7691
 30
0.0
 11
173.744
 21
79.6671
 31
0.0
  0
LINE
  8
0
 62
     0
 10
173.744
 20
79.6671
 30
0.0
 11
174.545
 21
79.6671
 31
0.0
  0
LINE
  8
0
 62
     0
 10
174.545
 20
79.6671
 30
0.0
 11
174.545
 21
73.8671
 31
0.0
  0
LINE
  8
0
 62
     0
 10
174.545
 20
73.8671
 30
0.0
 11
173.744
 21
73.8671
 31
0.0
  0
LINE
  8
0
 62
     0
 10
173.744
 20
73.8671
 30
0.0
 11
173.744
 21
70.7679
 31
0.0
  0
LINE
  8
0
 62
     0
 10
173.744
 20
70.7679
 30
0.0
 11
174.545
 21
70.7679
 31
0.0
  0
LINE
  8
0
 62
     0
 10
174.545
 20
70.7679
 30
0.0
 11
174.545
 21
69.7675
 31
0.0
  0
LINE
  8
0
 62
     0
 10
174.545
 20
69.7675
 30
0.0
 11
188.545
 21
69.7675
 31
0.0
  0
LINE
  8
0
 62
     0
 10
188.545
 20
69.7675
 30
0.0
 11
188.545
 21
70.7679
 31
0.0
  0
LINE
  8
0
 62
     0
 10
188.545
 20
70.7679
 30
0.0
 11
189.345
 21
70.7679
 31
0.0
  0
LINE
  8
0
 62
     0
 10
189.345
 20
70.7679
 30
0.0
 11
189.345
 21
73.8671
 31
0.0
  0
LINE
  8
0
 62
     0
 10
189.345
 20
73.8671
 30
0.0
 11
188.545
 21
73.8671
 31
0.0
  0
LINE
  8
0
 62
     0
 10
188.545
 20
73.8671
 30
0.0
 11
188.545
 21
79.6671
 31
0.0
  0
LINE
  8
0
 62
     0
 10
188.545
 20
79.6671
 30
0.0
 11
189.345
 21
79.6671
 31
0.0
  0
LINE
  8
0
 62
     0
 10
189.345
 20
79.6671
 30
0.0
 11
189.345
 21
82.7691
 31
0.0
  0
LINE
  8
0
 62
     0
 10
189.345
 20
82.7691
 30
0.0
 11
188.545
 21
82.7691
 31
0.0
  0
LINE
  8
0
 62
     0
 10
188.545
 20
82.7691
 30
0.0
 11
188.545
 21
83.7681
 31
0.0
  0
LINE
  8
0
 62
     0
 10
188.545
 20
83.7681
 30
0.0
 11
174.545
 21
83.7681
 31
0.0
  0
LINE
  8
0
 62
     0
 10
193.595
 20
83.7681
 30
0.0
 11
193.595
 21
82.7691
 31
0.0
  0
LINE
  8
0
 62
     0
 10
193.595
 20
82.7691
 30
0.0
 11
192.794
 21
82.7691
 31
0.0
  0
LINE
  8
0
 62
     0
 10
192.794
 20
82.7691
 30
0.0
 11
192.794
 21
79.6671
 31
0.0
  0
LINE
  8
0
 62
     0
 10
192.794
 20
79.6671
 30
0.0
 11
193.595
 21
79.6671
 31
0.0
  0
LINE
  8
0
 62
     0
 10
193.595
 20
79.6671
 30
0.0
 11
193.595
 21
73.8671
 31
0.0
  0
LINE
  8
0
 62
     0
 10
193.595
 20
73.8671
 30
0.0
 11
192.794
 21
73.8671
 31
0.0
  0
LINE
  8
0
 62
     0
 10
192.794
 20
73.8671
 30
0.0
 11
192.794
 21
70.7679
 31
0.0
  0
LINE
  8
0
 62
     0
 10
192.794
 20
70.7679
 30
0.0
 11
193.595
 21
70.7679
 31
0.0
  0
LINE
  8
0
 62
     0
 10
193.595
 20
70.7679
 30
0.0
 11
193.595
 21
69.7675
 31
0.0
  0
LINE
  8
0
 62
     0
 10
193.595
 20
69.7675
 30
0.0
 11
207.595
 21
69.7675
 31
0.0
  0
LINE
  8
0
 62
     0
 10
207.595
 20
69.7675
 30
0.0
 11
207.595
 21
70.7679
 31
0.0
  0
LINE
  8
0
 62
     0
 10
207.595
 20
70.7679
 30
0.0
 11
208.395
 21
70.7679
 31
0.0
  0
LINE
  8
0
 62
     0
 10
208.395
 20
70.7679
 30
0.0
 11
208.395
 21
73.8671
 31
0.0
  0
LINE
  8
0
 62
     0
 10
208.395
 20
73.8671
 30
0.0
 11
207.595
 21
73.8671
 31
0.0
  0
LINE
  8
0
 62
     0
 10
207.595
 20
73.8671
 30
0.0
 11
207.595
 21
79.6671
 31
0.0
  0
LINE
  8
0
 62
     0
 10
207.595
 20
79.6671
 30
0.0
 11
208.395
 21
79.6671
 31
0.0
  0
LINE
  8
0
 62
     0
 10
208.395
 20
79.6671
 30
0.0
 11
208.395
 21
82.7691
 31
0.0
  0
LINE
  8
0
 62
     0
 10
208.395
 20
82.7691
 30
0.0
 11
207.595
 21
82.7691
 31
0.0
  0
LINE
  8
0
 62
     0
 10
207.595
 20
82.7691
 30
0.0
 11
207.595
 21
83.7681
 31
0.0
  0
LINE
  8
0
 62
     0
 10
207.595
 20
83.7681
 30
0.0
 11
193.595
 21
83.7681
 31
0.0
  0
LINE
  8
0
 62
     0
 10
212.645
 20
83.7681
 30
0.0
 11
212.645
 21
82.7691
 31
0.0
  0
LINE
  8
0
 62
     0
 10
212.645
 20
82.7691
 30
0.0
 11
211.844
 21
82.7691
 31
0.0
  0
LINE
  8
0
 62
     0
 10
211.844
 20
82.7691
 30
0.0
 11
211.844
 21
79.6671
 31
0.0
  0
LINE
  8
0
 62
     0
 10
211.844
 20
79.6671
 30
0.0
 11
212.645
 21
79.6671
 31
0.0
  0
LINE
  8
0
 62
     0
 10
212.645
 20
79.6671
 30
0.0
 11
212.645
 21
73.8671
 31
0.0
  0
LINE
  8
0
 62
     0
 10
212.645
 20
73.8671
 30
0.0
 11
211.844
 21
73.8671
 31
0.0
  0
LINE
  8
0
 62
     0
 10
211.844
 20
73.8671
 30
0.0
 11
211.844
 21
70.7679
 31
0.0
  0
LINE
  8
0
 62
     0
 10
211.844
 20
70.7679
 30
0.0
 11
212.645
 21
70.7679
 31
0.0
  0
LINE
  8
0
 62
     0
 10
212.645
 20
70.7679
 30
0.0
 11
212.645
 21
69.7675
 31
0.0
  0
LINE
  8
0
 62
     0
 10
212.645
 20
69.7675
 30
0.0
 11
226.645
 21
69.7675
 31
0.0
  0
LINE
  8
0
 62
     0
 10
226.645
 20
69.7675
 30
0.0
 11
226.645
 21
70.7679
 31
0.0
  0
LINE
  8
0
 62
     0
 10
226.645
 20
70.7679
 30
0.0
 11
227.445
 21
70.7679
 31
0.0
  0
LINE
  8
0
 62
     0
 10
227.445
 20
70.7679
 30
0.0
 11
227.445
 21
73.8671
 31
0.0
  0
LINE
  8
0
 62
     0
 10
227.445
 20
73.8671
 30
0.0
 11
226.645
 21
73.8671
 31
0.0
  0
LINE
  8
0
 62
     0
 10
226.645
 20
73.8671
 30
0.0
 11
226.645
 21
79.6671
 31
0.0
  0
LINE
  8
0
 62
     0
 10
226.645
 20
79.6671
 30
0.0
 11
227.445
 21
79.6671
 31
0.0
  0
LINE
  8
0
 62
     0
 10
227.445
 20
79.6671
 30
0.0
 11
227.445
 21
82.7691
 31
0.0
  0
LINE
  8
0
 62
     0
 10
227.445
 20
82.7691
 30
0.0
 11
226.645
 21
82.7691
 31
0.0
  0
LINE
  8
0
 62
     0
 10
226.645
 20
82.7691
 30
0.0
 11
226.645
 21
83.7681
 31
0.0
  0
LINE
  8
0
 62
     0
 10
226.645
 20
83.7681
 30
0.0
 11
212.645
 21
83.7681
 31
0.0
  0
LINE
  8
0
 62
     0
 10
231.695
 20
83.7681
 30
0.0
 11
231.695
 21
82.7691
 31
0.0
  0
LINE
  8
0
 62
     0
 10
231.695
 20
82.7691
 30
0.0
 11
230.894
 21
82.7691
 31
0.0
  0
LINE
  8
0
 62
     0
 10
230.894
 20
82.7691
 30
0.0
 11
230.894
 21
79.6671
 31
0.0
  0
LINE
  8
0
 62
     0
 10
230.894
 20
79.6671
 30
0.0
 11
231.695
 21
79.6671
 31
0.0
  0
LINE
  8
0
 62
     0
 10
231.695
 20
79.6671
 30
0.0
 11
231.695
 21
73.8671
 31
0.0
  0
LINE
  8
0
 62
     0
 10
231.695
 20
73.8671
 30
0.0
 11
230.894
 21
73.8671
 31
0.0
  0
LINE
  8
0
 62
     0
 10
230.894
 20
73.8671
 30
0.0
 11
230.894
 21
70.7679
 31
0.0
  0
LINE
  8
0
 62
     0
 10
230.894
 20
70.7679
 30
0.0
 11
231.695
 21
70.7679
 31
0.0
  0
LINE
  8
0
 62
     0
 10
231.695
 20
70.7679
 30
0.0
 11
231.695
 21
69.7675
 31
0.0
  0
LINE
  8
0
 62
     0
 10
231.695
 20
69.7675
 30
0.0
 11
245.695
 21
69.7675
 31
0.0
  0
LINE
  8
0
 62
     0
 10
245.695
 20
69.7675
 30
0.0
 11
245.695
 21
70.7679
 31
0.0
  0
LINE
  8
0
 62
     0
 10
245.695
 20
70.7679
 30
0.0
 11
246.495
 21
70.7679
 31
0.0
  0
LINE
  8
0
 62
     0
 10
246.495
 20
70.7679
 30
0.0
 11
246.495
 21
73.8671
 31
0.0
  0
LINE
  8
0
 62
     0
 10
246.495
 20
73.8671
 30
0.0
 11
245.695
 21
73.8671
 31
0.0
  0
LINE
  8
0
 62
     0
 10
245.695
 20
73.8671
 30
0.0
 11
245.695
 21
79.6671
 31
0.0
  0
LINE
  8
0
 62
     0
 10
245.695
 20
79.6671
 30
0.0
 11
246.495
 21
79.6671
 31
0.0
  0
LINE
  8
0
 62
     0
 10
246.495
 20
79.6671
 30
0.0
 11
246.495
 21
82.7691
 31
0.0
  0
LINE
  8
0
 62
     0
 10
246.495
 20
82.7691
 30
0.0
 11
245.695
 21
82.7691
 31
0.0
  0
LINE
  8
0
 62
     0
 10
245.695
 20
82.7691
 30
0.0
 11
245.695
 21
83.7681
 31
0.0
  0
LINE
  8
0
 62
     0
 10
245.695
 20
83.7681
 30
0.0
 11
231.695
 21
83.7681
 31
0.0
  0
LINE
  8
0
 62
     0
 10
250.745
 20
83.7681
 30
0.0
 11
250.745
 21
82.7691
 31
0.0
  0
LINE
  8
0
 62
     0
 10
250.745
 20
82.7691
 30
0.0
 11
249.944
 21
82.7691
 31
0.0
  0
LINE
  8
0
 62
     0
 10
249.944
 20
82.7691
 30
0.0
 11
249.944
 21
79.6671
 31
0.0
  0
LINE
  8
0
 62
     0
 10
249.944
 20
79.6671
 30
0.0
 11
250.745
 21
79.6671
 31
0.0
  0
LINE
  8
0
 62
     0
 10
250.745
 20
79.6671
 30
0.0
 11
250.745
 21
73.8671
 31
0.0
  0
LINE
  8
0
 62
     0
 10
250.745
 20
73.8671
 30
0.0
 11
249.944
 21
73.8671
 31
0.0
  0
LINE
  8
0
 62
     0
 10
249.944
 20
73.8671
 30
0.0
 11
249.944
 21
70.7679
 31
0.0
  0
LINE
  8
0
 62
     0
 10
249.944
 20
70.7679
 30
0.0
 11
250.745
 21
70.7679
 31
0.0
  0
LINE
  8
0
 62
     0
 10
250.745
 20
70.7679
 30
0.0
 11
250.745
 21
69.7675
 31
0.0
  0
LINE
  8
0
 62
     0
 10
250.745
 20
69.7675
 30
0.0
 11
264.745
 21
69.7675
 31
0.0
  0
LINE
  8
0
 62
     0
 10
264.745
 20
69.7675
 30
0.0
 11
264.745
 21
70.7679
 31
0.0
  0
LINE
  8
0
 62
     0
 10
264.745
 20
70.7679
 30
0.0
 11
265.545
 21
70.7679
 31
0.0
  0
LINE
  8
0
 62
     0
 10
265.545
 20
70.7679
 30
0.0
 11
265.545
 21
73.8671
 31
0.0
  0
LINE
  8
0
 62
     0
 10
265.545
 20
73.8671
 30
0.0
 11
264.745
 21
73.8671
 31
0.0
  0
LINE
  8
0
 62
     0
 10
264.745
 20
73.8671
 30
0.0
 11
264.745
 21
79.6671
 31
0.0
  0
LINE
  8
0
 62
     0
 10
264.745
 20
79.6671
 30
0.0
 11
265.545
 21
79.6671
 31
0.0
  0
LINE
  8
0
 62
     0
 10
265.545
 20
79.6671
 30
0.0
 11
265.545
 21
82.7691
 31
0.0
  0
LINE
  8
0
 62
     0
 10
265.545
 20
82.7691
 30
0.0
 11
264.745
 21
82.7691
 31
0.0
  0
LINE
  8
0
 62
     0
 10
264.745
 20
82.7691
 30
0.0
 11
264.745
 21
83.7681
 31
0.0
  0
LINE
  8
0
 62
     0
 10
264.745
 20
83.7681
 30
0.0
 11
250.745
 21
83.7681
 31
0.0
  0
LINE
  8
0
 62
     0
 10
274.556
 20
83.7681
 30
0.0
 11
274.556
 21
82.7691
 31
0.0
  0
LINE
  8
0
 62
     0
 10
274.556
 20
82.7691
 30
0.0
 11
273.757
 21
82.7691
 31
0.0
  0
LINE
  8
0
 62
     0
 10
273.757
 20
82.7691
 30
0.0
 11
273.757
 21
79.6671
 31
0.0
  0
LINE
  8
0
 62
     0
 10
273.757
 20
79.6671
 30
0.0
 11
274.556
 21
79.6671
 31
0.0
  0
LINE
  8
0
 62
     0
 10
274.556
 20
79.6671
 30
0.0
 11
274.556
 21
73.8671
 31
0.0
  0
LINE
  8
0
 62
     0
 10
274.556
 20
73.8671
 30
0.0
 11
273.757
 21
73.8671
 31
0.0
  0
LINE
  8
0
 62
     0
 10
273.757
 20
73.8671
 30
0.0
 11
273.757
 21
70.7679
 31
0.0
  0
LINE
  8
0
 62
     0
 10
273.757
 20
70.7679
 30
0.0
 11
274.556
 21
70.7679
 31
0.0
  0
LINE
  8
0
 62
     0
 10
274.556
 20
70.7679
 30
0.0
 11
274.556
 21
69.7675
 31
0.0
  0
LINE
  8
0
 62
     0
 10
274.556
 20
69.7675
 30
0.0
 11
288.557
 21
69.7675
 31
0.0
  0
LINE
  8
0
 62
     0
 10
288.557
 20
69.7675
 30
0.0
 11
288.557
 21
70.7679
 31
0.0
  0
LINE
  8
0
 62
     0
 10
288.557
 20
70.7679
 30
0.0
 11
289.356
 21
70.7679
 31
0.0
  0
LINE
  8
0
 62
     0
 10
289.356
 20
70.7679
 30
0.0
 11
289.356
 21
73.8671
 31
0.0
  0
LINE
  8
0
 62
     0
 10
289.356
 20
73.8671
 30
0.0
 11
288.557
 21
73.8671
 31
0.0
  0
LINE
  8
0
 62
     0
 10
288.557
 20
73.8671
 30
0.0
 11
288.557
 21
79.6671
 31
0.0
  0
LINE
  8
0
 62
     0
 10
288.557
 20
79.6671
 30
0.0
 11
289.356
 21
79.6671
 31
0.0
  0
LINE
  8
0
 62
     0
 10
289.356
 20
79.6671
 30
0.0
 11
289.356
 21
82.7691
 31
0.0
  0
LINE
  8
0
 62
     0
 10
289.356
 20
82.7691
 30
0.0
 11
288.557
 21
82.7691
 31
0.0
  0
LINE
  8
0
 62
     0
 10
288.557
 20
82.7691
 30
0.0
 11
288.557
 21
83.7681
 31
0.0
  0
LINE
  8
0
 62
     0
 10
288.557
 20
83.7681
 30
0.0
 11
274.556
 21
83.7681
 31
0.0
  0
LINE
  8
0
 62
     0
 10
12.6201
 20
102.818
 30
0.0
 11
12.6201
 21
101.819
 31
0.0
  0
LINE
  8
0
 62
     0
 10
12.6201
 20
101.819
 30
0.0
 11
11.8194
 21
101.819
 31
0.0
  0
LINE
  8
0
 62
     0
 10
11.8194
 20
101.819
 30
0.0
 11
11.8194
 21
98.7171
 31
0.0
  0
LINE
  8
0
 62
     0
 10
11.8194
 20
98.7171
 30
0.0
 11
12.6201
 21
98.7171
 31
0.0
  0
LINE
  8
0
 62
     0
 10
12.6201
 20
98.7171
 30
0.0
 11
12.6201
 21
92.9185
 31
0.0
  0
LINE
  8
0
 62
     0
 10
12.6201
 20
92.9185
 30
0.0
 11
11.8194
 21
92.9185
 31
0.0
  0
LINE
  8
0
 62
     0
 10
11.8194
 20
92.9185
 30
0.0
 11
11.8194
 21
89.8179
 31
0.0
  0
LINE
  8
0
 62
     0
 10
11.8194
 20
89.8179
 30
0.0
 11
12.6201
 21
89.8179
 31
0.0
  0
LINE
  8
0
 62
     0
 10
12.6201
 20
89.8179
 30
0.0
 11
12.6201
 21
88.8175
 31
0.0
  0
LINE
  8
0
 62
     0
 10
12.6201
 20
88.8175
 30
0.0
 11
26.6196
 21
88.8175
 31
0.0
  0
LINE
  8
0
 62
     0
 10
26.6196
 20
88.8175
 30
0.0
 11
26.6196
 21
89.8179
 31
0.0
  0
LINE
  8
0
 62
     0
 10
26.6196
 20
89.8179
 30
0.0
 11
27.4175
 21
89.8179
 31
0.0
  0
LINE
  8
0
 62
     0
 10
27.4175
 20
89.8179
 30
0.0
 11
27.4175
 21
92.9185
 31
0.0
  0
LINE
  8
0
 62
     0
 10
27.4175
 20
92.9185
 30
0.0
 11
26.6196
 21
92.9185
 31
0.0
  0
LINE
  8
0
 62
     0
 10
26.6196
 20
92.9185
 30
0.0
 11
26.6196
 21
98.7171
 31
0.0
  0
LINE
  8
0
 62
     0
 10
26.6196
 20
98.7171
 30
0.0
 11
27.4175
 21
98.7171
 31
0.0
  0
LINE
  8
0
 62
     0
 10
27.4175
 20
98.7171
 30
0.0
 11
27.4175
 21
101.819
 31
0.0
  0
LINE
  8
0
 62
     0
 10
27.4175
 20
101.819
 30
0.0
 11
26.6196
 21
101.819
 31
0.0
  0
LINE
  8
0
 62
     0
 10
26.6196
 20
101.819
 30
0.0
 11
26.6196
 21
102.818
 31
0.0
  0
LINE
  8
0
 62
     0
 10
26.6196
 20
102.818
 30
0.0
 11
12.6201
 21
102.818
 31
0.0
  0
LINE
  8
0
 62
     0
 10
31.6701
 20
102.818
 30
0.0
 11
31.6701
 21
101.819
 31
0.0
  0
LINE
  8
0
 62
     0
 10
31.6701
 20
101.819
 30
0.0
 11
30.8694
 21
101.819
 31
0.0
  0
LINE
  8
0
 62
     0
 10
30.8694
 20
101.819
 30
0.0
 11
30.8694
 21
98.7171
 31
0.0
  0
LINE
  8
0
 62
     0
 10
30.8694
 20
98.7171
 30
0.0
 11
31.6701
 21
98.7171
 31
0.0
  0
LINE
  8
0
 62
     0
 10
31.6701
 20
98.7171
 30
0.0
 11
31.6701
 21
92.9185
 31
0.0
  0
LINE
  8
0
 62
     0
 10
31.6701
 20
92.9185
 30
0.0
 11
30.8694
 21
92.9185
 31
0.0
  0
LINE
  8
0
 62
     0
 10
30.8694
 20
92.9185
 30
0.0
 11
30.8694
 21
89.8179
 31
0.0
  0
LINE
  8
0
 62
     0
 10
30.8694
 20
89.8179
 30
0.0
 11
31.6701
 21
89.8179
 31
0.0
  0
LINE
  8
0
 62
     0
 10
31.6701
 20
89.8179
 30
0.0
 11
31.6701
 21
88.8175
 31
0.0
  0
LINE
  8
0
 62
     0
 10
31.6701
 20
88.8175
 30
0.0
 11
45.6696
 21
88.8175
 31
0.0
  0
LINE
  8
0
 62
     0
 10
45.6696
 20
88.8175
 30
0.0
 11
45.6696
 21
89.8179
 31
0.0
  0
LINE
  8
0
 62
     0
 10
45.6696
 20
89.8179
 30
0.0
 11
46.4704
 21
89.8179
 31
0.0
  0
LINE
  8
0
 62
     0
 10
46.4704
 20
89.8179
 30
0.0
 11
46.4704
 21
92.9185
 31
0.0
  0
LINE
  8
0
 62
     0
 10
46.4704
 20
92.9185
 30
0.0
 11
45.6696
 21
92.9185
 31
0.0
  0
LINE
  8
0
 62
     0
 10
45.6696
 20
92.9185
 30
0.0
 11
45.6696
 21
98.7171
 31
0.0
  0
LINE
  8
0
 62
     0
 10
45.6696
 20
98.7171
 30
0.0
 11
46.4704
 21
98.7171
 31
0.0
  0
LINE
  8
0
 62
     0
 10
46.4704
 20
98.7171
 30
0.0
 11
46.4704
 21
101.819
 31
0.0
  0
LINE
  8
0
 62
     0
 10
46.4704
 20
101.819
 30
0.0
 11
45.6696
 21
101.819
 31
0.0
  0
LINE
  8
0
 62
     0
 10
45.6696
 20
101.819
 30
0.0
 11
45.6696
 21
102.818
 31
0.0
  0
LINE
  8
0
 62
     0
 10
45.6696
 20
102.818
 30
0.0
 11
31.6701
 21
102.818
 31
0.0
  0
LINE
  8
0
 62
     0
 10
50.7199
 20
102.818
 30
0.0
 11
50.7199
 21
101.819
 31
0.0
  0
LINE
  8
0
 62
     0
 10
50.7199
 20
101.819
 30
0.0
 11
49.9195
 21
101.819
 31
0.0
  0
LINE
  8
0
 62
     0
 10
49.9195
 20
101.819
 30
0.0
 11
49.9195
 21
98.7171
 31
0.0
  0
LINE
  8
0
 62
     0
 10
49.9195
 20
98.7171
 30
0.0
 11
50.7199
 21
98.7171
 31
0.0
  0
LINE
  8
0
 62
     0
 10
50.7199
 20
98.7171
 30
0.0
 11
50.7199
 21
92.9185
 31
0.0
  0
LINE
  8
0
 62
     0
 10
50.7199
 20
92.9185
 30
0.0
 11
49.9195
 21
92.9185
 31
0.0
  0
LINE
  8
0
 62
     0
 10
49.9195
 20
92.9185
 30
0.0
 11
49.9195
 21
89.8179
 31
0.0
  0
LINE
  8
0
 62
     0
 10
49.9195
 20
89.8179
 30
0.0
 11
50.7199
 21
89.8179
 31
0.0
  0
LINE
  8
0
 62
     0
 10
50.7199
 20
89.8179
 30
0.0
 11
50.7199
 21
88.8175
 31
0.0
  0
LINE
  8
0
 62
     0
 10
50.7199
 20
88.8175
 30
0.0
 11
64.7196
 21
88.8175
 31
0.0
  0
LINE
  8
0
 62
     0
 10
64.7196
 20
88.8175
 30
0.0
 11
64.7196
 21
89.8179
 31
0.0
  0
LINE
  8
0
 62
     0
 10
64.7196
 20
89.8179
 30
0.0
 11
65.5204
 21
89.8179
 31
0.0
  0
LINE
  8
0
 62
     0
 10
65.5204
 20
89.8179
 30
0.0
 11
65.5204
 21
92.9185
 31
0.0
  0
LINE
  8
0
 62
     0
 10
65.5204
 20
92.9185
 30
0.0
 11
64.7196
 21
92.9185
 31
0.0
  0
LINE
  8
0
 62
     0
 10
64.7196
 20
92.9185
 30
0.0
 11
64.7196
 21
98.7171
 31
0.0
  0
LINE
  8
0
 62
     0
 10
64.7196
 20
98.7171
 30
0.0
 11
65.5204
 21
98.7171
 31
0.0
  0
LINE
  8
0
 62
     0
 10
65.5204
 20
98.7171
 30
0.0
 11
65.5204
 21
101.819
 31
0.0
  0
LINE
  8
0
 62
     0
 10
65.5204
 20
101.819
 30
0.0
 11
64.7196
 21
101.819
 31
0.0
  0
LINE
  8
0
 62
     0
 10
64.7196
 20
101.819
 30
0.0
 11
64.7196
 21
102.818
 31
0.0
  0
LINE
  8
0
 62
     0
 10
64.7196
 20
102.818
 30
0.0
 11
50.7199
 21
102.818
 31
0.0
  0
LINE
  8
0
 62
     0
 10
69.7699
 20
102.818
 30
0.0
 11
69.7699
 21
101.819
 31
0.0
  0
LINE
  8
0
 62
     0
 10
69.7699
 20
101.819
 30
0.0
 11
68.9695
 21
101.819
 31
0.0
  0
LINE
  8
0
 62
     0
 10
68.9695
 20
101.819
 30
0.0
 11
68.9695
 21
98.7171
 31
0.0
  0
LINE
  8
0
 62
     0
 10
68.9695
 20
98.7171
 30
0.0
 11
69.7699
 21
98.7171
 31
0.0
  0
LINE
  8
0
 62
     0
 10
69.7699
 20
98.7171
 30
0.0
 11
69.7699
 21
92.9185
 31
0.0
  0
LINE
  8
0
 62
     0
 10
69.7699
 20
92.9185
 30
0.0
 11
68.9695
 21
92.9185
 31
0.0
  0
LINE
  8
0
 62
     0
 10
68.9695
 20
92.9185
 30
0.0
 11
68.9695
 21
89.8179
 31
0.0
  0
LINE
  8
0
 62
     0
 10
68.9695
 20
89.8179
 30
0.0
 11
69.7699
 21
89.8179
 31
0.0
  0
LINE
  8
0
 62
     0
 10
69.7699
 20
89.8179
 30
0.0
 11
69.7699
 21
88.8175
 31
0.0
  0
LINE
  8
0
 62
     0
 10
69.7699
 20
88.8175
 30
0.0
 11
83.7696
 21
88.8175
 31
0.0
  0
LINE
  8
0
 62
     0
 10
83.7696
 20
88.8175
 30
0.0
 11
83.7696
 21
89.8179
 31
0.0
  0
LINE
  8
0
 62
     0
 10
83.7696
 20
89.8179
 30
0.0
 11
84.5704
 21
89.8179
 31
0.0
  0
LINE
  8
0
 62
     0
 10
84.5704
 20
89.8179
 30
0.0
 11
84.5704
 21
92.9185
 31
0.0
  0
LINE
  8
0
 62
     0
 10
84.5704
 20
92.9185
 30
0.0
 11
83.7696
 21
92.9185
 31
0.0
  0
LINE
  8
0
 62
     0
 10
83.7696
 20
92.9185
 30
0.0
 11
83.7696
 21
98.7171
 31
0.0
  0
LINE
  8
0
 62
     0
 10
83.7696
 20
98.7171
 30
0.0
 11
84.5704
 21
98.7171
 31
0.0
  0
LINE
  8
0
 62
     0
 10
84.5704
 20
98.7171
 30
0.0
 11
84.5704
 21
101.819
 31
0.0
  0
LINE
  8
0
 62
     0
 10
84.5704
 20
101.819
 30
0.0
 11
83.7696
 21
101.819
 31
0.0
  0
LINE
  8
0
 62
     0
 10
83.7696
 20
101.819
 30
0.0
 11
83.7696
 21
102.818
 31
0.0
  0
LINE
  8
0
 62
     0
 10
83.7696
 20
102.818
 30
0.0
 11
69.7699
 21
102.818
 31
0.0
  0
LINE
  8
0
 62
     0
 10
88.8199
 20
102.818
 30
0.0
 11
88.8199
 21
101.819
 31
0.0
  0
LINE
  8
0
 62
     0
 10
88.8199
 20
101.819
 30
0.0
 11
88.0195
 21
101.819
 31
0.0
  0
LINE
  8
0
 62
     0
 10
88.0195
 20
101.819
 30
0.0
 11
88.0195
 21
98.7171
 31
0.0
  0
LINE
  8
0
 62
     0
 10
88.0195
 20
98.7171
 30
0.0
 11
88.8199
 21
98.7171
 31
0.0
  0
LINE
  8
0
 62
     0
 10
88.8199
 20
98.7171
 30
0.0
 11
88.8199
 21
92.9185
 31
0.0
  0
LINE
  8
0
 62
     0
 10
88.8199
 20
92.9185
 30
0.0
 11
88.0195
 21
92.9185
 31
0.0
  0
LINE
  8
0
 62
     0
 10
88.0195
 20
92.9185
 30
0.0
 11
88.0195
 21
89.8179
 31
0.0
  0
LINE
  8
0
 62
     0
 10
88.0195
 20
89.8179
 30
0.0
 11
88.8199
 21
89.8179
 31
0.0
  0
LINE
  8
0
 62
     0
 10
88.8199
 20
89.8179
 30
0.0
 11
88.8199
 21
88.8175
 31
0.0
  0
LINE
  8
0
 62
     0
 10
88.8199
 20
88.8175
 30
0.0
 11
102.82
 21
88.8175
 31
0.0
  0
LINE
  8
0
 62
     0
 10
102.82
 20
88.8175
 30
0.0
 11
102.82
 21
89.8179
 31
0.0
  0
LINE
  8
0
 62
     0
 10
102.82
 20
89.8179
 30
0.0
 11
103.619
 21
89.8179
 31
0.0
  0
LINE
  8
0
 62
     0
 10
103.619
 20
89.8179
 30
0.0
 11
103.619
 21
92.9185
 31
0.0
  0
LINE
  8
0
 62
     0
 10
103.619
 20
92.9185
 30
0.0
 11
102.82
 21
92.9185
 31
0.0
  0
LINE
  8
0
 62
     0
 10
102.82
 20
92.9185
 30
0.0
 11
102.82
 21
98.7171
 31
0.0
  0
LINE
  8
0
 62
     0
 10
102.82
 20
98.7171
 30
0.0
 11
103.619
 21
98.7171
 31
0.0
  0
LINE
  8
0
 62
     0
 10
103.619
 20
98.7171
 30
0.0
 11
103.619
 21
101.819
 31
0.0
  0
LINE
  8
0
 62
     0
 10
103.619
 20
101.819
 30
0.0
 11
102.82
 21
101.819
 31
0.0
  0
LINE
  8
0
 62
     0
 10
102.82
 20
101.819
 30
0.0
 11
102.82
 21
102.818
 31
0.0
  0
LINE
  8
0
 62
     0
 10
102.82
 20
102.818
 30
0.0
 11
88.8199
 21
102.818
 31
0.0
  0
LINE
  8
0
 62
     0
 10
107.869
 20
102.818
 30
0.0
 11
107.869
 21
101.819
 31
0.0
  0
LINE
  8
0
 62
     0
 10
107.869
 20
101.819
 30
0.0
 11
107.069
 21
101.819
 31
0.0
  0
LINE
  8
0
 62
     0
 10
107.069
 20
101.819
 30
0.0
 11
107.069
 21
98.7171
 31
0.0
  0
LINE
  8
0
 62
     0
 10
107.069
 20
98.7171
 30
0.0
 11
107.869
 21
98.7171
 31
0.0
  0
LINE
  8
0
 62
     0
 10
107.869
 20
98.7171
 30
0.0
 11
107.869
 21
92.9185
 31
0.0
  0
LINE
  8
0
 62
     0
 10
107.869
 20
92.9185
 30
0.0
 11
107.069
 21
92.9185
 31
0.0
  0
LINE
  8
0
 62
     0
 10
107.069
 20
92.9185
 30
0.0
 11
107.069
 21
89.8179
 31
0.0
  0
LINE
  8
0
 62
     0
 10
107.069
 20
89.8179
 30
0.0
 11
107.869
 21
89.8179
 31
0.0
  0
LINE
  8
0
 62
     0
 10
107.869
 20
89.8179
 30
0.0
 11
107.869
 21
88.8175
 31
0.0
  0
LINE
  8
0
 62
     0
 10
107.869
 20
88.8175
 30
0.0
 11
121.868
 21
88.8175
 31
0.0
  0
LINE
  8
0
 62
     0
 10
121.868
 20
88.8175
 30
0.0
 11
121.868
 21
89.8179
 31
0.0
  0
LINE
  8
0
 62
     0
 10
121.868
 20
89.8179
 30
0.0
 11
122.669
 21
89.8179
 31
0.0
  0
LINE
  8
0
 62
     0
 10
122.669
 20
89.8179
 30
0.0
 11
122.669
 21
92.9185
 31
0.0
  0
LINE
  8
0
 62
     0
 10
122.669
 20
92.9185
 30
0.0
 11
121.868
 21
92.9185
 31
0.0
  0
LINE
  8
0
 62
     0
 10
121.868
 20
92.9185
 30
0.0
 11
121.868
 21
98.7171
 31
0.0
  0
LINE
  8
0
 62
     0
 10
121.868
 20
98.7171
 30
0.0
 11
122.669
 21
98.7171
 31
0.0
  0
LINE
  8
0
 62
     0
 10
122.669
 20
98.7171
 30
0.0
 11
122.669
 21
101.819
 31
0.0
  0
LINE
  8
0
 62
     0
 10
122.669
 20
101.819
 30
0.0
 11
121.868
 21
101.819
 31
0.0
  0
LINE
  8
0
 62
     0
 10
121.868
 20
101.819
 30
0.0
 11
121.868
 21
102.818
 31
0.0
  0
LINE
  8
0
 62
     0
 10
121.868
 20
102.818
 30
0.0
 11
107.869
 21
102.818
 31
0.0
  0
LINE
  8
0
 62
     0
 10
126.92
 20
102.818
 30
0.0
 11
126.92
 21
101.819
 31
0.0
  0
LINE
  8
0
 62
     0
 10
126.92
 20
101.819
 30
0.0
 11
126.119
 21
101.819
 31
0.0
  0
LINE
  8
0
 62
     0
 10
126.119
 20
101.819
 30
0.0
 11
126.119
 21
98.7171
 31
0.0
  0
LINE
  8
0
 62
     0
 10
126.119
 20
98.7171
 30
0.0
 11
126.92
 21
98.7171
 31
0.0
  0
LINE
  8
0
 62
     0
 10
126.92
 20
98.7171
 30
0.0
 11
126.92
 21
92.9185
 31
0.0
  0
LINE
  8
0
 62
     0
 10
126.92
 20
92.9185
 30
0.0
 11
126.119
 21
92.9185
 31
0.0
  0
LINE
  8
0
 62
     0
 10
126.119
 20
92.9185
 30
0.0
 11
126.119
 21
89.8179
 31
0.0
  0
LINE
  8
0
 62
     0
 10
126.119
 20
89.8179
 30
0.0
 11
126.92
 21
89.8179
 31
0.0
  0
LINE
  8
0
 62
     0
 10
126.92
 20
89.8179
 30
0.0
 11
126.92
 21
88.8175
 31
0.0
  0
LINE
  8
0
 62
     0
 10
126.92
 20
88.8175
 30
0.0
 11
140.92
 21
88.8175
 31
0.0
  0
LINE
  8
0
 62
     0
 10
140.92
 20
88.8175
 30
0.0
 11
140.92
 21
89.8179
 31
0.0
  0
LINE
  8
0
 62
     0
 10
140.92
 20
89.8179
 30
0.0
 11
141.72
 21
89.8179
 31
0.0
  0
LINE
  8
0
 62
     0
 10
141.72
 20
89.8179
 30
0.0
 11
141.72
 21
92.9185
 31
0.0
  0
LINE
  8
0
 62
     0
 10
141.72
 20
92.9185
 30
0.0
 11
140.92
 21
92.9185
 31
0.0
  0
LINE
  8
0
 62
     0
 10
140.92
 20
92.9185
 30
0.0
 11
140.92
 21
98.7171
 31
0.0
  0
LINE
  8
0
 62
     0
 10
140.92
 20
98.7171
 30
0.0
 11
141.72
 21
98.7171
 31
0.0
  0
LINE
  8
0
 62
     0
 10
141.72
 20
98.7171
 30
0.0
 11
141.72
 21
101.819
 31
0.0
  0
LINE
  8
0
 62
     0
 10
141.72
 20
101.819
 30
0.0
 11
140.92
 21
101.819
 31
0.0
  0
LINE
  8
0
 62
     0
 10
140.92
 20
101.819
 30
0.0
 11
140.92
 21
102.818
 31
0.0
  0
LINE
  8
0
 62
     0
 10
140.92
 20
102.818
 30
0.0
 11
126.92
 21
102.818
 31
0.0
  0
LINE
  8
0
 62
     0
 10
145.97
 20
102.818
 30
0.0
 11
145.97
 21
101.819
 31
0.0
  0
LINE
  8
0
 62
     0
 10
145.97
 20
101.819
 30
0.0
 11
145.169
 21
101.819
 31
0.0
  0
LINE
  8
0
 62
     0
 10
145.169
 20
101.819
 30
0.0
 11
145.169
 21
98.7171
 31
0.0
  0
LINE
  8
0
 62
     0
 10
145.169
 20
98.7171
 30
0.0
 11
145.97
 21
98.7171
 31
0.0
  0
LINE
  8
0
 62
     0
 10
145.97
 20
98.7171
 30
0.0
 11
145.97
 21
92.9185
 31
0.0
  0
LINE
  8
0
 62
     0
 10
145.97
 20
92.9185
 30
0.0
 11
145.169
 21
92.9185
 31
0.0
  0
LINE
  8
0
 62
     0
 10
145.169
 20
92.9185
 30
0.0
 11
145.169
 21
89.8179
 31
0.0
  0
LINE
  8
0
 62
     0
 10
145.169
 20
89.8179
 30
0.0
 11
145.97
 21
89.8179
 31
0.0
  0
LINE
  8
0
 62
     0
 10
145.97
 20
89.8179
 30
0.0
 11
145.97
 21
88.8175
 31
0.0
  0
LINE
  8
0
 62
     0
 10
145.97
 20
88.8175
 30
0.0
 11
159.97
 21
88.8175
 31
0.0
  0
LINE
  8
0
 62
     0
 10
159.97
 20
88.8175
 30
0.0
 11
159.97
 21
89.8179
 31
0.0
  0
LINE
  8
0
 62
     0
 10
159.97
 20
89.8179
 30
0.0
 11
160.77
 21
89.8179
 31
0.0
  0
LINE
  8
0
 62
     0
 10
160.77
 20
89.8179
 30
0.0
 11
160.77
 21
92.9185
 31
0.0
  0
LINE
  8
0
 62
     0
 10
160.77
 20
92.9185
 30
0.0
 11
159.97
 21
92.9185
 31
0.0
  0
LINE
  8
0
 62
     0
 10
159.97
 20
92.9185
 30
0.0
 11
159.97
 21
98.7171
 31
0.0
  0
LINE
  8
0
 62
     0
 10
159.97
 20
98.7171
 30
0.0
 11
160.77
 21
98.7171
 31
0.0
  0
LINE
  8
0
 62
     0
 10
160.77
 20
98.7171
 30
0.0
 11
160.77
 21
101.819
 31
0.0
  0
LINE
  8
0
 62
     0
 10
160.77
 20
101.819
 30
0.0
 11
159.97
 21
101.819
 31
0.0
  0
LINE
  8
0
 62
     0
 10
159.97
 20
101.819
 30
0.0
 11
159.97
 21
102.818
 31
0.0
  0
LINE
  8
0
 62
     0
 10
159.97
 20
102.818
 30
0.0
 11
145.97
 21
102.818
 31
0.0
  0
LINE
  8
0
 62
     0
 10
165.02
 20
102.818
 30
0.0
 11
165.02
 21
101.819
 31
0.0
  0
LINE
  8
0
 62
     0
 10
165.02
 20
101.819
 30
0.0
 11
164.219
 21
101.819
 31
0.0
  0
LINE
  8
0
 62
     0
 10
164.219
 20
101.819
 30
0.0
 11
164.219
 21
98.7171
 31
0.0
  0
LINE
  8
0
 62
     0
 10
164.219
 20
98.7171
 30
0.0
 11
165.02
 21
98.7171
 31
0.0
  0
LINE
  8
0
 62
     0
 10
165.02
 20
98.7171
 30
0.0
 11
165.02
 21
92.9185
 31
0.0
  0
LINE
  8
0
 62
     0
 10
165.02
 20
92.9185
 30
0.0
 11
164.219
 21
92.9185
 31
0.0
  0
LINE
  8
0
 62
     0
 10
164.219
 20
92.9185
 30
0.0
 11
164.219
 21
89.8179
 31
0.0
  0
LINE
  8
0
 62
     0
 10
164.219
 20
89.8179
 30
0.0
 11
165.02
 21
89.8179
 31
0.0
  0
LINE
  8
0
 62
     0
 10
165.02
 20
89.8179
 30
0.0
 11
165.02
 21
88.8175
 31
0.0
  0
LINE
  8
0
 62
     0
 10
165.02
 20
88.8175
 30
0.0
 11
179.02
 21
88.8175
 31
0.0
  0
LINE
  8
0
 62
     0
 10
179.02
 20
88.8175
 30
0.0
 11
179.02
 21
89.8179
 31
0.0
  0
LINE
  8
0
 62
     0
 10
179.02
 20
89.8179
 30
0.0
 11
179.82
 21
89.8179
 31
0.0
  0
LINE
  8
0
 62
     0
 10
179.82
 20
89.8179
 30
0.0
 11
179.82
 21
92.9185
 31
0.0
  0
LINE
  8
0
 62
     0
 10
179.82
 20
92.9185
 30
0.0
 11
179.02
 21
92.9185
 31
0.0
  0
LINE
  8
0
 62
     0
 10
179.02
 20
92.9185
 30
0.0
 11
179.02
 21
98.7171
 31
0.0
  0
LINE
  8
0
 62
     0
 10
179.02
 20
98.7171
 30
0.0
 11
179.82
 21
98.7171
 31
0.0
  0
LINE
  8
0
 62
     0
 10
179.82
 20
98.7171
 30
0.0
 11
179.82
 21
101.819
 31
0.0
  0
LINE
  8
0
 62
     0
 10
179.82
 20
101.819
 30
0.0
 11
179.02
 21
101.819
 31
0.0
  0
LINE
  8
0
 62
     0
 10
179.02
 20
101.819
 30
0.0
 11
179.02
 21
102.818
 31
0.0
  0
LINE
  8
0
 62
     0
 10
179.02
 20
102.818
 30
0.0
 11
165.02
 21
102.818
 31
0.0
  0
LINE
  8
0
 62
     0
 10
184.07
 20
102.818
 30
0.0
 11
184.07
 21
101.819
 31
0.0
  0
LINE
  8
0
 62
     0
 10
184.07
 20
101.819
 30
0.0
 11
183.269
 21
101.819
 31
0.0
  0
LINE
  8
0
 62
     0
 10
183.269
 20
101.819
 30
0.0
 11
183.269
 21
98.7171
 31
0.0
  0
LINE
  8
0
 62
     0
 10
183.269
 20
98.7171
 30
0.0
 11
184.07
 21
98.7171
 31
0.0
  0
LINE
  8
0
 62
     0
 10
184.07
 20
98.7171
 30
0.0
 11
184.07
 21
92.9185
 31
0.0
  0
LINE
  8
0
 62
     0
 10
184.07
 20
92.9185
 30
0.0
 11
183.269
 21
92.9185
 31
0.0
  0
LINE
  8
0
 62
     0
 10
183.269
 20
92.9185
 30
0.0
 11
183.269
 21
89.8179
 31
0.0
  0
LINE
  8
0
 62
     0
 10
183.269
 20
89.8179
 30
0.0
 11
184.07
 21
89.8179
 31
0.0
  0
LINE
  8
0
 62
     0
 10
184.07
 20
89.8179
 30
0.0
 11
184.07
 21
88.8175
 31
0.0
  0
LINE
  8
0
 62
     0
 10
184.07
 20
88.8175
 30
0.0
 11
198.07
 21
88.8175
 31
0.0
  0
LINE
  8
0
 62
     0
 10
198.07
 20
88.8175
 30
0.0
 11
198.07
 21
89.8179
 31
0.0
  0
LINE
  8
0
 62
     0
 10
198.07
 20
89.8179
 30
0.0
 11
198.87
 21
89.8179
 31
0.0
  0
LINE
  8
0
 62
     0
 10
198.87
 20
89.8179
 30
0.0
 11
198.87
 21
92.9185
 31
0.0
  0
LINE
  8
0
 62
     0
 10
198.87
 20
92.9185
 30
0.0
 11
198.07
 21
92.9185
 31
0.0
  0
LINE
  8
0
 62
     0
 10
198.07
 20
92.9185
 30
0.0
 11
198.07
 21
98.7171
 31
0.0
  0
LINE
  8
0
 62
     0
 10
198.07
 20
98.7171
 30
0.0
 11
198.87
 21
98.7171
 31
0.0
  0
LINE
  8
0
 62
     0
 10
198.87
 20
98.7171
 30
0.0
 11
198.87
 21
101.819
 31
0.0
  0
LINE
  8
0
 62
     0
 10
198.87
 20
101.819
 30
0.0
 11
198.07
 21
101.819
 31
0.0
  0
LINE
  8
0
 62
     0
 10
198.07
 20
101.819
 30
0.0
 11
198.07
 21
102.818
 31
0.0
  0
LINE
  8
0
 62
     0
 10
198.07
 20
102.818
 30
0.0
 11
184.07
 21
102.818
 31
0.0
  0
LINE
  8
0
 62
     0
 10
203.12
 20
102.818
 30
0.0
 11
203.12
 21
101.819
 31
0.0
  0
LINE
  8
0
 62
     0
 10
203.12
 20
101.819
 30
0.0
 11
202.319
 21
101.819
 31
0.0
  0
LINE
  8
0
 62
     0
 10
202.319
 20
101.819
 30
0.0
 11
202.319
 21
98.7171
 31
0.0
  0
LINE
  8
0
 62
     0
 10
202.319
 20
98.7171
 30
0.0
 11
203.12
 21
98.7171
 31
0.0
  0
LINE
  8
0
 62
     0
 10
203.12
 20
98.7171
 30
0.0
 11
203.12
 21
92.9185
 31
0.0
  0
LINE
  8
0
 62
     0
 10
203.12
 20
92.9185
 30
0.0
 11
202.319
 21
92.9185
 31
0.0
  0
LINE
  8
0
 62
     0
 10
202.319
 20
92.9185
 30
0.0
 11
202.319
 21
89.8179
 31
0.0
  0
LINE
  8
0
 62
     0
 10
202.319
 20
89.8179
 30
0.0
 11
203.12
 21
89.8179
 31
0.0
  0
LINE
  8
0
 62
     0
 10
203.12
 20
89.8179
 30
0.0
 11
203.12
 21
88.8175
 31
0.0
  0
LINE
  8
0
 62
     0
 10
203.12
 20
88.8175
 30
0.0
 11
217.12
 21
88.8175
 31
0.0
  0
LINE
  8
0
 62
     0
 10
217.12
 20
88.8175
 30
0.0
 11
217.12
 21
89.8179
 31
0.0
  0
LINE
  8
0
 62
     0
 10
217.12
 20
89.8179
 30
0.0
 11
217.92
 21
89.8179
 31
0.0
  0
LINE
  8
0
 62
     0
 10
217.92
 20
89.8179
 30
0.0
 11
217.92
 21
92.9185
 31
0.0
  0
LINE
  8
0
 62
     0
 10
217.92
 20
92.9185
 30
0.0
 11
217.12
 21
92.9185
 31
0.0
  0
LINE
  8
0
 62
     0
 10
217.12
 20
92.9185
 30
0.0
 11
217.12
 21
98.7171
 31
0.0
  0
LINE
  8
0
 62
     0
 10
217.12
 20
98.7171
 30
0.0
 11
217.92
 21
98.7171
 31
0.0
  0
LINE
  8
0
 62
     0
 10
217.92
 20
98.7171
 30
0.0
 11
217.92
 21
101.819
 31
0.0
  0
LINE
  8
0
 62
     0
 10
217.92
 20
101.819
 30
0.0
 11
217.12
 21
101.819
 31
0.0
  0
LINE
  8
0
 62
     0
 10
217.12
 20
101.819
 30
0.0
 11
217.12
 21
102.818
 31
0.0
  0
LINE
  8
0
 62
     0
 10
217.12
 20
102.818
 30
0.0
 11
203.12
 21
102.818
 31
0.0
  0
LINE
  8
0
 62
     0
 10
222.17
 20
102.818
 30
0.0
 11
222.17
 21
101.819
 31
0.0
  0
LINE
  8
0
 62
     0
 10
222.17
 20
101.819
 30
0.0
 11
221.369
 21
101.819
 31
0.0
  0
LINE
  8
0
 62
     0
 10
221.369
 20
101.819
 30
0.0
 11
221.369
 21
98.7171
 31
0.0
  0
LINE
  8
0
 62
     0
 10
221.369
 20
98.7171
 30
0.0
 11
222.17
 21
98.7171
 31
0.0
  0
LINE
  8
0
 62
     0
 10
222.17
 20
98.7171
 30
0.0
 11
222.17
 21
92.9185
 31
0.0
  0
LINE
  8
0
 62
     0
 10
222.17
 20
92.9185
 30
0.0
 11
221.369
 21
92.9185
 31
0.0
  0
LINE
  8
0
 62
     0
 10
221.369
 20
92.9185
 30
0.0
 11
221.369
 21
89.8179
 31
0.0
  0
LINE
  8
0
 62
     0
 10
221.369
 20
89.8179
 30
0.0
 11
222.17
 21
89.8179
 31
0.0
  0
LINE
  8
0
 62
     0
 10
222.17
 20
89.8179
 30
0.0
 11
222.17
 21
88.8175
 31
0.0
  0
LINE
  8
0
 62
     0
 10
222.17
 20
88.8175
 30
0.0
 11
236.17
 21
88.8175
 31
0.0
  0
LINE
  8
0
 62
     0
 10
236.17
 20
88.8175
 30
0.0
 11
236.17
 21
89.8179
 31
0.0
  0
LINE
  8
0
 62
     0
 10
236.17
 20
89.8179
 30
0.0
 11
236.97
 21
89.8179
 31
0.0
  0
LINE
  8
0
 62
     0
 10
236.97
 20
89.8179
 30
0.0
 11
236.97
 21
92.9185
 31
0.0
  0
LINE
  8
0
 62
     0
 10
236.97
 20
92.9185
 30
0.0
 11
236.17
 21
92.9185
 31
0.0
  0
LINE
  8
0
 62
     0
 10
236.17
 20
92.9185
 30
0.0
 11
236.17
 21
98.7171
 31
0.0
  0
LINE
  8
0
 62
     0
 10
236.17
 20
98.7171
 30
0.0
 11
236.97
 21
98.7171
 31
0.0
  0
LINE
  8
0
 62
     0
 10
236.97
 20
98.7171
 30
0.0
 11
236.97
 21
101.819
 31
0.0
  0
LINE
  8
0
 62
     0
 10
236.97
 20
101.819
 30
0.0
 11
236.17
 21
101.819
 31
0.0
  0
LINE
  8
0
 62
     0
 10
236.17
 20
101.819
 30
0.0
 11
236.17
 21
102.818
 31
0.0
  0
LINE
  8
0
 62
     0
 10
236.17
 20
102.818
 30
0.0
 11
222.17
 21
102.818
 31
0.0
  0
LINE
  8
0
 62
     0
 10
241.22
 20
102.818
 30
0.0
 11
241.22
 21
101.819
 31
0.0
  0
LINE
  8
0
 62
     0
 10
241.22
 20
101.819
 30
0.0
 11
240.419
 21
101.819
 31
0.0
  0
LINE
  8
0
 62
     0
 10
240.419
 20
101.819
 30
0.0
 11
240.419
 21
98.7171
 31
0.0
  0
LINE
  8
0
 62
     0
 10
240.419
 20
98.7171
 30
0.0
 11
241.22
 21
98.7171
 31
0.0
  0
LINE
  8
0
 62
     0
 10
241.22
 20
98.7171
 30
0.0
 11
241.22
 21
92.9185
 31
0.0
  0
LINE
  8
0
 62
     0
 10
241.22
 20
92.9185
 30
0.0
 11
240.419
 21
92.9185
 31
0.0
  0
LINE
  8
0
 62
     0
 10
240.419
 20
92.9185
 30
0.0
 11
240.419
 21
89.8179
 31
0.0
  0
LINE
  8
0
 62
     0
 10
240.419
 20
89.8179
 30
0.0
 11
241.22
 21
89.8179
 31
0.0
  0
LINE
  8
0
 62
     0
 10
241.22
 20
89.8179
 30
0.0
 11
241.22
 21
88.8175
 31
0.0
  0
LINE
  8
0
 62
     0
 10
241.22
 20
88.8175
 30
0.0
 11
255.22
 21
88.8175
 31
0.0
  0
LINE
  8
0
 62
     0
 10
255.22
 20
88.8175
 30
0.0
 11
255.22
 21
89.8179
 31
0.0
  0
LINE
  8
0
 62
     0
 10
255.22
 20
89.8179
 30
0.0
 11
256.02
 21
89.8179
 31
0.0
  0
LINE
  8
0
 62
     0
 10
256.02
 20
89.8179
 30
0.0
 11
256.02
 21
92.9185
 31
0.0
  0
LINE
  8
0
 62
     0
 10
256.02
 20
92.9185
 30
0.0
 11
255.22
 21
92.9185
 31
0.0
  0
LINE
  8
0
 62
     0
 10
255.22
 20
92.9185
 30
0.0
 11
255.22
 21
98.7171
 31
0.0
  0
LINE
  8
0
 62
     0
 10
255.22
 20
98.7171
 30
0.0
 11
256.02
 21
98.7171
 31
0.0
  0
LINE
  8
0
 62
     0
 10
256.02
 20
98.7171
 30
0.0
 11
256.02
 21
101.819
 31
0.0
  0
LINE
  8
0
 62
     0
 10
256.02
 20
101.819
 30
0.0
 11
255.22
 21
101.819
 31
0.0
  0
LINE
  8
0
 62
     0
 10
255.22
 20
101.819
 30
0.0
 11
255.22
 21
102.818
 31
0.0
  0
LINE
  8
0
 62
     0
 10
255.22
 20
102.818
 30
0.0
 11
241.22
 21
102.818
 31
0.0
  0
LINE
  8
0
 62
     0
 10
260.27
 20
102.818
 30
0.0
 11
260.27
 21
101.819
 31
0.0
  0
LINE
  8
0
 62
     0
 10
260.27
 20
101.819
 30
0.0
 11
259.469
 21
101.819
 31
0.0
  0
LINE
  8
0
 62
     0
 10
259.469
 20
101.819
 30
0.0
 11
259.469
 21
98.7171
 31
0.0
  0
LINE
  8
0
 62
     0
 10
259.469
 20
98.7171
 30
0.0
 11
260.27
 21
98.7171
 31
0.0
  0
LINE
  8
0
 62
     0
 10
260.27
 20
98.7171
 30
0.0
 11
260.27
 21
92.9185
 31
0.0
  0
LINE
  8
0
 62
     0
 10
260.27
 20
92.9185
 30
0.0
 11
259.469
 21
92.9185
 31
0.0
  0
LINE
  8
0
 62
     0
 10
259.469
 20
92.9185
 30
0.0
 11
259.469
 21
89.8179
 31
0.0
  0
LINE
  8
0
 62
     0
 10
259.469
 20
89.8179
 30
0.0
 11
260.27
 21
89.8179
 31
0.0
  0
LINE
  8
0
 62
     0
 10
260.27
 20
89.8179
 30
0.0
 11
260.27
 21
88.8175
 31
0.0
  0
LINE
  8
0
 62
     0
 10
260.27
 20
88.8175
 30
0.0
 11
274.27
 21
88.8175
 31
0.0
  0
LINE
  8
0
 62
     0
 10
274.27
 20
88.8175
 30
0.0
 11
274.27
 21
89.8179
 31
0.0
  0
LINE
  8
0
 62
     0
 10
274.27
 20
89.8179
 30
0.0
 11
275.07
 21
89.8179
 31
0.0
  0
LINE
  8
0
 62
     0
 10
275.07
 20
89.8179
 30
0.0
 11
275.07
 21
92.9185
 31
0.0
  0
LINE
  8
0
 62
     0
 10
275.07
 20
92.9185
 30
0.0
 11
274.27
 21
92.9185
 31
0.0
  0
LINE
  8
0
 62
     0
 10
274.27
 20
92.9185
 30
0.0
 11
274.27
 21
98.7171
 31
0.0
  0
LINE
  8
0
 62
     0
 10
274.27
 20
98.7171
 30
0.0
 11
275.07
 21
98.7171
 31
0.0
  0
LINE
  8
0
 62
     0
 10
275.07
 20
98.7171
 30
0.0
 11
275.07
 21
101.819
 31
0.0
  0
LINE
  8
0
 62
     0
 10
275.07
 20
101.819
 30
0.0
 11
274.27
 21
101.819
 31
0.0
  0
LINE
  8
0
 62
     0
 10
274.27
 20
101.819
 30
0.0
 11
274.27
 21
102.818
 31
0.0
  0
LINE
  8
0
 62
     0
 10
274.27
 20
102.818
 30
0.0
 11
260.27
 21
102.818
 31
0.0
  0
LINE
  8
0
 62
     0
 10
279.32
 20
102.818
 30
0.0
 11
279.32
 21
101.819
 31
0.0
  0
LINE
  8
0
 62
     0
 10
279.32
 20
101.819
 30
0.0
 11
278.519
 21
101.819
 31
0.0
  0
LINE
  8
0
 62
     0
 10
278.519
 20
101.819
 30
0.0
 11
278.519
 21
98.7171
 31
0.0
  0
LINE
  8
0
 62
     0
 10
278.519
 20
98.7171
 30
0.0
 11
279.32
 21
98.7171
 31
0.0
  0
LINE
  8
0
 62
     0
 10
279.32
 20
98.7171
 30
0.0
 11
279.32
 21
92.9185
 31
0.0
  0
LINE
  8
0
 62
     0
 10
279.32
 20
92.9185
 30
0.0
 11
278.519
 21
92.9185
 31
0.0
  0
LINE
  8
0
 62
     0
 10
278.519
 20
92.9185
 30
0.0
 11
278.519
 21
89.8179
 31
0.0
  0
LINE
  8
0
 62
     0
 10
278.519
 20
89.8179
 30
0.0
 11
279.32
 21
89.8179
 31
0.0
  0
LINE
  8
0
 62
     0
 10
279.32
 20
89.8179
 30
0.0
 11
279.32
 21
88.8175
 31
0.0
  0
LINE
  8
0
 62
     0
 10
279.32
 20
88.8175
 30
0.0
 11
293.32
 21
88.8175
 31
0.0
  0
LINE
  8
0
 62
     0
 10
293.32
 20
88.8175
 30
0.0
 11
293.32
 21
89.8179
 31
0.0
  0
LINE
  8
0
 62
     0
 10
293.32
 20
89.8179
 30
0.0
 11
294.12
 21
89.8179
 31
0.0
  0
LINE
  8
0
 62
     0
 10
294.12
 20
89.8179
 30
0.0
 11
294.12
 21
92.9185
 31
0.0
  0
LINE
  8
0
 62
     0
 10
294.12
 20
92.9185
 30
0.0
 11
293.32
 21
92.9185
 31
0.0
  0
LINE
  8
0
 62
     0
 10
293.32
 20
92.9185
 30
0.0
 11
293.32
 21
98.7171
 31
0.0
  0
LINE
  8
0
 62
     0
 10
293.32
 20
98.7171
 30
0.0
 11
294.12
 21
98.7171
 31
0.0
  0
LINE
  8
0
 62
     0
 10
294.12
 20
98.7171
 30
0.0
 11
294.12
 21
101.819
 31
0.0
  0
LINE
  8
0
 62
     0
 10
294.12
 20
101.819
 30
0.0
 11
293.32
 21
101.819
 31
0.0
  0
LINE
  8
0
 62
     0
 10
293.32
 20
101.819
 30
0.0
 11
293.32
 21
102.818
 31
0.0
  0
LINE
  8
0
 62
     0
 10
293.32
 20
102.818
 30
0.0
 11
279.32
 21
102.818
 31
0.0
  0
LINE
  8
0
 62
     0
 10
77.4732
 20
113.796
 30
0.0
 11
77.1934
 21
113.652
 31
0.0
  0
LINE
  8
0
 62
     0
 10
77.1934
 20
113.652
 30
0.0
 11
76.9729
 21
113.43
 31
0.0
  0
LINE
  8
0
 62
     0
 10
76.9729
 20
113.43
 30
0.0
 11
76.8311
 21
113.152
 31
0.0
  0
LINE
  8
0
 62
     0
 10
76.8311
 20
113.152
 30
0.0
 11
76.7814
 21
112.843
 31
0.0
  0
LINE
  8
0
 62
     0
 10
76.7814
 20
112.843
 30
0.0
 11
76.8311
 21
112.535
 31
0.0
  0
LINE
  8
0
 62
     0
 10
76.8311
 20
112.535
 30
0.0
 11
76.9729
 21
112.255
 31
0.0
  0
LINE
  8
0
 62
     0
 10
76.9729
 20
112.255
 30
0.0
 11
77.1934
 21
112.034
 31
0.0
  0
LINE
  8
0
 62
     0
 10
77.1934
 20
112.034
 30
0.0
 11
77.4732
 21
111.891
 31
0.0
  0
LINE
  8
0
 62
     0
 10
77.4732
 20
111.891
 30
0.0
 11
77.7819
 21
111.843
 31
0.0
  0
LINE
  8
0
 62
     0
 10
77.7819
 20
111.843
 30
0.0
 11
78.0905
 21
111.891
 31
0.0
  0
LINE
  8
0
 62
     0
 10
78.0905
 20
111.891
 30
0.0
 11
78.3703
 21
112.034
 31
0.0
  0
LINE
  8
0
 62
     0
 10
78.3703
 20
112.034
 30
0.0
 11
78.5908
 21
112.255
 31
0.0
  0
LINE
  8
0
 62
     0
 10
78.5908
 20
112.255
 30
0.0
 11
78.7329
 21
112.535
 31
0.0
  0
LINE
  8
0
 62
     0
 10
78.7329
 20
112.535
 30
0.0
 11
78.7809
 21
112.843
 31
0.0
  0
LINE
  8
0
 62
     0
 10
78.7809
 20
112.843
 30
0.0
 11
78.7329
 21
113.152
 31
0.0
  0
LINE
  8
0
 62
     0
 10
78.7329
 20
113.152
 30
0.0
 11
78.5908
 21
113.43
 31
0.0
  0
LINE
  8
0
 62
     0
 10
78.5908
 20
113.43
 30
0.0
 11
78.3703
 21
113.652
 31
0.0
  0
LINE
  8
0
 62
     0
 10
78.3703
 20
113.652
 30
0.0
 11
78.0905
 21
113.796
 31
0.0
  0
LINE
  8
0
 62
     0
 10
78.0905
 20
113.796
 30
0.0
 11
77.7819
 21
113.842
 31
0.0
  0
LINE
  8
0
 62
     0
 10
77.7819
 20
113.842
 30
0.0
 11
77.4732
 21
113.796
 31
0.0
  0
LINE
  8
0
 62
     0
 10
152.66
 20
113.796
 30
0.0
 11
152.382
 21
113.652
 31
0.0
  0
LINE
  8
0
 62
     0
 10
152.382
 20
113.652
 30
0.0
 11
152.16
 21
113.43
 31
0.0
  0
LINE
  8
0
 62
     0
 10
152.16
 20
113.43
 30
0.0
 11
152.018
 21
113.152
 31
0.0
  0
LINE
  8
0
 62
     0
 10
152.018
 20
113.152
 30
0.0
 11
151.97
 21
112.843
 31
0.0
  0
LINE
  8
0
 62
     0
 10
151.97
 20
112.843
 30
0.0
 11
152.018
 21
112.535
 31
0.0
  0
LINE
  8
0
 62
     0
 10
152.018
 20
112.535
 30
0.0
 11
152.16
 21
112.255
 31
0.0
  0
LINE
  8
0
 62
     0
 10
152.16
 20
112.255
 30
0.0
 11
152.382
 21
112.034
 31
0.0
  0
LINE
  8
0
 62
     0
 10
152.382
 20
112.034
 30
0.0
 11
152.66
 21
111.891
 31
0.0
  0
LINE
  8
0
 62
     0
 10
152.66
 20
111.891
 30
0.0
 11
152.969
 21
111.843
 31
0.0
  0
LINE
  8
0
 62
     0
 10
152.969
 20
111.843
 30
0.0
 11
153.279
 21
111.891
 31
0.0
  0
LINE
  8
0
 62
     0
 10
153.279
 20
111.891
 30
0.0
 11
153.557
 21
112.034
 31
0.0
  0
LINE
  8
0
 62
     0
 10
153.557
 20
112.034
 30
0.0
 11
153.779
 21
112.255
 31
0.0
  0
LINE
  8
0
 62
     0
 10
153.779
 20
112.255
 30
0.0
 11
153.922
 21
112.535
 31
0.0
  0
LINE
  8
0
 62
     0
 10
153.922
 20
112.535
 30
0.0
 11
153.97
 21
112.843
 31
0.0
  0
LINE
  8
0
 62
     0
 10
153.97
 20
112.843
 30
0.0
 11
153.922
 21
113.152
 31
0.0
  0
LINE
  8
0
 62
     0
 10
153.922
 20
113.152
 30
0.0
 11
153.779
 21
113.43
 31
0.0
  0
LINE
  8
0
 62
     0
 10
153.779
 20
113.43
 30
0.0
 11
153.557
 21
113.652
 31
0.0
  0
LINE
  8
0
 62
     0
 10
153.557
 20
113.652
 30
0.0
 11
153.279
 21
113.796
 31
0.0
  0
LINE
  8
0
 62
     0
 10
153.279
 20
113.796
 30
0.0
 11
152.969
 21
113.842
 31
0.0
  0
LINE
  8
0
 62
     0
 10
152.969
 20
113.842
 30
0.0
 11
152.66
 21
113.796
 31
0.0
  0
LINE
  8
0
 62
     0
 10
227.849
 20
113.796
 30
0.0
 11
227.569
 21
113.652
 31
0.0
  0
LINE
  8
0
 62
     0
 10
227.569
 20
113.652
 30
0.0
 11
227.349
 21
113.43
 31
0.0
  0
LINE
  8
0
 62
     0
 10
227.349
 20
113.43
 30
0.0
 11
227.207
 21
113.152
 31
0.0
  0
LINE
  8
0
 62
     0
 10
227.207
 20
113.152
 30
0.0
 11
227.157
 21
112.843
 31
0.0
  0
LINE
  8
0
 62
     0
 10
227.157
 20
112.843
 30
0.0
 11
227.207
 21
112.535
 31
0.0
  0
LINE
  8
0
 62
     0
 10
227.207
 20
112.535
 30
0.0
 11
227.349
 21
112.255
 31
0.0
  0
LINE
  8
0
 62
     0
 10
227.349
 20
112.255
 30
0.0
 11
227.569
 21
112.034
 31
0.0
  0
LINE
  8
0
 62
     0
 10
227.569
 20
112.034
 30
0.0
 11
227.849
 21
111.891
 31
0.0
  0
LINE
  8
0
 62
     0
 10
227.849
 20
111.891
 30
0.0
 11
228.158
 21
111.843
 31
0.0
  0
LINE
  8
0
 62
     0
 10
228.158
 20
111.843
 30
0.0
 11
228.466
 21
111.891
 31
0.0
  0
LINE
  8
0
 62
     0
 10
228.466
 20
111.891
 30
0.0
 11
228.746
 21
112.034
 31
0.0
  0
LINE
  8
0
 62
     0
 10
228.746
 20
112.034
 30
0.0
 11
228.967
 21
112.255
 31
0.0
  0
LINE
  8
0
 62
     0
 10
228.967
 20
112.255
 30
0.0
 11
229.108
 21
112.535
 31
0.0
  0
LINE
  8
0
 62
     0
 10
229.108
 20
112.535
 30
0.0
 11
229.158
 21
112.843
 31
0.0
  0
LINE
  8
0
 62
     0
 10
229.158
 20
112.843
 30
0.0
 11
229.108
 21
113.152
 31
0.0
  0
LINE
  8
0
 62
     0
 10
229.108
 20
113.152
 30
0.0
 11
228.967
 21
113.43
 31
0.0
  0
LINE
  8
0
 62
     0
 10
228.967
 20
113.43
 30
0.0
 11
228.746
 21
113.652
 31
0.0
  0
LINE
  8
0
 62
     0
 10
228.746
 20
113.652
 30
0.0
 11
228.466
 21
113.796
 31
0.0
  0
LINE
  8
0
 62
     0
 10
228.466
 20
113.796
 30
0.0
 11
228.158
 21
113.842
 31
0.0
  0
LINE
  8
0
 62
     0
 10
228.158
 20
113.842
 30
0.0
 11
227.849
 21
113.796
 31
0.0
  0
LINE
  8
0
 62
     0
 10
303.036
 20
113.796
 30
0.0
 11
302.758
 21
113.652
 31
0.0
  0
LINE
  8
0
 62
     0
 10
302.758
 20
113.652
 30
0.0
 11
302.536
 21
113.43
 31
0.0
  0
LINE
  8
0
 62
     0
 10
302.536
 20
113.43
 30
0.0
 11
302.394
 21
113.152
 31
0.0
  0
LINE
  8
0
 62
     0
 10
302.394
 20
113.152
 30
0.0
 11
302.346
 21
112.843
 31
0.0
  0
LINE
  8
0
 62
     0
 10
302.346
 20
112.843
 30
0.0
 11
302.394
 21
112.535
 31
0.0
  0
LINE
  8
0
 62
     0
 10
302.394
 20
112.535
 30
0.0
 11
302.536
 21
112.255
 31
0.0
  0
LINE
  8
0
 62
     0
 10
302.536
 20
112.255
 30
0.0
 11
302.758
 21
112.034
 31
0.0
  0
LINE
  8
0
 62
     0
 10
302.758
 20
112.034
 30
0.0
 11
303.036
 21
111.891
 31
0.0
  0
LINE
  8
0
 62
     0
 10
303.036
 20
111.891
 30
0.0
 11
303.346
 21
111.843
 31
0.0
  0
LINE
  8
0
 62
     0
 10
303.346
 20
111.843
 30
0.0
 11
303.655
 21
111.891
 31
0.0
  0
LINE
  8
0
 62
     0
 10
303.655
 20
111.891
 30
0.0
 11
303.933
 21
112.034
 31
0.0
  0
LINE
  8
0
 62
     0
 10
303.933
 20
112.034
 30
0.0
 11
304.155
 21
112.255
 31
0.0
  0
LINE
  8
0
 62
     0
 10
304.155
 20
112.255
 30
0.0
 11
304.297
 21
112.535
 31
0.0
  0
LINE
  8
0
 62
     0
 10
304.297
 20
112.535
 30
0.0
 11
304.345
 21
112.843
 31
0.0
  0
LINE
  8
0
 62
     0
 10
304.345
 20
112.843
 30
0.0
 11
304.297
 21
113.152
 31
0.0
  0
LINE
  8
0
 62
     0
 10
304.297
 20
113.152
 30
0.0
 11
304.155
 21
113.43
 31
0.0
  0
LINE
  8
0
 62
     0
 10
304.155
 20
113.43
 30
0.0
 11
303.933
 21
113.652
 31
0.0
  0
LINE
  8
0
 62
     0
 10
303.933
 20
113.652
 30
0.0
 11
303.655
 21
113.796
 31
0.0
  0
LINE
  8
0
 62
     0
 10
303.655
 20
113.796
 30
0.0
 11
303.346
 21
113.842
 31
0.0
  0
LINE
  8
0
 62
     0
 10
303.346
 20
113.842
 30
0.0
 11
303.036
 21
113.796
 31
0.0
  0
LINE
  8
0
 62
     0
 10
2.28479
 20
113.796
 30
0.0
 11
2.00642
 21
113.652
 31
0.0
  0
LINE
  8
0
 62
     0
 10
2.00642
 20
113.652
 30
0.0
 11
1.78456
 21
113.43
 31
0.0
  0
LINE
  8
0
 62
     0
 10
1.78456
 20
113.43
 30
0.0
 11
1.64262
 21
113.152
 31
0.0
  0
LINE
  8
0
 62
     0
 10
1.64262
 20
113.152
 30
0.0
 11
1.59439
 21
112.843
 31
0.0
  0
LINE
  8
0
 62
     0
 10
1.59439
 20
112.843
 30
0.0
 11
1.64262
 21
112.535
 31
0.0
  0
LINE
  8
0
 62
     0
 10
1.64262
 20
112.535
 30
0.0
 11
1.78456
 21
112.255
 31
0.0
  0
LINE
  8
0
 62
     0
 10
1.78456
 20
112.255
 30
0.0
 11
2.00642
 21
112.034
 31
0.0
  0
LINE
  8
0
 62
     0
 10
2.00642
 20
112.034
 30
0.0
 11
2.28479
 21
111.891
 31
0.0
  0
LINE
  8
0
 62
     0
 10
2.28479
 20
111.891
 30
0.0
 11
2.59347
 21
111.843
 31
0.0
  0
LINE
  8
0
 62
     0
 10
2.59347
 20
111.843
 30
0.0
 11
2.90353
 21
111.891
 31
0.0
  0
LINE
  8
0
 62
     0
 10
2.90353
 20
111.891
 30
0.0
 11
3.18189
 21
112.034
 31
0.0
  0
LINE
  8
0
 62
     0
 10
3.18189
 20
112.034
 30
0.0
 11
3.40376
 21
112.255
 31
0.0
  0
LINE
  8
0
 62
     0
 10
3.40376
 20
112.255
 30
0.0
 11
3.5457
 21
112.535
 31
0.0
  0
LINE
  8
0
 62
     0
 10
3.5457
 20
112.535
 30
0.0
 11
3.5953
 21
112.843
 31
0.0
  0
LINE
  8
0
 62
     0
 10
3.5953
 20
112.843
 30
0.0
 11
3.5457
 21
113.152
 31
0.0
  0
LINE
  8
0
 62
     0
 10
3.5457
 20
113.152
 30
0.0
 11
3.40376
 21
113.43
 31
0.0
  0
LINE
  8
0
 62
     0
 10
3.40376
 20
113.43
 30
0.0
 11
3.18189
 21
113.652
 31
0.0
  0
LINE
  8
0
 62
     0
 10
3.18189
 20
113.652
 30
0.0
 11
2.90353
 21
113.796
 31
0.0
  0
LINE
  8
0
 62
     0
 10
2.90353
 20
113.796
 30
0.0
 11
2.59485
 21
113.842
 31
0.0
  0
LINE
  8
0
 62
     0
 10
2.59485
 20
113.842
 30
0.0
 11
2.28479
 21
113.796
 31
0.0
  0
ENDSEC
  0
EOF
