<?xml version="1.0"?>
<!-- Generated by SVGo -->
<svg width="315.751mm" height="115.250mm"
     viewBox="0.000 0.000 315.751 115.250"
     xmlns="http://www.w3.org/2000/svg" 
     xmlns:xlink="http://www.w3.org/1999/xlink">
<polygon points="310.751,110.250 5.000,110.250 5.000,5.000 310.751,5.000" style="fill:none;stroke-width:0.050000mm;stroke:black"/>
<polygon points="117.537,88.725 117.537,89.725 116.737,89.725 116.737,92.824 117.537,92.824 117.537,93.425 108.862,93.425 108.862,90.195 107.137,90.195 107.137,89.274 103.837,89.274 103.837,90.195 102.112,90.195 102.112,93.425 101.287,93.425 101.287,96.225 102.112,96.225 102.112,102.494 103.837,102.494 103.837,103.475 107.137,103.475 107.137,102.494 108.862,102.494 108.862,98.024 117.537,98.024 117.537,98.625 116.737,98.625 116.737,101.725 117.537,101.725 117.537,102.725 131.537,102.725 131.537,101.725 132.337,101.725 132.337,98.625 131.537,98.625 131.537,98.024 140.212,98.024 140.212,102.494 141.937,102.494 141.937,103.475 145.237,103.475 145.237,102.494 146.962,102.494 146.962,96.225 147.787,96.225 147.787,93.425 146.962,93.425 146.962,90.195 145.237,90.195 145.237,89.274 141.937,89.274 141.937,90.195 140.212,90.195 140.212,93.425 131.537,93.425 131.537,92.824 132.337,92.824 132.337,89.725 131.537,89.725 131.537,88.725" style="fill:none;stroke-width:0.050000mm;stroke:black"/>
<polygon points="165.162,88.725 165.162,89.725 164.362,89.725 164.362,92.824 165.162,92.824 165.162,93.425 163.637,93.425 163.637,90.195 161.912,90.195 161.912,89.274 158.612,89.274 158.612,90.195 156.887,90.195 156.887,93.425 156.062,93.425 156.062,96.225 156.887,96.225 156.887,102.494 158.612,102.494 158.612,103.475 161.912,103.475 161.912,102.494 163.637,102.494 163.637,98.024 165.162,98.024 165.162,98.625 164.362,98.625 164.362,101.725 165.162,101.725 165.162,102.725 179.162,102.725 179.162,101.725 179.962,101.725 179.962,98.625 179.162,98.625 179.162,98.024 180.687,98.024 180.687,102.494 182.412,102.494 182.412,103.475 185.712,103.475 185.712,102.494 187.437,102.494 187.437,96.225 188.262,96.225 188.262,93.425 187.437,93.425 187.437,90.195 185.712,90.195 185.712,89.274 182.412,89.274 182.412,90.195 180.687,90.195 180.687,93.425 179.162,93.425 179.162,92.824 179.962,92.824 179.962,89.725 179.162,89.725 179.162,88.725" style="fill:none;stroke-width:0.050000mm;stroke:black"/>
<polygon points="19.906,88.725 19.906,89.725 19.106,89.725 19.106,92.824 19.906,92.824 19.906,98.625 19.106,98.625 19.106,101.725 19.906,101.725 19.906,102.725 33.906,102.725 33.906,101.725 34.706,101.725 34.706,98.625 33.906,98.625 33.906,92.824 34.706,92.824 34.706,89.725 33.906,89.725 33.906,88.725" style="fill:none;stroke-width:0.050000mm;stroke:black"/>
<polygon points="41.337,88.725 41.337,89.725 40.537,89.725 40.537,92.824 41.337,92.824 41.337,98.625 40.537,98.625 40.537,101.725 41.337,101.725 41.337,102.725 55.337,102.725 55.337,101.725 56.137,101.725 56.137,98.625 55.337,98.625 55.337,92.824 56.137,92.824 56.137,89.725 55.337,89.725 55.337,88.725" style="fill:none;stroke-width:0.050000mm;stroke:black"/>
<polygon points="60.387,88.725 60.387,89.725 59.587,89.725 59.587,92.824 60.387,92.824 60.387,98.625 59.587,98.625 59.587,101.725 60.387,101.725 60.387,102.725 74.387,102.725 74.387,101.725 75.187,101.725 75.187,98.625 74.387,98.625 74.387,92.824 75.187,92.824 75.187,89.725 74.387,89.725 74.387,88.725" style="fill:none;stroke-width:0.050000mm;stroke:black"/>
<polygon points="79.437,88.725 79.437,89.725 78.637,89.725 78.637,92.824 79.437,92.824 79.437,98.625 78.637,98.625 78.637,101.725 79.437,101.725 79.437,102.725 93.437,102.725 93.437,101.725 94.237,101.725 94.237,98.625 93.437,98.625 93.437,92.824 94.237,92.824 94.237,89.725 93.437,89.725 93.437,88.725" style="fill:none;stroke-width:0.050000mm;stroke:black"/>
<polygon points="193.737,88.725 193.737,89.725 192.937,89.725 192.937,92.824 193.737,92.824 193.737,98.625 192.937,98.625 192.937,101.725 193.737,101.725 193.737,102.725 207.737,102.725 207.737,101.725 208.537,101.725 208.537,98.625 207.737,98.625 207.737,92.824 208.537,92.824 208.537,89.725 207.737,89.725 207.737,88.725" style="fill:none;stroke-width:0.050000mm;stroke:black"/>
<polygon points="212.787,88.725 212.787,89.725 211.987,89.725 211.987,92.824 212.787,92.824 212.787,98.625 211.987,98.625 211.987,101.725 212.787,101.725 212.787,102.725 226.787,102.725 226.787,101.725 227.587,101.725 227.587,98.625 226.787,98.625 226.787,92.824 227.587,92.824 227.587,89.725 226.787,89.725 226.787,88.725" style="fill:none;stroke-width:0.050000mm;stroke:black"/>
<polygon points="231.837,88.725 231.837,89.725 231.037,89.725 231.037,92.824 231.837,92.824 231.837,98.625 231.037,98.625 231.037,101.725 231.837,101.725 231.837,102.725 245.837,102.725 245.837,101.725 246.637,101.725 246.637,98.625 245.837,98.625 245.837,92.824 246.637,92.824 246.637,89.725 245.837,89.725 245.837,88.725" style="fill:none;stroke-width:0.050000mm;stroke:black"/>
<polygon points="250.887,88.725 250.887,89.725 250.087,89.725 250.087,92.824 250.887,92.824 250.887,98.625 250.087,98.625 250.087,101.725 250.887,101.725 250.887,102.725 264.887,102.725 264.887,101.725 265.687,101.725 265.687,98.625 264.887,98.625 264.887,92.824 265.687,92.824 265.687,89.725 264.887,89.725 264.887,88.725" style="fill:none;stroke-width:0.050000mm;stroke:black"/>
<polygon points="277.081,88.725 277.081,89.725 276.281,89.725 276.281,92.824 277.081,92.824 277.081,98.625 276.281,98.625 276.281,101.725 277.081,101.725 277.081,102.725 291.081,102.725 291.081,101.725 291.881,101.725 291.881,98.625 291.081,98.625 291.081,92.824 291.881,92.824 291.881,89.725 291.081,89.725 291.081,88.725" style="fill:none;stroke-width:0.050000mm;stroke:black"/>
<polygon points="19.906,69.675 19.906,70.675 19.106,70.675 19.106,73.774 19.906,73.774 19.906,79.575 19.106,79.575 19.106,82.675 19.906,82.675 19.906,83.675 33.906,83.675 33.906,82.675 34.706,82.675 34.706,79.575 33.906,79.575 33.906,73.774 34.706,73.774 34.706,70.675 33.906,70.675 33.906,69.675" style="fill:none;stroke-width:0.050000mm;stroke:black"/>
<polygon points="41.337,69.675 41.337,70.675 40.537,70.675 40.537,73.774 41.337,73.774 41.337,79.575 40.537,79.575 40.537,82.675 41.337,82.675 41.337,83.675 55.337,83.675 55.337,82.675 56.137,82.675 56.137,79.575 55.337,79.575 55.337,73.774 56.137,73.774 56.137,70.675 55.337,70.675 55.337,69.675" style="fill:none;stroke-width:0.050000mm;stroke:black"/>
<polygon points="60.387,69.675 60.387,70.675 59.587,70.675 59.587,73.774 60.387,73.774 60.387,79.575 59.587,79.575 59.587,82.675 60.387,82.675 60.387,83.675 74.387,83.675 74.387,82.675 75.187,82.675 75.187,79.575 74.387,79.575 74.387,73.774 75.187,73.774 75.187,70.675 74.387,70.675 74.387,69.675" style="fill:none;stroke-width:0.050000mm;stroke:black"/>
<polygon points="79.437,69.675 79.437,70.675 78.637,70.675 78.637,73.774 79.437,73.774 79.437,79.575 78.637,79.575 78.637,82.675 79.437,82.675 79.437,83.675 93.437,83.675 93.437,82.675 94.237,82.675 94.237,79.575 93.437,79.575 93.437,73.774 94.237,73.774 94.237,70.675 93.437,70.675 93.437,69.675" style="fill:none;stroke-width:0.050000mm;stroke:black"/>
<polygon points="98.487,69.675 98.487,70.675 97.687,70.675 97.687,73.774 98.487,73.774 98.487,79.575 97.687,79.575 97.687,82.675 98.487,82.675 98.487,83.675 112.487,83.675 112.487,82.675 113.287,82.675 113.287,79.575 112.487,79.575 112.487,73.774 113.287,73.774 113.287,70.675 112.487,70.675 112.487,69.675" style="fill:none;stroke-width:0.050000mm;stroke:black"/>
<polygon points="117.537,69.675 117.537,70.675 116.737,70.675 116.737,73.774 117.537,73.774 117.537,79.575 116.737,79.575 116.737,82.675 117.537,82.675 117.537,83.675 131.537,83.675 131.537,82.675 132.337,82.675 132.337,79.575 131.537,79.575 131.537,73.774 132.337,73.774 132.337,70.675 131.537,70.675 131.537,69.675" style="fill:none;stroke-width:0.050000mm;stroke:black"/>
<polygon points="136.587,69.675 136.587,70.675 135.787,70.675 135.787,73.774 136.587,73.774 136.587,79.575 135.787,79.575 135.787,82.675 136.587,82.675 136.587,83.675 150.587,83.675 150.587,82.675 151.387,82.675 151.387,79.575 150.587,79.575 150.587,73.774 151.387,73.774 151.387,70.675 150.587,70.675 150.587,69.675" style="fill:none;stroke-width:0.050000mm;stroke:black"/>
<polygon points="155.637,69.675 155.637,70.675 154.837,70.675 154.837,73.774 155.637,73.774 155.637,79.575 154.837,79.575 154.837,82.675 155.637,82.675 155.637,83.675 169.637,83.675 169.637,82.675 170.437,82.675 170.437,79.575 169.637,79.575 169.637,73.774 170.437,73.774 170.437,70.675 169.637,70.675 169.637,69.675" style="fill:none;stroke-width:0.050000mm;stroke:black"/>
<polygon points="174.687,69.675 174.687,70.675 173.887,70.675 173.887,73.774 174.687,73.774 174.687,79.575 173.887,79.575 173.887,82.675 174.687,82.675 174.687,83.675 188.687,83.675 188.687,82.675 189.487,82.675 189.487,79.575 188.687,79.575 188.687,73.774 189.487,73.774 189.487,70.675 188.687,70.675 188.687,69.675" style="fill:none;stroke-width:0.050000mm;stroke:black"/>
<polygon points="193.737,69.675 193.737,70.675 192.937,70.675 192.937,73.774 193.737,73.774 193.737,79.575 192.937,79.575 192.937,82.675 193.737,82.675 193.737,83.675 207.737,83.675 207.737,82.675 208.537,82.675 208.537,79.575 207.737,79.575 207.737,73.774 208.537,73.774 208.537,70.675 207.737,70.675 207.737,69.675" style="fill:none;stroke-width:0.050000mm;stroke:black"/>
<polygon points="212.787,69.675 212.787,70.675 211.987,70.675 211.987,73.774 212.787,73.774 212.787,79.575 211.987,79.575 211.987,82.675 212.787,82.675 212.787,83.675 226.787,83.675 226.787,82.675 227.587,82.675 227.587,79.575 226.787,79.575 226.787,73.774 227.587,73.774 227.587,70.675 226.787,70.675 226.787,69.675" style="fill:none;stroke-width:0.050000mm;stroke:black"/>
<polygon points="231.837,69.675 231.837,70.675 231.037,70.675 231.037,73.774 231.837,73.774 231.837,79.575 231.037,79.575 231.037,82.675 231.837,82.675 231.837,83.675 245.837,83.675 245.837,82.675 246.637,82.675 246.637,79.575 245.837,79.575 245.837,73.774 246.637,73.774 246.637,70.675 245.837,70.675 245.837,69.675" style="fill:none;stroke-width:0.050000mm;stroke:black"/>
<polygon points="250.887,69.675 250.887,70.675 250.087,70.675 250.087,73.774 250.887,73.774 250.887,79.575 250.087,79.575 250.087,82.675 250.887,82.675 250.887,83.675 264.887,83.675 264.887,82.675 265.687,82.675 265.687,79.575 264.887,79.575 264.887,73.774 265.687,73.774 265.687,70.675 264.887,70.675 264.887,69.675" style="fill:none;stroke-width:0.050000mm;stroke:black"/>
<polygon points="277.081,69.675 277.081,70.675 276.281,70.675 276.281,73.774 277.081,73.774 277.081,79.575 276.281,79.575 276.281,82.675 277.081,82.675 277.081,83.675 291.081,83.675 291.081,82.675 291.881,82.675 291.881,79.575 291.081,79.575 291.081,73.774 291.881,73.774 291.881,70.675 291.081,70.675 291.081,69.675" style="fill:none;stroke-width:0.050000mm;stroke:black"/>
<polygon points="24.668,50.625 24.668,51.625 23.868,51.625 23.868,54.725 24.668,54.725 24.668,60.525 23.868,60.525 23.868,63.625 24.668,63.625 24.668,64.625 38.668,64.625 38.668,63.625 39.468,63.625 39.468,60.525 38.668,60.525 38.668,54.725 39.468,54.725 39.468,51.625 38.668,51.625 38.668,50.625" style="fill:none;stroke-width:0.050000mm;stroke:black"/>
<polygon points="50.862,50.625 50.862,51.625 50.062,51.625 50.062,54.725 50.862,54.725 50.862,60.525 50.062,60.525 50.062,63.625 50.862,63.625 50.862,64.625 64.861,64.625 64.861,63.625 65.662,63.625 65.662,60.525 64.861,60.525 64.861,54.725 65.662,54.725 65.662,51.625 64.861,51.625 64.861,50.625" style="fill:none;stroke-width:0.050000mm;stroke:black"/>
<polygon points="69.912,50.625 69.912,51.625 69.112,51.625 69.112,54.725 69.912,54.725 69.912,60.525 69.112,60.525 69.112,63.625 69.912,63.625 69.912,64.625 83.912,64.625 83.912,63.625 84.712,63.625 84.712,60.525 83.912,60.525 83.912,54.725 84.712,54.725 84.712,51.625 83.912,51.625 83.912,50.625" style="fill:none;stroke-width:0.050000mm;stroke:black"/>
<polygon points="88.962,50.625 88.962,51.625 88.162,51.625 88.162,54.725 88.962,54.725 88.962,60.525 88.162,60.525 88.162,63.625 88.962,63.625 88.962,64.625 102.962,64.625 102.962,63.625 103.762,63.625 103.762,60.525 102.962,60.525 102.962,54.725 103.762,54.725 103.762,51.625 102.962,51.625 102.962,50.625" style="fill:none;stroke-width:0.050000mm;stroke:black"/>
<polygon points="108.012,50.625 108.012,51.625 107.212,51.625 107.212,54.725 108.012,54.725 108.012,60.525 107.212,60.525 107.212,63.625 108.012,63.625 108.012,64.625 122.012,64.625 122.012,63.625 122.812,63.625 122.812,60.525 122.012,60.525 122.012,54.725 122.812,54.725 122.812,51.625 122.012,51.625 122.012,50.625" style="fill:none;stroke-width:0.050000mm;stroke:black"/>
<polygon points="127.062,50.625 127.062,51.625 126.262,51.625 126.262,54.725 127.062,54.725 127.062,60.525 126.262,60.525 126.262,63.625 127.062,63.625 127.062,64.625 141.062,64.625 141.062,63.625 141.862,63.625 141.862,60.525 141.062,60.525 141.062,54.725 141.862,54.725 141.862,51.625 141.062,51.625 141.062,50.625" style="fill:none;stroke-width:0.050000mm;stroke:black"/>
<polygon points="146.112,50.625 146.112,51.625 145.312,51.625 145.312,54.725 146.112,54.725 146.112,60.525 145.312,60.525 145.312,63.625 146.112,63.625 146.112,64.625 160.112,64.625 160.112,63.625 160.912,63.625 160.912,60.525 160.112,60.525 160.112,54.725 160.912,54.725 160.912,51.625 160.112,51.625 160.112,50.625" style="fill:none;stroke-width:0.050000mm;stroke:black"/>
<polygon points="165.162,50.625 165.162,51.625 164.362,51.625 164.362,54.725 165.162,54.725 165.162,60.525 164.362,60.525 164.362,63.625 165.162,63.625 165.162,64.625 179.162,64.625 179.162,63.625 179.962,63.625 179.962,60.525 179.162,60.525 179.162,54.725 179.962,54.725 179.962,51.625 179.162,51.625 179.162,50.625" style="fill:none;stroke-width:0.050000mm;stroke:black"/>
<polygon points="184.212,50.625 184.212,51.625 183.412,51.625 183.412,54.725 184.212,54.725 184.212,60.525 183.412,60.525 183.412,63.625 184.212,63.625 184.212,64.625 198.212,64.625 198.212,63.625 199.012,63.625 199.012,60.525 198.212,60.525 198.212,54.725 199.012,54.725 199.012,51.625 198.212,51.625 198.212,50.625" style="fill:none;stroke-width:0.050000mm;stroke:black"/>
<polygon points="203.262,50.625 203.262,51.625 202.462,51.625 202.462,54.725 203.262,54.725 203.262,60.525 202.462,60.525 202.462,63.625 203.262,63.625 203.262,64.625 217.262,64.625 217.262,63.625 218.062,63.625 218.062,60.525 217.262,60.525 217.262,54.725 218.062,54.725 218.062,51.625 217.262,51.625 217.262,50.625" style="fill:none;stroke-width:0.050000mm;stroke:black"/>
<polygon points="222.312,50.625 222.312,51.625 221.512,51.625 221.512,54.725 222.312,54.725 222.312,60.525 221.512,60.525 221.512,63.625 222.312,63.625 222.312,64.625 236.312,64.625 236.312,63.625 237.112,63.625 237.112,60.525 236.312,60.525 236.312,54.725 237.112,54.725 237.112,51.625 236.312,51.625 236.312,50.625" style="fill:none;stroke-width:0.050000mm;stroke:black"/>
<polygon points="241.362,50.625 241.362,51.625 240.562,51.625 240.562,54.725 241.362,54.725 241.362,60.525 240.562,60.525 240.562,63.625 241.362,63.625 241.362,64.625 255.362,64.625 255.362,63.625 256.161,63.625 256.161,60.525 255.362,60.525 255.362,54.725 256.161,54.725 256.161,51.625 255.362,51.625 255.362,50.625" style="fill:none;stroke-width:0.050000mm;stroke:black"/>
<polygon points="262.793,50.625 262.793,51.625 261.993,51.625 261.993,54.725 262.793,54.725 262.793,60.525 261.993,60.525 261.993,63.625 262.793,63.625 262.793,64.625 276.793,64.625 276.793,63.625 277.593,63.625 277.593,60.525 276.793,60.525 276.793,54.725 277.593,54.725 277.593,51.625 276.793,51.625 276.793,50.625" style="fill:none;stroke-width:0.050000mm;stroke:black"/>
<polygon points="284.225,50.625 284.225,51.625 283.425,51.625 283.425,54.725 284.225,54.725 284.225,60.525 283.425,60.525 283.425,63.625 284.225,63.625 284.225,64.625 298.225,64.625 298.225,63.625 299.025,63.625 299.025,60.525 298.225,60.525 298.225,54.725 299.025,54.725 299.025,51.625 298.225,51.625 298.225,50.625" style="fill:none;stroke-width:0.050000mm;stroke:black"/>
<polygon points="22.287,31.575 22.287,32.575 21.487,32.575 21.487,35.675 22.287,35.675 22.287,41.475 21.487,41.475 21.487,44.575 22.287,44.575 22.287,45.575 36.287,45.575 36.287,44.575 37.087,44.575 37.087,41.475 36.287,41.475 36.287,35.675 37.087,35.675 37.087,32.575 36.287,32.575 36.287,31.575" style="fill:none;stroke-width:0.050000mm;stroke:black"/>
<polygon points="46.100,31.575 46.100,32.575 45.300,32.575 45.300,35.675 46.100,35.675 46.100,41.475 45.300,41.475 45.300,44.575 46.100,44.575 46.100,45.575 60.100,45.575 60.100,44.575 60.900,44.575 60.900,41.475 60.100,41.475 60.100,35.675 60.900,35.675 60.900,32.575 60.100,32.575 60.100,31.575" style="fill:none;stroke-width:0.050000mm;stroke:black"/>
<polygon points="65.150,31.575 65.150,32.575 64.349,32.575 64.349,35.675 65.150,35.675 65.150,41.475 64.349,41.475 64.349,44.575 65.150,44.575 65.150,45.575 79.150,45.575 79.150,44.575 79.950,44.575 79.950,41.475 79.150,41.475 79.150,35.675 79.950,35.675 79.950,32.575 79.150,32.575 79.150,31.575" style="fill:none;stroke-width:0.050000mm;stroke:black"/>
<polygon points="84.200,31.575 84.200,32.575 83.400,32.575 83.400,35.675 84.200,35.675 84.200,41.475 83.400,41.475 83.400,44.575 84.200,44.575 84.200,45.575 98.200,45.575 98.200,44.575 99.000,44.575 99.000,41.475 98.200,41.475 98.200,35.675 99.000,35.675 99.000,32.575 98.200,32.575 98.200,31.575" style="fill:none;stroke-width:0.050000mm;stroke:black"/>
<polygon points="103.250,31.575 103.250,32.575 102.450,32.575 102.450,35.675 103.250,35.675 103.250,41.475 102.450,41.475 102.450,44.575 103.250,44.575 103.250,45.575 117.250,45.575 117.250,44.575 118.050,44.575 118.050,41.475 117.250,41.475 117.250,35.675 118.050,35.675 118.050,32.575 117.250,32.575 117.250,31.575" style="fill:none;stroke-width:0.050000mm;stroke:black"/>
<polygon points="122.300,31.575 122.300,32.575 121.500,32.575 121.500,35.675 122.300,35.675 122.300,41.475 121.500,41.475 121.500,44.575 122.300,44.575 122.300,45.575 136.300,45.575 136.300,44.575 137.100,44.575 137.100,41.475 136.300,41.475 136.300,35.675 137.100,35.675 137.100,32.575 136.300,32.575 136.300,31.575" style="fill:none;stroke-width:0.050000mm;stroke:black"/>
<polygon points="141.350,31.575 141.350,32.575 140.550,32.575 140.550,35.675 141.350,35.675 141.350,41.475 140.550,41.475 140.550,44.575 141.350,44.575 141.350,45.575 155.350,45.575 155.350,44.575 156.150,44.575 156.150,41.475 155.350,41.475 155.350,35.675 156.150,35.675 156.150,32.575 155.350,32.575 155.350,31.575" style="fill:none;stroke-width:0.050000mm;stroke:black"/>
<polygon points="160.400,31.575 160.400,32.575 159.600,32.575 159.600,35.675 160.400,35.675 160.400,41.475 159.600,41.475 159.600,44.575 160.400,44.575 160.400,45.575 174.400,45.575 174.400,44.575 175.200,44.575 175.200,41.475 174.400,41.475 174.400,35.675 175.200,35.675 175.200,32.575 174.400,32.575 174.400,31.575" style="fill:none;stroke-width:0.050000mm;stroke:black"/>
<polygon points="179.450,31.575 179.450,32.575 178.650,32.575 178.650,35.675 179.450,35.675 179.450,41.475 178.650,41.475 178.650,44.575 179.450,44.575 179.450,45.575 193.450,45.575 193.450,44.575 194.250,44.575 194.250,41.475 193.450,41.475 193.450,35.675 194.250,35.675 194.250,32.575 193.450,32.575 193.450,31.575" style="fill:none;stroke-width:0.050000mm;stroke:black"/>
<polygon points="198.500,31.575 198.500,32.575 197.700,32.575 197.700,35.675 198.500,35.675 198.500,41.475 197.700,41.475 197.700,44.575 198.500,44.575 198.500,45.575 212.500,45.575 212.500,44.575 213.300,44.575 213.300,41.475 212.500,41.475 212.500,35.675 213.300,35.675 213.300,32.575 212.500,32.575 212.500,31.575" style="fill:none;stroke-width:0.050000mm;stroke:black"/>
<polygon points="217.550,31.575 217.550,32.575 216.750,32.575 216.750,35.675 217.550,35.675 217.550,41.475 216.750,41.475 216.750,44.575 217.550,44.575 217.550,45.575 231.550,45.575 231.550,44.575 232.350,44.575 232.350,41.475 231.550,41.475 231.550,35.675 232.350,35.675 232.350,32.575 231.550,32.575 231.550,31.575" style="fill:none;stroke-width:0.050000mm;stroke:black"/>
<polygon points="236.600,31.575 236.600,32.575 235.800,32.575 235.800,35.675 236.600,35.675 236.600,41.475 235.800,41.475 235.800,44.575 236.600,44.575 236.600,45.575 250.600,45.575 250.600,44.575 251.400,44.575 251.400,41.475 250.600,41.475 250.600,35.675 251.400,35.675 251.400,32.575 250.600,32.575 250.600,31.575" style="fill:none;stroke-width:0.050000mm;stroke:black"/>
<polygon points="255.650,31.575 255.650,32.575 254.850,32.575 254.850,35.675 255.650,35.675 255.650,41.475 254.850,41.475 254.850,44.575 255.650,44.575 255.650,45.575 269.650,45.575 269.650,44.575 270.450,44.575 270.450,41.475 269.650,41.475 269.650,35.675 270.450,35.675 270.450,32.575 269.650,32.575 269.650,31.575" style="fill:none;stroke-width:0.050000mm;stroke:black"/>
<polygon points="279.462,31.575 279.462,32.575 278.662,32.575 278.662,35.675 279.462,35.675 279.462,41.475 278.662,41.475 278.662,44.575 279.462,44.575 279.462,45.575 293.462,45.575 293.462,44.575 294.262,44.575 294.262,41.475 293.462,41.475 293.462,35.675 294.262,35.675 294.262,32.575 293.462,32.575 293.462,31.575" style="fill:none;stroke-width:0.050000mm;stroke:black"/>
<polygon points="274.700,12.524 274.700,13.524 273.900,13.524 273.900,16.625 274.700,16.625 274.700,17.224 273.175,17.224 273.175,13.994 271.450,13.994 271.450,13.075 268.150,13.075 268.150,13.994 266.425,13.994 266.425,17.224 265.600,17.224 265.600,20.025 266.425,20.025 266.425,26.294 268.150,26.294 268.150,27.275 271.450,27.275 271.450,26.294 273.175,26.294 273.175,21.825 274.700,21.825 274.700,22.424 273.900,22.424 273.900,25.525 274.700,25.525 274.700,26.525 288.700,26.525 288.700,25.525 289.500,25.525 289.500,22.424 288.700,22.424 288.700,21.825 290.225,21.825 290.225,26.294 291.950,26.294 291.950,27.275 295.250,27.275 295.250,26.294 296.975,26.294 296.975,20.025 297.800,20.025 297.800,17.224 296.975,17.224 296.975,13.994 295.250,13.994 295.250,13.075 291.950,13.075 291.950,13.994 290.225,13.994 290.225,17.224 288.700,17.224 288.700,16.625 289.500,16.625 289.500,13.524 288.700,13.524 288.700,12.524" style="fill:none;stroke-width:0.050000mm;stroke:black"/>
<polygon points="17.525,12.524 17.525,13.524 16.724,13.524 16.724,16.625 17.525,16.625 17.525,22.424 16.724,22.424 16.724,25.525 17.525,25.525 17.525,26.525 31.525,26.525 31.525,25.525 32.323,25.525 32.323,22.424 31.525,22.424 31.525,16.625 32.323,16.625 32.323,13.524 31.525,13.524 31.525,12.524" style="fill:none;stroke-width:0.050000mm;stroke:black"/>
<polygon points="36.575,12.524 36.575,13.524 35.775,13.524 35.775,16.625 36.575,16.625 36.575,22.424 35.775,22.424 35.775,25.525 36.575,25.525 36.575,26.525 50.575,26.525 50.575,25.525 51.375,25.525 51.375,22.424 50.575,22.424 50.575,16.625 51.375,16.625 51.375,13.524 50.575,13.524 50.575,12.524" style="fill:none;stroke-width:0.050000mm;stroke:black"/>
<polygon points="55.625,12.524 55.625,13.524 54.825,13.524 54.825,16.625 55.625,16.625 55.625,22.424 54.825,22.424 54.825,25.525 55.625,25.525 55.625,26.525 69.625,26.525 69.625,25.525 70.425,25.525 70.425,22.424 69.625,22.424 69.625,16.625 70.425,16.625 70.425,13.524 69.625,13.524 69.625,12.524" style="fill:none;stroke-width:0.050000mm;stroke:black"/>
<polygon points="74.675,12.524 74.675,13.524 73.875,13.524 73.875,16.625 74.675,16.625 74.675,22.424 73.875,22.424 73.875,25.525 74.675,25.525 74.675,26.525 88.675,26.525 88.675,25.525 89.475,25.525 89.475,22.424 88.675,22.424 88.675,16.625 89.475,16.625 89.475,13.524 88.675,13.524 88.675,12.524" style="fill:none;stroke-width:0.050000mm;stroke:black"/>
<polygon points="93.725,12.524 93.725,13.524 92.925,13.524 92.925,16.625 93.725,16.625 93.725,22.424 92.925,22.424 92.925,25.525 93.725,25.525 93.725,26.525 107.725,26.525 107.725,25.525 108.524,25.525 108.524,22.424 107.725,22.424 107.725,16.625 108.524,16.625 108.524,13.524 107.725,13.524 107.725,12.524" style="fill:none;stroke-width:0.050000mm;stroke:black"/>
<polygon points="112.774,12.524 112.774,13.524 111.975,13.524 111.975,16.625 112.774,16.625 112.774,22.424 111.975,22.424 111.975,25.525 112.774,25.525 112.774,26.525 126.774,26.525 126.774,25.525 127.574,25.525 127.574,22.424 126.774,22.424 126.774,16.625 127.574,16.625 127.574,13.524 126.774,13.524 126.774,12.524" style="fill:none;stroke-width:0.050000mm;stroke:black"/>
<polygon points="131.825,12.524 131.825,13.524 131.024,13.524 131.024,16.625 131.825,16.625 131.825,22.424 131.024,22.424 131.024,25.525 131.825,25.525 131.825,26.525 145.825,26.525 145.825,25.525 146.625,25.525 146.625,22.424 145.825,22.424 145.825,16.625 146.625,16.625 146.625,13.524 145.825,13.524 145.825,12.524" style="fill:none;stroke-width:0.050000mm;stroke:black"/>
<polygon points="150.875,12.524 150.875,13.524 150.075,13.524 150.075,16.625 150.875,16.625 150.875,22.424 150.075,22.424 150.075,25.525 150.875,25.525 150.875,26.525 164.875,26.525 164.875,25.525 165.675,25.525 165.675,22.424 164.875,22.424 164.875,16.625 165.675,16.625 165.675,13.524 164.875,13.524 164.875,12.524" style="fill:none;stroke-width:0.050000mm;stroke:black"/>
<polygon points="169.925,12.524 169.925,13.524 169.125,13.524 169.125,16.625 169.925,16.625 169.925,22.424 169.125,22.424 169.125,25.525 169.925,25.525 169.925,26.525 183.925,26.525 183.925,25.525 184.725,25.525 184.725,22.424 183.925,22.424 183.925,16.625 184.725,16.625 184.725,13.524 183.925,13.524 183.925,12.524" style="fill:none;stroke-width:0.050000mm;stroke:black"/>
<polygon points="188.975,12.524 188.975,13.524 188.175,13.524 188.175,16.625 188.975,16.625 188.975,22.424 188.175,22.424 188.175,25.525 188.975,25.525 188.975,26.525 202.975,26.525 202.975,25.525 203.775,25.525 203.775,22.424 202.975,22.424 202.975,16.625 203.775,16.625 203.775,13.524 202.975,13.524 202.975,12.524" style="fill:none;stroke-width:0.050000mm;stroke:black"/>
<polygon points="208.025,12.524 208.025,13.524 207.225,13.524 207.225,16.625 208.025,16.625 208.025,22.424 207.225,22.424 207.225,25.525 208.025,25.525 208.025,26.525 222.025,26.525 222.025,25.525 222.825,25.525 222.825,22.424 222.025,22.424 222.025,16.625 222.825,16.625 222.825,13.524 222.025,13.524 222.025,12.524" style="fill:none;stroke-width:0.050000mm;stroke:black"/>
<polygon points="227.075,12.524 227.075,13.524 226.275,13.524 226.275,16.625 227.075,16.625 227.075,22.424 226.275,22.424 226.275,25.525 227.075,25.525 227.075,26.525 241.075,26.525 241.075,25.525 241.875,25.525 241.875,22.424 241.075,22.424 241.075,16.625 241.875,16.625 241.875,13.524 241.075,13.524 241.075,12.524" style="fill:none;stroke-width:0.050000mm;stroke:black"/>
<polygon points="246.125,12.524 246.125,13.524 245.325,13.524 245.325,16.625 246.125,16.625 246.125,22.424 245.325,22.424 245.325,25.525 246.125,25.525 246.125,26.525 260.125,26.525 260.125,25.525 260.925,25.525 260.925,22.424 260.125,22.424 260.125,16.625 260.925,16.625 260.925,13.524 260.125,13.524 260.125,12.524" style="fill:none;stroke-width:0.050000mm;stroke:black"/>
</svg>
