<?xml version="1.0"?>
<!-- Generated by SVGo -->
<svg width="313.752mm" height="105.252mm"
     viewBox="0.000 0.000 313.752 105.252"
     xmlns="http://www.w3.org/2000/svg" 
     xmlns:xlink="http://www.w3.org/1999/xlink">
<polygon points="303.752,5.001 304.144,5.016 304.534,5.062 304.919,5.139 305.297,5.245 305.665,5.381 306.021,5.545 306.364,5.737 306.690,5.955 306.999,6.198 307.287,6.465 307.554,6.753 307.797,7.062 308.015,7.388 308.207,7.731 308.371,8.087 308.507,8.455 308.613,8.833 308.690,9.218 308.736,9.608 308.751,10.001 308.752,95.251 308.736,95.644 308.690,96.034 308.613,96.419 308.507,96.797 308.371,97.165 308.207,97.521 308.015,97.864 307.797,98.190 307.554,98.499 307.287,98.787 306.999,99.054 306.690,99.297 306.364,99.515 306.021,99.707 305.665,99.871 305.297,100.007 304.919,100.113 304.534,100.190 304.144,100.236 303.752,100.252 10.001,100.251 9.608,100.236 9.218,100.190 8.833,100.113 8.455,100.007 8.087,99.871 7.731,99.707 7.388,99.515 7.062,99.297 6.753,99.054 6.465,98.787 6.198,98.499 5.955,98.190 5.737,97.864 5.545,97.521 5.381,97.165 5.245,96.797 5.139,96.419 5.062,96.034 5.016,95.644 5.000,95.251 5.001,10.001 5.016,9.608 5.062,9.218 5.139,8.833 5.245,8.455 5.381,8.087 5.545,7.731 5.737,7.388 5.955,7.062 6.198,6.753 6.465,6.465 6.753,6.198 7.062,5.955 7.388,5.737 7.731,5.545 8.087,5.381 8.455,5.245 8.833,5.139 9.218,5.062 9.608,5.016 10.001,5.000" style="fill:none;stroke-width:0.050000mm;stroke:black"/>
<polygon points="116.538,83.726 116.538,84.726 115.738,84.726 115.738,87.825 116.538,87.825 116.538,88.426 107.863,88.426 107.863,85.196 106.138,85.196 106.138,84.275 102.838,84.275 102.838,85.196 101.113,85.196 101.113,88.426 100.288,88.426 100.288,91.226 101.113,91.226 101.113,97.495 102.838,97.495 102.838,98.476 106.138,98.476 106.138,97.495 107.863,97.495 107.863,93.025 116.538,93.025 116.538,93.626 115.738,93.626 115.738,96.726 116.538,96.726 116.538,97.726 130.538,97.726 130.538,96.726 131.338,96.726 131.338,93.626 130.538,93.626 130.538,93.025 139.213,93.025 139.213,97.495 140.938,97.495 140.938,98.476 144.238,98.476 144.238,97.495 145.963,97.495 145.963,91.226 146.788,91.226 146.788,88.426 145.963,88.426 145.963,85.196 144.238,85.196 144.238,84.275 140.938,84.275 140.938,85.196 139.213,85.196 139.213,88.426 130.538,88.426 130.538,87.825 131.338,87.825 131.338,84.726 130.538,84.726 130.538,83.726" style="fill:none;stroke-width:0.050000mm;stroke:black"/>
<polygon points="164.163,83.726 164.163,84.726 163.363,84.726 163.363,87.825 164.163,87.825 164.163,88.426 162.638,88.426 162.638,85.196 160.913,85.196 160.913,84.275 157.613,84.275 157.613,85.196 155.888,85.196 155.888,88.426 155.063,88.426 155.063,91.226 155.888,91.226 155.888,97.495 157.613,97.495 157.613,98.476 160.913,98.476 160.913,97.495 162.638,97.495 162.638,93.025 164.163,93.025 164.163,93.626 163.363,93.626 163.363,96.726 164.163,96.726 164.163,97.726 178.163,97.726 178.163,96.726 178.963,96.726 178.963,93.626 178.163,93.626 178.163,93.025 179.688,93.025 179.688,97.495 181.413,97.495 181.413,98.476 184.713,98.476 184.713,97.495 186.438,97.495 186.438,91.226 187.263,91.226 187.263,88.426 186.438,88.426 186.438,85.196 184.713,85.196 184.713,84.275 181.413,84.275 181.413,85.196 179.688,85.196 179.688,88.426 178.163,88.426 178.163,87.825 178.963,87.825 178.963,84.726 178.163,84.726 178.163,83.726" style="fill:none;stroke-width:0.050000mm;stroke:black"/>
<polygon points="18.907,83.726 18.907,84.726 18.107,84.726 18.107,87.825 18.907,87.825 18.907,93.626 18.107,93.626 18.107,96.726 18.907,96.726 18.907,97.726 32.907,97.726 32.907,96.726 33.707,96.726 33.707,93.626 32.907,93.626 32.907,87.825 33.707,87.825 33.707,84.726 32.907,84.726 32.907,83.726" style="fill:none;stroke-width:0.050000mm;stroke:black"/>
<polygon points="40.338,83.726 40.338,84.726 39.538,84.726 39.538,87.825 40.338,87.825 40.338,93.626 39.538,93.626 39.538,96.726 40.338,96.726 40.338,97.726 54.338,97.726 54.338,96.726 55.138,96.726 55.138,93.626 54.338,93.626 54.338,87.825 55.138,87.825 55.138,84.726 54.338,84.726 54.338,83.726" style="fill:none;stroke-width:0.050000mm;stroke:black"/>
<polygon points="59.388,83.726 59.388,84.726 58.588,84.726 58.588,87.825 59.388,87.825 59.388,93.626 58.588,93.626 58.588,96.726 59.388,96.726 59.388,97.726 73.388,97.726 73.388,96.726 74.188,96.726 74.188,93.626 73.388,93.626 73.388,87.825 74.188,87.825 74.188,84.726 73.388,84.726 73.388,83.726" style="fill:none;stroke-width:0.050000mm;stroke:black"/>
<polygon points="78.438,83.726 78.438,84.726 77.638,84.726 77.638,87.825 78.438,87.825 78.438,93.626 77.638,93.626 77.638,96.726 78.438,96.726 78.438,97.726 92.438,97.726 92.438,96.726 93.238,96.726 93.238,93.626 92.438,93.626 92.438,87.825 93.238,87.825 93.238,84.726 92.438,84.726 92.438,83.726" style="fill:none;stroke-width:0.050000mm;stroke:black"/>
<polygon points="192.738,83.726 192.738,84.726 191.938,84.726 191.938,87.825 192.738,87.825 192.738,93.626 191.938,93.626 191.938,96.726 192.738,96.726 192.738,97.726 206.738,97.726 206.738,96.726 207.538,96.726 207.538,93.626 206.738,93.626 206.738,87.825 207.538,87.825 207.538,84.726 206.738,84.726 206.738,83.726" style="fill:none;stroke-width:0.050000mm;stroke:black"/>
<polygon points="211.788,83.726 211.788,84.726 210.988,84.726 210.988,87.825 211.788,87.825 211.788,93.626 210.988,93.626 210.988,96.726 211.788,96.726 211.788,97.726 225.788,97.726 225.788,96.726 226.588,96.726 226.588,93.626 225.788,93.626 225.788,87.825 226.588,87.825 226.588,84.726 225.788,84.726 225.788,83.726" style="fill:none;stroke-width:0.050000mm;stroke:black"/>
<polygon points="230.838,83.726 230.838,84.726 230.038,84.726 230.038,87.825 230.838,87.825 230.838,93.626 230.038,93.626 230.038,96.726 230.838,96.726 230.838,97.726 244.838,97.726 244.838,96.726 245.638,96.726 245.638,93.626 244.838,93.626 244.838,87.825 245.638,87.825 245.638,84.726 244.838,84.726 244.838,83.726" style="fill:none;stroke-width:0.050000mm;stroke:black"/>
<polygon points="249.888,83.726 249.888,84.726 249.088,84.726 249.088,87.825 249.888,87.825 249.888,93.626 249.088,93.626 249.088,96.726 249.888,96.726 249.888,97.726 263.888,97.726 263.888,96.726 264.688,96.726 264.688,93.626 263.888,93.626 263.888,87.825 264.688,87.825 264.688,84.726 263.888,84.726 263.888,83.726" style="fill:none;stroke-width:0.050000mm;stroke:black"/>
<polygon points="276.082,83.726 276.082,84.726 275.282,84.726 275.282,87.825 276.082,87.825 276.082,93.626 275.282,93.626 275.282,96.726 276.082,96.726 276.082,97.726 290.082,97.726 290.082,96.726 290.882,96.726 290.882,93.626 290.082,93.626 290.082,87.825 290.882,87.825 290.882,84.726 290.082,84.726 290.082,83.726" style="fill:none;stroke-width:0.050000mm;stroke:black"/>
<polygon points="18.907,64.676 18.907,65.676 18.107,65.676 18.107,68.775 18.907,68.775 18.907,74.576 18.107,74.576 18.107,77.676 18.907,77.676 18.907,78.676 32.907,78.676 32.907,77.676 33.707,77.676 33.707,74.576 32.907,74.576 32.907,68.775 33.707,68.775 33.707,65.676 32.907,65.676 32.907,64.676" style="fill:none;stroke-width:0.050000mm;stroke:black"/>
<polygon points="40.338,64.676 40.338,65.676 39.538,65.676 39.538,68.775 40.338,68.775 40.338,74.576 39.538,74.576 39.538,77.676 40.338,77.676 40.338,78.676 54.338,78.676 54.338,77.676 55.138,77.676 55.138,74.576 54.338,74.576 54.338,68.775 55.138,68.775 55.138,65.676 54.338,65.676 54.338,64.676" style="fill:none;stroke-width:0.050000mm;stroke:black"/>
<polygon points="59.388,64.676 59.388,65.676 58.588,65.676 58.588,68.775 59.388,68.775 59.388,74.576 58.588,74.576 58.588,77.676 59.388,77.676 59.388,78.676 73.388,78.676 73.388,77.676 74.188,77.676 74.188,74.576 73.388,74.576 73.388,68.775 74.188,68.775 74.188,65.676 73.388,65.676 73.388,64.676" style="fill:none;stroke-width:0.050000mm;stroke:black"/>
<polygon points="78.438,64.676 78.438,65.676 77.638,65.676 77.638,68.775 78.438,68.775 78.438,74.576 77.638,74.576 77.638,77.676 78.438,77.676 78.438,78.676 92.438,78.676 92.438,77.676 93.238,77.676 93.238,74.576 92.438,74.576 92.438,68.775 93.238,68.775 93.238,65.676 92.438,65.676 92.438,64.676" style="fill:none;stroke-width:0.050000mm;stroke:black"/>
<polygon points="97.488,64.676 97.488,65.676 96.688,65.676 96.688,68.775 97.488,68.775 97.488,74.576 96.688,74.576 96.688,77.676 97.488,77.676 97.488,78.676 111.488,78.676 111.488,77.676 112.288,77.676 112.288,74.576 111.488,74.576 111.488,68.775 112.288,68.775 112.288,65.676 111.488,65.676 111.488,64.676" style="fill:none;stroke-width:0.050000mm;stroke:black"/>
<polygon points="116.538,64.676 116.538,65.676 115.738,65.676 115.738,68.775 116.538,68.775 116.538,74.576 115.738,74.576 115.738,77.676 116.538,77.676 116.538,78.676 130.538,78.676 130.538,77.676 131.338,77.676 131.338,74.576 130.538,74.576 130.538,68.775 131.338,68.775 131.338,65.676 130.538,65.676 130.538,64.676" style="fill:none;stroke-width:0.050000mm;stroke:black"/>
<polygon points="135.588,64.676 135.588,65.676 134.788,65.676 134.788,68.775 135.588,68.775 135.588,74.576 134.788,74.576 134.788,77.676 135.588,77.676 135.588,78.676 149.588,78.676 149.588,77.676 150.388,77.676 150.388,74.576 149.588,74.576 149.588,68.775 150.388,68.775 150.388,65.676 149.588,65.676 149.588,64.676" style="fill:none;stroke-width:0.050000mm;stroke:black"/>
<polygon points="154.638,64.676 154.638,65.676 153.838,65.676 153.838,68.775 154.638,68.775 154.638,74.576 153.838,74.576 153.838,77.676 154.638,77.676 154.638,78.676 168.638,78.676 168.638,77.676 169.438,77.676 169.438,74.576 168.638,74.576 168.638,68.775 169.438,68.775 169.438,65.676 168.638,65.676 168.638,64.676" style="fill:none;stroke-width:0.050000mm;stroke:black"/>
<polygon points="173.688,64.676 173.688,65.676 172.888,65.676 172.888,68.775 173.688,68.775 173.688,74.576 172.888,74.576 172.888,77.676 173.688,77.676 173.688,78.676 187.688,78.676 187.688,77.676 188.488,77.676 188.488,74.576 187.688,74.576 187.688,68.775 188.488,68.775 188.488,65.676 187.688,65.676 187.688,64.676" style="fill:none;stroke-width:0.050000mm;stroke:black"/>
<polygon points="192.738,64.676 192.738,65.676 191.938,65.676 191.938,68.775 192.738,68.775 192.738,74.576 191.938,74.576 191.938,77.676 192.738,77.676 192.738,78.676 206.738,78.676 206.738,77.676 207.538,77.676 207.538,74.576 206.738,74.576 206.738,68.775 207.538,68.775 207.538,65.676 206.738,65.676 206.738,64.676" style="fill:none;stroke-width:0.050000mm;stroke:black"/>
<polygon points="211.788,64.676 211.788,65.676 210.988,65.676 210.988,68.775 211.788,68.775 211.788,74.576 210.988,74.576 210.988,77.676 211.788,77.676 211.788,78.676 225.788,78.676 225.788,77.676 226.588,77.676 226.588,74.576 225.788,74.576 225.788,68.775 226.588,68.775 226.588,65.676 225.788,65.676 225.788,64.676" style="fill:none;stroke-width:0.050000mm;stroke:black"/>
<polygon points="230.838,64.676 230.838,65.676 230.038,65.676 230.038,68.775 230.838,68.775 230.838,74.576 230.038,74.576 230.038,77.676 230.838,77.676 230.838,78.676 244.838,78.676 244.838,77.676 245.638,77.676 245.638,74.576 244.838,74.576 244.838,68.775 245.638,68.775 245.638,65.676 244.838,65.676 244.838,64.676" style="fill:none;stroke-width:0.050000mm;stroke:black"/>
<polygon points="249.888,64.676 249.888,65.676 249.088,65.676 249.088,68.775 249.888,68.775 249.888,74.576 249.088,74.576 249.088,77.676 249.888,77.676 249.888,78.676 263.888,78.676 263.888,77.676 264.688,77.676 264.688,74.576 263.888,74.576 263.888,68.775 264.688,68.775 264.688,65.676 263.888,65.676 263.888,64.676" style="fill:none;stroke-width:0.050000mm;stroke:black"/>
<polygon points="276.082,64.676 276.082,65.676 275.282,65.676 275.282,68.775 276.082,68.775 276.082,74.576 275.282,74.576 275.282,77.676 276.082,77.676 276.082,78.676 290.082,78.676 290.082,77.676 290.882,77.676 290.882,74.576 290.082,74.576 290.082,68.775 290.882,68.775 290.882,65.676 290.082,65.676 290.082,64.676" style="fill:none;stroke-width:0.050000mm;stroke:black"/>
<polygon points="23.669,45.626 23.669,46.626 22.869,46.626 22.869,49.726 23.669,49.726 23.669,55.526 22.869,55.526 22.869,58.626 23.669,58.626 23.669,59.626 37.669,59.626 37.669,58.626 38.469,58.626 38.469,55.526 37.669,55.526 37.669,49.726 38.469,49.726 38.469,46.626 37.669,46.626 37.669,45.626" style="fill:none;stroke-width:0.050000mm;stroke:black"/>
<polygon points="49.863,45.626 49.863,46.626 49.063,46.626 49.063,49.726 49.863,49.726 49.863,55.526 49.063,55.526 49.063,58.626 49.863,58.626 49.863,59.626 63.863,59.626 63.863,58.626 64.663,58.626 64.663,55.526 63.863,55.526 63.863,49.726 64.663,49.726 64.663,46.626 63.863,46.626 63.863,45.626" style="fill:none;stroke-width:0.050000mm;stroke:black"/>
<polygon points="68.913,45.626 68.913,46.626 68.113,46.626 68.113,49.726 68.913,49.726 68.913,55.526 68.113,55.526 68.113,58.626 68.913,58.626 68.913,59.626 82.913,59.626 82.913,58.626 83.713,58.626 83.713,55.526 82.913,55.526 82.913,49.726 83.713,49.726 83.713,46.626 82.913,46.626 82.913,45.626" style="fill:none;stroke-width:0.050000mm;stroke:black"/>
<polygon points="87.963,45.626 87.963,46.626 87.163,46.626 87.163,49.726 87.963,49.726 87.963,55.526 87.163,55.526 87.163,58.626 87.963,58.626 87.963,59.626 101.963,59.626 101.963,58.626 102.763,58.626 102.763,55.526 101.963,55.526 101.963,49.726 102.763,49.726 102.763,46.626 101.963,46.626 101.963,45.626" style="fill:none;stroke-width:0.050000mm;stroke:black"/>
<polygon points="107.013,45.626 107.013,46.626 106.213,46.626 106.213,49.726 107.013,49.726 107.013,55.526 106.213,55.526 106.213,58.626 107.013,58.626 107.013,59.626 121.013,59.626 121.013,58.626 121.813,58.626 121.813,55.526 121.013,55.526 121.013,49.726 121.813,49.726 121.813,46.626 121.013,46.626 121.013,45.626" style="fill:none;stroke-width:0.050000mm;stroke:black"/>
<polygon points="126.063,45.626 126.063,46.626 125.263,46.626 125.263,49.726 126.063,49.726 126.063,55.526 125.263,55.526 125.263,58.626 126.063,58.626 126.063,59.626 140.063,59.626 140.063,58.626 140.863,58.626 140.863,55.526 140.063,55.526 140.063,49.726 140.863,49.726 140.863,46.626 140.063,46.626 140.063,45.626" style="fill:none;stroke-width:0.050000mm;stroke:black"/>
<polygon points="145.113,45.626 145.113,46.626 144.313,46.626 144.313,49.726 145.113,49.726 145.113,55.526 144.313,55.526 144.313,58.626 145.113,58.626 145.113,59.626 159.113,59.626 159.113,58.626 159.913,58.626 159.913,55.526 159.113,55.526 159.113,49.726 159.913,49.726 159.913,46.626 159.113,46.626 159.113,45.626" style="fill:none;stroke-width:0.050000mm;stroke:black"/>
<polygon points="164.163,45.626 164.163,46.626 163.363,46.626 163.363,49.726 164.163,49.726 164.163,55.526 163.363,55.526 163.363,58.626 164.163,58.626 164.163,59.626 178.163,59.626 178.163,58.626 178.963,58.626 178.963,55.526 178.163,55.526 178.163,49.726 178.963,49.726 178.963,46.626 178.163,46.626 178.163,45.626" style="fill:none;stroke-width:0.050000mm;stroke:black"/>
<polygon points="183.213,45.626 183.213,46.626 182.413,46.626 182.413,49.726 183.213,49.726 183.213,55.526 182.413,55.526 182.413,58.626 183.213,58.626 183.213,59.626 197.213,59.626 197.213,58.626 198.013,58.626 198.013,55.526 197.213,55.526 197.213,49.726 198.013,49.726 198.013,46.626 197.213,46.626 197.213,45.626" style="fill:none;stroke-width:0.050000mm;stroke:black"/>
<polygon points="202.263,45.626 202.263,46.626 201.463,46.626 201.463,49.726 202.263,49.726 202.263,55.526 201.463,55.526 201.463,58.626 202.263,58.626 202.263,59.626 216.263,59.626 216.263,58.626 217.063,58.626 217.063,55.526 216.263,55.526 216.263,49.726 217.063,49.726 217.063,46.626 216.263,46.626 216.263,45.626" style="fill:none;stroke-width:0.050000mm;stroke:black"/>
<polygon points="221.313,45.626 221.313,46.626 220.513,46.626 220.513,49.726 221.313,49.726 221.313,55.526 220.513,55.526 220.513,58.626 221.313,58.626 221.313,59.626 235.313,59.626 235.313,58.626 236.113,58.626 236.113,55.526 235.313,55.526 235.313,49.726 236.113,49.726 236.113,46.626 235.313,46.626 235.313,45.626" style="fill:none;stroke-width:0.050000mm;stroke:black"/>
<polygon points="240.363,45.626 240.363,46.626 239.563,46.626 239.563,49.726 240.363,49.726 240.363,55.526 239.563,55.526 239.563,58.626 240.363,58.626 240.363,59.626 254.363,59.626 254.363,58.626 255.163,58.626 255.163,55.526 254.363,55.526 254.363,49.726 255.163,49.726 255.163,46.626 254.363,46.626 254.363,45.626" style="fill:none;stroke-width:0.050000mm;stroke:black"/>
<polygon points="261.794,45.626 261.794,46.626 260.994,46.626 260.994,49.726 261.794,49.726 261.794,55.526 260.994,55.526 260.994,58.626 261.794,58.626 261.794,59.626 275.794,59.626 275.794,58.626 276.594,58.626 276.594,55.526 275.794,55.526 275.794,49.726 276.594,49.726 276.594,46.626 275.794,46.626 275.794,45.626" style="fill:none;stroke-width:0.050000mm;stroke:black"/>
<polygon points="283.226,45.626 283.226,46.626 282.426,46.626 282.426,49.726 283.226,49.726 283.226,55.526 282.426,55.526 282.426,58.626 283.226,58.626 283.226,59.626 297.226,59.626 297.226,58.626 298.026,58.626 298.026,55.526 297.226,55.526 297.226,49.726 298.026,49.726 298.026,46.626 297.226,46.626 297.226,45.626" style="fill:none;stroke-width:0.050000mm;stroke:black"/>
<polygon points="21.288,26.576 21.288,27.576 20.488,27.576 20.488,30.676 21.288,30.676 21.288,36.476 20.488,36.476 20.488,39.576 21.288,39.576 21.288,40.576 35.288,40.576 35.288,39.576 36.088,39.576 36.088,36.476 35.288,36.476 35.288,30.676 36.088,30.676 36.088,27.576 35.288,27.576 35.288,26.576" style="fill:none;stroke-width:0.050000mm;stroke:black"/>
<polygon points="45.101,26.576 45.101,27.576 44.301,27.576 44.301,30.676 45.101,30.676 45.101,36.476 44.301,36.476 44.301,39.576 45.101,39.576 45.101,40.576 59.101,40.576 59.101,39.576 59.901,39.576 59.901,36.476 59.101,36.476 59.101,30.676 59.901,30.676 59.901,27.576 59.101,27.576 59.101,26.576" style="fill:none;stroke-width:0.050000mm;stroke:black"/>
<polygon points="64.151,26.576 64.151,27.576 63.351,27.576 63.351,30.676 64.151,30.676 64.151,36.476 63.351,36.476 63.351,39.576 64.151,39.576 64.151,40.576 78.151,40.576 78.151,39.576 78.951,39.576 78.951,36.476 78.151,36.476 78.151,30.676 78.951,30.676 78.951,27.576 78.151,27.576 78.151,26.576" style="fill:none;stroke-width:0.050000mm;stroke:black"/>
<polygon points="83.201,26.576 83.201,27.576 82.401,27.576 82.401,30.676 83.201,30.676 83.201,36.476 82.401,36.476 82.401,39.576 83.201,39.576 83.201,40.576 97.201,40.576 97.201,39.576 98.001,39.576 98.001,36.476 97.201,36.476 97.201,30.676 98.001,30.676 98.001,27.576 97.201,27.576 97.201,26.576" style="fill:none;stroke-width:0.050000mm;stroke:black"/>
<polygon points="102.251,26.576 102.251,27.576 101.451,27.576 101.451,30.676 102.251,30.676 102.251,36.476 101.451,36.476 101.451,39.576 102.251,39.576 102.251,40.576 116.251,40.576 116.251,39.576 117.051,39.576 117.051,36.476 116.251,36.476 116.251,30.676 117.051,30.676 117.051,27.576 116.251,27.576 116.251,26.576" style="fill:none;stroke-width:0.050000mm;stroke:black"/>
<polygon points="121.301,26.576 121.301,27.576 120.501,27.576 120.501,30.676 121.301,30.676 121.301,36.476 120.501,36.476 120.501,39.576 121.301,39.576 121.301,40.576 135.301,40.576 135.301,39.576 136.101,39.576 136.101,36.476 135.301,36.476 135.301,30.676 136.101,30.676 136.101,27.576 135.301,27.576 135.301,26.576" style="fill:none;stroke-width:0.050000mm;stroke:black"/>
<polygon points="140.351,26.576 140.351,27.576 139.551,27.576 139.551,30.676 140.351,30.676 140.351,36.476 139.551,36.476 139.551,39.576 140.351,39.576 140.351,40.576 154.351,40.576 154.351,39.576 155.151,39.576 155.151,36.476 154.351,36.476 154.351,30.676 155.151,30.676 155.151,27.576 154.351,27.576 154.351,26.576" style="fill:none;stroke-width:0.050000mm;stroke:black"/>
<polygon points="159.401,26.576 159.401,27.576 158.601,27.576 158.601,30.676 159.401,30.676 159.401,36.476 158.601,36.476 158.601,39.576 159.401,39.576 159.401,40.576 173.401,40.576 173.401,39.576 174.201,39.576 174.201,36.476 173.401,36.476 173.401,30.676 174.201,30.676 174.201,27.576 173.401,27.576 173.401,26.576" style="fill:none;stroke-width:0.050000mm;stroke:black"/>
<polygon points="178.451,26.576 178.451,27.576 177.651,27.576 177.651,30.676 178.451,30.676 178.451,36.476 177.651,36.476 177.651,39.576 178.451,39.576 178.451,40.576 192.451,40.576 192.451,39.576 193.251,39.576 193.251,36.476 192.451,36.476 192.451,30.676 193.251,30.676 193.251,27.576 192.451,27.576 192.451,26.576" style="fill:none;stroke-width:0.050000mm;stroke:black"/>
<polygon points="197.501,26.576 197.501,27.576 196.701,27.576 196.701,30.676 197.501,30.676 197.501,36.476 196.701,36.476 196.701,39.576 197.501,39.576 197.501,40.576 211.501,40.576 211.501,39.576 212.301,39.576 212.301,36.476 211.501,36.476 211.501,30.676 212.301,30.676 212.301,27.576 211.501,27.576 211.501,26.576" style="fill:none;stroke-width:0.050000mm;stroke:black"/>
<polygon points="216.551,26.576 216.551,27.576 215.751,27.576 215.751,30.676 216.551,30.676 216.551,36.476 215.751,36.476 215.751,39.576 216.551,39.576 216.551,40.576 230.551,40.576 230.551,39.576 231.351,39.576 231.351,36.476 230.551,36.476 230.551,30.676 231.351,30.676 231.351,27.576 230.551,27.576 230.551,26.576" style="fill:none;stroke-width:0.050000mm;stroke:black"/>
<polygon points="235.601,26.576 235.601,27.576 234.801,27.576 234.801,30.676 235.601,30.676 235.601,36.476 234.801,36.476 234.801,39.576 235.601,39.576 235.601,40.576 249.601,40.576 249.601,39.576 250.401,39.576 250.401,36.476 249.601,36.476 249.601,30.676 250.401,30.676 250.401,27.576 249.601,27.576 249.601,26.576" style="fill:none;stroke-width:0.050000mm;stroke:black"/>
<polygon points="254.651,26.576 254.651,27.576 253.851,27.576 253.851,30.676 254.651,30.676 254.651,36.476 253.851,36.476 253.851,39.576 254.651,39.576 254.651,40.576 268.651,40.576 268.651,39.576 269.451,39.576 269.451,36.476 268.651,36.476 268.651,30.676 269.451,30.676 269.451,27.576 268.651,27.576 268.651,26.576" style="fill:none;stroke-width:0.050000mm;stroke:black"/>
<polygon points="278.463,26.576 278.463,27.576 277.663,27.576 277.663,30.676 278.463,30.676 278.463,36.476 277.663,36.476 277.663,39.576 278.463,39.576 278.463,40.576 292.463,40.576 292.463,39.576 293.263,39.576 293.263,36.476 292.463,36.476 292.463,30.676 293.263,30.676 293.263,27.576 292.463,27.576 292.463,26.576" style="fill:none;stroke-width:0.050000mm;stroke:black"/>
<polygon points="273.701,7.526 273.701,8.526 272.901,8.526 272.901,11.626 273.701,11.626 273.701,12.226 272.176,12.226 272.176,8.996 270.451,8.996 270.451,8.075 267.151,8.075 267.151,8.996 265.426,8.996 265.426,12.226 264.601,12.226 264.601,15.026 265.426,15.026 265.426,21.296 267.151,21.296 267.151,22.276 270.451,22.276 270.451,21.296 272.176,21.296 272.176,16.826 273.701,16.826 273.701,17.426 272.901,17.426 272.901,20.526 273.701,20.526 273.701,21.526 287.701,21.526 287.701,20.526 288.501,20.526 288.501,17.426 287.701,17.426 287.701,16.826 289.226,16.826 289.226,21.296 290.951,21.296 290.951,22.276 294.251,22.276 294.251,21.296 295.976,21.296 295.976,15.026 296.801,15.026 296.801,12.226 295.976,12.226 295.976,8.996 294.251,8.996 294.251,8.075 290.951,8.075 290.951,8.996 289.226,8.996 289.226,12.226 287.701,12.226 287.701,11.626 288.501,11.626 288.501,8.526 287.701,8.526 287.701,7.526" style="fill:none;stroke-width:0.050000mm;stroke:black"/>
<polygon points="16.526,7.526 16.526,8.526 15.725,8.526 15.725,11.626 16.526,11.626 16.526,17.426 15.725,17.426 15.725,20.526 16.526,20.526 16.526,21.526 30.526,21.526 30.526,20.526 31.326,20.526 31.326,17.426 30.526,17.426 30.526,11.626 31.326,11.626 31.326,8.526 30.526,8.526 30.526,7.526" style="fill:none;stroke-width:0.050000mm;stroke:black"/>
<polygon points="35.576,7.526 35.576,8.526 34.776,8.526 34.776,11.626 35.576,11.626 35.576,17.426 34.776,17.426 34.776,20.526 35.576,20.526 35.576,21.526 49.576,21.526 49.576,20.526 50.376,20.526 50.376,17.426 49.576,17.426 49.576,11.626 50.376,11.626 50.376,8.526 49.576,8.526 49.576,7.526" style="fill:none;stroke-width:0.050000mm;stroke:black"/>
<polygon points="54.626,7.526 54.626,8.526 53.826,8.526 53.826,11.626 54.626,11.626 54.626,17.426 53.826,17.426 53.826,20.526 54.626,20.526 54.626,21.526 68.626,21.526 68.626,20.526 69.426,20.526 69.426,17.426 68.626,17.426 68.626,11.626 69.426,11.626 69.426,8.526 68.626,8.526 68.626,7.526" style="fill:none;stroke-width:0.050000mm;stroke:black"/>
<polygon points="73.676,7.526 73.676,8.526 72.876,8.526 72.876,11.626 73.676,11.626 73.676,17.426 72.876,17.426 72.876,20.526 73.676,20.526 73.676,21.526 87.676,21.526 87.676,20.526 88.476,20.526 88.476,17.426 87.676,17.426 87.676,11.626 88.476,11.626 88.476,8.526 87.676,8.526 87.676,7.526" style="fill:none;stroke-width:0.050000mm;stroke:black"/>
<polygon points="92.726,7.526 92.726,8.526 91.926,8.526 91.926,11.626 92.726,11.626 92.726,17.426 91.926,17.426 91.926,20.526 92.726,20.526 92.726,21.526 106.726,21.526 106.726,20.526 107.525,20.526 107.525,17.426 106.726,17.426 106.726,11.626 107.525,11.626 107.525,8.526 106.726,8.526 106.726,7.526" style="fill:none;stroke-width:0.050000mm;stroke:black"/>
<polygon points="111.775,7.526 111.775,8.526 110.976,8.526 110.976,11.626 111.775,11.626 111.775,17.426 110.976,17.426 110.976,20.526 111.775,20.526 111.775,21.526 125.775,21.526 125.775,20.526 126.575,20.526 126.575,17.426 125.775,17.426 125.775,11.626 126.575,11.626 126.575,8.526 125.775,8.526 125.775,7.526" style="fill:none;stroke-width:0.050000mm;stroke:black"/>
<polygon points="130.825,7.526 130.825,8.526 130.025,8.526 130.025,11.626 130.825,11.626 130.825,17.426 130.025,17.426 130.025,20.526 130.825,20.526 130.825,21.526 144.826,21.526 144.826,20.526 145.626,20.526 145.626,17.426 144.826,17.426 144.826,11.626 145.626,11.626 145.626,8.526 144.826,8.526 144.826,7.526" style="fill:none;stroke-width:0.050000mm;stroke:black"/>
<polygon points="149.876,7.526 149.876,8.526 149.076,8.526 149.076,11.626 149.876,11.626 149.876,17.426 149.076,17.426 149.076,20.526 149.876,20.526 149.876,21.526 163.876,21.526 163.876,20.526 164.676,20.526 164.676,17.426 163.876,17.426 163.876,11.626 164.676,11.626 164.676,8.526 163.876,8.526 163.876,7.526" style="fill:none;stroke-width:0.050000mm;stroke:black"/>
<polygon points="168.926,7.526 168.926,8.526 168.126,8.526 168.126,11.626 168.926,11.626 168.926,17.426 168.126,17.426 168.126,20.526 168.926,20.526 168.926,21.526 182.926,21.526 182.926,20.526 183.726,20.526 183.726,17.426 182.926,17.426 182.926,11.626 183.726,11.626 183.726,8.526 182.926,8.526 182.926,7.526" style="fill:none;stroke-width:0.050000mm;stroke:black"/>
<polygon points="187.976,7.526 187.976,8.526 187.176,8.526 187.176,11.626 187.976,11.626 187.976,17.426 187.176,17.426 187.176,20.526 187.976,20.526 187.976,21.526 201.976,21.526 201.976,20.526 202.776,20.526 202.776,17.426 201.976,17.426 201.976,11.626 202.776,11.626 202.776,8.526 201.976,8.526 201.976,7.526" style="fill:none;stroke-width:0.050000mm;stroke:black"/>
<polygon points="207.026,7.526 207.026,8.526 206.226,8.526 206.226,11.626 207.026,11.626 207.026,17.426 206.226,17.426 206.226,20.526 207.026,20.526 207.026,21.526 221.026,21.526 221.026,20.526 221.826,20.526 221.826,17.426 221.026,17.426 221.026,11.626 221.826,11.626 221.826,8.526 221.026,8.526 221.026,7.526" style="fill:none;stroke-width:0.050000mm;stroke:black"/>
<polygon points="226.076,7.526 226.076,8.526 225.276,8.526 225.276,11.626 226.076,11.626 226.076,17.426 225.276,17.426 225.276,20.526 226.076,20.526 226.076,21.526 240.076,21.526 240.076,20.526 240.876,20.526 240.876,17.426 240.076,17.426 240.076,11.626 240.876,11.626 240.876,8.526 240.076,8.526 240.076,7.526" style="fill:none;stroke-width:0.050000mm;stroke:black"/>
<polygon points="245.126,7.526 245.126,8.526 244.326,8.526 244.326,11.626 245.126,11.626 245.126,17.426 244.326,17.426 244.326,20.526 245.126,20.526 245.126,21.526 259.126,21.526 259.126,20.526 259.926,20.526 259.926,17.426 259.126,17.426 259.126,11.626 259.926,11.626 259.926,8.526 259.126,8.526 259.126,7.526" style="fill:none;stroke-width:0.050000mm;stroke:black"/>
</svg>
