<?xml version="1.0"?>
<!-- Generated by SVGo -->
<svg width="315.752mm" height="125.251mm"
     viewBox="0.000 0.000 315.752 125.251"
     xmlns="http://www.w3.org/2000/svg" 
     xmlns:xlink="http://www.w3.org/1999/xlink">
<polygon points="308.752,5.001 308.908,5.007 309.064,5.025 309.218,5.056 309.370,5.098 309.517,5.153 309.659,5.218 309.796,5.295 309.927,5.382 310.050,5.480 310.166,5.586 310.272,5.702 310.370,5.825 310.457,5.956 310.534,6.093 310.599,6.235 310.654,6.382 310.696,6.534 310.727,6.688 310.745,6.844 310.752,7.001 310.752,118.251 310.745,118.408 310.727,118.564 310.696,118.718 310.654,118.870 310.599,119.017 310.534,119.159 310.457,119.296 310.370,119.427 310.272,119.550 310.166,119.666 310.050,119.772 309.927,119.870 309.796,119.957 309.659,120.034 309.517,120.099 309.370,120.154 309.218,120.196 309.064,120.227 308.908,120.245 308.752,120.251 7.001,120.251 6.844,120.245 6.688,120.227 6.534,120.196 6.382,120.154 6.235,120.099 6.093,120.034 5.956,119.957 5.825,119.870 5.702,119.772 5.586,119.666 5.480,119.550 5.382,119.427 5.295,119.296 5.218,119.159 5.153,119.017 5.098,118.870 5.056,118.718 5.025,118.564 5.007,118.408 5.000,118.252 5.001,7.001 5.007,6.844 5.025,6.688 5.056,6.534 5.098,6.382 5.153,6.235 5.218,6.093 5.295,5.956 5.382,5.825 5.480,5.702 5.586,5.586 5.702,5.480 5.825,5.382 5.956,5.295 6.093,5.218 6.235,5.153 6.382,5.098 6.534,5.056 6.688,5.025 6.844,5.007 7.001,5.000" style="fill:none;stroke-width:0.050000mm;stroke:black"/>
<polygon points="307.942,116.800 307.664,116.942 307.442,117.164 307.300,117.442 307.252,117.751 307.300,118.061 307.442,118.339 307.664,118.561 307.942,118.703 308.252,118.751 308.561,118.703 308.839,118.561 309.061,118.339 309.203,118.061 309.252,117.751 309.203,117.442 309.061,117.164 308.839,116.942 308.561,116.800 308.252,116.751" style="fill:none;stroke-width:0.050000mm;stroke:black"/>
<polygon points="232.755,116.800 232.476,116.942 232.255,117.164 232.113,117.442 232.064,117.751 232.113,118.061 232.255,118.339 232.476,118.561 232.755,118.703 233.064,118.751 233.373,118.703 233.652,118.561 233.873,118.339 234.015,118.061 234.064,117.751 234.015,117.442 233.873,117.164 233.652,116.942 233.373,116.800 233.064,116.751" style="fill:none;stroke-width:0.050000mm;stroke:black"/>
<polygon points="157.567,116.800 157.288,116.942 157.067,117.164 156.925,117.442 156.876,117.751 156.925,118.061 157.067,118.339 157.288,118.561 157.567,118.703 157.876,118.751 158.185,118.703 158.464,118.561 158.685,118.339 158.827,118.061 158.876,117.751 158.827,117.442 158.685,117.164 158.464,116.942 158.185,116.800 157.876,116.751" style="fill:none;stroke-width:0.050000mm;stroke:black"/>
<polygon points="82.379,116.800 82.100,116.942 81.879,117.164 81.737,117.442 81.688,117.751 81.737,118.061 81.879,118.339 82.100,118.561 82.379,118.703 82.688,118.751 82.997,118.703 83.276,118.561 83.497,118.339 83.639,118.061 83.688,117.751 83.639,117.442 83.497,117.164 83.276,116.942 82.997,116.800 82.688,116.751" style="fill:none;stroke-width:0.050000mm;stroke:black"/>
<polygon points="7.191,116.800 6.913,116.942 6.691,117.164 6.549,117.442 6.500,117.751 6.549,118.061 6.691,118.339 6.913,118.561 7.191,118.703 7.500,118.751 7.810,118.703 8.088,118.561 8.310,118.339 8.452,118.061 8.501,117.751 8.452,117.442 8.310,117.164 8.088,116.942 7.810,116.800 7.501,116.751" style="fill:none;stroke-width:0.050000mm;stroke:black"/>
<polygon points="117.538,93.726 117.538,94.726 116.738,94.726 116.738,97.825 117.538,97.825 117.538,98.426 108.863,98.426 108.863,95.196 107.138,95.196 107.138,94.275 103.838,94.275 103.838,95.196 102.113,95.196 102.113,98.426 101.288,98.426 101.288,101.226 102.113,101.226 102.113,107.495 103.838,107.495 103.838,108.476 107.138,108.476 107.138,107.495 108.863,107.495 108.863,103.025 117.538,103.025 117.538,103.626 116.738,103.626 116.738,106.726 117.538,106.726 117.538,107.726 131.538,107.726 131.538,106.726 132.338,106.726 132.338,103.626 131.538,103.626 131.538,103.025 140.213,103.025 140.213,107.495 141.938,107.495 141.938,108.476 145.238,108.476 145.238,107.495 146.963,107.495 146.963,101.226 147.788,101.226 147.788,98.426 146.963,98.426 146.963,95.196 145.238,95.196 145.238,94.275 141.938,94.275 141.938,95.196 140.213,95.196 140.213,98.426 131.538,98.426 131.538,97.825 132.338,97.825 132.338,94.726 131.538,94.726 131.538,93.726" style="fill:none;stroke-width:0.050000mm;stroke:black"/>
<polygon points="165.163,93.726 165.163,94.726 164.363,94.726 164.363,97.825 165.163,97.825 165.163,98.426 163.638,98.426 163.638,95.196 161.913,95.196 161.913,94.275 158.613,94.275 158.613,95.196 156.888,95.196 156.888,98.426 156.063,98.426 156.063,101.226 156.888,101.226 156.888,107.495 158.613,107.495 158.613,108.476 161.913,108.476 161.913,107.495 163.638,107.495 163.638,103.025 165.163,103.025 165.163,103.626 164.363,103.626 164.363,106.726 165.163,106.726 165.163,107.726 179.163,107.726 179.163,106.726 179.963,106.726 179.963,103.626 179.163,103.626 179.163,103.025 180.688,103.025 180.688,107.495 182.413,107.495 182.413,108.476 185.713,108.476 185.713,107.495 187.438,107.495 187.438,101.226 188.263,101.226 188.263,98.426 187.438,98.426 187.438,95.196 185.713,95.196 185.713,94.275 182.413,94.275 182.413,95.196 180.688,95.196 180.688,98.426 179.163,98.426 179.163,97.825 179.963,97.825 179.963,94.726 179.163,94.726 179.163,93.726" style="fill:none;stroke-width:0.050000mm;stroke:black"/>
<polygon points="19.907,93.726 19.907,94.726 19.107,94.726 19.107,97.825 19.907,97.825 19.907,103.626 19.107,103.626 19.107,106.726 19.907,106.726 19.907,107.726 33.907,107.726 33.907,106.726 34.707,106.726 34.707,103.626 33.907,103.626 33.907,97.825 34.707,97.825 34.707,94.726 33.907,94.726 33.907,93.726" style="fill:none;stroke-width:0.050000mm;stroke:black"/>
<polygon points="41.338,93.726 41.338,94.726 40.538,94.726 40.538,97.825 41.338,97.825 41.338,103.626 40.538,103.626 40.538,106.726 41.338,106.726 41.338,107.726 55.338,107.726 55.338,106.726 56.138,106.726 56.138,103.626 55.338,103.626 55.338,97.825 56.138,97.825 56.138,94.726 55.338,94.726 55.338,93.726" style="fill:none;stroke-width:0.050000mm;stroke:black"/>
<polygon points="60.388,93.726 60.388,94.726 59.588,94.726 59.588,97.825 60.388,97.825 60.388,103.626 59.588,103.626 59.588,106.726 60.388,106.726 60.388,107.726 74.388,107.726 74.388,106.726 75.188,106.726 75.188,103.626 74.388,103.626 74.388,97.825 75.188,97.825 75.188,94.726 74.388,94.726 74.388,93.726" style="fill:none;stroke-width:0.050000mm;stroke:black"/>
<polygon points="79.438,93.726 79.438,94.726 78.638,94.726 78.638,97.825 79.438,97.825 79.438,103.626 78.638,103.626 78.638,106.726 79.438,106.726 79.438,107.726 93.438,107.726 93.438,106.726 94.238,106.726 94.238,103.626 93.438,103.626 93.438,97.825 94.238,97.825 94.238,94.726 93.438,94.726 93.438,93.726" style="fill:none;stroke-width:0.050000mm;stroke:black"/>
<polygon points="193.738,93.726 193.738,94.726 192.938,94.726 192.938,97.825 193.738,97.825 193.738,103.626 192.938,103.626 192.938,106.726 193.738,106.726 193.738,107.726 207.738,107.726 207.738,106.726 208.538,106.726 208.538,103.626 207.738,103.626 207.738,97.825 208.538,97.825 208.538,94.726 207.738,94.726 207.738,93.726" style="fill:none;stroke-width:0.050000mm;stroke:black"/>
<polygon points="212.788,93.726 212.788,94.726 211.988,94.726 211.988,97.825 212.788,97.825 212.788,103.626 211.988,103.626 211.988,106.726 212.788,106.726 212.788,107.726 226.788,107.726 226.788,106.726 227.588,106.726 227.588,103.626 226.788,103.626 226.788,97.825 227.588,97.825 227.588,94.726 226.788,94.726 226.788,93.726" style="fill:none;stroke-width:0.050000mm;stroke:black"/>
<polygon points="231.838,93.726 231.838,94.726 231.038,94.726 231.038,97.825 231.838,97.825 231.838,103.626 231.038,103.626 231.038,106.726 231.838,106.726 231.838,107.726 245.838,107.726 245.838,106.726 246.638,106.726 246.638,103.626 245.838,103.626 245.838,97.825 246.638,97.825 246.638,94.726 245.838,94.726 245.838,93.726" style="fill:none;stroke-width:0.050000mm;stroke:black"/>
<polygon points="250.888,93.726 250.888,94.726 250.088,94.726 250.088,97.825 250.888,97.825 250.888,103.626 250.088,103.626 250.088,106.726 250.888,106.726 250.888,107.726 264.888,107.726 264.888,106.726 265.688,106.726 265.688,103.626 264.888,103.626 264.888,97.825 265.688,97.825 265.688,94.726 264.888,94.726 264.888,93.726" style="fill:none;stroke-width:0.050000mm;stroke:black"/>
<polygon points="277.082,93.726 277.082,94.726 276.282,94.726 276.282,97.825 277.082,97.825 277.082,103.626 276.282,103.626 276.282,106.726 277.082,106.726 277.082,107.726 291.082,107.726 291.082,106.726 291.882,106.726 291.882,103.626 291.082,103.626 291.082,97.825 291.882,97.825 291.882,94.726 291.082,94.726 291.082,93.726" style="fill:none;stroke-width:0.050000mm;stroke:black"/>
<polygon points="19.907,74.676 19.907,75.676 19.107,75.676 19.107,78.775 19.907,78.775 19.907,84.576 19.107,84.576 19.107,87.676 19.907,87.676 19.907,88.676 33.907,88.676 33.907,87.676 34.707,87.676 34.707,84.576 33.907,84.576 33.907,78.775 34.707,78.775 34.707,75.676 33.907,75.676 33.907,74.676" style="fill:none;stroke-width:0.050000mm;stroke:black"/>
<polygon points="41.338,74.676 41.338,75.676 40.538,75.676 40.538,78.775 41.338,78.775 41.338,84.576 40.538,84.576 40.538,87.676 41.338,87.676 41.338,88.676 55.338,88.676 55.338,87.676 56.138,87.676 56.138,84.576 55.338,84.576 55.338,78.775 56.138,78.775 56.138,75.676 55.338,75.676 55.338,74.676" style="fill:none;stroke-width:0.050000mm;stroke:black"/>
<polygon points="60.388,74.676 60.388,75.676 59.588,75.676 59.588,78.775 60.388,78.775 60.388,84.576 59.588,84.576 59.588,87.676 60.388,87.676 60.388,88.676 74.388,88.676 74.388,87.676 75.188,87.676 75.188,84.576 74.388,84.576 74.388,78.775 75.188,78.775 75.188,75.676 74.388,75.676 74.388,74.676" style="fill:none;stroke-width:0.050000mm;stroke:black"/>
<polygon points="79.438,74.676 79.438,75.676 78.638,75.676 78.638,78.775 79.438,78.775 79.438,84.576 78.638,84.576 78.638,87.676 79.438,87.676 79.438,88.676 93.438,88.676 93.438,87.676 94.238,87.676 94.238,84.576 93.438,84.576 93.438,78.775 94.238,78.775 94.238,75.676 93.438,75.676 93.438,74.676" style="fill:none;stroke-width:0.050000mm;stroke:black"/>
<polygon points="98.488,74.676 98.488,75.676 97.688,75.676 97.688,78.775 98.488,78.775 98.488,84.576 97.688,84.576 97.688,87.676 98.488,87.676 98.488,88.676 112.488,88.676 112.488,87.676 113.288,87.676 113.288,84.576 112.488,84.576 112.488,78.775 113.288,78.775 113.288,75.676 112.488,75.676 112.488,74.676" style="fill:none;stroke-width:0.050000mm;stroke:black"/>
<polygon points="117.538,74.676 117.538,75.676 116.738,75.676 116.738,78.775 117.538,78.775 117.538,84.576 116.738,84.576 116.738,87.676 117.538,87.676 117.538,88.676 131.538,88.676 131.538,87.676 132.338,87.676 132.338,84.576 131.538,84.576 131.538,78.775 132.338,78.775 132.338,75.676 131.538,75.676 131.538,74.676" style="fill:none;stroke-width:0.050000mm;stroke:black"/>
<polygon points="136.588,74.676 136.588,75.676 135.788,75.676 135.788,78.775 136.588,78.775 136.588,84.576 135.788,84.576 135.788,87.676 136.588,87.676 136.588,88.676 150.588,88.676 150.588,87.676 151.388,87.676 151.388,84.576 150.588,84.576 150.588,78.775 151.388,78.775 151.388,75.676 150.588,75.676 150.588,74.676" style="fill:none;stroke-width:0.050000mm;stroke:black"/>
<polygon points="155.638,74.676 155.638,75.676 154.838,75.676 154.838,78.775 155.638,78.775 155.638,84.576 154.838,84.576 154.838,87.676 155.638,87.676 155.638,88.676 169.638,88.676 169.638,87.676 170.438,87.676 170.438,84.576 169.638,84.576 169.638,78.775 170.438,78.775 170.438,75.676 169.638,75.676 169.638,74.676" style="fill:none;stroke-width:0.050000mm;stroke:black"/>
<polygon points="174.688,74.676 174.688,75.676 173.888,75.676 173.888,78.775 174.688,78.775 174.688,84.576 173.888,84.576 173.888,87.676 174.688,87.676 174.688,88.676 188.688,88.676 188.688,87.676 189.488,87.676 189.488,84.576 188.688,84.576 188.688,78.775 189.488,78.775 189.488,75.676 188.688,75.676 188.688,74.676" style="fill:none;stroke-width:0.050000mm;stroke:black"/>
<polygon points="193.738,74.676 193.738,75.676 192.938,75.676 192.938,78.775 193.738,78.775 193.738,84.576 192.938,84.576 192.938,87.676 193.738,87.676 193.738,88.676 207.738,88.676 207.738,87.676 208.538,87.676 208.538,84.576 207.738,84.576 207.738,78.775 208.538,78.775 208.538,75.676 207.738,75.676 207.738,74.676" style="fill:none;stroke-width:0.050000mm;stroke:black"/>
<polygon points="212.788,74.676 212.788,75.676 211.988,75.676 211.988,78.775 212.788,78.775 212.788,84.576 211.988,84.576 211.988,87.676 212.788,87.676 212.788,88.676 226.788,88.676 226.788,87.676 227.588,87.676 227.588,84.576 226.788,84.576 226.788,78.775 227.588,78.775 227.588,75.676 226.788,75.676 226.788,74.676" style="fill:none;stroke-width:0.050000mm;stroke:black"/>
<polygon points="231.838,74.676 231.838,75.676 231.038,75.676 231.038,78.775 231.838,78.775 231.838,84.576 231.038,84.576 231.038,87.676 231.838,87.676 231.838,88.676 245.838,88.676 245.838,87.676 246.638,87.676 246.638,84.576 245.838,84.576 245.838,78.775 246.638,78.775 246.638,75.676 245.838,75.676 245.838,74.676" style="fill:none;stroke-width:0.050000mm;stroke:black"/>
<polygon points="250.888,74.676 250.888,75.676 250.088,75.676 250.088,78.775 250.888,78.775 250.888,84.576 250.088,84.576 250.088,87.676 250.888,87.676 250.888,88.676 264.888,88.676 264.888,87.676 265.688,87.676 265.688,84.576 264.888,84.576 264.888,78.775 265.688,78.775 265.688,75.676 264.888,75.676 264.888,74.676" style="fill:none;stroke-width:0.050000mm;stroke:black"/>
<polygon points="277.082,74.676 277.082,75.676 276.282,75.676 276.282,78.775 277.082,78.775 277.082,84.576 276.282,84.576 276.282,87.676 277.082,87.676 277.082,88.676 291.082,88.676 291.082,87.676 291.882,87.676 291.882,84.576 291.082,84.576 291.082,78.775 291.882,78.775 291.882,75.676 291.082,75.676 291.082,74.676" style="fill:none;stroke-width:0.050000mm;stroke:black"/>
<polygon points="24.669,55.626 24.669,56.626 23.869,56.626 23.869,59.726 24.669,59.726 24.669,65.526 23.869,65.526 23.869,68.626 24.669,68.626 24.669,69.626 38.669,69.626 38.669,68.626 39.469,68.626 39.469,65.526 38.669,65.526 38.669,59.726 39.469,59.726 39.469,56.626 38.669,56.626 38.669,55.626" style="fill:none;stroke-width:0.050000mm;stroke:black"/>
<polygon points="50.863,55.626 50.863,56.626 50.063,56.626 50.063,59.726 50.863,59.726 50.863,65.526 50.063,65.526 50.063,68.626 50.863,68.626 50.863,69.626 64.862,69.626 64.862,68.626 65.663,68.626 65.663,65.526 64.862,65.526 64.862,59.726 65.663,59.726 65.663,56.626 64.862,56.626 64.862,55.626" style="fill:none;stroke-width:0.050000mm;stroke:black"/>
<polygon points="69.913,55.626 69.913,56.626 69.113,56.626 69.113,59.726 69.913,59.726 69.913,65.526 69.113,65.526 69.113,68.626 69.913,68.626 69.913,69.626 83.913,69.626 83.913,68.626 84.713,68.626 84.713,65.526 83.913,65.526 83.913,59.726 84.713,59.726 84.713,56.626 83.913,56.626 83.913,55.626" style="fill:none;stroke-width:0.050000mm;stroke:black"/>
<polygon points="88.963,55.626 88.963,56.626 88.163,56.626 88.163,59.726 88.963,59.726 88.963,65.526 88.163,65.526 88.163,68.626 88.963,68.626 88.963,69.626 102.963,69.626 102.963,68.626 103.763,68.626 103.763,65.526 102.963,65.526 102.963,59.726 103.763,59.726 103.763,56.626 102.963,56.626 102.963,55.626" style="fill:none;stroke-width:0.050000mm;stroke:black"/>
<polygon points="108.013,55.626 108.013,56.626 107.213,56.626 107.213,59.726 108.013,59.726 108.013,65.526 107.213,65.526 107.213,68.626 108.013,68.626 108.013,69.626 122.013,69.626 122.013,68.626 122.813,68.626 122.813,65.526 122.013,65.526 122.013,59.726 122.813,59.726 122.813,56.626 122.013,56.626 122.013,55.626" style="fill:none;stroke-width:0.050000mm;stroke:black"/>
<polygon points="127.063,55.626 127.063,56.626 126.263,56.626 126.263,59.726 127.063,59.726 127.063,65.526 126.263,65.526 126.263,68.626 127.063,68.626 127.063,69.626 141.063,69.626 141.063,68.626 141.863,68.626 141.863,65.526 141.063,65.526 141.063,59.726 141.863,59.726 141.863,56.626 141.063,56.626 141.063,55.626" style="fill:none;stroke-width:0.050000mm;stroke:black"/>
<polygon points="146.113,55.626 146.113,56.626 145.313,56.626 145.313,59.726 146.113,59.726 146.113,65.526 145.313,65.526 145.313,68.626 146.113,68.626 146.113,69.626 160.113,69.626 160.113,68.626 160.913,68.626 160.913,65.526 160.113,65.526 160.113,59.726 160.913,59.726 160.913,56.626 160.113,56.626 160.113,55.626" style="fill:none;stroke-width:0.050000mm;stroke:black"/>
<polygon points="165.163,55.626 165.163,56.626 164.363,56.626 164.363,59.726 165.163,59.726 165.163,65.526 164.363,65.526 164.363,68.626 165.163,68.626 165.163,69.626 179.163,69.626 179.163,68.626 179.963,68.626 179.963,65.526 179.163,65.526 179.163,59.726 179.963,59.726 179.963,56.626 179.163,56.626 179.163,55.626" style="fill:none;stroke-width:0.050000mm;stroke:black"/>
<polygon points="184.213,55.626 184.213,56.626 183.413,56.626 183.413,59.726 184.213,59.726 184.213,65.526 183.413,65.526 183.413,68.626 184.213,68.626 184.213,69.626 198.213,69.626 198.213,68.626 199.013,68.626 199.013,65.526 198.213,65.526 198.213,59.726 199.013,59.726 199.013,56.626 198.213,56.626 198.213,55.626" style="fill:none;stroke-width:0.050000mm;stroke:black"/>
<polygon points="203.263,55.626 203.263,56.626 202.463,56.626 202.463,59.726 203.263,59.726 203.263,65.526 202.463,65.526 202.463,68.626 203.263,68.626 203.263,69.626 217.263,69.626 217.263,68.626 218.063,68.626 218.063,65.526 217.263,65.526 217.263,59.726 218.063,59.726 218.063,56.626 217.263,56.626 217.263,55.626" style="fill:none;stroke-width:0.050000mm;stroke:black"/>
<polygon points="222.313,55.626 222.313,56.626 221.513,56.626 221.513,59.726 222.313,59.726 222.313,65.526 221.513,65.526 221.513,68.626 222.313,68.626 222.313,69.626 236.313,69.626 236.313,68.626 237.113,68.626 237.113,65.526 236.313,65.526 236.313,59.726 237.113,59.726 237.113,56.626 236.313,56.626 236.313,55.626" style="fill:none;stroke-width:0.050000mm;stroke:black"/>
<polygon points="241.363,55.626 241.363,56.626 240.563,56.626 240.563,59.726 241.363,59.726 241.363,65.526 240.563,65.526 240.563,68.626 241.363,68.626 241.363,69.626 255.363,69.626 255.363,68.626 256.162,68.626 256.162,65.526 255.363,65.526 255.363,59.726 256.162,59.726 256.162,56.626 255.363,56.626 255.363,55.626" style="fill:none;stroke-width:0.050000mm;stroke:black"/>
<polygon points="260.412,55.626 260.412,56.626 259.613,56.626 259.613,59.726 260.412,59.726 260.412,65.526 259.613,65.526 259.613,68.626 260.412,68.626 260.412,69.626 274.413,69.626 274.413,68.626 275.213,68.626 275.213,65.526 274.413,65.526 274.413,59.726 275.213,59.726 275.213,56.626 274.413,56.626 274.413,55.626" style="fill:none;stroke-width:0.050000mm;stroke:black"/>
<polygon points="281.844,55.626 281.844,56.626 281.044,56.626 281.044,59.726 281.844,59.726 281.844,65.526 281.044,65.526 281.044,68.626 281.844,68.626 281.844,69.626 295.844,69.626 295.844,68.626 296.644,68.626 296.644,65.526 295.844,65.526 295.844,59.726 296.644,59.726 296.644,56.626 295.844,56.626 295.844,55.626" style="fill:none;stroke-width:0.050000mm;stroke:black"/>
<polygon points="307.942,61.675 307.664,61.817 307.442,62.038 307.300,62.317 307.252,62.626 307.300,62.935 307.442,63.214 307.664,63.435 307.942,63.577 308.252,63.626 308.561,63.577 308.839,63.435 309.061,63.214 309.203,62.935 309.252,62.626 309.203,62.317 309.061,62.038 308.839,61.817 308.561,61.675 308.252,61.626" style="fill:none;stroke-width:0.050000mm;stroke:black"/>
<polygon points="7.191,61.675 6.913,61.817 6.691,62.038 6.549,62.317 6.500,62.626 6.549,62.935 6.691,63.214 6.913,63.435 7.191,63.577 7.500,63.626 7.810,63.577 8.088,63.435 8.310,63.214 8.452,62.935 8.501,62.626 8.452,62.317 8.310,62.038 8.088,61.817 7.810,61.675 7.501,61.626" style="fill:none;stroke-width:0.050000mm;stroke:black"/>
<polygon points="22.288,36.576 22.288,37.576 21.488,37.576 21.488,40.676 22.288,40.676 22.288,46.476 21.488,46.476 21.488,49.576 22.288,49.576 22.288,50.576 36.288,50.576 36.288,49.576 37.088,49.576 37.088,46.476 36.288,46.476 36.288,40.676 37.088,40.676 37.088,37.576 36.288,37.576 36.288,36.576" style="fill:none;stroke-width:0.050000mm;stroke:black"/>
<polygon points="46.101,36.576 46.101,37.576 45.301,37.576 45.301,40.676 46.101,40.676 46.101,46.476 45.301,46.476 45.301,49.576 46.101,49.576 46.101,50.576 60.101,50.576 60.101,49.576 60.901,49.576 60.901,46.476 60.101,46.476 60.101,40.676 60.901,40.676 60.901,37.576 60.101,37.576 60.101,36.576" style="fill:none;stroke-width:0.050000mm;stroke:black"/>
<polygon points="65.151,36.576 65.151,37.576 64.350,37.576 64.350,40.676 65.151,40.676 65.151,46.476 64.350,46.476 64.350,49.576 65.151,49.576 65.151,50.576 79.151,50.576 79.151,49.576 79.951,49.576 79.951,46.476 79.151,46.476 79.151,40.676 79.951,40.676 79.951,37.576 79.151,37.576 79.151,36.576" style="fill:none;stroke-width:0.050000mm;stroke:black"/>
<polygon points="84.201,36.576 84.201,37.576 83.401,37.576 83.401,40.676 84.201,40.676 84.201,46.476 83.401,46.476 83.401,49.576 84.201,49.576 84.201,50.576 98.201,50.576 98.201,49.576 99.001,49.576 99.001,46.476 98.201,46.476 98.201,40.676 99.001,40.676 99.001,37.576 98.201,37.576 98.201,36.576" style="fill:none;stroke-width:0.050000mm;stroke:black"/>
<polygon points="103.251,36.576 103.251,37.576 102.451,37.576 102.451,40.676 103.251,40.676 103.251,46.476 102.451,46.476 102.451,49.576 103.251,49.576 103.251,50.576 117.251,50.576 117.251,49.576 118.051,49.576 118.051,46.476 117.251,46.476 117.251,40.676 118.051,40.676 118.051,37.576 117.251,37.576 117.251,36.576" style="fill:none;stroke-width:0.050000mm;stroke:black"/>
<polygon points="122.301,36.576 122.301,37.576 121.501,37.576 121.501,40.676 122.301,40.676 122.301,46.476 121.501,46.476 121.501,49.576 122.301,49.576 122.301,50.576 136.301,50.576 136.301,49.576 137.101,49.576 137.101,46.476 136.301,46.476 136.301,40.676 137.101,40.676 137.101,37.576 136.301,37.576 136.301,36.576" style="fill:none;stroke-width:0.050000mm;stroke:black"/>
<polygon points="141.351,36.576 141.351,37.576 140.551,37.576 140.551,40.676 141.351,40.676 141.351,46.476 140.551,46.476 140.551,49.576 141.351,49.576 141.351,50.576 155.351,50.576 155.351,49.576 156.151,49.576 156.151,46.476 155.351,46.476 155.351,40.676 156.151,40.676 156.151,37.576 155.351,37.576 155.351,36.576" style="fill:none;stroke-width:0.050000mm;stroke:black"/>
<polygon points="160.401,36.576 160.401,37.576 159.601,37.576 159.601,40.676 160.401,40.676 160.401,46.476 159.601,46.476 159.601,49.576 160.401,49.576 160.401,50.576 174.401,50.576 174.401,49.576 175.201,49.576 175.201,46.476 174.401,46.476 174.401,40.676 175.201,40.676 175.201,37.576 174.401,37.576 174.401,36.576" style="fill:none;stroke-width:0.050000mm;stroke:black"/>
<polygon points="179.451,36.576 179.451,37.576 178.651,37.576 178.651,40.676 179.451,40.676 179.451,46.476 178.651,46.476 178.651,49.576 179.451,49.576 179.451,50.576 193.451,50.576 193.451,49.576 194.251,49.576 194.251,46.476 193.451,46.476 193.451,40.676 194.251,40.676 194.251,37.576 193.451,37.576 193.451,36.576" style="fill:none;stroke-width:0.050000mm;stroke:black"/>
<polygon points="198.501,36.576 198.501,37.576 197.701,37.576 197.701,40.676 198.501,40.676 198.501,46.476 197.701,46.476 197.701,49.576 198.501,49.576 198.501,50.576 212.501,50.576 212.501,49.576 213.301,49.576 213.301,46.476 212.501,46.476 212.501,40.676 213.301,40.676 213.301,37.576 212.501,37.576 212.501,36.576" style="fill:none;stroke-width:0.050000mm;stroke:black"/>
<polygon points="217.551,36.576 217.551,37.576 216.751,37.576 216.751,40.676 217.551,40.676 217.551,46.476 216.751,46.476 216.751,49.576 217.551,49.576 217.551,50.576 231.551,50.576 231.551,49.576 232.351,49.576 232.351,46.476 231.551,46.476 231.551,40.676 232.351,40.676 232.351,37.576 231.551,37.576 231.551,36.576" style="fill:none;stroke-width:0.050000mm;stroke:black"/>
<polygon points="236.601,36.576 236.601,37.576 235.801,37.576 235.801,40.676 236.601,40.676 236.601,46.476 235.801,46.476 235.801,49.576 236.601,49.576 236.601,50.576 250.601,50.576 250.601,49.576 251.401,49.576 251.401,46.476 250.601,46.476 250.601,40.676 251.401,40.676 251.401,37.576 250.601,37.576 250.601,36.576" style="fill:none;stroke-width:0.050000mm;stroke:black"/>
<polygon points="255.651,36.576 255.651,37.576 254.851,37.576 254.851,40.676 255.651,40.676 255.651,46.476 254.851,46.476 254.851,49.576 255.651,49.576 255.651,50.576 269.651,50.576 269.651,49.576 270.451,49.576 270.451,46.476 269.651,46.476 269.651,40.676 270.451,40.676 270.451,37.576 269.651,37.576 269.651,36.576" style="fill:none;stroke-width:0.050000mm;stroke:black"/>
<polygon points="279.463,36.576 279.463,37.576 278.663,37.576 278.663,40.676 279.463,40.676 279.463,46.476 278.663,46.476 278.663,49.576 279.463,49.576 279.463,50.576 293.463,50.576 293.463,49.576 294.263,49.576 294.263,46.476 293.463,46.476 293.463,40.676 294.263,40.676 294.263,37.576 293.463,37.576 293.463,36.576" style="fill:none;stroke-width:0.050000mm;stroke:black"/>
<polygon points="17.526,17.526 17.526,18.526 16.725,18.526 16.725,21.626 17.526,21.626 17.526,27.425 16.725,27.425 16.725,30.526 17.526,30.526 17.526,31.526 31.526,31.526 31.526,30.526 32.324,30.526 32.324,27.425 31.526,27.425 31.526,21.626 32.324,21.626 32.324,18.526 31.526,18.526 31.526,17.526" style="fill:none;stroke-width:0.050000mm;stroke:black"/>
<polygon points="36.576,17.526 36.576,18.526 35.776,18.526 35.776,21.626 36.576,21.626 36.576,27.425 35.776,27.425 35.776,30.526 36.576,30.526 36.576,31.526 50.576,31.526 50.576,30.526 51.376,30.526 51.376,27.425 50.576,27.425 50.576,21.626 51.376,21.626 51.376,18.526 50.576,18.526 50.576,17.526" style="fill:none;stroke-width:0.050000mm;stroke:black"/>
<polygon points="55.626,17.526 55.626,18.526 54.826,18.526 54.826,21.626 55.626,21.626 55.626,27.425 54.826,27.425 54.826,30.526 55.626,30.526 55.626,31.526 69.626,31.526 69.626,30.526 70.426,30.526 70.426,27.425 69.626,27.425 69.626,21.626 70.426,21.626 70.426,18.526 69.626,18.526 69.626,17.526" style="fill:none;stroke-width:0.050000mm;stroke:black"/>
<polygon points="74.676,17.526 74.676,18.526 73.876,18.526 73.876,21.626 74.676,21.626 74.676,27.425 73.876,27.425 73.876,30.526 74.676,30.526 74.676,31.526 88.676,31.526 88.676,30.526 89.476,30.526 89.476,27.425 88.676,27.425 88.676,21.626 89.476,21.626 89.476,18.526 88.676,18.526 88.676,17.526" style="fill:none;stroke-width:0.050000mm;stroke:black"/>
<polygon points="93.726,17.526 93.726,18.526 92.926,18.526 92.926,21.626 93.726,21.626 93.726,27.425 92.926,27.425 92.926,30.526 93.726,30.526 93.726,31.526 107.726,31.526 107.726,30.526 108.525,30.526 108.525,27.425 107.726,27.425 107.726,21.626 108.525,21.626 108.525,18.526 107.726,18.526 107.726,17.526" style="fill:none;stroke-width:0.050000mm;stroke:black"/>
<polygon points="112.775,17.526 112.775,18.526 111.976,18.526 111.976,21.626 112.775,21.626 112.775,27.425 111.976,27.425 111.976,30.526 112.775,30.526 112.775,31.526 126.775,31.526 126.775,30.526 127.575,30.526 127.575,27.425 126.775,27.425 126.775,21.626 127.575,21.626 127.575,18.526 126.775,18.526 126.775,17.526" style="fill:none;stroke-width:0.050000mm;stroke:black"/>
<polygon points="131.826,17.526 131.826,18.526 131.025,18.526 131.025,21.626 131.826,21.626 131.826,27.425 131.025,27.425 131.025,30.526 131.826,30.526 131.826,31.526 145.826,31.526 145.826,30.526 146.626,30.526 146.626,27.425 145.826,27.425 145.826,21.626 146.626,21.626 146.626,18.526 145.826,18.526 145.826,17.526" style="fill:none;stroke-width:0.050000mm;stroke:black"/>
<polygon points="150.876,17.526 150.876,18.526 150.076,18.526 150.076,21.626 150.876,21.626 150.876,27.425 150.076,27.425 150.076,30.526 150.876,30.526 150.876,31.526 164.876,31.526 164.876,30.526 165.676,30.526 165.676,27.425 164.876,27.425 164.876,21.626 165.676,21.626 165.676,18.526 164.876,18.526 164.876,17.526" style="fill:none;stroke-width:0.050000mm;stroke:black"/>
<polygon points="169.926,17.526 169.926,18.526 169.126,18.526 169.126,21.626 169.926,21.626 169.926,27.425 169.126,27.425 169.126,30.526 169.926,30.526 169.926,31.526 183.926,31.526 183.926,30.526 184.726,30.526 184.726,27.425 183.926,27.425 183.926,21.626 184.726,21.626 184.726,18.526 183.926,18.526 183.926,17.526" style="fill:none;stroke-width:0.050000mm;stroke:black"/>
<polygon points="188.976,17.526 188.976,18.526 188.176,18.526 188.176,21.626 188.976,21.626 188.976,27.425 188.176,27.425 188.176,30.526 188.976,30.526 188.976,31.526 202.976,31.526 202.976,30.526 203.776,30.526 203.776,27.425 202.976,27.425 202.976,21.626 203.776,21.626 203.776,18.526 202.976,18.526 202.976,17.526" style="fill:none;stroke-width:0.050000mm;stroke:black"/>
<polygon points="208.026,17.526 208.026,18.526 207.226,18.526 207.226,21.626 208.026,21.626 208.026,27.425 207.226,27.425 207.226,30.526 208.026,30.526 208.026,31.526 222.026,31.526 222.026,30.526 222.826,30.526 222.826,27.425 222.026,27.425 222.026,21.626 222.826,21.626 222.826,18.526 222.026,18.526 222.026,17.526" style="fill:none;stroke-width:0.050000mm;stroke:black"/>
<polygon points="227.076,17.526 227.076,18.526 226.276,18.526 226.276,21.626 227.076,21.626 227.076,27.425 226.276,27.425 226.276,30.526 227.076,30.526 227.076,31.526 241.076,31.526 241.076,30.526 241.876,30.526 241.876,27.425 241.076,27.425 241.076,21.626 241.876,21.626 241.876,18.526 241.076,18.526 241.076,17.526" style="fill:none;stroke-width:0.050000mm;stroke:black"/>
<polygon points="246.126,17.526 246.126,18.526 245.326,18.526 245.326,21.626 246.126,21.626 246.126,27.425 245.326,27.425 245.326,30.526 246.126,30.526 246.126,31.526 260.126,31.526 260.126,30.526 260.926,30.526 260.926,27.425 260.126,27.425 260.126,21.626 260.926,21.626 260.926,18.526 260.126,18.526 260.126,17.526" style="fill:none;stroke-width:0.050000mm;stroke:black"/>
<polygon points="265.176,17.526 265.176,18.526 264.376,18.526 264.376,21.626 265.176,21.626 265.176,27.425 264.376,27.425 264.376,30.526 265.176,30.526 265.176,31.526 279.176,31.526 279.176,30.526 279.976,30.526 279.976,27.425 279.176,27.425 279.176,21.626 279.976,21.626 279.976,18.526 279.176,18.526 279.176,17.526" style="fill:none;stroke-width:0.050000mm;stroke:black"/>
<polygon points="284.226,17.526 284.226,18.526 283.426,18.526 283.426,21.626 284.226,21.626 284.226,27.425 283.426,27.425 283.426,30.526 284.226,30.526 284.226,31.526 298.226,31.526 298.226,30.526 299.026,30.526 299.026,27.425 298.226,27.425 298.226,21.626 299.026,21.626 299.026,18.526 298.226,18.526 298.226,17.526" style="fill:none;stroke-width:0.050000mm;stroke:black"/>
<polygon points="82.379,6.549 82.100,6.691 81.879,6.913 81.737,7.191 81.688,7.500 81.737,7.810 81.879,8.088 82.100,8.310 82.379,8.452 82.688,8.501 82.997,8.452 83.276,8.310 83.497,8.088 83.639,7.810 83.688,7.501 83.639,7.191 83.497,6.913 83.276,6.691 82.997,6.549 82.688,6.501" style="fill:none;stroke-width:0.050000mm;stroke:black"/>
<polygon points="157.567,6.549 157.288,6.691 157.067,6.913 156.925,7.191 156.876,7.500 156.925,7.810 157.067,8.088 157.288,8.310 157.567,8.452 157.876,8.501 158.185,8.452 158.464,8.310 158.685,8.088 158.827,7.810 158.876,7.501 158.827,7.191 158.685,6.913 158.464,6.691 158.185,6.549 157.876,6.501" style="fill:none;stroke-width:0.050000mm;stroke:black"/>
<polygon points="232.755,6.549 232.476,6.691 232.255,6.913 232.113,7.191 232.064,7.500 232.113,7.810 232.255,8.088 232.476,8.310 232.755,8.452 233.064,8.501 233.373,8.452 233.652,8.310 233.873,8.088 234.015,7.810 234.064,7.501 234.015,7.191 233.873,6.913 233.652,6.691 233.373,6.549 233.064,6.501" style="fill:none;stroke-width:0.050000mm;stroke:black"/>
<polygon points="307.942,6.549 307.664,6.691 307.442,6.913 307.300,7.191 307.252,7.500 307.300,7.810 307.442,8.088 307.664,8.310 307.942,8.452 308.252,8.501 308.561,8.452 308.839,8.310 309.061,8.088 309.203,7.810 309.252,7.501 309.203,7.191 309.061,6.913 308.839,6.691 308.561,6.549 308.252,6.501" style="fill:none;stroke-width:0.050000mm;stroke:black"/>
<polygon points="7.191,6.549 6.913,6.691 6.691,6.913 6.549,7.191 6.500,7.500 6.549,7.810 6.691,8.088 6.913,8.310 7.191,8.452 7.500,8.501 7.810,8.452 8.088,8.310 8.310,8.088 8.452,7.810 8.501,7.501 8.452,7.191 8.310,6.913 8.088,6.691 7.810,6.549 7.501,6.501" style="fill:none;stroke-width:0.050000mm;stroke:black"/>
</svg>
