<?xml version="1.0"?>
<!-- Generated by SVGo -->
<svg width="315.752mm" height="125.251mm"
     viewBox="0.000 0.000 315.752 125.251"
     xmlns="http://www.w3.org/2000/svg" 
     xmlns:xlink="http://www.w3.org/1999/xlink">
<polygon points="308.752,5.001 308.908,5.007 309.064,5.025 309.218,5.056 309.370,5.098 309.517,5.153 309.659,5.218 309.796,5.295 309.927,5.382 310.050,5.480 310.166,5.586 310.272,5.702 310.370,5.825 310.457,5.956 310.534,6.093 310.599,6.235 310.654,6.382 310.696,6.534 310.727,6.688 310.745,6.844 310.752,7.001 310.752,118.251 310.745,118.408 310.727,118.564 310.696,118.718 310.654,118.870 310.599,119.017 310.534,119.159 310.457,119.296 310.370,119.427 310.272,119.550 310.166,119.666 310.050,119.772 309.927,119.870 309.796,119.957 309.659,120.034 309.517,120.099 309.370,120.154 309.218,120.196 309.064,120.227 308.908,120.245 308.752,120.251 7.001,120.251 6.844,120.245 6.688,120.227 6.534,120.196 6.382,120.154 6.235,120.099 6.093,120.034 5.956,119.957 5.825,119.870 5.702,119.772 5.586,119.666 5.480,119.550 5.382,119.427 5.295,119.296 5.218,119.159 5.153,119.017 5.098,118.870 5.056,118.718 5.025,118.564 5.007,118.408 5.000,118.252 5.001,7.001 5.007,6.844 5.025,6.688 5.056,6.534 5.098,6.382 5.153,6.235 5.218,6.093 5.295,5.956 5.382,5.825 5.480,5.702 5.586,5.586 5.702,5.480 5.825,5.382 5.956,5.295 6.093,5.218 6.235,5.153 6.382,5.098 6.534,5.056 6.688,5.025 6.844,5.007 7.001,5.000" style="fill:none;stroke-width:0.050000mm;stroke:black"/>
<polygon points="307.942,116.800 307.664,116.942 307.442,117.164 307.300,117.442 307.252,117.751 307.300,118.061 307.442,118.339 307.664,118.561 307.942,118.703 308.252,118.751 308.561,118.703 308.839,118.561 309.061,118.339 309.203,118.061 309.252,117.751 309.203,117.442 309.061,117.164 308.839,116.942 308.561,116.800 308.252,116.751" style="fill:none;stroke-width:0.050000mm;stroke:black"/>
<polygon points="232.755,116.800 232.476,116.942 232.255,117.164 232.113,117.442 232.064,117.751 232.113,118.061 232.255,118.339 232.476,118.561 232.755,118.703 233.064,118.751 233.373,118.703 233.652,118.561 233.873,118.339 234.015,118.061 234.064,117.751 234.015,117.442 233.873,117.164 233.652,116.942 233.373,116.800 233.064,116.751" style="fill:none;stroke-width:0.050000mm;stroke:black"/>
<polygon points="157.567,116.800 157.288,116.942 157.067,117.164 156.925,117.442 156.876,117.751 156.925,118.061 157.067,118.339 157.288,118.561 157.567,118.703 157.876,118.751 158.185,118.703 158.464,118.561 158.685,118.339 158.827,118.061 158.876,117.751 158.827,117.442 158.685,117.164 158.464,116.942 158.185,116.800 157.876,116.751" style="fill:none;stroke-width:0.050000mm;stroke:black"/>
<polygon points="82.379,116.800 82.100,116.942 81.879,117.164 81.737,117.442 81.688,117.751 81.737,118.061 81.879,118.339 82.100,118.561 82.379,118.703 82.688,118.751 82.997,118.703 83.276,118.561 83.497,118.339 83.639,118.061 83.688,117.751 83.639,117.442 83.497,117.164 83.276,116.942 82.997,116.800 82.688,116.751" style="fill:none;stroke-width:0.050000mm;stroke:black"/>
<polygon points="7.191,116.800 6.913,116.942 6.691,117.164 6.549,117.442 6.500,117.751 6.549,118.061 6.691,118.339 6.913,118.561 7.191,118.703 7.500,118.751 7.810,118.703 8.088,118.561 8.310,118.339 8.452,118.061 8.501,117.751 8.452,117.442 8.310,117.164 8.088,116.942 7.810,116.800 7.501,116.751" style="fill:none;stroke-width:0.050000mm;stroke:black"/>
<polygon points="10.001,10.001 10.001,115.251 305.752,115.251 305.752,10.001" style="fill:none;stroke-width:0.050000mm;stroke:black"/>
<polygon points="307.942,61.675 307.664,61.817 307.442,62.038 307.300,62.317 307.252,62.626 307.300,62.935 307.442,63.214 307.664,63.435 307.942,63.577 308.252,63.626 308.561,63.577 308.839,63.435 309.061,63.214 309.203,62.935 309.252,62.626 309.203,62.317 309.061,62.038 308.839,61.817 308.561,61.675 308.252,61.626" style="fill:none;stroke-width:0.050000mm;stroke:black"/>
<polygon points="7.191,61.675 6.913,61.817 6.691,62.038 6.549,62.317 6.500,62.626 6.549,62.935 6.691,63.214 6.913,63.435 7.191,63.577 7.500,63.626 7.810,63.577 8.088,63.435 8.310,63.214 8.452,62.935 8.501,62.626 8.452,62.317 8.310,62.038 8.088,61.817 7.810,61.675 7.501,61.626" style="fill:none;stroke-width:0.050000mm;stroke:black"/>
<polygon points="82.379,6.549 82.100,6.691 81.879,6.913 81.737,7.191 81.688,7.500 81.737,7.810 81.879,8.088 82.100,8.310 82.379,8.452 82.688,8.501 82.997,8.452 83.276,8.310 83.497,8.088 83.639,7.810 83.688,7.501 83.639,7.191 83.497,6.913 83.276,6.691 82.997,6.549 82.688,6.501" style="fill:none;stroke-width:0.050000mm;stroke:black"/>
<polygon points="157.567,6.549 157.288,6.691 157.067,6.913 156.925,7.191 156.876,7.500 156.925,7.810 157.067,8.088 157.288,8.310 157.567,8.452 157.876,8.501 158.185,8.452 158.464,8.310 158.685,8.088 158.827,7.810 158.876,7.501 158.827,7.191 158.685,6.913 158.464,6.691 158.185,6.549 157.876,6.501" style="fill:none;stroke-width:0.050000mm;stroke:black"/>
<polygon points="232.755,6.549 232.476,6.691 232.255,6.913 232.113,7.191 232.064,7.500 232.113,7.810 232.255,8.088 232.476,8.310 232.755,8.452 233.064,8.501 233.373,8.452 233.652,8.310 233.873,8.088 234.015,7.810 234.064,7.501 234.015,7.191 233.873,6.913 233.652,6.691 233.373,6.549 233.064,6.501" style="fill:none;stroke-width:0.050000mm;stroke:black"/>
<polygon points="307.942,6.549 307.664,6.691 307.442,6.913 307.300,7.191 307.252,7.500 307.300,7.810 307.442,8.088 307.664,8.310 307.942,8.452 308.252,8.501 308.561,8.452 308.839,8.310 309.061,8.088 309.203,7.810 309.252,7.501 309.203,7.191 309.061,6.913 308.839,6.691 308.561,6.549 308.252,6.501" style="fill:none;stroke-width:0.050000mm;stroke:black"/>
<polygon points="7.191,6.549 6.913,6.691 6.691,6.913 6.549,7.191 6.500,7.500 6.549,7.810 6.691,8.088 6.913,8.310 7.191,8.452 7.500,8.501 7.810,8.452 8.088,8.310 8.310,8.088 8.452,7.810 8.501,7.501 8.452,7.191 8.310,6.913 8.088,6.691 7.810,6.549 7.501,6.501" style="fill:none;stroke-width:0.050000mm;stroke:black"/>
</svg>
